<?xml version="1.0" encoding="UTF-8" standalone="no"?>
<!DOCTYPE svg PUBLIC "-//W3C//DTD SVG 1.1//EN"
 "http://www.w3.org/Graphics/SVG/1.1/DTD/svg11.dtd">
<!-- Generated by graphviz version 14.1.5 (20260411.2331)
 -->
<!-- Title: C4_Dynamic_Claim Pages: 1 -->
<svg width="984pt" height="161pt"
 viewBox="0.00 0.00 984.00 161.00" xmlns="http://www.w3.org/2000/svg" xmlns:xlink="http://www.w3.org/1999/xlink">
<g id="graph0" class="graph" transform="scale(1 1) rotate(0) translate(4 157)">
<title>C4_Dynamic_Claim</title>
<polygon fill="white" stroke="none" points="-4,4 -4,-157 980.19,-157 980.19,4 -4,4"/>
<text xml:space="preserve" text-anchor="middle" x="488.1" y="-136.65" font-family="Arial" font-size="13.00">C4 Dynamic Diagram — Warranty Claim Flow</text>
<!-- agent -->
<g id="node1" class="node">
<title>agent</title>
<ellipse fill="#08427b" stroke="black" cx="60.47" cy="-61" rx="60.47" ry="18"/>
<text xml:space="preserve" text-anchor="middle" x="60.47" y="-57.7" font-family="Arial" font-size="9.00" fill="white">Contact Center Agent</text>
</g>
<!-- web -->
<g id="node2" class="node">
<title>web</title>
<path fill="#438dd5" stroke="black" d="M279.44,-79C279.44,-79 203.44,-79 203.44,-79 197.44,-79 191.44,-73 191.44,-67 191.44,-67 191.44,-55 191.44,-55 191.44,-49 197.44,-43 203.44,-43 203.44,-43 279.44,-43 279.44,-43 285.44,-43 291.44,-49 291.44,-55 291.44,-55 291.44,-67 291.44,-67 291.44,-73 285.44,-79 279.44,-79"/>
<text xml:space="preserve" text-anchor="middle" x="241.44" y="-57.7" font-family="Arial" font-size="9.00" fill="white">Streamlit Claims Tab</text>
</g>
<!-- agent&#45;&gt;web -->
<g id="edge1" class="edge">
<title>agent&#45;&gt;web</title>
<path fill="none" stroke="#1168bd" stroke-width="1.5" d="M121.07,-61C139.67,-61 160.21,-61 178.94,-61"/>
<polygon fill="#1168bd" stroke="#1168bd" stroke-width="1.5" points="178.68,-64.5 188.68,-61 178.68,-57.5 178.68,-64.5"/>
<text xml:space="preserve" text-anchor="middle" x="156.19" y="-62.95" font-family="Arial" font-size="9.00">1 submit</text>
</g>
<!-- api -->
<g id="node3" class="node">
<title>api</title>
<path fill="#438dd5" stroke="black" d="M487.44,-120C487.44,-120 430.94,-120 430.94,-120 424.94,-120 418.94,-114 418.94,-108 418.94,-108 418.94,-96 418.94,-96 418.94,-90 424.94,-84 430.94,-84 430.94,-84 487.44,-84 487.44,-84 493.44,-84 499.44,-90 499.44,-96 499.44,-96 499.44,-108 499.44,-108 499.44,-114 493.44,-120 487.44,-120"/>
<text xml:space="preserve" text-anchor="middle" x="459.19" y="-98.7" font-family="Arial" font-size="9.00" fill="white">Diagnostics API</text>
</g>
<!-- web&#45;&gt;api -->
<g id="edge2" class="edge">
<title>web&#45;&gt;api</title>
<path fill="none" stroke="#1168bd" stroke-width="1.5" d="M291.94,-70.41C326.33,-76.94 372.04,-85.63 406.83,-92.24"/>
<polygon fill="#1168bd" stroke="#1168bd" stroke-width="1.5" points="405.93,-95.63 416.41,-94.06 407.24,-88.75 405.93,-95.63"/>
<text xml:space="preserve" text-anchor="middle" x="355.19" y="-92.95" font-family="Arial" font-size="9.00">2 POST /claims/submit</text>
</g>
<!-- claims -->
<g id="node5" class="node">
<title>claims</title>
<path fill="#438dd5" stroke="black" d="M737.44,-70C737.44,-70 677.19,-70 677.19,-70 671.19,-70 665.19,-64 665.19,-58 665.19,-58 665.19,-46 665.19,-46 665.19,-40 671.19,-34 677.19,-34 677.19,-34 737.44,-34 737.44,-34 743.44,-34 749.44,-40 749.44,-46 749.44,-46 749.44,-58 749.44,-58 749.44,-64 743.44,-70 737.44,-70"/>
<text xml:space="preserve" text-anchor="middle" x="707.32" y="-48.7" font-family="Arial" font-size="9.00" fill="white">Claims Workflow</text>
</g>
<!-- web&#45;&gt;claims -->
<g id="edge7" class="edge">
<title>web&#45;&gt;claims</title>
<path fill="none" stroke="#1168bd" stroke-width="1.5" stroke-dasharray="5,2" d="M291.88,-58.61C327.26,-57 376.02,-55 418.94,-54 500.49,-52.1 595.1,-51.81 652.82,-51.85"/>
<polygon fill="#1168bd" stroke="#1168bd" stroke-width="1.5" points="652.63,-55.35 662.64,-51.86 652.64,-48.35 652.63,-55.35"/>
<text xml:space="preserve" text-anchor="middle" x="459.19" y="-66.45" font-family="Arial" font-size="9.00">7 approve/deny</text>
<text xml:space="preserve" text-anchor="middle" x="459.19" y="-55.95" font-family="Arial" font-size="9.00">direct call</text>
</g>
<!-- agent_rt -->
<g id="node4" class="node">
<title>agent_rt</title>
<path fill="#438dd5" stroke="black" d="M733.69,-130C733.69,-130 680.94,-130 680.94,-130 674.94,-130 668.94,-124 668.94,-118 668.94,-118 668.94,-106 668.94,-106 668.94,-100 674.94,-94 680.94,-94 680.94,-94 733.69,-94 733.69,-94 739.69,-94 745.69,-100 745.69,-106 745.69,-106 745.69,-118 745.69,-118 745.69,-124 739.69,-130 733.69,-130"/>
<text xml:space="preserve" text-anchor="middle" x="707.32" y="-108.7" font-family="Arial" font-size="9.00" fill="white">Agent Runtime</text>
</g>
<!-- api&#45;&gt;agent_rt -->
<g id="edge3" class="edge">
<title>api&#45;&gt;agent_rt</title>
<path fill="none" stroke="#1168bd" stroke-width="1.5" d="M499.74,-103.61C542.31,-105.34 610.12,-108.09 656.35,-109.97"/>
<polygon fill="#1168bd" stroke="#1168bd" stroke-width="1.5" points="656.08,-113.46 666.22,-110.37 656.37,-106.47 656.08,-113.46"/>
<text xml:space="preserve" text-anchor="middle" x="582.32" y="-111.53" font-family="Arial" font-size="9.00">3 diagnose</text>
</g>
<!-- api&#45;&gt;claims -->
<g id="edge4" class="edge">
<title>api&#45;&gt;claims</title>
<path fill="none" stroke="#1168bd" stroke-width="1.5" d="M499.9,-93.23C505.78,-91.96 511.76,-90.68 517.44,-89.5 563.21,-79.96 615.35,-69.65 653.23,-62.26"/>
<polygon fill="#1168bd" stroke="#1168bd" stroke-width="1.5" points="653.63,-65.75 662.78,-60.4 652.29,-58.88 653.63,-65.75"/>
<text xml:space="preserve" text-anchor="middle" x="582.32" y="-91.45" font-family="Arial" font-size="9.00">4 submit_claim_from_diagnosis</text>
</g>
<!-- files -->
<g id="node6" class="node">
<title>files</title>
<polygon fill="#438dd5" stroke="black" points="976.19,-97 973.19,-101 952.19,-101 949.19,-97 894.94,-97 894.94,-61 976.19,-61 976.19,-97"/>
<text xml:space="preserve" text-anchor="middle" x="935.57" y="-75.7" font-family="Arial" font-size="9.00" fill="white">JSON File Store</text>
</g>
<!-- claims&#45;&gt;files -->
<g id="edge5" class="edge">
<title>claims&#45;&gt;files</title>
<path fill="none" stroke="#1168bd" stroke-width="1.5" d="M749.88,-61.04C755.76,-62.14 761.74,-63.17 767.44,-64 805.78,-69.59 849.4,-73.42 882.45,-75.81"/>
<polygon fill="#1168bd" stroke="#1168bd" stroke-width="1.5" points="882.09,-79.3 892.31,-76.5 882.58,-72.31 882.09,-79.3"/>
<text xml:space="preserve" text-anchor="middle" x="822.19" y="-77.19" font-family="Arial" font-size="9.00">5 claims_submissions.json</text>
</g>
<!-- claims&#45;&gt;files -->
<g id="edge8" class="edge">
<title>claims&#45;&gt;files</title>
<path fill="none" stroke="#1168bd" stroke-width="1.5" d="M749.77,-46.76C784.25,-43.62 834.4,-41.87 876.94,-51.5 881.61,-52.56 886.35,-54.04 890.99,-55.78"/>
<polygon fill="#1168bd" stroke="#1168bd" stroke-width="1.5" points="889.6,-58.99 900.17,-59.63 892.31,-52.53 889.6,-58.99"/>
<text xml:space="preserve" text-anchor="middle" x="822.19" y="-53.45" font-family="Arial" font-size="9.00">8 update status</text>
</g>
<!-- neo -->
<g id="node7" class="node">
<title>neo</title>
<path fill="#438dd5" stroke="black" d="M962.57,-32.73C962.57,-34.53 950.46,-36 935.57,-36 920.67,-36 908.57,-34.53 908.57,-32.73 908.57,-32.73 908.57,-3.27 908.57,-3.27 908.57,-1.47 920.67,0 935.57,0 950.46,0 962.57,-1.47 962.57,-3.27 962.57,-3.27 962.57,-32.73 962.57,-32.73"/>
<path fill="none" stroke="black" d="M962.57,-32.73C962.57,-30.92 950.46,-29.45 935.57,-29.45 920.67,-29.45 908.57,-30.92 908.57,-32.73"/>
<text xml:space="preserve" text-anchor="middle" x="935.57" y="-14.7" font-family="Arial" font-size="9.00" fill="white">Neo4j</text>
</g>
<!-- claims&#45;&gt;neo -->
<g id="edge6" class="edge">
<title>claims&#45;&gt;neo</title>
<path fill="none" stroke="#1168bd" stroke-width="1.5" d="M749.84,-34.46C755.67,-32.51 761.65,-30.77 767.44,-29.5 810.77,-19.99 861.79,-17.73 895.96,-17.45"/>
<polygon fill="#1168bd" stroke="#1168bd" stroke-width="1.5" points="895.91,-20.95 905.9,-17.44 895.9,-13.95 895.91,-20.95"/>
<text xml:space="preserve" text-anchor="middle" x="822.19" y="-31.45" font-family="Arial" font-size="9.00">6 MERGE Claim</text>
</g>
</g>
</svg>
