<?xml version="1.0" encoding="UTF-8" standalone="no"?>
<!DOCTYPE svg PUBLIC "-//W3C//DTD SVG 1.1//EN"
 "http://www.w3.org/Graphics/SVG/1.1/DTD/svg11.dtd">
<!-- Generated by graphviz version 14.1.5 (20260411.2331)
 -->
<!-- Title: C4_Dynamic_Diagnosis Pages: 1 -->
<svg width="1022pt" height="134pt"
 viewBox="0.00 0.00 1022.00 134.00" xmlns="http://www.w3.org/2000/svg" xmlns:xlink="http://www.w3.org/1999/xlink">
<g id="graph0" class="graph" transform="scale(1 1) rotate(0) translate(4 130)">
<title>C4_Dynamic_Diagnosis</title>
<polygon fill="white" stroke="none" points="-4,4 -4,-130 1017.83,-130 1017.83,4 -4,4"/>
<text xml:space="preserve" text-anchor="middle" x="506.92" y="-109.65" font-family="Arial" font-size="13.00">C4 Dynamic Diagram — Diagnosis Request Flow</text>
<!-- customer -->
<g id="node1" class="node">
<title>customer</title>
<ellipse fill="#08427b" stroke="black" cx="50.42" cy="-34" rx="50.42" ry="18"/>
<text xml:space="preserve" text-anchor="middle" x="50.42" y="-30.7" font-family="Arial" font-size="9.00" fill="white">Appliance Owner</text>
</g>
<!-- web -->
<g id="node2" class="node">
<title>web</title>
<path fill="#438dd5" stroke="black" d="M221.83,-52C221.83,-52 154.08,-52 154.08,-52 148.08,-52 142.08,-46 142.08,-40 142.08,-40 142.08,-28 142.08,-28 142.08,-22 148.08,-16 154.08,-16 154.08,-16 221.83,-16 221.83,-16 227.83,-16 233.83,-22 233.83,-28 233.83,-28 233.83,-40 233.83,-40 233.83,-46 227.83,-52 221.83,-52"/>
<text xml:space="preserve" text-anchor="middle" x="187.96" y="-30.7" font-family="Arial" font-size="9.00" fill="white">Streamlit Web App</text>
</g>
<!-- customer&#45;&gt;web -->
<g id="edge1" class="edge">
<title>customer&#45;&gt;web</title>
<path fill="none" stroke="#1168bd" stroke-width="1.5" d="M101.12,-34C110.36,-34 120.09,-34 129.55,-34"/>
<polygon fill="#1168bd" stroke="#1168bd" stroke-width="1.5" points="129.48,-37.5 139.48,-34 129.48,-30.5 129.48,-37.5"/>
<text xml:space="preserve" text-anchor="middle" x="121.46" y="-35.95" font-family="Arial" font-size="9.00">1</text>
</g>
<!-- api -->
<g id="node3" class="node">
<title>api</title>
<path fill="#438dd5" stroke="black" d="M412.58,-93C412.58,-93 356.08,-93 356.08,-93 350.08,-93 344.08,-87 344.08,-81 344.08,-81 344.08,-69 344.08,-69 344.08,-63 350.08,-57 356.08,-57 356.08,-57 412.58,-57 412.58,-57 418.58,-57 424.58,-63 424.58,-69 424.58,-69 424.58,-81 424.58,-81 424.58,-87 418.58,-93 412.58,-93"/>
<text xml:space="preserve" text-anchor="middle" x="384.33" y="-71.7" font-family="Arial" font-size="9.00" fill="white">Diagnostics API</text>
</g>
<!-- web&#45;&gt;api -->
<g id="edge2" class="edge">
<title>web&#45;&gt;api</title>
<path fill="none" stroke="#1168bd" stroke-width="1.5" stroke-dasharray="5,2" d="M223.42,-52.45C232.44,-56.56 242.31,-60.45 251.83,-63 277.6,-69.9 307.1,-73 331.63,-74.34"/>
<polygon fill="#1168bd" stroke="#1168bd" stroke-width="1.5" points="331.18,-77.82 341.32,-74.77 331.49,-70.83 331.18,-77.82"/>
<text xml:space="preserve" text-anchor="middle" x="288.96" y="-75.96" font-family="Arial" font-size="9.00">2 POST /diagnose</text>
</g>
<!-- agent -->
<g id="node5" class="node">
<title>agent</title>
<path fill="#438dd5" stroke="black" d="M629.21,-36C629.21,-36 576.46,-36 576.46,-36 570.46,-36 564.46,-30 564.46,-24 564.46,-24 564.46,-12 564.46,-12 564.46,-6 570.46,0 576.46,0 576.46,0 629.21,0 629.21,0 635.21,0 641.21,-6 641.21,-12 641.21,-12 641.21,-24 641.21,-24 641.21,-30 635.21,-36 629.21,-36"/>
<text xml:space="preserve" text-anchor="middle" x="602.83" y="-14.7" font-family="Arial" font-size="9.00" fill="white">Agent Runtime</text>
</g>
<!-- web&#45;&gt;agent -->
<g id="edge3" class="edge">
<title>web&#45;&gt;agent</title>
<path fill="none" stroke="#1168bd" stroke-width="1.5" d="M234.32,-32.24C312.33,-29.22 471.27,-23.06 552.16,-19.93"/>
<polygon fill="#1168bd" stroke="#1168bd" stroke-width="1.5" points="551.85,-23.44 561.7,-19.56 551.58,-16.45 551.85,-23.44"/>
<text xml:space="preserve" text-anchor="middle" x="384.33" y="-29.8" font-family="Arial" font-size="9.00">2b direct invoke</text>
</g>
<!-- api&#45;&gt;web -->
<g id="edge9" class="edge">
<title>api&#45;&gt;web</title>
<path fill="none" stroke="#1168bd" stroke-width="1.5" stroke-dasharray="5,2" d="M344.44,-56.62C338.39,-54.27 332.14,-52.12 326.08,-50.5 300.33,-43.59 271.07,-39.57 246.22,-37.23"/>
<polygon fill="#1168bd" stroke="#1168bd" stroke-width="1.5" points="246.56,-33.75 236.29,-36.38 245.96,-40.73 246.56,-33.75"/>
<text xml:space="preserve" text-anchor="middle" x="288.96" y="-52.45" font-family="Arial" font-size="9.00">7 JSON response</text>
</g>
<!-- integ -->
<g id="node4" class="node">
<title>integ</title>
<path fill="#438dd5" stroke="black" d="M639.33,-103C639.33,-103 566.33,-103 566.33,-103 560.33,-103 554.33,-97 554.33,-91 554.33,-91 554.33,-79 554.33,-79 554.33,-73 560.33,-67 566.33,-67 566.33,-67 639.33,-67 639.33,-67 645.33,-67 651.33,-73 651.33,-79 651.33,-79 651.33,-91 651.33,-91 651.33,-97 645.33,-103 639.33,-103"/>
<text xml:space="preserve" text-anchor="middle" x="602.83" y="-86.95" font-family="Arial" font-size="9.00" fill="white">Integration Services</text>
<text xml:space="preserve" text-anchor="middle" x="602.83" y="-76.45" font-family="Arial" font-size="9.00" fill="white">CRM · warranty</text>
</g>
<!-- api&#45;&gt;integ -->
<g id="edge4" class="edge">
<title>api&#45;&gt;integ</title>
<path fill="none" stroke="#1168bd" stroke-width="1.5" d="M425.04,-76.83C457.73,-78.34 504.57,-80.51 541.83,-82.23"/>
<polygon fill="#1168bd" stroke="#1168bd" stroke-width="1.5" points="541.64,-85.72 551.79,-82.69 541.97,-78.73 541.64,-85.72"/>
<text xml:space="preserve" text-anchor="middle" x="489.46" y="-83.72" font-family="Arial" font-size="9.00">3 CRM + warranty gate</text>
</g>
<!-- api&#45;&gt;agent -->
<g id="edge5" class="edge">
<title>api&#45;&gt;agent</title>
<path fill="none" stroke="#1168bd" stroke-width="1.5" d="M425.04,-64.55C460.92,-55.1 513.86,-41.16 552.45,-31"/>
<polygon fill="#1168bd" stroke="#1168bd" stroke-width="1.5" points="553.21,-34.42 561.99,-28.49 551.43,-27.65 553.21,-34.42"/>
<text xml:space="preserve" text-anchor="middle" x="489.46" y="-61.66" font-family="Arial" font-size="9.00">4 run_diagnosis()</text>
</g>
<!-- agent&#45;&gt;web -->
<g id="edge8" class="edge">
<title>agent&#45;&gt;web</title>
<path fill="none" stroke="#1168bd" stroke-width="1.5" d="M564.21,-14.46C513.97,-10.28 422.2,-4.62 344.08,-10.5 311.52,-12.95 275.44,-18.26 246.28,-23.21"/>
<polygon fill="#1168bd" stroke="#1168bd" stroke-width="1.5" points="245.72,-19.76 236.47,-24.92 246.92,-26.65 245.72,-19.76"/>
<text xml:space="preserve" text-anchor="middle" x="384.33" y="-12.45" font-family="Arial" font-size="9.00">7 response</text>
</g>
<!-- intel -->
<g id="node6" class="node">
<title>intel</title>
<path fill="#438dd5" stroke="black" d="M874.33,-36C874.33,-36 807.33,-36 807.33,-36 801.33,-36 795.33,-30 795.33,-24 795.33,-24 795.33,-12 795.33,-12 795.33,-6 801.33,0 807.33,0 807.33,0 874.33,0 874.33,0 880.33,0 886.33,-6 886.33,-12 886.33,-12 886.33,-24 886.33,-24 886.33,-30 880.33,-36 874.33,-36"/>
<text xml:space="preserve" text-anchor="middle" x="840.83" y="-14.7" font-family="Arial" font-size="9.00" fill="white">Graph Intelligence</text>
</g>
<!-- agent&#45;&gt;intel -->
<g id="edge6" class="edge">
<title>agent&#45;&gt;intel</title>
<path fill="none" stroke="#1168bd" stroke-width="1.5" d="M641.49,-18C679.59,-18 738.98,-18 782.84,-18"/>
<polygon fill="#1168bd" stroke="#1168bd" stroke-width="1.5" points="782.79,-21.5 792.79,-18 782.79,-14.5 782.79,-21.5"/>
<text xml:space="preserve" text-anchor="middle" x="723.33" y="-19.95" font-family="Arial" font-size="9.00">5 GraphRAG · trees · parts</text>
</g>
<!-- neo -->
<g id="node7" class="node">
<title>neo</title>
<path fill="#438dd5" stroke="black" d="M1013.83,-32.73C1013.83,-34.53 1001.73,-36 986.83,-36 971.93,-36 959.83,-34.53 959.83,-32.73 959.83,-32.73 959.83,-3.27 959.83,-3.27 959.83,-1.47 971.93,0 986.83,0 1001.73,0 1013.83,-1.47 1013.83,-3.27 1013.83,-3.27 1013.83,-32.73 1013.83,-32.73"/>
<path fill="none" stroke="black" d="M1013.83,-32.73C1013.83,-30.92 1001.73,-29.45 986.83,-29.45 971.93,-29.45 959.83,-30.92 959.83,-32.73"/>
<text xml:space="preserve" text-anchor="middle" x="986.83" y="-14.7" font-family="Arial" font-size="9.00" fill="white">Neo4j</text>
</g>
<!-- intel&#45;&gt;neo -->
<g id="edge7" class="edge">
<title>intel&#45;&gt;neo</title>
<path fill="none" stroke="#1168bd" stroke-width="1.5" d="M886.61,-18C906.06,-18 928.62,-18 947.31,-18"/>
<polygon fill="#1168bd" stroke="#1168bd" stroke-width="1.5" points="947.28,-21.5 957.28,-18 947.28,-14.5 947.28,-21.5"/>
<text xml:space="preserve" text-anchor="middle" x="923.08" y="-19.95" font-family="Arial" font-size="9.00">6 Cypher</text>
</g>
</g>
</svg>
