<?xml version="1.0" encoding="UTF-8" standalone="no"?>
<!DOCTYPE svg PUBLIC "-//W3C//DTD SVG 1.1//EN"
 "http://www.w3.org/Graphics/SVG/1.1/DTD/svg11.dtd">
<!-- Generated by graphviz version 14.1.5 (20260411.2331)
 -->
<!-- Title: C4_Dynamic_ETL Pages: 1 -->
<svg width="533pt" height="216pt"
 viewBox="0.00 0.00 533.00 216.00" xmlns="http://www.w3.org/2000/svg" xmlns:xlink="http://www.w3.org/1999/xlink">
<g id="graph0" class="graph" transform="scale(1 1) rotate(0) translate(4 212)">
<title>C4_Dynamic_ETL</title>
<polygon fill="white" stroke="none" points="-4,4 -4,-212 529.1,-212 529.1,4 -4,4"/>
<text xml:space="preserve" text-anchor="middle" x="262.55" y="-191.65" font-family="Arial" font-size="13.00">C4 Dynamic Diagram — ETL &amp; Knowledge Graph Build Flow</text>
<!-- ops -->
<g id="node1" class="node">
<title>ops</title>
<ellipse fill="#08427b" stroke="black" cx="39.93" cy="-133" rx="39.93" ry="18"/>
<text xml:space="preserve" text-anchor="middle" x="39.93" y="-129.7" font-family="Arial" font-size="9.00" fill="white">Platform Ops</text>
</g>
<!-- bp -->
<g id="node2" class="node">
<title>bp</title>
<path fill="#438dd5" stroke="black" d="M270.6,-185C270.6,-185 199.85,-185 199.85,-185 193.85,-185 187.85,-179 187.85,-173 187.85,-173 187.85,-161 187.85,-161 187.85,-155 193.85,-149 199.85,-149 199.85,-149 270.6,-149 270.6,-149 276.6,-149 282.6,-155 282.6,-161 282.6,-161 282.6,-173 282.6,-173 282.6,-179 276.6,-185 270.6,-185"/>
<text xml:space="preserve" text-anchor="middle" x="235.23" y="-168.95" font-family="Arial" font-size="9.00" fill="white">Blueprint Authoring</text>
<text xml:space="preserve" text-anchor="middle" x="235.23" y="-158.45" font-family="Arial" font-size="9.00" fill="white">PIM sync</text>
</g>
<!-- ops&#45;&gt;bp -->
<g id="edge1" class="edge">
<title>ops&#45;&gt;bp</title>
<path fill="none" stroke="#1168bd" stroke-width="1.5" d="M77.74,-139.48C105.42,-144.34 143.9,-151.11 175.77,-156.72"/>
<polygon fill="#1168bd" stroke="#1168bd" stroke-width="1.5" points="174.94,-160.13 185.39,-158.41 176.15,-153.23 174.94,-160.13"/>
<text xml:space="preserve" text-anchor="middle" x="133.85" y="-156.98" font-family="Arial" font-size="9.00">1 sync OEM</text>
</g>
<!-- etl -->
<g id="node4" class="node">
<title>etl</title>
<path fill="#438dd5" stroke="black" d="M269.85,-124C269.85,-124 200.6,-124 200.6,-124 194.6,-124 188.6,-118 188.6,-112 188.6,-112 188.6,-100 188.6,-100 188.6,-94 194.6,-88 200.6,-88 200.6,-88 269.85,-88 269.85,-88 275.85,-88 281.85,-94 281.85,-100 281.85,-100 281.85,-112 281.85,-112 281.85,-118 275.85,-124 269.85,-124"/>
<text xml:space="preserve" text-anchor="middle" x="235.23" y="-102.7" font-family="Arial" font-size="9.00" fill="white">ETL Batch Pipeline</text>
</g>
<!-- ops&#45;&gt;etl -->
<g id="edge3" class="edge">
<title>ops&#45;&gt;etl</title>
<path fill="none" stroke="#1168bd" stroke-width="1.5" d="M77,-126C83.91,-124.75 91.09,-123.53 97.85,-122.5 123.57,-118.58 152.12,-115 176.44,-112.19"/>
<polygon fill="#1168bd" stroke="#1168bd" stroke-width="1.5" points="176.56,-115.7 186.1,-111.09 175.77,-108.74 176.56,-115.7"/>
<text xml:space="preserve" text-anchor="middle" x="133.85" y="-124.45" font-family="Arial" font-size="9.00">3 run orchestrator</text>
</g>
<!-- files -->
<g id="node3" class="node">
<title>files</title>
<polygon fill="#438dd5" stroke="black" points="516.48,-158 513.48,-162 492.48,-162 489.48,-158 435.23,-158 435.23,-122 516.48,-122 516.48,-158"/>
<text xml:space="preserve" text-anchor="middle" x="475.85" y="-136.7" font-family="Arial" font-size="9.00" fill="white">JSON File Store</text>
</g>
<!-- bp&#45;&gt;files -->
<g id="edge2" class="edge">
<title>bp&#45;&gt;files</title>
<path fill="none" stroke="#1168bd" stroke-width="1.5" d="M282.81,-164.12C317.57,-161.68 366.17,-157.68 408.6,-152 413.29,-151.37 418.15,-150.64 423.01,-149.86"/>
<polygon fill="#1168bd" stroke="#1168bd" stroke-width="1.5" points="423.49,-153.33 432.77,-148.21 422.32,-146.43 423.49,-153.33"/>
<text xml:space="preserve" text-anchor="middle" x="354.6" y="-164.66" font-family="Arial" font-size="9.00">2 pim_catalog.json</text>
</g>
<!-- etl&#45;&gt;files -->
<g id="edge5" class="edge">
<title>etl&#45;&gt;files</title>
<path fill="none" stroke="#1168bd" stroke-width="1.5" d="M282.23,-114.92C288.4,-116.01 294.65,-117.07 300.6,-118 341.7,-124.42 388.47,-130.24 423.21,-134.29"/>
<polygon fill="#1168bd" stroke="#1168bd" stroke-width="1.5" points="422.37,-137.71 432.71,-135.38 423.17,-130.76 422.37,-137.71"/>
<text xml:space="preserve" text-anchor="middle" x="354.6" y="-134.48" font-family="Arial" font-size="9.00">5 read fixtures</text>
</g>
<!-- etl&#45;&gt;files -->
<g id="edge7" class="edge">
<title>etl&#45;&gt;files</title>
<path fill="none" stroke="#1168bd" stroke-width="1.5" d="M282.3,-99.91C317.43,-96.69 366.74,-95.25 408.6,-105.5 417.9,-107.78 427.35,-111.61 436.08,-115.91"/>
<polygon fill="#1168bd" stroke="#1168bd" stroke-width="1.5" points="434.21,-118.88 444.69,-120.47 437.49,-112.7 434.21,-118.88"/>
<text xml:space="preserve" text-anchor="middle" x="354.6" y="-107.45" font-family="Arial" font-size="9.00">7 lineage jsonl</text>
</g>
<!-- mock -->
<g id="node5" class="node">
<title>mock</title>
<path fill="#999999" stroke="black" d="M513.1,-90C513.1,-90 438.6,-90 438.6,-90 432.6,-90 426.6,-84 426.6,-78 426.6,-78 426.6,-66 426.6,-66 426.6,-60 432.6,-54 438.6,-54 438.6,-54 513.1,-54 513.1,-54 519.1,-54 525.1,-60 525.1,-66 525.1,-66 525.1,-78 525.1,-78 525.1,-84 519.1,-90 513.1,-90"/>
<text xml:space="preserve" text-anchor="middle" x="475.85" y="-68.7" font-family="Arial" font-size="9.00" fill="white">Mock Enterprise API</text>
</g>
<!-- etl&#45;&gt;mock -->
<g id="edge4" class="edge">
<title>etl&#45;&gt;mock</title>
<path fill="none" stroke="#1168bd" stroke-width="1.5" d="M265.57,-87.62C276.2,-81.95 288.56,-76.42 300.6,-73.5 337.65,-64.51 380.45,-64.01 414.36,-65.81"/>
<polygon fill="#1168bd" stroke="#1168bd" stroke-width="1.5" points="413.96,-69.3 424.16,-66.43 414.4,-62.31 413.96,-69.3"/>
<text xml:space="preserve" text-anchor="middle" x="354.6" y="-75.45" font-family="Arial" font-size="9.00">4 connector fetch</text>
</g>
<!-- neo -->
<g id="node6" class="node">
<title>neo</title>
<path fill="#438dd5" stroke="black" d="M502.85,-32.73C502.85,-34.53 490.75,-36 475.85,-36 460.95,-36 448.85,-34.53 448.85,-32.73 448.85,-32.73 448.85,-3.27 448.85,-3.27 448.85,-1.47 460.95,0 475.85,0 490.75,0 502.85,-1.47 502.85,-3.27 502.85,-3.27 502.85,-32.73 502.85,-32.73"/>
<path fill="none" stroke="black" d="M502.85,-32.73C502.85,-30.92 490.75,-29.45 475.85,-29.45 460.95,-29.45 448.85,-30.92 448.85,-32.73"/>
<text xml:space="preserve" text-anchor="middle" x="475.85" y="-14.7" font-family="Arial" font-size="9.00" fill="white">Neo4j</text>
</g>
<!-- etl&#45;&gt;neo -->
<g id="edge6" class="edge">
<title>etl&#45;&gt;neo</title>
<path fill="none" stroke="#1168bd" stroke-width="1.5" d="M252.43,-87.65C264.47,-75.21 281.98,-59.45 300.6,-50.5 344.14,-29.58 399.81,-22.09 436.36,-19.43"/>
<polygon fill="#1168bd" stroke="#1168bd" stroke-width="1.5" points="436.41,-22.94 446.17,-18.82 435.97,-15.95 436.41,-22.94"/>
<text xml:space="preserve" text-anchor="middle" x="354.6" y="-52.45" font-family="Arial" font-size="9.00">6 populate_graph MERGE</text>
</g>
</g>
</svg>
