<?xml version="1.0" encoding="UTF-8" standalone="no"?>
<!DOCTYPE svg PUBLIC "-//W3C//DTD SVG 1.1//EN"
 "http://www.w3.org/Graphics/SVG/1.1/DTD/svg11.dtd">
<!-- Generated by graphviz version 14.1.5 (20260411.2331)
 -->
<!-- Title: C4_Dynamic_Blueprint Pages: 1 -->
<svg width="1512pt" height="67pt"
 viewBox="0.00 0.00 1512.00 67.00" xmlns="http://www.w3.org/2000/svg" xmlns:xlink="http://www.w3.org/1999/xlink">
<g id="graph0" class="graph" transform="scale(1 1) rotate(0) translate(4 63)">
<title>C4_Dynamic_Blueprint</title>
<polygon fill="white" stroke="none" points="-4,4 -4,-63 1507.94,-63 1507.94,4 -4,4"/>
<text xml:space="preserve" text-anchor="middle" x="751.97" y="-42.65" font-family="Arial" font-size="13.00">C4 Dynamic Diagram — OEM Blueprint → Ontology → Graph</text>
<!-- sme -->
<g id="node1" class="node">
<title>sme</title>
<ellipse fill="#08427b" stroke="black" cx="59.6" cy="-18" rx="59.6" ry="18"/>
<text xml:space="preserve" text-anchor="middle" x="59.6" y="-14.7" font-family="Arial" font-size="9.00" fill="white">Knowledge Engineer</text>
</g>
<!-- oem -->
<g id="node2" class="node">
<title>oem</title>
<path fill="#d7ccc8" stroke="black" d="M294.19,-36C294.19,-36 200.94,-36 200.94,-36 194.94,-36 188.94,-30 188.94,-24 188.94,-24 188.94,-12 188.94,-12 188.94,-6 194.94,0 200.94,0 200.94,0 294.19,0 294.19,0 300.19,0 306.19,-6 306.19,-12 306.19,-12 306.19,-24 306.19,-24 306.19,-30 300.19,-36 294.19,-36"/>
<text xml:space="preserve" text-anchor="middle" x="247.57" y="-19.95" font-family="Arial" font-size="9.00">OEM Catalog</text>
<text xml:space="preserve" text-anchor="middle" x="247.57" y="-9.45" font-family="Arial" font-size="9.00">oem_product_catalog.py</text>
</g>
<!-- sme&#45;&gt;oem -->
<g id="edge1" class="edge">
<title>sme&#45;&gt;oem</title>
<path fill="none" stroke="#5d4037" stroke-width="1.5" d="M119.44,-18C137.6,-18 157.77,-18 176.6,-18"/>
<polygon fill="#5d4037" stroke="#5d4037" stroke-width="1.5" points="176.47,-21.5 186.47,-18 176.47,-14.5 176.47,-21.5"/>
<text xml:space="preserve" text-anchor="middle" x="154.07" y="-19.95" font-family="Arial" font-size="9.00">1 author</text>
</g>
<!-- ext -->
<g id="node3" class="node">
<title>ext</title>
<path fill="#d7ccc8" stroke="black" d="M510.44,-36C510.44,-36 434.44,-36 434.44,-36 428.44,-36 422.44,-30 422.44,-24 422.44,-24 422.44,-12 422.44,-12 422.44,-6 428.44,0 434.44,0 434.44,0 510.44,0 510.44,0 516.44,0 522.44,-6 522.44,-12 522.44,-12 522.44,-24 522.44,-24 522.44,-30 516.44,-36 510.44,-36"/>
<text xml:space="preserve" text-anchor="middle" x="472.44" y="-14.7" font-family="Arial" font-size="9.00">Warranty Extensions</text>
</g>
<!-- oem&#45;&gt;ext -->
<g id="edge2" class="edge">
<title>oem&#45;&gt;ext</title>
<path fill="none" stroke="#5d4037" stroke-width="1.5" d="M306.54,-18C338.34,-18 377.74,-18 410.06,-18"/>
<polygon fill="#5d4037" stroke="#5d4037" stroke-width="1.5" points="409.79,-21.5 419.79,-18 409.79,-14.5 409.79,-21.5"/>
<text xml:space="preserve" text-anchor="middle" x="364.32" y="-19.95" font-family="Arial" font-size="9.00">2 merge extensions</text>
</g>
<!-- sync -->
<g id="node4" class="node">
<title>sync</title>
<path fill="#d7ccc8" stroke="black" d="M704.19,-36C704.19,-36 634.94,-36 634.94,-36 628.94,-36 622.94,-30 622.94,-24 622.94,-24 622.94,-12 622.94,-12 622.94,-6 628.94,0 634.94,0 634.94,0 704.19,0 704.19,0 710.19,0 716.19,-6 716.19,-12 716.19,-12 716.19,-24 716.19,-24 716.19,-30 710.19,-36 704.19,-36"/>
<text xml:space="preserve" text-anchor="middle" x="669.57" y="-14.7" font-family="Arial" font-size="9.00">PIM Blueprint Sync</text>
</g>
<!-- ext&#45;&gt;sync -->
<g id="edge3" class="edge">
<title>ext&#45;&gt;sync</title>
<path fill="none" stroke="#5d4037" stroke-width="1.5" d="M522.93,-18C549.59,-18 582.62,-18 610.49,-18"/>
<polygon fill="#5d4037" stroke="#5d4037" stroke-width="1.5" points="610.21,-21.5 620.21,-18 610.21,-14.5 610.21,-21.5"/>
<text xml:space="preserve" text-anchor="middle" x="572.69" y="-19.95" font-family="Arial" font-size="9.00">3 export fixtures</text>
</g>
<!-- files -->
<g id="node7" class="node">
<title>files</title>
<polygon fill="#438dd5" stroke="black" points="882.19,-36 879.19,-40 858.19,-40 855.19,-36 805.44,-36 805.44,0 882.19,0 882.19,-36"/>
<text xml:space="preserve" text-anchor="middle" x="843.82" y="-14.7" font-family="Arial" font-size="9.00" fill="white">JSON catalogs</text>
</g>
<!-- sync&#45;&gt;files -->
<g id="edge4" class="edge">
<title>sync&#45;&gt;files</title>
<path fill="none" stroke="#5d4037" stroke-width="1.5" d="M716.28,-18C739.87,-18 768.7,-18 792.88,-18"/>
<polygon fill="#5d4037" stroke="#5d4037" stroke-width="1.5" points="792.77,-21.5 802.77,-18 792.77,-14.5 792.77,-21.5"/>
<text xml:space="preserve" text-anchor="middle" x="760.82" y="-19.95" font-family="Arial" font-size="9.00">4 JSON write</text>
</g>
<!-- ob -->
<g id="node5" class="node">
<title>ob</title>
<path fill="#85bbf0" stroke="black" d="M1054.19,-36C1054.19,-36 993.94,-36 993.94,-36 987.94,-36 981.94,-30 981.94,-24 981.94,-24 981.94,-12 981.94,-12 981.94,-6 987.94,0 993.94,0 993.94,0 1054.19,0 1054.19,0 1060.19,0 1066.19,-6 1066.19,-12 1066.19,-12 1066.19,-24 1066.19,-24 1066.19,-30 1060.19,-36 1054.19,-36"/>
<text xml:space="preserve" text-anchor="middle" x="1024.07" y="-14.7" font-family="Arial" font-size="9.00">Ontology Builder</text>
</g>
<!-- load -->
<g id="node6" class="node">
<title>load</title>
<path fill="#85bbf0" stroke="black" d="M1260.69,-36C1260.69,-36 1191.44,-36 1191.44,-36 1185.44,-36 1179.44,-30 1179.44,-24 1179.44,-24 1179.44,-12 1179.44,-12 1179.44,-6 1185.44,0 1191.44,0 1191.44,0 1260.69,0 1260.69,0 1266.69,0 1272.69,-6 1272.69,-12 1272.69,-12 1272.69,-24 1272.69,-24 1272.69,-30 1266.69,-36 1260.69,-36"/>
<text xml:space="preserve" text-anchor="middle" x="1226.07" y="-19.95" font-family="Arial" font-size="9.00">Graph Loader</text>
<text xml:space="preserve" text-anchor="middle" x="1226.07" y="-9.45" font-family="Arial" font-size="9.00">populate_graph.py</text>
</g>
<!-- ob&#45;&gt;load -->
<g id="edge6" class="edge">
<title>ob&#45;&gt;load</title>
<path fill="none" stroke="#5d4037" stroke-width="1.5" d="M1066.51,-18C1095.63,-18 1134.97,-18 1167.18,-18"/>
<polygon fill="#5d4037" stroke="#5d4037" stroke-width="1.5" points="1166.87,-21.5 1176.87,-18 1166.87,-14.5 1166.87,-21.5"/>
<text xml:space="preserve" text-anchor="middle" x="1122.82" y="-19.95" font-family="Arial" font-size="9.00">6 validated catalog</text>
</g>
<!-- neo -->
<g id="node8" class="node">
<title>neo</title>
<path fill="#438dd5" stroke="black" d="M1503.94,-32.73C1503.94,-34.53 1481.7,-36 1454.32,-36 1426.94,-36 1404.69,-34.53 1404.69,-32.73 1404.69,-32.73 1404.69,-3.27 1404.69,-3.27 1404.69,-1.47 1426.94,0 1454.32,0 1481.7,0 1503.94,-1.47 1503.94,-3.27 1503.94,-3.27 1503.94,-32.73 1503.94,-32.73"/>
<path fill="none" stroke="black" d="M1503.94,-32.73C1503.94,-30.92 1481.7,-29.45 1454.32,-29.45 1426.94,-29.45 1404.69,-30.92 1404.69,-32.73"/>
<text xml:space="preserve" text-anchor="middle" x="1454.32" y="-14.7" font-family="Arial" font-size="9.00" fill="white">Neo4j ERD instance</text>
</g>
<!-- load&#45;&gt;neo -->
<g id="edge7" class="edge">
<title>load&#45;&gt;neo</title>
<path fill="none" stroke="#5d4037" stroke-width="1.5" d="M1273.13,-18C1307.63,-18 1355.18,-18 1392.76,-18"/>
<polygon fill="#5d4037" stroke="#5d4037" stroke-width="1.5" points="1392.32,-21.5 1402.32,-18 1392.32,-14.5 1392.32,-21.5"/>
<text xml:space="preserve" text-anchor="middle" x="1338.69" y="-19.95" font-family="Arial" font-size="9.00">7 MERGE nodes/edges</text>
</g>
<!-- files&#45;&gt;ob -->
<g id="edge5" class="edge">
<title>files&#45;&gt;ob</title>
<path fill="none" stroke="#5d4037" stroke-width="1.5" d="M882.62,-18C907.9,-18 941.54,-18 969.56,-18"/>
<polygon fill="#5d4037" stroke="#5d4037" stroke-width="1.5" points="969.31,-21.5 979.31,-18 969.31,-14.5 969.31,-21.5"/>
<text xml:space="preserve" text-anchor="middle" x="932.07" y="-19.95" font-family="Arial" font-size="9.00">5 ETL transform</text>
</g>
</g>
</svg>
