<?xml version="1.0" encoding="UTF-8" standalone="no"?>
<!DOCTYPE svg PUBLIC "-//W3C//DTD SVG 1.1//EN"
 "http://www.w3.org/Graphics/SVG/1.1/DTD/svg11.dtd">
<!-- Generated by graphviz version 14.1.5 (20260411.2331)
 -->
<!-- Title: C4_Deployment Pages: 1 -->
<svg width="1389pt" height="335pt"
 viewBox="0.00 0.00 1389.00 335.00" xmlns="http://www.w3.org/2000/svg" xmlns:xlink="http://www.w3.org/1999/xlink">
<g id="graph0" class="graph" transform="scale(1 1) rotate(0) translate(4 331.01)">
<title>C4_Deployment</title>
<polygon fill="white" stroke="none" points="-4,4 -4,-331.01 1384.7,-331.01 1384.7,4 -4,4"/>
<text xml:space="preserve" text-anchor="middle" x="690.35" y="-310.66" font-family="Arial" font-size="13.00">C4 Deployment Diagram — Kubernetes (Staging &amp; Production)</text>
<g id="clust1" class="cluster">
<title>cluster_k8s</title>
<polygon fill="white" stroke="#1f4e79" points="8,-100 8,-219.01 1191,-219.01 1191,-100 8,-100"/>
<text xml:space="preserve" text-anchor="middle" x="599.5" y="-202.66" font-family="Arial" font-size="13.00">Kubernetes Cluster [Deployment Node]</text>
</g>
<g id="clust2" class="cluster">
<title>cluster_stg</title>
<polygon fill="white" stroke="#548235" points="16,-108 16,-188.01 733,-188.01 733,-108 16,-108"/>
<text xml:space="preserve" text-anchor="middle" x="374.5" y="-171.66" font-family="Arial" font-size="13.00">diagnostics&#45;staging [Deployment Node]</text>
</g>
<g id="clust3" class="cluster">
<title>cluster_prd</title>
<polygon fill="white" stroke="#843c0c" points="741,-108 741,-188.01 1183,-188.01 1183,-108 741,-108"/>
<text xml:space="preserve" text-anchor="middle" x="962" y="-171.66" font-family="Arial" font-size="13.00">diagnostics&#45;prod [Deployment Node]</text>
</g>
<g id="clust4" class="cluster">
<title>cluster_ext</title>
<polygon fill="white" stroke="#999999" points="778,-8 778,-83 932,-83 932,-8 778,-8"/>
<text xml:space="preserve" text-anchor="middle" x="855" y="-66.65" font-family="Arial" font-size="13.00">External [Production]</text>
</g>
<!-- dev -->
<g id="node1" class="node">
<title>dev</title>
<polygon fill="none" stroke="black" points="137.38,-304.01 46.63,-304.01 42.62,-300.01 42.62,-264.51 133.38,-264.51 137.38,-268.51 137.38,-304.01"/>
<polyline fill="none" stroke="black" points="133.38,-300.01 42.62,-300.01"/>
<polyline fill="none" stroke="black" points="133.38,-300.01 133.38,-264.51"/>
<polyline fill="none" stroke="black" points="133.38,-300.01 137.38,-304.01"/>
<text xml:space="preserve" text-anchor="middle" x="90" y="-291.46" font-family="Arial" font-size="9.00">Customer Device</text>
<text xml:space="preserve" text-anchor="middle" x="90" y="-280.96" font-family="Arial" font-size="9.00">[Deployment Node]</text>
<text xml:space="preserve" text-anchor="middle" x="90" y="-270.46" font-family="Arial" font-size="9.00">Web Browser</text>
</g>
<!-- stg_ui -->
<g id="node3" class="node">
<title>stg_ui</title>
<ellipse fill="#438dd5" stroke="black" cx="90" cy="-136.51" rx="65.94" ry="20.51"/>
<text xml:space="preserve" text-anchor="middle" x="90" y="-138.46" font-family="Arial" font-size="9.00" fill="white">Container Instance</text>
<text xml:space="preserve" text-anchor="middle" x="90" y="-127.96" font-family="Arial" font-size="9.00" fill="white">Streamlit Web App</text>
</g>
<!-- dev&#45;&gt;stg_ui -->
<g id="edge1" class="edge">
<title>dev&#45;&gt;stg_ui</title>
<path fill="none" stroke="#2e75b6" d="M90,-264.21C90,-239.93 90,-197.64 90,-168.65"/>
<polygon fill="#2e75b6" stroke="#2e75b6" points="93.5,-169.01 90,-159.01 86.5,-169.01 93.5,-169.01"/>
<text xml:space="preserve" text-anchor="middle" x="117.75" y="-234.04" font-family="Arial" font-size="8.00">HTTPS Ingress</text>
</g>
<!-- gh -->
<g id="node2" class="node">
<title>gh</title>
<polygon fill="none" stroke="black" points="1333.88,-302.26 1234.12,-302.26 1230.12,-298.26 1230.12,-266.26 1329.88,-266.26 1333.88,-270.26 1333.88,-302.26"/>
<polyline fill="none" stroke="black" points="1329.88,-298.26 1230.12,-298.26"/>
<polyline fill="none" stroke="black" points="1329.88,-298.26 1329.88,-266.26"/>
<polyline fill="none" stroke="black" points="1329.88,-298.26 1333.88,-302.26"/>
<text xml:space="preserve" text-anchor="middle" x="1282" y="-286.21" font-family="Arial" font-size="9.00">GitHub Actions CI/CD</text>
<text xml:space="preserve" text-anchor="middle" x="1282" y="-275.71" font-family="Arial" font-size="9.00">[Deployment Node]</text>
</g>
<!-- cluster_stg -->
<g id="node13" class="node">
<title>cluster_stg</title>
<ellipse fill="none" stroke="black" cx="1234" cy="-136.51" rx="35.12" ry="18"/>
<text xml:space="preserve" text-anchor="middle" x="1234" y="-133.21" font-family="Arial" font-size="9.00">cluster_stg</text>
</g>
<!-- gh&#45;&gt;cluster_stg -->
<g id="edge2" class="edge">
<title>gh&#45;&gt;cluster_stg</title>
<path fill="none" stroke="#2e75b6" d="M1251.93,-265.9C1245.34,-260.57 1239.23,-254.08 1235.5,-246.51 1223.1,-221.36 1224.55,-188.8 1227.98,-165.84"/>
<polygon fill="#2e75b6" stroke="#2e75b6" points="1231.37,-166.74 1229.62,-156.29 1224.47,-165.55 1231.37,-166.74"/>
<text xml:space="preserve" text-anchor="middle" x="1272.25" y="-234.04" font-family="Arial" font-size="8.00">kubectl apply staging</text>
</g>
<!-- cluster_prd -->
<g id="node14" class="node">
<title>cluster_prd</title>
<ellipse fill="none" stroke="black" cx="1331" cy="-136.51" rx="35.99" ry="18"/>
<text xml:space="preserve" text-anchor="middle" x="1331" y="-133.21" font-family="Arial" font-size="9.00">cluster_prd</text>
</g>
<!-- gh&#45;&gt;cluster_prd -->
<g id="edge3" class="edge">
<title>gh&#45;&gt;cluster_prd</title>
<path fill="none" stroke="#2e75b6" d="M1297.14,-265.91C1301.55,-260.08 1305.99,-253.32 1309,-246.51 1320.45,-220.62 1326,-188.62 1328.65,-166.01"/>
<polygon fill="#2e75b6" stroke="#2e75b6" points="1332.11,-166.63 1329.66,-156.32 1325.15,-165.91 1332.11,-166.63"/>
<text xml:space="preserve" text-anchor="middle" x="1348.07" y="-238.91" font-family="Arial" font-size="8.00">kubectl apply prod</text>
<text xml:space="preserve" text-anchor="middle" x="1348.07" y="-229.16" font-family="Arial" font-size="8.00">(manual approval)</text>
</g>
<!-- stg_api -->
<g id="node4" class="node">
<title>stg_api</title>
<ellipse fill="#438dd5" stroke="black" cx="240" cy="-136.51" rx="65.94" ry="20.51"/>
<text xml:space="preserve" text-anchor="middle" x="240" y="-138.46" font-family="Arial" font-size="9.00" fill="white">Container Instance</text>
<text xml:space="preserve" text-anchor="middle" x="240" y="-127.96" font-family="Arial" font-size="9.00" fill="white">Diagnostics API</text>
</g>
<!-- stg_mock -->
<g id="node5" class="node">
<title>stg_mock</title>
<ellipse fill="#438dd5" stroke="black" cx="394" cy="-136.51" rx="69.65" ry="20.51"/>
<text xml:space="preserve" text-anchor="middle" x="394" y="-138.46" font-family="Arial" font-size="9.00" fill="white">Container Instance</text>
<text xml:space="preserve" text-anchor="middle" x="394" y="-127.96" font-family="Arial" font-size="9.00" fill="white">Mock Enterprise API</text>
</g>
<!-- stg_neo -->
<g id="node6" class="node">
<title>stg_neo</title>
<path fill="#438dd5" stroke="black" d="M574.62,-152.82C574.62,-154.82 553.73,-156.44 528,-156.44 502.27,-156.44 481.38,-154.82 481.38,-152.82 481.38,-152.82 481.38,-120.19 481.38,-120.19 481.38,-118.19 502.27,-116.57 528,-116.57 553.73,-116.57 574.62,-118.19 574.62,-120.19 574.62,-120.19 574.62,-152.82 574.62,-152.82"/>
<path fill="none" stroke="black" d="M574.62,-152.82C574.62,-150.82 553.73,-149.19 528,-149.19 502.27,-149.19 481.38,-150.82 481.38,-152.82"/>
<text xml:space="preserve" text-anchor="middle" x="528" y="-138.46" font-family="Arial" font-size="9.00" fill="white">Container Instance</text>
<text xml:space="preserve" text-anchor="middle" x="528" y="-127.96" font-family="Arial" font-size="9.00" fill="white">Neo4j StatefulSet</text>
</g>
<!-- stg_etl -->
<g id="node7" class="node">
<title>stg_etl</title>
<ellipse fill="#ffd966" stroke="black" cx="659" cy="-136.51" rx="65.94" ry="20.51"/>
<text xml:space="preserve" text-anchor="middle" x="659" y="-138.46" font-family="Arial" font-size="9.00">Container Instance</text>
<text xml:space="preserve" text-anchor="middle" x="659" y="-127.96" font-family="Arial" font-size="9.00">ETL CronJob</text>
</g>
<!-- pim -->
<g id="node11" class="node">
<title>pim</title>
<ellipse fill="#999999" stroke="black" cx="819" cy="-34" rx="33.37" ry="18"/>
<text xml:space="preserve" text-anchor="middle" x="819" y="-30.7" font-family="Arial" font-size="9.00" fill="white">PIM / PLM</text>
</g>
<!-- stg_etl&#45;&gt;pim -->
<g id="edge4" class="edge">
<title>stg_etl&#45;&gt;pim</title>
<path fill="none" stroke="#2e75b6" stroke-dasharray="5,2" d="M687.24,-117.77C715.65,-99.92 759.32,-72.49 788.5,-54.16"/>
<polygon fill="#2e75b6" stroke="#2e75b6" points="790.29,-57.17 796.89,-48.89 786.56,-51.24 790.29,-57.17"/>
</g>
<!-- prd_ui -->
<g id="node8" class="node">
<title>prd_ui</title>
<ellipse fill="#438dd5" stroke="black" cx="827" cy="-136.51" rx="78.14" ry="20.51"/>
<text xml:space="preserve" text-anchor="middle" x="827" y="-138.46" font-family="Arial" font-size="9.00" fill="white">Container Instance</text>
<text xml:space="preserve" text-anchor="middle" x="827" y="-127.96" font-family="Arial" font-size="9.00" fill="white">Streamlit Web App (×3)</text>
</g>
<!-- prd_api -->
<g id="node9" class="node">
<title>prd_api</title>
<ellipse fill="#438dd5" stroke="black" cx="993" cy="-136.51" rx="70.18" ry="20.51"/>
<text xml:space="preserve" text-anchor="middle" x="993" y="-138.46" font-family="Arial" font-size="9.00" fill="white">Container Instance</text>
<text xml:space="preserve" text-anchor="middle" x="993" y="-127.96" font-family="Arial" font-size="9.00" fill="white">Diagnostics API (×3)</text>
</g>
<!-- crm -->
<g id="node12" class="node">
<title>crm</title>
<ellipse fill="#999999" stroke="black" cx="897" cy="-34" rx="27" ry="18"/>
<text xml:space="preserve" text-anchor="middle" x="897" y="-30.7" font-family="Arial" font-size="9.00" fill="white">CRM</text>
</g>
<!-- prd_api&#45;&gt;crm -->
<g id="edge5" class="edge">
<title>prd_api&#45;&gt;crm</title>
<path fill="none" stroke="#2e75b6" stroke-dasharray="5,2" d="M974.94,-116.6C958.98,-99.89 935.66,-75.47 918.69,-57.71"/>
<polygon fill="#2e75b6" stroke="#2e75b6" points="921.41,-55.49 911.97,-50.68 916.35,-60.33 921.41,-55.49"/>
</g>
<!-- prd_neo -->
<g id="node10" class="node">
<title>prd_neo</title>
<path fill="#438dd5" stroke="black" d="M1174.62,-152.82C1174.62,-154.82 1153.73,-156.44 1128,-156.44 1102.27,-156.44 1081.38,-154.82 1081.38,-152.82 1081.38,-152.82 1081.38,-120.19 1081.38,-120.19 1081.38,-118.19 1102.27,-116.57 1128,-116.57 1153.73,-116.57 1174.62,-118.19 1174.62,-120.19 1174.62,-120.19 1174.62,-152.82 1174.62,-152.82"/>
<path fill="none" stroke="black" d="M1174.62,-152.82C1174.62,-150.82 1153.73,-149.19 1128,-149.19 1102.27,-149.19 1081.38,-150.82 1081.38,-152.82"/>
<text xml:space="preserve" text-anchor="middle" x="1128" y="-138.46" font-family="Arial" font-size="9.00" fill="white">Container Instance</text>
<text xml:space="preserve" text-anchor="middle" x="1128" y="-127.96" font-family="Arial" font-size="9.00" fill="white">Neo4j (+ backup)</text>
</g>
</g>
</svg>
