<?xml version="1.0" encoding="UTF-8" standalone="no"?>
<!DOCTYPE svg PUBLIC "-//W3C//DTD SVG 1.1//EN"
 "http://www.w3.org/Graphics/SVG/1.1/DTD/svg11.dtd">
<!-- Generated by graphviz version 14.1.5 (20260411.2331)
 -->
<!-- Title: C4_L3_Blueprint Pages: 1 -->
<svg width="425pt" height="410pt"
 viewBox="0.00 0.00 425.00 410.00" xmlns="http://www.w3.org/2000/svg" xmlns:xlink="http://www.w3.org/1999/xlink">
<g id="graph0" class="graph" transform="scale(1 1) rotate(0) translate(4 405.75)">
<title>C4_L3_Blueprint</title>
<polygon fill="white" stroke="none" points="-4,4 -4,-405.75 421.12,-405.75 421.12,4 -4,4"/>
<text xml:space="preserve" text-anchor="middle" x="208.56" y="-385.4" font-family="Arial" font-size="13.00">C4 Level 3 — Blueprint Authoring [Container]</text>
<g id="clust1" class="cluster">
<title>cluster_bp</title>
<polygon fill="white" stroke="#438dd5" points="8,-79 8,-307 327,-307 327,-79 8,-79"/>
<text xml:space="preserve" text-anchor="middle" x="167.5" y="-290.65" font-family="Arial" font-size="13.00">Blueprint Authoring</text>
</g>
<!-- sme -->
<g id="node1" class="node">
<title>sme</title>
<ellipse fill="#08427b" stroke="black" cx="93" cy="-360.75" rx="59.6" ry="18"/>
<text xml:space="preserve" text-anchor="middle" x="93" y="-357.45" font-family="Arial" font-size="9.00" fill="white">Knowledge Engineer</text>
</g>
<!-- oem -->
<g id="node2" class="node">
<title>oem</title>
<path fill="#85bbf0" stroke="black" d="M145.25,-276C145.25,-276 40.75,-276 40.75,-276 34.75,-276 28.75,-270 28.75,-264 28.75,-264 28.75,-248.5 28.75,-248.5 28.75,-242.5 34.75,-236.5 40.75,-236.5 40.75,-236.5 145.25,-236.5 145.25,-236.5 151.25,-236.5 157.25,-242.5 157.25,-248.5 157.25,-248.5 157.25,-264 157.25,-264 157.25,-270 151.25,-276 145.25,-276"/>
<text xml:space="preserve" text-anchor="middle" x="93" y="-263.45" font-family="Arial" font-size="9.00">OEM Product Catalog</text>
<text xml:space="preserve" text-anchor="middle" x="93" y="-252.95" font-family="Arial" font-size="9.00">oem_product_catalog.py</text>
<text xml:space="preserve" text-anchor="middle" x="93" y="-242.45" font-family="Arial" font-size="9.00">10 OEM + 3 legacy builders</text>
</g>
<!-- sme&#45;&gt;oem -->
<g id="edge1" class="edge">
<title>sme&#45;&gt;oem</title>
<path fill="none" stroke="black" d="M93,-342.55C93,-342.55 93,-287.9 93,-287.9"/>
<polygon fill="black" stroke="black" points="96.5,-287.9 93,-277.9 89.5,-287.9 96.5,-287.9"/>
<text xml:space="preserve" text-anchor="middle" x="124.88" y="-317.15" font-family="Arial" font-size="8.00">authors blueprints</text>
</g>
<!-- ext -->
<g id="node3" class="node">
<title>ext</title>
<path fill="#85bbf0" stroke="black" d="M157.62,-199.5C157.62,-199.5 28.37,-199.5 28.37,-199.5 22.37,-199.5 16.38,-193.5 16.38,-187.5 16.38,-187.5 16.38,-172 16.38,-172 16.38,-166 22.38,-160 28.38,-160 28.38,-160 157.62,-160 157.62,-160 163.62,-160 169.62,-166 169.62,-172 169.62,-172 169.62,-187.5 169.62,-187.5 169.62,-193.5 163.62,-199.5 157.62,-199.5"/>
<text xml:space="preserve" text-anchor="middle" x="93" y="-186.95" font-family="Arial" font-size="9.00">Warranty Extensions</text>
<text xml:space="preserve" text-anchor="middle" x="93" y="-176.45" font-family="Arial" font-size="9.00">warranty_catalog_extensions.py</text>
<text xml:space="preserve" text-anchor="middle" x="93" y="-165.95" font-family="Arial" font-size="9.00">Model · SKU · Component · Asset</text>
</g>
<!-- oem&#45;&gt;ext -->
<g id="edge2" class="edge">
<title>oem&#45;&gt;ext</title>
<path fill="none" stroke="black" d="M93,-236.15C93,-236.15 93,-211.49 93,-211.49"/>
<polygon fill="black" stroke="black" points="96.5,-211.49 93,-201.49 89.5,-211.49 96.5,-211.49"/>
</g>
<!-- sync -->
<g id="node5" class="node">
<title>sync</title>
<path fill="#85bbf0" stroke="black" d="M295.12,-123C295.12,-123 210.88,-123 210.88,-123 204.88,-123 198.88,-117 198.88,-111 198.88,-111 198.88,-99 198.88,-99 198.88,-93 204.88,-87 210.88,-87 210.88,-87 295.12,-87 295.12,-87 301.12,-87 307.12,-93 307.12,-99 307.12,-99 307.12,-111 307.12,-111 307.12,-117 301.12,-123 295.12,-123"/>
<text xml:space="preserve" text-anchor="middle" x="253" y="-106.95" font-family="Arial" font-size="9.00">PIM Blueprint Sync</text>
<text xml:space="preserve" text-anchor="middle" x="253" y="-96.45" font-family="Arial" font-size="9.00">pim_blueprint_sync.py</text>
</g>
<!-- ext&#45;&gt;sync -->
<g id="edge3" class="edge">
<title>ext&#45;&gt;sync</title>
<path fill="none" stroke="black" d="M93,-159.72C93,-137.58 93,-105 93,-105 93,-105 186.87,-105 186.87,-105"/>
<polygon fill="black" stroke="black" points="186.87,-108.5 196.87,-105 186.87,-101.5 186.87,-108.5"/>
</g>
<!-- synth -->
<g id="node4" class="node">
<title>synth</title>
<path fill="#85bbf0" stroke="black" d="M306.75,-197.75C306.75,-197.75 199.25,-197.75 199.25,-197.75 193.25,-197.75 187.25,-191.75 187.25,-185.75 187.25,-185.75 187.25,-173.75 187.25,-173.75 187.25,-167.75 193.25,-161.75 199.25,-161.75 199.25,-161.75 306.75,-161.75 306.75,-161.75 312.75,-161.75 318.75,-167.75 318.75,-173.75 318.75,-173.75 318.75,-185.75 318.75,-185.75 318.75,-191.75 312.75,-197.75 306.75,-197.75"/>
<text xml:space="preserve" text-anchor="middle" x="253" y="-181.7" font-family="Arial" font-size="9.00">Synthetic Generator</text>
<text xml:space="preserve" text-anchor="middle" x="253" y="-171.2" font-family="Arial" font-size="9.00">synthetic_data_generator.py</text>
</g>
<!-- synth&#45;&gt;sync -->
<g id="edge5" class="edge">
<title>synth&#45;&gt;sync</title>
<path fill="none" stroke="black" d="M253,-161.27C253,-161.27 253,-134.78 253,-134.78"/>
<polygon fill="black" stroke="black" points="256.5,-134.78 253,-124.78 249.5,-134.78 256.5,-134.78"/>
</g>
<!-- files -->
<g id="node7" class="node">
<title>files</title>
<polygon fill="#438dd5" stroke="black" points="417.12,-50 414.12,-54 393.12,-54 390.12,-50 254.88,-50 254.88,0 417.12,0 417.12,-50"/>
<text xml:space="preserve" text-anchor="middle" x="336" y="-37.45" font-family="Arial" font-size="9.00" fill="white">JSON File Store</text>
<text xml:space="preserve" text-anchor="middle" x="336" y="-26.95" font-family="Arial" font-size="9.00" fill="white">pim_catalog.json</text>
<text xml:space="preserve" text-anchor="middle" x="336" y="-16.45" font-family="Arial" font-size="9.00" fill="white">enterprise_knowledge_catalog.json</text>
<text xml:space="preserve" text-anchor="middle" x="336" y="-5.95" font-family="Arial" font-size="9.00" fill="white">synthetic_diagnosis_data.json</text>
</g>
<!-- sync&#45;&gt;files -->
<g id="edge4" class="edge">
<title>sync&#45;&gt;files</title>
<path fill="none" stroke="black" d="M281,-86.85C281,-86.85 281,-61.87 281,-61.87"/>
<polygon fill="black" stroke="black" points="284.5,-61.87 281,-51.87 277.5,-61.87 284.5,-61.87"/>
</g>
<!-- load -->
<g id="node6" class="node">
<title>load</title>
<path fill="#85bbf0" stroke="black" d="M306.62,-274.25C306.62,-274.25 237.38,-274.25 237.38,-274.25 231.38,-274.25 225.38,-268.25 225.38,-262.25 225.38,-262.25 225.38,-250.25 225.38,-250.25 225.38,-244.25 231.38,-238.25 237.38,-238.25 237.38,-238.25 306.62,-238.25 306.62,-238.25 312.62,-238.25 318.62,-244.25 318.62,-250.25 318.62,-250.25 318.62,-262.25 318.62,-262.25 318.62,-268.25 312.62,-274.25 306.62,-274.25"/>
<text xml:space="preserve" text-anchor="middle" x="272" y="-258.2" font-family="Arial" font-size="9.00">Graph Loader</text>
<text xml:space="preserve" text-anchor="middle" x="272" y="-247.7" font-family="Arial" font-size="9.00">populate_graph.py</text>
</g>
<!-- neo -->
<g id="node8" class="node">
<title>neo</title>
<path fill="#438dd5" stroke="black" d="M391,-194.48C391,-196.28 378.9,-197.75 364,-197.75 349.1,-197.75 337,-196.28 337,-194.48 337,-194.48 337,-165.02 337,-165.02 337,-163.22 349.1,-161.75 364,-161.75 378.9,-161.75 391,-163.22 391,-165.02 391,-165.02 391,-194.48 391,-194.48"/>
<path fill="none" stroke="black" d="M391,-194.48C391,-192.67 378.9,-191.2 364,-191.2 349.1,-191.2 337,-192.67 337,-194.48"/>
<text xml:space="preserve" text-anchor="middle" x="364" y="-176.45" font-family="Arial" font-size="9.00" fill="white">Neo4j</text>
</g>
<!-- load&#45;&gt;neo -->
<g id="edge7" class="edge">
<title>load&#45;&gt;neo</title>
<path fill="none" stroke="black" d="M319.08,-262C341.71,-262 364,-262 364,-262 364,-262 364,-209.52 364,-209.52"/>
<polygon fill="black" stroke="black" points="367.5,-209.52 364,-199.52 360.5,-209.52 367.5,-209.52"/>
</g>
<!-- files&#45;&gt;load -->
<g id="edge6" class="edge">
<title>files&#45;&gt;load</title>
<path fill="none" stroke="black" d="M327.88,-50.37C327.88,-109.22 327.88,-250 327.88,-250 327.88,-250 326.98,-250 326.98,-250"/>
<polygon fill="black" stroke="black" points="330.41,-246.5 320.41,-250 330.41,-253.5 330.41,-246.5"/>
</g>
</g>
</svg>
