<?xml version="1.0" encoding="UTF-8" standalone="no"?>
<!DOCTYPE svg PUBLIC "-//W3C//DTD SVG 1.1//EN"
 "http://www.w3.org/Graphics/SVG/1.1/DTD/svg11.dtd">
<!-- Generated by graphviz version 14.1.5 (20260411.2331)
 -->
<!-- Title: C4_L2_Containers Pages: 1 -->
<svg width="975pt" height="477pt"
 viewBox="0.00 0.00 975.00 477.00" xmlns="http://www.w3.org/2000/svg" xmlns:xlink="http://www.w3.org/1999/xlink">
<g id="graph0" class="graph" transform="scale(1 1) rotate(0) translate(4 473.44)">
<title>C4_L2_Containers</title>
<polygon fill="white" stroke="none" points="-4,4 -4,-473.44 970.88,-473.44 970.88,4 -4,4"/>
<text xml:space="preserve" text-anchor="middle" x="483.44" y="-452.14" font-family="Arial" font-size="14.00">C4 Level 2 — Container Diagram</text>
<text xml:space="preserve" text-anchor="middle" x="483.44" y="-436.39" font-family="Arial" font-size="14.00">Enterprise Diagnostics Platform</text>
<g id="clust1" class="cluster">
<title>cluster_boundary</title>
<polygon fill="white" stroke="#1168bd" stroke-width="2" points="8,-8 8,-358.19 859,-358.19 859,-8 8,-8"/>
<text xml:space="preserve" text-anchor="middle" x="433.5" y="-340.89" font-family="Arial" font-size="14.00" fill="#1168bd">Enterprise Diagnostics Platform [Software System]</text>
</g>
<!-- customer -->
<g id="node1" class="node">
<title>customer</title>
<ellipse fill="#08427b" stroke="black" cx="244" cy="-411.94" rx="50.42" ry="18"/>
<text xml:space="preserve" text-anchor="middle" x="244" y="-408.64" font-family="Arial" font-size="9.00" fill="white">Appliance Owner</text>
</g>
<!-- web -->
<g id="node4" class="node">
<title>web</title>
<path fill="#438dd5" stroke="black" d="M387.88,-326.44C387.88,-326.44 230.12,-326.44 230.12,-326.44 224.12,-326.44 218.12,-320.44 218.12,-314.44 218.12,-314.44 218.12,-298.94 218.12,-298.94 218.12,-292.94 224.12,-286.94 230.12,-286.94 230.12,-286.94 387.88,-286.94 387.88,-286.94 393.88,-286.94 399.88,-292.94 399.88,-298.94 399.88,-298.94 399.88,-314.44 399.88,-314.44 399.88,-320.44 393.88,-326.44 387.88,-326.44"/>
<text xml:space="preserve" text-anchor="middle" x="309" y="-313.89" font-family="Arial" font-size="9.00" fill="white">Streamlit Web Application</text>
<text xml:space="preserve" text-anchor="middle" x="309" y="-303.39" font-family="Arial" font-size="9.00" fill="white">[Container: Python/Streamlit :8501]</text>
<text xml:space="preserve" text-anchor="middle" x="309" y="-292.89" font-family="Arial" font-size="9.00" fill="white">Chat · Claims · KG Explorer · Dashboard</text>
</g>
<!-- customer&#45;&gt;web -->
<g id="edge17" class="edge">
<title>customer&#45;&gt;web</title>
<path fill="none" stroke="#5d6d7e" d="M254.73,-393.89C264.53,-378.33 279.21,-355.01 290.83,-336.55"/>
<polygon fill="#5d6d7e" stroke="#5d6d7e" points="293.75,-338.48 296.12,-328.15 287.83,-334.75 293.75,-338.48"/>
<text xml:space="preserve" text-anchor="middle" x="284.18" y="-368.34" font-family="Arial" font-size="8.00">HTTPS</text>
</g>
<!-- agent -->
<g id="node2" class="node">
<title>agent</title>
<ellipse fill="#08427b" stroke="black" cx="373" cy="-411.94" rx="60.47" ry="18"/>
<text xml:space="preserve" text-anchor="middle" x="373" y="-408.64" font-family="Arial" font-size="9.00" fill="white">Contact Center Agent</text>
</g>
<!-- agent&#45;&gt;web -->
<g id="edge18" class="edge">
<title>agent&#45;&gt;web</title>
<path fill="none" stroke="#5d6d7e" d="M362.43,-393.89C352.79,-378.33 338.33,-355.01 326.89,-336.55"/>
<polygon fill="#5d6d7e" stroke="#5d6d7e" points="329.93,-334.81 321.69,-328.16 323.98,-338.5 329.93,-334.81"/>
<text xml:space="preserve" text-anchor="middle" x="363.97" y="-368.34" font-family="Arial" font-size="8.00">HTTPS</text>
</g>
<!-- ops -->
<g id="node3" class="node">
<title>ops</title>
<ellipse fill="#08427b" stroke="black" cx="698" cy="-411.94" rx="39.93" ry="18"/>
<text xml:space="preserve" text-anchor="middle" x="698" y="-408.64" font-family="Arial" font-size="9.00" fill="white">Platform Ops</text>
</g>
<!-- etl -->
<g id="node9" class="node">
<title>etl</title>
<path fill="#438dd5" stroke="black" d="M760,-326.44C760,-326.44 636,-326.44 636,-326.44 630,-326.44 624,-320.44 624,-314.44 624,-314.44 624,-298.94 624,-298.94 624,-292.94 630,-286.94 636,-286.94 636,-286.94 760,-286.94 760,-286.94 766,-286.94 772,-292.94 772,-298.94 772,-298.94 772,-314.44 772,-314.44 772,-320.44 766,-326.44 760,-326.44"/>
<text xml:space="preserve" text-anchor="middle" x="698" y="-313.89" font-family="Arial" font-size="9.00" fill="white">ETL Batch Pipeline</text>
<text xml:space="preserve" text-anchor="middle" x="698" y="-303.39" font-family="Arial" font-size="9.00" fill="white">[Container: Python CLI/CronJob]</text>
<text xml:space="preserve" text-anchor="middle" x="698" y="-292.89" font-family="Arial" font-size="9.00" fill="white">ETL → smoke → promote</text>
</g>
<!-- ops&#45;&gt;etl -->
<g id="edge19" class="edge">
<title>ops&#45;&gt;etl</title>
<path fill="none" stroke="#5d6d7e" d="M698,-393.89C698,-378.83 698,-356.51 698,-338.36"/>
<polygon fill="#5d6d7e" stroke="#5d6d7e" points="701.5,-338.38 698,-328.38 694.5,-338.38 701.5,-338.38"/>
<text xml:space="preserve" text-anchor="middle" x="723.12" y="-368.34" font-family="Arial" font-size="8.00">CLI / CronJob</text>
</g>
<!-- agent_rt -->
<g id="node6" class="node">
<title>agent_rt</title>
<path fill="#438dd5" stroke="black" d="M231.5,-241.19C231.5,-241.19 110.5,-241.19 110.5,-241.19 104.5,-241.19 98.5,-235.19 98.5,-229.19 98.5,-229.19 98.5,-213.69 98.5,-213.69 98.5,-207.69 104.5,-201.69 110.5,-201.69 110.5,-201.69 231.5,-201.69 231.5,-201.69 237.5,-201.69 243.5,-207.69 243.5,-213.69 243.5,-213.69 243.5,-229.19 243.5,-229.19 243.5,-235.19 237.5,-241.19 231.5,-241.19"/>
<text xml:space="preserve" text-anchor="middle" x="171" y="-228.64" font-family="Arial" font-size="9.00" fill="white">Diagnosis Agent Runtime</text>
<text xml:space="preserve" text-anchor="middle" x="171" y="-218.14" font-family="Arial" font-size="9.00" fill="white">[Container: Python/LangGraph]</text>
<text xml:space="preserve" text-anchor="middle" x="171" y="-207.64" font-family="Arial" font-size="9.00" fill="white">4&#45;node StateGraph (in&#45;process)</text>
</g>
<!-- web&#45;&gt;agent_rt -->
<g id="edge1" class="edge">
<title>web&#45;&gt;agent_rt</title>
<path fill="none" stroke="#5d6d7e" d="M293.04,-286.67C284.55,-277.45 273.51,-266.76 262,-259.19 254.79,-254.45 246.88,-250.14 238.82,-246.29"/>
<polygon fill="#5d6d7e" stroke="#5d6d7e" points="240.5,-243.21 229.95,-242.28 237.62,-249.59 240.5,-243.21"/>
<text xml:space="preserve" text-anchor="middle" x="287.04" y="-261.34" font-family="Arial" font-size="8.00">Invokes</text>
</g>
<!-- integrations -->
<g id="node8" class="node">
<title>integrations</title>
<path fill="#438dd5" stroke="black" d="M394.5,-241.19C394.5,-241.19 273.5,-241.19 273.5,-241.19 267.5,-241.19 261.5,-235.19 261.5,-229.19 261.5,-229.19 261.5,-213.69 261.5,-213.69 261.5,-207.69 267.5,-201.69 273.5,-201.69 273.5,-201.69 394.5,-201.69 394.5,-201.69 400.5,-201.69 406.5,-207.69 406.5,-213.69 406.5,-213.69 406.5,-229.19 406.5,-229.19 406.5,-235.19 400.5,-241.19 394.5,-241.19"/>
<text xml:space="preserve" text-anchor="middle" x="334" y="-228.64" font-family="Arial" font-size="9.00" fill="white">Integration Services</text>
<text xml:space="preserve" text-anchor="middle" x="334" y="-218.14" font-family="Arial" font-size="9.00" fill="white">[Container: Python]</text>
<text xml:space="preserve" text-anchor="middle" x="334" y="-207.64" font-family="Arial" font-size="9.00" fill="white">CRM · warranty · claims · cases</text>
</g>
<!-- web&#45;&gt;integrations -->
<g id="edge2" class="edge">
<title>web&#45;&gt;integrations</title>
<path fill="none" stroke="#5d6d7e" d="M314.67,-286.8C317.72,-276.65 321.55,-263.9 324.99,-252.44"/>
<polygon fill="#5d6d7e" stroke="#5d6d7e" points="328.3,-253.58 327.83,-242.99 321.6,-251.56 328.3,-253.58"/>
<text xml:space="preserve" text-anchor="middle" x="334.25" y="-261.34" font-family="Arial" font-size="8.00">Claims</text>
</g>
<!-- api -->
<g id="node5" class="node">
<title>api</title>
<path fill="#438dd5" stroke="black" d="M157.62,-326.44C157.62,-326.44 28.37,-326.44 28.37,-326.44 22.37,-326.44 16.38,-320.44 16.38,-314.44 16.38,-314.44 16.38,-298.94 16.38,-298.94 16.38,-292.94 22.38,-286.94 28.38,-286.94 28.38,-286.94 157.62,-286.94 157.62,-286.94 163.62,-286.94 169.62,-292.94 169.62,-298.94 169.62,-298.94 169.62,-314.44 169.62,-314.44 169.62,-320.44 163.62,-326.44 157.62,-326.44"/>
<text xml:space="preserve" text-anchor="middle" x="93" y="-313.89" font-family="Arial" font-size="9.00" fill="white">Diagnostics REST API</text>
<text xml:space="preserve" text-anchor="middle" x="93" y="-303.39" font-family="Arial" font-size="9.00" fill="white">[Container: Python/FastAPI :8080]</text>
<text xml:space="preserve" text-anchor="middle" x="93" y="-292.89" font-family="Arial" font-size="9.00" fill="white">/diagnose · /claims/* · /graph/*</text>
</g>
<!-- api&#45;&gt;agent_rt -->
<g id="edge3" class="edge">
<title>api&#45;&gt;agent_rt</title>
<path fill="none" stroke="#5d6d7e" d="M89.18,-286.69C88.39,-277.69 89.06,-267.18 94.25,-259.19 96.87,-255.14 100.07,-251.53 103.66,-248.31"/>
<polygon fill="#5d6d7e" stroke="#5d6d7e" points="105.6,-251.24 111.45,-242.4 101.37,-245.66 105.6,-251.24"/>
<text xml:space="preserve" text-anchor="middle" x="123.12" y="-261.34" font-family="Arial" font-size="8.00">POST /diagnose</text>
</g>
<!-- graph_lib -->
<g id="node7" class="node">
<title>graph_lib</title>
<path fill="#438dd5" stroke="black" d="M226.62,-148.53C226.62,-148.53 115.38,-148.53 115.38,-148.53 109.38,-148.53 103.38,-142.53 103.38,-136.53 103.38,-136.53 103.38,-121.03 103.38,-121.03 103.38,-115.03 109.38,-109.03 115.38,-109.03 115.38,-109.03 226.62,-109.03 226.62,-109.03 232.62,-109.03 238.62,-115.03 238.62,-121.03 238.62,-121.03 238.62,-136.53 238.62,-136.53 238.62,-142.53 232.62,-148.53 226.62,-148.53"/>
<text xml:space="preserve" text-anchor="middle" x="171" y="-135.98" font-family="Arial" font-size="9.00" fill="white">Graph Intelligence Library</text>
<text xml:space="preserve" text-anchor="middle" x="171" y="-125.48" font-family="Arial" font-size="9.00" fill="white">[Container: Python modules]</text>
<text xml:space="preserve" text-anchor="middle" x="171" y="-114.98" font-family="Arial" font-size="9.00" fill="white">GraphRAG · trees · parts · viz</text>
</g>
<!-- api&#45;&gt;graph_lib -->
<g id="edge5" class="edge">
<title>api&#45;&gt;graph_lib</title>
<path fill="none" stroke="#5d6d7e" d="M72.74,-286.79C52.54,-265.57 26.76,-230.35 43.5,-201.69 55.95,-180.38 77.3,-164.89 99.01,-153.87"/>
<polygon fill="#5d6d7e" stroke="#5d6d7e" points="100.43,-157.07 107.95,-149.61 97.42,-150.75 100.43,-157.07"/>
<text xml:space="preserve" text-anchor="middle" x="66.75" y="-218.71" font-family="Arial" font-size="8.00">GET /graph/*</text>
</g>
<!-- api&#45;&gt;integrations -->
<g id="edge4" class="edge">
<title>api&#45;&gt;integrations</title>
<path fill="none" stroke="#5d6d7e" d="M122.96,-286.47C140.58,-275.45 161.25,-263.05 171,-259.19 202.58,-246.69 214.45,-248.83 249.92,-241.74"/>
<polygon fill="#5d6d7e" stroke="#5d6d7e" points="250.62,-245.16 259.67,-239.66 249.16,-238.32 250.62,-245.16"/>
<text xml:space="preserve" text-anchor="middle" x="214.5" y="-261.34" font-family="Arial" font-size="8.00">CRM · warranty · claims</text>
</g>
<!-- agent_rt&#45;&gt;graph_lib -->
<g id="edge6" class="edge">
<title>agent_rt&#45;&gt;graph_lib</title>
<path fill="none" stroke="#5d6d7e" d="M171,-201.21C171,-189.31 171,-173.77 171,-160.23"/>
<polygon fill="#5d6d7e" stroke="#5d6d7e" points="174.5,-160.49 171,-150.49 167.5,-160.49 174.5,-160.49"/>
<text xml:space="preserve" text-anchor="middle" x="187.88" y="-176.09" font-family="Arial" font-size="8.00">Diagnose</text>
</g>
<!-- files -->
<g id="node13" class="node">
<title>files</title>
<path fill="#438dd5" stroke="black" d="M511.62,-151C511.62,-153.72 485.35,-155.94 453,-155.94 420.65,-155.94 394.38,-153.72 394.38,-151 394.38,-151 394.38,-106.56 394.38,-106.56 394.38,-103.84 420.65,-101.62 453,-101.62 485.35,-101.62 511.62,-103.84 511.62,-106.56 511.62,-106.56 511.62,-151 511.62,-151"/>
<path fill="none" stroke="black" d="M511.62,-151C511.62,-148.28 485.35,-146.06 453,-146.06 420.65,-146.06 394.38,-148.28 394.38,-151"/>
<text xml:space="preserve" text-anchor="middle" x="453" y="-135.98" font-family="Arial" font-size="9.00" fill="white">JSON File Store</text>
<text xml:space="preserve" text-anchor="middle" x="453" y="-125.48" font-family="Arial" font-size="9.00" fill="white">[Container: File System]</text>
<text xml:space="preserve" text-anchor="middle" x="453" y="-114.98" font-family="Arial" font-size="9.00" fill="white">fixtures · claims · lineage</text>
</g>
<!-- agent_rt&#45;&gt;files -->
<g id="edge10" class="edge">
<title>agent_rt&#45;&gt;files</title>
<path fill="none" stroke="#5d6d7e" d="M236.54,-201.23C278.1,-188.83 332.9,-172.05 381,-155.94 381.8,-155.67 382.61,-155.4 383.42,-155.12"/>
<polygon fill="#5d6d7e" stroke="#5d6d7e" points="384.4,-158.49 392.71,-151.93 382.12,-151.87 384.4,-158.49"/>
<text xml:space="preserve" text-anchor="middle" x="343.48" y="-176.09" font-family="Arial" font-size="8.00">Escalations</text>
</g>
<!-- neo4j -->
<g id="node12" class="node">
<title>neo4j</title>
<path fill="#438dd5" stroke="black" d="M512.38,-52.25C512.38,-54.25 483.07,-55.88 447,-55.88 410.93,-55.88 381.62,-54.25 381.62,-52.25 381.62,-52.25 381.62,-19.62 381.62,-19.62 381.62,-17.62 410.93,-16 447,-16 483.07,-16 512.38,-17.62 512.38,-19.62 512.38,-19.62 512.38,-52.25 512.38,-52.25"/>
<path fill="none" stroke="black" d="M512.38,-52.25C512.38,-50.25 483.07,-48.62 447,-48.62 410.93,-48.62 381.62,-50.25 381.62,-52.25"/>
<text xml:space="preserve" text-anchor="middle" x="447" y="-37.89" font-family="Arial" font-size="9.00" fill="white">Neo4j Graph Database</text>
<text xml:space="preserve" text-anchor="middle" x="447" y="-27.39" font-family="Arial" font-size="9.00" fill="white">[Container: Database :7687]</text>
</g>
<!-- graph_lib&#45;&gt;neo4j -->
<g id="edge7" class="edge">
<title>graph_lib&#45;&gt;neo4j</title>
<path fill="none" stroke="#5d6d7e" d="M193.38,-108.78C208.45,-96.96 229.29,-82.44 250,-73.88 287.88,-58.21 332.62,-49.14 369.88,-43.91"/>
<polygon fill="#5d6d7e" stroke="#5d6d7e" points="370.24,-47.4 379.69,-42.61 369.32,-40.46 370.24,-47.4"/>
<text xml:space="preserve" text-anchor="middle" x="272.5" y="-76.03" font-family="Arial" font-size="8.00">Cypher read</text>
</g>
<!-- integrations&#45;&gt;neo4j -->
<g id="edge8" class="edge">
<title>integrations&#45;&gt;neo4j</title>
<path fill="none" stroke="#5d6d7e" d="M321.76,-201.21C307.65,-176.35 288.79,-132.59 308.5,-101.62 322.65,-79.39 346.67,-64.68 370.76,-54.99"/>
<polygon fill="#5d6d7e" stroke="#5d6d7e" points="371.87,-58.31 380.01,-51.54 369.42,-51.75 371.87,-58.31"/>
<text xml:space="preserve" text-anchor="middle" x="346.75" y="-126.06" font-family="Arial" font-size="8.00">Cypher read/MERGE</text>
</g>
<!-- integrations&#45;&gt;files -->
<g id="edge9" class="edge">
<title>integrations&#45;&gt;files</title>
<path fill="none" stroke="#5d6d7e" d="M359.24,-201.21C373.74,-190.16 392.37,-175.97 409.2,-163.15"/>
<polygon fill="#5d6d7e" stroke="#5d6d7e" points="411.28,-165.96 417.12,-157.12 407.04,-160.39 411.28,-165.96"/>
<text xml:space="preserve" text-anchor="middle" x="410.38" y="-176.09" font-family="Arial" font-size="8.00">JSON I/O</text>
</g>
<!-- crm -->
<g id="node15" class="node">
<title>crm</title>
<path fill="#999999" stroke="black" d="M932.75,-146.78C932.75,-146.78 879.25,-146.78 879.25,-146.78 873.25,-146.78 867.25,-140.78 867.25,-134.78 867.25,-134.78 867.25,-122.78 867.25,-122.78 867.25,-116.78 873.25,-110.78 879.25,-110.78 879.25,-110.78 932.75,-110.78 932.75,-110.78 938.75,-110.78 944.75,-116.78 944.75,-122.78 944.75,-122.78 944.75,-134.78 944.75,-134.78 944.75,-140.78 938.75,-146.78 932.75,-146.78"/>
<text xml:space="preserve" text-anchor="middle" x="906" y="-125.48" font-family="Arial" font-size="9.00" fill="white">CRM [External]</text>
</g>
<!-- integrations&#45;&gt;crm -->
<g id="edge21" class="edge">
<title>integrations&#45;&gt;crm</title>
<path fill="none" stroke="#5d6d7e" stroke-dasharray="5,2" d="M406.95,-203.84C411.69,-203.03 416.41,-202.3 421,-201.69 565.7,-182.25 604.57,-205.04 749,-183.69 800.59,-176.06 814.82,-175.89 863,-155.94 865.45,-154.92 867.93,-153.78 870.39,-152.55"/>
<polygon fill="#5d6d7e" stroke="#5d6d7e" points="871.86,-155.74 878.97,-147.89 868.51,-149.59 871.86,-155.74"/>
<text xml:space="preserve" text-anchor="middle" x="822.7" y="-176.09" font-family="Arial" font-size="8.00">HTTPS</text>
</g>
<!-- blueprint -->
<g id="node10" class="node">
<title>blueprint</title>
<path fill="#438dd5" stroke="black" d="M667.12,-241.19C667.12,-241.19 534.88,-241.19 534.88,-241.19 528.88,-241.19 522.88,-235.19 522.88,-229.19 522.88,-229.19 522.88,-213.69 522.88,-213.69 522.88,-207.69 528.88,-201.69 534.88,-201.69 534.88,-201.69 667.12,-201.69 667.12,-201.69 673.12,-201.69 679.12,-207.69 679.12,-213.69 679.12,-213.69 679.12,-229.19 679.12,-229.19 679.12,-235.19 673.12,-241.19 667.12,-241.19"/>
<text xml:space="preserve" text-anchor="middle" x="601" y="-228.64" font-family="Arial" font-size="9.00" fill="white">Blueprint Authoring</text>
<text xml:space="preserve" text-anchor="middle" x="601" y="-218.14" font-family="Arial" font-size="9.00" fill="white">[Container: Python offline]</text>
<text xml:space="preserve" text-anchor="middle" x="601" y="-207.64" font-family="Arial" font-size="9.00" fill="white">OEM catalog · PIM sync · populate</text>
</g>
<!-- etl&#45;&gt;blueprint -->
<g id="edge16" class="edge">
<title>etl&#45;&gt;blueprint</title>
<path fill="none" stroke="#5d6d7e" d="M669.73,-286.44C662.23,-281.02 654.28,-274.95 647.25,-268.94 640.19,-262.9 632.94,-255.99 626.33,-249.38"/>
<polygon fill="#5d6d7e" stroke="#5d6d7e" points="628.92,-247.02 619.42,-242.33 623.92,-251.92 628.92,-247.02"/>
<text xml:space="preserve" text-anchor="middle" x="670.12" y="-261.34" font-family="Arial" font-size="8.00">Uses fixtures</text>
</g>
<!-- mock -->
<g id="node11" class="node">
<title>mock</title>
<path fill="#438dd5" stroke="black" d="M838.88,-241.19C838.88,-241.19 729.12,-241.19 729.12,-241.19 723.12,-241.19 717.12,-235.19 717.12,-229.19 717.12,-229.19 717.12,-213.69 717.12,-213.69 717.12,-207.69 723.12,-201.69 729.12,-201.69 729.12,-201.69 838.88,-201.69 838.88,-201.69 844.88,-201.69 850.88,-207.69 850.88,-213.69 850.88,-213.69 850.88,-229.19 850.88,-229.19 850.88,-235.19 844.88,-241.19 838.88,-241.19"/>
<text xml:space="preserve" text-anchor="middle" x="784" y="-228.64" font-family="Arial" font-size="9.00" fill="white">Mock Enterprise API</text>
<text xml:space="preserve" text-anchor="middle" x="784" y="-218.14" font-family="Arial" font-size="9.00" fill="white">[Container: FastAPI :8090]</text>
<text xml:space="preserve" text-anchor="middle" x="784" y="-207.64" font-family="Arial" font-size="9.00" fill="white">Demo PIM/CRM/Claims/FSM</text>
</g>
<!-- etl&#45;&gt;mock -->
<g id="edge11" class="edge">
<title>etl&#45;&gt;mock</title>
<path fill="none" stroke="#5d6d7e" d="M717.51,-286.8C728.98,-275.7 743.66,-261.49 756.3,-249.25"/>
<polygon fill="#5d6d7e" stroke="#5d6d7e" points="758.43,-252.06 763.18,-242.59 753.56,-247.03 758.43,-252.06"/>
<text xml:space="preserve" text-anchor="middle" x="764.2" y="-261.34" font-family="Arial" font-size="8.00">HTTP fetch</text>
</g>
<!-- etl&#45;&gt;neo4j -->
<g id="edge12" class="edge">
<title>etl&#45;&gt;neo4j</title>
<path fill="none" stroke="#5d6d7e" d="M698.65,-286.77C698.82,-265.53 697.41,-230.29 688,-201.69 671.79,-152.43 668.09,-134.51 628,-101.62 598.2,-77.18 558.45,-61.63 523.79,-51.92"/>
<polygon fill="#5d6d7e" stroke="#5d6d7e" points="524.76,-48.55 514.19,-49.36 522.95,-55.32 524.76,-48.55"/>
<text xml:space="preserve" text-anchor="middle" x="705.11" y="-176.09" font-family="Arial" font-size="8.00">MERGE load</text>
</g>
<!-- etl&#45;&gt;files -->
<g id="edge13" class="edge">
<title>etl&#45;&gt;files</title>
<path fill="none" stroke="#5d6d7e" d="M623.56,-296.17C559.23,-286.23 473.39,-268.28 452.5,-241.19 436.56,-220.52 437.56,-190.7 442.08,-167.1"/>
<polygon fill="#5d6d7e" stroke="#5d6d7e" points="445.44,-168.09 444.19,-157.57 438.61,-166.57 445.44,-168.09"/>
<text xml:space="preserve" text-anchor="middle" x="483.25" y="-218.71" font-family="Arial" font-size="8.00">Fixtures · lineage</text>
</g>
<!-- pim -->
<g id="node14" class="node">
<title>pim</title>
<path fill="#999999" stroke="black" d="M954.88,-239.44C954.88,-239.44 881.12,-239.44 881.12,-239.44 875.12,-239.44 869.12,-233.44 869.12,-227.44 869.12,-227.44 869.12,-215.44 869.12,-215.44 869.12,-209.44 875.12,-203.44 881.12,-203.44 881.12,-203.44 954.88,-203.44 954.88,-203.44 960.88,-203.44 966.88,-209.44 966.88,-215.44 966.88,-215.44 966.88,-227.44 966.88,-227.44 966.88,-233.44 960.88,-239.44 954.88,-239.44"/>
<text xml:space="preserve" text-anchor="middle" x="918" y="-218.14" font-family="Arial" font-size="9.00" fill="white">PIM / PLM [External]</text>
</g>
<!-- etl&#45;&gt;pim -->
<g id="edge20" class="edge">
<title>etl&#45;&gt;pim</title>
<path fill="none" stroke="#5d6d7e" stroke-dasharray="5,2" d="M748.75,-286.48C782.44,-273.73 826.71,-256.98 861.52,-243.81"/>
<polygon fill="#5d6d7e" stroke="#5d6d7e" points="862.47,-247.19 870.59,-240.38 859.99,-240.65 862.47,-247.19"/>
<text xml:space="preserve" text-anchor="middle" x="828.1" y="-261.34" font-family="Arial" font-size="8.00">HTTPS</text>
</g>
<!-- blueprint&#45;&gt;neo4j -->
<g id="edge15" class="edge">
<title>blueprint&#45;&gt;neo4j</title>
<path fill="none" stroke="#5d6d7e" d="M593.19,-201.36C589.35,-192.73 584.4,-182.57 579,-173.94 557.15,-139.01 549.51,-131.37 521,-101.62 508.34,-88.41 493.3,-74.92 480.09,-63.7"/>
<polygon fill="#5d6d7e" stroke="#5d6d7e" points="482.37,-61.04 472.46,-57.29 477.87,-66.4 482.37,-61.04"/>
<text xml:space="preserve" text-anchor="middle" x="595.44" y="-126.06" font-family="Arial" font-size="8.00">populate_graph</text>
</g>
<!-- blueprint&#45;&gt;files -->
<g id="edge14" class="edge">
<title>blueprint&#45;&gt;files</title>
<path fill="none" stroke="#5d6d7e" d="M553.12,-201.23C541.89,-196.06 530.16,-190.1 519.75,-183.69 510.05,-177.71 500.18,-170.49 491.12,-163.31"/>
<polygon fill="#5d6d7e" stroke="#5d6d7e" points="493.5,-160.73 483.53,-157.14 489.08,-166.16 493.5,-160.73"/>
<text xml:space="preserve" text-anchor="middle" x="549.38" y="-176.09" font-family="Arial" font-size="8.00">pim_catalog.json</text>
</g>
</g>
</svg>
