<?xml version="1.0" encoding="UTF-8" standalone="no"?>
<!DOCTYPE svg PUBLIC "-//W3C//DTD SVG 1.1//EN"
 "http://www.w3.org/Graphics/SVG/1.1/DTD/svg11.dtd">
<!-- Generated by graphviz version 14.1.5 (20260411.2331)
 -->
<!-- Title: C4_L3_API Pages: 1 -->
<svg width="728pt" height="320pt"
 viewBox="0.00 0.00 728.00 320.00" xmlns="http://www.w3.org/2000/svg" xmlns:xlink="http://www.w3.org/1999/xlink">
<g id="graph0" class="graph" transform="scale(1 1) rotate(0) translate(4 316)">
<title>C4_L3_API</title>
<polygon fill="white" stroke="none" points="-4,4 -4,-316 723.93,-316 723.93,4 -4,4"/>
<text xml:space="preserve" text-anchor="middle" x="359.96" y="-295.65" font-family="Arial" font-size="13.00">C4 Level 3 — Diagnostics REST API [Container]</text>
<g id="clust1" class="cluster">
<title>cluster_api</title>
<polygon fill="white" stroke="#438dd5" points="167.43,-8 167.43,-245 322.43,-245 322.43,-8 167.43,-8"/>
<text xml:space="preserve" text-anchor="middle" x="244.93" y="-228.65" font-family="Arial" font-size="13.00">Diagnostics REST API</text>
</g>
<g id="clust2" class="cluster">
<title>cluster_deps</title>
<polygon fill="white" stroke="#666666" points="390.43,-152 390.43,-281 711.93,-281 711.93,-152 390.43,-152"/>
<text xml:space="preserve" text-anchor="middle" x="551.18" y="-264.65" font-family="Arial" font-size="13.00">Collaborating containers</text>
</g>
<!-- d -->
<g id="node1" class="node">
<title>d</title>
<path fill="#85bbf0" stroke="black" d="M282.18,-214C282.18,-214 207.68,-214 207.68,-214 201.68,-214 195.68,-208 195.68,-202 195.68,-202 195.68,-190 195.68,-190 195.68,-184 201.68,-178 207.68,-178 207.68,-178 282.18,-178 282.18,-178 288.18,-178 294.18,-184 294.18,-190 294.18,-190 294.18,-202 294.18,-202 294.18,-208 288.18,-214 282.18,-214"/>
<text xml:space="preserve" text-anchor="middle" x="244.93" y="-197.95" font-family="Arial" font-size="9.00">Diagnose Controller</text>
<text xml:space="preserve" text-anchor="middle" x="244.93" y="-187.45" font-family="Arial" font-size="9.00">POST /diagnose</text>
</g>
<!-- agent -->
<g id="node5" class="node">
<title>agent</title>
<path fill="#438dd5" stroke="black" d="M466.93,-250C466.93,-250 410.43,-250 410.43,-250 404.43,-250 398.43,-244 398.43,-238 398.43,-238 398.43,-226 398.43,-226 398.43,-220 404.43,-214 410.43,-214 410.43,-214 466.93,-214 466.93,-214 472.93,-214 478.93,-220 478.93,-226 478.93,-226 478.93,-238 478.93,-238 478.93,-244 472.93,-250 466.93,-250"/>
<text xml:space="preserve" text-anchor="middle" x="438.68" y="-233.95" font-family="Arial" font-size="9.00" fill="white">Agent Runtime</text>
<text xml:space="preserve" text-anchor="middle" x="438.68" y="-223.45" font-family="Arial" font-size="9.00" fill="white">run_diagnosis()</text>
</g>
<!-- d&#45;&gt;agent -->
<g id="edge6" class="edge">
<title>d&#45;&gt;agent</title>
<path fill="none" stroke="black" d="M294.31,-205.08C322.62,-210.4 358.31,-217.1 387,-222.49"/>
<polygon fill="black" stroke="black" points="386.06,-225.87 396.54,-224.28 387.36,-218.99 386.06,-225.87"/>
</g>
<!-- integ -->
<g id="node6" class="node">
<title>integ</title>
<path fill="#438dd5" stroke="black" d="M600.93,-250C600.93,-250 527.93,-250 527.93,-250 521.93,-250 515.93,-244 515.93,-238 515.93,-238 515.93,-226 515.93,-226 515.93,-220 521.93,-214 527.93,-214 527.93,-214 600.93,-214 600.93,-214 606.93,-214 612.93,-220 612.93,-226 612.93,-226 612.93,-238 612.93,-238 612.93,-244 606.93,-250 600.93,-250"/>
<text xml:space="preserve" text-anchor="middle" x="564.43" y="-228.7" font-family="Arial" font-size="9.00" fill="white">Integration Services</text>
</g>
<!-- d&#45;&gt;integ -->
<g id="edge5" class="edge">
<title>d&#45;&gt;integ</title>
<path fill="none" stroke="black" d="M294.26,-190.07C341.79,-185.59 416.15,-182.19 478.93,-195.25 492.63,-198.1 506.84,-203.3 519.6,-208.9"/>
<polygon fill="black" stroke="black" points="518.02,-212.03 528.57,-213.03 520.95,-205.67 518.02,-212.03"/>
<text xml:space="preserve" text-anchor="middle" x="438.68" y="-197.4" font-family="Arial" font-size="8.00">CRM · warranty</text>
</g>
<!-- c -->
<g id="node2" class="node">
<title>c</title>
<path fill="#85bbf0" stroke="black" d="M294.18,-160C294.18,-160 195.68,-160 195.68,-160 189.68,-160 183.68,-154 183.68,-148 183.68,-148 183.68,-136 183.68,-136 183.68,-130 189.68,-124 195.68,-124 195.68,-124 294.18,-124 294.18,-124 300.18,-124 306.18,-130 306.18,-136 306.18,-136 306.18,-148 306.18,-148 306.18,-154 300.18,-160 294.18,-160"/>
<text xml:space="preserve" text-anchor="middle" x="244.93" y="-143.95" font-family="Arial" font-size="9.00">Claims Controller</text>
<text xml:space="preserve" text-anchor="middle" x="244.93" y="-133.45" font-family="Arial" font-size="9.00">POST/GET/PATCH /claims</text>
</g>
<!-- c&#45;&gt;agent -->
<g id="edge8" class="edge">
<title>c&#45;&gt;agent</title>
<path fill="none" stroke="black" d="M301.03,-160.39C308.29,-163.12 315.58,-166.02 322.43,-169 349.09,-180.59 354.91,-185.31 380.43,-199.25 385.51,-202.03 390.82,-204.99 396.06,-207.95"/>
<polygon fill="black" stroke="black" points="394.26,-210.95 404.69,-212.84 397.72,-204.86 394.26,-210.95"/>
<text xml:space="preserve" text-anchor="middle" x="356.43" y="-201.4" font-family="Arial" font-size="8.00">diagnosis first</text>
</g>
<!-- c&#45;&gt;integ -->
<g id="edge7" class="edge">
<title>c&#45;&gt;integ</title>
<path fill="none" stroke="black" d="M306.5,-140.27C355.15,-141.09 424.16,-147.34 478.93,-172.25 498.92,-181.34 498.06,-192.23 515.93,-205 517.08,-205.82 518.25,-206.64 519.45,-207.45"/>
<polygon fill="black" stroke="black" points="517.32,-210.25 527.63,-212.69 521.1,-204.35 517.32,-210.25"/>
<text xml:space="preserve" text-anchor="middle" x="438.68" y="-174.4" font-family="Arial" font-size="8.00">submit_claim</text>
</g>
<!-- g -->
<g id="node3" class="node">
<title>g</title>
<path fill="#85bbf0" stroke="black" d="M275.05,-106C275.05,-106 214.8,-106 214.8,-106 208.8,-106 202.8,-100 202.8,-94 202.8,-94 202.8,-82 202.8,-82 202.8,-76 208.8,-70 214.8,-70 214.8,-70 275.05,-70 275.05,-70 281.05,-70 287.05,-76 287.05,-82 287.05,-82 287.05,-94 287.05,-94 287.05,-100 281.05,-106 275.05,-106"/>
<text xml:space="preserve" text-anchor="middle" x="244.93" y="-89.95" font-family="Arial" font-size="9.00">Graph Controller</text>
<text xml:space="preserve" text-anchor="middle" x="244.93" y="-79.45" font-family="Arial" font-size="9.00">GET /graph/*</text>
</g>
<!-- intel -->
<g id="node7" class="node">
<title>intel</title>
<path fill="#438dd5" stroke="black" d="M597.93,-196C597.93,-196 530.93,-196 530.93,-196 524.93,-196 518.93,-190 518.93,-184 518.93,-184 518.93,-172 518.93,-172 518.93,-166 524.93,-160 530.93,-160 530.93,-160 597.93,-160 597.93,-160 603.93,-160 609.93,-166 609.93,-172 609.93,-172 609.93,-184 609.93,-184 609.93,-190 603.93,-196 597.93,-196"/>
<text xml:space="preserve" text-anchor="middle" x="564.43" y="-174.7" font-family="Arial" font-size="9.00" fill="white">Graph Intelligence</text>
</g>
<!-- g&#45;&gt;intel -->
<g id="edge9" class="edge">
<title>g&#45;&gt;intel</title>
<path fill="none" stroke="black" d="M287.25,-96.02C334.23,-105.57 412.94,-122.92 478.93,-144 489.32,-147.32 500.26,-151.32 510.68,-155.4"/>
<polygon fill="black" stroke="black" points="509.33,-158.63 519.91,-159.08 511.92,-152.12 509.33,-158.63"/>
</g>
<!-- h -->
<g id="node4" class="node">
<title>h</title>
<path fill="#85bbf0" stroke="black" d="M302.43,-52C302.43,-52 187.43,-52 187.43,-52 181.43,-52 175.43,-46 175.43,-40 175.43,-40 175.43,-28 175.43,-28 175.43,-22 181.43,-16 187.43,-16 187.43,-16 302.43,-16 302.43,-16 308.43,-16 314.43,-22 314.43,-28 314.43,-28 314.43,-40 314.43,-40 314.43,-46 308.43,-52 302.43,-52"/>
<text xml:space="preserve" text-anchor="middle" x="244.93" y="-35.95" font-family="Arial" font-size="9.00">Health &amp; Lineage</text>
<text xml:space="preserve" text-anchor="middle" x="244.93" y="-25.45" font-family="Arial" font-size="9.00">GET /health · /lineage/batches</text>
</g>
<!-- agent&#45;&gt;intel -->
<g id="edge10" class="edge">
<title>agent&#45;&gt;intel</title>
<path fill="none" stroke="black" d="M479.17,-214.77C489.25,-210.37 500.25,-205.57 510.87,-200.93"/>
<polygon fill="black" stroke="black" points="512.16,-204.19 519.93,-196.98 509.36,-197.77 512.16,-204.19"/>
</g>
<!-- neo -->
<g id="node8" class="node">
<title>neo</title>
<path fill="#438dd5" stroke="black" d="M703.93,-219.73C703.93,-221.53 691.82,-223 676.93,-223 662.03,-223 649.93,-221.53 649.93,-219.73 649.93,-219.73 649.93,-190.27 649.93,-190.27 649.93,-188.47 662.03,-187 676.93,-187 691.82,-187 703.93,-188.47 703.93,-190.27 703.93,-190.27 703.93,-219.73 703.93,-219.73"/>
<path fill="none" stroke="black" d="M703.93,-219.73C703.93,-217.92 691.82,-216.45 676.93,-216.45 662.03,-216.45 649.93,-217.92 649.93,-219.73"/>
<text xml:space="preserve" text-anchor="middle" x="676.93" y="-201.7" font-family="Arial" font-size="9.00" fill="white">Neo4j</text>
</g>
<!-- integ&#45;&gt;neo -->
<g id="edge12" class="edge">
<title>integ&#45;&gt;neo</title>
<path fill="none" stroke="black" d="M613.25,-220.31C621.73,-218.24 630.46,-216.11 638.6,-214.12"/>
<polygon fill="black" stroke="black" points="639.28,-217.56 648.16,-211.78 637.62,-210.76 639.28,-217.56"/>
</g>
<!-- intel&#45;&gt;neo -->
<g id="edge11" class="edge">
<title>intel&#45;&gt;neo</title>
<path fill="none" stroke="black" d="M610.37,-188.98C619.78,-191.28 629.61,-193.68 638.7,-195.9"/>
<polygon fill="black" stroke="black" points="637.72,-199.27 648.27,-198.24 639.39,-192.47 637.72,-199.27"/>
</g>
<!-- client -->
<g id="node9" class="node">
<title>client</title>
<ellipse fill="#08427b" stroke="black" cx="69.21" cy="-107" rx="69.21" ry="18"/>
<text xml:space="preserve" text-anchor="middle" x="69.21" y="-103.7" font-family="Arial" font-size="9.00" fill="white">Streamlit / External Client</text>
</g>
<!-- client&#45;&gt;d -->
<g id="edge1" class="edge">
<title>client&#45;&gt;d</title>
<path fill="none" stroke="black" d="M93.69,-124.14C112.85,-137.58 140.98,-156.11 167.43,-169 172.97,-171.7 178.85,-174.27 184.79,-176.66"/>
<polygon fill="black" stroke="black" points="183.49,-179.91 194.08,-180.25 186.01,-173.38 183.49,-179.91"/>
</g>
<!-- client&#45;&gt;c -->
<g id="edge2" class="edge">
<title>client&#45;&gt;c</title>
<path fill="none" stroke="black" d="M124.7,-117.98C139.82,-121.02 156.46,-124.38 172.4,-127.59"/>
<polygon fill="black" stroke="black" points="171.31,-130.94 181.8,-129.48 172.69,-124.08 171.31,-130.94"/>
</g>
<!-- client&#45;&gt;g -->
<g id="edge3" class="edge">
<title>client&#45;&gt;g</title>
<path fill="none" stroke="black" d="M133.42,-100.09C152.37,-98.01 172.94,-95.76 191.15,-93.77"/>
<polygon fill="black" stroke="black" points="191.37,-97.27 200.93,-92.7 190.6,-90.31 191.37,-97.27"/>
</g>
<!-- client&#45;&gt;h -->
<g id="edge4" class="edge">
<title>client&#45;&gt;h</title>
<path fill="none" stroke="black" d="M102.25,-90.83C121.02,-81.6 145.33,-70.1 167.43,-61 171.05,-59.51 174.79,-58.02 178.59,-56.55"/>
<polygon fill="black" stroke="black" points="179.8,-59.83 187.92,-53.03 177.33,-53.29 179.8,-59.83"/>
</g>
</g>
</svg>
