<?xml version="1.0" encoding="UTF-8" standalone="no"?>
<!DOCTYPE svg PUBLIC "-//W3C//DTD SVG 1.1//EN"
 "http://www.w3.org/Graphics/SVG/1.1/DTD/svg11.dtd">
<!-- Generated by graphviz version 14.1.5 (20260411.2331)
 -->
<!-- Title: C4_L1_SystemContext Pages: 1 -->
<svg width="1379pt" height="353pt"
 viewBox="0.00 0.00 1379.00 353.00" xmlns="http://www.w3.org/2000/svg" xmlns:xlink="http://www.w3.org/1999/xlink">
<g id="graph0" class="graph" transform="scale(1 1) rotate(0) translate(4 349.15)">
<title>C4_L1_SystemContext</title>
<polygon fill="white" stroke="none" points="-4,4 -4,-349.15 1375.17,-349.15 1375.17,4 -4,4"/>
<text xml:space="preserve" text-anchor="start" x="576.08" y="-328.75" font-family="Arial" font-weight="bold" font-size="12.00">C4 Level 1 — System Context Diagram</text>
<text xml:space="preserve" text-anchor="start" x="576.08" y="-309.65" font-family="Arial" font-size="12.00">Enterprise Warranty Diagnostics Platform</text>
<!-- customer -->
<g id="node1" class="node">
<title>customer</title>
<ellipse fill="#08427b" stroke="black" stroke-width="0" cx="63.82" cy="-274.25" rx="63.82" ry="22.63"/>
<text xml:space="preserve" text-anchor="middle" x="63.82" y="-276.75" font-family="Arial" font-size="10.00" fill="white">Appliance Owner</text>
<text xml:space="preserve" text-anchor="middle" x="63.82" y="-264.75" font-family="Arial" font-size="10.00" fill="white">[Person]</text>
</g>
<!-- platform -->
<g id="node5" class="node">
<title>platform</title>
<path fill="#1168bd" stroke="black" stroke-width="2" d="M764.04,-190.85C764.04,-190.85 473.59,-190.85 473.59,-190.85 467.59,-190.85 461.59,-184.85 461.59,-178.85 461.59,-178.85 461.59,-121.8 461.59,-121.8 461.59,-115.8 467.59,-109.8 473.59,-109.8 473.59,-109.8 764.04,-109.8 764.04,-109.8 770.04,-109.8 776.04,-115.8 776.04,-121.8 776.04,-121.8 776.04,-178.85 776.04,-178.85 776.04,-184.85 770.04,-190.85 764.04,-190.85"/>
<text xml:space="preserve" text-anchor="start" x="544.19" y="-163.95" font-family="Arial" font-weight="bold" font-size="10.00" fill="white">Enterprise Diagnostics Platform</text>
<text xml:space="preserve" text-anchor="start" x="487.19" y="-146.2" font-family="Arial" font-size="9.00" fill="white">[Software System]</text>
<text xml:space="preserve" text-anchor="start" x="487.19" y="-130.45" font-family="Arial" font-size="8.00" fill="white">GraphRAG diagnosis · dynamic trees · parts prediction · claims · graph viz</text>
</g>
<!-- customer&#45;&gt;platform -->
<g id="edge1" class="edge">
<title>customer&#45;&gt;platform</title>
<path fill="none" stroke="#444444" d="M92.54,-254.29C116.43,-239.46 151.86,-219.62 185.57,-208.85 270.21,-181.8 368.09,-167.46 449.37,-159.87"/>
<polygon fill="#444444" stroke="#444444" points="449.58,-163.36 459.22,-158.97 448.94,-156.39 449.58,-163.36"/>
<text xml:space="preserve" text-anchor="middle" x="224.19" y="-221.3" font-family="Arial" font-size="9.00">Uses chat &amp; claims</text>
<text xml:space="preserve" text-anchor="middle" x="224.19" y="-210.8" font-family="Arial" font-size="9.00">[HTTPS]</text>
</g>
<!-- agent -->
<g id="node2" class="node">
<title>agent</title>
<ellipse fill="#08427b" stroke="black" stroke-width="0" cx="223.82" cy="-274.25" rx="78.14" ry="22.63"/>
<text xml:space="preserve" text-anchor="middle" x="223.82" y="-276.75" font-family="Arial" font-size="10.00" fill="white">Contact Center Agent</text>
<text xml:space="preserve" text-anchor="middle" x="223.82" y="-264.75" font-family="Arial" font-size="10.00" fill="white">[Person]</text>
</g>
<!-- agent&#45;&gt;platform -->
<g id="edge2" class="edge">
<title>agent&#45;&gt;platform</title>
<path fill="none" stroke="#444444" d="M241.87,-252.53C255.75,-237.97 276.21,-219.3 298.07,-208.85 344.79,-186.51 399.1,-172.8 449.61,-164.39"/>
<polygon fill="#444444" stroke="#444444" points="449.84,-167.9 459.17,-162.86 448.74,-160.98 449.84,-167.9"/>
<text xml:space="preserve" text-anchor="middle" x="358.44" y="-221.3" font-family="Arial" font-size="9.00">Reviews claims &amp; escalations</text>
<text xml:space="preserve" text-anchor="middle" x="358.44" y="-210.8" font-family="Arial" font-size="9.00">[HTTPS]</text>
</g>
<!-- sme -->
<g id="node3" class="node">
<title>sme</title>
<ellipse fill="#08427b" stroke="black" stroke-width="0" cx="394.82" cy="-274.25" rx="74.42" ry="22.63"/>
<text xml:space="preserve" text-anchor="middle" x="394.82" y="-276.75" font-family="Arial" font-size="10.00" fill="white">Knowledge Engineer</text>
<text xml:space="preserve" text-anchor="middle" x="394.82" y="-264.75" font-family="Arial" font-size="10.00" fill="white">[Person]</text>
</g>
<!-- sme&#45;&gt;platform -->
<g id="edge3" class="edge">
<title>sme&#45;&gt;platform</title>
<path fill="none" stroke="#444444" d="M406.05,-251.97C414.46,-237.92 427.19,-220.08 442.82,-208.85 448.78,-204.56 455.08,-200.59 461.61,-196.89"/>
<polygon fill="#444444" stroke="#444444" points="462.83,-200.21 470,-192.4 459.53,-194.04 462.83,-200.21"/>
<text xml:space="preserve" text-anchor="middle" x="504.32" y="-216.05" font-family="Arial" font-size="9.00">Governs ontology &amp; blueprints</text>
</g>
<!-- ops -->
<g id="node4" class="node">
<title>ops</title>
<ellipse fill="#08427b" stroke="black" stroke-width="0" cx="539.82" cy="-274.25" rx="52.15" ry="22.63"/>
<text xml:space="preserve" text-anchor="middle" x="539.82" y="-276.75" font-family="Arial" font-size="10.00" fill="white">Platform Ops</text>
<text xml:space="preserve" text-anchor="middle" x="539.82" y="-264.75" font-family="Arial" font-size="10.00" fill="white">[Person]</text>
</g>
<!-- ops&#45;&gt;platform -->
<g id="edge4" class="edge">
<title>ops&#45;&gt;platform</title>
<path fill="none" stroke="#444444" d="M553.22,-252.57C562.44,-238.33 575.1,-218.8 586.83,-200.69"/>
<polygon fill="#444444" stroke="#444444" points="589.54,-202.94 592.04,-192.65 583.67,-199.14 589.54,-202.94"/>
<text xml:space="preserve" text-anchor="middle" x="619.07" y="-216.05" font-family="Arial" font-size="9.00">Runs ETL pipelines</text>
</g>
<!-- ccaas -->
<g id="node10" class="node">
<title>ccaas</title>
<path fill="#999999" stroke="black" d="M695.17,-52.8C695.17,-52.8 542.47,-52.8 542.47,-52.8 536.47,-52.8 530.47,-46.8 530.47,-40.8 530.47,-40.8 530.47,-12 530.47,-12 530.47,-6 536.47,0 542.47,0 542.47,0 695.17,0 695.17,0 701.17,0 707.17,-6 707.17,-12 707.17,-12 707.17,-40.8 707.17,-40.8 707.17,-46.8 701.17,-52.8 695.17,-52.8"/>
<text xml:space="preserve" text-anchor="middle" x="618.82" y="-28.9" font-family="Arial" font-size="10.00" fill="white">CCaaS / Case Mgmt</text>
<text xml:space="preserve" text-anchor="middle" x="618.82" y="-16.9" font-family="Arial" font-size="10.00" fill="white">[Software System — External]</text>
</g>
<!-- platform&#45;&gt;ccaas -->
<g id="edge9" class="edge">
<title>platform&#45;&gt;ccaas</title>
<path fill="none" stroke="#444444" stroke-dasharray="5,2" d="M618.82,-109.06C618.82,-94.65 618.82,-78.48 618.82,-64.36"/>
<polygon fill="#444444" stroke="#444444" points="622.32,-64.58 618.82,-54.58 615.32,-64.58 622.32,-64.58"/>
<text xml:space="preserve" text-anchor="middle" x="656.69" y="-83.25" font-family="Arial" font-size="9.00">Escalation handoff</text>
<text xml:space="preserve" text-anchor="middle" x="656.69" y="-72.75" font-family="Arial" font-size="9.00">[HTTPS]</text>
</g>
<!-- pim -->
<g id="node6" class="node">
<title>pim</title>
<path fill="#999999" stroke="black" d="M774.17,-300.65C774.17,-300.65 621.47,-300.65 621.47,-300.65 615.47,-300.65 609.47,-294.65 609.47,-288.65 609.47,-288.65 609.47,-259.85 609.47,-259.85 609.47,-253.85 615.47,-247.85 621.47,-247.85 621.47,-247.85 774.17,-247.85 774.17,-247.85 780.17,-247.85 786.17,-253.85 786.17,-259.85 786.17,-259.85 786.17,-288.65 786.17,-288.65 786.17,-294.65 780.17,-300.65 774.17,-300.65"/>
<text xml:space="preserve" text-anchor="middle" x="697.82" y="-276.75" font-family="Arial" font-size="10.00" fill="white">PIM / PLM</text>
<text xml:space="preserve" text-anchor="middle" x="697.82" y="-264.75" font-family="Arial" font-size="10.00" fill="white">[Software System — External]</text>
</g>
<!-- pim&#45;&gt;platform -->
<g id="edge5" class="edge">
<title>pim&#45;&gt;platform</title>
<path fill="none" stroke="#444444" d="M685.07,-247.65C678.79,-235.62 670.85,-221.23 662.82,-208.85 661.08,-206.18 659.26,-203.48 657.39,-200.77"/>
<polygon fill="#444444" stroke="#444444" points="660.4,-198.96 651.75,-192.84 654.7,-203.02 660.4,-198.96"/>
<text xml:space="preserve" text-anchor="middle" x="722.52" y="-221.3" font-family="Arial" font-size="9.00">Product catalog &amp; BOM</text>
<text xml:space="preserve" text-anchor="middle" x="722.52" y="-210.8" font-family="Arial" font-size="9.00">[HTTPS/JSON]</text>
</g>
<!-- crm -->
<g id="node7" class="node">
<title>crm</title>
<path fill="#999999" stroke="black" d="M969.17,-300.65C969.17,-300.65 816.47,-300.65 816.47,-300.65 810.47,-300.65 804.47,-294.65 804.47,-288.65 804.47,-288.65 804.47,-259.85 804.47,-259.85 804.47,-253.85 810.47,-247.85 816.47,-247.85 816.47,-247.85 969.17,-247.85 969.17,-247.85 975.17,-247.85 981.17,-253.85 981.17,-259.85 981.17,-259.85 981.17,-288.65 981.17,-288.65 981.17,-294.65 975.17,-300.65 969.17,-300.65"/>
<text xml:space="preserve" text-anchor="middle" x="892.82" y="-276.75" font-family="Arial" font-size="10.00" fill="white">CRM</text>
<text xml:space="preserve" text-anchor="middle" x="892.82" y="-264.75" font-family="Arial" font-size="10.00" fill="white">[Software System — External]</text>
</g>
<!-- crm&#45;&gt;platform -->
<g id="edge6" class="edge">
<title>crm&#45;&gt;platform</title>
<path fill="none" stroke="#444444" d="M848.65,-247.42C826.55,-235 799.17,-220.35 773.82,-208.85 764.21,-204.5 754.17,-200.21 744.02,-196.05"/>
<polygon fill="#444444" stroke="#444444" points="745.4,-192.83 734.82,-192.34 742.78,-199.33 745.4,-192.83"/>
<text xml:space="preserve" text-anchor="middle" x="854.37" y="-221.3" font-family="Arial" font-size="9.00">Customers &amp; assets</text>
<text xml:space="preserve" text-anchor="middle" x="854.37" y="-210.8" font-family="Arial" font-size="9.00">[HTTPS/JSON]</text>
</g>
<!-- claims -->
<g id="node8" class="node">
<title>claims</title>
<path fill="#999999" stroke="black" d="M1164.17,-300.65C1164.17,-300.65 1011.47,-300.65 1011.47,-300.65 1005.47,-300.65 999.47,-294.65 999.47,-288.65 999.47,-288.65 999.47,-259.85 999.47,-259.85 999.47,-253.85 1005.47,-247.85 1011.47,-247.85 1011.47,-247.85 1164.17,-247.85 1164.17,-247.85 1170.17,-247.85 1176.17,-253.85 1176.17,-259.85 1176.17,-259.85 1176.17,-288.65 1176.17,-288.65 1176.17,-294.65 1170.17,-300.65 1164.17,-300.65"/>
<text xml:space="preserve" text-anchor="middle" x="1087.82" y="-276.75" font-family="Arial" font-size="10.00" fill="white">Claims System</text>
<text xml:space="preserve" text-anchor="middle" x="1087.82" y="-264.75" font-family="Arial" font-size="10.00" fill="white">[Software System — External]</text>
</g>
<!-- claims&#45;&gt;platform -->
<g id="edge7" class="edge">
<title>claims&#45;&gt;platform</title>
<path fill="none" stroke="#444444" d="M1018.9,-247.44C983.36,-234.72 939.12,-219.81 898.82,-208.85 863.19,-199.16 824.61,-190.24 787.82,-182.47"/>
<polygon fill="#444444" stroke="#444444" points="788.97,-179.13 778.46,-180.51 787.53,-185.99 788.97,-179.13"/>
<text xml:space="preserve" text-anchor="middle" x="1011.33" y="-221.3" font-family="Arial" font-size="9.00">Policies &amp; precedents</text>
<text xml:space="preserve" text-anchor="middle" x="1011.33" y="-210.8" font-family="Arial" font-size="9.00">[HTTPS/JSON]</text>
</g>
<!-- fsm -->
<g id="node9" class="node">
<title>fsm</title>
<path fill="#999999" stroke="black" d="M1359.17,-300.65C1359.17,-300.65 1206.47,-300.65 1206.47,-300.65 1200.47,-300.65 1194.47,-294.65 1194.47,-288.65 1194.47,-288.65 1194.47,-259.85 1194.47,-259.85 1194.47,-253.85 1200.47,-247.85 1206.47,-247.85 1206.47,-247.85 1359.17,-247.85 1359.17,-247.85 1365.17,-247.85 1371.17,-253.85 1371.17,-259.85 1371.17,-259.85 1371.17,-288.65 1371.17,-288.65 1371.17,-294.65 1365.17,-300.65 1359.17,-300.65"/>
<text xml:space="preserve" text-anchor="middle" x="1282.82" y="-276.75" font-family="Arial" font-size="10.00" fill="white">Field Service Mgmt</text>
<text xml:space="preserve" text-anchor="middle" x="1282.82" y="-264.75" font-family="Arial" font-size="10.00" fill="white">[Software System — External]</text>
</g>
<!-- fsm&#45;&gt;platform -->
<g id="edge8" class="edge">
<title>fsm&#45;&gt;platform</title>
<path fill="none" stroke="#444444" d="M1204.08,-247.35C1161.72,-234.22 1108.34,-218.96 1059.82,-208.85 970.93,-190.33 870.65,-176.69 788.2,-167.35"/>
<polygon fill="#444444" stroke="#444444" points="788.78,-163.89 778.45,-166.25 788,-170.85 788.78,-163.89"/>
<text xml:space="preserve" text-anchor="middle" x="1174.09" y="-221.3" font-family="Arial" font-size="9.00">Field resolutions</text>
<text xml:space="preserve" text-anchor="middle" x="1174.09" y="-210.8" font-family="Arial" font-size="9.00">[HTTPS/JSON]</text>
</g>
</g>
</svg>
