<?xml version="1.0" encoding="UTF-8" standalone="no"?>
<!DOCTYPE svg PUBLIC "-//W3C//DTD SVG 1.1//EN"
 "http://www.w3.org/Graphics/SVG/1.1/DTD/svg11.dtd">
<!-- Generated by graphviz version 14.1.5 (20260411.2331)
 -->
<!-- Title: C4_L3_GraphIntelligence Pages: 1 -->
<svg width="812pt" height="248pt"
 viewBox="0.00 0.00 812.00 248.00" xmlns="http://www.w3.org/2000/svg" xmlns:xlink="http://www.w3.org/1999/xlink">
<g id="graph0" class="graph" transform="scale(1 1) rotate(0) translate(4 244.34)">
<title>C4_L3_GraphIntelligence</title>
<polygon fill="white" stroke="none" points="-4,4 -4,-244.34 807.5,-244.34 807.5,4 -4,4"/>
<text xml:space="preserve" text-anchor="middle" x="401.75" y="-223.99" font-family="Arial" font-size="13.00">C4 Level 3 — Graph Intelligence Library [Container]</text>
<g id="clust1" class="cluster">
<title>cluster_intel</title>
<polygon fill="white" stroke="#438dd5" points="164,-72.34 164,-209.34 545,-209.34 545,-72.34 164,-72.34"/>
<text xml:space="preserve" text-anchor="middle" x="354.5" y="-192.99" font-family="Arial" font-size="13.00">Graph Intelligence Library</text>
</g>
<!-- rag -->
<g id="node1" class="node">
<title>rag</title>
<path fill="#85bbf0" stroke="black" d="M309.5,-178.09C309.5,-178.09 184,-178.09 184,-178.09 178,-178.09 172,-172.09 172,-166.09 172,-166.09 172,-150.59 172,-150.59 172,-144.59 178,-138.59 184,-138.59 184,-138.59 309.5,-138.59 309.5,-138.59 315.5,-138.59 321.5,-144.59 321.5,-150.59 321.5,-150.59 321.5,-166.09 321.5,-166.09 321.5,-172.09 315.5,-178.09 309.5,-178.09"/>
<text xml:space="preserve" text-anchor="middle" x="246.75" y="-165.54" font-family="Arial" font-size="9.00">GraphRAG</text>
<text xml:space="preserve" text-anchor="middle" x="246.75" y="-155.04" font-family="Arial" font-size="9.00">graph_rag.py</text>
<text xml:space="preserve" text-anchor="middle" x="246.75" y="-144.54" font-family="Arial" font-size="9.00">diagnose() · rank_failure_modes</text>
</g>
<!-- de -->
<g id="node2" class="node">
<title>de</title>
<path fill="#85bbf0" stroke="black" d="M525,-178.09C525,-178.09 425,-178.09 425,-178.09 419,-178.09 413,-172.09 413,-166.09 413,-166.09 413,-150.59 413,-150.59 413,-144.59 419,-138.59 425,-138.59 425,-138.59 525,-138.59 525,-138.59 531,-138.59 537,-144.59 537,-150.59 537,-150.59 537,-166.09 537,-166.09 537,-172.09 531,-178.09 525,-178.09"/>
<text xml:space="preserve" text-anchor="middle" x="475" y="-165.54" font-family="Arial" font-size="9.00">Diagnostic Engine</text>
<text xml:space="preserve" text-anchor="middle" x="475" y="-155.04" font-family="Arial" font-size="9.00">diagnostic_engine.py</text>
<text xml:space="preserve" text-anchor="middle" x="475" y="-144.54" font-family="Arial" font-size="9.00">NEXT_STEP · CONFIRMS</text>
</g>
<!-- rag&#45;&gt;de -->
<g id="edge2" class="edge">
<title>rag&#45;&gt;de</title>
<path fill="none" stroke="black" d="M321.83,-158.34C347.31,-158.34 375.81,-158.34 401.19,-158.34"/>
<polygon fill="black" stroke="black" points="401.09,-161.84 411.09,-158.34 401.09,-154.84 401.09,-161.84"/>
<text xml:space="preserve" text-anchor="middle" x="367.25" y="-160.49" font-family="Arial" font-size="8.00">diagnostic_tree</text>
</g>
<!-- pp -->
<g id="node3" class="node">
<title>pp</title>
<path fill="#85bbf0" stroke="black" d="M512.62,-120.09C512.62,-120.09 437.38,-120.09 437.38,-120.09 431.38,-120.09 425.38,-114.09 425.38,-108.09 425.38,-108.09 425.38,-92.59 425.38,-92.59 425.38,-86.59 431.38,-80.59 437.38,-80.59 437.38,-80.59 512.62,-80.59 512.62,-80.59 518.62,-80.59 524.62,-86.59 524.62,-92.59 524.62,-92.59 524.62,-108.09 524.62,-108.09 524.62,-114.09 518.62,-120.09 512.62,-120.09"/>
<text xml:space="preserve" text-anchor="middle" x="475" y="-107.54" font-family="Arial" font-size="9.00">Parts Predictor</text>
<text xml:space="preserve" text-anchor="middle" x="475" y="-97.04" font-family="Arial" font-size="9.00">parts_predictor.py</text>
<text xml:space="preserve" text-anchor="middle" x="475" y="-86.54" font-family="Arial" font-size="9.00">multi&#45;source ranking</text>
</g>
<!-- rag&#45;&gt;pp -->
<g id="edge3" class="edge">
<title>rag&#45;&gt;pp</title>
<path fill="none" stroke="black" d="M321.83,-139.35C351.75,-131.68 385.83,-122.94 414.14,-115.68"/>
<polygon fill="black" stroke="black" points="414.8,-119.13 423.62,-113.25 413.06,-112.35 414.8,-119.13"/>
<text xml:space="preserve" text-anchor="middle" x="367.25" y="-136.68" font-family="Arial" font-size="8.00">predicted_parts</text>
</g>
<!-- neo -->
<g id="node6" class="node">
<title>neo</title>
<path fill="#438dd5" stroke="black" d="M803.5,-74.07C803.5,-75.87 784.79,-77.34 761.75,-77.34 738.71,-77.34 720,-75.87 720,-74.07 720,-74.07 720,-44.61 720,-44.61 720,-42.81 738.71,-41.34 761.75,-41.34 784.79,-41.34 803.5,-42.81 803.5,-44.61 803.5,-44.61 803.5,-74.07 803.5,-74.07"/>
<path fill="none" stroke="black" d="M803.5,-74.07C803.5,-72.26 784.79,-70.79 761.75,-70.79 738.71,-70.79 720,-72.26 720,-74.07"/>
<text xml:space="preserve" text-anchor="middle" x="761.75" y="-56.04" font-family="Arial" font-size="9.00" fill="white">Neo4j Graph DB</text>
</g>
<!-- rag&#45;&gt;neo -->
<g id="edge5" class="edge">
<title>rag&#45;&gt;neo</title>
<path fill="none" stroke="black" d="M304.63,-138.18C310.46,-135.47 316.19,-132.51 321.5,-129.34 344.37,-115.67 387.98,-61.01 413,-51.84 512.36,-15.41 638.64,-32.37 708.43,-46.7"/>
<polygon fill="black" stroke="black" points="707.56,-50.09 718.06,-48.74 709.01,-43.24 707.56,-50.09"/>
<text xml:space="preserve" text-anchor="middle" x="475" y="-63.74" font-family="Arial" font-size="8.00">Cypher: INDICATES</text>
<text xml:space="preserve" text-anchor="middle" x="475" y="-53.99" font-family="Arial" font-size="8.00">HAS_SYMPTOM · CAN_HAVE</text>
</g>
<!-- de&#45;&gt;neo -->
<g id="edge6" class="edge">
<title>de&#45;&gt;neo</title>
<path fill="none" stroke="black" d="M537.32,-154.18C584.45,-149 650.05,-137.39 702,-111.34 714.71,-104.96 726.83,-95.14 736.72,-85.74"/>
<polygon fill="black" stroke="black" points="739.12,-88.29 743.73,-78.75 734.17,-83.33 739.12,-88.29"/>
<text xml:space="preserve" text-anchor="middle" x="628.5" y="-153.48" font-family="Arial" font-size="8.00">Cypher: NEXT_STEP</text>
</g>
<!-- pp&#45;&gt;neo -->
<g id="edge7" class="edge">
<title>pp&#45;&gt;neo</title>
<path fill="none" stroke="black" d="M524.95,-93.29C576.1,-85.93 656.05,-74.41 708.43,-66.87"/>
<polygon fill="black" stroke="black" points="708.92,-70.34 718.31,-65.45 707.92,-63.41 708.92,-70.34"/>
<text xml:space="preserve" text-anchor="middle" x="628.5" y="-100.12" font-family="Arial" font-size="8.00">Cypher: REQUIRES_PART</text>
<text xml:space="preserve" text-anchor="middle" x="628.5" y="-90.37" font-family="Arial" font-size="8.00">IMPACTS_COMPONENT · USED_PART</text>
</g>
<!-- viz -->
<g id="node4" class="node">
<title>viz</title>
<path fill="#85bbf0" stroke="black" d="M288.88,-120.09C288.88,-120.09 204.62,-120.09 204.62,-120.09 198.62,-120.09 192.62,-114.09 192.62,-108.09 192.62,-108.09 192.62,-92.59 192.62,-92.59 192.62,-86.59 198.62,-80.59 204.62,-80.59 204.62,-80.59 288.88,-80.59 288.88,-80.59 294.88,-80.59 300.88,-86.59 300.88,-92.59 300.88,-92.59 300.88,-108.09 300.88,-108.09 300.88,-114.09 294.88,-120.09 288.88,-120.09"/>
<text xml:space="preserve" text-anchor="middle" x="246.75" y="-107.54" font-family="Arial" font-size="9.00">Graph Visualization</text>
<text xml:space="preserve" text-anchor="middle" x="246.75" y="-97.04" font-family="Arial" font-size="9.00">graph_visualization.py</text>
<text xml:space="preserve" text-anchor="middle" x="246.75" y="-86.54" font-family="Arial" font-size="9.00">PyVis subgraphs</text>
</g>
<!-- viz&#45;&gt;neo -->
<g id="edge8" class="edge">
<title>viz&#45;&gt;neo</title>
<path fill="none" stroke="black" d="M268.26,-80.31C285.81,-64.25 312.45,-42.33 339.5,-29.34 369.79,-14.79 379.63,-15.56 413,-11.59 540.78,3.62 578.77,7.75 702,-29.34 708.32,-31.24 714.78,-33.81 720.98,-36.65"/>
<polygon fill="black" stroke="black" points="719.25,-39.69 729.77,-40.94 722.32,-33.4 719.25,-39.69"/>
<text xml:space="preserve" text-anchor="middle" x="475" y="-13.74" font-family="Arial" font-size="8.00">Cypher: subgraph</text>
</g>
<!-- caller -->
<g id="node5" class="node">
<title>caller</title>
<path fill="#438dd5" stroke="black" d="M85.75,-146.34C85.75,-146.34 12,-146.34 12,-146.34 6,-146.34 0,-140.34 0,-134.34 0,-134.34 0,-122.34 0,-122.34 0,-116.34 6,-110.34 12,-110.34 12,-110.34 85.75,-110.34 85.75,-110.34 91.75,-110.34 97.75,-116.34 97.75,-122.34 97.75,-122.34 97.75,-134.34 97.75,-134.34 97.75,-140.34 91.75,-146.34 85.75,-146.34"/>
<text xml:space="preserve" text-anchor="middle" x="48.88" y="-125.04" font-family="Arial" font-size="9.00" fill="white">Agent Runtime / API</text>
</g>
<!-- caller&#45;&gt;rag -->
<g id="edge1" class="edge">
<title>caller&#45;&gt;rag</title>
<path fill="none" stroke="black" d="M98.04,-135.72C116.95,-138.61 139.23,-142.02 160.67,-145.31"/>
<polygon fill="black" stroke="black" points="159.87,-148.73 170.28,-146.78 160.93,-141.81 159.87,-148.73"/>
<text xml:space="preserve" text-anchor="middle" x="134.88" y="-146.39" font-family="Arial" font-size="8.00">diagnose()</text>
</g>
<!-- caller&#45;&gt;viz -->
<g id="edge4" class="edge">
<title>caller&#45;&gt;viz</title>
<path fill="none" stroke="black" d="M98.04,-121.45C123.02,-117.88 153.88,-113.47 180.92,-109.61"/>
<polygon fill="black" stroke="black" points="181.35,-113.08 190.75,-108.2 180.36,-106.15 181.35,-113.08"/>
<text xml:space="preserve" text-anchor="middle" x="134.88" y="-120.63" font-family="Arial" font-size="8.00">/graph/*</text>
</g>
</g>
</svg>
