<?xml version="1.0" encoding="UTF-8" standalone="no"?>
<!DOCTYPE svg PUBLIC "-//W3C//DTD SVG 1.1//EN"
 "http://www.w3.org/Graphics/SVG/1.1/DTD/svg11.dtd">
<!-- Generated by graphviz version 14.1.5 (20260411.2331)
 -->
<!-- Title: C4_L3_Platform Pages: 1 -->
<svg width="954pt" height="971pt"
 viewBox="0.00 0.00 954.00 971.00" xmlns="http://www.w3.org/2000/svg" xmlns:xlink="http://www.w3.org/1999/xlink">
<g id="graph0" class="graph" transform="scale(1 1) rotate(0) translate(4 966.81)">
<title>C4_L3_Platform</title>
<polygon fill="white" stroke="none" points="-4,4 -4,-966.81 950,-966.81 950,4 -4,4"/>
<text xml:space="preserve" text-anchor="middle" x="473" y="-946.46" font-family="Arial" font-size="13.00">C4 Level 3 — Component Diagram (Platform Overview)</text>
<g id="clust1" class="cluster">
<title>cluster_web</title>
<polygon fill="white" stroke="#438dd5" points="8,-391.81 8,-466.81 326,-466.81 326,-391.81 8,-391.81"/>
<text xml:space="preserve" text-anchor="middle" x="167" y="-450.46" font-family="Arial" font-size="13.00">Streamlit Web Application [Container]</text>
</g>
<g id="clust2" class="cluster">
<title>cluster_api</title>
<polygon fill="white" stroke="#438dd5" points="230,-557.81 230,-632.81 619,-632.81 619,-557.81 230,-557.81"/>
<text xml:space="preserve" text-anchor="middle" x="424.5" y="-616.46" font-family="Arial" font-size="13.00">Diagnostics REST API [Container]</text>
</g>
<g id="clust3" class="cluster">
<title>cluster_agent</title>
<polygon fill="white" stroke="#438dd5" points="254,-236.81 254,-383.81 536,-383.81 536,-236.81 254,-236.81"/>
<text xml:space="preserve" text-anchor="middle" x="395" y="-367.46" font-family="Arial" font-size="13.00">Diagnosis Agent Runtime [Container]</text>
</g>
<g id="clust4" class="cluster">
<title>cluster_intel</title>
<polygon fill="white" stroke="#438dd5" points="99,-8 99,-228.81 339,-228.81 339,-8 99,-8"/>
<text xml:space="preserve" text-anchor="middle" x="219" y="-212.46" font-family="Arial" font-size="13.00">Graph Intelligence Library [Container]</text>
</g>
<g id="clust5" class="cluster">
<title>cluster_integ</title>
<polygon fill="white" stroke="#438dd5" points="366,-391.81 366,-549.81 655,-549.81 655,-391.81 366,-391.81"/>
<text xml:space="preserve" text-anchor="middle" x="510.5" y="-533.46" font-family="Arial" font-size="13.00">Integration Services [Container]</text>
</g>
<g id="clust6" class="cluster">
<title>cluster_etl</title>
<polygon fill="white" stroke="#438dd5" points="738,-640.81 738,-931.81 938,-931.81 938,-640.81 738,-640.81"/>
<text xml:space="preserve" text-anchor="middle" x="838" y="-915.46" font-family="Arial" font-size="13.00">ETL Batch Pipeline [Container]</text>
</g>
<g id="clust7" class="cluster">
<title>cluster_bp</title>
<polygon fill="white" stroke="#438dd5" points="663,-474.81 663,-632.81 863,-632.81 863,-474.81 663,-474.81"/>
<text xml:space="preserve" text-anchor="middle" x="763" y="-616.46" font-family="Arial" font-size="13.00">Blueprint Authoring [Container]</text>
</g>
<!-- w1 -->
<g id="node1" class="node">
<title>w1</title>
<path fill="#85bbf0" stroke="black" d="M58,-435.81C58,-435.81 28,-435.81 28,-435.81 22,-435.81 16,-429.81 16,-423.81 16,-423.81 16,-411.81 16,-411.81 16,-405.81 22,-399.81 28,-399.81 28,-399.81 58,-399.81 58,-399.81 64,-399.81 70,-405.81 70,-411.81 70,-411.81 70,-423.81 70,-423.81 70,-429.81 64,-435.81 58,-435.81"/>
<text xml:space="preserve" text-anchor="middle" x="43" y="-415.09" font-family="Arial" font-size="8.00">Chat Tab</text>
</g>
<!-- g1 -->
<g id="node9" class="node">
<title>g1</title>
<path fill="#85bbf0" stroke="black" d="M319.62,-352.81C319.62,-352.81 274.38,-352.81 274.38,-352.81 268.38,-352.81 262.38,-346.81 262.38,-340.81 262.38,-340.81 262.38,-328.81 262.38,-328.81 262.38,-322.81 268.38,-316.81 274.38,-316.81 274.38,-316.81 319.62,-316.81 319.62,-316.81 325.62,-316.81 331.62,-322.81 331.62,-328.81 331.62,-328.81 331.62,-340.81 331.62,-340.81 331.62,-346.81 325.62,-352.81 319.62,-352.81"/>
<text xml:space="preserve" text-anchor="middle" x="297" y="-332.09" font-family="Arial" font-size="8.00">Detect Product</text>
</g>
<!-- w1&#45;&gt;g1 -->
<g id="edge1" class="edge">
<title>w1&#45;&gt;g1</title>
<path fill="none" stroke="#444444" d="M43,-399.43C43,-375.04 43,-335 43,-335 43,-335 250.44,-335 250.44,-335"/>
<polygon fill="#444444" stroke="#444444" points="250.44,-338.5 260.44,-335 250.44,-331.5 250.44,-338.5"/>
</g>
<!-- w2 -->
<g id="node2" class="node">
<title>w2</title>
<path fill="#85bbf0" stroke="black" d="M131.5,-435.81C131.5,-435.81 100.5,-435.81 100.5,-435.81 94.5,-435.81 88.5,-429.81 88.5,-423.81 88.5,-423.81 88.5,-411.81 88.5,-411.81 88.5,-405.81 94.5,-399.81 100.5,-399.81 100.5,-399.81 131.5,-399.81 131.5,-399.81 137.5,-399.81 143.5,-405.81 143.5,-411.81 143.5,-411.81 143.5,-423.81 143.5,-423.81 143.5,-429.81 137.5,-435.81 131.5,-435.81"/>
<text xml:space="preserve" text-anchor="middle" x="116" y="-415.09" font-family="Arial" font-size="8.00">Claims Tab</text>
</g>
<!-- w3 -->
<g id="node3" class="node">
<title>w3</title>
<path fill="#85bbf0" stroke="black" d="M208.75,-435.81C208.75,-435.81 173.25,-435.81 173.25,-435.81 167.25,-435.81 161.25,-429.81 161.25,-423.81 161.25,-423.81 161.25,-411.81 161.25,-411.81 161.25,-405.81 167.25,-399.81 173.25,-399.81 173.25,-399.81 208.75,-399.81 208.75,-399.81 214.75,-399.81 220.75,-405.81 220.75,-411.81 220.75,-411.81 220.75,-423.81 220.75,-423.81 220.75,-429.81 214.75,-435.81 208.75,-435.81"/>
<text xml:space="preserve" text-anchor="middle" x="191" y="-415.09" font-family="Arial" font-size="8.00">KG Explorer</text>
</g>
<!-- w4 -->
<g id="node4" class="node">
<title>w4</title>
<path fill="#85bbf0" stroke="black" d="M305.5,-435.81C305.5,-435.81 250.5,-435.81 250.5,-435.81 244.5,-435.81 238.5,-429.81 238.5,-423.81 238.5,-423.81 238.5,-411.81 238.5,-411.81 238.5,-405.81 244.5,-399.81 250.5,-399.81 250.5,-399.81 305.5,-399.81 305.5,-399.81 311.5,-399.81 317.5,-405.81 317.5,-411.81 317.5,-411.81 317.5,-423.81 317.5,-423.81 317.5,-429.81 311.5,-435.81 305.5,-435.81"/>
<text xml:space="preserve" text-anchor="middle" x="278" y="-415.09" font-family="Arial" font-size="8.00">Agent Dashboard</text>
</g>
<!-- a1 -->
<g id="node5" class="node">
<title>a1</title>
<path fill="#85bbf0" stroke="black" d="M407.62,-601.81C407.62,-601.81 344.38,-601.81 344.38,-601.81 338.38,-601.81 332.38,-595.81 332.38,-589.81 332.38,-589.81 332.38,-577.81 332.38,-577.81 332.38,-571.81 338.38,-565.81 344.38,-565.81 344.38,-565.81 407.62,-565.81 407.62,-565.81 413.62,-565.81 419.62,-571.81 419.62,-577.81 419.62,-577.81 419.62,-589.81 419.62,-589.81 419.62,-595.81 413.62,-601.81 407.62,-601.81"/>
<text xml:space="preserve" text-anchor="middle" x="376" y="-581.09" font-family="Arial" font-size="8.00">Diagnose Controller</text>
</g>
<!-- a1&#45;&gt;g1 -->
<g id="edge5" class="edge">
<title>a1&#45;&gt;g1</title>
<path fill="none" stroke="#444444" d="M332.07,-584C326.23,-584 322.21,-584 322.21,-584 322.21,-584 322.21,-364.65 322.21,-364.65"/>
<polygon fill="#444444" stroke="#444444" points="325.71,-364.65 322.21,-354.65 318.71,-364.65 325.71,-364.65"/>
</g>
<!-- n1 -->
<g id="node17" class="node">
<title>n1</title>
<path fill="#85bbf0" stroke="black" d="M439.75,-518.81C439.75,-518.81 386.25,-518.81 386.25,-518.81 380.25,-518.81 374.25,-512.81 374.25,-506.81 374.25,-506.81 374.25,-494.81 374.25,-494.81 374.25,-488.81 380.25,-482.81 386.25,-482.81 386.25,-482.81 439.75,-482.81 439.75,-482.81 445.75,-482.81 451.75,-488.81 451.75,-494.81 451.75,-494.81 451.75,-506.81 451.75,-506.81 451.75,-512.81 445.75,-518.81 439.75,-518.81"/>
<text xml:space="preserve" text-anchor="middle" x="413" y="-498.09" font-family="Arial" font-size="8.00">CRM Enrichment</text>
</g>
<!-- a1&#45;&gt;n1 -->
<g id="edge2" class="edge">
<title>a1&#45;&gt;n1</title>
<path fill="none" stroke="#444444" d="M396.94,-565.39C396.94,-565.39 396.94,-530.69 396.94,-530.69"/>
<polygon fill="#444444" stroke="#444444" points="400.44,-530.69 396.94,-520.69 393.44,-530.69 400.44,-530.69"/>
</g>
<!-- a2 -->
<g id="node6" class="node">
<title>a2</title>
<path fill="#85bbf0" stroke="black" d="M502.75,-601.81C502.75,-601.81 449.25,-601.81 449.25,-601.81 443.25,-601.81 437.25,-595.81 437.25,-589.81 437.25,-589.81 437.25,-577.81 437.25,-577.81 437.25,-571.81 443.25,-565.81 449.25,-565.81 449.25,-565.81 502.75,-565.81 502.75,-565.81 508.75,-565.81 514.75,-571.81 514.75,-577.81 514.75,-577.81 514.75,-589.81 514.75,-589.81 514.75,-595.81 508.75,-601.81 502.75,-601.81"/>
<text xml:space="preserve" text-anchor="middle" x="476" y="-581.09" font-family="Arial" font-size="8.00">Claims Controller</text>
</g>
<!-- n3 -->
<g id="node19" class="node">
<title>n3</title>
<path fill="#85bbf0" stroke="black" d="M532.62,-518.81C532.62,-518.81 481.38,-518.81 481.38,-518.81 475.38,-518.81 469.38,-512.81 469.38,-506.81 469.38,-506.81 469.38,-494.81 469.38,-494.81 469.38,-488.81 475.38,-482.81 481.38,-482.81 481.38,-482.81 532.62,-482.81 532.62,-482.81 538.62,-482.81 544.62,-488.81 544.62,-494.81 544.62,-494.81 544.62,-506.81 544.62,-506.81 544.62,-512.81 538.62,-518.81 532.62,-518.81"/>
<text xml:space="preserve" text-anchor="middle" x="507" y="-498.09" font-family="Arial" font-size="8.00">Claims Workflow</text>
</g>
<!-- a2&#45;&gt;n3 -->
<g id="edge10" class="edge">
<title>a2&#45;&gt;n3</title>
<path fill="none" stroke="#444444" d="M492.06,-565.39C492.06,-565.39 492.06,-530.69 492.06,-530.69"/>
<polygon fill="#444444" stroke="#444444" points="495.56,-530.69 492.06,-520.69 488.56,-530.69 495.56,-530.69"/>
</g>
<!-- a3 -->
<g id="node7" class="node">
<title>a3</title>
<path fill="#85bbf0" stroke="black" d="M302,-601.81C302,-601.81 250,-601.81 250,-601.81 244,-601.81 238,-595.81 238,-589.81 238,-589.81 238,-577.81 238,-577.81 238,-571.81 244,-565.81 250,-565.81 250,-565.81 302,-565.81 302,-565.81 308,-565.81 314,-571.81 314,-577.81 314,-577.81 314,-589.81 314,-589.81 314,-595.81 308,-601.81 302,-601.81"/>
<text xml:space="preserve" text-anchor="middle" x="276" y="-581.09" font-family="Arial" font-size="8.00">Graph Controller</text>
</g>
<!-- i4 -->
<g id="node16" class="node">
<title>i4</title>
<path fill="#85bbf0" stroke="black" d="M179.12,-197.81C179.12,-197.81 118.88,-197.81 118.88,-197.81 112.88,-197.81 106.88,-191.81 106.88,-185.81 106.88,-185.81 106.88,-173.81 106.88,-173.81 106.88,-167.81 112.88,-161.81 118.88,-161.81 118.88,-161.81 179.12,-161.81 179.12,-161.81 185.12,-161.81 191.12,-167.81 191.12,-173.81 191.12,-173.81 191.12,-185.81 191.12,-185.81 191.12,-191.81 185.12,-197.81 179.12,-197.81"/>
<text xml:space="preserve" text-anchor="middle" x="149" y="-177.09" font-family="Arial" font-size="8.00">Graph Visualization</text>
</g>
<!-- a3&#45;&gt;i4 -->
<g id="edge11" class="edge">
<title>a3&#45;&gt;i4</title>
<path fill="none" stroke="#444444" d="M237.56,-584C201.27,-584 152.38,-584 152.38,-584 152.38,-584 152.38,-209.74 152.38,-209.74"/>
<polygon fill="#444444" stroke="#444444" points="155.88,-209.74 152.38,-199.74 148.88,-209.74 155.88,-209.74"/>
</g>
<!-- a4 -->
<g id="node8" class="node">
<title>a4</title>
<path fill="#85bbf0" stroke="black" d="M598.75,-601.81C598.75,-601.81 545.25,-601.81 545.25,-601.81 539.25,-601.81 533.25,-595.81 533.25,-589.81 533.25,-589.81 533.25,-577.81 533.25,-577.81 533.25,-571.81 539.25,-565.81 545.25,-565.81 545.25,-565.81 598.75,-565.81 598.75,-565.81 604.75,-565.81 610.75,-571.81 610.75,-577.81 610.75,-577.81 610.75,-589.81 610.75,-589.81 610.75,-595.81 604.75,-601.81 598.75,-601.81"/>
<text xml:space="preserve" text-anchor="middle" x="572" y="-581.09" font-family="Arial" font-size="8.00">Health &amp; Lineage</text>
</g>
<!-- g2 -->
<g id="node10" class="node">
<title>g2</title>
<path fill="#85bbf0" stroke="black" d="M318.88,-280.81C318.88,-280.81 275.12,-280.81 275.12,-280.81 269.12,-280.81 263.12,-274.81 263.12,-268.81 263.12,-268.81 263.12,-256.81 263.12,-256.81 263.12,-250.81 269.12,-244.81 275.12,-244.81 275.12,-244.81 318.88,-244.81 318.88,-244.81 324.88,-244.81 330.88,-250.81 330.88,-256.81 330.88,-256.81 330.88,-268.81 330.88,-268.81 330.88,-274.81 324.88,-280.81 318.88,-280.81"/>
<text xml:space="preserve" text-anchor="middle" x="297" y="-260.09" font-family="Arial" font-size="8.00">Run Diagnosis</text>
</g>
<!-- g1&#45;&gt;g2 -->
<g id="edge6" class="edge">
<title>g1&#45;&gt;g2</title>
<path fill="none" stroke="#444444" d="M297,-316.64C297,-316.64 297,-292.74 297,-292.74"/>
<polygon fill="#444444" stroke="#444444" points="300.5,-292.74 297,-282.74 293.5,-292.74 300.5,-292.74"/>
</g>
<!-- i1 -->
<g id="node13" class="node">
<title>i1</title>
<path fill="#85bbf0" stroke="black" d="M312.88,-197.81C312.88,-197.81 281.12,-197.81 281.12,-197.81 275.12,-197.81 269.12,-191.81 269.12,-185.81 269.12,-185.81 269.12,-173.81 269.12,-173.81 269.12,-167.81 275.12,-161.81 281.12,-161.81 281.12,-161.81 312.88,-161.81 312.88,-161.81 318.88,-161.81 324.88,-167.81 324.88,-173.81 324.88,-173.81 324.88,-185.81 324.88,-185.81 324.88,-191.81 318.88,-197.81 312.88,-197.81"/>
<text xml:space="preserve" text-anchor="middle" x="297" y="-177.09" font-family="Arial" font-size="8.00">GraphRAG</text>
</g>
<!-- g2&#45;&gt;i1 -->
<g id="edge7" class="edge">
<title>g2&#45;&gt;i1</title>
<path fill="none" stroke="#444444" d="M306.29,-244.39C306.29,-244.39 306.29,-209.69 306.29,-209.69"/>
<polygon fill="#444444" stroke="#444444" points="309.79,-209.69 306.29,-199.69 302.79,-209.69 309.79,-209.69"/>
</g>
<!-- g2&#45;&gt;i1 -->
<g id="edge12" class="edge">
<title>g2&#45;&gt;i1</title>
<path fill="none" stroke="#444444" d="M287.71,-244.39C287.71,-244.39 287.71,-209.69 287.71,-209.69"/>
<polygon fill="#444444" stroke="#444444" points="291.21,-209.69 287.71,-199.69 284.21,-209.69 291.21,-209.69"/>
</g>
<!-- g3 -->
<g id="node11" class="node">
<title>g3</title>
<path fill="#85bbf0" stroke="black" d="M418.25,-352.81C418.25,-352.81 361.75,-352.81 361.75,-352.81 355.75,-352.81 349.75,-346.81 349.75,-340.81 349.75,-340.81 349.75,-328.81 349.75,-328.81 349.75,-322.81 355.75,-316.81 361.75,-316.81 361.75,-316.81 418.25,-316.81 418.25,-316.81 424.25,-316.81 430.25,-322.81 430.25,-328.81 430.25,-328.81 430.25,-340.81 430.25,-340.81 430.25,-346.81 424.25,-352.81 418.25,-352.81"/>
<text xml:space="preserve" text-anchor="middle" x="390" y="-332.09" font-family="Arial" font-size="8.00">Format Response</text>
</g>
<!-- g4 -->
<g id="node12" class="node">
<title>g4</title>
<path fill="#85bbf0" stroke="black" d="M515.88,-352.81C515.88,-352.81 460.12,-352.81 460.12,-352.81 454.12,-352.81 448.12,-346.81 448.12,-340.81 448.12,-340.81 448.12,-328.81 448.12,-328.81 448.12,-322.81 454.12,-316.81 460.12,-316.81 460.12,-316.81 515.88,-316.81 515.88,-316.81 521.88,-316.81 527.88,-322.81 527.88,-328.81 527.88,-328.81 527.88,-340.81 527.88,-340.81 527.88,-346.81 521.88,-352.81 515.88,-352.81"/>
<text xml:space="preserve" text-anchor="middle" x="488" y="-332.09" font-family="Arial" font-size="8.00">Handle Escalation</text>
</g>
<!-- i2 -->
<g id="node14" class="node">
<title>i2</title>
<path fill="#85bbf0" stroke="black" d="M318.88,-124.91C318.88,-124.91 263.12,-124.91 263.12,-124.91 257.12,-124.91 251.12,-118.91 251.12,-112.91 251.12,-112.91 251.12,-100.91 251.12,-100.91 251.12,-94.91 257.12,-88.91 263.12,-88.91 263.12,-88.91 318.88,-88.91 318.88,-88.91 324.88,-88.91 330.88,-94.91 330.88,-100.91 330.88,-100.91 330.88,-112.91 330.88,-112.91 330.88,-118.91 324.88,-124.91 318.88,-124.91"/>
<text xml:space="preserve" text-anchor="middle" x="291" y="-104.18" font-family="Arial" font-size="8.00">Diagnostic Engine</text>
</g>
<!-- i1&#45;&gt;i2 -->
<g id="edge8" class="edge">
<title>i1&#45;&gt;i2</title>
<path fill="none" stroke="#444444" d="M297,-161.42C297,-161.42 297,-136.81 297,-136.81"/>
<polygon fill="#444444" stroke="#444444" points="300.5,-136.81 297,-126.81 293.5,-136.81 300.5,-136.81"/>
</g>
<!-- neo4j -->
<g id="node29" class="node">
<title>neo4j</title>
<path fill="#438dd5" stroke="black" d="M583.5,-122.38C583.5,-124.27 571.17,-125.81 556,-125.81 540.83,-125.81 528.5,-124.27 528.5,-122.38 528.5,-122.38 528.5,-91.44 528.5,-91.44 528.5,-89.54 540.83,-88 556,-88 571.17,-88 583.5,-89.54 583.5,-91.44 583.5,-91.44 583.5,-122.38 583.5,-122.38"/>
<path fill="none" stroke="black" d="M583.5,-122.38C583.5,-120.48 571.17,-118.94 556,-118.94 540.83,-118.94 528.5,-120.48 528.5,-122.38"/>
<text xml:space="preserve" text-anchor="middle" x="556" y="-109.06" font-family="Arial" font-size="8.00" fill="white">Neo4j</text>
<text xml:space="preserve" text-anchor="middle" x="556" y="-99.31" font-family="Arial" font-size="8.00" fill="white">[Database]</text>
</g>
<!-- i1&#45;&gt;neo4j -->
<g id="edge13" class="edge">
<title>i1&#45;&gt;neo4j</title>
<path fill="none" stroke="#444444" d="M324.94,-180C387.33,-180 532.53,-180 532.53,-180 532.53,-180 532.53,-136.49 532.53,-136.49"/>
<polygon fill="#444444" stroke="#444444" points="536.03,-136.49 532.53,-126.49 529.03,-136.49 536.03,-136.49"/>
</g>
<!-- i3 -->
<g id="node15" class="node">
<title>i3</title>
<path fill="#85bbf0" stroke="black" d="M313.62,-52C313.62,-52 268.38,-52 268.38,-52 262.38,-52 256.38,-46 256.38,-40 256.38,-40 256.38,-28 256.38,-28 256.38,-22 262.38,-16 268.38,-16 268.38,-16 313.62,-16 313.62,-16 319.62,-16 325.62,-22 325.62,-28 325.62,-28 325.62,-40 325.62,-40 325.62,-46 319.62,-52 313.62,-52"/>
<text xml:space="preserve" text-anchor="middle" x="291" y="-31.27" font-family="Arial" font-size="8.00">Parts Predictor</text>
</g>
<!-- i2&#45;&gt;i3 -->
<g id="edge9" class="edge">
<title>i2&#45;&gt;i3</title>
<path fill="none" stroke="#444444" d="M291,-88.51C291,-88.51 291,-63.9 291,-63.9"/>
<polygon fill="#444444" stroke="#444444" points="294.5,-63.9 291,-53.9 287.5,-63.91 294.5,-63.9"/>
</g>
<!-- n2 -->
<g id="node18" class="node">
<title>n2</title>
<path fill="#85bbf0" stroke="black" d="M442.25,-435.81C442.25,-435.81 385.75,-435.81 385.75,-435.81 379.75,-435.81 373.75,-429.81 373.75,-423.81 373.75,-423.81 373.75,-411.81 373.75,-411.81 373.75,-405.81 379.75,-399.81 385.75,-399.81 385.75,-399.81 442.25,-399.81 442.25,-399.81 448.25,-399.81 454.25,-405.81 454.25,-411.81 454.25,-411.81 454.25,-423.81 454.25,-423.81 454.25,-429.81 448.25,-435.81 442.25,-435.81"/>
<text xml:space="preserve" text-anchor="middle" x="414" y="-415.09" font-family="Arial" font-size="8.00">Warranty Eligibility</text>
</g>
<!-- n1&#45;&gt;n2 -->
<g id="edge3" class="edge">
<title>n1&#45;&gt;n2</title>
<path fill="none" stroke="#444444" d="M413,-482.39C413,-482.39 413,-447.69 413,-447.69"/>
<polygon fill="#444444" stroke="#444444" points="416.5,-447.69 413,-437.69 409.5,-447.69 416.5,-447.69"/>
</g>
<!-- n2&#45;&gt;g1 -->
<g id="edge4" class="edge">
<title>n2&#45;&gt;g1</title>
<path fill="none" stroke="#444444" d="M373.26,-418C350.6,-418 326.92,-418 326.92,-418 326.92,-418 326.92,-364.79 326.92,-364.79"/>
<polygon fill="#444444" stroke="#444444" points="330.42,-364.79 326.92,-354.79 323.42,-364.79 330.42,-364.79"/>
</g>
<!-- n3&#45;&gt;neo4j -->
<g id="edge15" class="edge">
<title>n3&#45;&gt;neo4j</title>
<path fill="none" stroke="#444444" d="M536.56,-482.34C536.56,-482.34 536.56,-136.85 536.56,-136.85"/>
<polygon fill="#444444" stroke="#444444" points="540.06,-136.85 536.56,-126.85 533.06,-136.85 540.06,-136.85"/>
</g>
<!-- files -->
<g id="node30" class="node">
<title>files</title>
<polygon fill="#438dd5" stroke="black" points="737.88,-435.81 734.88,-439.81 713.88,-439.81 710.88,-435.81 664.12,-435.81 664.12,-399.81 737.88,-399.81 737.88,-435.81"/>
<text xml:space="preserve" text-anchor="middle" x="701" y="-419.96" font-family="Arial" font-size="8.00" fill="white">JSON File Store</text>
<text xml:space="preserve" text-anchor="middle" x="701" y="-410.21" font-family="Arial" font-size="8.00" fill="white">[File System]</text>
</g>
<!-- n3&#45;&gt;files -->
<g id="edge14" class="edge">
<title>n3&#45;&gt;files</title>
<path fill="none" stroke="#444444" d="M540.59,-482.43C540.59,-458.04 540.59,-418 540.59,-418 540.59,-418 652.28,-418 652.28,-418"/>
<polygon fill="#444444" stroke="#444444" points="652.28,-421.5 662.28,-418 652.28,-414.5 652.28,-421.5"/>
</g>
<!-- n4 -->
<g id="node20" class="node">
<title>n4</title>
<path fill="#85bbf0" stroke="black" d="M635.12,-518.81C635.12,-518.81 574.88,-518.81 574.88,-518.81 568.88,-518.81 562.88,-512.81 562.88,-506.81 562.88,-506.81 562.88,-494.81 562.88,-494.81 562.88,-488.81 568.88,-482.81 574.88,-482.81 574.88,-482.81 635.12,-482.81 635.12,-482.81 641.12,-482.81 647.12,-488.81 647.12,-494.81 647.12,-494.81 647.12,-506.81 647.12,-506.81 647.12,-512.81 641.12,-518.81 635.12,-518.81"/>
<text xml:space="preserve" text-anchor="middle" x="605" y="-498.09" font-family="Arial" font-size="8.00">Case Management</text>
</g>
<!-- e1 -->
<g id="node21" class="node">
<title>e1</title>
<path fill="#85bbf0" stroke="black" d="M804.5,-900.81C804.5,-900.81 767.5,-900.81 767.5,-900.81 761.5,-900.81 755.5,-894.81 755.5,-888.81 755.5,-888.81 755.5,-876.81 755.5,-876.81 755.5,-870.81 761.5,-864.81 767.5,-864.81 767.5,-864.81 804.5,-864.81 804.5,-864.81 810.5,-864.81 816.5,-870.81 816.5,-876.81 816.5,-876.81 816.5,-888.81 816.5,-888.81 816.5,-894.81 810.5,-900.81 804.5,-900.81"/>
<text xml:space="preserve" text-anchor="middle" x="786" y="-880.09" font-family="Arial" font-size="8.00">Orchestrator</text>
</g>
<!-- e2 -->
<g id="node22" class="node">
<title>e2</title>
<path fill="#85bbf0" stroke="black" d="M810.5,-828.81C810.5,-828.81 761.5,-828.81 761.5,-828.81 755.5,-828.81 749.5,-822.81 749.5,-816.81 749.5,-816.81 749.5,-804.81 749.5,-804.81 749.5,-798.81 755.5,-792.81 761.5,-792.81 761.5,-792.81 810.5,-792.81 810.5,-792.81 816.5,-792.81 822.5,-798.81 822.5,-804.81 822.5,-804.81 822.5,-816.81 822.5,-816.81 822.5,-822.81 816.5,-828.81 810.5,-828.81"/>
<text xml:space="preserve" text-anchor="middle" x="786" y="-808.09" font-family="Arial" font-size="8.00">Knowledge ETL</text>
</g>
<!-- e1&#45;&gt;e2 -->
<g id="edge16" class="edge">
<title>e1&#45;&gt;e2</title>
<path fill="none" stroke="#444444" d="M786,-864.64C786,-864.64 786,-840.74 786,-840.74"/>
<polygon fill="#444444" stroke="#444444" points="789.5,-840.74 786,-830.74 782.5,-840.74 789.5,-840.74"/>
</g>
<!-- e4 -->
<g id="node24" class="node">
<title>e4</title>
<path fill="#85bbf0" stroke="black" d="M802.62,-756.81C802.62,-756.81 769.38,-756.81 769.38,-756.81 763.38,-756.81 757.38,-750.81 757.38,-744.81 757.38,-744.81 757.38,-732.81 757.38,-732.81 757.38,-726.81 763.38,-720.81 769.38,-720.81 769.38,-720.81 802.62,-720.81 802.62,-720.81 808.62,-720.81 814.62,-726.81 814.62,-732.81 814.62,-732.81 814.62,-744.81 814.62,-744.81 814.62,-750.81 808.62,-756.81 802.62,-756.81"/>
<text xml:space="preserve" text-anchor="middle" x="786" y="-736.09" font-family="Arial" font-size="8.00">Connectors</text>
</g>
<!-- e2&#45;&gt;e4 -->
<g id="edge17" class="edge">
<title>e2&#45;&gt;e4</title>
<path fill="none" stroke="#444444" d="M786,-792.64C786,-792.64 786,-768.74 786,-768.74"/>
<polygon fill="#444444" stroke="#444444" points="789.5,-768.74 786,-758.74 782.5,-768.74 789.5,-768.74"/>
</g>
<!-- e3 -->
<g id="node23" class="node">
<title>e3</title>
<path fill="#85bbf0" stroke="black" d="M811.25,-684.81C811.25,-684.81 760.75,-684.81 760.75,-684.81 754.75,-684.81 748.75,-678.81 748.75,-672.81 748.75,-672.81 748.75,-660.81 748.75,-660.81 748.75,-654.81 754.75,-648.81 760.75,-648.81 760.75,-648.81 811.25,-648.81 811.25,-648.81 817.25,-648.81 823.25,-654.81 823.25,-660.81 823.25,-660.81 823.25,-672.81 823.25,-672.81 823.25,-678.81 817.25,-684.81 811.25,-684.81"/>
<text xml:space="preserve" text-anchor="middle" x="786" y="-664.09" font-family="Arial" font-size="8.00">Ontology Builder</text>
</g>
<!-- b3 -->
<g id="node28" class="node">
<title>b3</title>
<path fill="#85bbf0" stroke="black" d="M807.12,-601.81C807.12,-601.81 764.88,-601.81 764.88,-601.81 758.88,-601.81 752.88,-595.81 752.88,-589.81 752.88,-589.81 752.88,-577.81 752.88,-577.81 752.88,-571.81 758.88,-565.81 764.88,-565.81 764.88,-565.81 807.12,-565.81 807.12,-565.81 813.12,-565.81 819.12,-571.81 819.12,-577.81 819.12,-577.81 819.12,-589.81 819.12,-589.81 819.12,-595.81 813.12,-601.81 807.12,-601.81"/>
<text xml:space="preserve" text-anchor="middle" x="786" y="-581.09" font-family="Arial" font-size="8.00">Graph Loader</text>
</g>
<!-- e3&#45;&gt;b3 -->
<g id="edge19" class="edge">
<title>e3&#45;&gt;b3</title>
<path fill="none" stroke="#444444" d="M786,-648.39C786,-648.39 786,-613.69 786,-613.69"/>
<polygon fill="#444444" stroke="#444444" points="789.5,-613.69 786,-603.69 782.5,-613.69 789.5,-613.69"/>
</g>
<!-- e4&#45;&gt;e3 -->
<g id="edge18" class="edge">
<title>e4&#45;&gt;e3</title>
<path fill="none" stroke="#444444" d="M786,-720.64C786,-720.64 786,-696.74 786,-696.74"/>
<polygon fill="#444444" stroke="#444444" points="789.5,-696.74 786,-686.74 782.5,-696.74 789.5,-696.74"/>
</g>
<!-- e5 -->
<g id="node25" class="node">
<title>e5</title>
<path fill="#85bbf0" stroke="black" d="M913.5,-900.81C913.5,-900.81 852.5,-900.81 852.5,-900.81 846.5,-900.81 840.5,-894.81 840.5,-888.81 840.5,-888.81 840.5,-876.81 840.5,-876.81 840.5,-870.81 846.5,-864.81 852.5,-864.81 852.5,-864.81 913.5,-864.81 913.5,-864.81 919.5,-864.81 925.5,-870.81 925.5,-876.81 925.5,-876.81 925.5,-888.81 925.5,-888.81 925.5,-894.81 919.5,-900.81 913.5,-900.81"/>
<text xml:space="preserve" text-anchor="middle" x="883" y="-880.09" font-family="Arial" font-size="8.00">Smoke · Promotion</text>
</g>
<!-- b1 -->
<g id="node26" class="node">
<title>b1</title>
<path fill="#85bbf0" stroke="black" d="M723,-601.81C723,-601.81 683,-601.81 683,-601.81 677,-601.81 671,-595.81 671,-589.81 671,-589.81 671,-577.81 671,-577.81 671,-571.81 677,-565.81 683,-565.81 683,-565.81 723,-565.81 723,-565.81 729,-565.81 735,-571.81 735,-577.81 735,-577.81 735,-589.81 735,-589.81 735,-595.81 729,-601.81 723,-601.81"/>
<text xml:space="preserve" text-anchor="middle" x="703" y="-581.09" font-family="Arial" font-size="8.00">OEM Catalog</text>
</g>
<!-- b2 -->
<g id="node27" class="node">
<title>b2</title>
<path fill="#85bbf0" stroke="black" d="M717,-518.81C717,-518.81 687,-518.81 687,-518.81 681,-518.81 675,-512.81 675,-506.81 675,-506.81 675,-494.81 675,-494.81 675,-488.81 681,-482.81 687,-482.81 687,-482.81 717,-482.81 717,-482.81 723,-482.81 729,-488.81 729,-494.81 729,-494.81 729,-506.81 729,-506.81 729,-512.81 723,-518.81 717,-518.81"/>
<text xml:space="preserve" text-anchor="middle" x="702" y="-498.09" font-family="Arial" font-size="8.00">PIM Sync</text>
</g>
<!-- b1&#45;&gt;b2 -->
<g id="edge21" class="edge">
<title>b1&#45;&gt;b2</title>
<path fill="none" stroke="#444444" d="M702,-565.39C702,-565.39 702,-530.69 702,-530.69"/>
<polygon fill="#444444" stroke="#444444" points="705.5,-530.69 702,-520.69 698.5,-530.69 705.5,-530.69"/>
</g>
<!-- b2&#45;&gt;files -->
<g id="edge22" class="edge">
<title>b2&#45;&gt;files</title>
<path fill="none" stroke="#444444" d="M702,-482.39C702,-482.39 702,-447.69 702,-447.69"/>
<polygon fill="#444444" stroke="#444444" points="705.5,-447.69 702,-437.69 698.5,-447.69 705.5,-447.69"/>
</g>
<!-- b3&#45;&gt;neo4j -->
<g id="edge20" class="edge">
<title>b3&#45;&gt;neo4j</title>
<path fill="none" stroke="#444444" d="M786,-565.41C786,-477.79 786,-107 786,-107 786,-107 595.26,-107 595.26,-107"/>
<polygon fill="#444444" stroke="#444444" points="595.26,-103.5 585.26,-107 595.26,-110.5 595.26,-103.5"/>
</g>
</g>
</svg>
