<?xml version="1.0" encoding="UTF-8" standalone="no"?>
<!DOCTYPE svg PUBLIC "-//W3C//DTD SVG 1.1//EN"
 "http://www.w3.org/Graphics/SVG/1.1/DTD/svg11.dtd">
<!-- Generated by graphviz version 14.1.5 (20260411.2331)
 -->
<!-- Title: C4_L4_Code Pages: 1 -->
<svg width="719pt" height="426pt"
 viewBox="0.00 0.00 719.00 426.00" xmlns="http://www.w3.org/2000/svg" xmlns:xlink="http://www.w3.org/1999/xlink">
<g id="graph0" class="graph" transform="scale(1 1) rotate(0) translate(4 422)">
<title>C4_L4_Code</title>
<polygon fill="white" stroke="none" points="-4,4 -4,-422 714.5,-422 714.5,4 -4,4"/>
<text xml:space="preserve" text-anchor="middle" x="355.25" y="-401.65" font-family="Arial" font-size="13.00">C4 Level 4 — Code Diagram (Key Modules &amp; Dependencies)</text>
<g id="clust1" class="cluster">
<title>cluster_entry</title>
<polygon fill="white" stroke="#1168bd" points="8,-148 8,-331 107.5,-331 107.5,-148 8,-148"/>
<text xml:space="preserve" text-anchor="middle" x="57.75" y="-314.65" font-family="Arial" font-size="13.00">Entry points</text>
</g>
<g id="clust2" class="cluster">
<title>cluster_agent</title>
<polygon fill="white" stroke="#6a1b9a" points="134.25,-312 134.25,-387 376.75,-387 376.75,-312 134.25,-312"/>
<text xml:space="preserve" text-anchor="middle" x="255.5" y="-370.65" font-family="Arial" font-size="13.00">Agent</text>
</g>
<g id="clust3" class="cluster">
<title>cluster_intel</title>
<polygon fill="white" stroke="#e65100" points="429.5,-145 429.5,-274 702.5,-274 702.5,-145 429.5,-145"/>
<text xml:space="preserve" text-anchor="middle" x="566" y="-257.65" font-family="Arial" font-size="13.00">Graph intelligence</text>
</g>
<g id="clust4" class="cluster">
<title>cluster_integ</title>
<polygon fill="white" stroke="#00838f" points="134.25,-175 134.25,-304 409.5,-304 409.5,-175 134.25,-175"/>
<text xml:space="preserve" text-anchor="middle" x="271.88" y="-287.65" font-family="Arial" font-size="13.00">Integrations</text>
</g>
<g id="clust5" class="cluster">
<title>cluster_etl</title>
<polygon fill="white" stroke="#5d4037" points="127.5,-8 127.5,-137 549.25,-137 549.25,-8 127.5,-8"/>
<text xml:space="preserve" text-anchor="middle" x="338.38" y="-120.65" font-family="Arial" font-size="13.00">ETL</text>
</g>
<!-- ui -->
<g id="node1" class="node">
<title>ui</title>
<path fill="#e8f4fc" stroke="black" d="M74,-300C74,-300 41.5,-300 41.5,-300 35.5,-300 29.5,-294 29.5,-288 29.5,-288 29.5,-276 29.5,-276 29.5,-270 35.5,-264 41.5,-264 41.5,-264 74,-264 74,-264 80,-264 86,-270 86,-276 86,-276 86,-288 86,-288 86,-294 80,-300 74,-300"/>
<text xml:space="preserve" text-anchor="middle" x="57.75" y="-279.48" font-family="Courier,monospace" font-size="7.00">ui/app.py</text>
</g>
<!-- dg -->
<g id="node4" class="node">
<title>dg</title>
<path fill="#e8f4fc" stroke="black" d="M227.25,-356C227.25,-356 154.25,-356 154.25,-356 148.25,-356 142.25,-350 142.25,-344 142.25,-344 142.25,-332 142.25,-332 142.25,-326 148.25,-320 154.25,-320 154.25,-320 227.25,-320 227.25,-320 233.25,-320 239.25,-326 239.25,-332 239.25,-332 239.25,-344 239.25,-344 239.25,-350 233.25,-356 227.25,-356"/>
<text xml:space="preserve" text-anchor="middle" x="190.75" y="-335.48" font-family="Courier,monospace" font-size="7.00">diagnosis_graph.py</text>
</g>
<!-- ui&#45;&gt;dg -->
<g id="edge1" class="edge">
<title>ui&#45;&gt;dg</title>
<path fill="none" stroke="#666666" d="M86.21,-293.74C100.69,-299.93 118.96,-307.74 136.11,-315.07"/>
<polygon fill="#666666" stroke="#666666" points="134.63,-318.24 145.2,-318.96 137.38,-311.81 134.63,-318.24"/>
</g>
<!-- api -->
<g id="node2" class="node">
<title>api</title>
<path fill="#e8f4fc" stroke="black" d="M78.5,-246C78.5,-246 37,-246 37,-246 31,-246 25,-240 25,-234 25,-234 25,-222 25,-222 25,-216 31,-210 37,-210 37,-210 78.5,-210 78.5,-210 84.5,-210 90.5,-216 90.5,-222 90.5,-222 90.5,-234 90.5,-234 90.5,-240 84.5,-246 78.5,-246"/>
<text xml:space="preserve" text-anchor="middle" x="57.75" y="-225.47" font-family="Courier,monospace" font-size="7.00">api/main.py</text>
</g>
<!-- api&#45;&gt;dg -->
<g id="edge2" class="edge">
<title>api&#45;&gt;dg</title>
<path fill="none" stroke="#666666" d="M90.79,-241.48C96.93,-245.17 102.88,-249.66 107.5,-255 123.97,-274.05 110.5,-289.43 127.5,-308 129.18,-309.83 130.99,-311.57 132.91,-313.2"/>
<polygon fill="#666666" stroke="#666666" points="130.52,-315.79 140.65,-318.88 134.66,-310.15 130.52,-315.79"/>
</g>
<!-- gv -->
<g id="node9" class="node">
<title>gv</title>
<path fill="#e8f4fc" stroke="black" d="M540.5,-189C540.5,-189 449.5,-189 449.5,-189 443.5,-189 437.5,-183 437.5,-177 437.5,-177 437.5,-165 437.5,-165 437.5,-159 443.5,-153 449.5,-153 449.5,-153 540.5,-153 540.5,-153 546.5,-153 552.5,-159 552.5,-165 552.5,-165 552.5,-177 552.5,-177 552.5,-183 546.5,-189 540.5,-189"/>
<text xml:space="preserve" text-anchor="middle" x="495" y="-168.47" font-family="Courier,monospace" font-size="7.00">graph_visualization.py</text>
</g>
<!-- api&#45;&gt;gv -->
<g id="edge5" class="edge">
<title>api&#45;&gt;gv</title>
<path fill="none" stroke="#666666" d="M90.92,-213.07C96.78,-209.57 102.59,-205.52 107.5,-201 119.29,-190.14 113.37,-178.56 127.5,-171 177.26,-144.37 334.07,-154.65 425.66,-163.47"/>
<polygon fill="#666666" stroke="#666666" points="425.24,-166.95 435.53,-164.44 425.92,-159.98 425.24,-166.95"/>
</g>
<!-- crm -->
<g id="node10" class="node">
<title>crm</title>
<path fill="#e8f4fc" stroke="black" d="M225,-219C225,-219 156.5,-219 156.5,-219 150.5,-219 144.5,-213 144.5,-207 144.5,-207 144.5,-195 144.5,-195 144.5,-189 150.5,-183 156.5,-183 156.5,-183 225,-183 225,-183 231,-183 237,-189 237,-195 237,-195 237,-207 237,-207 237,-213 231,-219 225,-219"/>
<text xml:space="preserve" text-anchor="middle" x="190.75" y="-198.47" font-family="Courier,monospace" font-size="7.00">crm_enrichment.py</text>
</g>
<!-- api&#45;&gt;crm -->
<g id="edge3" class="edge">
<title>api&#45;&gt;crm</title>
<path fill="none" stroke="#666666" d="M90.8,-221.4C103.59,-218.76 118.72,-215.64 133.24,-212.65"/>
<polygon fill="#666666" stroke="#666666" points="133.61,-216.14 142.7,-210.7 132.2,-209.29 133.61,-216.14"/>
</g>
<!-- cw -->
<g id="node12" class="node">
<title>cw</title>
<path fill="#e8f4fc" stroke="black" d="M227.25,-273C227.25,-273 154.25,-273 154.25,-273 148.25,-273 142.25,-267 142.25,-261 142.25,-261 142.25,-249 142.25,-249 142.25,-243 148.25,-237 154.25,-237 154.25,-237 227.25,-237 227.25,-237 233.25,-237 239.25,-243 239.25,-249 239.25,-249 239.25,-261 239.25,-261 239.25,-267 233.25,-273 227.25,-273"/>
<text xml:space="preserve" text-anchor="middle" x="190.75" y="-252.47" font-family="Courier,monospace" font-size="7.00">claims_workflow.py</text>
</g>
<!-- api&#45;&gt;cw -->
<g id="edge4" class="edge">
<title>api&#45;&gt;cw</title>
<path fill="none" stroke="#666666" d="M90.8,-234.6C102.93,-237.11 117.16,-240.04 130.98,-242.89"/>
<polygon fill="#666666" stroke="#666666" points="129.95,-246.25 140.45,-244.84 131.36,-239.39 129.95,-246.25"/>
</g>
<!-- orch -->
<g id="node3" class="node">
<title>orch</title>
<path fill="#e8f4fc" stroke="black" d="M87.5,-192C87.5,-192 28,-192 28,-192 22,-192 16,-186 16,-180 16,-180 16,-168 16,-168 16,-162 22,-156 28,-156 28,-156 87.5,-156 87.5,-156 93.5,-156 99.5,-162 99.5,-168 99.5,-168 99.5,-180 99.5,-180 99.5,-186 93.5,-192 87.5,-192"/>
<text xml:space="preserve" text-anchor="middle" x="57.75" y="-171.47" font-family="Courier,monospace" font-size="7.00">orchestrator.py</text>
</g>
<!-- ke -->
<g id="node13" class="node">
<title>ke</title>
<path fill="#e8f4fc" stroke="black" d="M222.75,-52C222.75,-52 158.75,-52 158.75,-52 152.75,-52 146.75,-46 146.75,-40 146.75,-40 146.75,-28 146.75,-28 146.75,-22 152.75,-16 158.75,-16 158.75,-16 222.75,-16 222.75,-16 228.75,-16 234.75,-22 234.75,-28 234.75,-28 234.75,-40 234.75,-40 234.75,-46 228.75,-52 222.75,-52"/>
<text xml:space="preserve" text-anchor="middle" x="190.75" y="-31.48" font-family="Courier,monospace" font-size="7.00">knowledge_etl.py</text>
</g>
<!-- orch&#45;&gt;ke -->
<g id="edge17" class="edge">
<title>orch&#45;&gt;ke</title>
<path fill="none" stroke="#666666" d="M65.77,-155.57C75.96,-131 97.03,-87.55 127.5,-61 130.3,-58.56 133.35,-56.32 136.55,-54.25"/>
<polygon fill="#666666" stroke="#666666" points="138.22,-57.33 145.18,-49.34 134.76,-51.24 138.22,-57.33"/>
</g>
<!-- tools -->
<g id="node5" class="node">
<title>tools</title>
<path fill="#e8f4fc" stroke="black" d="M356.75,-356C356.75,-356 326.75,-356 326.75,-356 320.75,-356 314.75,-350 314.75,-344 314.75,-344 314.75,-332 314.75,-332 314.75,-326 320.75,-320 326.75,-320 326.75,-320 356.75,-320 356.75,-320 362.75,-320 368.75,-326 368.75,-332 368.75,-332 368.75,-344 368.75,-344 368.75,-350 362.75,-356 356.75,-356"/>
<text xml:space="preserve" text-anchor="middle" x="341.75" y="-335.48" font-family="Courier,monospace" font-size="7.00">tools.py</text>
</g>
<!-- dg&#45;&gt;tools -->
<g id="edge6" class="edge">
<title>dg&#45;&gt;tools</title>
<path fill="none" stroke="#666666" d="M239.71,-338C260.29,-338 283.96,-338 303.22,-338"/>
<polygon fill="#666666" stroke="#666666" points="303.06,-341.5 313.06,-338 303.06,-334.5 303.06,-341.5"/>
</g>
<!-- gr -->
<g id="node6" class="node">
<title>gr</title>
<path fill="#e8f4fc" stroke="black" d="M518,-243C518,-243 472,-243 472,-243 466,-243 460,-237 460,-231 460,-231 460,-219 460,-219 460,-213 466,-207 472,-207 472,-207 518,-207 518,-207 524,-207 530,-213 530,-219 530,-219 530,-231 530,-231 530,-237 524,-243 518,-243"/>
<text xml:space="preserve" text-anchor="middle" x="495" y="-222.47" font-family="Courier,monospace" font-size="7.00">graph_rag.py</text>
</g>
<!-- tools&#45;&gt;gr -->
<g id="edge7" class="edge">
<title>tools&#45;&gt;gr</title>
<path fill="none" stroke="#666666" d="M369.24,-328.62C381.97,-323.49 397.12,-316.46 409.5,-308 432.85,-292.05 455.49,-269.29 471.45,-251.63"/>
<polygon fill="#666666" stroke="#666666" points="473.71,-254.37 477.72,-244.56 468.47,-249.72 473.71,-254.37"/>
</g>
<!-- de -->
<g id="node7" class="node">
<title>de</title>
<path fill="#e8f4fc" stroke="black" d="M682.5,-189C682.5,-189 600.5,-189 600.5,-189 594.5,-189 588.5,-183 588.5,-177 588.5,-177 588.5,-165 588.5,-165 588.5,-159 594.5,-153 600.5,-153 600.5,-153 682.5,-153 682.5,-153 688.5,-153 694.5,-159 694.5,-165 694.5,-165 694.5,-177 694.5,-177 694.5,-183 688.5,-189 682.5,-189"/>
<text xml:space="preserve" text-anchor="middle" x="641.5" y="-168.47" font-family="Courier,monospace" font-size="7.00">diagnostic_engine.py</text>
</g>
<!-- gr&#45;&gt;de -->
<g id="edge8" class="edge">
<title>gr&#45;&gt;de</title>
<path fill="none" stroke="#666666" d="M530.24,-212.2C545.31,-206.57 563.46,-199.79 580.65,-193.37"/>
<polygon fill="#666666" stroke="#666666" points="581.63,-196.74 589.77,-189.96 579.17,-190.18 581.63,-196.74"/>
</g>
<!-- pp -->
<g id="node8" class="node">
<title>pp</title>
<path fill="#e8f4fc" stroke="black" d="M678,-243C678,-243 605,-243 605,-243 599,-243 593,-237 593,-231 593,-231 593,-219 593,-219 593,-213 599,-207 605,-207 605,-207 678,-207 678,-207 684,-207 690,-213 690,-219 690,-219 690,-231 690,-231 690,-237 684,-243 678,-243"/>
<text xml:space="preserve" text-anchor="middle" x="641.5" y="-222.47" font-family="Courier,monospace" font-size="7.00">parts_predictor.py</text>
</g>
<!-- gr&#45;&gt;pp -->
<g id="edge9" class="edge">
<title>gr&#45;&gt;pp</title>
<path fill="none" stroke="#666666" d="M530.24,-225C545.51,-225 563.94,-225 581.33,-225"/>
<polygon fill="#666666" stroke="#666666" points="581.05,-228.5 591.05,-225 581.05,-221.5 581.05,-228.5"/>
</g>
<!-- nc -->
<g id="node18" class="node">
<title>nc</title>
<path fill="#c8e6c9" stroke="black" d="M671.25,-107C671.25,-107 611.75,-107 611.75,-107 605.75,-107 599.75,-101 599.75,-95 599.75,-95 599.75,-83 599.75,-83 599.75,-77 605.75,-71 611.75,-71 611.75,-71 671.25,-71 671.25,-71 677.25,-71 683.25,-77 683.25,-83 683.25,-83 683.25,-95 683.25,-95 683.25,-101 677.25,-107 671.25,-107"/>
<text xml:space="preserve" text-anchor="middle" x="641.5" y="-86.47" font-family="Courier,monospace" font-size="7.00">neo4j_client.py</text>
</g>
<!-- gr&#45;&gt;nc -->
<g id="edge10" class="edge">
<title>gr&#45;&gt;nc</title>
<path fill="none" stroke="#666666" d="M530.47,-212.31C538.24,-208.46 546.08,-203.71 552.5,-198 574.89,-178.09 569.79,-164.4 588.5,-141 595.6,-132.12 604.05,-123.12 612.06,-115.17"/>
<polygon fill="#666666" stroke="#666666" points="614.34,-117.83 619.08,-108.36 609.46,-112.81 614.34,-117.83"/>
</g>
<!-- we -->
<g id="node11" class="node">
<title>we</title>
<path fill="#e8f4fc" stroke="black" d="M389.5,-243C389.5,-243 294,-243 294,-243 288,-243 282,-237 282,-231 282,-231 282,-219 282,-219 282,-213 288,-207 294,-207 294,-207 389.5,-207 389.5,-207 395.5,-207 401.5,-213 401.5,-219 401.5,-219 401.5,-231 401.5,-231 401.5,-237 395.5,-243 389.5,-243"/>
<text xml:space="preserve" text-anchor="middle" x="341.75" y="-222.47" font-family="Courier,monospace" font-size="7.00">warranty_eligibility.py</text>
</g>
<!-- cw&#45;&gt;pp -->
<g id="edge11" class="edge">
<title>cw&#45;&gt;pp</title>
<path fill="none" stroke="#666666" d="M239.66,-258.97C309.1,-263.73 441.54,-269.11 552.5,-252 562.14,-250.51 572.18,-248.2 581.89,-245.54"/>
<polygon fill="#666666" stroke="#666666" points="582.59,-248.98 591.22,-242.84 580.64,-242.26 582.59,-248.98"/>
</g>
<!-- cw&#45;&gt;we -->
<g id="edge12" class="edge">
<title>cw&#45;&gt;we</title>
<path fill="none" stroke="#666666" d="M239.71,-245.34C249.52,-243.37 260.04,-241.25 270.44,-239.16"/>
<polygon fill="#666666" stroke="#666666" points="271.06,-242.6 280.17,-237.2 269.67,-235.74 271.06,-242.6"/>
</g>
<!-- ob -->
<g id="node14" class="node">
<title>ob</title>
<path fill="#e8f4fc" stroke="black" d="M380.5,-52C380.5,-52 303,-52 303,-52 297,-52 291,-46 291,-40 291,-40 291,-28 291,-28 291,-22 297,-16 303,-16 303,-16 380.5,-16 380.5,-16 386.5,-16 392.5,-22 392.5,-28 392.5,-28 392.5,-40 392.5,-40 392.5,-46 386.5,-52 380.5,-52"/>
<text xml:space="preserve" text-anchor="middle" x="341.75" y="-31.48" font-family="Courier,monospace" font-size="7.00">ontology_builder.py</text>
</g>
<!-- ke&#45;&gt;ob -->
<g id="edge13" class="edge">
<title>ke&#45;&gt;ob</title>
<path fill="none" stroke="#666666" d="M235.25,-34C249.07,-34 264.64,-34 279.47,-34"/>
<polygon fill="#666666" stroke="#666666" points="279.12,-37.5 289.12,-34 279.12,-30.5 279.12,-37.5"/>
</g>
<!-- pg -->
<g id="node17" class="node">
<title>pg</title>
<path fill="#e8f4fc" stroke="black" d="M529.25,-79C529.25,-79 460.75,-79 460.75,-79 454.75,-79 448.75,-73 448.75,-67 448.75,-67 448.75,-55 448.75,-55 448.75,-49 454.75,-43 460.75,-43 460.75,-43 529.25,-43 529.25,-43 535.25,-43 541.25,-49 541.25,-55 541.25,-55 541.25,-67 541.25,-67 541.25,-73 535.25,-79 529.25,-79"/>
<text xml:space="preserve" text-anchor="middle" x="495" y="-58.48" font-family="Courier,monospace" font-size="7.00">populate_graph.py</text>
</g>
<!-- ob&#45;&gt;pg -->
<g id="edge14" class="edge">
<title>ob&#45;&gt;pg</title>
<path fill="none" stroke="#666666" d="M392.69,-42.92C407.02,-45.47 422.75,-48.28 437.45,-50.91"/>
<polygon fill="#666666" stroke="#666666" points="436.5,-54.29 446.96,-52.6 437.73,-47.4 436.5,-54.29"/>
</g>
<!-- ps -->
<g id="node15" class="node">
<title>ps</title>
<path fill="#e8f4fc" stroke="black" d="M234,-106C234,-106 147.5,-106 147.5,-106 141.5,-106 135.5,-100 135.5,-94 135.5,-94 135.5,-82 135.5,-82 135.5,-76 141.5,-70 147.5,-70 147.5,-70 234,-70 234,-70 240,-70 246,-76 246,-82 246,-82 246,-94 246,-94 246,-100 240,-106 234,-106"/>
<text xml:space="preserve" text-anchor="middle" x="190.75" y="-85.47" font-family="Courier,monospace" font-size="7.00">pim_blueprint_sync.py</text>
</g>
<!-- oem -->
<g id="node16" class="node">
<title>oem</title>
<path fill="#e8f4fc" stroke="black" d="M387.25,-106C387.25,-106 296.25,-106 296.25,-106 290.25,-106 284.25,-100 284.25,-94 284.25,-94 284.25,-82 284.25,-82 284.25,-76 290.25,-70 296.25,-70 296.25,-70 387.25,-70 387.25,-70 393.25,-70 399.25,-76 399.25,-82 399.25,-82 399.25,-94 399.25,-94 399.25,-100 393.25,-106 387.25,-106"/>
<text xml:space="preserve" text-anchor="middle" x="341.75" y="-85.47" font-family="Courier,monospace" font-size="7.00">oem_product_catalog.py</text>
</g>
<!-- ps&#45;&gt;oem -->
<g id="edge16" class="edge">
<title>ps&#45;&gt;oem</title>
<path fill="none" stroke="#666666" d="M246.39,-88C254.88,-88 263.74,-88 272.48,-88"/>
<polygon fill="#666666" stroke="#666666" points="272.36,-91.5 282.36,-88 272.36,-84.5 272.36,-91.5"/>
</g>
<!-- pg&#45;&gt;nc -->
<g id="edge15" class="edge">
<title>pg&#45;&gt;nc</title>
<path fill="none" stroke="#666666" d="M541.72,-69.86C556.62,-72.75 573.28,-75.97 588.6,-78.94"/>
<polygon fill="#666666" stroke="#666666" points="587.51,-82.3 597.99,-80.76 588.84,-75.42 587.51,-82.3"/>
</g>
</g>
</svg>
