<?xml version="1.0" encoding="UTF-8" standalone="no"?>
<!DOCTYPE svg PUBLIC "-//W3C//DTD SVG 1.1//EN"
 "http://www.w3.org/Graphics/SVG/1.1/DTD/svg11.dtd">
<!-- Generated by graphviz version 14.1.5 (20260411.2331)
 -->
<!-- Title: C4_L3_ETL Pages: 1 -->
<svg width="579pt" height="655pt"
 viewBox="0.00 0.00 579.00 655.00" xmlns="http://www.w3.org/2000/svg" xmlns:xlink="http://www.w3.org/1999/xlink">
<g id="graph0" class="graph" transform="scale(1 1) rotate(0) translate(4 651)">
<title>C4_L3_ETL</title>
<polygon fill="white" stroke="none" points="-4,4 -4,-651 574.62,-651 574.62,4 -4,4"/>
<text xml:space="preserve" text-anchor="middle" x="285.31" y="-630.65" font-family="Arial" font-size="13.00">C4 Level 3 — ETL Batch Pipeline [Container]</text>
<g id="clust1" class="cluster">
<title>cluster_etl</title>
<polygon fill="white" stroke="#438dd5" points="158.62,-249.5 158.62,-552.25 484.62,-552.25 484.62,-249.5 158.62,-249.5"/>
<text xml:space="preserve" text-anchor="middle" x="321.62" y="-535.9" font-family="Arial" font-size="13.00">ETL Batch Pipeline</text>
</g>
<g id="clust2" class="cluster">
<title>cluster_bp</title>
<polygon fill="white" stroke="#5d4037" points="257.62,-73.75 257.62,-230.5 478.62,-230.5 478.62,-73.75 257.62,-73.75"/>
<text xml:space="preserve" text-anchor="middle" x="368.12" y="-214.15" font-family="Arial" font-size="13.00">Blueprint Authoring</text>
</g>
<!-- ops -->
<g id="node1" class="node">
<title>ops</title>
<ellipse fill="#08427b" stroke="black" cx="470.62" cy="-606" rx="39.93" ry="18"/>
<text xml:space="preserve" text-anchor="middle" x="470.62" y="-602.7" font-family="Arial" font-size="9.00" fill="white">Platform Ops</text>
</g>
<!-- orch -->
<g id="node2" class="node">
<title>orch</title>
<path fill="#85bbf0" stroke="black" d="M456.62,-521.25C456.62,-521.25 404.62,-521.25 404.62,-521.25 398.62,-521.25 392.62,-515.25 392.62,-509.25 392.62,-509.25 392.62,-497.25 392.62,-497.25 392.62,-491.25 398.62,-485.25 404.62,-485.25 404.62,-485.25 456.62,-485.25 456.62,-485.25 462.62,-485.25 468.62,-491.25 468.62,-497.25 468.62,-497.25 468.62,-509.25 468.62,-509.25 468.62,-515.25 462.62,-521.25 456.62,-521.25"/>
<text xml:space="preserve" text-anchor="middle" x="430.62" y="-505.2" font-family="Arial" font-size="9.00">Orchestrator</text>
<text xml:space="preserve" text-anchor="middle" x="430.62" y="-494.7" font-family="Arial" font-size="9.00">orchestrator.py</text>
</g>
<!-- ops&#45;&gt;orch -->
<g id="edge4" class="edge">
<title>ops&#45;&gt;orch</title>
<path fill="none" stroke="#2e75b6" d="M449.66,-590.39C449.66,-590.39 449.66,-532.95 449.66,-532.95"/>
<polygon fill="#2e75b6" stroke="#2e75b6" points="453.16,-532.95 449.66,-522.95 446.16,-532.95 453.16,-532.95"/>
<text xml:space="preserve" text-anchor="middle" x="463.75" y="-562.4" font-family="Arial" font-size="8.00">2. run pipeline</text>
</g>
<!-- sync -->
<g id="node10" class="node">
<title>sync</title>
<path fill="#d7ccc8" stroke="black" d="M458.25,-199.5C458.25,-199.5 389,-199.5 389,-199.5 383,-199.5 377,-193.5 377,-187.5 377,-187.5 377,-175.5 377,-175.5 377,-169.5 383,-163.5 389,-163.5 389,-163.5 458.25,-163.5 458.25,-163.5 464.25,-163.5 470.25,-169.5 470.25,-175.5 470.25,-175.5 470.25,-187.5 470.25,-187.5 470.25,-193.5 464.25,-199.5 458.25,-199.5"/>
<text xml:space="preserve" text-anchor="middle" x="423.62" y="-178.2" font-family="Arial" font-size="9.00">PIM Blueprint Sync</text>
</g>
<!-- ops&#45;&gt;sync -->
<g id="edge1" class="edge">
<title>ops&#45;&gt;sync</title>
<path fill="none" stroke="#2e75b6" d="M493.53,-590.91C493.53,-515.38 493.53,-182 493.53,-182 493.53,-182 482.15,-182 482.15,-182"/>
<polygon fill="#2e75b6" stroke="#2e75b6" points="482.15,-178.5 472.15,-182 482.15,-185.5 482.15,-178.5"/>
<text xml:space="preserve" text-anchor="middle" x="540.62" y="-386.65" font-family="Arial" font-size="8.00">1. pre&#45;sync OEM</text>
</g>
<!-- ketl -->
<g id="node3" class="node">
<title>ketl</title>
<path fill="#85bbf0" stroke="black" d="M344.62,-448.25C344.62,-448.25 280.62,-448.25 280.62,-448.25 274.62,-448.25 268.62,-442.25 268.62,-436.25 268.62,-436.25 268.62,-424.25 268.62,-424.25 268.62,-418.25 274.62,-412.25 280.62,-412.25 280.62,-412.25 344.62,-412.25 344.62,-412.25 350.62,-412.25 356.62,-418.25 356.62,-424.25 356.62,-424.25 356.62,-436.25 356.62,-436.25 356.62,-442.25 350.62,-448.25 344.62,-448.25"/>
<text xml:space="preserve" text-anchor="middle" x="312.62" y="-432.2" font-family="Arial" font-size="9.00">Knowledge ETL</text>
<text xml:space="preserve" text-anchor="middle" x="312.62" y="-421.7" font-family="Arial" font-size="9.00">knowledge_etl.py</text>
</g>
<!-- orch&#45;&gt;ketl -->
<g id="edge5" class="edge">
<title>orch&#45;&gt;ketl</title>
<path fill="none" stroke="#2e75b6" d="M392.31,-503C357.86,-503 312.62,-503 312.62,-503 312.62,-503 312.62,-460.12 312.62,-460.12"/>
<polygon fill="#2e75b6" stroke="#2e75b6" points="316.13,-460.12 312.63,-450.12 309.13,-460.12 316.13,-460.12"/>
</g>
<!-- smoke -->
<g id="node6" class="node">
<title>smoke</title>
<path fill="#85bbf0" stroke="black" d="M462.25,-448.25C462.25,-448.25 399,-448.25 399,-448.25 393,-448.25 387,-442.25 387,-436.25 387,-436.25 387,-424.25 387,-424.25 387,-418.25 393,-412.25 399,-412.25 399,-412.25 462.25,-412.25 462.25,-412.25 468.25,-412.25 474.25,-418.25 474.25,-424.25 474.25,-424.25 474.25,-436.25 474.25,-436.25 474.25,-442.25 468.25,-448.25 462.25,-448.25"/>
<text xml:space="preserve" text-anchor="middle" x="430.62" y="-426.95" font-family="Arial" font-size="9.00">Smoke Validation</text>
</g>
<!-- orch&#45;&gt;smoke -->
<g id="edge11" class="edge">
<title>orch&#45;&gt;smoke</title>
<path fill="none" stroke="#2e75b6" d="M430.62,-484.83C430.62,-484.83 430.62,-460.18 430.62,-460.18"/>
<polygon fill="#2e75b6" stroke="#2e75b6" points="434.13,-460.18 430.63,-450.18 427.13,-460.18 434.13,-460.18"/>
</g>
<!-- conn -->
<g id="node4" class="node">
<title>conn</title>
<path fill="#85bbf0" stroke="black" d="M355.12,-366.5C355.12,-366.5 270.12,-366.5 270.12,-366.5 264.12,-366.5 258.12,-360.5 258.12,-354.5 258.12,-354.5 258.12,-342.5 258.12,-342.5 258.12,-336.5 264.12,-330.5 270.12,-330.5 270.12,-330.5 355.12,-330.5 355.12,-330.5 361.12,-330.5 367.12,-336.5 367.12,-342.5 367.12,-342.5 367.12,-354.5 367.12,-354.5 367.12,-360.5 361.12,-366.5 355.12,-366.5"/>
<text xml:space="preserve" text-anchor="middle" x="312.62" y="-350.45" font-family="Arial" font-size="9.00">Connectors</text>
<text xml:space="preserve" text-anchor="middle" x="312.62" y="-339.95" font-family="Arial" font-size="9.00">pim · crm · claims · fsm</text>
</g>
<!-- ketl&#45;&gt;conn -->
<g id="edge6" class="edge">
<title>ketl&#45;&gt;conn</title>
<path fill="none" stroke="#2e75b6" d="M312.62,-412.11C312.62,-412.11 312.62,-378.39 312.62,-378.39"/>
<polygon fill="#2e75b6" stroke="#2e75b6" points="316.13,-378.39 312.63,-368.39 309.13,-378.39 316.13,-378.39"/>
</g>
<!-- lin -->
<g id="node8" class="node">
<title>lin</title>
<path fill="#85bbf0" stroke="black" d="M228.5,-366.5C228.5,-366.5 178.75,-366.5 178.75,-366.5 172.75,-366.5 166.75,-360.5 166.75,-354.5 166.75,-354.5 166.75,-342.5 166.75,-342.5 166.75,-336.5 172.75,-330.5 178.75,-330.5 178.75,-330.5 228.5,-330.5 228.5,-330.5 234.5,-330.5 240.5,-336.5 240.5,-342.5 240.5,-342.5 240.5,-354.5 240.5,-354.5 240.5,-360.5 234.5,-366.5 228.5,-366.5"/>
<text xml:space="preserve" text-anchor="middle" x="203.62" y="-345.2" font-family="Arial" font-size="9.00">Lineage Store</text>
</g>
<!-- ketl&#45;&gt;lin -->
<g id="edge13" class="edge">
<title>ketl&#45;&gt;lin</title>
<path fill="none" stroke="#2e75b6" d="M268.29,-430C238.11,-430 203.62,-430 203.62,-430 203.62,-430 203.62,-378.51 203.62,-378.51"/>
<polygon fill="#2e75b6" stroke="#2e75b6" points="207.13,-378.51 203.63,-368.51 200.13,-378.51 207.13,-378.51"/>
</g>
<!-- ob -->
<g id="node5" class="node">
<title>ob</title>
<path fill="#85bbf0" stroke="black" d="M348.75,-293.5C348.75,-293.5 276.5,-293.5 276.5,-293.5 270.5,-293.5 264.5,-287.5 264.5,-281.5 264.5,-281.5 264.5,-269.5 264.5,-269.5 264.5,-263.5 270.5,-257.5 276.5,-257.5 276.5,-257.5 348.75,-257.5 348.75,-257.5 354.75,-257.5 360.75,-263.5 360.75,-269.5 360.75,-269.5 360.75,-281.5 360.75,-281.5 360.75,-287.5 354.75,-293.5 348.75,-293.5"/>
<text xml:space="preserve" text-anchor="middle" x="312.62" y="-277.45" font-family="Arial" font-size="9.00">Ontology Builder</text>
<text xml:space="preserve" text-anchor="middle" x="312.62" y="-266.95" font-family="Arial" font-size="9.00">ontology_builder.py</text>
</g>
<!-- conn&#45;&gt;ob -->
<g id="edge8" class="edge">
<title>conn&#45;&gt;ob</title>
<path fill="none" stroke="#2e75b6" d="M312.62,-330.08C312.62,-330.08 312.62,-305.43 312.62,-305.43"/>
<polygon fill="#2e75b6" stroke="#2e75b6" points="316.13,-305.43 312.63,-295.43 309.13,-305.43 316.13,-305.43"/>
</g>
<!-- mock -->
<g id="node12" class="node">
<title>mock</title>
<path fill="#438dd5" stroke="black" d="M138.88,-293.5C138.88,-293.5 64.38,-293.5 64.38,-293.5 58.37,-293.5 52.37,-287.5 52.37,-281.5 52.37,-281.5 52.37,-269.5 52.37,-269.5 52.37,-263.5 58.37,-257.5 64.38,-257.5 64.38,-257.5 138.88,-257.5 138.88,-257.5 144.88,-257.5 150.88,-263.5 150.88,-269.5 150.88,-269.5 150.88,-281.5 150.88,-281.5 150.88,-287.5 144.88,-293.5 138.88,-293.5"/>
<text xml:space="preserve" text-anchor="middle" x="101.62" y="-272.2" font-family="Arial" font-size="9.00" fill="white">Mock Enterprise API</text>
</g>
<!-- conn&#45;&gt;mock -->
<g id="edge7" class="edge">
<title>conn&#45;&gt;mock</title>
<path fill="none" stroke="#2e75b6" d="M257.86,-349C249.47,-349 243.54,-349 243.54,-349 243.54,-349 243.54,-276 243.54,-276 243.54,-276 162.77,-276 162.77,-276"/>
<polygon fill="#2e75b6" stroke="#2e75b6" points="162.77,-272.5 152.77,-276 162.77,-279.5 162.77,-272.5"/>
</g>
<!-- load -->
<g id="node11" class="node">
<title>load</title>
<path fill="#d7ccc8" stroke="black" d="M347.25,-199.5C347.25,-199.5 278,-199.5 278,-199.5 272,-199.5 266,-193.5 266,-187.5 266,-187.5 266,-175.5 266,-175.5 266,-169.5 272,-163.5 278,-163.5 278,-163.5 347.25,-163.5 347.25,-163.5 353.25,-163.5 359.25,-169.5 359.25,-175.5 359.25,-175.5 359.25,-187.5 359.25,-187.5 359.25,-193.5 353.25,-199.5 347.25,-199.5"/>
<text xml:space="preserve" text-anchor="middle" x="312.62" y="-183.45" font-family="Arial" font-size="9.00">Graph Loader</text>
<text xml:space="preserve" text-anchor="middle" x="312.62" y="-172.95" font-family="Arial" font-size="9.00">populate_graph.py</text>
</g>
<!-- ob&#45;&gt;load -->
<g id="edge9" class="edge">
<title>ob&#45;&gt;load</title>
<path fill="none" stroke="#2e75b6" d="M312.62,-257.38C312.62,-257.38 312.62,-211.4 312.62,-211.4"/>
<polygon fill="#2e75b6" stroke="#2e75b6" points="316.13,-211.4 312.63,-201.4 309.13,-211.4 316.13,-211.4"/>
</g>
<!-- promo -->
<g id="node7" class="node">
<title>promo</title>
<path fill="#85bbf0" stroke="black" d="M464.5,-366.5C464.5,-366.5 396.75,-366.5 396.75,-366.5 390.75,-366.5 384.75,-360.5 384.75,-354.5 384.75,-354.5 384.75,-342.5 384.75,-342.5 384.75,-336.5 390.75,-330.5 396.75,-330.5 396.75,-330.5 464.5,-330.5 464.5,-330.5 470.5,-330.5 476.5,-336.5 476.5,-342.5 476.5,-342.5 476.5,-354.5 476.5,-354.5 476.5,-360.5 470.5,-366.5 464.5,-366.5"/>
<text xml:space="preserve" text-anchor="middle" x="430.62" y="-345.2" font-family="Arial" font-size="9.00">Staging Promotion</text>
</g>
<!-- smoke&#45;&gt;promo -->
<g id="edge12" class="edge">
<title>smoke&#45;&gt;promo</title>
<path fill="none" stroke="#2e75b6" d="M430.62,-412.11C430.62,-412.11 430.62,-378.39 430.62,-378.39"/>
<polygon fill="#2e75b6" stroke="#2e75b6" points="434.13,-378.39 430.63,-368.39 427.13,-378.39 434.13,-378.39"/>
</g>
<!-- files -->
<g id="node14" class="node">
<title>files</title>
<polygon fill="#438dd5" stroke="black" points="81.25,-36 78.25,-40 57.25,-40 54.25,-36 0,-36 0,0 81.25,0 81.25,-36"/>
<text xml:space="preserve" text-anchor="middle" x="40.62" y="-14.7" font-family="Arial" font-size="9.00" fill="white">JSON File Store</text>
</g>
<!-- lin&#45;&gt;files -->
<g id="edge14" class="edge">
<title>lin&#45;&gt;files</title>
<path fill="none" stroke="#2e75b6" d="M181.19,-330.12C181.19,-261.48 181.19,-24 181.19,-24 181.19,-24 93.17,-24 93.17,-24"/>
<polygon fill="#2e75b6" stroke="#2e75b6" points="93.17,-20.5 83.17,-24 93.17,-27.5 93.17,-20.5"/>
</g>
<!-- oem -->
<g id="node9" class="node">
<title>oem</title>
<path fill="#d7ccc8" stroke="black" d="M380,-117.75C380,-117.75 333.25,-117.75 333.25,-117.75 327.25,-117.75 321.25,-111.75 321.25,-105.75 321.25,-105.75 321.25,-93.75 321.25,-93.75 321.25,-87.75 327.25,-81.75 333.25,-81.75 333.25,-81.75 380,-81.75 380,-81.75 386,-81.75 392,-87.75 392,-93.75 392,-93.75 392,-105.75 392,-105.75 392,-111.75 386,-117.75 380,-117.75"/>
<text xml:space="preserve" text-anchor="middle" x="356.62" y="-96.45" font-family="Arial" font-size="9.00">OEM Catalog</text>
</g>
<!-- oem&#45;&gt;files -->
<g id="edge3" class="edge">
<title>oem&#45;&gt;files</title>
<path fill="none" stroke="#2e75b6" d="M356.62,-81.57C356.62,-55.87 356.62,-12 356.62,-12 356.62,-12 93.13,-12 93.13,-12"/>
<polygon fill="#2e75b6" stroke="#2e75b6" points="93.13,-8.5 83.13,-12 93.13,-15.5 93.13,-8.5"/>
<text xml:space="preserve" text-anchor="middle" x="209.25" y="-56.15" font-family="Arial" font-size="8.00">pim_catalog.json</text>
</g>
<!-- sync&#45;&gt;oem -->
<g id="edge2" class="edge">
<title>sync&#45;&gt;oem</title>
<path fill="none" stroke="#2e75b6" d="M384.5,-163.36C384.5,-163.36 384.5,-129.64 384.5,-129.64"/>
<polygon fill="#2e75b6" stroke="#2e75b6" points="388,-129.64 384.5,-119.64 381,-129.64 388,-129.64"/>
<text xml:space="preserve" text-anchor="middle" x="413.25" y="-137.9" font-family="Arial" font-size="8.00">pim_catalog.json</text>
</g>
<!-- neo -->
<g id="node13" class="node">
<title>neo</title>
<path fill="#438dd5" stroke="black" d="M249.62,-114.48C249.62,-116.28 237.52,-117.75 222.62,-117.75 207.73,-117.75 195.62,-116.28 195.62,-114.48 195.62,-114.48 195.62,-85.02 195.62,-85.02 195.62,-83.22 207.73,-81.75 222.62,-81.75 237.52,-81.75 249.62,-83.22 249.62,-85.02 249.62,-85.02 249.62,-114.48 249.62,-114.48"/>
<path fill="none" stroke="black" d="M249.62,-114.48C249.62,-112.67 237.52,-111.2 222.62,-111.2 207.73,-111.2 195.62,-112.67 195.62,-114.48"/>
<text xml:space="preserve" text-anchor="middle" x="222.62" y="-96.45" font-family="Arial" font-size="9.00" fill="white">Neo4j</text>
</g>
<!-- load&#45;&gt;neo -->
<g id="edge10" class="edge">
<title>load&#45;&gt;neo</title>
<path fill="none" stroke="#2e75b6" d="M265.69,-182C254.93,-182 246.58,-182 246.58,-182 246.58,-182 246.58,-128.31 246.58,-128.31"/>
<polygon fill="#2e75b6" stroke="#2e75b6" points="250.08,-128.31 246.58,-118.31 243.08,-128.31 250.08,-128.31"/>
</g>
</g>
</svg>
