<?xml version="1.0" encoding="UTF-8" standalone="no"?>
<!DOCTYPE svg PUBLIC "-//W3C//DTD SVG 1.1//EN"
 "http://www.w3.org/Graphics/SVG/1.1/DTD/svg11.dtd">
<!-- Generated by graphviz version 14.1.5 (20260411.2331)
 -->
<!-- Title: C4_L3_WebApp Pages: 1 -->
<svg width="613pt" height="214pt"
 viewBox="0.00 0.00 613.00 214.00" xmlns="http://www.w3.org/2000/svg" xmlns:xlink="http://www.w3.org/1999/xlink">
<g id="graph0" class="graph" transform="scale(1 1) rotate(0) translate(4 210)">
<title>C4_L3_WebApp</title>
<polygon fill="white" stroke="none" points="-4,4 -4,-210 609,-210 609,4 -4,4"/>
<text xml:space="preserve" text-anchor="middle" x="302.5" y="-189.65" font-family="Arial" font-size="13.00">C4 Level 3 — Streamlit Web Application [Container]</text>
<g id="clust1" class="cluster">
<title>cluster_web</title>
<polygon fill="white" stroke="#438dd5" points="8,-64 8,-139 597,-139 597,-64 8,-64"/>
<text xml:space="preserve" text-anchor="middle" x="302.5" y="-122.65" font-family="Arial" font-size="13.00">Streamlit Web Application — ui/app.py</text>
</g>
<!-- user -->
<g id="node1" class="node">
<title>user</title>
<ellipse fill="#08427b" stroke="black" cx="258" cy="-165" rx="50.42" ry="18"/>
<text xml:space="preserve" text-anchor="middle" x="258" y="-161.7" font-family="Arial" font-size="9.00" fill="white">Customer / Agent</text>
</g>
<!-- chat -->
<g id="node2" class="node">
<title>chat</title>
<path fill="#85bbf0" stroke="black" d="M109.62,-108C109.62,-108 28.38,-108 28.38,-108 22.37,-108 16.38,-102 16.38,-96 16.38,-96 16.38,-84 16.38,-84 16.38,-78 22.38,-72 28.38,-72 28.38,-72 109.62,-72 109.62,-72 115.62,-72 121.62,-78 121.62,-84 121.62,-84 121.62,-96 121.62,-96 121.62,-102 115.62,-108 109.62,-108"/>
<text xml:space="preserve" text-anchor="middle" x="69" y="-91.95" font-family="Arial" font-size="9.00">Chat Tab</text>
<text xml:space="preserve" text-anchor="middle" x="69" y="-81.45" font-family="Arial" font-size="9.00">run_diagnosis() direct</text>
</g>
<!-- user&#45;&gt;chat -->
<g id="edge1" class="edge">
<title>user&#45;&gt;chat</title>
<path fill="none" stroke="black" d="M209.34,-159.78C184.99,-156.35 155.55,-150.16 131,-139 118.25,-133.21 105.74,-124.32 95.33,-115.76"/>
<polygon fill="black" stroke="black" points="97.78,-113.25 87.92,-109.39 93.22,-118.56 97.78,-113.25"/>
</g>
<!-- claims -->
<g id="node3" class="node">
<title>claims</title>
<path fill="#85bbf0" stroke="black" d="M240,-108C240,-108 152,-108 152,-108 146,-108 140,-102 140,-96 140,-96 140,-84 140,-84 140,-78 146,-72 152,-72 152,-72 240,-72 240,-72 246,-72 252,-78 252,-84 252,-84 252,-96 252,-96 252,-102 246,-108 240,-108"/>
<text xml:space="preserve" text-anchor="middle" x="196" y="-91.95" font-family="Arial" font-size="9.00">Claims Tab</text>
<text xml:space="preserve" text-anchor="middle" x="196" y="-81.45" font-family="Arial" font-size="9.00">submit · approve · deny</text>
</g>
<!-- user&#45;&gt;claims -->
<g id="edge2" class="edge">
<title>user&#45;&gt;claims</title>
<path fill="none" stroke="black" d="M243.93,-147.44C236.25,-138.39 226.57,-126.99 217.92,-116.81"/>
<polygon fill="black" stroke="black" points="220.78,-114.77 211.64,-109.41 215.45,-119.3 220.78,-114.77"/>
</g>
<!-- kg -->
<g id="node4" class="node">
<title>kg</title>
<path fill="#85bbf0" stroke="black" d="M465.75,-108C465.75,-108 400.25,-108 400.25,-108 394.25,-108 388.25,-102 388.25,-96 388.25,-96 388.25,-84 388.25,-84 388.25,-78 394.25,-72 400.25,-72 400.25,-72 465.75,-72 465.75,-72 471.75,-72 477.75,-78 477.75,-84 477.75,-84 477.75,-96 477.75,-96 477.75,-102 471.75,-108 465.75,-108"/>
<text xml:space="preserve" text-anchor="middle" x="433" y="-91.95" font-family="Arial" font-size="9.00">KG Explorer</text>
<text xml:space="preserve" text-anchor="middle" x="433" y="-81.45" font-family="Arial" font-size="9.00">PyVis · /graph API</text>
</g>
<!-- user&#45;&gt;kg -->
<g id="edge3" class="edge">
<title>user&#45;&gt;kg</title>
<path fill="none" stroke="black" d="M306.74,-159.81C329.6,-156.39 356.67,-150.21 379,-139 390.38,-133.29 401.23,-124.55 410.18,-116.09"/>
<polygon fill="black" stroke="black" points="412.44,-118.78 417.06,-109.24 407.5,-113.82 412.44,-118.78"/>
</g>
<!-- dash -->
<g id="node5" class="node">
<title>dash</title>
<path fill="#85bbf0" stroke="black" d="M358.38,-108C358.38,-108 281.62,-108 281.62,-108 275.62,-108 269.62,-102 269.62,-96 269.62,-96 269.62,-84 269.62,-84 269.62,-78 275.62,-72 281.62,-72 281.62,-72 358.38,-72 358.38,-72 364.38,-72 370.38,-78 370.38,-84 370.38,-84 370.38,-96 370.38,-96 370.38,-102 364.38,-108 358.38,-108"/>
<text xml:space="preserve" text-anchor="middle" x="320" y="-91.95" font-family="Arial" font-size="9.00">Agent Dashboard</text>
<text xml:space="preserve" text-anchor="middle" x="320" y="-81.45" font-family="Arial" font-size="9.00">escalations · lineage</text>
</g>
<!-- user&#45;&gt;dash -->
<g id="edge4" class="edge">
<title>user&#45;&gt;dash</title>
<path fill="none" stroke="black" d="M272.07,-147.44C279.75,-138.39 289.43,-126.99 298.08,-116.81"/>
<polygon fill="black" stroke="black" points="300.55,-119.3 304.36,-109.41 295.22,-114.77 300.55,-119.3"/>
</g>
<!-- agent -->
<g id="node7" class="node">
<title>agent</title>
<path fill="#438dd5" stroke="black" d="M164.38,-36C164.38,-36 111.62,-36 111.62,-36 105.62,-36 99.62,-30 99.62,-24 99.62,-24 99.62,-12 99.62,-12 99.62,-6 105.62,0 111.62,0 111.62,0 164.38,0 164.38,0 170.38,0 176.38,-6 176.38,-12 176.38,-12 176.38,-24 176.38,-24 176.38,-30 170.38,-36 164.38,-36"/>
<text xml:space="preserve" text-anchor="middle" x="138" y="-14.7" font-family="Arial" font-size="9.00" fill="white">Agent Runtime</text>
</g>
<!-- chat&#45;&gt;agent -->
<g id="edge5" class="edge">
<title>chat&#45;&gt;agent</title>
<path fill="none" stroke="black" d="M86.06,-71.7C94.24,-63.39 104.21,-53.28 113.22,-44.14"/>
<polygon fill="black" stroke="black" points="115.55,-46.76 120.08,-37.18 110.56,-41.85 115.55,-46.76"/>
</g>
<!-- claims&#45;&gt;agent -->
<g id="edge7" class="edge">
<title>claims&#45;&gt;agent</title>
<path fill="none" stroke="black" d="M181.66,-71.7C174.92,-63.56 166.74,-53.69 159.3,-44.7"/>
<polygon fill="black" stroke="black" points="162.21,-42.74 153.14,-37.27 156.82,-47.2 162.21,-42.74"/>
</g>
<!-- integ -->
<g id="node8" class="node">
<title>integ</title>
<path fill="#438dd5" stroke="black" d="M290.5,-36C290.5,-36 217.5,-36 217.5,-36 211.5,-36 205.5,-30 205.5,-24 205.5,-24 205.5,-12 205.5,-12 205.5,-6 211.5,0 217.5,0 217.5,0 290.5,0 290.5,0 296.5,0 302.5,-6 302.5,-12 302.5,-12 302.5,-24 302.5,-24 302.5,-30 296.5,-36 290.5,-36"/>
<text xml:space="preserve" text-anchor="middle" x="254" y="-14.7" font-family="Arial" font-size="9.00" fill="white">Integration Services</text>
</g>
<!-- claims&#45;&gt;integ -->
<g id="edge6" class="edge">
<title>claims&#45;&gt;integ</title>
<path fill="none" stroke="black" d="M210.34,-71.7C217.08,-63.56 225.26,-53.69 232.7,-44.7"/>
<polygon fill="black" stroke="black" points="235.18,-47.2 238.86,-37.27 229.79,-42.74 235.18,-47.2"/>
</g>
<!-- intel -->
<g id="node9" class="node">
<title>intel</title>
<path fill="#438dd5" stroke="black" d="M466.5,-36C466.5,-36 399.5,-36 399.5,-36 393.5,-36 387.5,-30 387.5,-24 387.5,-24 387.5,-12 387.5,-12 387.5,-6 393.5,0 399.5,0 399.5,0 466.5,0 466.5,0 472.5,0 478.5,-6 478.5,-12 478.5,-12 478.5,-24 478.5,-24 478.5,-30 472.5,-36 466.5,-36"/>
<text xml:space="preserve" text-anchor="middle" x="433" y="-14.7" font-family="Arial" font-size="9.00" fill="white">Graph Intelligence</text>
</g>
<!-- kg&#45;&gt;intel -->
<g id="edge8" class="edge">
<title>kg&#45;&gt;intel</title>
<path fill="none" stroke="black" d="M433,-71.7C433,-64.41 433,-55.73 433,-47.54"/>
<polygon fill="black" stroke="black" points="436.5,-47.62 433,-37.62 429.5,-47.62 436.5,-47.62"/>
</g>
<!-- dash&#45;&gt;integ -->
<g id="edge9" class="edge">
<title>dash&#45;&gt;integ</title>
<path fill="none" stroke="black" d="M303.69,-71.7C295.93,-63.47 286.51,-53.48 277.97,-44.42"/>
<polygon fill="black" stroke="black" points="280.57,-42.08 271.17,-37.21 275.48,-46.88 280.57,-42.08"/>
</g>
<!-- etl_tab -->
<g id="node6" class="node">
<title>etl_tab</title>
<path fill="#85bbf0" stroke="black" d="M576.62,-108C576.62,-108 507.38,-108 507.38,-108 501.38,-108 495.38,-102 495.38,-96 495.38,-96 495.38,-84 495.38,-84 495.38,-78 501.38,-72 507.38,-72 507.38,-72 576.62,-72 576.62,-72 582.62,-72 588.62,-78 588.62,-84 588.62,-84 588.62,-96 588.62,-96 588.62,-102 582.62,-108 576.62,-108"/>
<text xml:space="preserve" text-anchor="middle" x="542" y="-91.95" font-family="Arial" font-size="9.00">ETL Tab</text>
<text xml:space="preserve" text-anchor="middle" x="542" y="-81.45" font-family="Arial" font-size="9.00">orchestrator trigger</text>
</g>
<!-- etl -->
<g id="node10" class="node">
<title>etl</title>
<path fill="#438dd5" stroke="black" d="M563.88,-36C563.88,-36 520.12,-36 520.12,-36 514.12,-36 508.12,-30 508.12,-24 508.12,-24 508.12,-12 508.12,-12 508.12,-6 514.12,0 520.12,0 520.12,0 563.88,0 563.88,0 569.88,0 575.88,-6 575.88,-12 575.88,-12 575.88,-24 575.88,-24 575.88,-30 569.88,-36 563.88,-36"/>
<text xml:space="preserve" text-anchor="middle" x="542" y="-14.7" font-family="Arial" font-size="9.00" fill="white">ETL Pipeline</text>
</g>
<!-- etl_tab&#45;&gt;etl -->
<g id="edge10" class="edge">
<title>etl_tab&#45;&gt;etl</title>
<path fill="none" stroke="black" d="M542,-71.7C542,-64.41 542,-55.73 542,-47.54"/>
<polygon fill="black" stroke="black" points="545.5,-47.62 542,-37.62 538.5,-47.62 545.5,-47.62"/>
</g>
</g>
</svg>
