<?xml version="1.0" encoding="UTF-8" standalone="no"?>
<!DOCTYPE svg PUBLIC "-//W3C//DTD SVG 1.1//EN"
 "http://www.w3.org/Graphics/SVG/1.1/DTD/svg11.dtd">
<!-- Generated by graphviz version 14.1.5 (20260411.2331)
 -->
<!-- Title: SystemContext Pages: 1 -->
<svg width="1655pt" height="863pt"
 viewBox="0.00 0.00 1655.00 863.00" xmlns="http://www.w3.org/2000/svg" xmlns:xlink="http://www.w3.org/1999/xlink">
<g id="graph0" class="graph" transform="scale(1 1) rotate(0) translate(28.8 834.68)">
<title>SystemContext</title>
<polygon fill="white" stroke="none" points="-28.8,28.8 -28.8,-834.68 1625.8,-834.68 1625.8,28.8 -28.8,28.8"/>
<text xml:space="preserve" text-anchor="middle" x="798.5" y="-788.58" font-family="Arial" font-size="14.00">[DEPRECATED — use 21&#45;architecture&#45;L1&#45;system&#45;context.dot] Figure 1: System Context</text>
<g id="clust1" class="cluster">
<title>cluster_users</title>
<polygon fill="white" stroke="#666666" stroke-dasharray="5,2" points="8,-690.1 8,-774.13 530,-774.13 530,-690.1 8,-690.1"/>
<text xml:space="preserve" text-anchor="middle" x="269" y="-756.83" font-family="Arial" font-size="14.00">Users &amp; Channels</text>
</g>
<g id="clust2" class="cluster">
<title>cluster_platform</title>
<polygon fill="white" stroke="#1f4e79" stroke-width="2" points="28,-8 28,-650.6 572,-650.6 572,-8 28,-8"/>
<text xml:space="preserve" text-anchor="middle" x="300" y="-633.3" font-family="Arial" font-size="14.00">Diagnostics Platform (diagnostic&#45;chatbot)</text>
</g>
<g id="clust3" class="cluster">
<title>cluster_enterprise</title>
<polygon fill="white" stroke="#666666" stroke-dasharray="5,2" points="580,-546.32 580,-630.35 1589,-630.35 1589,-546.32 580,-546.32"/>
<text xml:space="preserve" text-anchor="middle" x="1084.5" y="-613.05" font-family="Arial" font-size="14.00">Enterprise Systems (Production Target)</text>
</g>
<!-- Customer -->
<g id="node1" class="node">
<title>Customer</title>
<path fill="#d5e8f0" stroke="black" d="M129.78,-742.38C129.78,-742.38 28.22,-742.38 28.22,-742.38 22.23,-742.38 16.23,-736.38 16.23,-730.38 16.23,-730.38 16.23,-710.1 16.23,-710.1 16.23,-704.1 22.23,-698.1 28.23,-698.1 28.23,-698.1 129.78,-698.1 129.78,-698.1 135.78,-698.1 141.78,-704.1 141.78,-710.1 141.78,-710.1 141.78,-730.38 141.78,-730.38 141.78,-736.38 135.78,-742.38 129.78,-742.38"/>
<text xml:space="preserve" text-anchor="middle" x="79" y="-723.29" font-family="Arial" font-size="11.00">Appliance Owner</text>
<text xml:space="preserve" text-anchor="middle" x="79" y="-709.79" font-family="Arial" font-size="11.00">(Web / Mobile Chat)</text>
</g>
<!-- UI -->
<g id="node4" class="node">
<title>UI</title>
<path fill="#bdd7ee" stroke="black" d="M182.03,-618.85C182.03,-618.85 81.97,-618.85 81.97,-618.85 75.97,-618.85 69.97,-612.85 69.97,-606.85 69.97,-606.85 69.97,-546.07 69.97,-546.07 69.97,-540.07 75.97,-534.07 81.97,-534.07 81.97,-534.07 182.03,-534.07 182.03,-534.07 188.03,-534.07 194.03,-540.07 194.03,-546.07 194.03,-546.07 194.03,-606.85 194.03,-606.85 194.03,-612.85 188.03,-618.85 182.03,-618.85"/>
<text xml:space="preserve" text-anchor="middle" x="132" y="-599.76" font-family="Arial" font-size="11.00">ui/app.py</text>
<text xml:space="preserve" text-anchor="middle" x="132" y="-586.26" font-family="Arial" font-size="11.00">Streamlit</text>
<text xml:space="preserve" text-anchor="middle" x="132" y="-572.76" font-family="Arial" font-size="11.00">• Customer Chatbot</text>
<text xml:space="preserve" text-anchor="middle" x="132" y="-559.26" font-family="Arial" font-size="11.00">• Agent Dashboard</text>
<text xml:space="preserve" text-anchor="middle" x="132" y="-545.76" font-family="Arial" font-size="11.00">• KG Explorer</text>
</g>
<!-- Customer&#45;&gt;UI -->
<g id="edge1" class="edge">
<title>Customer&#45;&gt;UI</title>
<path fill="none" stroke="#444444" d="M87.05,-697.71C93.78,-679.7 103.66,-653.27 112.45,-629.77"/>
<polygon fill="#444444" stroke="#444444" points="115.64,-631.22 115.86,-620.63 109.08,-628.77 115.64,-631.22"/>
<text xml:space="preserve" text-anchor="middle" x="136.38" y="-660.55" font-family="Arial" font-size="9.00">describe problem</text>
</g>
<!-- Agent -->
<g id="node2" class="node">
<title>Agent</title>
<path fill="#d5e8f0" stroke="black" d="M331.27,-742.38C331.27,-742.38 196.72,-742.38 196.72,-742.38 190.72,-742.38 184.72,-736.38 184.72,-730.38 184.72,-730.38 184.72,-710.1 184.72,-710.1 184.72,-704.1 190.72,-698.1 196.72,-698.1 196.72,-698.1 331.27,-698.1 331.27,-698.1 337.27,-698.1 343.27,-704.1 343.27,-710.1 343.27,-710.1 343.27,-730.38 343.27,-730.38 343.27,-736.38 337.27,-742.38 331.27,-742.38"/>
<text xml:space="preserve" text-anchor="middle" x="264" y="-723.29" font-family="Arial" font-size="11.00">Contact Center Agent</text>
<text xml:space="preserve" text-anchor="middle" x="264" y="-709.79" font-family="Arial" font-size="11.00">(Human Agent Dashboard)</text>
</g>
<!-- Agent&#45;&gt;UI -->
<g id="edge6" class="edge">
<title>Agent&#45;&gt;UI</title>
<path fill="none" stroke="#444444" d="M243.95,-697.71C226.66,-679.14 201.02,-651.59 178.64,-627.55"/>
<polygon fill="#444444" stroke="#444444" points="181.28,-625.26 171.91,-620.32 176.16,-630.03 181.28,-625.26"/>
<text xml:space="preserve" text-anchor="middle" x="240.33" y="-660.55" font-family="Arial" font-size="9.00">review cases</text>
</g>
<!-- SME -->
<g id="node3" class="node">
<title>SME</title>
<path fill="#e8e8e8" stroke="black" d="M509.65,-742.38C509.65,-742.38 398.35,-742.38 398.35,-742.38 392.35,-742.38 386.35,-736.38 386.35,-730.38 386.35,-730.38 386.35,-710.1 386.35,-710.1 386.35,-704.1 392.35,-698.1 398.35,-698.1 398.35,-698.1 509.65,-698.1 509.65,-698.1 515.65,-698.1 521.65,-704.1 521.65,-710.1 521.65,-710.1 521.65,-730.38 521.65,-730.38 521.65,-736.38 515.65,-742.38 509.65,-742.38"/>
<text xml:space="preserve" text-anchor="middle" x="454" y="-723.29" font-family="Arial" font-size="11.00">Knowledge Engineer /</text>
<text xml:space="preserve" text-anchor="middle" x="454" y="-709.79" font-family="Arial" font-size="11.00">Service SME</text>
</g>
<!-- ETL -->
<g id="node7" class="node">
<title>ETL</title>
<path fill="#ffe699" stroke="black" d="M551.65,-441.57C551.65,-441.57 356.35,-441.57 356.35,-441.57 350.35,-441.57 344.35,-435.57 344.35,-429.57 344.35,-429.57 344.35,-382.29 344.35,-382.29 344.35,-376.29 350.35,-370.29 356.35,-370.29 356.35,-370.29 551.65,-370.29 551.65,-370.29 557.65,-370.29 563.65,-376.29 563.65,-382.29 563.65,-382.29 563.65,-429.57 563.65,-429.57 563.65,-435.57 557.65,-441.57 551.65,-441.57"/>
<text xml:space="preserve" text-anchor="middle" x="454" y="-422.48" font-family="Arial" font-size="11.00">graph/enterprise_pipeline/</text>
<text xml:space="preserve" text-anchor="middle" x="454" y="-408.98" font-family="Arial" font-size="11.00">ETL Orchestrator</text>
<text xml:space="preserve" text-anchor="middle" x="454" y="-395.48" font-family="Arial" font-size="11.00">• PIM / FSM / Claims / CRM connectors</text>
<text xml:space="preserve" text-anchor="middle" x="454" y="-381.98" font-family="Arial" font-size="11.00">• OntologyBuilder</text>
</g>
<!-- SME&#45;&gt;ETL -->
<g id="edge14" class="edge">
<title>SME&#45;&gt;ETL</title>
<path fill="none" stroke="#444444" d="M454,-697.77C454,-647.62 454,-521.81 454,-453.24"/>
<polygon fill="#444444" stroke="#444444" points="457.5,-453.46 454,-443.46 450.5,-453.46 457.5,-453.46"/>
<text xml:space="preserve" text-anchor="middle" x="488.5" y="-578.41" font-family="Arial" font-size="9.00">govern / approve</text>
<text xml:space="preserve" text-anchor="middle" x="488.5" y="-567.91" font-family="Arial" font-size="9.00">(production)</text>
</g>
<!-- AgentOrch -->
<g id="node5" class="node">
<title>AgentOrch</title>
<path fill="#c6e0b4" stroke="black" d="M289.52,-455.07C289.52,-455.07 156.47,-455.07 156.47,-455.07 150.47,-455.07 144.47,-449.07 144.47,-443.07 144.47,-443.07 144.47,-368.79 144.47,-368.79 144.47,-362.79 150.47,-356.79 156.47,-356.79 156.47,-356.79 289.52,-356.79 289.52,-356.79 295.52,-356.79 301.52,-362.79 301.52,-368.79 301.52,-368.79 301.52,-443.07 301.52,-443.07 301.52,-449.07 295.52,-455.07 289.52,-455.07"/>
<text xml:space="preserve" text-anchor="middle" x="223" y="-435.98" font-family="Arial" font-size="11.00">agents/diagnosis_graph.py</text>
<text xml:space="preserve" text-anchor="middle" x="223" y="-422.48" font-family="Arial" font-size="11.00">LangGraph StateGraph</text>
<text xml:space="preserve" text-anchor="middle" x="223" y="-408.98" font-family="Arial" font-size="11.00">• detect_product</text>
<text xml:space="preserve" text-anchor="middle" x="223" y="-395.48" font-family="Arial" font-size="11.00">• run_diagnosis</text>
<text xml:space="preserve" text-anchor="middle" x="223" y="-381.98" font-family="Arial" font-size="11.00">• format_response</text>
<text xml:space="preserve" text-anchor="middle" x="223" y="-368.48" font-family="Arial" font-size="11.00">• handle_escalation</text>
</g>
<!-- UI&#45;&gt;AgentOrch -->
<g id="edge2" class="edge">
<title>UI&#45;&gt;AgentOrch</title>
<path fill="none" stroke="#444444" d="M154.49,-533.8C165.68,-513.08 179.39,-487.7 191.59,-465.1"/>
<polygon fill="#444444" stroke="#444444" points="194.51,-467.07 196.18,-456.61 188.35,-463.74 194.51,-467.07"/>
</g>
<!-- GraphRAG -->
<g id="node6" class="node">
<title>GraphRAG</title>
<path fill="#c6e0b4" stroke="black" d="M361.02,-277.79C361.02,-277.79 254.97,-277.79 254.97,-277.79 248.97,-277.79 242.97,-271.79 242.97,-265.79 242.97,-265.79 242.97,-205.01 242.97,-205.01 242.97,-199.01 248.97,-193.01 254.97,-193.01 254.97,-193.01 361.02,-193.01 361.02,-193.01 367.02,-193.01 373.02,-199.01 373.02,-205.01 373.02,-205.01 373.02,-265.79 373.02,-265.79 373.02,-271.79 367.02,-277.79 361.02,-277.79"/>
<text xml:space="preserve" text-anchor="middle" x="308" y="-258.7" font-family="Arial" font-size="11.00">graph/graph_rag.py</text>
<text xml:space="preserve" text-anchor="middle" x="308" y="-245.2" font-family="Arial" font-size="11.00">GraphRAG Engine</text>
<text xml:space="preserve" text-anchor="middle" x="308" y="-231.7" font-family="Arial" font-size="11.00">• match_symptoms</text>
<text xml:space="preserve" text-anchor="middle" x="308" y="-218.2" font-family="Arial" font-size="11.00">• rank_failure_modes</text>
<text xml:space="preserve" text-anchor="middle" x="308" y="-204.7" font-family="Arial" font-size="11.00">• escalation rules</text>
</g>
<!-- AgentOrch&#45;&gt;GraphRAG -->
<g id="edge3" class="edge">
<title>AgentOrch&#45;&gt;GraphRAG</title>
<path fill="none" stroke="#444444" d="M253.99,-356.6C259.58,-347.19 265.16,-337.29 270,-327.79 276.39,-315.22 282.59,-301.32 288.07,-288.23"/>
<polygon fill="#444444" stroke="#444444" points="291.15,-289.93 291.71,-279.35 284.68,-287.27 291.15,-289.93"/>
</g>
<!-- EscStore -->
<g id="node10" class="node">
<title>EscStore</title>
<path fill="#e2efda" stroke="black" d="M188.28,-264.29C188.28,-264.29 47.72,-264.29 47.72,-264.29 41.72,-264.29 35.72,-258.29 35.72,-252.29 35.72,-252.29 35.72,-218.51 35.72,-218.51 35.72,-212.51 41.72,-206.51 47.72,-206.51 47.72,-206.51 188.28,-206.51 188.28,-206.51 194.28,-206.51 200.28,-212.51 200.28,-218.51 200.28,-218.51 200.28,-252.29 200.28,-252.29 200.28,-258.29 194.28,-264.29 188.28,-264.29"/>
<text xml:space="preserve" text-anchor="middle" x="118" y="-245.2" font-family="Arial" font-size="11.00">utils/escalation_store.py</text>
<text xml:space="preserve" text-anchor="middle" x="118" y="-231.7" font-family="Arial" font-size="11.00">data/escalations.json</text>
<text xml:space="preserve" text-anchor="middle" x="118" y="-218.2" font-family="Arial" font-size="11.00">(Demo — JSON case store)</text>
</g>
<!-- AgentOrch&#45;&gt;EscStore -->
<g id="edge5" class="edge">
<title>AgentOrch&#45;&gt;EscStore</title>
<path fill="none" stroke="#444444" d="M192.91,-356.64C176.61,-330.48 156.77,-298.62 141.6,-274.28"/>
<polygon fill="#444444" stroke="#444444" points="144.68,-272.6 136.42,-265.96 138.73,-276.3 144.68,-272.6"/>
<text xml:space="preserve" text-anchor="middle" x="210.77" y="-313.99" font-family="Arial" font-size="9.00">if should_escalate</text>
</g>
<!-- Neo4j -->
<g id="node9" class="node">
<title>Neo4j</title>
<path fill="#fce4d6" stroke="black" d="M499.27,-105.1C499.27,-110.02 446.26,-114.01 381,-114.01 315.74,-114.01 262.73,-110.02 262.73,-105.1 262.73,-105.1 262.73,-24.91 262.73,-24.91 262.73,-19.99 315.74,-16 381,-16 446.26,-16 499.27,-19.99 499.27,-24.91 499.27,-24.91 499.27,-105.1 499.27,-105.1"/>
<path fill="none" stroke="black" d="M499.27,-105.1C499.27,-100.18 446.26,-96.19 381,-96.19 315.74,-96.19 262.73,-100.18 262.73,-105.1"/>
<text xml:space="preserve" text-anchor="middle" x="381" y="-81.55" font-family="Arial" font-size="11.00">Neo4j Graph DB</text>
<text xml:space="preserve" text-anchor="middle" x="381" y="-68.05" font-family="Arial" font-size="11.00">bolt://localhost:7687</text>
<text xml:space="preserve" text-anchor="middle" x="381" y="-54.55" font-family="Arial" font-size="11.00">Product · Symptom · FailureMode</text>
<text xml:space="preserve" text-anchor="middle" x="381" y="-41.05" font-family="Arial" font-size="11.00">DiagnosticStep · Part · HistoricalResolution</text>
</g>
<!-- GraphRAG&#45;&gt;Neo4j -->
<g id="edge4" class="edge">
<title>GraphRAG&#45;&gt;Neo4j</title>
<path fill="none" stroke="#444444" d="M326.04,-192.77C334.94,-172.26 345.82,-147.17 355.54,-124.74"/>
<polygon fill="#444444" stroke="#444444" points="358.69,-126.27 359.46,-115.7 352.27,-123.48 358.69,-126.27"/>
<text xml:space="preserve" text-anchor="middle" x="378.19" y="-155.46" font-family="Arial" font-size="9.00">Cypher queries</text>
<text xml:space="preserve" text-anchor="middle" x="378.19" y="-144.96" font-family="Arial" font-size="9.00">(read)</text>
</g>
<!-- Loader -->
<g id="node8" class="node">
<title>Loader</title>
<path fill="#ffe699" stroke="black" d="M552.4,-257.54C552.4,-257.54 427.6,-257.54 427.6,-257.54 421.6,-257.54 415.6,-251.54 415.6,-245.54 415.6,-245.54 415.6,-225.26 415.6,-225.26 415.6,-219.26 421.6,-213.26 427.6,-213.26 427.6,-213.26 552.4,-213.26 552.4,-213.26 558.4,-213.26 564.4,-219.26 564.4,-225.26 564.4,-225.26 564.4,-245.54 564.4,-245.54 564.4,-251.54 558.4,-257.54 552.4,-257.54"/>
<text xml:space="preserve" text-anchor="middle" x="490" y="-238.45" font-family="Arial" font-size="11.00">graph/populate_graph.py</text>
<text xml:space="preserve" text-anchor="middle" x="490" y="-224.95" font-family="Arial" font-size="11.00">Neo4j Loader (MERGE)</text>
</g>
<!-- ETL&#45;&gt;Loader -->
<g id="edge12" class="edge">
<title>ETL&#45;&gt;Loader</title>
<path fill="none" stroke="#444444" d="M461.46,-370.01C467.79,-340.35 476.82,-298.1 483.02,-269.1"/>
<polygon fill="#444444" stroke="#444444" points="486.42,-269.92 485.08,-259.41 479.57,-268.46 486.42,-269.92"/>
<text xml:space="preserve" text-anchor="middle" x="506.03" y="-319.24" font-family="Arial" font-size="9.00">validated JSON</text>
<text xml:space="preserve" text-anchor="middle" x="506.03" y="-308.74" font-family="Arial" font-size="9.00">catalog</text>
</g>
<!-- Loader&#45;&gt;Neo4j -->
<g id="edge13" class="edge">
<title>Loader&#45;&gt;Neo4j</title>
<path fill="none" stroke="#444444" d="M476.2,-213.07C461.71,-190.7 438.32,-154.55 418.34,-123.7"/>
<polygon fill="#444444" stroke="#444444" points="421.46,-122.08 413.09,-115.59 415.59,-125.88 421.46,-122.08"/>
<text xml:space="preserve" text-anchor="middle" x="468.65" y="-150.21" font-family="Arial" font-size="9.00">MERGE load</text>
</g>
<!-- EscStore&#45;&gt;UI -->
<g id="edge7" class="edge">
<title>EscStore&#45;&gt;UI</title>
<path fill="none" stroke="#444444" d="M118.18,-264.72C118.55,-306.43 119.67,-386.8 123,-455.07 124.08,-477.15 125.79,-501.47 127.44,-522.44"/>
<polygon fill="#444444" stroke="#444444" points="123.94,-522.51 128.22,-532.2 130.91,-521.95 123.94,-522.51"/>
</g>
<!-- CCaaS -->
<g id="node15" class="node">
<title>CCaaS</title>
<path fill="#e8e8e8" stroke="black" stroke-dasharray="5,2" d="M1568.65,-598.6C1568.65,-598.6 1445.35,-598.6 1445.35,-598.6 1439.35,-598.6 1433.35,-592.6 1433.35,-586.6 1433.35,-586.6 1433.35,-566.32 1433.35,-566.32 1433.35,-560.32 1439.35,-554.32 1445.35,-554.32 1445.35,-554.32 1568.65,-554.32 1568.65,-554.32 1574.65,-554.32 1580.65,-560.32 1580.65,-566.32 1580.65,-566.32 1580.65,-586.6 1580.65,-586.6 1580.65,-592.6 1574.65,-598.6 1568.65,-598.6"/>
<text xml:space="preserve" text-anchor="middle" x="1507" y="-579.51" font-family="Arial" font-size="11.00">Contact Center / CCaaS</text>
<text xml:space="preserve" text-anchor="middle" x="1507" y="-566.01" font-family="Arial" font-size="11.00">(Production handoff)</text>
</g>
<!-- EscStore&#45;&gt;CCaaS -->
<g id="edge15" class="edge">
<title>EscStore&#45;&gt;CCaaS</title>
<path fill="none" stroke="#444444" stroke-dasharray="5,2" d="M179.95,-264.69C193.26,-269.8 207.41,-274.53 221,-277.79 362.88,-311.8 404.27,-281.7 548,-306.79 939.15,-375.08 1036.89,-403.88 1412,-534.07 1424.88,-538.54 1438.46,-543.99 1451.19,-549.45"/>
<polygon fill="#444444" stroke="#444444" points="1449.71,-552.62 1460.27,-553.41 1452.51,-546.2 1449.71,-552.62"/>
<text xml:space="preserve" text-anchor="middle" x="1200.05" y="-407.88" font-family="Arial" font-size="9.00">production</text>
<text xml:space="preserve" text-anchor="middle" x="1200.05" y="-397.38" font-family="Arial" font-size="9.00">target</text>
</g>
<!-- PIM -->
<g id="node11" class="node">
<title>PIM</title>
<path fill="#ededed" stroke="black" d="M1208.03,-598.6C1208.03,-598.6 1035.97,-598.6 1035.97,-598.6 1029.98,-598.6 1023.98,-592.6 1023.98,-586.6 1023.98,-586.6 1023.98,-566.32 1023.98,-566.32 1023.98,-560.32 1029.98,-554.32 1035.98,-554.32 1035.98,-554.32 1208.03,-554.32 1208.03,-554.32 1214.03,-554.32 1220.03,-560.32 1220.03,-566.32 1220.03,-566.32 1220.03,-586.6 1220.03,-586.6 1220.03,-592.6 1214.03,-598.6 1208.03,-598.6"/>
<text xml:space="preserve" text-anchor="middle" x="1122" y="-579.51" font-family="Arial" font-size="11.00">PIM / PLM</text>
<text xml:space="preserve" text-anchor="middle" x="1122" y="-566.01" font-family="Arial" font-size="11.00">Products · FMEA · Manuals · BOM</text>
</g>
<!-- PIM&#45;&gt;ETL -->
<g id="edge8" class="edge">
<title>PIM&#45;&gt;ETL</title>
<path fill="none" stroke="#444444" d="M1063.49,-553.91C1044.06,-547.12 1022.23,-539.89 1002,-534.07 856.66,-492.27 686.65,-454.52 574.99,-431.22"/>
<polygon fill="#444444" stroke="#444444" points="576.02,-427.85 565.52,-429.24 574.59,-434.71 576.02,-427.85"/>
<text xml:space="preserve" text-anchor="middle" x="896.52" y="-491.27" font-family="Arial" font-size="9.00">extract</text>
</g>
<!-- FSM -->
<g id="node12" class="node">
<title>FSM</title>
<path fill="#ededed" stroke="black" d="M1378.53,-598.6C1378.53,-598.6 1275.47,-598.6 1275.47,-598.6 1269.47,-598.6 1263.47,-592.6 1263.47,-586.6 1263.47,-586.6 1263.47,-566.32 1263.47,-566.32 1263.47,-560.32 1269.47,-554.32 1275.47,-554.32 1275.47,-554.32 1378.53,-554.32 1378.53,-554.32 1384.53,-554.32 1390.53,-560.32 1390.53,-566.32 1390.53,-566.32 1390.53,-586.6 1390.53,-586.6 1390.53,-592.6 1384.53,-598.6 1378.53,-598.6"/>
<text xml:space="preserve" text-anchor="middle" x="1327" y="-579.51" font-family="Arial" font-size="11.00">FSM</text>
<text xml:space="preserve" text-anchor="middle" x="1327" y="-566.01" font-family="Arial" font-size="11.00">Closed Work Orders</text>
</g>
<!-- FSM&#45;&gt;ETL -->
<g id="edge9" class="edge">
<title>FSM&#45;&gt;ETL</title>
<path fill="none" stroke="#444444" d="M1289.06,-554.03C1274.7,-546.72 1257.96,-539.12 1242,-534.07 1012.67,-461.48 732.04,-428.88 575.12,-415.41"/>
<polygon fill="#444444" stroke="#444444" points="575.81,-411.95 565.55,-414.6 575.22,-418.93 575.81,-411.95"/>
</g>
<!-- Claims -->
<g id="node13" class="node">
<title>Claims</title>
<path fill="#ededed" stroke="black" d="M968.9,-598.6C968.9,-598.6 841.1,-598.6 841.1,-598.6 835.1,-598.6 829.1,-592.6 829.1,-586.6 829.1,-586.6 829.1,-566.32 829.1,-566.32 829.1,-560.32 835.1,-554.32 841.1,-554.32 841.1,-554.32 968.9,-554.32 968.9,-554.32 974.9,-554.32 980.9,-560.32 980.9,-566.32 980.9,-566.32 980.9,-586.6 980.9,-586.6 980.9,-592.6 974.9,-598.6 968.9,-598.6"/>
<text xml:space="preserve" text-anchor="middle" x="905" y="-579.51" font-family="Arial" font-size="11.00">Claims Management</text>
<text xml:space="preserve" text-anchor="middle" x="905" y="-566.01" font-family="Arial" font-size="11.00">Warranty · Closed Claims</text>
</g>
<!-- Claims&#45;&gt;ETL -->
<g id="edge10" class="edge">
<title>Claims&#45;&gt;ETL</title>
<path fill="none" stroke="#444444" d="M861.06,-553.95C820.17,-534.38 757.26,-505.37 701,-484.07 660.49,-468.73 615.47,-454.01 575.07,-441.61"/>
<polygon fill="#444444" stroke="#444444" points="576.11,-438.27 565.52,-438.7 574.07,-444.96 576.11,-438.27"/>
</g>
<!-- CRM -->
<g id="node14" class="node">
<title>CRM</title>
<path fill="#ededed" stroke="black" d="M773.77,-598.6C773.77,-598.6 600.23,-598.6 600.23,-598.6 594.23,-598.6 588.23,-592.6 588.23,-586.6 588.23,-586.6 588.23,-566.32 588.23,-566.32 588.23,-560.32 594.23,-554.32 600.23,-554.32 600.23,-554.32 773.77,-554.32 773.77,-554.32 779.77,-554.32 785.77,-560.32 785.77,-566.32 785.77,-566.32 785.77,-586.6 785.77,-586.6 785.77,-592.6 779.77,-598.6 773.77,-598.6"/>
<text xml:space="preserve" text-anchor="middle" x="687" y="-579.51" font-family="Arial" font-size="11.00">CRM</text>
<text xml:space="preserve" text-anchor="middle" x="687" y="-566.01" font-family="Arial" font-size="11.00">Customer Assets · Warranty Status</text>
</g>
<!-- CRM&#45;&gt;AgentOrch -->
<g id="edge16" class="edge">
<title>CRM&#45;&gt;AgentOrch</title>
<path fill="none" stroke="#444444" stroke-dasharray="5,2" d="M634.7,-553.9C617.97,-547.25 599.3,-540.11 582,-534.07 468.37,-494.42 435.1,-498.85 323,-455.07 319.44,-453.68 315.83,-452.21 312.19,-450.69"/>
<polygon fill="#444444" stroke="#444444" points="313.89,-447.61 303.32,-446.88 311.13,-454.05 313.89,-447.61"/>
<text xml:space="preserve" text-anchor="middle" x="517.97" y="-496.52" font-family="Arial" font-size="9.00">runtime asset</text>
<text xml:space="preserve" text-anchor="middle" x="517.97" y="-486.02" font-family="Arial" font-size="9.00">bind (production)</text>
</g>
<!-- CRM&#45;&gt;ETL -->
<g id="edge11" class="edge">
<title>CRM&#45;&gt;ETL</title>
<path fill="none" stroke="#444444" stroke-dasharray="5,2" d="M677.14,-554.09C666.86,-533.78 649.02,-503.53 626,-484.07 608.71,-469.45 588.21,-457.1 567.49,-446.86"/>
<polygon fill="#444444" stroke="#444444" points="569.21,-443.8 558.68,-442.65 566.19,-450.12 569.21,-443.8"/>
<text xml:space="preserve" text-anchor="middle" x="667.63" y="-491.27" font-family="Arial" font-size="9.00">fixtures/API</text>
</g>
</g>
</svg>
