<?xml version="1.0" encoding="UTF-8" standalone="no"?>
<!DOCTYPE svg PUBLIC "-//W3C//DTD SVG 1.1//EN"
 "http://www.w3.org/Graphics/SVG/1.1/DTD/svg11.dtd">
<!-- Generated by graphviz version 14.1.5 (20260411.2331)
 -->
<!-- Title: ModuleBlock Pages: 1 -->
<svg width="1046pt" height="562pt"
 viewBox="0.00 0.00 1046.00 562.00" xmlns="http://www.w3.org/2000/svg" xmlns:xlink="http://www.w3.org/1999/xlink">
<g id="graph0" class="graph" transform="scale(1 1) rotate(0) translate(4 557.75)">
<title>ModuleBlock</title>
<polygon fill="white" stroke="none" points="-4,4 -4,-557.75 1041.75,-557.75 1041.75,4 -4,4"/>
<text xml:space="preserve" text-anchor="middle" x="518.88" y="-536.45" font-family="Arial" font-size="14.00">[DEPRECATED — use 24&#45;architecture&#45;L4&#45;code.dot] Figure 2: Module Block Diagram</text>
<g id="clust1" class="cluster">
<title>cluster_presentation</title>
<polygon fill="white" stroke="#2e75b6" points="0,-405 0,-481 129.25,-481 129.25,-405 0,-405"/>
<text xml:space="preserve" text-anchor="middle" x="64.62" y="-463.7" font-family="Arial" font-size="14.00">Presentation Layer</text>
</g>
<g id="clust2" class="cluster">
<title>cluster_orchestration</title>
<polygon fill="white" stroke="#548235" points="149.25,-403 149.25,-487 435,-487 435,-403 149.25,-403"/>
<text xml:space="preserve" text-anchor="middle" x="292.12" y="-469.7" font-family="Arial" font-size="14.00">Orchestration Layer</text>
</g>
<g id="clust3" class="cluster">
<title>cluster_reasoning</title>
<polygon fill="white" stroke="#548235" points="470.75,-446 470.75,-522 817.62,-522 817.62,-446 470.75,-446"/>
<text xml:space="preserve" text-anchor="middle" x="644.19" y="-504.7" font-family="Arial" font-size="14.00">GraphRAG Layer</text>
</g>
<g id="clust4" class="cluster">
<title>cluster_knowledge</title>
<polygon fill="white" stroke="#bf8f00" points="455,-8 455,-246 1029.75,-246 1029.75,-8 455,-8"/>
<text xml:space="preserve" text-anchor="middle" x="742.38" y="-228.7" font-family="Arial" font-size="14.00">Knowledge Layer</text>
</g>
<g id="clust5" class="cluster">
<title>cluster_infra</title>
<polygon fill="white" stroke="#843c0c" points="686.62,-254 686.62,-438 1009.5,-438 1009.5,-254 686.62,-254"/>
<text xml:space="preserve" text-anchor="middle" x="848.06" y="-420.7" font-family="Arial" font-size="14.00">Infrastructure</text>
</g>
<!-- UI -->
<g id="node1" class="node">
<title>UI</title>
<path fill="#bdd7ee" stroke="black" d="M86.38,-449C86.38,-449 41.88,-449 41.88,-449 35.88,-449 29.88,-443 29.88,-437 29.88,-437 29.88,-425 29.88,-425 29.88,-419 35.88,-413 41.88,-413 41.88,-413 86.38,-413 86.38,-413 92.38,-413 98.38,-419 98.38,-425 98.38,-425 98.38,-437 98.38,-437 98.38,-443 92.38,-449 86.38,-449"/>
<text xml:space="preserve" text-anchor="middle" x="64.12" y="-433.5" font-family="Arial" font-size="10.00">ui/app.py</text>
<text xml:space="preserve" text-anchor="middle" x="64.12" y="-421.5" font-family="Arial" font-size="10.00">Streamlit UI</text>
</g>
<!-- DG -->
<g id="node2" class="node">
<title>DG</title>
<path fill="#c6e0b4" stroke="black" d="M277.5,-449C277.5,-449 169.25,-449 169.25,-449 163.25,-449 157.25,-443 157.25,-437 157.25,-437 157.25,-425 157.25,-425 157.25,-419 163.25,-413 169.25,-413 169.25,-413 277.5,-413 277.5,-413 283.5,-413 289.5,-419 289.5,-425 289.5,-425 289.5,-437 289.5,-437 289.5,-443 283.5,-449 277.5,-449"/>
<text xml:space="preserve" text-anchor="middle" x="223.38" y="-433.5" font-family="Arial" font-size="10.00">agents/diagnosis_graph.py</text>
<text xml:space="preserve" text-anchor="middle" x="223.38" y="-421.5" font-family="Arial" font-size="10.00">LangGraph compile()</text>
</g>
<!-- UI&#45;&gt;DG -->
<g id="edge1" class="edge">
<title>UI&#45;&gt;DG</title>
<path fill="none" stroke="black" d="M98.86,-431C112.64,-431 129.2,-431 145.64,-431"/>
<polygon fill="black" stroke="black" points="145.46,-434.5 155.46,-431 145.46,-427.5 145.46,-434.5"/>
</g>
<!-- Tools -->
<g id="node3" class="node">
<title>Tools</title>
<path fill="#c6e0b4" stroke="black" d="M415,-455C415,-455 337.5,-455 337.5,-455 331.5,-455 325.5,-449 325.5,-443 325.5,-443 325.5,-423 325.5,-423 325.5,-417 331.5,-411 337.5,-411 337.5,-411 415,-411 415,-411 421,-411 427,-417 427,-423 427,-423 427,-443 427,-443 427,-449 421,-455 415,-455"/>
<text xml:space="preserve" text-anchor="middle" x="376.25" y="-441.5" font-family="Arial" font-size="10.00">agents/tools.py</text>
<text xml:space="preserve" text-anchor="middle" x="376.25" y="-429.5" font-family="Arial" font-size="10.00">tool_detect_product</text>
<text xml:space="preserve" text-anchor="middle" x="376.25" y="-417.5" font-family="Arial" font-size="10.00">tool_diagnose</text>
</g>
<!-- DG&#45;&gt;Tools -->
<g id="edge2" class="edge">
<title>DG&#45;&gt;Tools</title>
<path fill="none" stroke="black" d="M289.67,-431.87C297.7,-431.97 305.88,-432.08 313.85,-432.19"/>
<polygon fill="black" stroke="black" points="313.76,-435.69 323.81,-432.32 313.85,-428.69 313.76,-435.69"/>
</g>
<!-- Esc -->
<g id="node14" class="node">
<title>Esc</title>
<path fill="#e7e6e6" stroke="black" d="M804.38,-298C804.38,-298 706.62,-298 706.62,-298 700.62,-298 694.62,-292 694.62,-286 694.62,-286 694.62,-274 694.62,-274 694.62,-268 700.62,-262 706.62,-262 706.62,-262 804.38,-262 804.38,-262 810.38,-262 816.38,-268 816.38,-274 816.38,-274 816.38,-286 816.38,-286 816.38,-292 810.38,-298 804.38,-298"/>
<text xml:space="preserve" text-anchor="middle" x="755.5" y="-276.5" font-family="Arial" font-size="10.00">utils/escalation_store.py</text>
</g>
<!-- DG&#45;&gt;Esc -->
<g id="edge14" class="edge">
<title>DG&#45;&gt;Esc</title>
<path fill="none" stroke="black" d="M288.56,-412.57C300.82,-409.06 313.56,-405.41 325.5,-402 451.57,-366 598.56,-324.25 683.63,-300.1"/>
<polygon fill="black" stroke="black" points="684.33,-303.54 693,-297.44 682.42,-296.81 684.33,-303.54"/>
</g>
<!-- GR -->
<g id="node4" class="node">
<title>GR</title>
<path fill="#a9d18e" stroke="black" d="M608.75,-490C608.75,-490 490.75,-490 490.75,-490 484.75,-490 478.75,-484 478.75,-478 478.75,-478 478.75,-466 478.75,-466 478.75,-460 484.75,-454 490.75,-454 490.75,-454 608.75,-454 608.75,-454 614.75,-454 620.75,-460 620.75,-466 620.75,-466 620.75,-478 620.75,-478 620.75,-484 614.75,-490 608.75,-490"/>
<text xml:space="preserve" text-anchor="middle" x="549.75" y="-474.5" font-family="Arial" font-size="10.00">graph/graph_rag.py</text>
<text xml:space="preserve" text-anchor="middle" x="549.75" y="-462.5" font-family="Arial" font-size="10.00">diagnose() · DiagnosisResult</text>
</g>
<!-- Tools&#45;&gt;GR -->
<g id="edge3" class="edge">
<title>Tools&#45;&gt;GR</title>
<path fill="none" stroke="black" d="M427.32,-444.39C439.95,-447.26 453.85,-450.42 467.59,-453.54"/>
<polygon fill="black" stroke="black" points="466.54,-456.9 477.07,-455.7 468.1,-450.07 466.54,-456.9"/>
</g>
<!-- NC -->
<g id="node5" class="node">
<title>NC</title>
<path fill="#a9d18e" stroke="black" d="M797.62,-490C797.62,-490 713.38,-490 713.38,-490 707.38,-490 701.38,-484 701.38,-478 701.38,-478 701.38,-466 701.38,-466 701.38,-460 707.38,-454 713.38,-454 713.38,-454 797.62,-454 797.62,-454 803.62,-454 809.62,-460 809.62,-466 809.62,-466 809.62,-478 809.62,-478 809.62,-484 803.62,-490 797.62,-490"/>
<text xml:space="preserve" text-anchor="middle" x="755.5" y="-474.5" font-family="Arial" font-size="10.00">graph/neo4j_client.py</text>
<text xml:space="preserve" text-anchor="middle" x="755.5" y="-462.5" font-family="Arial" font-size="10.00">get_driver()</text>
</g>
<!-- GR&#45;&gt;NC -->
<g id="edge4" class="edge">
<title>GR&#45;&gt;NC</title>
<path fill="none" stroke="black" d="M621.15,-472C643.38,-472 667.83,-472 689.66,-472"/>
<polygon fill="black" stroke="black" points="689.63,-475.5 699.63,-472 689.63,-468.5 689.63,-475.5"/>
</g>
<!-- Config -->
<g id="node13" class="node">
<title>Config</title>
<path fill="#e7e6e6" stroke="black" d="M790.12,-406C790.12,-406 720.88,-406 720.88,-406 714.88,-406 708.88,-400 708.88,-394 708.88,-394 708.88,-382 708.88,-382 708.88,-376 714.88,-370 720.88,-370 720.88,-370 790.12,-370 790.12,-370 796.12,-370 802.12,-376 802.12,-382 802.12,-382 802.12,-394 802.12,-394 802.12,-400 796.12,-406 790.12,-406"/>
<text xml:space="preserve" text-anchor="middle" x="755.5" y="-384.5" font-family="Arial" font-size="10.00">config/settings.py</text>
</g>
<!-- GR&#45;&gt;Config -->
<g id="edge15" class="edge">
<title>GR&#45;&gt;Config</title>
<path fill="none" stroke="black" d="M595.46,-453.57C626.12,-440.93 666.98,-424.08 699.61,-410.63"/>
<polygon fill="black" stroke="black" points="700.58,-414.02 708.49,-406.97 697.91,-407.54 700.58,-414.02"/>
</g>
<!-- Neo4j -->
<g id="node12" class="node">
<title>Neo4j</title>
<path fill="#fce4d6" stroke="black" d="M1001.5,-352C1001.5,-354.21 977.58,-356 948.12,-356 918.67,-356 894.75,-354.21 894.75,-352 894.75,-352 894.75,-316 894.75,-316 894.75,-313.79 918.67,-312 948.12,-312 977.58,-312 1001.5,-313.79 1001.5,-316 1001.5,-316 1001.5,-352 1001.5,-352"/>
<path fill="none" stroke="black" d="M1001.5,-352C1001.5,-349.79 977.58,-348 948.12,-348 918.67,-348 894.75,-349.79 894.75,-352"/>
<text xml:space="preserve" text-anchor="middle" x="948.12" y="-336.5" font-family="Arial" font-size="10.00">Neo4j</text>
<text xml:space="preserve" text-anchor="middle" x="948.12" y="-324.5" font-family="Arial" font-size="10.00">(Docker neo4j&#45;demo)</text>
</g>
<!-- NC&#45;&gt;Neo4j -->
<g id="edge5" class="edge">
<title>NC&#45;&gt;Neo4j</title>
<path fill="none" stroke="black" d="M809.71,-456.35C819.65,-452.38 829.67,-447.61 838.5,-442 871.33,-421.11 902.11,-388.83 922.47,-364.99"/>
<polygon fill="black" stroke="black" points="925.03,-367.38 928.77,-357.47 919.66,-362.89 925.03,-367.38"/>
</g>
<!-- NC&#45;&gt;Config -->
<g id="edge16" class="edge">
<title>NC&#45;&gt;Config</title>
<path fill="none" stroke="black" d="M755.5,-453.54C755.5,-441.63 755.5,-429.71 755.5,-417.8"/>
<polygon fill="black" stroke="black" points="759,-417.89 755.5,-407.89 752,-417.89 759,-417.89"/>
</g>
<!-- PG -->
<g id="node6" class="node">
<title>PG</title>
<path fill="#ffe699" stroke="black" d="M804.75,-214C804.75,-214 706.25,-214 706.25,-214 700.25,-214 694.25,-208 694.25,-202 694.25,-202 694.25,-190 694.25,-190 694.25,-184 700.25,-178 706.25,-178 706.25,-178 804.75,-178 804.75,-178 810.75,-178 816.75,-184 816.75,-190 816.75,-190 816.75,-202 816.75,-202 816.75,-208 810.75,-214 804.75,-214"/>
<text xml:space="preserve" text-anchor="middle" x="755.5" y="-198.5" font-family="Arial" font-size="10.00">graph/populate_graph.py</text>
<text xml:space="preserve" text-anchor="middle" x="755.5" y="-186.5" font-family="Arial" font-size="10.00">populate_graph()</text>
</g>
<!-- Data -->
<g id="node11" class="node">
<title>Data</title>
<polygon fill="#fff2cc" stroke="black" points="1015.75,-137 874.5,-137 874.5,-93 1021.75,-93 1021.75,-131 1015.75,-137"/>
<polyline fill="none" stroke="black" points="1015.75,-137 1015.75,-131"/>
<polyline fill="none" stroke="black" points="1021.75,-131 1015.75,-131"/>
<text xml:space="preserve" text-anchor="middle" x="948.12" y="-123.5" font-family="Arial" font-size="10.00">data/</text>
<text xml:space="preserve" text-anchor="middle" x="948.12" y="-111.5" font-family="Arial" font-size="10.00">synthetic_diagnosis_data.json</text>
<text xml:space="preserve" text-anchor="middle" x="948.12" y="-99.5" font-family="Arial" font-size="10.00">enterprise_sources/*.json</text>
</g>
<!-- PG&#45;&gt;Data -->
<g id="edge13" class="edge">
<title>PG&#45;&gt;Data</title>
<path fill="none" stroke="black" d="M815.99,-177.53C823.63,-174.83 831.29,-171.96 838.5,-169 857.39,-161.24 877.56,-151.61 895.32,-142.64"/>
<polygon fill="black" stroke="black" points="896.81,-145.81 904.12,-138.15 893.63,-139.58 896.81,-145.81"/>
</g>
<!-- PG&#45;&gt;Neo4j -->
<g id="edge12" class="edge">
<title>PG&#45;&gt;Neo4j</title>
<path fill="none" stroke="black" d="M785.7,-214.47C801.52,-224.66 821.3,-237.71 838.5,-250 863,-267.5 889.77,-288.18 910.6,-304.64"/>
<polygon fill="black" stroke="black" points="908.24,-307.24 918.25,-310.71 912.59,-301.75 908.24,-307.24"/>
</g>
<!-- SDG -->
<g id="node7" class="node">
<title>SDG</title>
<path fill="#ffe699" stroke="black" d="M826.5,-52C826.5,-52 684.5,-52 684.5,-52 678.5,-52 672.5,-46 672.5,-40 672.5,-40 672.5,-28 672.5,-28 672.5,-22 678.5,-16 684.5,-16 684.5,-16 826.5,-16 826.5,-16 832.5,-16 838.5,-22 838.5,-28 838.5,-28 838.5,-40 838.5,-40 838.5,-46 832.5,-52 826.5,-52"/>
<text xml:space="preserve" text-anchor="middle" x="755.5" y="-36.5" font-family="Arial" font-size="10.00">graph/synthetic_data_generator.py</text>
<text xml:space="preserve" text-anchor="middle" x="755.5" y="-24.5" font-family="Arial" font-size="10.00">Pydantic ontology models</text>
</g>
<!-- SDG&#45;&gt;Data -->
<g id="edge11" class="edge">
<title>SDG&#45;&gt;Data</title>
<path fill="none" stroke="black" d="M815.99,-52.47C823.63,-55.17 831.29,-58.04 838.5,-61 857.39,-68.76 877.56,-78.39 895.32,-87.36"/>
<polygon fill="black" stroke="black" points="893.63,-90.42 904.12,-91.85 896.81,-84.19 893.63,-90.42"/>
</g>
<!-- EP -->
<g id="node8" class="node">
<title>EP</title>
<path fill="#ffd966" stroke="black" d="M624.5,-160C624.5,-160 475,-160 475,-160 469,-160 463,-154 463,-148 463,-148 463,-136 463,-136 463,-130 469,-124 475,-124 475,-124 624.5,-124 624.5,-124 630.5,-124 636.5,-130 636.5,-136 636.5,-136 636.5,-148 636.5,-148 636.5,-154 630.5,-160 624.5,-160"/>
<text xml:space="preserve" text-anchor="middle" x="549.75" y="-144.5" font-family="Arial" font-size="10.00">graph/enterprise_pipeline/pipeline.py</text>
<text xml:space="preserve" text-anchor="middle" x="549.75" y="-132.5" font-family="Arial" font-size="10.00">run_pipeline()</text>
</g>
<!-- EP&#45;&gt;PG -->
<g id="edge10" class="edge">
<title>EP&#45;&gt;PG</title>
<path fill="none" stroke="black" d="M620.3,-160.43C640.43,-165.77 662.45,-171.6 682.72,-176.98"/>
<polygon fill="black" stroke="black" points="681.75,-180.34 692.31,-179.52 683.54,-173.57 681.75,-180.34"/>
</g>
<!-- OB -->
<g id="node9" class="node">
<title>OB</title>
<path fill="#ffd966" stroke="black" d="M822.38,-106C822.38,-106 688.62,-106 688.62,-106 682.62,-106 676.62,-100 676.62,-94 676.62,-94 676.62,-82 676.62,-82 676.62,-76 682.62,-70 688.62,-70 688.62,-70 822.38,-70 822.38,-70 828.38,-70 834.38,-76 834.38,-82 834.38,-82 834.38,-94 834.38,-94 834.38,-100 828.38,-106 822.38,-106"/>
<text xml:space="preserve" text-anchor="middle" x="755.5" y="-90.5" font-family="Arial" font-size="10.00">transformers/ontology_builder.py</text>
<text xml:space="preserve" text-anchor="middle" x="755.5" y="-78.5" font-family="Arial" font-size="10.00">OntologyBuilder.build()</text>
</g>
<!-- EP&#45;&gt;OB -->
<g id="edge8" class="edge">
<title>EP&#45;&gt;OB</title>
<path fill="none" stroke="black" d="M620.3,-123.57C637.58,-118.99 656.24,-114.04 674,-109.33"/>
<polygon fill="black" stroke="black" points="674.69,-112.77 683.46,-106.83 672.89,-106.01 674.69,-112.77"/>
</g>
<!-- Conn -->
<g id="node10" class="node">
<title>Conn</title>
<path fill="#ffd966" stroke="black" d="M811.5,-160C811.5,-160 699.5,-160 699.5,-160 693.5,-160 687.5,-154 687.5,-148 687.5,-148 687.5,-136 687.5,-136 687.5,-130 693.5,-124 699.5,-124 699.5,-124 811.5,-124 811.5,-124 817.5,-124 823.5,-130 823.5,-136 823.5,-136 823.5,-148 823.5,-148 823.5,-154 817.5,-160 811.5,-160"/>
<text xml:space="preserve" text-anchor="middle" x="755.5" y="-144.5" font-family="Arial" font-size="10.00">connectors/</text>
<text xml:space="preserve" text-anchor="middle" x="755.5" y="-132.5" font-family="Arial" font-size="10.00">CRM · Claims · PIM · FSM</text>
</g>
<!-- EP&#45;&gt;Conn -->
<g id="edge6" class="edge">
<title>EP&#45;&gt;Conn</title>
<path fill="none" stroke="black" d="M636.86,-142C649.88,-142 663.26,-142 676.1,-142"/>
<polygon fill="black" stroke="black" points="675.72,-145.5 685.72,-142 675.72,-138.5 675.72,-145.5"/>
</g>
<!-- OB&#45;&gt;Data -->
<g id="edge9" class="edge">
<title>OB&#45;&gt;Data</title>
<path fill="none" stroke="black" d="M834.86,-99.1C844.13,-100.41 853.62,-101.76 862.97,-103.08"/>
<polygon fill="black" stroke="black" points="862.39,-106.53 872.78,-104.47 863.37,-99.6 862.39,-106.53"/>
</g>
<!-- Conn&#45;&gt;Data -->
<g id="edge7" class="edge">
<title>Conn&#45;&gt;Data</title>
<path fill="none" stroke="black" d="M823.98,-132.44C836.57,-130.66 849.87,-128.78 862.89,-126.93"/>
<polygon fill="black" stroke="black" points="863.33,-130.4 872.74,-125.54 862.35,-123.47 863.33,-130.4"/>
</g>
<!-- Tests -->
<g id="node15" class="node">
<title>Tests</title>
<path fill="#e7e6e6" stroke="black" d="M802.12,-352C802.12,-352 708.88,-352 708.88,-352 702.88,-352 696.88,-346 696.88,-340 696.88,-340 696.88,-328 696.88,-328 696.88,-322 702.88,-316 708.88,-316 708.88,-316 802.12,-316 802.12,-316 808.12,-316 814.12,-322 814.12,-328 814.12,-328 814.12,-340 814.12,-340 814.12,-346 808.12,-352 802.12,-352"/>
<text xml:space="preserve" text-anchor="middle" x="755.5" y="-330.5" font-family="Arial" font-size="10.00">tests/test_diagnosis.py</text>
</g>
<!-- Tests&#45;&gt;GR -->
<g id="edge17" class="edge">
<title>Tests&#45;&gt;GR</title>
<path fill="none" stroke="black" d="M696.69,-349.6C688.32,-352.83 680.01,-356.62 672.5,-361 633.62,-383.71 596.51,-420.47 573.7,-445.41"/>
<polygon fill="black" stroke="black" points="571.35,-442.79 567.26,-452.57 576.55,-447.47 571.35,-442.79"/>
</g>
<!-- Tests&#45;&gt;Neo4j -->
<g id="edge18" class="edge">
<title>Tests&#45;&gt;Neo4j</title>
<path fill="none" stroke="black" d="M814.47,-334C836.11,-334 860.8,-334 882.97,-334"/>
<polygon fill="black" stroke="black" points="882.78,-337.5 892.78,-334 882.78,-330.5 882.78,-337.5"/>
</g>
</g>
</svg>
