<?xml version="1.0" encoding="UTF-8" standalone="no"?>
<!DOCTYPE svg PUBLIC "-//W3C//DTD SVG 1.1//EN"
 "http://www.w3.org/Graphics/SVG/1.1/DTD/svg11.dtd">
<!-- Generated by graphviz version 14.1.5 (20260411.2331)
 -->
<!-- Title: LangGraphWorkflow Pages: 1 -->
<svg width="367pt" height="769pt"
 viewBox="0.00 0.00 367.00 769.00" xmlns="http://www.w3.org/2000/svg" xmlns:xlink="http://www.w3.org/1999/xlink">
<g id="graph0" class="graph" transform="scale(1 1) rotate(0) translate(4 765.25)">
<title>LangGraphWorkflow</title>
<polygon fill="white" stroke="none" points="-4,4 -4,-765.25 362.75,-765.25 362.75,4 -4,4"/>
<text xml:space="preserve" text-anchor="middle" x="179.38" y="-743.95" font-family="Arial" font-size="14.00">Figure 3: LangGraph Agent Workflow — AgentState Flow</text>
<!-- Start -->
<g id="node1" class="node">
<title>Start</title>
<ellipse fill="#d5e8f0" stroke="black" cx="110.38" cy="-693" rx="18" ry="18"/>
<text xml:space="preserve" text-anchor="middle" x="110.38" y="-696.05" font-family="Arial" font-size="11.00">START</text>
<text xml:space="preserve" text-anchor="middle" x="110.38" y="-682.55" font-family="Arial" font-size="11.00">run_diagnosis(user_message)</text>
</g>
<!-- N1 -->
<g id="node2" class="node">
<title>N1</title>
<path fill="#c6e0b4" stroke="black" d="M236.62,-588.5C236.62,-588.5 96.12,-588.5 96.12,-588.5 90.12,-588.5 84.12,-582.5 84.12,-576.5 84.12,-576.5 84.12,-484.5 84.12,-484.5 84.12,-478.5 90.12,-472.5 96.12,-472.5 96.12,-472.5 236.62,-472.5 236.62,-472.5 242.62,-472.5 248.62,-478.5 248.62,-484.5 248.62,-484.5 248.62,-576.5 248.62,-576.5 248.62,-582.5 242.62,-588.5 236.62,-588.5"/>
<text xml:space="preserve" text-anchor="middle" x="166.38" y="-574.05" font-family="Arial" font-size="11.00">detect_product</text>
<text xml:space="preserve" text-anchor="middle" x="166.38" y="-560.55" font-family="Arial" font-size="11.00">node_detect_product()</text>
<text xml:space="preserve" text-anchor="middle" x="166.38" y="-547.05" font-family="Arial" font-size="11.00">─────────────</text>
<text xml:space="preserve" text-anchor="middle" x="166.38" y="-533.55" font-family="Arial" font-size="11.00">In: &#160;user_message</text>
<text xml:space="preserve" text-anchor="middle" x="166.38" y="-520.05" font-family="Arial" font-size="11.00">Out: product_id, product_name</text>
<text xml:space="preserve" text-anchor="middle" x="166.38" y="-506.55" font-family="Arial" font-size="11.00">─────────────</text>
<text xml:space="preserve" text-anchor="middle" x="166.38" y="-493.05" font-family="Arial" font-size="11.00">tool_detect_product()</text>
<text xml:space="preserve" text-anchor="middle" x="166.38" y="-479.55" font-family="Arial" font-size="11.00">→ keywords + list_products()</text>
</g>
<!-- Start&#45;&gt;N1 -->
<g id="edge1" class="edge">
<title>Start&#45;&gt;N1</title>
<path fill="none" stroke="#1f4e79" d="M116.16,-675.43C122.45,-657.39 132.93,-627.37 142.68,-599.4"/>
<polygon fill="#1f4e79" stroke="#1f4e79" points="145.89,-600.83 145.88,-590.24 139.28,-598.53 145.89,-600.83"/>
</g>
<!-- N2 -->
<g id="node3" class="node">
<title>N2</title>
<path fill="#c6e0b4" stroke="black" d="M259.88,-435.5C259.88,-435.5 72.88,-435.5 72.88,-435.5 66.87,-435.5 60.88,-429.5 60.88,-423.5 60.88,-423.5 60.88,-345 60.88,-345 60.88,-339 66.88,-333 72.88,-333 72.88,-333 259.88,-333 259.88,-333 265.88,-333 271.88,-339 271.88,-345 271.88,-345 271.88,-423.5 271.88,-423.5 271.88,-429.5 265.88,-435.5 259.88,-435.5"/>
<text xml:space="preserve" text-anchor="middle" x="166.38" y="-421.05" font-family="Arial" font-size="11.00">run_diagnosis</text>
<text xml:space="preserve" text-anchor="middle" x="166.38" y="-407.55" font-family="Arial" font-size="11.00">node_run_graph_diagnosis()</text>
<text xml:space="preserve" text-anchor="middle" x="166.38" y="-394.05" font-family="Arial" font-size="11.00">─────────────</text>
<text xml:space="preserve" text-anchor="middle" x="166.38" y="-380.55" font-family="Arial" font-size="11.00">In: &#160;user_message, product_id</text>
<text xml:space="preserve" text-anchor="middle" x="166.38" y="-367.05" font-family="Arial" font-size="11.00">Out: diagnosis (full payload)</text>
<text xml:space="preserve" text-anchor="middle" x="166.38" y="-353.55" font-family="Arial" font-size="11.00">─────────────</text>
<text xml:space="preserve" text-anchor="middle" x="166.38" y="-340.05" font-family="Arial" font-size="11.00">tool_diagnose() → graph_rag.diagnose()</text>
</g>
<!-- N1&#45;&gt;N2 -->
<g id="edge2" class="edge">
<title>N1&#45;&gt;N2</title>
<path fill="none" stroke="#1f4e79" d="M166.38,-472.07C166.38,-463.96 166.38,-455.58 166.38,-447.38"/>
<polygon fill="#1f4e79" stroke="#1f4e79" points="169.88,-447.46 166.38,-437.46 162.88,-447.46 169.88,-447.46"/>
</g>
<!-- N3 -->
<g id="node4" class="node">
<title>N3</title>
<path fill="#c6e0b4" stroke="black" d="M243.38,-296C243.38,-296 89.37,-296 89.37,-296 83.38,-296 77.38,-290 77.38,-284 77.38,-284 77.38,-232.5 77.38,-232.5 77.38,-226.5 83.38,-220.5 89.38,-220.5 89.38,-220.5 243.38,-220.5 243.38,-220.5 249.38,-220.5 255.38,-226.5 255.38,-232.5 255.38,-232.5 255.38,-284 255.38,-284 255.38,-290 249.38,-296 243.38,-296"/>
<text xml:space="preserve" text-anchor="middle" x="166.38" y="-281.55" font-family="Arial" font-size="11.00">format_response</text>
<text xml:space="preserve" text-anchor="middle" x="166.38" y="-268.05" font-family="Arial" font-size="11.00">node_format_response()</text>
<text xml:space="preserve" text-anchor="middle" x="166.38" y="-254.55" font-family="Arial" font-size="11.00">─────────────</text>
<text xml:space="preserve" text-anchor="middle" x="166.38" y="-241.05" font-family="Arial" font-size="11.00">In: &#160;diagnosis.formatted_response</text>
<text xml:space="preserve" text-anchor="middle" x="166.38" y="-227.55" font-family="Arial" font-size="11.00">Out: response (markdown)</text>
</g>
<!-- N2&#45;&gt;N3 -->
<g id="edge3" class="edge">
<title>N2&#45;&gt;N3</title>
<path fill="none" stroke="#1f4e79" d="M166.38,-332.81C166.38,-324.52 166.38,-315.94 166.38,-307.69"/>
<polygon fill="#1f4e79" stroke="#1f4e79" points="169.88,-307.84 166.38,-297.84 162.88,-307.84 169.88,-307.84"/>
</g>
<!-- N4 -->
<g id="node5" class="node">
<title>N4</title>
<path fill="#fce4d6" stroke="black" d="M234.38,-183.5C234.38,-183.5 98.38,-183.5 98.38,-183.5 92.38,-183.5 86.38,-177.5 86.38,-171.5 86.38,-171.5 86.38,-93 86.38,-93 86.38,-87 92.38,-81 98.38,-81 98.38,-81 234.38,-81 234.38,-81 240.38,-81 246.38,-87 246.38,-93 246.38,-93 246.38,-171.5 246.38,-171.5 246.38,-177.5 240.38,-183.5 234.38,-183.5"/>
<text xml:space="preserve" text-anchor="middle" x="166.38" y="-169.05" font-family="Arial" font-size="11.00">handle_escalation</text>
<text xml:space="preserve" text-anchor="middle" x="166.38" y="-155.55" font-family="Arial" font-size="11.00">node_handle_escalation()</text>
<text xml:space="preserve" text-anchor="middle" x="166.38" y="-142.05" font-family="Arial" font-size="11.00">─────────────</text>
<text xml:space="preserve" text-anchor="middle" x="166.38" y="-128.55" font-family="Arial" font-size="11.00">if diagnosis.should_escalate:</text>
<text xml:space="preserve" text-anchor="middle" x="166.38" y="-115.05" font-family="Arial" font-size="11.00"> &#160;save_escalation() → case_id</text>
<text xml:space="preserve" text-anchor="middle" x="166.38" y="-101.55" font-family="Arial" font-size="11.00">else:</text>
<text xml:space="preserve" text-anchor="middle" x="166.38" y="-88.05" font-family="Arial" font-size="11.00"> &#160;escalated = false</text>
</g>
<!-- N3&#45;&gt;N4 -->
<g id="edge4" class="edge">
<title>N3&#45;&gt;N4</title>
<path fill="none" stroke="#1f4e79" d="M166.38,-220.05C166.38,-212.2 166.38,-203.72 166.38,-195.24"/>
<polygon fill="#1f4e79" stroke="#1f4e79" points="169.88,-195.24 166.38,-185.24 162.88,-195.24 169.88,-195.24"/>
</g>
<!-- End -->
<g id="node6" class="node">
<title>End</title>
<ellipse fill="#d5e8f0" stroke="black" cx="166.38" cy="-22" rx="18" ry="18"/>
<ellipse fill="none" stroke="black" cx="166.38" cy="-22" rx="22" ry="22"/>
<text xml:space="preserve" text-anchor="middle" x="166.38" y="-18.3" font-family="Arial" font-size="11.00">END</text>
</g>
<!-- N4&#45;&gt;End -->
<g id="edge5" class="edge">
<title>N4&#45;&gt;End</title>
<path fill="none" stroke="#1f4e79" d="M166.38,-80.61C166.38,-72.13 166.38,-63.54 166.38,-55.67"/>
<polygon fill="#1f4e79" stroke="#1f4e79" points="169.88,-55.9 166.38,-45.9 162.88,-55.9 169.88,-55.9"/>
</g>
<!-- State -->
<g id="node7" class="node">
<title>State</title>
<polygon fill="#fff2cc" stroke="black" points="291.88,-737.5 146.88,-737.5 146.88,-648.5 297.88,-648.5 297.88,-731.5 291.88,-737.5"/>
<polyline fill="none" stroke="black" points="291.88,-737.5 291.88,-731.5"/>
<polyline fill="none" stroke="black" points="297.88,-731.5 291.88,-731.5"/>
<text xml:space="preserve" text-anchor="middle" x="222.38" y="-723.05" font-family="Arial" font-size="11.00">AgentState (TypedDict)</text>
<text xml:space="preserve" text-anchor="middle" x="222.38" y="-709.55" font-family="Arial" font-size="11.00">• user_message</text>
<text xml:space="preserve" text-anchor="middle" x="222.38" y="-696.05" font-family="Arial" font-size="11.00">• product_id / product_name</text>
<text xml:space="preserve" text-anchor="middle" x="222.38" y="-682.55" font-family="Arial" font-size="11.00">• diagnosis</text>
<text xml:space="preserve" text-anchor="middle" x="222.38" y="-669.05" font-family="Arial" font-size="11.00">• response</text>
<text xml:space="preserve" text-anchor="middle" x="222.38" y="-655.55" font-family="Arial" font-size="11.00">• escalated / case_id</text>
</g>
<!-- State&#45;&gt;N1 -->
<g id="edge6" class="edge">
<title>State&#45;&gt;N1</title>
<path fill="none" stroke="#1f4e79" stroke-dasharray="5,2" d="M207.07,-648.14C201.84,-633.14 195.86,-615.99 190.12,-599.54"/>
<polygon fill="#1f4e79" stroke="#1f4e79" points="193.49,-598.58 186.89,-590.29 186.88,-600.89 193.49,-598.58"/>
<text xml:space="preserve" text-anchor="middle" x="232.39" y="-621" font-family="Arial" font-size="10.00">state passed</text>
<text xml:space="preserve" text-anchor="middle" x="232.39" y="-609" font-family="Arial" font-size="10.00">between nodes</text>
</g>
</g>
</svg>
