<?xml version="1.0" encoding="UTF-8" standalone="no"?>
<!DOCTYPE svg PUBLIC "-//W3C//DTD SVG 1.1//EN"
 "http://www.w3.org/Graphics/SVG/1.1/DTD/svg11.dtd">
<!-- Generated by graphviz version 14.1.5 (20260411.2331)
 -->
<!-- Title: LangGraphWorkflow Pages: 1 -->
<svg width="367pt" height="769pt"
 viewBox="0.00 0.00 367.00 769.00" xmlns="http://www.w3.org/2000/svg" xmlns:xlink="http://www.w3.org/1999/xlink">
<g id="graph0" class="graph" transform="scale(1 1) rotate(0) translate(4 765.25)">
<title>LangGraphWorkflow</title>
<polygon fill="white" stroke="none" points="-4,4 -4,-765.25 362.75,-765.25 362.75,4 -4,4"/>
<text xml:space="preserve" text-anchor="middle" x="179.38" y="-743.95" font-family="Arial" font-size="14.00">Figure 3: LangGraph Agent Workflow — AgentState Flow</text>
<!-- Start -->
<g id="node1" class="node">
<title>Start</title>
<ellipse fill="#d5e8f0" stroke="black" cx="102.88" cy="-693" rx="28.8" ry="28.8"/>
<text xml:space="preserve" text-anchor="middle" x="102.88" y="-689.3" font-family="Arial" font-size="11.00">START</text>
</g>
<!-- N1 -->
<g id="node2" class="node">
<title>N1</title>
<path fill="#c6e0b4" stroke="black" d="M234.12,-588.5C234.12,-588.5 93.62,-588.5 93.62,-588.5 87.62,-588.5 81.62,-582.5 81.62,-576.5 81.62,-576.5 81.62,-484.5 81.62,-484.5 81.62,-478.5 87.62,-472.5 93.62,-472.5 93.62,-472.5 234.12,-472.5 234.12,-472.5 240.12,-472.5 246.12,-478.5 246.12,-484.5 246.12,-484.5 246.12,-576.5 246.12,-576.5 246.12,-582.5 240.12,-588.5 234.12,-588.5"/>
<text xml:space="preserve" text-anchor="middle" x="163.88" y="-574.05" font-family="Arial" font-size="11.00">detect_product</text>
<text xml:space="preserve" text-anchor="middle" x="163.88" y="-560.55" font-family="Arial" font-size="11.00">node_detect_product()</text>
<text xml:space="preserve" text-anchor="middle" x="163.88" y="-547.05" font-family="Arial" font-size="11.00">─────────────</text>
<text xml:space="preserve" text-anchor="middle" x="163.88" y="-533.55" font-family="Arial" font-size="11.00">In: &#160;user_message</text>
<text xml:space="preserve" text-anchor="middle" x="163.88" y="-520.05" font-family="Arial" font-size="11.00">Out: product_id, product_name</text>
<text xml:space="preserve" text-anchor="middle" x="163.88" y="-506.55" font-family="Arial" font-size="11.00">─────────────</text>
<text xml:space="preserve" text-anchor="middle" x="163.88" y="-493.05" font-family="Arial" font-size="11.00">tool_detect_product()</text>
<text xml:space="preserve" text-anchor="middle" x="163.88" y="-479.55" font-family="Arial" font-size="11.00">→ keywords + list_products()</text>
</g>
<!-- Start&#45;&gt;N1 -->
<g id="edge1" class="edge">
<title>Start&#45;&gt;N1</title>
<path fill="none" stroke="#1f4e79" d="M112.95,-665.5C119.81,-647.43 129.24,-622.64 138.11,-599.28"/>
<polygon fill="#1f4e79" stroke="#1f4e79" points="141.32,-600.69 141.6,-590.1 134.78,-598.21 141.32,-600.69"/>
<text xml:space="preserve" text-anchor="middle" x="168.2" y="-615" font-family="Arial" font-size="10.00">run_diagnosis()</text>
</g>
<!-- N2 -->
<g id="node3" class="node">
<title>N2</title>
<path fill="#c6e0b4" stroke="black" d="M257.38,-435.5C257.38,-435.5 70.38,-435.5 70.38,-435.5 64.37,-435.5 58.38,-429.5 58.38,-423.5 58.38,-423.5 58.38,-345 58.38,-345 58.38,-339 64.38,-333 70.38,-333 70.38,-333 257.38,-333 257.38,-333 263.38,-333 269.38,-339 269.38,-345 269.38,-345 269.38,-423.5 269.38,-423.5 269.38,-429.5 263.38,-435.5 257.38,-435.5"/>
<text xml:space="preserve" text-anchor="middle" x="163.88" y="-421.05" font-family="Arial" font-size="11.00">run_diagnosis</text>
<text xml:space="preserve" text-anchor="middle" x="163.88" y="-407.55" font-family="Arial" font-size="11.00">node_run_graph_diagnosis()</text>
<text xml:space="preserve" text-anchor="middle" x="163.88" y="-394.05" font-family="Arial" font-size="11.00">─────────────</text>
<text xml:space="preserve" text-anchor="middle" x="163.88" y="-380.55" font-family="Arial" font-size="11.00">In: &#160;user_message, product_id</text>
<text xml:space="preserve" text-anchor="middle" x="163.88" y="-367.05" font-family="Arial" font-size="11.00">Out: diagnosis (full payload)</text>
<text xml:space="preserve" text-anchor="middle" x="163.88" y="-353.55" font-family="Arial" font-size="11.00">─────────────</text>
<text xml:space="preserve" text-anchor="middle" x="163.88" y="-340.05" font-family="Arial" font-size="11.00">tool_diagnose() → graph_rag.diagnose()</text>
</g>
<!-- N1&#45;&gt;N2 -->
<g id="edge2" class="edge">
<title>N1&#45;&gt;N2</title>
<path fill="none" stroke="#1f4e79" d="M163.88,-472.07C163.88,-463.96 163.88,-455.58 163.88,-447.38"/>
<polygon fill="#1f4e79" stroke="#1f4e79" points="167.38,-447.46 163.88,-437.46 160.38,-447.46 167.38,-447.46"/>
</g>
<!-- N3 -->
<g id="node4" class="node">
<title>N3</title>
<path fill="#c6e0b4" stroke="black" d="M240.88,-296C240.88,-296 86.87,-296 86.87,-296 80.88,-296 74.88,-290 74.88,-284 74.88,-284 74.88,-232.5 74.88,-232.5 74.88,-226.5 80.88,-220.5 86.88,-220.5 86.88,-220.5 240.88,-220.5 240.88,-220.5 246.88,-220.5 252.88,-226.5 252.88,-232.5 252.88,-232.5 252.88,-284 252.88,-284 252.88,-290 246.88,-296 240.88,-296"/>
<text xml:space="preserve" text-anchor="middle" x="163.88" y="-281.55" font-family="Arial" font-size="11.00">format_response</text>
<text xml:space="preserve" text-anchor="middle" x="163.88" y="-268.05" font-family="Arial" font-size="11.00">node_format_response()</text>
<text xml:space="preserve" text-anchor="middle" x="163.88" y="-254.55" font-family="Arial" font-size="11.00">─────────────</text>
<text xml:space="preserve" text-anchor="middle" x="163.88" y="-241.05" font-family="Arial" font-size="11.00">In: &#160;diagnosis.formatted_response</text>
<text xml:space="preserve" text-anchor="middle" x="163.88" y="-227.55" font-family="Arial" font-size="11.00">Out: response (markdown)</text>
</g>
<!-- N2&#45;&gt;N3 -->
<g id="edge3" class="edge">
<title>N2&#45;&gt;N3</title>
<path fill="none" stroke="#1f4e79" d="M163.88,-332.81C163.88,-324.52 163.88,-315.94 163.88,-307.69"/>
<polygon fill="#1f4e79" stroke="#1f4e79" points="167.38,-307.84 163.88,-297.84 160.38,-307.84 167.38,-307.84"/>
</g>
<!-- N4 -->
<g id="node5" class="node">
<title>N4</title>
<path fill="#fce4d6" stroke="black" d="M231.88,-183.5C231.88,-183.5 95.88,-183.5 95.88,-183.5 89.88,-183.5 83.88,-177.5 83.88,-171.5 83.88,-171.5 83.88,-93 83.88,-93 83.88,-87 89.88,-81 95.88,-81 95.88,-81 231.88,-81 231.88,-81 237.88,-81 243.88,-87 243.88,-93 243.88,-93 243.88,-171.5 243.88,-171.5 243.88,-177.5 237.88,-183.5 231.88,-183.5"/>
<text xml:space="preserve" text-anchor="middle" x="163.88" y="-169.05" font-family="Arial" font-size="11.00">handle_escalation</text>
<text xml:space="preserve" text-anchor="middle" x="163.88" y="-155.55" font-family="Arial" font-size="11.00">node_handle_escalation()</text>
<text xml:space="preserve" text-anchor="middle" x="163.88" y="-142.05" font-family="Arial" font-size="11.00">─────────────</text>
<text xml:space="preserve" text-anchor="middle" x="163.88" y="-128.55" font-family="Arial" font-size="11.00">if diagnosis.should_escalate:</text>
<text xml:space="preserve" text-anchor="middle" x="163.88" y="-115.05" font-family="Arial" font-size="11.00"> &#160;save_escalation() → case_id</text>
<text xml:space="preserve" text-anchor="middle" x="163.88" y="-101.55" font-family="Arial" font-size="11.00">else:</text>
<text xml:space="preserve" text-anchor="middle" x="163.88" y="-88.05" font-family="Arial" font-size="11.00"> &#160;escalated = false</text>
</g>
<!-- N3&#45;&gt;N4 -->
<g id="edge4" class="edge">
<title>N3&#45;&gt;N4</title>
<path fill="none" stroke="#1f4e79" d="M163.88,-220.05C163.88,-212.2 163.88,-203.72 163.88,-195.24"/>
<polygon fill="#1f4e79" stroke="#1f4e79" points="167.38,-195.24 163.88,-185.24 160.38,-195.24 167.38,-195.24"/>
</g>
<!-- End -->
<g id="node6" class="node">
<title>End</title>
<ellipse fill="#d5e8f0" stroke="black" cx="163.88" cy="-22" rx="18" ry="18"/>
<ellipse fill="none" stroke="black" cx="163.88" cy="-22" rx="22" ry="22"/>
<text xml:space="preserve" text-anchor="middle" x="163.88" y="-18.3" font-family="Arial" font-size="11.00">END</text>
</g>
<!-- N4&#45;&gt;End -->
<g id="edge5" class="edge">
<title>N4&#45;&gt;End</title>
<path fill="none" stroke="#1f4e79" d="M163.88,-80.61C163.88,-72.13 163.88,-63.54 163.88,-55.67"/>
<polygon fill="#1f4e79" stroke="#1f4e79" points="167.38,-55.9 163.88,-45.9 160.38,-55.9 167.38,-55.9"/>
</g>
<!-- State -->
<g id="node7" class="node">
<title>State</title>
<polygon fill="#fff2cc" stroke="black" points="294.38,-737.5 149.38,-737.5 149.38,-648.5 300.38,-648.5 300.38,-731.5 294.38,-737.5"/>
<polyline fill="none" stroke="black" points="294.38,-737.5 294.38,-731.5"/>
<polyline fill="none" stroke="black" points="300.38,-731.5 294.38,-731.5"/>
<text xml:space="preserve" text-anchor="middle" x="224.88" y="-723.05" font-family="Arial" font-size="11.00">AgentState (TypedDict)</text>
<text xml:space="preserve" text-anchor="middle" x="224.88" y="-709.55" font-family="Arial" font-size="11.00">• user_message</text>
<text xml:space="preserve" text-anchor="middle" x="224.88" y="-696.05" font-family="Arial" font-size="11.00">• product_id / product_name</text>
<text xml:space="preserve" text-anchor="middle" x="224.88" y="-682.55" font-family="Arial" font-size="11.00">• diagnosis</text>
<text xml:space="preserve" text-anchor="middle" x="224.88" y="-669.05" font-family="Arial" font-size="11.00">• response</text>
<text xml:space="preserve" text-anchor="middle" x="224.88" y="-655.55" font-family="Arial" font-size="11.00">• escalated / case_id</text>
</g>
<!-- State&#45;&gt;N1 -->
<g id="edge6" class="edge">
<title>State&#45;&gt;N1</title>
<path fill="none" stroke="#1f4e79" stroke-dasharray="5,2" d="M215.68,-648.34C212.27,-634.74 207.97,-619.81 202.88,-606.5 201.92,-604.01 200.91,-601.5 199.85,-598.98"/>
<polygon fill="#1f4e79" stroke="#1f4e79" points="203.12,-597.73 195.87,-590.01 196.72,-600.57 203.12,-597.73"/>
<text xml:space="preserve" text-anchor="middle" x="243.55" y="-621" font-family="Arial" font-size="10.00">state passed</text>
<text xml:space="preserve" text-anchor="middle" x="243.55" y="-609" font-family="Arial" font-size="10.00">between nodes</text>
</g>
</g>
</svg>
