<?xml version="1.0" encoding="UTF-8" standalone="no"?>
<!DOCTYPE svg PUBLIC "-//W3C//DTD SVG 1.1//EN"
 "http://www.w3.org/Graphics/SVG/1.1/DTD/svg11.dtd">
<!-- Generated by graphviz version 14.1.5 (20260411.2331)
 -->
<!-- Title: GraphRAGDiagnosis Pages: 1 -->
<svg width="568pt" height="855pt"
 viewBox="0.00 0.00 568.00 855.00" xmlns="http://www.w3.org/2000/svg" xmlns:xlink="http://www.w3.org/1999/xlink">
<g id="graph0" class="graph" transform="scale(1 1) rotate(0) translate(4 851.25)">
<title>GraphRAGDiagnosis</title>
<polygon fill="white" stroke="none" points="-4,4 -4,-851.25 564,-851.25 564,4 -4,4"/>
<text xml:space="preserve" text-anchor="middle" x="280" y="-829.95" font-family="Arial" font-size="14.00">Figure 4: GraphRAG diagnose() — Internal Flow &amp; Cypher Queries</text>
<!-- Input -->
<g id="node1" class="node">
<title>Input</title>
<path fill="#d5e8f0" stroke="black" d="M378.25,-823.5C378.25,-823.5 298.5,-823.5 298.5,-823.5 292.5,-823.5 286.5,-817.5 286.5,-811.5 286.5,-811.5 286.5,-791.5 286.5,-791.5 286.5,-785.5 292.5,-779.5 298.5,-779.5 298.5,-779.5 378.25,-779.5 378.25,-779.5 384.25,-779.5 390.25,-785.5 390.25,-791.5 390.25,-791.5 390.25,-811.5 390.25,-811.5 390.25,-817.5 384.25,-823.5 378.25,-823.5"/>
<text xml:space="preserve" text-anchor="middle" x="338.38" y="-810" font-family="Arial" font-size="10.00">Input</text>
<text xml:space="preserve" text-anchor="middle" x="338.38" y="-798" font-family="Arial" font-size="10.00">user_message</text>
<text xml:space="preserve" text-anchor="middle" x="338.38" y="-786" font-family="Arial" font-size="10.00">product_id (optional)</text>
</g>
<!-- P1 -->
<g id="node2" class="node">
<title>P1</title>
<path fill="#ffffff" stroke="black" d="M410.5,-742.5C410.5,-742.5 266.25,-742.5 266.25,-742.5 260.25,-742.5 254.25,-736.5 254.25,-730.5 254.25,-730.5 254.25,-698.5 254.25,-698.5 254.25,-692.5 260.25,-686.5 266.25,-686.5 266.25,-686.5 410.5,-686.5 410.5,-686.5 416.5,-686.5 422.5,-692.5 422.5,-698.5 422.5,-698.5 422.5,-730.5 422.5,-730.5 422.5,-736.5 416.5,-742.5 410.5,-742.5"/>
<text xml:space="preserve" text-anchor="middle" x="338.38" y="-729" font-family="Arial" font-size="10.00">Product Resolution</text>
<text xml:space="preserve" text-anchor="middle" x="338.38" y="-717" font-family="Arial" font-size="10.00">────────────</text>
<text xml:space="preserve" text-anchor="middle" x="338.38" y="-705" font-family="Arial" font-size="10.00">detect_product() keywords</text>
<text xml:space="preserve" text-anchor="middle" x="338.38" y="-693" font-family="Arial" font-size="10.00">OR list_products() if product_id set</text>
</g>
<!-- Input&#45;&gt;P1 -->
<g id="edge1" class="edge">
<title>Input&#45;&gt;P1</title>
<path fill="none" stroke="black" d="M338.38,-779.05C338.38,-771.48 338.38,-762.71 338.38,-754.15"/>
<polygon fill="black" stroke="black" points="341.88,-754.26 338.38,-744.26 334.88,-754.26 341.88,-754.26"/>
</g>
<!-- C1 -->
<g id="node3" class="node">
<title>C1</title>
<polygon fill="none" stroke="black" points="248.75,-628 118,-628 118,-584 254.75,-584 254.75,-622 248.75,-628"/>
<polyline fill="none" stroke="black" points="248.75,-628 248.75,-622"/>
<polyline fill="none" stroke="black" points="254.75,-622 248.75,-622"/>
<text xml:space="preserve" text-anchor="middle" x="186.38" y="-614.5" font-family="Arial" font-size="10.00">Cypher #1</text>
<text xml:space="preserve" text-anchor="middle" x="186.38" y="-602.5" font-family="Arial" font-size="10.00">MATCH (p:Product)</text>
<text xml:space="preserve" text-anchor="middle" x="186.38" y="-590.5" font-family="Arial" font-size="10.00">RETURN product_id, name</text>
</g>
<!-- P1&#45;&gt;C1 -->
<g id="edge2" class="edge">
<title>P1&#45;&gt;C1</title>
<path fill="none" stroke="black" stroke-dasharray="5,2" d="M299.23,-686.07C276.76,-670.33 248.61,-650.6 226.05,-634.8"/>
<polygon fill="black" stroke="black" points="228.19,-632.02 217.99,-629.15 224.17,-637.76 228.19,-632.02"/>
</g>
<!-- P2 -->
<g id="node4" class="node">
<title>P2</title>
<path fill="#ffffff" stroke="black" d="M391.75,-640C391.75,-640 285,-640 285,-640 279,-640 273,-634 273,-628 273,-628 273,-584 273,-584 273,-578 279,-572 285,-572 285,-572 391.75,-572 391.75,-572 397.75,-572 403.75,-578 403.75,-584 403.75,-584 403.75,-628 403.75,-628 403.75,-634 397.75,-640 391.75,-640"/>
<text xml:space="preserve" text-anchor="middle" x="338.38" y="-626.5" font-family="Arial" font-size="10.00">match_symptoms()</text>
<text xml:space="preserve" text-anchor="middle" x="338.38" y="-614.5" font-family="Arial" font-size="10.00">────────────</text>
<text xml:space="preserve" text-anchor="middle" x="338.38" y="-602.5" font-family="Arial" font-size="10.00">Cypher fetch symptoms</text>
<text xml:space="preserve" text-anchor="middle" x="338.38" y="-590.5" font-family="Arial" font-size="10.00">+ Python _text_similarity()</text>
<text xml:space="preserve" text-anchor="middle" x="338.38" y="-578.5" font-family="Arial" font-size="10.00">+ SYNONYMS expansion</text>
</g>
<!-- P1&#45;&gt;P2 -->
<g id="edge3" class="edge">
<title>P1&#45;&gt;P2</title>
<path fill="none" stroke="black" d="M338.38,-686.07C338.38,-675.63 338.38,-663.43 338.38,-651.79"/>
<polygon fill="black" stroke="black" points="341.88,-651.93 338.38,-641.93 334.88,-651.93 341.88,-651.93"/>
<text xml:space="preserve" text-anchor="middle" x="366.5" y="-659.95" font-family="Arial" font-size="9.00">product found</text>
</g>
<!-- NoProduct -->
<g id="node15" class="node">
<title>NoProduct</title>
<path fill="#f8cbad" stroke="black" d="M548,-554C548,-554 430.75,-554 430.75,-554 424.75,-554 418.75,-548 418.75,-542 418.75,-542 418.75,-530 418.75,-530 418.75,-524 424.75,-518 430.75,-518 430.75,-518 548,-518 548,-518 554,-518 560,-524 560,-530 560,-530 560,-542 560,-542 560,-548 554,-554 548,-554"/>
<text xml:space="preserve" text-anchor="middle" x="489.38" y="-538.5" font-family="Arial" font-size="10.00">should_escalate = true</text>
<text xml:space="preserve" text-anchor="middle" x="489.38" y="-526.5" font-family="Arial" font-size="10.00">&#39;Could not identify appliance&#39;</text>
</g>
<!-- P1&#45;&gt;NoProduct -->
<g id="edge4" class="edge">
<title>P1&#45;&gt;NoProduct</title>
<path fill="none" stroke="black" d="M378.62,-686.16C385.54,-680.68 392.42,-674.69 398.38,-668.5 429.45,-636.22 457.51,-592.38 474,-564.38"/>
<polygon fill="black" stroke="black" points="477,-566.2 478.98,-555.79 470.94,-562.69 477,-566.2"/>
<text xml:space="preserve" text-anchor="middle" x="428.49" y="-659.95" font-family="Arial" font-size="9.00">no product</text>
</g>
<!-- C2 -->
<g id="node5" class="node">
<title>C2</title>
<polygon fill="none" stroke="black" points="255.75,-494 53,-494 53,-450 261.75,-450 261.75,-488 255.75,-494"/>
<polyline fill="none" stroke="black" points="255.75,-494 255.75,-488"/>
<polyline fill="none" stroke="black" points="261.75,-488 255.75,-488"/>
<text xml:space="preserve" text-anchor="middle" x="157.38" y="-480.5" font-family="Arial" font-size="10.00">Cypher #2</text>
<text xml:space="preserve" text-anchor="middle" x="157.38" y="-468.5" font-family="Arial" font-size="10.00">MATCH (p)&#45;[:HAS_SYMPTOM]&#45;&gt;(s)</text>
<text xml:space="preserve" text-anchor="middle" x="157.38" y="-456.5" font-family="Arial" font-size="10.00">RETURN symptom_id, description, severity</text>
</g>
<!-- P2&#45;&gt;C2 -->
<g id="edge6" class="edge">
<title>P2&#45;&gt;C2</title>
<path fill="none" stroke="black" stroke-dasharray="5,2" d="M292.7,-571.69C262.78,-549.87 224.11,-521.67 195.78,-501.01"/>
<polygon fill="black" stroke="black" points="197.96,-498.27 187.82,-495.2 193.83,-503.92 197.96,-498.27"/>
</g>
<!-- P3 -->
<g id="node6" class="node">
<title>P3</title>
<path fill="#ffffff" stroke="black" d="M385,-500C385,-500 291.75,-500 291.75,-500 285.75,-500 279.75,-494 279.75,-488 279.75,-488 279.75,-456 279.75,-456 279.75,-450 285.75,-444 291.75,-444 291.75,-444 385,-444 385,-444 391,-444 397,-450 397,-456 397,-456 397,-488 397,-488 397,-494 391,-500 385,-500"/>
<text xml:space="preserve" text-anchor="middle" x="338.38" y="-486.5" font-family="Arial" font-size="10.00">rank_failure_modes()</text>
<text xml:space="preserve" text-anchor="middle" x="338.38" y="-474.5" font-family="Arial" font-size="10.00">────────────</text>
<text xml:space="preserve" text-anchor="middle" x="338.38" y="-462.5" font-family="Arial" font-size="10.00">Aggregate INDICATES</text>
<text xml:space="preserve" text-anchor="middle" x="338.38" y="-450.5" font-family="Arial" font-size="10.00">confidence scores</text>
</g>
<!-- P2&#45;&gt;P3 -->
<g id="edge7" class="edge">
<title>P2&#45;&gt;P3</title>
<path fill="none" stroke="black" d="M338.38,-571.69C338.38,-553.35 338.38,-530.5 338.38,-511.41"/>
<polygon fill="black" stroke="black" points="341.88,-511.59 338.38,-501.59 334.88,-511.59 341.88,-511.59"/>
</g>
<!-- C3 -->
<g id="node7" class="node">
<title>C3</title>
<polygon fill="none" stroke="black" points="171.88,-385 2.88,-385 2.88,-317 177.88,-317 177.88,-379 171.88,-385"/>
<polyline fill="none" stroke="black" points="171.88,-385 171.88,-379"/>
<polyline fill="none" stroke="black" points="177.88,-379 171.88,-379"/>
<text xml:space="preserve" text-anchor="middle" x="90.38" y="-371.5" font-family="Arial" font-size="10.00">Cypher #3</text>
<text xml:space="preserve" text-anchor="middle" x="90.38" y="-359.5" font-family="Arial" font-size="10.00">MATCH (p)&#45;[:CAN_HAVE]&#45;&gt;(fm)</text>
<text xml:space="preserve" text-anchor="middle" x="90.38" y="-347.5" font-family="Arial" font-size="10.00">MATCH (s)&#45;[ind:INDICATES]&#45;&gt;(fm)</text>
<text xml:space="preserve" text-anchor="middle" x="90.38" y="-335.5" font-family="Arial" font-size="10.00">WHERE symptom_id IN $ids</text>
<text xml:space="preserve" text-anchor="middle" x="90.38" y="-323.5" font-family="Arial" font-size="10.00">ORDER BY total_confidence DESC</text>
</g>
<!-- P3&#45;&gt;C3 -->
<g id="edge8" class="edge">
<title>P3&#45;&gt;C3</title>
<path fill="none" stroke="black" stroke-dasharray="5,2" d="M279.43,-447.04C244.41,-432.64 203.57,-415.51 186.38,-407 176.43,-402.08 166.09,-396.58 156.03,-391.02"/>
<polygon fill="black" stroke="black" points="157.85,-388.02 147.42,-386.19 154.43,-394.13 157.85,-388.02"/>
</g>
<!-- P4 -->
<g id="node8" class="node">
<title>P4</title>
<polygon fill="#fce4d6" stroke="black" points="338.38,-407 195.63,-351 338.37,-295 481.12,-351 338.38,-407"/>
<text xml:space="preserve" text-anchor="middle" x="338.38" y="-365.5" font-family="Arial" font-size="10.00">Escalation Decision (Python)</text>
<text xml:space="preserve" text-anchor="middle" x="338.38" y="-353.5" font-family="Arial" font-size="10.00">────────────</text>
<text xml:space="preserve" text-anchor="middle" x="338.38" y="-341.5" font-family="Arial" font-size="10.00">critical severity?</text>
<text xml:space="preserve" text-anchor="middle" x="338.38" y="-329.5" font-family="Arial" font-size="10.00">OR confidence &lt; 0.65?</text>
</g>
<!-- P3&#45;&gt;P4 -->
<g id="edge9" class="edge">
<title>P3&#45;&gt;P4</title>
<path fill="none" stroke="black" d="M338.38,-443.7C338.38,-436.08 338.38,-427.44 338.38,-418.6"/>
<polygon fill="black" stroke="black" points="341.88,-418.86 338.38,-408.86 334.88,-418.86 341.88,-418.86"/>
</g>
<!-- P5 -->
<g id="node9" class="node">
<title>P5</title>
<path fill="#ffffff" stroke="black" d="M257.5,-258C257.5,-258 167.25,-258 167.25,-258 161.25,-258 155.25,-252 155.25,-246 155.25,-246 155.25,-234 155.25,-234 155.25,-228 161.25,-222 167.25,-222 167.25,-222 257.5,-222 257.5,-222 263.5,-222 269.5,-228 269.5,-234 269.5,-234 269.5,-246 269.5,-246 269.5,-252 263.5,-258 257.5,-258"/>
<text xml:space="preserve" text-anchor="middle" x="212.38" y="-236.5" font-family="Arial" font-size="10.00">get_diagnostic_steps()</text>
</g>
<!-- P4&#45;&gt;P5 -->
<g id="edge10" class="edge">
<title>P4&#45;&gt;P5</title>
<path fill="none" stroke="black" d="M294.31,-311.88C276.58,-296.54 256.65,-279.31 240.89,-265.67"/>
<polygon fill="black" stroke="black" points="243.6,-263.38 233.75,-259.49 239.02,-268.68 243.6,-263.38"/>
</g>
<!-- P6 -->
<g id="node11" class="node">
<title>P6</title>
<path fill="#ffffff" stroke="black" d="M407.5,-258C407.5,-258 299.25,-258 299.25,-258 293.25,-258 287.25,-252 287.25,-246 287.25,-246 287.25,-234 287.25,-234 287.25,-228 293.25,-222 299.25,-222 299.25,-222 407.5,-222 407.5,-222 413.5,-222 419.5,-228 419.5,-234 419.5,-234 419.5,-246 419.5,-246 419.5,-252 413.5,-258 407.5,-258"/>
<text xml:space="preserve" text-anchor="middle" x="353.38" y="-236.5" font-family="Arial" font-size="10.00">get_historical_resolutions()</text>
</g>
<!-- P4&#45;&gt;P6 -->
<g id="edge11" class="edge">
<title>P4&#45;&gt;P6</title>
<path fill="none" stroke="black" d="M345.61,-297.42C346.94,-287.8 348.27,-278.09 349.45,-269.52"/>
<polygon fill="black" stroke="black" points="352.9,-270.14 350.79,-259.76 345.96,-269.19 352.9,-270.14"/>
</g>
<!-- C4 -->
<g id="node10" class="node">
<title>C4</title>
<polygon fill="none" stroke="black" points="130.75,-181 0,-181 0,-145 136.75,-145 136.75,-175 130.75,-181"/>
<polyline fill="none" stroke="black" points="130.75,-181 130.75,-175"/>
<polyline fill="none" stroke="black" points="136.75,-175 130.75,-175"/>
<text xml:space="preserve" text-anchor="middle" x="68.38" y="-165.5" font-family="Arial" font-size="10.00">Cypher #4</text>
<text xml:space="preserve" text-anchor="middle" x="68.38" y="-153.5" font-family="Arial" font-size="10.00">HAS_DIAGNOSTIC_STEP</text>
</g>
<!-- P5&#45;&gt;C4 -->
<g id="edge12" class="edge">
<title>P5&#45;&gt;C4</title>
<path fill="none" stroke="black" stroke-dasharray="5,2" d="M178.98,-221.6C159.06,-211.23 133.54,-197.94 112.03,-186.74"/>
<polygon fill="black" stroke="black" points="113.67,-183.64 103.18,-182.13 110.44,-189.85 113.67,-183.64"/>
</g>
<!-- P7 -->
<g id="node13" class="node">
<title>P7</title>
<path fill="#fff2cc" stroke="black" d="M287.5,-181C287.5,-181 167.25,-181 167.25,-181 161.25,-181 155.25,-175 155.25,-169 155.25,-169 155.25,-157 155.25,-157 155.25,-151 161.25,-145 167.25,-145 167.25,-145 287.5,-145 287.5,-145 293.5,-145 299.5,-151 299.5,-157 299.5,-157 299.5,-169 299.5,-169 299.5,-175 293.5,-181 287.5,-181"/>
<text xml:space="preserve" text-anchor="middle" x="227.38" y="-165.5" font-family="Arial" font-size="10.00">get_parts_for_product()</text>
<text xml:space="preserve" text-anchor="middle" x="227.38" y="-153.5" font-family="Arial" font-size="10.00">(JSON catalog — no Cypher)</text>
</g>
<!-- P5&#45;&gt;P7 -->
<g id="edge14" class="edge">
<title>P5&#45;&gt;P7</title>
<path fill="none" stroke="black" d="M215.85,-221.6C217.6,-212.9 219.75,-202.13 221.72,-192.28"/>
<polygon fill="black" stroke="black" points="225.09,-193.28 223.62,-182.78 218.22,-191.9 225.09,-193.28"/>
</g>
<!-- C5 -->
<g id="node12" class="node">
<title>C5</title>
<polygon fill="none" stroke="black" points="474.88,-185 317.88,-185 317.88,-141 480.88,-141 480.88,-179 474.88,-185"/>
<polyline fill="none" stroke="black" points="474.88,-185 474.88,-179"/>
<polyline fill="none" stroke="black" points="480.88,-179 474.88,-179"/>
<text xml:space="preserve" text-anchor="middle" x="399.38" y="-171.5" font-family="Arial" font-size="10.00">Cypher #5</text>
<text xml:space="preserve" text-anchor="middle" x="399.38" y="-159.5" font-family="Arial" font-size="10.00">HistoricalResolution</text>
<text xml:space="preserve" text-anchor="middle" x="399.38" y="-147.5" font-family="Arial" font-size="10.00">FOR_PRODUCT · CONFIRMED</text>
</g>
<!-- P6&#45;&gt;C5 -->
<g id="edge13" class="edge">
<title>P6&#45;&gt;C5</title>
<path fill="none" stroke="black" stroke-dasharray="5,2" d="M364.04,-221.6C368.92,-213.66 374.84,-204.01 380.43,-194.89"/>
<polygon fill="black" stroke="black" points="383.26,-196.96 385.51,-186.61 377.3,-193.3 383.26,-196.96"/>
</g>
<!-- P6&#45;&gt;P7 -->
<g id="edge15" class="edge">
<title>P6&#45;&gt;P7</title>
<path fill="none" stroke="black" d="M324.15,-221.6C306.9,-211.33 284.84,-198.21 266.15,-187.08"/>
<polygon fill="black" stroke="black" points="268.12,-184.18 257.74,-182.07 264.54,-190.2 268.12,-184.18"/>
</g>
<!-- Output -->
<g id="node14" class="node">
<title>Output</title>
<path fill="#c6e0b4" stroke="black" d="M415.38,-104C415.38,-104 321.38,-104 321.38,-104 315.38,-104 309.38,-98 309.38,-92 309.38,-92 309.38,-12 309.38,-12 309.38,-6 315.38,0 321.38,0 321.38,0 415.38,0 415.38,0 421.38,0 427.38,-6 427.38,-12 427.38,-12 427.38,-92 427.38,-92 427.38,-98 421.38,-104 415.38,-104"/>
<text xml:space="preserve" text-anchor="middle" x="368.38" y="-90.5" font-family="Arial" font-size="10.00">DiagnosisResult</text>
<text xml:space="preserve" text-anchor="middle" x="368.38" y="-78.5" font-family="Arial" font-size="10.00">• matched_symptoms</text>
<text xml:space="preserve" text-anchor="middle" x="368.38" y="-66.5" font-family="Arial" font-size="10.00">• ranked_failure_modes</text>
<text xml:space="preserve" text-anchor="middle" x="368.38" y="-54.5" font-family="Arial" font-size="10.00">• diagnostic_steps</text>
<text xml:space="preserve" text-anchor="middle" x="368.38" y="-42.5" font-family="Arial" font-size="10.00">• historical_resolutions</text>
<text xml:space="preserve" text-anchor="middle" x="368.38" y="-30.5" font-family="Arial" font-size="10.00">• confidence</text>
<text xml:space="preserve" text-anchor="middle" x="368.38" y="-18.5" font-family="Arial" font-size="10.00">• should_escalate</text>
<text xml:space="preserve" text-anchor="middle" x="368.38" y="-6.5" font-family="Arial" font-size="10.00">• evidence[]</text>
</g>
<!-- P7&#45;&gt;Output -->
<g id="edge16" class="edge">
<title>P7&#45;&gt;Output</title>
<path fill="none" stroke="black" d="M249.72,-144.73C263.46,-134.1 281.89,-119.86 300.12,-105.77"/>
<polygon fill="black" stroke="black" points="302.06,-108.69 307.83,-99.8 297.78,-103.15 302.06,-108.69"/>
</g>
<!-- NoProduct&#45;&gt;Output -->
<g id="edge5" class="edge">
<title>NoProduct&#45;&gt;Output</title>
<path fill="none" stroke="black" d="M494.53,-517.81C500.45,-496.48 509.38,-458.9 509.38,-426 509.38,-426 509.38,-426 509.38,-162 509.38,-121.98 473.38,-94.58 437.77,-77.26"/>
<polygon fill="black" stroke="black" points="439.68,-74.28 429.14,-73.27 436.75,-80.64 439.68,-74.28"/>
</g>
</g>
</svg>
