<?xml version="1.0" encoding="UTF-8" standalone="no"?>
<!DOCTYPE svg PUBLIC "-//W3C//DTD SVG 1.1//EN"
 "http://www.w3.org/Graphics/SVG/1.1/DTD/svg11.dtd">
<!-- Generated by graphviz version 14.1.5 (20260411.2331)
 -->
<!-- Title: Neo4jOntology Pages: 1 -->
<svg width="1098pt" height="456pt"
 viewBox="0.00 0.00 1098.00 456.00" xmlns="http://www.w3.org/2000/svg" xmlns:xlink="http://www.w3.org/1999/xlink">
<g id="graph0" class="graph" transform="scale(1 1) rotate(0) translate(4 451.73)">
<title>Neo4jOntology</title>
<polygon fill="white" stroke="none" points="-4,4 -4,-451.73 1094.35,-451.73 1094.35,4 -4,4"/>
<text xml:space="preserve" text-anchor="middle" x="545.18" y="-430.43" font-family="Arial" font-size="14.00">Figure 5: Neo4j Ontology — Schema &amp; wm&#45;001 Instance</text>
<g id="clust1" class="cluster">
<title>cluster_schema</title>
<polygon fill="white" stroke="#1f4e79" stroke-dasharray="5,2" points="8,-8 8,-412.86 363,-412.86 363,-8 8,-8"/>
<text xml:space="preserve" text-anchor="middle" x="185.5" y="-395.56" font-family="Arial" font-size="14.00">Node Labels &amp; Relationship Types (populate_graph.py)</text>
</g>
<g id="clust2" class="cluster">
<title>cluster_instance</title>
<polygon fill="white" stroke="#548235" stroke-dasharray="5,2" points="371,-13.37 371,-415.98 1062,-415.98 1062,-13.37 371,-13.37"/>
<text xml:space="preserve" text-anchor="middle" x="716.5" y="-398.68" font-family="Arial" font-size="14.00">wm&#45;001 Example Instance (from synthetic_diagnosis_data.json)</text>
</g>
<!-- Product -->
<g id="node1" class="node">
<title>Product</title>
<path fill="#d5e8f0" stroke="black" d="M317.38,-275.5C317.38,-275.5 162.62,-275.5 162.62,-275.5 156.62,-275.5 150.62,-269.5 150.62,-263.5 150.62,-263.5 150.62,-243.5 150.62,-243.5 150.62,-237.5 156.62,-231.5 162.62,-231.5 162.62,-231.5 317.38,-231.5 317.38,-231.5 323.38,-231.5 329.38,-237.5 329.38,-243.5 329.38,-243.5 329.38,-263.5 329.38,-263.5 329.38,-269.5 323.38,-275.5 317.38,-275.5"/>
<text xml:space="preserve" text-anchor="middle" x="240" y="-262" font-family="Arial" font-size="10.00">:Product</text>
<text xml:space="preserve" text-anchor="middle" x="240" y="-250" font-family="Arial" font-size="10.00">product_id (UNIQUE)</text>
<text xml:space="preserve" text-anchor="middle" x="240" y="-238" font-family="Arial" font-size="10.00">name · category · brand · model_year</text>
</g>
<!-- Symptom -->
<g id="node2" class="node">
<title>Symptom</title>
<path fill="#fff2cc" stroke="black" d="M258,-179C258,-179 164,-179 164,-179 158,-179 152,-173 152,-167 152,-167 152,-147 152,-147 152,-141 158,-135 164,-135 164,-135 258,-135 258,-135 264,-135 270,-141 270,-147 270,-147 270,-167 270,-167 270,-173 264,-179 258,-179"/>
<text xml:space="preserve" text-anchor="middle" x="211" y="-165.5" font-family="Arial" font-size="10.00">:Symptom</text>
<text xml:space="preserve" text-anchor="middle" x="211" y="-153.5" font-family="Arial" font-size="10.00">symptom_id (UNIQUE)</text>
<text xml:space="preserve" text-anchor="middle" x="211" y="-141.5" font-family="Arial" font-size="10.00">description · severity</text>
</g>
<!-- Product&#45;&gt;Symptom -->
<g id="edge1" class="edge">
<title>Product&#45;&gt;Symptom</title>
<path fill="none" stroke="black" d="M233.42,-231.06C229.71,-218.97 225.01,-203.64 220.87,-190.15"/>
<polygon fill="black" stroke="black" points="224.28,-189.34 218,-180.81 217.59,-191.39 224.28,-189.34"/>
<text xml:space="preserve" text-anchor="middle" x="261.74" y="-204.95" font-family="Arial" font-size="9.00">HAS_SYMPTOM</text>
</g>
<!-- FailureMode -->
<g id="node3" class="node">
<title>FailureMode</title>
<path fill="#c6e0b4" stroke="black" d="M271.5,-72C271.5,-72 150.5,-72 150.5,-72 144.5,-72 138.5,-66 138.5,-60 138.5,-60 138.5,-28 138.5,-28 138.5,-22 144.5,-16 150.5,-16 150.5,-16 271.5,-16 271.5,-16 277.5,-16 283.5,-22 283.5,-28 283.5,-28 283.5,-60 283.5,-60 283.5,-66 277.5,-72 271.5,-72"/>
<text xml:space="preserve" text-anchor="middle" x="211" y="-58.5" font-family="Arial" font-size="10.00">:FailureMode</text>
<text xml:space="preserve" text-anchor="middle" x="211" y="-46.5" font-family="Arial" font-size="10.00">failure_mode_id (UNIQUE)</text>
<text xml:space="preserve" text-anchor="middle" x="211" y="-34.5" font-family="Arial" font-size="10.00">name · description</text>
<text xml:space="preserve" text-anchor="middle" x="211" y="-22.5" font-family="Arial" font-size="10.00">repair_minutes · safety_notes</text>
</g>
<!-- Product&#45;&gt;FailureMode -->
<g id="edge2" class="edge">
<title>Product&#45;&gt;FailureMode</title>
<path fill="none" stroke="black" d="M284.46,-231.12C290.69,-226.21 296.23,-220.36 300,-213.5 313.21,-189.44 315.43,-113.35 301,-90 298.59,-86.1 295.73,-82.53 292.53,-79.25"/>
<polygon fill="black" stroke="black" points="294.92,-76.69 285.1,-72.72 290.3,-81.95 294.92,-76.69"/>
<text xml:space="preserve" text-anchor="middle" x="335.27" y="-153.7" font-family="Arial" font-size="9.00">CAN_HAVE</text>
</g>
<!-- DiagStep -->
<g id="node4" class="node">
<title>DiagStep</title>
<path fill="#ede7f6" stroke="black" d="M122.25,-185C122.25,-185 47.75,-185 47.75,-185 41.75,-185 35.75,-179 35.75,-173 35.75,-173 35.75,-141 35.75,-141 35.75,-135 41.75,-129 47.75,-129 47.75,-129 122.25,-129 122.25,-129 128.25,-129 134.25,-135 134.25,-141 134.25,-141 134.25,-173 134.25,-173 134.25,-179 128.25,-185 122.25,-185"/>
<text xml:space="preserve" text-anchor="middle" x="85" y="-171.5" font-family="Arial" font-size="10.00">:DiagnosticStep</text>
<text xml:space="preserve" text-anchor="middle" x="85" y="-159.5" font-family="Arial" font-size="10.00">step_id (UNIQUE)</text>
<text xml:space="preserve" text-anchor="middle" x="85" y="-147.5" font-family="Arial" font-size="10.00">description · order</text>
<text xml:space="preserve" text-anchor="middle" x="85" y="-135.5" font-family="Arial" font-size="10.00">expected_outcome</text>
</g>
<!-- Product&#45;&gt;DiagStep -->
<g id="edge3" class="edge">
<title>Product&#45;&gt;DiagStep</title>
<path fill="none" stroke="black" d="M150.41,-234.52C137.29,-229.22 124.64,-222.37 114,-213.5 108.05,-208.54 103.17,-202.05 99.22,-195.26"/>
<polygon fill="black" stroke="black" points="102.45,-193.89 94.77,-186.58 96.22,-197.08 102.45,-193.89"/>
<text xml:space="preserve" text-anchor="middle" x="168" y="-204.95" font-family="Arial" font-size="9.00">HAS_DIAGNOSTIC_STEP</text>
</g>
<!-- Symptom&#45;&gt;FailureMode -->
<g id="edge4" class="edge">
<title>Symptom&#45;&gt;FailureMode</title>
<path fill="none" stroke="black" d="M211,-134.6C211,-120.16 211,-100.7 211,-83.61"/>
<polygon fill="black" stroke="black" points="214.5,-83.76 211,-73.76 207.5,-83.76 214.5,-83.76"/>
<text xml:space="preserve" text-anchor="middle" x="254.12" y="-102.45" font-family="Arial" font-size="9.00">INDICATES</text>
<text xml:space="preserve" text-anchor="middle" x="254.12" y="-91.95" font-family="Arial" font-size="9.00">{confidence: 0.0–1.0}</text>
</g>
<!-- Part -->
<g id="node5" class="node">
<title>Part</title>
<path fill="#e7e6e6" stroke="black" d="M130.5,-381.11C130.5,-381.11 51.5,-381.11 51.5,-381.11 45.5,-381.11 39.5,-375.11 39.5,-369.11 39.5,-369.11 39.5,-337.11 39.5,-337.11 39.5,-331.11 45.5,-325.11 51.5,-325.11 51.5,-325.11 130.5,-325.11 130.5,-325.11 136.5,-325.11 142.5,-331.11 142.5,-337.11 142.5,-337.11 142.5,-369.11 142.5,-369.11 142.5,-375.11 136.5,-381.11 130.5,-381.11"/>
<text xml:space="preserve" text-anchor="middle" x="91" y="-367.61" font-family="Arial" font-size="10.00">:Part</text>
<text xml:space="preserve" text-anchor="middle" x="91" y="-355.61" font-family="Arial" font-size="10.00">part_id (UNIQUE)</text>
<text xml:space="preserve" text-anchor="middle" x="91" y="-343.61" font-family="Arial" font-size="10.00">name · part_number</text>
<text xml:space="preserve" text-anchor="middle" x="91" y="-331.61" font-family="Arial" font-size="10.00">cost</text>
</g>
<!-- HistRes -->
<g id="node6" class="node">
<title>HistRes</title>
<path fill="#fce4d6" stroke="black" d="M278.75,-381.11C278.75,-381.11 183.25,-381.11 183.25,-381.11 177.25,-381.11 171.25,-375.11 171.25,-369.11 171.25,-369.11 171.25,-337.11 171.25,-337.11 171.25,-331.11 177.25,-325.11 183.25,-325.11 183.25,-325.11 278.75,-325.11 278.75,-325.11 284.75,-325.11 290.75,-331.11 290.75,-337.11 290.75,-337.11 290.75,-369.11 290.75,-369.11 290.75,-375.11 284.75,-381.11 278.75,-381.11"/>
<text xml:space="preserve" text-anchor="middle" x="231" y="-367.61" font-family="Arial" font-size="10.00">:HistoricalResolution</text>
<text xml:space="preserve" text-anchor="middle" x="231" y="-355.61" font-family="Arial" font-size="10.00">resolution_id (UNIQUE)</text>
<text xml:space="preserve" text-anchor="middle" x="231" y="-343.61" font-family="Arial" font-size="10.00">description · date</text>
<text xml:space="preserve" text-anchor="middle" x="231" y="-331.61" font-family="Arial" font-size="10.00">technician_notes</text>
</g>
<!-- HistRes&#45;&gt;Product -->
<g id="edge5" class="edge">
<title>HistRes&#45;&gt;Product</title>
<path fill="none" stroke="black" d="M233.53,-324.66C234.61,-312.95 235.88,-299.2 237,-286.99"/>
<polygon fill="black" stroke="black" points="240.46,-287.66 237.89,-277.38 233.49,-287.02 240.46,-287.66"/>
<text xml:space="preserve" text-anchor="middle" x="270.81" y="-295.45" font-family="Arial" font-size="9.00">FOR_PRODUCT</text>
</g>
<!-- HistRes&#45;&gt;FailureMode -->
<g id="edge6" class="edge">
<title>HistRes&#45;&gt;FailureMode</title>
<path fill="none" stroke="black" d="M171,-326.54C118.63,-300.11 47.84,-253.07 27,-185 19.72,-161.2 13.54,-149.94 27,-129 49.29,-94.32 89.84,-73.78 127.21,-61.71"/>
<polygon fill="black" stroke="black" points="128.17,-65.07 136.71,-58.81 126.13,-58.38 128.17,-65.07"/>
<text xml:space="preserve" text-anchor="middle" x="65.81" y="-204.95" font-family="Arial" font-size="9.00">CONFIRMED</text>
</g>
<!-- WM -->
<g id="node7" class="node">
<title>WM</title>
<path fill="#bdd7ee" stroke="black" d="M739.75,-271.5C739.75,-271.5 602.25,-271.5 602.25,-271.5 596.25,-271.5 590.25,-265.5 590.25,-259.5 590.25,-259.5 590.25,-247.5 590.25,-247.5 590.25,-241.5 596.25,-235.5 602.25,-235.5 602.25,-235.5 739.75,-235.5 739.75,-235.5 745.75,-235.5 751.75,-241.5 751.75,-247.5 751.75,-247.5 751.75,-259.5 751.75,-259.5 751.75,-265.5 745.75,-271.5 739.75,-271.5"/>
<text xml:space="preserve" text-anchor="middle" x="671" y="-256" font-family="Arial" font-size="10.00">wm&#45;001</text>
<text xml:space="preserve" text-anchor="middle" x="671" y="-244" font-family="Arial" font-size="10.00">Front Load Washing Machine 8kg</text>
</g>
<!-- S01 -->
<g id="node8" class="node">
<title>S01</title>
<ellipse fill="none" stroke="black" cx="961" cy="-157" rx="73.36" ry="22.63"/>
<text xml:space="preserve" text-anchor="middle" x="961" y="-159.5" font-family="Arial" font-size="10.00">wm&#45;s01</text>
<text xml:space="preserve" text-anchor="middle" x="961" y="-147.5" font-family="Arial" font-size="10.00">Does not spin [high]</text>
</g>
<!-- WM&#45;&gt;S01 -->
<g id="edge7" class="edge">
<title>WM&#45;&gt;S01</title>
<path fill="none" stroke="#666666" d="M752.08,-237.89C781.14,-231.67 813.9,-223.51 843,-213.5 867.56,-205.05 893.81,-193.03 915.29,-182.33"/>
<polygon fill="#666666" stroke="#666666" points="916.73,-185.53 924.08,-177.89 913.58,-179.28 916.73,-185.53"/>
<text xml:space="preserve" text-anchor="middle" x="904.16" y="-204.95" font-family="Arial" font-size="9.00">HAS_SYMPTOM</text>
</g>
<!-- S03 -->
<g id="node9" class="node">
<title>S03</title>
<ellipse fill="none" stroke="black" cx="537" cy="-157" rx="73.36" ry="22.63"/>
<text xml:space="preserve" text-anchor="middle" x="537" y="-159.5" font-family="Arial" font-size="10.00">wm&#45;s03</text>
<text xml:space="preserve" text-anchor="middle" x="537" y="-147.5" font-family="Arial" font-size="10.00">Water in drum [high]</text>
</g>
<!-- WM&#45;&gt;S03 -->
<g id="edge8" class="edge">
<title>WM&#45;&gt;S03</title>
<path fill="none" stroke="#666666" d="M609.03,-235.05C595.93,-229.53 582.81,-222.46 572,-213.5 564.18,-207.02 557.56,-198.33 552.26,-189.75"/>
<polygon fill="#666666" stroke="#666666" points="555.37,-188.14 547.39,-181.18 549.29,-191.6 555.37,-188.14"/>
<text xml:space="preserve" text-anchor="middle" x="606.5" y="-204.95" font-family="Arial" font-size="9.00">HAS_SYMPTOM</text>
</g>
<!-- FM01 -->
<g id="node10" class="node">
<title>FM01</title>
<ellipse fill="none" stroke="black" cx="961" cy="-44" rx="60.1" ry="22.63"/>
<text xml:space="preserve" text-anchor="middle" x="961" y="-46.5" font-family="Arial" font-size="10.00">wm&#45;fm01</text>
<text xml:space="preserve" text-anchor="middle" x="961" y="-34.5" font-family="Arial" font-size="10.00">Worn Drive Belt</text>
</g>
<!-- WM&#45;&gt;FM01 -->
<g id="edge9" class="edge">
<title>WM&#45;&gt;FM01</title>
<path fill="none" stroke="#666666" d="M661.62,-235.36C648.91,-209.52 630.36,-160.31 654.25,-129 683.12,-91.16 812.21,-66.19 893.45,-53.92"/>
<polygon fill="#666666" stroke="#666666" points="893.71,-57.42 903.09,-52.49 892.68,-50.5 893.71,-57.42"/>
<text xml:space="preserve" text-anchor="middle" x="678.62" y="-153.7" font-family="Arial" font-size="9.00">CAN_HAVE</text>
</g>
<!-- FM02 -->
<g id="node11" class="node">
<title>FM02</title>
<ellipse fill="none" stroke="black" cx="471" cy="-44" rx="68.59" ry="22.63"/>
<text xml:space="preserve" text-anchor="middle" x="471" y="-46.5" font-family="Arial" font-size="10.00">wm&#45;fm02</text>
<text xml:space="preserve" text-anchor="middle" x="471" y="-34.5" font-family="Arial" font-size="10.00">Failed Drain Pump</text>
</g>
<!-- WM&#45;&gt;FM02 -->
<g id="edge10" class="edge">
<title>WM&#45;&gt;FM02</title>
<path fill="none" stroke="#666666" d="M590.09,-242.78C520.81,-232.59 428.77,-213.98 406.25,-185 379.52,-150.59 412.92,-103.37 440.82,-73.52"/>
<polygon fill="#666666" stroke="#666666" points="443,-76.3 447.43,-66.68 437.97,-71.43 443,-76.3"/>
<text xml:space="preserve" text-anchor="middle" x="430.62" y="-153.7" font-family="Arial" font-size="9.00">CAN_HAVE</text>
</g>
<!-- D01 -->
<g id="node12" class="node">
<title>D01</title>
<ellipse fill="none" stroke="black" cx="791" cy="-157" rx="78.67" ry="22.63"/>
<text xml:space="preserve" text-anchor="middle" x="791" y="-159.5" font-family="Arial" font-size="10.00">wm&#45;d01</text>
<text xml:space="preserve" text-anchor="middle" x="791" y="-147.5" font-family="Arial" font-size="10.00">Run empty spin cycle</text>
</g>
<!-- WM&#45;&gt;D01 -->
<g id="edge11" class="edge">
<title>WM&#45;&gt;D01</title>
<path fill="none" stroke="#666666" d="M693.01,-235.17C710.61,-221.31 735.63,-201.61 755.97,-185.58"/>
<polygon fill="#666666" stroke="#666666" points="758.07,-188.39 763.76,-179.45 753.74,-182.89 758.07,-188.39"/>
<text xml:space="preserve" text-anchor="middle" x="785" y="-204.95" font-family="Arial" font-size="9.00">HAS_DIAGNOSTIC_STEP</text>
</g>
<!-- S01&#45;&gt;FM01 -->
<g id="edge12" class="edge">
<title>S01&#45;&gt;FM01</title>
<path fill="none" stroke="#2e75b6" d="M961,-134.07C961,-118.18 961,-96.42 961,-78.38"/>
<polygon fill="#2e75b6" stroke="#2e75b6" points="964.5,-78.4 961,-68.4 957.5,-78.4 964.5,-78.4"/>
<text xml:space="preserve" text-anchor="middle" x="994.75" y="-97.2" font-family="Arial" font-size="9.00" fill="#2e75b6">INDICATES 0.92</text>
</g>
<!-- S03&#45;&gt;FM02 -->
<g id="edge13" class="edge">
<title>S03&#45;&gt;FM02</title>
<path fill="none" stroke="#2e75b6" d="M524.12,-134.33C514.31,-117.83 500.66,-94.88 489.65,-76.37"/>
<polygon fill="#2e75b6" stroke="#2e75b6" points="492.74,-74.72 484.62,-67.91 486.73,-78.3 492.74,-74.72"/>
<text xml:space="preserve" text-anchor="middle" x="543.66" y="-97.2" font-family="Arial" font-size="9.00" fill="#2e75b6">INDICATES 0.88</text>
</g>
<!-- R01 -->
<g id="node13" class="node">
<title>R01</title>
<ellipse fill="none" stroke="black" cx="911" cy="-353.11" rx="70.71" ry="31.11"/>
<text xml:space="preserve" text-anchor="middle" x="911" y="-361.61" font-family="Arial" font-size="10.00">wm&#45;r01</text>
<text xml:space="preserve" text-anchor="middle" x="911" y="-349.61" font-family="Arial" font-size="10.00">Replaced drive belt</text>
<text xml:space="preserve" text-anchor="middle" x="911" y="-337.61" font-family="Arial" font-size="10.00">2025&#45;11&#45;12</text>
</g>
<!-- R01&#45;&gt;WM -->
<g id="edge14" class="edge">
<title>R01&#45;&gt;WM</title>
<path fill="none" stroke="#666666" d="M859.81,-331.29C819.87,-315.05 764.58,-292.56 724.16,-276.12"/>
<polygon fill="#666666" stroke="#666666" points="725.68,-272.96 715.1,-272.44 723.04,-279.45 725.68,-272.96"/>
<text xml:space="preserve" text-anchor="middle" x="825.5" y="-295.45" font-family="Arial" font-size="9.00">FOR_PRODUCT</text>
</g>
<!-- R01&#45;&gt;FM01 -->
<g id="edge15" class="edge">
<title>R01&#45;&gt;FM01</title>
<path fill="none" stroke="#666666" d="M942.48,-324.79C974.83,-294.43 1023.17,-242.1 1043,-185 1056.93,-144.89 1058.07,-124.27 1033,-90 1026.61,-81.26 1017.95,-73.83 1008.86,-67.68"/>
<polygon fill="#666666" stroke="#666666" points="1010.93,-64.84 1000.59,-62.53 1007.23,-70.78 1010.93,-64.84"/>
<text xml:space="preserve" text-anchor="middle" x="1062.98" y="-204.95" font-family="Arial" font-size="9.00">CONFIRMED</text>
</g>
</g>
</svg>
