<?xml version="1.0" encoding="UTF-8" standalone="no"?>
<!DOCTYPE svg PUBLIC "-//W3C//DTD SVG 1.1//EN"
 "http://www.w3.org/Graphics/SVG/1.1/DTD/svg11.dtd">
<!-- Generated by graphviz version 14.1.5 (20260411.2331)
 -->
<!-- Title: Neo4jOntology Pages: 1 -->
<svg width="1098pt" height="558pt"
 viewBox="0.00 0.00 1098.00 558.00" xmlns="http://www.w3.org/2000/svg" xmlns:xlink="http://www.w3.org/1999/xlink">
<g id="graph0" class="graph" transform="scale(1 1) rotate(0) translate(4 554.23)">
<title>Neo4jOntology</title>
<polygon fill="white" stroke="none" points="-4,4 -4,-554.23 1094.35,-554.23 1094.35,4 -4,4"/>
<text xml:space="preserve" text-anchor="middle" x="545.18" y="-532.93" font-family="Arial" font-size="14.00">Neo4j Ontology — Core Schema &amp; wm&#45;001 Instance (see 34 for full enterprise ERD)</text>
<g id="clust1" class="cluster">
<title>cluster_schema</title>
<polygon fill="white" stroke="#1f4e79" stroke-dasharray="5,2" points="8,-8 8,-515.36 363,-515.36 363,-8 8,-8"/>
<text xml:space="preserve" text-anchor="middle" x="185.5" y="-498.06" font-family="Arial" font-size="14.00">Node Labels &amp; Relationship Types (populate_graph.py)</text>
</g>
<g id="clust2" class="cluster">
<title>cluster_instance</title>
<polygon fill="white" stroke="#548235" stroke-dasharray="5,2" points="371,-115.87 371,-518.48 1062,-518.48 1062,-115.87 371,-115.87"/>
<text xml:space="preserve" text-anchor="middle" x="716.5" y="-501.18" font-family="Arial" font-size="14.00">wm&#45;001 Example Instance (from synthetic_diagnosis_data.json)</text>
</g>
<!-- Product -->
<g id="node1" class="node">
<title>Product</title>
<path fill="#d5e8f0" stroke="black" d="M269.38,-378C269.38,-378 114.62,-378 114.62,-378 108.62,-378 102.62,-372 102.62,-366 102.62,-366 102.62,-346 102.62,-346 102.62,-340 108.62,-334 114.62,-334 114.62,-334 269.38,-334 269.38,-334 275.38,-334 281.38,-340 281.38,-346 281.38,-346 281.38,-366 281.38,-366 281.38,-372 275.38,-378 269.38,-378"/>
<text xml:space="preserve" text-anchor="middle" x="192" y="-364.5" font-family="Arial" font-size="10.00">:Product</text>
<text xml:space="preserve" text-anchor="middle" x="192" y="-352.5" font-family="Arial" font-size="10.00">product_id (UNIQUE)</text>
<text xml:space="preserve" text-anchor="middle" x="192" y="-340.5" font-family="Arial" font-size="10.00">name · category · brand · model_year</text>
</g>
<!-- Symptom -->
<g id="node2" class="node">
<title>Symptom</title>
<path fill="#fff2cc" stroke="black" d="M258,-281.5C258,-281.5 164,-281.5 164,-281.5 158,-281.5 152,-275.5 152,-269.5 152,-269.5 152,-249.5 152,-249.5 152,-243.5 158,-237.5 164,-237.5 164,-237.5 258,-237.5 258,-237.5 264,-237.5 270,-243.5 270,-249.5 270,-249.5 270,-269.5 270,-269.5 270,-275.5 264,-281.5 258,-281.5"/>
<text xml:space="preserve" text-anchor="middle" x="211" y="-268" font-family="Arial" font-size="10.00">:Symptom</text>
<text xml:space="preserve" text-anchor="middle" x="211" y="-256" font-family="Arial" font-size="10.00">symptom_id (UNIQUE)</text>
<text xml:space="preserve" text-anchor="middle" x="211" y="-244" font-family="Arial" font-size="10.00">description · severity</text>
</g>
<!-- Product&#45;&gt;Symptom -->
<g id="edge1" class="edge">
<title>Product&#45;&gt;Symptom</title>
<path fill="none" stroke="black" d="M211.56,-333.72C215.43,-328.31 218.93,-322.25 221,-316 223.41,-308.72 223.41,-300.69 222.25,-293.06"/>
<polygon fill="black" stroke="black" points="225.68,-292.4 220.08,-283.41 218.85,-293.93 225.68,-292.4"/>
<text xml:space="preserve" text-anchor="middle" x="257.41" y="-307.45" font-family="Arial" font-size="9.00">HAS_SYMPTOM</text>
</g>
<!-- FailureMode -->
<g id="node3" class="node">
<title>FailureMode</title>
<path fill="#c6e0b4" stroke="black" d="M271.5,-174.5C271.5,-174.5 150.5,-174.5 150.5,-174.5 144.5,-174.5 138.5,-168.5 138.5,-162.5 138.5,-162.5 138.5,-130.5 138.5,-130.5 138.5,-124.5 144.5,-118.5 150.5,-118.5 150.5,-118.5 271.5,-118.5 271.5,-118.5 277.5,-118.5 283.5,-124.5 283.5,-130.5 283.5,-130.5 283.5,-162.5 283.5,-162.5 283.5,-168.5 277.5,-174.5 271.5,-174.5"/>
<text xml:space="preserve" text-anchor="middle" x="211" y="-161" font-family="Arial" font-size="10.00">:FailureMode</text>
<text xml:space="preserve" text-anchor="middle" x="211" y="-149" font-family="Arial" font-size="10.00">failure_mode_id (UNIQUE)</text>
<text xml:space="preserve" text-anchor="middle" x="211" y="-137" font-family="Arial" font-size="10.00">name · description</text>
<text xml:space="preserve" text-anchor="middle" x="211" y="-125" font-family="Arial" font-size="10.00">repair_minutes · safety_notes</text>
</g>
<!-- Product&#45;&gt;FailureMode -->
<g id="edge2" class="edge">
<title>Product&#45;&gt;FailureMode</title>
<path fill="none" stroke="black" d="M276.58,-333.79C284.06,-329.02 290.77,-323.17 296,-316 312.19,-293.81 315.44,-215.86 301,-192.5 298.59,-188.6 295.73,-185.03 292.53,-181.75"/>
<polygon fill="black" stroke="black" points="294.92,-179.19 285.1,-175.22 290.3,-184.45 294.92,-179.19"/>
<text xml:space="preserve" text-anchor="middle" x="334.57" y="-256.2" font-family="Arial" font-size="9.00">CAN_HAVE</text>
</g>
<!-- DiagStep -->
<g id="node4" class="node">
<title>DiagStep</title>
<path fill="#ede7f6" stroke="black" d="M122.25,-287.5C122.25,-287.5 47.75,-287.5 47.75,-287.5 41.75,-287.5 35.75,-281.5 35.75,-275.5 35.75,-275.5 35.75,-243.5 35.75,-243.5 35.75,-237.5 41.75,-231.5 47.75,-231.5 47.75,-231.5 122.25,-231.5 122.25,-231.5 128.25,-231.5 134.25,-237.5 134.25,-243.5 134.25,-243.5 134.25,-275.5 134.25,-275.5 134.25,-281.5 128.25,-287.5 122.25,-287.5"/>
<text xml:space="preserve" text-anchor="middle" x="85" y="-274" font-family="Arial" font-size="10.00">:DiagnosticStep</text>
<text xml:space="preserve" text-anchor="middle" x="85" y="-262" font-family="Arial" font-size="10.00">step_id (UNIQUE)</text>
<text xml:space="preserve" text-anchor="middle" x="85" y="-250" font-family="Arial" font-size="10.00">description · order</text>
<text xml:space="preserve" text-anchor="middle" x="85" y="-238" font-family="Arial" font-size="10.00">expected_outcome</text>
</g>
<!-- Product&#45;&gt;DiagStep -->
<g id="edge3" class="edge">
<title>Product&#45;&gt;DiagStep</title>
<path fill="none" stroke="black" d="M132.66,-333.73C124.01,-328.84 115.76,-322.97 109,-316 104.06,-310.91 100.06,-304.63 96.84,-298.16"/>
<polygon fill="black" stroke="black" points="100.21,-297.12 93.01,-289.35 93.79,-299.91 100.21,-297.12"/>
<text xml:space="preserve" text-anchor="middle" x="163" y="-307.45" font-family="Arial" font-size="9.00">HAS_DIAGNOSTIC_STEP</text>
</g>
<!-- Symptom&#45;&gt;FailureMode -->
<g id="edge4" class="edge">
<title>Symptom&#45;&gt;FailureMode</title>
<path fill="none" stroke="black" d="M211,-237.1C211,-222.66 211,-203.2 211,-186.11"/>
<polygon fill="black" stroke="black" points="214.5,-186.26 211,-176.26 207.5,-186.26 214.5,-186.26"/>
<text xml:space="preserve" text-anchor="middle" x="254.12" y="-204.95" font-family="Arial" font-size="9.00">INDICATES</text>
<text xml:space="preserve" text-anchor="middle" x="254.12" y="-194.45" font-family="Arial" font-size="9.00">{confidence: 0.0–1.0}</text>
</g>
<!-- Part -->
<g id="node5" class="node">
<title>Part</title>
<path fill="#e7e6e6" stroke="black" d="M250.5,-72C250.5,-72 171.5,-72 171.5,-72 165.5,-72 159.5,-66 159.5,-60 159.5,-60 159.5,-28 159.5,-28 159.5,-22 165.5,-16 171.5,-16 171.5,-16 250.5,-16 250.5,-16 256.5,-16 262.5,-22 262.5,-28 262.5,-28 262.5,-60 262.5,-60 262.5,-66 256.5,-72 250.5,-72"/>
<text xml:space="preserve" text-anchor="middle" x="211" y="-58.5" font-family="Arial" font-size="10.00">:Part</text>
<text xml:space="preserve" text-anchor="middle" x="211" y="-46.5" font-family="Arial" font-size="10.00">part_id (UNIQUE)</text>
<text xml:space="preserve" text-anchor="middle" x="211" y="-34.5" font-family="Arial" font-size="10.00">name · part_number</text>
<text xml:space="preserve" text-anchor="middle" x="211" y="-22.5" font-family="Arial" font-size="10.00">cost</text>
</g>
<!-- FailureMode&#45;&gt;Part -->
<g id="edge5" class="edge">
<title>FailureMode&#45;&gt;Part</title>
<path fill="none" stroke="black" d="M211,-118.04C211,-107.51 211,-95.3 211,-83.9"/>
<polygon fill="black" stroke="black" points="214.5,-83.94 211,-73.94 207.5,-83.94 214.5,-83.94"/>
<text xml:space="preserve" text-anchor="middle" x="248.5" y="-91.95" font-family="Arial" font-size="9.00">REQUIRES_PART</text>
</g>
<!-- HistRes -->
<g id="node6" class="node">
<title>HistRes</title>
<path fill="#fce4d6" stroke="black" d="M156.75,-483.61C156.75,-483.61 61.25,-483.61 61.25,-483.61 55.25,-483.61 49.25,-477.61 49.25,-471.61 49.25,-471.61 49.25,-439.61 49.25,-439.61 49.25,-433.61 55.25,-427.61 61.25,-427.61 61.25,-427.61 156.75,-427.61 156.75,-427.61 162.75,-427.61 168.75,-433.61 168.75,-439.61 168.75,-439.61 168.75,-471.61 168.75,-471.61 168.75,-477.61 162.75,-483.61 156.75,-483.61"/>
<text xml:space="preserve" text-anchor="middle" x="109" y="-470.11" font-family="Arial" font-size="10.00">:HistoricalResolution</text>
<text xml:space="preserve" text-anchor="middle" x="109" y="-458.11" font-family="Arial" font-size="10.00">resolution_id (UNIQUE)</text>
<text xml:space="preserve" text-anchor="middle" x="109" y="-446.11" font-family="Arial" font-size="10.00">description · date</text>
<text xml:space="preserve" text-anchor="middle" x="109" y="-434.11" font-family="Arial" font-size="10.00">technician_notes</text>
</g>
<!-- HistRes&#45;&gt;Product -->
<g id="edge6" class="edge">
<title>HistRes&#45;&gt;Product</title>
<path fill="none" stroke="black" d="M132.34,-427.16C143.02,-414.61 155.69,-399.71 166.6,-386.87"/>
<polygon fill="black" stroke="black" points="169.04,-389.41 172.85,-379.52 163.7,-384.88 169.04,-389.41"/>
<text xml:space="preserve" text-anchor="middle" x="192.43" y="-397.95" font-family="Arial" font-size="9.00">FOR_PRODUCT</text>
</g>
<!-- HistRes&#45;&gt;FailureMode -->
<g id="edge7" class="edge">
<title>HistRes&#45;&gt;FailureMode</title>
<path fill="none" stroke="black" d="M84.05,-427.47C46.93,-383.64 -14.28,-295.72 27,-231.5 49.29,-196.82 89.84,-176.28 127.21,-164.21"/>
<polygon fill="black" stroke="black" points="128.17,-167.57 136.71,-161.31 126.13,-160.88 128.17,-167.57"/>
<text xml:space="preserve" text-anchor="middle" x="45.56" y="-307.45" font-family="Arial" font-size="9.00">CONFIRMED</text>
</g>
<!-- WM -->
<g id="node7" class="node">
<title>WM</title>
<path fill="#bdd7ee" stroke="black" d="M739.75,-374C739.75,-374 602.25,-374 602.25,-374 596.25,-374 590.25,-368 590.25,-362 590.25,-362 590.25,-350 590.25,-350 590.25,-344 596.25,-338 602.25,-338 602.25,-338 739.75,-338 739.75,-338 745.75,-338 751.75,-344 751.75,-350 751.75,-350 751.75,-362 751.75,-362 751.75,-368 745.75,-374 739.75,-374"/>
<text xml:space="preserve" text-anchor="middle" x="671" y="-358.5" font-family="Arial" font-size="10.00">wm&#45;001</text>
<text xml:space="preserve" text-anchor="middle" x="671" y="-346.5" font-family="Arial" font-size="10.00">Front Load Washing Machine 8kg</text>
</g>
<!-- S01 -->
<g id="node8" class="node">
<title>S01</title>
<ellipse fill="none" stroke="black" cx="961" cy="-259.5" rx="73.36" ry="22.63"/>
<text xml:space="preserve" text-anchor="middle" x="961" y="-262" font-family="Arial" font-size="10.00">wm&#45;s01</text>
<text xml:space="preserve" text-anchor="middle" x="961" y="-250" font-family="Arial" font-size="10.00">Does not spin [high]</text>
</g>
<!-- WM&#45;&gt;S01 -->
<g id="edge8" class="edge">
<title>WM&#45;&gt;S01</title>
<path fill="none" stroke="#666666" d="M752.08,-340.39C781.14,-334.17 813.9,-326.01 843,-316 867.56,-307.55 893.81,-295.53 915.29,-284.83"/>
<polygon fill="#666666" stroke="#666666" points="916.73,-288.03 924.08,-280.39 913.58,-281.78 916.73,-288.03"/>
<text xml:space="preserve" text-anchor="middle" x="904.16" y="-307.45" font-family="Arial" font-size="9.00">HAS_SYMPTOM</text>
</g>
<!-- S03 -->
<g id="node9" class="node">
<title>S03</title>
<ellipse fill="none" stroke="black" cx="537" cy="-259.5" rx="73.36" ry="22.63"/>
<text xml:space="preserve" text-anchor="middle" x="537" y="-262" font-family="Arial" font-size="10.00">wm&#45;s03</text>
<text xml:space="preserve" text-anchor="middle" x="537" y="-250" font-family="Arial" font-size="10.00">Water in drum [high]</text>
</g>
<!-- WM&#45;&gt;S03 -->
<g id="edge9" class="edge">
<title>WM&#45;&gt;S03</title>
<path fill="none" stroke="#666666" d="M609.03,-337.55C595.93,-332.03 582.81,-324.96 572,-316 564.18,-309.52 557.56,-300.83 552.26,-292.25"/>
<polygon fill="#666666" stroke="#666666" points="555.37,-290.64 547.39,-283.68 549.29,-294.1 555.37,-290.64"/>
<text xml:space="preserve" text-anchor="middle" x="606.5" y="-307.45" font-family="Arial" font-size="9.00">HAS_SYMPTOM</text>
</g>
<!-- FM01 -->
<g id="node10" class="node">
<title>FM01</title>
<ellipse fill="none" stroke="black" cx="961" cy="-146.5" rx="60.1" ry="22.63"/>
<text xml:space="preserve" text-anchor="middle" x="961" y="-149" font-family="Arial" font-size="10.00">wm&#45;fm01</text>
<text xml:space="preserve" text-anchor="middle" x="961" y="-137" font-family="Arial" font-size="10.00">Worn Drive Belt</text>
</g>
<!-- WM&#45;&gt;FM01 -->
<g id="edge10" class="edge">
<title>WM&#45;&gt;FM01</title>
<path fill="none" stroke="#666666" d="M661.62,-337.86C648.91,-312.02 630.36,-262.81 654.25,-231.5 683.12,-193.66 812.21,-168.69 893.45,-156.42"/>
<polygon fill="#666666" stroke="#666666" points="893.71,-159.92 903.09,-154.99 892.68,-153 893.71,-159.92"/>
<text xml:space="preserve" text-anchor="middle" x="678.62" y="-256.2" font-family="Arial" font-size="9.00">CAN_HAVE</text>
</g>
<!-- FM02 -->
<g id="node11" class="node">
<title>FM02</title>
<ellipse fill="none" stroke="black" cx="471" cy="-146.5" rx="68.59" ry="22.63"/>
<text xml:space="preserve" text-anchor="middle" x="471" y="-149" font-family="Arial" font-size="10.00">wm&#45;fm02</text>
<text xml:space="preserve" text-anchor="middle" x="471" y="-137" font-family="Arial" font-size="10.00">Failed Drain Pump</text>
</g>
<!-- WM&#45;&gt;FM02 -->
<g id="edge11" class="edge">
<title>WM&#45;&gt;FM02</title>
<path fill="none" stroke="#666666" d="M590.09,-345.28C520.81,-335.09 428.77,-316.48 406.25,-287.5 379.52,-253.09 412.92,-205.87 440.82,-176.02"/>
<polygon fill="#666666" stroke="#666666" points="443,-178.8 447.43,-169.18 437.97,-173.93 443,-178.8"/>
<text xml:space="preserve" text-anchor="middle" x="430.62" y="-256.2" font-family="Arial" font-size="9.00">CAN_HAVE</text>
</g>
<!-- D01 -->
<g id="node12" class="node">
<title>D01</title>
<ellipse fill="none" stroke="black" cx="791" cy="-259.5" rx="78.67" ry="22.63"/>
<text xml:space="preserve" text-anchor="middle" x="791" y="-262" font-family="Arial" font-size="10.00">wm&#45;d01</text>
<text xml:space="preserve" text-anchor="middle" x="791" y="-250" font-family="Arial" font-size="10.00">Run empty spin cycle</text>
</g>
<!-- WM&#45;&gt;D01 -->
<g id="edge12" class="edge">
<title>WM&#45;&gt;D01</title>
<path fill="none" stroke="#666666" d="M693.01,-337.67C710.61,-323.81 735.63,-304.11 755.97,-288.08"/>
<polygon fill="#666666" stroke="#666666" points="758.07,-290.89 763.76,-281.95 753.74,-285.39 758.07,-290.89"/>
<text xml:space="preserve" text-anchor="middle" x="785" y="-307.45" font-family="Arial" font-size="9.00">HAS_DIAGNOSTIC_STEP</text>
</g>
<!-- S01&#45;&gt;FM01 -->
<g id="edge13" class="edge">
<title>S01&#45;&gt;FM01</title>
<path fill="none" stroke="#2e75b6" d="M961,-236.57C961,-220.68 961,-198.92 961,-180.88"/>
<polygon fill="#2e75b6" stroke="#2e75b6" points="964.5,-180.9 961,-170.9 957.5,-180.9 964.5,-180.9"/>
<text xml:space="preserve" text-anchor="middle" x="994.75" y="-199.7" font-family="Arial" font-size="9.00" fill="#2e75b6">INDICATES 0.92</text>
</g>
<!-- S03&#45;&gt;FM02 -->
<g id="edge14" class="edge">
<title>S03&#45;&gt;FM02</title>
<path fill="none" stroke="#2e75b6" d="M524.12,-236.83C514.31,-220.33 500.66,-197.38 489.65,-178.87"/>
<polygon fill="#2e75b6" stroke="#2e75b6" points="492.74,-177.22 484.62,-170.41 486.73,-180.8 492.74,-177.22"/>
<text xml:space="preserve" text-anchor="middle" x="543.66" y="-199.7" font-family="Arial" font-size="9.00" fill="#2e75b6">INDICATES 0.88</text>
</g>
<!-- R01 -->
<g id="node13" class="node">
<title>R01</title>
<ellipse fill="none" stroke="black" cx="911" cy="-455.61" rx="70.71" ry="31.11"/>
<text xml:space="preserve" text-anchor="middle" x="911" y="-464.11" font-family="Arial" font-size="10.00">wm&#45;r01</text>
<text xml:space="preserve" text-anchor="middle" x="911" y="-452.11" font-family="Arial" font-size="10.00">Replaced drive belt</text>
<text xml:space="preserve" text-anchor="middle" x="911" y="-440.11" font-family="Arial" font-size="10.00">2025&#45;11&#45;12</text>
</g>
<!-- R01&#45;&gt;WM -->
<g id="edge15" class="edge">
<title>R01&#45;&gt;WM</title>
<path fill="none" stroke="#666666" d="M859.81,-433.79C819.87,-417.55 764.58,-395.06 724.16,-378.62"/>
<polygon fill="#666666" stroke="#666666" points="725.68,-375.46 715.1,-374.94 723.04,-381.95 725.68,-375.46"/>
<text xml:space="preserve" text-anchor="middle" x="825.5" y="-397.95" font-family="Arial" font-size="9.00">FOR_PRODUCT</text>
</g>
<!-- R01&#45;&gt;FM01 -->
<g id="edge16" class="edge">
<title>R01&#45;&gt;FM01</title>
<path fill="none" stroke="#666666" d="M942.48,-427.29C974.83,-396.93 1023.17,-344.6 1043,-287.5 1056.93,-247.39 1058.07,-226.77 1033,-192.5 1026.61,-183.76 1017.95,-176.33 1008.86,-170.18"/>
<polygon fill="#666666" stroke="#666666" points="1010.93,-167.34 1000.59,-165.03 1007.23,-173.28 1010.93,-167.34"/>
<text xml:space="preserve" text-anchor="middle" x="1062.98" y="-307.45" font-family="Arial" font-size="9.00">CONFIRMED</text>
</g>
</g>
</svg>
