<?xml version="1.0" encoding="UTF-8" standalone="no"?>
<!DOCTYPE svg PUBLIC "-//W3C//DTD SVG 1.1//EN"
 "http://www.w3.org/Graphics/SVG/1.1/DTD/svg11.dtd">
<!-- Generated by graphviz version 14.1.5 (20260411.2331)
 -->
<!-- Title: ETLPipeline Pages: 1 -->
<svg width="1563pt" height="330pt"
 viewBox="0.00 0.00 1563.00 330.00" xmlns="http://www.w3.org/2000/svg" xmlns:xlink="http://www.w3.org/1999/xlink">
<g id="graph0" class="graph" transform="scale(1 1) rotate(0) translate(4 325.75)">
<title>ETLPipeline</title>
<polygon fill="white" stroke="none" points="-4,4 -4,-325.75 1559,-325.75 1559,4 -4,4"/>
<text xml:space="preserve" text-anchor="middle" x="777.5" y="-304.45" font-family="Arial" font-size="14.00">Figure 6: Enterprise Knowledge Graph ETL Pipeline</text>
<g id="clust1" class="cluster">
<title>cluster_sources</title>
<polygon fill="white" stroke="#666666" points="0,-8 0,-290 214,-290 214,-8 0,-8"/>
<text xml:space="preserve" text-anchor="middle" x="107" y="-272.7" font-family="Arial" font-size="14.00">Extract — Enterprise Connectors</text>
</g>
<g id="clust2" class="cluster">
<title>cluster_transform</title>
<polygon fill="white" stroke="#bf8f00" points="267,-106 267,-202 965,-202 965,-106 267,-106"/>
<text xml:space="preserve" text-anchor="middle" x="616" y="-184.7" font-family="Arial" font-size="14.00">Transform</text>
</g>
<g id="clust3" class="cluster">
<title>cluster_load</title>
<polygon fill="white" stroke="#843c0c" points="1035.25,-112 1035.25,-196 1366.25,-196 1366.25,-112 1035.25,-112"/>
<text xml:space="preserve" text-anchor="middle" x="1200.75" y="-178.7" font-family="Arial" font-size="14.00">Load</text>
</g>
<!-- PIM -->
<g id="node1" class="node">
<title>PIM</title>
<path fill="#ededed" stroke="black" d="M149.38,-258C149.38,-258 63.62,-258 63.62,-258 57.62,-258 51.62,-252 51.62,-246 51.62,-246 51.62,-226 51.62,-226 51.62,-220 57.62,-214 63.62,-214 63.62,-214 149.38,-214 149.38,-214 155.38,-214 161.38,-220 161.38,-226 161.38,-226 161.38,-246 161.38,-246 161.38,-252 155.38,-258 149.38,-258"/>
<text xml:space="preserve" text-anchor="middle" x="106.5" y="-244.5" font-family="Arial" font-size="10.00">PIMConnector</text>
<text xml:space="preserve" text-anchor="middle" x="106.5" y="-232.5" font-family="Arial" font-size="10.00">pim_catalog.json</text>
<text xml:space="preserve" text-anchor="middle" x="106.5" y="-220.5" font-family="Arial" font-size="10.00">(API: PIM_API_URL)</text>
</g>
<!-- Fetch -->
<g id="node5" class="node">
<title>Fetch</title>
<path fill="#ffe699" stroke="black" d="M364.5,-160C364.5,-160 287,-160 287,-160 281,-160 275,-154 275,-148 275,-148 275,-136 275,-136 275,-130 281,-124 287,-124 287,-124 364.5,-124 364.5,-124 370.5,-124 376.5,-130 376.5,-136 376.5,-136 376.5,-148 376.5,-148 376.5,-154 370.5,-160 364.5,-160"/>
<text xml:space="preserve" text-anchor="middle" x="325.75" y="-144.5" font-family="Arial" font-size="10.00">run_pipeline()</text>
<text xml:space="preserve" text-anchor="middle" x="325.75" y="-132.5" font-family="Arial" font-size="10.00">fetch all connectors</text>
</g>
<!-- PIM&#45;&gt;Fetch -->
<g id="edge1" class="edge">
<title>PIM&#45;&gt;Fetch</title>
<path fill="none" stroke="#444444" d="M161.71,-222.87C178.74,-218.04 197.42,-212.02 214,-205 239.21,-194.33 265.93,-179.26 286.8,-166.53"/>
<polygon fill="#444444" stroke="#444444" points="288.6,-169.53 295.26,-161.29 284.92,-163.58 288.6,-169.53"/>
</g>
<!-- FSM -->
<g id="node2" class="node">
<title>FSM</title>
<path fill="#ededed" stroke="black" d="M150.88,-196C150.88,-196 62.12,-196 62.12,-196 56.12,-196 50.12,-190 50.12,-184 50.12,-184 50.12,-164 50.12,-164 50.12,-158 56.12,-152 62.12,-152 62.12,-152 150.88,-152 150.88,-152 156.88,-152 162.88,-158 162.88,-164 162.88,-164 162.88,-184 162.88,-184 162.88,-190 156.88,-196 150.88,-196"/>
<text xml:space="preserve" text-anchor="middle" x="106.5" y="-182.5" font-family="Arial" font-size="10.00">FSMConnector</text>
<text xml:space="preserve" text-anchor="middle" x="106.5" y="-170.5" font-family="Arial" font-size="10.00">fsm_work_orders.json</text>
<text xml:space="preserve" text-anchor="middle" x="106.5" y="-158.5" font-family="Arial" font-size="10.00">(API: FSM_API_URL)</text>
</g>
<!-- FSM&#45;&gt;Fetch -->
<g id="edge2" class="edge">
<title>FSM&#45;&gt;Fetch</title>
<path fill="none" stroke="#444444" d="M163.17,-165.8C193.84,-161.28 231.99,-155.66 263.51,-151.02"/>
<polygon fill="#444444" stroke="#444444" points="263.91,-154.5 273.3,-149.58 262.89,-147.57 263.91,-154.5"/>
</g>
<!-- Claims -->
<g id="node3" class="node">
<title>Claims</title>
<path fill="#ededed" stroke="black" d="M159.12,-134C159.12,-134 53.87,-134 53.87,-134 47.88,-134 41.88,-128 41.88,-122 41.88,-122 41.88,-102 41.88,-102 41.88,-96 47.88,-90 53.88,-90 53.88,-90 159.12,-90 159.12,-90 165.12,-90 171.12,-96 171.12,-102 171.12,-102 171.12,-122 171.12,-122 171.12,-128 165.12,-134 159.12,-134"/>
<text xml:space="preserve" text-anchor="middle" x="106.5" y="-120.5" font-family="Arial" font-size="10.00">ClaimsConnector</text>
<text xml:space="preserve" text-anchor="middle" x="106.5" y="-108.5" font-family="Arial" font-size="10.00">claims_history.json</text>
<text xml:space="preserve" text-anchor="middle" x="106.5" y="-96.5" font-family="Arial" font-size="10.00">(API: CLAIMS_API_URL)</text>
</g>
<!-- Claims&#45;&gt;Fetch -->
<g id="edge3" class="edge">
<title>Claims&#45;&gt;Fetch</title>
<path fill="none" stroke="#444444" d="M171.51,-120.84C200.57,-124.85 234.78,-129.58 263.51,-133.54"/>
<polygon fill="#444444" stroke="#444444" points="262.74,-136.97 273.13,-134.87 263.7,-130.04 262.74,-136.97"/>
</g>
<!-- CRM -->
<g id="node4" class="node">
<title>CRM</title>
<path fill="#e8e8e8" stroke="black" d="M143,-72C143,-72 70,-72 70,-72 64,-72 58,-66 58,-60 58,-60 58,-28 58,-28 58,-22 64,-16 70,-16 70,-16 143,-16 143,-16 149,-16 155,-22 155,-28 155,-28 155,-60 155,-60 155,-66 149,-72 143,-72"/>
<text xml:space="preserve" text-anchor="middle" x="106.5" y="-58.5" font-family="Arial" font-size="10.00">CRMConnector</text>
<text xml:space="preserve" text-anchor="middle" x="106.5" y="-46.5" font-family="Arial" font-size="10.00">crm_assets.json</text>
<text xml:space="preserve" text-anchor="middle" x="106.5" y="-34.5" font-family="Arial" font-size="10.00">(runtime context;</text>
<text xml:space="preserve" text-anchor="middle" x="106.5" y="-22.5" font-family="Arial" font-size="10.00">not in static graph)</text>
</g>
<!-- CRM&#45;&gt;Fetch -->
<g id="edge4" class="edge">
<title>CRM&#45;&gt;Fetch</title>
<path fill="none" stroke="#444444" stroke-dasharray="5,2" d="M155.35,-58.71C173.93,-64.91 195.22,-72.64 214,-81 238.3,-91.82 264.41,-106.06 285.17,-118.07"/>
<polygon fill="#444444" stroke="#444444" points="283.19,-120.96 293.59,-122.99 286.72,-114.92 283.19,-120.96"/>
<text xml:space="preserve" text-anchor="middle" x="240.5" y="-102.94" font-family="Arial" font-size="9.00">optional</text>
</g>
<!-- Build -->
<g id="node6" class="node">
<title>Build</title>
<path fill="#ffd966" stroke="black" d="M550.25,-170C550.25,-170 425.5,-170 425.5,-170 419.5,-170 413.5,-164 413.5,-158 413.5,-158 413.5,-126 413.5,-126 413.5,-120 419.5,-114 425.5,-114 425.5,-114 550.25,-114 550.25,-114 556.25,-114 562.25,-120 562.25,-126 562.25,-126 562.25,-158 562.25,-158 562.25,-164 556.25,-170 550.25,-170"/>
<text xml:space="preserve" text-anchor="middle" x="487.88" y="-156.5" font-family="Arial" font-size="10.00">OntologyBuilder.build()</text>
<text xml:space="preserve" text-anchor="middle" x="487.88" y="-144.5" font-family="Arial" font-size="10.00">• merge PIM base catalog</text>
<text xml:space="preserve" text-anchor="middle" x="487.88" y="-132.5" font-family="Arial" font-size="10.00">• add FSM/Claims resolutions</text>
<text xml:space="preserve" text-anchor="middle" x="487.88" y="-120.5" font-family="Arial" font-size="10.00">• tune INDICATES confidence</text>
</g>
<!-- Fetch&#45;&gt;Build -->
<g id="edge5" class="edge">
<title>Fetch&#45;&gt;Build</title>
<path fill="none" stroke="#444444" d="M376.98,-142C384.86,-142 393.19,-142 401.6,-142"/>
<polygon fill="#444444" stroke="#444444" points="401.56,-145.5 411.56,-142 401.56,-138.5 401.56,-145.5"/>
</g>
<!-- Validate -->
<g id="node7" class="node">
<title>Validate</title>
<path fill="#fff2cc" stroke="black" d="M739.75,-160C739.75,-160 611.25,-160 611.25,-160 605.25,-160 599.25,-154 599.25,-148 599.25,-148 599.25,-136 599.25,-136 599.25,-130 605.25,-124 611.25,-124 611.25,-124 739.75,-124 739.75,-124 745.75,-124 751.75,-130 751.75,-136 751.75,-136 751.75,-148 751.75,-148 751.75,-154 745.75,-160 739.75,-160"/>
<text xml:space="preserve" text-anchor="middle" x="675.5" y="-144.5" font-family="Arial" font-size="10.00">Pydantic KnowledgeGraphData</text>
<text xml:space="preserve" text-anchor="middle" x="675.5" y="-132.5" font-family="Arial" font-size="10.00">model validation</text>
</g>
<!-- Build&#45;&gt;Validate -->
<g id="edge6" class="edge">
<title>Build&#45;&gt;Validate</title>
<path fill="none" stroke="#444444" d="M562.51,-142C570.72,-142 579.14,-142 587.5,-142"/>
<polygon fill="#444444" stroke="#444444" points="587.32,-145.5 597.32,-142 587.32,-138.5 587.32,-145.5"/>
</g>
<!-- JSON -->
<g id="node8" class="node">
<title>JSON</title>
<polygon fill="#fff2cc" stroke="black" points="951,-160 788.75,-160 788.75,-124 957,-124 957,-154 951,-160"/>
<polyline fill="none" stroke="black" points="951,-160 951,-154"/>
<polyline fill="none" stroke="black" points="957,-154 951,-154"/>
<text xml:space="preserve" text-anchor="middle" x="872.88" y="-144.5" font-family="Arial" font-size="10.00">enterprise_knowledge_catalog.json</text>
<text xml:space="preserve" text-anchor="middle" x="872.88" y="-132.5" font-family="Arial" font-size="10.00">synthetic_diagnosis_data.json</text>
</g>
<!-- Validate&#45;&gt;JSON -->
<g id="edge7" class="edge">
<title>Validate&#45;&gt;JSON</title>
<path fill="none" stroke="#444444" d="M752.04,-142C760.23,-142 768.65,-142 777.03,-142"/>
<polygon fill="#444444" stroke="#444444" points="776.91,-145.5 786.91,-142 776.91,-138.5 776.91,-145.5"/>
</g>
<!-- PG -->
<g id="node9" class="node">
<title>PG</title>
<path fill="#fce4d6" stroke="black" d="M1187.5,-164C1187.5,-164 1055.25,-164 1055.25,-164 1049.25,-164 1043.25,-158 1043.25,-152 1043.25,-152 1043.25,-132 1043.25,-132 1043.25,-126 1049.25,-120 1055.25,-120 1055.25,-120 1187.5,-120 1187.5,-120 1193.5,-120 1199.5,-126 1199.5,-132 1199.5,-132 1199.5,-152 1199.5,-152 1199.5,-158 1193.5,-164 1187.5,-164"/>
<text xml:space="preserve" text-anchor="middle" x="1121.38" y="-150.5" font-family="Arial" font-size="10.00">populate_graph.py</text>
<text xml:space="preserve" text-anchor="middle" x="1121.38" y="-138.5" font-family="Arial" font-size="10.00">• create_constraints</text>
<text xml:space="preserve" text-anchor="middle" x="1121.38" y="-126.5" font-family="Arial" font-size="10.00">• MERGE nodes &amp; relationships</text>
</g>
<!-- JSON&#45;&gt;PG -->
<g id="edge8" class="edge">
<title>JSON&#45;&gt;PG</title>
<path fill="none" stroke="#444444" d="M957.33,-142C981.2,-142 1007.31,-142 1031.49,-142"/>
<polygon fill="#444444" stroke="#444444" points="1031.31,-145.5 1041.31,-142 1031.31,-138.5 1031.31,-145.5"/>
<text xml:space="preserve" text-anchor="middle" x="1000.12" y="-143.95" font-family="Arial" font-size="9.00">&#45;&#45;load&#45;neo4j</text>
</g>
<!-- Neo4j -->
<g id="node10" class="node">
<title>Neo4j</title>
<path fill="#f4b084" stroke="black" d="M1358.25,-156.73C1358.25,-158.53 1330.96,-160 1297.38,-160 1263.79,-160 1236.5,-158.53 1236.5,-156.73 1236.5,-156.73 1236.5,-127.27 1236.5,-127.27 1236.5,-125.47 1263.79,-124 1297.38,-124 1330.96,-124 1358.25,-125.47 1358.25,-127.27 1358.25,-127.27 1358.25,-156.73 1358.25,-156.73"/>
<path fill="none" stroke="black" d="M1358.25,-156.73C1358.25,-154.92 1330.96,-153.45 1297.38,-153.45 1263.79,-153.45 1236.5,-154.92 1236.5,-156.73"/>
<text xml:space="preserve" text-anchor="middle" x="1297.38" y="-138.5" font-family="Arial" font-size="10.00">Neo4j Knowledge Graph</text>
</g>
<!-- PG&#45;&gt;Neo4j -->
<g id="edge9" class="edge">
<title>PG&#45;&gt;Neo4j</title>
<path fill="none" stroke="#444444" d="M1199.96,-142C1208.21,-142 1216.58,-142 1224.76,-142"/>
<polygon fill="#444444" stroke="#444444" points="1224.66,-145.5 1234.66,-142 1224.66,-138.5 1224.66,-145.5"/>
</g>
<!-- GR -->
<g id="node11" class="node">
<title>GR</title>
<path fill="#c6e0b4" stroke="black" d="M1543,-160C1543,-160 1467.75,-160 1467.75,-160 1461.75,-160 1455.75,-154 1455.75,-148 1455.75,-148 1455.75,-136 1455.75,-136 1455.75,-130 1461.75,-124 1467.75,-124 1467.75,-124 1543,-124 1543,-124 1549,-124 1555,-130 1555,-136 1555,-136 1555,-148 1555,-148 1555,-154 1549,-160 1543,-160"/>
<text xml:space="preserve" text-anchor="middle" x="1505.38" y="-138.5" font-family="Arial" font-size="10.00">graph/graph_rag.py</text>
</g>
<!-- Neo4j&#45;&gt;GR -->
<g id="edge10" class="edge">
<title>Neo4j&#45;&gt;GR</title>
<path fill="none" stroke="#444444" stroke-dasharray="5,2" d="M1358.51,-142C1385.43,-142 1417.09,-142 1444.03,-142"/>
<polygon fill="#444444" stroke="#444444" points="1443.74,-145.5 1453.74,-142 1443.74,-138.5 1443.74,-145.5"/>
<text xml:space="preserve" text-anchor="middle" x="1407" y="-143.95" font-family="Arial" font-size="9.00">read at runtime</text>
</g>
</g>
</svg>
