<?xml version="1.0" encoding="UTF-8" standalone="no"?>
<!DOCTYPE svg PUBLIC "-//W3C//DTD SVG 1.1//EN"
 "http://www.w3.org/Graphics/SVG/1.1/DTD/svg11.dtd">
<!-- Generated by graphviz version 14.1.5 (20260411.2331)
 -->
<!-- Title: EscalationDecision Pages: 1 -->
<svg width="646pt" height="725pt"
 viewBox="0.00 0.00 646.00 725.00" xmlns="http://www.w3.org/2000/svg" xmlns:xlink="http://www.w3.org/1999/xlink">
<g id="graph0" class="graph" transform="scale(1 1) rotate(0) translate(4 721.25)">
<title>EscalationDecision</title>
<polygon fill="white" stroke="none" points="-4,4 -4,-721.25 641.75,-721.25 641.75,4 -4,4"/>
<text xml:space="preserve" text-anchor="middle" x="318.88" y="-699.95" font-family="Arial" font-size="14.00">Figure 7: Escalation Decision &amp; Human Agent Handoff</text>
<!-- Start -->
<g id="node1" class="node">
<title>Start</title>
<path fill="#d5e8f0" stroke="black" d="M538.75,-693.5C538.75,-693.5 453.75,-693.5 453.75,-693.5 447.75,-693.5 441.75,-687.5 441.75,-681.5 441.75,-681.5 441.75,-669.5 441.75,-669.5 441.75,-663.5 447.75,-657.5 453.75,-657.5 453.75,-657.5 538.75,-657.5 538.75,-657.5 544.75,-657.5 550.75,-663.5 550.75,-669.5 550.75,-669.5 550.75,-681.5 550.75,-681.5 550.75,-687.5 544.75,-693.5 538.75,-693.5"/>
<text xml:space="preserve" text-anchor="middle" x="496.25" y="-672" font-family="Arial" font-size="10.00">diagnose() completes</text>
</g>
<!-- Q1 -->
<g id="node2" class="node">
<title>Q1</title>
<polygon fill="#fff2cc" stroke="black" points="496.25,-620.5 435.25,-588.5 496.25,-556.5 557.25,-588.5 496.25,-620.5"/>
<text xml:space="preserve" text-anchor="middle" x="496.25" y="-591" font-family="Arial" font-size="10.00">product_id</text>
<text xml:space="preserve" text-anchor="middle" x="496.25" y="-579" font-family="Arial" font-size="10.00">identified?</text>
</g>
<!-- Start&#45;&gt;Q1 -->
<g id="edge1" class="edge">
<title>Start&#45;&gt;Q1</title>
<path fill="none" stroke="black" d="M496.25,-657.3C496.25,-649.93 496.25,-640.97 496.25,-632.01"/>
<polygon fill="black" stroke="black" points="499.75,-632.29 496.25,-622.29 492.75,-632.29 499.75,-632.29"/>
</g>
<!-- Q2 -->
<g id="node3" class="node">
<title>Q2</title>
<polygon fill="#fff2cc" stroke="black" points="424.25,-510 308.5,-478 424.25,-446 540,-478 424.25,-510"/>
<text xml:space="preserve" text-anchor="middle" x="424.25" y="-480.5" font-family="Arial" font-size="10.00">any matched symptom</text>
<text xml:space="preserve" text-anchor="middle" x="424.25" y="-468.5" font-family="Arial" font-size="10.00">severity = critical?</text>
</g>
<!-- Q1&#45;&gt;Q2 -->
<g id="edge3" class="edge">
<title>Q1&#45;&gt;Q2</title>
<path fill="none" stroke="black" d="M480.8,-564.22C471.2,-549.75 458.67,-530.86 447.84,-514.54"/>
<polygon fill="black" stroke="black" points="450.98,-512.94 442.53,-506.55 445.14,-516.81 450.98,-512.94"/>
<text xml:space="preserve" text-anchor="middle" x="469.91" y="-529.95" font-family="Arial" font-size="9.00">Yes</text>
</g>
<!-- Esc1 -->
<g id="node5" class="node">
<title>Esc1</title>
<path fill="#f8cbad" stroke="black" d="M625.75,-428C625.75,-428 510.75,-428 510.75,-428 504.75,-428 498.75,-422 498.75,-416 498.75,-416 498.75,-404 498.75,-404 498.75,-398 504.75,-392 510.75,-392 510.75,-392 625.75,-392 625.75,-392 631.75,-392 637.75,-398 637.75,-404 637.75,-404 637.75,-416 637.75,-416 637.75,-422 631.75,-428 625.75,-428"/>
<text xml:space="preserve" text-anchor="middle" x="568.25" y="-412.5" font-family="Arial" font-size="10.00">ESCALATE</text>
<text xml:space="preserve" text-anchor="middle" x="568.25" y="-400.5" font-family="Arial" font-size="10.00">Reason: unknown appliance</text>
</g>
<!-- Q1&#45;&gt;Esc1 -->
<g id="edge2" class="edge">
<title>Q1&#45;&gt;Esc1</title>
<path fill="none" stroke="black" d="M514.65,-565.87C526.3,-551.06 540.73,-530.46 549.25,-510 558.66,-487.42 563.46,-459.98 565.87,-439.72"/>
<polygon fill="black" stroke="black" points="569.34,-440.25 566.91,-429.94 562.38,-439.51 569.34,-440.25"/>
<text xml:space="preserve" text-anchor="middle" x="546.36" y="-529.95" font-family="Arial" font-size="9.00">No</text>
</g>
<!-- Q3 -->
<g id="node4" class="node">
<title>Q3</title>
<polygon fill="#fff2cc" stroke="black" points="225.25,-374 0,-342 225.25,-310 450.5,-342 225.25,-374"/>
<text xml:space="preserve" text-anchor="middle" x="225.25" y="-344.5" font-family="Arial" font-size="10.00">confidence &lt; 0.65?</text>
<text xml:space="preserve" text-anchor="middle" x="225.25" y="-332.5" font-family="Arial" font-size="10.00">(ESCALATION_CONFIDENCE_THRESHOLD)</text>
</g>
<!-- Q2&#45;&gt;Q3 -->
<g id="edge5" class="edge">
<title>Q2&#45;&gt;Q3</title>
<path fill="none" stroke="black" d="M391.39,-454.87C359.16,-433.17 309.68,-399.85 273.09,-375.21"/>
<polygon fill="black" stroke="black" points="275.12,-372.36 264.87,-369.68 271.21,-378.17 275.12,-372.36"/>
<text xml:space="preserve" text-anchor="middle" x="354.43" y="-406.7" font-family="Arial" font-size="9.00">No</text>
</g>
<!-- Esc2 -->
<g id="node6" class="node">
<title>Esc2</title>
<path fill="#f8cbad" stroke="black" d="M539.88,-292C539.88,-292 416.62,-292 416.62,-292 410.62,-292 404.62,-286 404.62,-280 404.62,-280 404.62,-248 404.62,-248 404.62,-242 410.62,-236 416.62,-236 416.62,-236 539.88,-236 539.88,-236 545.88,-236 551.88,-242 551.88,-248 551.88,-248 551.88,-280 551.88,-280 551.88,-286 545.88,-292 539.88,-292"/>
<text xml:space="preserve" text-anchor="middle" x="478.25" y="-278.5" font-family="Arial" font-size="10.00">ESCALATE</text>
<text xml:space="preserve" text-anchor="middle" x="478.25" y="-266.5" font-family="Arial" font-size="10.00">Reason: critical severity</text>
<text xml:space="preserve" text-anchor="middle" x="478.25" y="-254.5" font-family="Arial" font-size="10.00">(e.g. mw&#45;s01 microwave cold,</text>
<text xml:space="preserve" text-anchor="middle" x="478.25" y="-242.5" font-family="Arial" font-size="10.00">mw&#45;s02 arcing)</text>
</g>
<!-- Q2&#45;&gt;Esc2 -->
<g id="edge4" class="edge">
<title>Q2&#45;&gt;Esc2</title>
<path fill="none" stroke="black" d="M435.1,-448.94C442.71,-428.43 452.66,-399.8 459.25,-374 465.16,-350.87 469.81,-324.5 473.03,-303.5"/>
<polygon fill="black" stroke="black" points="476.49,-304.03 474.49,-293.62 469.56,-303 476.49,-304.03"/>
<text xml:space="preserve" text-anchor="middle" x="461.66" y="-406.7" font-family="Arial" font-size="9.00">Yes</text>
</g>
<!-- Esc3 -->
<g id="node7" class="node">
<title>Esc3</title>
<path fill="#f8cbad" stroke="black" d="M282,-218C282,-218 168.5,-218 168.5,-218 162.5,-218 156.5,-212 156.5,-206 156.5,-206 156.5,-174 156.5,-174 156.5,-168 162.5,-162 168.5,-162 168.5,-162 282,-162 282,-162 288,-162 294,-168 294,-174 294,-174 294,-206 294,-206 294,-212 288,-218 282,-218"/>
<text xml:space="preserve" text-anchor="middle" x="225.25" y="-204.5" font-family="Arial" font-size="10.00">ESCALATE</text>
<text xml:space="preserve" text-anchor="middle" x="225.25" y="-192.5" font-family="Arial" font-size="10.00">Reason: low confidence</text>
<text xml:space="preserve" text-anchor="middle" x="225.25" y="-180.5" font-family="Arial" font-size="10.00">(e.g. washer multi&#45;symptom</text>
<text xml:space="preserve" text-anchor="middle" x="225.25" y="-168.5" font-family="Arial" font-size="10.00">→ 46% aggregate)</text>
</g>
<!-- Q3&#45;&gt;Esc3 -->
<g id="edge6" class="edge">
<title>Q3&#45;&gt;Esc3</title>
<path fill="none" stroke="black" d="M225.25,-309.56C225.25,-286.27 225.25,-254.41 225.25,-229.58"/>
<polygon fill="black" stroke="black" points="228.75,-229.89 225.25,-219.89 221.75,-229.89 228.75,-229.89"/>
<text xml:space="preserve" text-anchor="middle" x="232.75" y="-260.7" font-family="Arial" font-size="9.00">Yes</text>
</g>
<!-- Resolve -->
<g id="node8" class="node">
<title>Resolve</title>
<path fill="#c6e0b4" stroke="black" d="M398.5,-212C398.5,-212 324,-212 324,-212 318,-212 312,-206 312,-200 312,-200 312,-180 312,-180 312,-174 318,-168 324,-168 324,-168 398.5,-168 398.5,-168 404.5,-168 410.5,-174 410.5,-180 410.5,-180 410.5,-200 410.5,-200 410.5,-206 404.5,-212 398.5,-212"/>
<text xml:space="preserve" text-anchor="middle" x="361.25" y="-198.5" font-family="Arial" font-size="10.00">NO ESCALATION</text>
<text xml:space="preserve" text-anchor="middle" x="361.25" y="-186.5" font-family="Arial" font-size="10.00">Customer receives</text>
<text xml:space="preserve" text-anchor="middle" x="361.25" y="-174.5" font-family="Arial" font-size="10.00">self&#45;service steps</text>
</g>
<!-- Q3&#45;&gt;Resolve -->
<g id="edge7" class="edge">
<title>Q3&#45;&gt;Resolve</title>
<path fill="none" stroke="black" d="M250.51,-313.14C274.36,-286.84 309.99,-247.54 334.36,-220.66"/>
<polygon fill="black" stroke="black" points="336.7,-223.29 340.82,-213.53 331.51,-218.59 336.7,-223.29"/>
<text xml:space="preserve" text-anchor="middle" x="323.26" y="-260.7" font-family="Arial" font-size="9.00">No</text>
</g>
<!-- Save -->
<g id="node9" class="node">
<title>Save</title>
<path fill="#fce4d6" stroke="black" d="M527.12,-125C527.12,-125 429.38,-125 429.38,-125 423.38,-125 417.38,-119 417.38,-113 417.38,-113 417.38,-93 417.38,-93 417.38,-87 423.38,-81 429.38,-81 429.38,-81 527.12,-81 527.12,-81 533.12,-81 539.12,-87 539.12,-93 539.12,-93 539.12,-113 539.12,-113 539.12,-119 533.12,-125 527.12,-125"/>
<text xml:space="preserve" text-anchor="middle" x="478.25" y="-111.5" font-family="Arial" font-size="10.00">save_escalation()</text>
<text xml:space="preserve" text-anchor="middle" x="478.25" y="-99.5" font-family="Arial" font-size="10.00">utils/escalation_store.py</text>
<text xml:space="preserve" text-anchor="middle" x="478.25" y="-87.5" font-family="Arial" font-size="10.00">→ data/escalations.json</text>
</g>
<!-- Esc1&#45;&gt;Save -->
<g id="edge8" class="edge">
<title>Esc1&#45;&gt;Save</title>
<path fill="none" stroke="black" d="M569.15,-391.84C570.29,-360.22 570.35,-290.98 553.25,-236 541.59,-198.51 518.1,-159.95 500.5,-134.27"/>
<polygon fill="black" stroke="black" points="503.55,-132.51 494.95,-126.32 497.81,-136.52 503.55,-132.51"/>
</g>
<!-- Esc2&#45;&gt;Save -->
<g id="edge9" class="edge">
<title>Esc2&#45;&gt;Save</title>
<path fill="none" stroke="black" d="M478.25,-235.67C478.25,-208.2 478.25,-165.85 478.25,-136.64"/>
<polygon fill="black" stroke="black" points="481.75,-136.9 478.25,-126.9 474.75,-136.9 481.75,-136.9"/>
</g>
<!-- Esc3&#45;&gt;Save -->
<g id="edge10" class="edge">
<title>Esc3&#45;&gt;Save</title>
<path fill="none" stroke="black" d="M294.14,-165.1C297.22,-164.05 300.26,-163.01 303.25,-162 337.01,-150.56 374.52,-138.1 406.12,-127.67"/>
<polygon fill="black" stroke="black" points="407.2,-131 415.6,-124.54 405.01,-124.35 407.2,-131"/>
</g>
<!-- Dashboard -->
<g id="node10" class="node">
<title>Dashboard</title>
<path fill="#bdd7ee" stroke="black" d="M529,-44C529,-44 427.5,-44 427.5,-44 421.5,-44 415.5,-38 415.5,-32 415.5,-32 415.5,-12 415.5,-12 415.5,-6 421.5,0 427.5,0 427.5,0 529,0 529,0 535,0 541,-6 541,-12 541,-12 541,-32 541,-32 541,-38 535,-44 529,-44"/>
<text xml:space="preserve" text-anchor="middle" x="478.25" y="-30.5" font-family="Arial" font-size="10.00">Human Agent Dashboard</text>
<text xml:space="preserve" text-anchor="middle" x="478.25" y="-18.5" font-family="Arial" font-size="10.00">ui/app.py Tab 2</text>
<text xml:space="preserve" text-anchor="middle" x="478.25" y="-6.5" font-family="Arial" font-size="10.00">Full diagnosis payload</text>
</g>
<!-- Save&#45;&gt;Dashboard -->
<g id="edge11" class="edge">
<title>Save&#45;&gt;Dashboard</title>
<path fill="none" stroke="black" d="M478.25,-80.83C478.25,-73.04 478.25,-64.02 478.25,-55.46"/>
<polygon fill="black" stroke="black" points="481.75,-55.74 478.25,-45.74 474.75,-55.74 481.75,-55.74"/>
</g>
</g>
</svg>
