<?xml version="1.0" encoding="UTF-8" standalone="no"?>
<!DOCTYPE svg PUBLIC "-//W3C//DTD SVG 1.1//EN"
 "http://www.w3.org/Graphics/SVG/1.1/DTD/svg11.dtd">
<!-- Generated by graphviz version 14.1.5 (20260411.2331)
 -->
<!-- Title: RuntimeSequence Pages: 1 -->
<svg width="1329pt" height="558pt"
 viewBox="0.00 0.00 1329.00 558.00" xmlns="http://www.w3.org/2000/svg" xmlns:xlink="http://www.w3.org/1999/xlink">
<g id="graph0" class="graph" transform="scale(1 1) rotate(0) translate(4 553.75)">
<title>RuntimeSequence</title>
<polygon fill="white" stroke="none" points="-4,4 -4,-553.75 1325,-553.75 1325,4 -4,4"/>
<text xml:space="preserve" text-anchor="middle" x="660.5" y="-532.45" font-family="Arial" font-size="14.00">[DEPRECATED — use 25&#45;architecture&#45;LLD&#45;diagnosis&#45;claim&#45;sequence.dot] Figure 8: Runtime Sequence</text>
<g id="clust1" class="cluster">
<title>cluster_row1</title>
<polygon fill="white" stroke="black" points="440,-277.25 440,-518 1082,-518 1082,-277.25 440,-277.25"/>
<text xml:space="preserve" text-anchor="middle" x="761" y="-500.7" font-family="Arial" font-size="14.00">[DEPRECATED — use 25&#45;architecture&#45;LLD&#45;diagnosis&#45;claim&#45;sequence.dot] Figure 8: Runtime Sequence</text>
</g>
<g id="clust2" class="cluster">
<title>cluster_row2</title>
<polygon fill="white" stroke="black" points="8,-8 8,-248.75 650,-248.75 650,-8 8,-8"/>
<text xml:space="preserve" text-anchor="middle" x="329" y="-231.45" font-family="Arial" font-size="14.00">[DEPRECATED — use 25&#45;architecture&#45;LLD&#45;diagnosis&#45;claim&#45;sequence.dot] Figure 8: Runtime Sequence</text>
</g>
<g id="clust3" class="cluster">
<title>cluster_row3</title>
<polygon fill="white" stroke="black" points="671,-90.5 671,-248.75 1313,-248.75 1313,-90.5 671,-90.5"/>
<text xml:space="preserve" text-anchor="middle" x="992" y="-231.45" font-family="Arial" font-size="14.00">[DEPRECATED — use 25&#45;architecture&#45;LLD&#45;diagnosis&#45;claim&#45;sequence.dot] Figure 8: Runtime Sequence</text>
</g>
<!-- C -->
<g id="node1" class="node">
<title>C</title>
<path fill="#d5e8f0" stroke="black" d="M855.2,-486.25C855.2,-486.25 720.8,-486.25 720.8,-486.25 714.8,-486.25 708.8,-480.25 708.8,-474.25 708.8,-474.25 708.8,-462.25 708.8,-462.25 708.8,-456.25 714.8,-450.25 720.8,-450.25 720.8,-450.25 855.2,-450.25 855.2,-450.25 861.2,-450.25 867.2,-456.25 867.2,-462.25 867.2,-462.25 867.2,-474.25 867.2,-474.25 867.2,-480.25 861.2,-486.25 855.2,-486.25"/>
<text xml:space="preserve" text-anchor="middle" x="788" y="-464.75" font-family="Arial" font-size="10.00">Customer</text>
</g>
<!-- UI -->
<g id="node2" class="node">
<title>UI</title>
<path fill="#bdd7ee" stroke="black" d="M856.2,-403.75C856.2,-403.75 721.8,-403.75 721.8,-403.75 715.8,-403.75 709.8,-397.75 709.8,-391.75 709.8,-391.75 709.8,-379.75 709.8,-379.75 709.8,-373.75 715.8,-367.75 721.8,-367.75 721.8,-367.75 856.2,-367.75 856.2,-367.75 862.2,-367.75 868.2,-373.75 868.2,-379.75 868.2,-379.75 868.2,-391.75 868.2,-391.75 868.2,-397.75 862.2,-403.75 856.2,-403.75"/>
<text xml:space="preserve" text-anchor="middle" x="789" y="-388.25" font-family="Arial" font-size="10.00">ui/app.py</text>
<text xml:space="preserve" text-anchor="middle" x="789" y="-376.25" font-family="Arial" font-size="10.00">Streamlit</text>
</g>
<!-- C&#45;&gt;UI -->
<g id="edge1" class="edge">
<title>C&#45;&gt;UI</title>
<path fill="none" stroke="black" d="M748.71,-449.77C737.81,-442.28 730.37,-432.71 736.25,-421.75 738.24,-418.05 740.81,-414.67 743.75,-411.6"/>
<polygon fill="black" stroke="black" points="745.85,-414.41 751.08,-405.19 741.25,-409.14 745.85,-414.41"/>
<text xml:space="preserve" text-anchor="middle" x="769.62" y="-423.7" font-family="Arial" font-size="9.00">1. chat message</text>
</g>
<!-- UI&#45;&gt;C -->
<g id="edge11" class="edge">
<title>UI&#45;&gt;C</title>
<path fill="none" stroke="black" d="M800.76,-404.16C805.03,-412.51 808.3,-422.74 806,-432.25 805.4,-434.73 804.59,-437.24 803.65,-439.7"/>
<polygon fill="black" stroke="black" points="800.5,-438.16 799.51,-448.71 806.86,-441.08 800.5,-438.16"/>
<text xml:space="preserve" text-anchor="middle" x="846.51" y="-423.7" font-family="Arial" font-size="9.00">11. markdown reply</text>
</g>
<!-- LG -->
<g id="node3" class="node">
<title>LG</title>
<path fill="#c6e0b4" stroke="black" d="M748.2,-321.25C748.2,-321.25 613.8,-321.25 613.8,-321.25 607.8,-321.25 601.8,-315.25 601.8,-309.25 601.8,-309.25 601.8,-297.25 601.8,-297.25 601.8,-291.25 607.8,-285.25 613.8,-285.25 613.8,-285.25 748.2,-285.25 748.2,-285.25 754.2,-285.25 760.2,-291.25 760.2,-297.25 760.2,-297.25 760.2,-309.25 760.2,-309.25 760.2,-315.25 754.2,-321.25 748.2,-321.25"/>
<text xml:space="preserve" text-anchor="middle" x="681" y="-305.75" font-family="Arial" font-size="10.00">diagnosis_graph.py</text>
<text xml:space="preserve" text-anchor="middle" x="681" y="-293.75" font-family="Arial" font-size="10.00">LangGraph</text>
</g>
<!-- UI&#45;&gt;LG -->
<g id="edge2" class="edge">
<title>UI&#45;&gt;LG</title>
<path fill="none" stroke="black" d="M709.34,-372.97C697.36,-367.73 686.46,-360.28 678.75,-349.75 675.16,-344.85 673.93,-338.8 673.96,-332.72"/>
<polygon fill="black" stroke="black" points="677.44,-333.15 675.12,-322.81 670.48,-332.34 677.44,-333.15"/>
<text xml:space="preserve" text-anchor="middle" x="715.88" y="-341.2" font-family="Arial" font-size="9.00">2. run_diagnosis()</text>
</g>
<!-- LG&#45;&gt;UI -->
<g id="edge10" class="edge">
<title>LG&#45;&gt;UI</title>
<path fill="none" stroke="black" d="M728,-321.71C737.81,-326.55 747.69,-332.39 756,-339.25 762.52,-344.63 768.41,-351.58 773.34,-358.42"/>
<polygon fill="black" stroke="black" points="770.13,-359.91 778.61,-366.26 775.94,-356.01 770.13,-359.91"/>
<text xml:space="preserve" text-anchor="middle" x="792.44" y="-341.2" font-family="Arial" font-size="9.00">10. response</text>
</g>
<!-- Tools -->
<g id="node4" class="node">
<title>Tools</title>
<path fill="#c6e0b4" stroke="black" d="M625.2,-217C625.2,-217 490.8,-217 490.8,-217 484.8,-217 478.8,-211 478.8,-205 478.8,-205 478.8,-193 478.8,-193 478.8,-187 484.8,-181 490.8,-181 490.8,-181 625.2,-181 625.2,-181 631.2,-181 637.2,-187 637.2,-193 637.2,-193 637.2,-205 637.2,-205 637.2,-211 631.2,-217 625.2,-217"/>
<text xml:space="preserve" text-anchor="middle" x="558" y="-195.5" font-family="Arial" font-size="10.00">agents/tools.py</text>
</g>
<!-- LG&#45;&gt;Tools -->
<g id="edge3" class="edge">
<title>LG&#45;&gt;Tools</title>
<path fill="none" stroke="black" d="M601.48,-289.35C578.1,-283.84 556.86,-276.51 549.75,-267.25 541.33,-256.28 542.38,-241.21 545.98,-228.11"/>
<polygon fill="black" stroke="black" points="549.28,-229.29 549.15,-218.69 542.64,-227.06 549.28,-229.29"/>
<text xml:space="preserve" text-anchor="middle" x="586.88" y="-258.7" font-family="Arial" font-size="9.00">3. tool_diagnose()</text>
</g>
<!-- Esc -->
<g id="node7" class="node">
<title>Esc</title>
<path fill="#fce4d6" stroke="black" d="M825.2,-217C825.2,-217 690.8,-217 690.8,-217 684.8,-217 678.8,-211 678.8,-205 678.8,-205 678.8,-193 678.8,-193 678.8,-187 684.8,-181 690.8,-181 690.8,-181 825.2,-181 825.2,-181 831.2,-181 837.2,-187 837.2,-193 837.2,-193 837.2,-205 837.2,-205 837.2,-211 831.2,-217 825.2,-217"/>
<text xml:space="preserve" text-anchor="middle" x="758" y="-195.5" font-family="Arial" font-size="10.00">escalation_store.py</text>
</g>
<!-- LG&#45;&gt;Esc -->
<g id="edge9" class="edge">
<title>LG&#45;&gt;Esc</title>
<path fill="none" stroke="black" d="M708.25,-284.99C714.96,-279.85 721.72,-273.82 727,-267.25 736.33,-255.62 743.57,-240.72 748.7,-227.9"/>
<polygon fill="black" stroke="black" points="751.91,-229.32 752.13,-218.72 745.35,-226.86 751.91,-229.32"/>
<text xml:space="preserve" text-anchor="middle" x="759.47" y="-258.7" font-family="Arial" font-size="9.00">9. if escalate</text>
</g>
<!-- Tools&#45;&gt;LG -->
<g id="edge8" class="edge">
<title>Tools&#45;&gt;LG</title>
<path fill="none" stroke="black" d="M579.19,-217.32C592.87,-228.53 611.03,-243.45 627,-256.75 635.08,-263.47 643.8,-270.8 651.83,-277.57"/>
<polygon fill="black" stroke="black" points="649.48,-280.16 659.38,-283.93 653.99,-274.81 649.48,-280.16"/>
<text xml:space="preserve" text-anchor="middle" x="671.87" y="-258.7" font-family="Arial" font-size="9.00">8. diagnosis dict</text>
</g>
<!-- GR -->
<g id="node5" class="node">
<title>GR</title>
<path fill="#a9d18e" stroke="black" d="M585.2,-134.5C585.2,-134.5 450.8,-134.5 450.8,-134.5 444.8,-134.5 438.8,-128.5 438.8,-122.5 438.8,-122.5 438.8,-110.5 438.8,-110.5 438.8,-104.5 444.8,-98.5 450.8,-98.5 450.8,-98.5 585.2,-98.5 585.2,-98.5 591.2,-98.5 597.2,-104.5 597.2,-110.5 597.2,-110.5 597.2,-122.5 597.2,-122.5 597.2,-128.5 591.2,-134.5 585.2,-134.5"/>
<text xml:space="preserve" text-anchor="middle" x="518" y="-113" font-family="Arial" font-size="10.00">graph_rag.py</text>
</g>
<!-- Tools&#45;&gt;GR -->
<g id="edge4" class="edge">
<title>Tools&#45;&gt;GR</title>
<path fill="none" stroke="black" d="M490.94,-180.51C483.49,-175.96 476.86,-170.22 472,-163 467.11,-155.73 469.47,-148.66 475.13,-142.35"/>
<polygon fill="black" stroke="black" points="477.39,-145.02 482.61,-135.8 472.78,-139.75 477.39,-145.02"/>
<text xml:space="preserve" text-anchor="middle" x="499" y="-154.45" font-family="Arial" font-size="9.00">4. diagnose()</text>
</g>
<!-- GR&#45;&gt;Tools -->
<g id="edge7" class="edge">
<title>GR&#45;&gt;Tools</title>
<path fill="none" stroke="black" d="M526.66,-134.93C531.8,-145.26 538.42,-158.59 544.25,-170.33"/>
<polygon fill="black" stroke="black" points="541.06,-171.78 548.65,-179.18 547.33,-168.66 541.06,-171.78"/>
<text xml:space="preserve" text-anchor="middle" x="579.02" y="-154.45" font-family="Arial" font-size="9.00">7. DiagnosisResult</text>
</g>
<!-- Neo -->
<g id="node6" class="node">
<title>Neo</title>
<path fill="#fce4d6" stroke="black" d="M583.2,-48.73C583.2,-50.53 547.7,-52 504,-52 460.3,-52 424.8,-50.53 424.8,-48.73 424.8,-48.73 424.8,-19.27 424.8,-19.27 424.8,-17.47 460.3,-16 504,-16 547.7,-16 583.2,-17.47 583.2,-19.27 583.2,-19.27 583.2,-48.73 583.2,-48.73"/>
<path fill="none" stroke="black" d="M583.2,-48.73C583.2,-46.92 547.7,-45.45 504,-45.45 460.3,-45.45 424.8,-46.92 424.8,-48.73"/>
<text xml:space="preserve" text-anchor="middle" x="504" y="-30.5" font-family="Arial" font-size="10.00">Neo4j</text>
</g>
<!-- GR&#45;&gt;Neo -->
<g id="edge5" class="edge">
<title>GR&#45;&gt;Neo</title>
<path fill="none" stroke="black" d="M476.23,-98.16C469.43,-93.45 463.3,-87.62 459.25,-80.5 455.05,-73.12 457.38,-66.08 462.7,-59.84"/>
<polygon fill="black" stroke="black" points="464.68,-62.77 469.66,-53.42 459.94,-57.62 464.68,-62.77"/>
<text xml:space="preserve" text-anchor="middle" x="485.12" y="-71.95" font-family="Arial" font-size="9.00">5. Cypher x5</text>
</g>
<!-- Neo&#45;&gt;GR -->
<g id="edge6" class="edge">
<title>Neo&#45;&gt;GR</title>
<path fill="none" stroke="black" d="M509.65,-52.29C511.28,-57.89 512.92,-64.16 514,-70 515.01,-75.46 515.77,-81.34 516.33,-87"/>
<polygon fill="black" stroke="black" points="512.82,-86.92 517.13,-96.6 519.79,-86.35 512.82,-86.92"/>
<text xml:space="preserve" text-anchor="middle" x="548.9" y="-71.95" font-family="Arial" font-size="9.00">6. graph records</text>
</g>
<!-- Agent -->
<g id="node8" class="node">
<title>Agent</title>
<path fill="#d5e8f0" stroke="black" d="M886.2,-134.5C886.2,-134.5 751.8,-134.5 751.8,-134.5 745.8,-134.5 739.8,-128.5 739.8,-122.5 739.8,-122.5 739.8,-110.5 739.8,-110.5 739.8,-104.5 745.8,-98.5 751.8,-98.5 751.8,-98.5 886.2,-98.5 886.2,-98.5 892.2,-98.5 898.2,-104.5 898.2,-110.5 898.2,-110.5 898.2,-122.5 898.2,-122.5 898.2,-128.5 892.2,-134.5 886.2,-134.5"/>
<text xml:space="preserve" text-anchor="middle" x="819" y="-113" font-family="Arial" font-size="10.00">Human Agent</text>
</g>
<!-- Esc&#45;&gt;Agent -->
<g id="edge12" class="edge">
<title>Esc&#45;&gt;Agent</title>
<path fill="none" stroke="black" d="M770.98,-180.69C777.37,-172.19 785.2,-161.8 792.25,-152.5 794.35,-149.73 796.56,-146.83 798.75,-143.95"/>
<polygon fill="black" stroke="black" points="801.44,-146.2 804.72,-136.13 795.87,-141.95 801.44,-146.2"/>
<text xml:space="preserve" text-anchor="middle" x="825.62" y="-154.45" font-family="Arial" font-size="9.00">12. case dossier</text>
</g>
<!-- Agent&#45;&gt;UI -->
<g id="edge13" class="edge">
<title>Agent&#45;&gt;UI</title>
<path fill="none" stroke="black" d="M847.78,-134.9C853.53,-139.82 858.78,-145.72 862,-152.5 864,-156.71 862.27,-158.34 862,-163 857.1,-247.39 868.92,-276.93 826,-349.75 824.01,-353.13 821.6,-356.39 818.97,-359.46"/>
<polygon fill="black" stroke="black" points="816.6,-356.88 812.22,-366.52 821.66,-361.72 816.6,-356.88"/>
<text xml:space="preserve" text-anchor="middle" x="902.89" y="-258.7" font-family="Arial" font-size="9.00">13. dashboard review</text>
</g>
</g>
</svg>
