<?xml version="1.0" encoding="UTF-8" standalone="no"?>
<!DOCTYPE svg PUBLIC "-//W3C//DTD SVG 1.1//EN"
 "http://www.w3.org/Graphics/SVG/1.1/DTD/svg11.dtd">
<!-- Generated by graphviz version 14.1.5 (20260411.2331)
 -->
<!-- Title: RuntimeSequence Pages: 1 -->
<svg width="861pt" height="558pt"
 viewBox="0.00 0.00 861.00 558.00" xmlns="http://www.w3.org/2000/svg" xmlns:xlink="http://www.w3.org/1999/xlink">
<g id="graph0" class="graph" transform="scale(1 1) rotate(0) translate(4 553.75)">
<title>RuntimeSequence</title>
<polygon fill="white" stroke="none" points="-4,4 -4,-553.75 857,-553.75 857,4 -4,4"/>
<text xml:space="preserve" text-anchor="middle" x="426.5" y="-532.45" font-family="Arial" font-size="14.00">Figure 8: Runtime Sequence — Customer Message to Response</text>
<g id="clust1" class="cluster">
<title>cluster_row1</title>
<polygon fill="white" stroke="black" points="323,-277.25 323,-518 731,-518 731,-277.25 323,-277.25"/>
<text xml:space="preserve" text-anchor="middle" x="527" y="-500.7" font-family="Arial" font-size="14.00">Figure 8: Runtime Sequence — Customer Message to Response</text>
</g>
<g id="clust2" class="cluster">
<title>cluster_row2</title>
<polygon fill="white" stroke="black" points="8,-8 8,-248.75 416,-248.75 416,-8 8,-8"/>
<text xml:space="preserve" text-anchor="middle" x="212" y="-231.45" font-family="Arial" font-size="14.00">Figure 8: Runtime Sequence — Customer Message to Response</text>
</g>
<g id="clust3" class="cluster">
<title>cluster_row3</title>
<polygon fill="white" stroke="black" points="437,-90.5 437,-248.75 845,-248.75 845,-90.5 437,-90.5"/>
<text xml:space="preserve" text-anchor="middle" x="641" y="-231.45" font-family="Arial" font-size="14.00">Figure 8: Runtime Sequence — Customer Message to Response</text>
</g>
<!-- C -->
<g id="node1" class="node">
<title>C</title>
<path fill="#d5e8f0" stroke="black" d="M621.2,-486.25C621.2,-486.25 486.8,-486.25 486.8,-486.25 480.8,-486.25 474.8,-480.25 474.8,-474.25 474.8,-474.25 474.8,-462.25 474.8,-462.25 474.8,-456.25 480.8,-450.25 486.8,-450.25 486.8,-450.25 621.2,-450.25 621.2,-450.25 627.2,-450.25 633.2,-456.25 633.2,-462.25 633.2,-462.25 633.2,-474.25 633.2,-474.25 633.2,-480.25 627.2,-486.25 621.2,-486.25"/>
<text xml:space="preserve" text-anchor="middle" x="554" y="-464.75" font-family="Arial" font-size="10.00">Customer</text>
</g>
<!-- UI -->
<g id="node2" class="node">
<title>UI</title>
<path fill="#bdd7ee" stroke="black" d="M622.2,-403.75C622.2,-403.75 487.8,-403.75 487.8,-403.75 481.8,-403.75 475.8,-397.75 475.8,-391.75 475.8,-391.75 475.8,-379.75 475.8,-379.75 475.8,-373.75 481.8,-367.75 487.8,-367.75 487.8,-367.75 622.2,-367.75 622.2,-367.75 628.2,-367.75 634.2,-373.75 634.2,-379.75 634.2,-379.75 634.2,-391.75 634.2,-391.75 634.2,-397.75 628.2,-403.75 622.2,-403.75"/>
<text xml:space="preserve" text-anchor="middle" x="555" y="-388.25" font-family="Arial" font-size="10.00">ui/app.py</text>
<text xml:space="preserve" text-anchor="middle" x="555" y="-376.25" font-family="Arial" font-size="10.00">Streamlit</text>
</g>
<!-- C&#45;&gt;UI -->
<g id="edge1" class="edge">
<title>C&#45;&gt;UI</title>
<path fill="none" stroke="black" d="M514.71,-449.77C503.81,-442.28 496.37,-432.71 502.25,-421.75 504.24,-418.05 506.81,-414.67 509.75,-411.6"/>
<polygon fill="black" stroke="black" points="511.85,-414.41 517.08,-405.19 507.25,-409.14 511.85,-414.41"/>
<text xml:space="preserve" text-anchor="middle" x="535.62" y="-423.7" font-family="Arial" font-size="9.00">1. chat message</text>
</g>
<!-- UI&#45;&gt;C -->
<g id="edge11" class="edge">
<title>UI&#45;&gt;C</title>
<path fill="none" stroke="black" d="M566.76,-404.16C571.03,-412.51 574.3,-422.74 572,-432.25 571.4,-434.73 570.59,-437.24 569.65,-439.7"/>
<polygon fill="black" stroke="black" points="566.5,-438.16 565.51,-448.71 572.86,-441.08 566.5,-438.16"/>
<text xml:space="preserve" text-anchor="middle" x="612.51" y="-423.7" font-family="Arial" font-size="9.00">11. markdown reply</text>
</g>
<!-- LG -->
<g id="node3" class="node">
<title>LG</title>
<path fill="#c6e0b4" stroke="black" d="M514.2,-321.25C514.2,-321.25 379.8,-321.25 379.8,-321.25 373.8,-321.25 367.8,-315.25 367.8,-309.25 367.8,-309.25 367.8,-297.25 367.8,-297.25 367.8,-291.25 373.8,-285.25 379.8,-285.25 379.8,-285.25 514.2,-285.25 514.2,-285.25 520.2,-285.25 526.2,-291.25 526.2,-297.25 526.2,-297.25 526.2,-309.25 526.2,-309.25 526.2,-315.25 520.2,-321.25 514.2,-321.25"/>
<text xml:space="preserve" text-anchor="middle" x="447" y="-305.75" font-family="Arial" font-size="10.00">diagnosis_graph.py</text>
<text xml:space="preserve" text-anchor="middle" x="447" y="-293.75" font-family="Arial" font-size="10.00">LangGraph</text>
</g>
<!-- UI&#45;&gt;LG -->
<g id="edge2" class="edge">
<title>UI&#45;&gt;LG</title>
<path fill="none" stroke="black" d="M475.34,-372.97C463.36,-367.73 452.46,-360.28 444.75,-349.75 441.16,-344.85 439.93,-338.8 439.96,-332.72"/>
<polygon fill="black" stroke="black" points="443.44,-333.15 441.12,-322.81 436.48,-332.34 443.44,-333.15"/>
<text xml:space="preserve" text-anchor="middle" x="481.88" y="-341.2" font-family="Arial" font-size="9.00">2. run_diagnosis()</text>
</g>
<!-- LG&#45;&gt;UI -->
<g id="edge10" class="edge">
<title>LG&#45;&gt;UI</title>
<path fill="none" stroke="black" d="M494,-321.71C503.81,-326.55 513.69,-332.39 522,-339.25 528.52,-344.63 534.41,-351.58 539.34,-358.42"/>
<polygon fill="black" stroke="black" points="536.13,-359.91 544.61,-366.26 541.94,-356.01 536.13,-359.91"/>
<text xml:space="preserve" text-anchor="middle" x="558.44" y="-341.2" font-family="Arial" font-size="9.00">10. response</text>
</g>
<!-- Tools -->
<g id="node4" class="node">
<title>Tools</title>
<path fill="#c6e0b4" stroke="black" d="M391.2,-217C391.2,-217 256.8,-217 256.8,-217 250.8,-217 244.8,-211 244.8,-205 244.8,-205 244.8,-193 244.8,-193 244.8,-187 250.8,-181 256.8,-181 256.8,-181 391.2,-181 391.2,-181 397.2,-181 403.2,-187 403.2,-193 403.2,-193 403.2,-205 403.2,-205 403.2,-211 397.2,-217 391.2,-217"/>
<text xml:space="preserve" text-anchor="middle" x="324" y="-195.5" font-family="Arial" font-size="10.00">agents/tools.py</text>
</g>
<!-- LG&#45;&gt;Tools -->
<g id="edge3" class="edge">
<title>LG&#45;&gt;Tools</title>
<path fill="none" stroke="black" d="M367.48,-289.35C344.1,-283.84 322.86,-276.51 315.75,-267.25 307.33,-256.28 308.38,-241.21 311.98,-228.11"/>
<polygon fill="black" stroke="black" points="315.28,-229.29 315.15,-218.69 308.64,-227.06 315.28,-229.29"/>
<text xml:space="preserve" text-anchor="middle" x="352.88" y="-258.7" font-family="Arial" font-size="9.00">3. tool_diagnose()</text>
</g>
<!-- Esc -->
<g id="node7" class="node">
<title>Esc</title>
<path fill="#fce4d6" stroke="black" d="M591.2,-217C591.2,-217 456.8,-217 456.8,-217 450.8,-217 444.8,-211 444.8,-205 444.8,-205 444.8,-193 444.8,-193 444.8,-187 450.8,-181 456.8,-181 456.8,-181 591.2,-181 591.2,-181 597.2,-181 603.2,-187 603.2,-193 603.2,-193 603.2,-205 603.2,-205 603.2,-211 597.2,-217 591.2,-217"/>
<text xml:space="preserve" text-anchor="middle" x="524" y="-195.5" font-family="Arial" font-size="10.00">escalation_store.py</text>
</g>
<!-- LG&#45;&gt;Esc -->
<g id="edge9" class="edge">
<title>LG&#45;&gt;Esc</title>
<path fill="none" stroke="black" d="M474.25,-284.99C480.96,-279.85 487.72,-273.82 493,-267.25 502.33,-255.62 509.57,-240.72 514.7,-227.9"/>
<polygon fill="black" stroke="black" points="517.91,-229.32 518.13,-218.72 511.35,-226.86 517.91,-229.32"/>
<text xml:space="preserve" text-anchor="middle" x="525.47" y="-258.7" font-family="Arial" font-size="9.00">9. if escalate</text>
</g>
<!-- Tools&#45;&gt;LG -->
<g id="edge8" class="edge">
<title>Tools&#45;&gt;LG</title>
<path fill="none" stroke="black" d="M345.19,-217.32C358.87,-228.53 377.03,-243.45 393,-256.75 401.08,-263.47 409.8,-270.8 417.83,-277.57"/>
<polygon fill="black" stroke="black" points="415.48,-280.16 425.38,-283.93 419.99,-274.81 415.48,-280.16"/>
<text xml:space="preserve" text-anchor="middle" x="437.87" y="-258.7" font-family="Arial" font-size="9.00">8. diagnosis dict</text>
</g>
<!-- GR -->
<g id="node5" class="node">
<title>GR</title>
<path fill="#a9d18e" stroke="black" d="M351.2,-134.5C351.2,-134.5 216.8,-134.5 216.8,-134.5 210.8,-134.5 204.8,-128.5 204.8,-122.5 204.8,-122.5 204.8,-110.5 204.8,-110.5 204.8,-104.5 210.8,-98.5 216.8,-98.5 216.8,-98.5 351.2,-98.5 351.2,-98.5 357.2,-98.5 363.2,-104.5 363.2,-110.5 363.2,-110.5 363.2,-122.5 363.2,-122.5 363.2,-128.5 357.2,-134.5 351.2,-134.5"/>
<text xml:space="preserve" text-anchor="middle" x="284" y="-113" font-family="Arial" font-size="10.00">graph_rag.py</text>
</g>
<!-- Tools&#45;&gt;GR -->
<g id="edge4" class="edge">
<title>Tools&#45;&gt;GR</title>
<path fill="none" stroke="black" d="M256.94,-180.51C249.49,-175.96 242.86,-170.22 238,-163 233.11,-155.73 235.47,-148.66 241.13,-142.35"/>
<polygon fill="black" stroke="black" points="243.39,-145.02 248.61,-135.8 238.78,-139.75 243.39,-145.02"/>
<text xml:space="preserve" text-anchor="middle" x="265" y="-154.45" font-family="Arial" font-size="9.00">4. diagnose()</text>
</g>
<!-- GR&#45;&gt;Tools -->
<g id="edge7" class="edge">
<title>GR&#45;&gt;Tools</title>
<path fill="none" stroke="black" d="M292.66,-134.93C297.8,-145.26 304.42,-158.59 310.25,-170.33"/>
<polygon fill="black" stroke="black" points="307.06,-171.78 314.65,-179.18 313.33,-168.66 307.06,-171.78"/>
<text xml:space="preserve" text-anchor="middle" x="345.02" y="-154.45" font-family="Arial" font-size="9.00">7. DiagnosisResult</text>
</g>
<!-- Neo -->
<g id="node6" class="node">
<title>Neo</title>
<path fill="#fce4d6" stroke="black" d="M349.2,-48.73C349.2,-50.53 313.7,-52 270,-52 226.3,-52 190.8,-50.53 190.8,-48.73 190.8,-48.73 190.8,-19.27 190.8,-19.27 190.8,-17.47 226.3,-16 270,-16 313.7,-16 349.2,-17.47 349.2,-19.27 349.2,-19.27 349.2,-48.73 349.2,-48.73"/>
<path fill="none" stroke="black" d="M349.2,-48.73C349.2,-46.92 313.7,-45.45 270,-45.45 226.3,-45.45 190.8,-46.92 190.8,-48.73"/>
<text xml:space="preserve" text-anchor="middle" x="270" y="-30.5" font-family="Arial" font-size="10.00">Neo4j</text>
</g>
<!-- GR&#45;&gt;Neo -->
<g id="edge5" class="edge">
<title>GR&#45;&gt;Neo</title>
<path fill="none" stroke="black" d="M242.23,-98.16C235.43,-93.45 229.3,-87.62 225.25,-80.5 221.05,-73.12 223.38,-66.08 228.7,-59.84"/>
<polygon fill="black" stroke="black" points="230.68,-62.77 235.66,-53.42 225.94,-57.62 230.68,-62.77"/>
<text xml:space="preserve" text-anchor="middle" x="251.12" y="-71.95" font-family="Arial" font-size="9.00">5. Cypher x5</text>
</g>
<!-- Neo&#45;&gt;GR -->
<g id="edge6" class="edge">
<title>Neo&#45;&gt;GR</title>
<path fill="none" stroke="black" d="M275.65,-52.29C277.28,-57.89 278.92,-64.16 280,-70 281.01,-75.46 281.77,-81.34 282.33,-87"/>
<polygon fill="black" stroke="black" points="278.82,-86.92 283.13,-96.6 285.79,-86.35 278.82,-86.92"/>
<text xml:space="preserve" text-anchor="middle" x="314.9" y="-71.95" font-family="Arial" font-size="9.00">6. graph records</text>
</g>
<!-- Agent -->
<g id="node8" class="node">
<title>Agent</title>
<path fill="#d5e8f0" stroke="black" d="M652.2,-134.5C652.2,-134.5 517.8,-134.5 517.8,-134.5 511.8,-134.5 505.8,-128.5 505.8,-122.5 505.8,-122.5 505.8,-110.5 505.8,-110.5 505.8,-104.5 511.8,-98.5 517.8,-98.5 517.8,-98.5 652.2,-98.5 652.2,-98.5 658.2,-98.5 664.2,-104.5 664.2,-110.5 664.2,-110.5 664.2,-122.5 664.2,-122.5 664.2,-128.5 658.2,-134.5 652.2,-134.5"/>
<text xml:space="preserve" text-anchor="middle" x="585" y="-113" font-family="Arial" font-size="10.00">Human Agent</text>
</g>
<!-- Esc&#45;&gt;Agent -->
<g id="edge12" class="edge">
<title>Esc&#45;&gt;Agent</title>
<path fill="none" stroke="black" d="M536.98,-180.69C543.37,-172.19 551.2,-161.8 558.25,-152.5 560.35,-149.73 562.56,-146.83 564.75,-143.95"/>
<polygon fill="black" stroke="black" points="567.44,-146.2 570.72,-136.13 561.87,-141.95 567.44,-146.2"/>
<text xml:space="preserve" text-anchor="middle" x="591.62" y="-154.45" font-family="Arial" font-size="9.00">12. case dossier</text>
</g>
<!-- Agent&#45;&gt;UI -->
<g id="edge13" class="edge">
<title>Agent&#45;&gt;UI</title>
<path fill="none" stroke="black" d="M613.78,-134.9C619.53,-139.82 624.78,-145.72 628,-152.5 630,-156.71 628.27,-158.34 628,-163 623.1,-247.39 634.92,-276.93 592,-349.75 590.01,-353.13 587.6,-356.39 584.97,-359.46"/>
<polygon fill="black" stroke="black" points="582.6,-356.88 578.22,-366.52 587.66,-361.72 582.6,-356.88"/>
<text xml:space="preserve" text-anchor="middle" x="668.89" y="-258.7" font-family="Arial" font-size="9.00">13. dashboard review</text>
</g>
</g>
</svg>
