<?xml version="1.0" encoding="UTF-8" standalone="no"?>
<!DOCTYPE svg PUBLIC "-//W3C//DTD SVG 1.1//EN"
 "http://www.w3.org/Graphics/SVG/1.1/DTD/svg11.dtd">
<!-- Generated by graphviz version 14.1.5 (20260411.2331)
 -->
<!-- Title: EnterpriseProduction Pages: 1 -->
<svg width="567pt" height="572pt"
 viewBox="0.00 0.00 567.00 572.00" xmlns="http://www.w3.org/2000/svg" xmlns:xlink="http://www.w3.org/1999/xlink">
<g id="graph0" class="graph" transform="scale(1 1) rotate(0) translate(4 568)">
<title>EnterpriseProduction</title>
<polygon fill="white" stroke="none" points="-4,4 -4,-568 563,-568 563,4 -4,4"/>
<text xml:space="preserve" text-anchor="middle" x="279.5" y="-546.7" font-family="Arial" font-size="14.00">[DEPRECATED — use 30+31+32 K8s/CI/CD diagrams] Figure 9: Production Target</text>
<g id="clust1" class="cluster">
<title>cluster_sources</title>
<polygon fill="white" stroke="black" points="8,-456.5 8,-532.25 356,-532.25 356,-456.5 8,-456.5"/>
<text xml:space="preserve" text-anchor="middle" x="182" y="-514.95" font-family="Arial" font-size="14.00">Authoritative Sources</text>
</g>
<g id="clust2" class="cluster">
<title>cluster_etl_ops</title>
<polygon fill="white" stroke="black" points="29,-8 29,-437.5 237,-437.5 237,-8 29,-8"/>
<text xml:space="preserve" text-anchor="middle" x="133" y="-420.2" font-family="Arial" font-size="14.00">ETL &amp; Governance (Scheduled)</text>
</g>
<g id="clust3" class="cluster">
<title>cluster_runtime</title>
<polygon fill="white" stroke="black" points="245,-12 245,-261.75 551,-261.75 551,-12 245,-12"/>
<text xml:space="preserve" text-anchor="middle" x="398" y="-244.45" font-family="Arial" font-size="14.00">Runtime Services</text>
</g>
<!-- PIM -->
<g id="node1" class="node">
<title>PIM</title>
<path fill="#ededed" stroke="black" d="M61.62,-500.5C61.62,-500.5 28.38,-500.5 28.38,-500.5 22.38,-500.5 16.38,-494.5 16.38,-488.5 16.38,-488.5 16.38,-476.5 16.38,-476.5 16.38,-470.5 22.38,-464.5 28.38,-464.5 28.38,-464.5 61.62,-464.5 61.62,-464.5 67.62,-464.5 73.62,-470.5 73.62,-476.5 73.62,-476.5 73.62,-488.5 73.62,-488.5 73.62,-494.5 67.62,-500.5 61.62,-500.5"/>
<text xml:space="preserve" text-anchor="middle" x="45" y="-479" font-family="Arial" font-size="10.00">PIM/PLM</text>
</g>
<!-- Airflow -->
<g id="node5" class="node">
<title>Airflow</title>
<path fill="#ffe699" stroke="black" d="M202.25,-405.75C202.25,-405.75 115.75,-405.75 115.75,-405.75 109.75,-405.75 103.75,-399.75 103.75,-393.75 103.75,-393.75 103.75,-381.75 103.75,-381.75 103.75,-375.75 109.75,-369.75 115.75,-369.75 115.75,-369.75 202.25,-369.75 202.25,-369.75 208.25,-369.75 214.25,-375.75 214.25,-381.75 214.25,-381.75 214.25,-393.75 214.25,-393.75 214.25,-399.75 208.25,-405.75 202.25,-405.75"/>
<text xml:space="preserve" text-anchor="middle" x="159" y="-390.25" font-family="Arial" font-size="10.00">Airflow / Cron</text>
<text xml:space="preserve" text-anchor="middle" x="159" y="-378.25" font-family="Arial" font-size="10.00">enterprise_pipeline.py</text>
</g>
<!-- PIM&#45;&gt;Airflow -->
<g id="edge1" class="edge">
<title>PIM&#45;&gt;Airflow</title>
<path fill="none" stroke="black" d="M66.44,-464.05C84.04,-449.74 109.16,-429.3 128.79,-413.33"/>
<polygon fill="black" stroke="black" points="130.93,-416.1 136.48,-407.07 126.51,-410.67 130.93,-416.1"/>
</g>
<!-- FSM -->
<g id="node2" class="node">
<title>FSM</title>
<path fill="#ededed" stroke="black" d="M134,-500.5C134,-500.5 104,-500.5 104,-500.5 98,-500.5 92,-494.5 92,-488.5 92,-488.5 92,-476.5 92,-476.5 92,-470.5 98,-464.5 104,-464.5 104,-464.5 134,-464.5 134,-464.5 140,-464.5 146,-470.5 146,-476.5 146,-476.5 146,-488.5 146,-488.5 146,-494.5 140,-500.5 134,-500.5"/>
<text xml:space="preserve" text-anchor="middle" x="119" y="-479" font-family="Arial" font-size="10.00">FSM</text>
</g>
<!-- FSM&#45;&gt;Airflow -->
<g id="edge2" class="edge">
<title>FSM&#45;&gt;Airflow</title>
<path fill="none" stroke="black" d="M126.52,-464.05C132.28,-450.71 140.33,-432.05 146.97,-416.64"/>
<polygon fill="black" stroke="black" points="150.16,-418.08 150.91,-407.51 143.74,-415.3 150.16,-418.08"/>
</g>
<!-- Claims -->
<g id="node3" class="node">
<title>Claims</title>
<path fill="#ededed" stroke="black" d="M206,-500.5C206,-500.5 176,-500.5 176,-500.5 170,-500.5 164,-494.5 164,-488.5 164,-488.5 164,-476.5 164,-476.5 164,-470.5 170,-464.5 176,-464.5 176,-464.5 206,-464.5 206,-464.5 212,-464.5 218,-470.5 218,-476.5 218,-476.5 218,-488.5 218,-488.5 218,-494.5 212,-500.5 206,-500.5"/>
<text xml:space="preserve" text-anchor="middle" x="191" y="-479" font-family="Arial" font-size="10.00">Claims</text>
</g>
<!-- Claims&#45;&gt;Airflow -->
<g id="edge3" class="edge">
<title>Claims&#45;&gt;Airflow</title>
<path fill="none" stroke="black" d="M184.98,-464.05C180.38,-450.71 173.94,-432.05 168.62,-416.64"/>
<polygon fill="black" stroke="black" points="172.06,-415.86 165.49,-407.55 165.44,-418.14 172.06,-415.86"/>
</g>
<!-- Manuals -->
<g id="node4" class="node">
<title>Manuals</title>
<path fill="#ededed" stroke="black" d="M336,-500.5C336,-500.5 248,-500.5 248,-500.5 242,-500.5 236,-494.5 236,-488.5 236,-488.5 236,-476.5 236,-476.5 236,-470.5 242,-464.5 248,-464.5 248,-464.5 336,-464.5 336,-464.5 342,-464.5 348,-470.5 348,-476.5 348,-476.5 348,-488.5 348,-488.5 348,-494.5 342,-500.5 336,-500.5"/>
<text xml:space="preserve" text-anchor="middle" x="292" y="-485" font-family="Arial" font-size="10.00">Document Store</text>
<text xml:space="preserve" text-anchor="middle" x="292" y="-473" font-family="Arial" font-size="10.00">Service Manuals PDF</text>
</g>
<!-- Manuals&#45;&gt;Airflow -->
<g id="edge4" class="edge">
<title>Manuals&#45;&gt;Airflow</title>
<path fill="none" stroke="black" d="M266.98,-464.05C246.18,-449.54 216.35,-428.74 193.31,-412.68"/>
<polygon fill="black" stroke="black" points="195.35,-409.83 185.15,-406.98 191.35,-415.57 195.35,-409.83"/>
</g>
<!-- Prov -->
<g id="node6" class="node">
<title>Prov</title>
<path fill="#fff2cc" stroke="black" stroke-dasharray="5,2" d="M217.25,-332.75C217.25,-332.75 100.75,-332.75 100.75,-332.75 94.75,-332.75 88.75,-326.75 88.75,-320.75 88.75,-320.75 88.75,-300.75 88.75,-300.75 88.75,-294.75 94.75,-288.75 100.75,-288.75 100.75,-288.75 217.25,-288.75 217.25,-288.75 223.25,-288.75 229.25,-294.75 229.25,-300.75 229.25,-300.75 229.25,-320.75 229.25,-320.75 229.25,-326.75 223.25,-332.75 217.25,-332.75"/>
<text xml:space="preserve" text-anchor="middle" x="159" y="-319.25" font-family="Arial" font-size="10.00">Provenance &amp; Lineage Store</text>
<text xml:space="preserve" text-anchor="middle" x="159" y="-307.25" font-family="Arial" font-size="10.00">(source_system, record_id,</text>
<text xml:space="preserve" text-anchor="middle" x="159" y="-295.25" font-family="Arial" font-size="10.00">document_uri, approved_by)</text>
</g>
<!-- Airflow&#45;&gt;Prov -->
<g id="edge5" class="edge">
<title>Airflow&#45;&gt;Prov</title>
<path fill="none" stroke="black" d="M159,-369.35C159,-361.92 159,-352.98 159,-344.39"/>
<polygon fill="black" stroke="black" points="162.5,-344.58 159,-334.58 155.5,-344.58 162.5,-344.58"/>
</g>
<!-- Staging -->
<g id="node7" class="node">
<title>Staging</title>
<path fill="#fce4d6" stroke="black" d="M210.75,-230C210.75,-232.21 189.35,-234 163,-234 136.65,-234 115.25,-232.21 115.25,-230 115.25,-230 115.25,-194 115.25,-194 115.25,-191.79 136.65,-190 163,-190 189.35,-190 210.75,-191.79 210.75,-194 210.75,-194 210.75,-230 210.75,-230"/>
<path fill="none" stroke="black" d="M210.75,-230C210.75,-227.79 189.35,-226 163,-226 136.65,-226 115.25,-227.79 115.25,-230"/>
<text xml:space="preserve" text-anchor="middle" x="163" y="-214.5" font-family="Arial" font-size="10.00">Staging Neo4j</text>
<text xml:space="preserve" text-anchor="middle" x="163" y="-202.5" font-family="Arial" font-size="10.00">populate_graph.py</text>
</g>
<!-- Prov&#45;&gt;Staging -->
<g id="edge6" class="edge">
<title>Prov&#45;&gt;Staging</title>
<path fill="none" stroke="black" d="M159.89,-288.28C160.41,-275.75 161.07,-259.7 161.65,-245.64"/>
<polygon fill="black" stroke="black" points="165.14,-246.06 162.05,-235.92 158.14,-245.77 165.14,-246.06"/>
</g>
<!-- Smoke -->
<g id="node8" class="node">
<title>Smoke</title>
<path fill="#e2efda" stroke="black" d="M203.75,-153C203.75,-153 126.25,-153 126.25,-153 120.25,-153 114.25,-147 114.25,-141 114.25,-141 114.25,-129 114.25,-129 114.25,-123 120.25,-117 126.25,-117 126.25,-117 203.75,-117 203.75,-117 209.75,-117 215.75,-123 215.75,-129 215.75,-129 215.75,-141 215.75,-141 215.75,-147 209.75,-153 203.75,-153"/>
<text xml:space="preserve" text-anchor="middle" x="165" y="-137.5" font-family="Arial" font-size="10.00">Smoke Tests</text>
<text xml:space="preserve" text-anchor="middle" x="165" y="-125.5" font-family="Arial" font-size="10.00">test_diagnosis.py +</text>
</g>
<!-- Staging&#45;&gt;Smoke -->
<g id="edge7" class="edge">
<title>Staging&#45;&gt;Smoke</title>
<path fill="none" stroke="black" d="M163.57,-189.71C163.78,-181.82 164.02,-172.75 164.24,-164.33"/>
<polygon fill="black" stroke="black" points="167.74,-164.66 164.5,-154.57 160.74,-164.48 167.74,-164.66"/>
</g>
<!-- ProdNeo -->
<g id="node9" class="node">
<title>ProdNeo</title>
<path fill="#f4b084" stroke="black" d="M220.5,-56C220.5,-58.21 200.11,-60 175,-60 149.89,-60 129.5,-58.21 129.5,-56 129.5,-56 129.5,-20 129.5,-20 129.5,-17.79 149.89,-16 175,-16 200.11,-16 220.5,-17.79 220.5,-20 220.5,-20 220.5,-56 220.5,-56"/>
<path fill="none" stroke="black" d="M220.5,-56C220.5,-53.79 200.11,-52 175,-52 149.89,-52 129.5,-53.79 129.5,-56"/>
<text xml:space="preserve" text-anchor="middle" x="175" y="-40.5" font-family="Arial" font-size="10.00">Production Neo4j</text>
<text xml:space="preserve" text-anchor="middle" x="175" y="-28.5" font-family="Arial" font-size="10.00">Aura Enterprise</text>
</g>
<!-- Smoke&#45;&gt;ProdNeo -->
<g id="edge8" class="edge">
<title>Smoke&#45;&gt;ProdNeo</title>
<path fill="none" stroke="black" d="M166.83,-116.58C168.16,-103.94 170,-86.48 171.6,-71.33"/>
<polygon fill="black" stroke="black" points="175.03,-72.12 172.6,-61.81 168.07,-71.39 175.03,-72.12"/>
<text xml:space="preserve" text-anchor="middle" x="201.72" y="-85.2" font-family="Arial" font-size="9.00">promote if pass</text>
</g>
<!-- API -->
<g id="node10" class="node">
<title>API</title>
<path fill="#c6e0b4" stroke="black" d="M398.62,-153C398.62,-153 299.38,-153 299.38,-153 293.38,-153 287.38,-147 287.38,-141 287.38,-141 287.38,-129 287.38,-129 287.38,-123 293.38,-117 299.38,-117 299.38,-117 398.62,-117 398.62,-117 404.62,-117 410.62,-123 410.62,-129 410.62,-129 410.62,-141 410.62,-141 410.62,-147 404.62,-153 398.62,-153"/>
<text xml:space="preserve" text-anchor="middle" x="349" y="-137.5" font-family="Arial" font-size="10.00">FastAPI Diagnosis API</text>
<text xml:space="preserve" text-anchor="middle" x="349" y="-125.5" font-family="Arial" font-size="10.00">LangGraph + GraphRAG</text>
</g>
<!-- API&#45;&gt;ProdNeo -->
<g id="edge11" class="edge">
<title>API&#45;&gt;ProdNeo</title>
<path fill="none" stroke="black" d="M317.09,-116.58C290.47,-102.04 252.16,-81.13 222.02,-64.67"/>
<polygon fill="black" stroke="black" points="223.93,-61.73 213.48,-60.01 220.58,-67.87 223.93,-61.73"/>
<text xml:space="preserve" text-anchor="middle" x="292.08" y="-85.2" font-family="Arial" font-size="9.00">read</text>
</g>
<!-- CRMrt -->
<g id="node11" class="node">
<title>CRMrt</title>
<path fill="#bdd7ee" stroke="black" d="M377,-56C377,-56 265,-56 265,-56 259,-56 253,-50 253,-44 253,-44 253,-32 253,-32 253,-26 259,-20 265,-20 265,-20 377,-20 377,-20 383,-20 389,-26 389,-32 389,-32 389,-44 389,-44 389,-50 383,-56 377,-56"/>
<text xml:space="preserve" text-anchor="middle" x="321" y="-40.5" font-family="Arial" font-size="10.00">CRM Runtime Enrichment</text>
<text xml:space="preserve" text-anchor="middle" x="321" y="-28.5" font-family="Arial" font-size="10.00">asset · warranty · customer</text>
</g>
<!-- API&#45;&gt;CRMrt -->
<g id="edge10" class="edge">
<title>API&#45;&gt;CRMrt</title>
<path fill="none" stroke="black" d="M328.46,-116.56C323.81,-111.43 319.5,-105.45 317,-99 313.2,-89.21 313,-77.84 314.17,-67.66"/>
<polygon fill="black" stroke="black" points="317.6,-68.33 315.78,-57.89 310.7,-67.19 317.6,-68.33"/>
<text xml:space="preserve" text-anchor="middle" x="342.5" y="-85.2" font-family="Arial" font-size="9.00">session start</text>
</g>
<!-- CC -->
<g id="node13" class="node">
<title>CC</title>
<path fill="#e8e8e8" stroke="black" d="M530.62,-56C530.62,-56 419.38,-56 419.38,-56 413.38,-56 407.38,-50 407.38,-44 407.38,-44 407.38,-32 407.38,-32 407.38,-26 413.38,-20 419.38,-20 419.38,-20 530.62,-20 530.62,-20 536.62,-20 542.62,-26 542.62,-32 542.62,-32 542.62,-44 542.62,-44 542.62,-50 536.62,-56 530.62,-56"/>
<text xml:space="preserve" text-anchor="middle" x="475" y="-34.5" font-family="Arial" font-size="10.00">CCaaS / Salesforce Cases</text>
</g>
<!-- API&#45;&gt;CC -->
<g id="edge12" class="edge">
<title>API&#45;&gt;CC</title>
<path fill="none" stroke="black" d="M372.11,-116.58C392,-101.58 420.91,-79.78 443.02,-63.11"/>
<polygon fill="black" stroke="black" points="444.95,-66.04 450.83,-57.23 440.74,-60.45 444.95,-66.04"/>
<text xml:space="preserve" text-anchor="middle" x="460.04" y="-90.45" font-family="Arial" font-size="9.00">escalation +</text>
<text xml:space="preserve" text-anchor="middle" x="460.04" y="-79.95" font-family="Arial" font-size="9.00">provenance dossier</text>
</g>
<!-- CRMrt&#45;&gt;API -->
<g id="edge13" class="edge">
<title>CRMrt&#45;&gt;API</title>
<path fill="none" stroke="black" d="M350.03,-56.43C357.24,-62.31 364.03,-69.55 368,-78 372.23,-87.02 370.53,-97.24 366.78,-106.47"/>
<polygon fill="black" stroke="black" points="363.68,-104.84 362.35,-115.35 369.94,-107.96 363.68,-104.84"/>
</g>
<!-- Chan -->
<g id="node12" class="node">
<title>Chan</title>
<path fill="#d5e8f0" stroke="black" d="M410.25,-230C410.25,-230 287.75,-230 287.75,-230 281.75,-230 275.75,-224 275.75,-218 275.75,-218 275.75,-206 275.75,-206 275.75,-200 281.75,-194 287.75,-194 287.75,-194 410.25,-194 410.25,-194 416.25,-194 422.25,-200 422.25,-206 422.25,-206 422.25,-218 422.25,-218 422.25,-224 416.25,-230 410.25,-230"/>
<text xml:space="preserve" text-anchor="middle" x="349" y="-214.5" font-family="Arial" font-size="10.00">Channels</text>
<text xml:space="preserve" text-anchor="middle" x="349" y="-202.5" font-family="Arial" font-size="10.00">Web · Mobile · Agent Desktop</text>
</g>
<!-- Chan&#45;&gt;API -->
<g id="edge9" class="edge">
<title>Chan&#45;&gt;API</title>
<path fill="none" stroke="black" d="M349,-193.6C349,-184.99 349,-174.37 349,-164.6"/>
<polygon fill="black" stroke="black" points="352.5,-164.81 349,-154.81 345.5,-164.81 352.5,-164.81"/>
</g>
</g>
</svg>
