<?xml version="1.0" encoding="UTF-8" standalone="no"?>
<!DOCTYPE svg PUBLIC "-//W3C//DTD SVG 1.1//EN"
 "http://www.w3.org/Graphics/SVG/1.1/DTD/svg11.dtd">
<!-- Generated by graphviz version 14.1.5 (20260411.2331)
 -->
<!-- Title: DemoSessionTurnFlow Pages: 1 -->
<svg width="994pt" height="837pt"
 viewBox="0.00 0.00 994.00 837.00" xmlns="http://www.w3.org/2000/svg" xmlns:xlink="http://www.w3.org/1999/xlink">
<g id="graph0" class="graph" transform="scale(1 1) rotate(0) translate(4 832.75)">
<title>DemoSessionTurnFlow</title>
<polygon fill="white" stroke="none" points="-4,4 -4,-832.75 990,-832.75 990,4 -4,4"/>
<text xml:space="preserve" text-anchor="middle" x="493" y="-811.45" font-family="Arial" font-size="14.00">Figure 10: Live Session — Two&#45;Turn Washer Diagnosis Flow</text>
<g id="clust1" class="cluster">
<title>cluster_turn1</title>
<path fill="white" stroke="#2e75b6" d="M20,-160C20,-160 382,-160 382,-160 388,-160 394,-166 394,-172 394,-172 394,-785 394,-785 394,-791 388,-797 382,-797 382,-797 20,-797 20,-797 14,-797 8,-791 8,-785 8,-785 8,-172 8,-172 8,-166 14,-160 20,-160"/>
<text xml:space="preserve" text-anchor="middle" x="201" y="-779.7" font-family="Arial" font-size="14.00" fill="#2e75b6">Turn 1: Single symptom — 94% confidence — NO escalation</text>
</g>
<g id="clust2" class="cluster">
<title>cluster_turn2</title>
<path fill="white" stroke="#c00000" d="M552,-8C552,-8 966,-8 966,-8 972,-8 978,-14 978,-20 978,-20 978,-617.25 978,-617.25 978,-623.25 972,-629.25 966,-629.25 966,-629.25 552,-629.25 552,-629.25 546,-629.25 540,-623.25 540,-617.25 540,-617.25 540,-20 540,-20 540,-14 546,-8 552,-8"/>
<text xml:space="preserve" text-anchor="middle" x="759" y="-611.95" font-family="Arial" font-size="14.00" fill="#c00000">Turn 2: Multi&#45;symptom — 47% confidence — ESCALATION + CCaaS</text>
</g>
<!-- T1_IN -->
<g id="node1" class="node">
<title>T1_IN</title>
<path fill="#d5e8f0" stroke="black" d="M373.88,-765.25C373.88,-765.25 186.12,-765.25 186.12,-765.25 180.12,-765.25 174.12,-759.25 174.12,-753.25 174.12,-753.25 174.12,-741.25 174.12,-741.25 174.12,-735.25 180.12,-729.25 186.12,-729.25 186.12,-729.25 373.88,-729.25 373.88,-729.25 379.88,-729.25 385.88,-735.25 385.88,-741.25 385.88,-741.25 385.88,-753.25 385.88,-753.25 385.88,-759.25 379.88,-765.25 373.88,-765.25"/>
<text xml:space="preserve" text-anchor="middle" x="280" y="-749.75" font-family="Arial" font-size="10.00">Customer message</text>
<text xml:space="preserve" text-anchor="middle" x="280" y="-737.75" font-family="Arial" font-size="10.00">&#39;Machine does not spin during the final cycle&#39;</text>
</g>
<!-- T1_CRM -->
<g id="node2" class="node">
<title>T1_CRM</title>
<path fill="#fff2cc" stroke="black" d="M360.75,-693.25C360.75,-693.25 217.25,-693.25 217.25,-693.25 211.25,-693.25 205.25,-687.25 205.25,-681.25 205.25,-681.25 205.25,-649.25 205.25,-649.25 205.25,-643.25 211.25,-637.25 217.25,-637.25 217.25,-637.25 360.75,-637.25 360.75,-637.25 366.75,-637.25 372.75,-643.25 372.75,-649.25 372.75,-649.25 372.75,-681.25 372.75,-681.25 372.75,-687.25 366.75,-693.25 360.75,-693.25"/>
<text xml:space="preserve" text-anchor="middle" x="289" y="-679.75" font-family="Arial" font-size="10.00">CRM enrich (asset AST&#45;WM&#45;4421)</text>
<text xml:space="preserve" text-anchor="middle" x="289" y="-667.75" font-family="Arial" font-size="10.00">→ product_id wm&#45;001</text>
<text xml:space="preserve" text-anchor="middle" x="289" y="-655.75" font-family="Arial" font-size="10.00">→ Jane Martinez</text>
<text xml:space="preserve" text-anchor="middle" x="289" y="-643.75" font-family="Arial" font-size="10.00">Warranty: eligible</text>
</g>
<!-- T1_IN&#45;&gt;T1_CRM -->
<g id="edge1" class="edge">
<title>T1_IN&#45;&gt;T1_CRM</title>
<path fill="none" stroke="black" d="M281.95,-728.89C282.75,-721.81 283.7,-713.33 284.65,-704.92"/>
<polygon fill="black" stroke="black" points="288.11,-705.47 285.75,-695.15 281.15,-704.69 288.11,-705.47"/>
</g>
<!-- T1_LG -->
<g id="node3" class="node">
<title>T1_LG</title>
<path fill="#c6e0b4" stroke="black" d="M322,-597.5C322,-597.5 264,-597.5 264,-597.5 258,-597.5 252,-591.5 252,-585.5 252,-585.5 252,-573.5 252,-573.5 252,-567.5 258,-561.5 264,-561.5 264,-561.5 322,-561.5 322,-561.5 328,-561.5 334,-567.5 334,-573.5 334,-573.5 334,-585.5 334,-585.5 334,-591.5 328,-597.5 322,-597.5"/>
<text xml:space="preserve" text-anchor="middle" x="293" y="-582" font-family="Arial" font-size="10.00">LangGraph</text>
<text xml:space="preserve" text-anchor="middle" x="293" y="-570" font-family="Arial" font-size="10.00">run_diagnosis()</text>
</g>
<!-- T1_CRM&#45;&gt;T1_LG -->
<g id="edge2" class="edge">
<title>T1_CRM&#45;&gt;T1_LG</title>
<path fill="none" stroke="black" d="M290.31,-636.83C290.73,-628.04 291.2,-618.28 291.62,-609.39"/>
<polygon fill="black" stroke="black" points="295.11,-609.64 292.09,-599.49 288.12,-609.31 295.11,-609.64"/>
</g>
<!-- T1_SYM -->
<g id="node4" class="node">
<title>T1_SYM</title>
<path fill="#e2efda" stroke="black" d="M368.62,-515.5C368.62,-515.5 251.38,-515.5 251.38,-515.5 245.38,-515.5 239.38,-509.5 239.38,-503.5 239.38,-503.5 239.38,-491.5 239.38,-491.5 239.38,-485.5 245.38,-479.5 251.38,-479.5 251.38,-479.5 368.62,-479.5 368.62,-479.5 374.62,-479.5 380.62,-485.5 380.62,-491.5 380.62,-491.5 380.62,-503.5 380.62,-503.5 380.62,-509.5 374.62,-515.5 368.62,-515.5"/>
<text xml:space="preserve" text-anchor="middle" x="310" y="-500" font-family="Arial" font-size="10.00">match_symptoms</text>
<text xml:space="preserve" text-anchor="middle" x="310" y="-488" font-family="Arial" font-size="10.00">1 match: wm&#45;s01 (score 1.0)</text>
</g>
<!-- T1_LG&#45;&gt;T1_SYM -->
<g id="edge3" class="edge">
<title>T1_LG&#45;&gt;T1_SYM</title>
<path fill="none" stroke="black" d="M296.69,-561.14C298.81,-551.18 301.51,-538.43 303.94,-527.04"/>
<polygon fill="black" stroke="black" points="307.35,-527.81 306,-517.31 300.5,-526.36 307.35,-527.81"/>
</g>
<!-- T1_RANK -->
<g id="node5" class="node">
<title>T1_RANK</title>
<path fill="#e2efda" stroke="black" d="M362.25,-433.5C362.25,-433.5 257.75,-433.5 257.75,-433.5 251.75,-433.5 245.75,-427.5 245.75,-421.5 245.75,-421.5 245.75,-389.5 245.75,-389.5 245.75,-383.5 251.75,-377.5 257.75,-377.5 257.75,-377.5 362.25,-377.5 362.25,-377.5 368.25,-377.5 374.25,-383.5 374.25,-389.5 374.25,-389.5 374.25,-421.5 374.25,-421.5 374.25,-427.5 368.25,-433.5 362.25,-433.5"/>
<text xml:space="preserve" text-anchor="middle" x="310" y="-420" font-family="Arial" font-size="10.00">rank_failure_modes</text>
<text xml:space="preserve" text-anchor="middle" x="310" y="-408" font-family="Arial" font-size="10.00">wm&#45;fm01 Worn Drive Belt</text>
<text xml:space="preserve" text-anchor="middle" x="310" y="-396" font-family="Arial" font-size="10.00">total_confidence=0.94</text>
<text xml:space="preserve" text-anchor="middle" x="310" y="-384" font-family="Arial" font-size="10.00">÷ 1 symptom = 94%</text>
</g>
<!-- T1_SYM&#45;&gt;T1_RANK -->
<g id="edge4" class="edge">
<title>T1_SYM&#45;&gt;T1_RANK</title>
<path fill="none" stroke="black" d="M310,-479.15C310,-469.39 310,-456.81 310,-444.86"/>
<polygon fill="black" stroke="black" points="313.5,-445.23 310,-435.23 306.5,-445.23 313.5,-445.23"/>
</g>
<!-- Neo -->
<g id="node15" class="node">
<title>Neo</title>
<path fill="#fce4d6" stroke="black" d="M532.38,-333C532.38,-337.69 503.07,-341.5 467,-341.5 430.93,-341.5 401.62,-337.69 401.62,-333 401.62,-333 401.62,-256.5 401.62,-256.5 401.62,-251.81 430.93,-248 467,-248 503.07,-248 532.38,-251.81 532.38,-256.5 532.38,-256.5 532.38,-333 532.38,-333"/>
<path fill="none" stroke="black" d="M532.38,-333C532.38,-328.31 503.07,-324.5 467,-324.5 430.93,-324.5 401.62,-328.31 401.62,-333"/>
<text xml:space="preserve" text-anchor="middle" x="467" y="-315.25" font-family="Arial" font-size="10.00">Neo4j Knowledge Graph</text>
<text xml:space="preserve" text-anchor="middle" x="467" y="-303.25" font-family="Arial" font-size="10.00">Product wm&#45;001</text>
<text xml:space="preserve" text-anchor="middle" x="467" y="-291.25" font-family="Arial" font-size="10.00">Symptoms · FailureModes</text>
<text xml:space="preserve" text-anchor="middle" x="467" y="-279.25" font-family="Arial" font-size="10.00">INDICATES edges</text>
<text xml:space="preserve" text-anchor="middle" x="467" y="-267.25" font-family="Arial" font-size="10.00">Steps · Resolutions</text>
</g>
<!-- T1_SYM&#45;&gt;Neo -->
<g id="edge13" class="edge">
<title>T1_SYM&#45;&gt;Neo</title>
<path fill="none" stroke="#666666" stroke-dasharray="5,2" d="M335.57,-479.22C351.6,-467.55 371.99,-451.12 387,-433.5 407.9,-408.97 426.35,-378.23 440.25,-352.01"/>
<polygon fill="#666666" stroke="#666666" points="443.33,-353.67 444.84,-343.18 437.12,-350.44 443.33,-353.67"/>
</g>
<!-- T1_ESC -->
<g id="node6" class="node">
<title>T1_ESC</title>
<polygon fill="#c6e0b4" stroke="black" points="268,-326.75 159.75,-294.75 268,-262.75 376.25,-294.75 268,-326.75"/>
<text xml:space="preserve" text-anchor="middle" x="268" y="-297.25" font-family="Arial" font-size="10.00">Escalation gate</text>
<text xml:space="preserve" text-anchor="middle" x="268" y="-285.25" font-family="Arial" font-size="10.00">94% ≥ 65% → PASS</text>
</g>
<!-- T1_RANK&#45;&gt;T1_ESC -->
<g id="edge5" class="edge">
<title>T1_RANK&#45;&gt;T1_ESC</title>
<path fill="none" stroke="black" d="M299.4,-377.06C294.41,-364.12 288.36,-348.46 282.91,-334.36"/>
<polygon fill="black" stroke="black" points="286.3,-333.42 279.43,-325.35 279.77,-335.94 286.3,-333.42"/>
</g>
<!-- T1_RANK&#45;&gt;Neo -->
<g id="edge14" class="edge">
<title>T1_RANK&#45;&gt;Neo</title>
<path fill="none" stroke="#666666" stroke-dasharray="5,2" d="M349.62,-377.06C363.67,-367.33 379.94,-356.06 395.81,-345.06"/>
<polygon fill="#666666" stroke="#666666" points="397.61,-348.07 403.84,-339.5 393.63,-342.32 397.61,-348.07"/>
</g>
<!-- T1_OUT -->
<g id="node7" class="node">
<title>T1_OUT</title>
<path fill="#d5e8f0" stroke="black" d="M323.62,-212C323.62,-212 212.38,-212 212.38,-212 206.38,-212 200.38,-206 200.38,-200 200.38,-200 200.38,-180 200.38,-180 200.38,-174 206.38,-168 212.38,-168 212.38,-168 323.62,-168 323.62,-168 329.62,-168 335.62,-174 335.62,-180 335.62,-180 335.62,-200 335.62,-200 335.62,-206 329.62,-212 323.62,-212"/>
<text xml:space="preserve" text-anchor="middle" x="268" y="-198.5" font-family="Arial" font-size="10.00">Response</text>
<text xml:space="preserve" text-anchor="middle" x="268" y="-186.5" font-family="Arial" font-size="10.00">Resolved at automated tier</text>
<text xml:space="preserve" text-anchor="middle" x="268" y="-174.5" font-family="Arial" font-size="10.00">Provenance trail (5 entities)</text>
</g>
<!-- T1_ESC&#45;&gt;T1_OUT -->
<g id="edge6" class="edge">
<title>T1_ESC&#45;&gt;T1_OUT</title>
<path fill="none" stroke="black" d="M268,-262.36C268,-250.11 268,-236.06 268,-223.68"/>
<polygon fill="black" stroke="black" points="271.5,-223.96 268,-213.96 264.5,-223.96 271.5,-223.96"/>
</g>
<!-- T2_IN -->
<g id="node8" class="node">
<title>T2_IN</title>
<path fill="#d5e8f0" stroke="black" d="M729.5,-597.5C729.5,-597.5 560.5,-597.5 560.5,-597.5 554.5,-597.5 548.5,-591.5 548.5,-585.5 548.5,-585.5 548.5,-573.5 548.5,-573.5 548.5,-567.5 554.5,-561.5 560.5,-561.5 560.5,-561.5 729.5,-561.5 729.5,-561.5 735.5,-561.5 741.5,-567.5 741.5,-573.5 741.5,-573.5 741.5,-585.5 741.5,-585.5 741.5,-591.5 735.5,-597.5 729.5,-597.5"/>
<text xml:space="preserve" text-anchor="middle" x="645" y="-582" font-family="Arial" font-size="10.00">Follow&#45;up message</text>
<text xml:space="preserve" text-anchor="middle" x="645" y="-570" font-family="Arial" font-size="10.00">&#39;Loud grinding noise when it tries to spin&#39;</text>
</g>
<!-- T2_SYM -->
<g id="node9" class="node">
<title>T2_SYM</title>
<path fill="#e2efda" stroke="black" d="M673,-525.5C673,-525.5 579,-525.5 579,-525.5 573,-525.5 567,-519.5 567,-513.5 567,-513.5 567,-481.5 567,-481.5 567,-475.5 573,-469.5 579,-469.5 579,-469.5 673,-469.5 673,-469.5 679,-469.5 685,-475.5 685,-481.5 685,-481.5 685,-513.5 685,-513.5 685,-519.5 679,-525.5 673,-525.5"/>
<text xml:space="preserve" text-anchor="middle" x="626" y="-512" font-family="Arial" font-size="10.00">match_symptoms</text>
<text xml:space="preserve" text-anchor="middle" x="626" y="-500" font-family="Arial" font-size="10.00">2 matches:</text>
<text xml:space="preserve" text-anchor="middle" x="626" y="-488" font-family="Arial" font-size="10.00">wm&#45;s02 vibration (0.71)</text>
<text xml:space="preserve" text-anchor="middle" x="626" y="-476" font-family="Arial" font-size="10.00">wm&#45;s01 spin (0.45)</text>
</g>
<!-- T2_IN&#45;&gt;T2_SYM -->
<g id="edge7" class="edge">
<title>T2_IN&#45;&gt;T2_SYM</title>
<path fill="none" stroke="black" d="M640.88,-561.14C639.18,-553.98 637.14,-545.38 635.12,-536.88"/>
<polygon fill="black" stroke="black" points="638.57,-536.28 632.86,-527.36 631.76,-537.9 638.57,-536.28"/>
</g>
<!-- T2_RANK -->
<g id="node10" class="node">
<title>T2_RANK</title>
<path fill="#fce4d6" stroke="black" d="M670,-433.5C670,-433.5 582,-433.5 582,-433.5 576,-433.5 570,-427.5 570,-421.5 570,-421.5 570,-389.5 570,-389.5 570,-383.5 576,-377.5 582,-377.5 582,-377.5 670,-377.5 670,-377.5 676,-377.5 682,-383.5 682,-389.5 682,-389.5 682,-421.5 682,-421.5 682,-427.5 676,-433.5 670,-433.5"/>
<text xml:space="preserve" text-anchor="middle" x="626" y="-420" font-family="Arial" font-size="10.00">rank_failure_modes</text>
<text xml:space="preserve" text-anchor="middle" x="626" y="-408" font-family="Arial" font-size="10.00">wm&#45;fm01 still top</text>
<text xml:space="preserve" text-anchor="middle" x="626" y="-396" font-family="Arial" font-size="10.00">total_confidence=0.94</text>
<text xml:space="preserve" text-anchor="middle" x="626" y="-384" font-family="Arial" font-size="10.00">÷ 2 symptoms = 47%</text>
</g>
<!-- T2_SYM&#45;&gt;T2_RANK -->
<g id="edge8" class="edge">
<title>T2_SYM&#45;&gt;T2_RANK</title>
<path fill="none" stroke="black" d="M626,-469.01C626,-461.51 626,-453.23 626,-445.23"/>
<polygon fill="black" stroke="black" points="629.5,-445.34 626,-435.34 622.5,-445.34 629.5,-445.34"/>
</g>
<!-- T2_SYM&#45;&gt;Neo -->
<g id="edge15" class="edge">
<title>T2_SYM&#45;&gt;Neo</title>
<path fill="none" stroke="#666666" stroke-dasharray="5,2" d="M593.31,-469.12C581.57,-458.56 568.62,-446.02 558,-433.5 536.46,-408.11 515.73,-377.4 499.51,-351.43"/>
<polygon fill="#666666" stroke="#666666" points="502.55,-349.69 494.32,-343.02 496.59,-353.36 502.55,-349.69"/>
</g>
<!-- T2_ESC -->
<g id="node11" class="node">
<title>T2_ESC</title>
<polygon fill="#f8cbad" stroke="black" points="692,-326.75 557.5,-294.75 692,-262.75 826.5,-294.75 692,-326.75"/>
<text xml:space="preserve" text-anchor="middle" x="692" y="-297.25" font-family="Arial" font-size="10.00">Escalation gate</text>
<text xml:space="preserve" text-anchor="middle" x="692" y="-285.25" font-family="Arial" font-size="10.00">47% &lt; 65% → ESCALATE</text>
</g>
<!-- T2_RANK&#45;&gt;T2_ESC -->
<g id="edge9" class="edge">
<title>T2_RANK&#45;&gt;T2_ESC</title>
<path fill="none" stroke="black" d="M642.65,-377.06C650.78,-363.66 660.68,-347.35 669.48,-332.86"/>
<polygon fill="black" stroke="black" points="672.37,-334.84 674.57,-324.48 666.39,-331.21 672.37,-334.84"/>
</g>
<!-- T2_RANK&#45;&gt;Neo -->
<g id="edge16" class="edge">
<title>T2_RANK&#45;&gt;Neo</title>
<path fill="none" stroke="#666666" stroke-dasharray="5,2" d="M585.88,-377.06C571.57,-367.27 554.99,-355.93 538.84,-344.89"/>
<polygon fill="#666666" stroke="#666666" points="540.88,-342.04 530.65,-339.28 536.93,-347.82 540.88,-342.04"/>
</g>
<!-- T2_STORE -->
<g id="node12" class="node">
<title>T2_STORE</title>
<path fill="#fce4d6" stroke="black" d="M730.38,-208C730.38,-208 653.62,-208 653.62,-208 647.62,-208 641.62,-202 641.62,-196 641.62,-196 641.62,-184 641.62,-184 641.62,-178 647.62,-172 653.62,-172 653.62,-172 730.38,-172 730.38,-172 736.38,-172 742.38,-178 742.38,-184 742.38,-184 742.38,-196 742.38,-196 742.38,-202 736.38,-208 730.38,-208"/>
<text xml:space="preserve" text-anchor="middle" x="692" y="-192.5" font-family="Arial" font-size="10.00">escalation_store.py</text>
<text xml:space="preserve" text-anchor="middle" x="692" y="-180.5" font-family="Arial" font-size="10.00">case 231311d2</text>
</g>
<!-- T2_ESC&#45;&gt;T2_STORE -->
<g id="edge10" class="edge">
<title>T2_ESC&#45;&gt;T2_STORE</title>
<path fill="none" stroke="black" d="M692,-262.36C692,-248.81 692,-233.05 692,-219.8"/>
<polygon fill="black" stroke="black" points="695.5,-219.98 692,-209.98 688.5,-219.98 695.5,-219.98"/>
</g>
<!-- T2_CC -->
<g id="node13" class="node">
<title>T2_CC</title>
<path fill="#fff2cc" stroke="black" d="M736,-132C736,-132 648,-132 648,-132 642,-132 636,-126 636,-120 636,-120 636,-100 636,-100 636,-94 642,-88 648,-88 648,-88 736,-88 736,-88 742,-88 748,-94 748,-100 748,-100 748,-120 748,-120 748,-126 742,-132 736,-132"/>
<text xml:space="preserve" text-anchor="middle" x="692" y="-118.5" font-family="Arial" font-size="10.00">case_management.py</text>
<text xml:space="preserve" text-anchor="middle" x="692" y="-106.5" font-family="Arial" font-size="10.00">POST mock API</text>
<text xml:space="preserve" text-anchor="middle" x="692" y="-94.5" font-family="Arial" font-size="10.00">CASE&#45;4B881382</text>
</g>
<!-- T2_STORE&#45;&gt;T2_CC -->
<g id="edge11" class="edge">
<title>T2_STORE&#45;&gt;T2_CC</title>
<path fill="none" stroke="black" d="M692,-171.69C692,-163.46 692,-153.33 692,-143.73"/>
<polygon fill="black" stroke="black" points="695.5,-143.95 692,-133.95 688.5,-143.95 695.5,-143.95"/>
</g>
<!-- T2_OUT -->
<g id="node14" class="node">
<title>T2_OUT</title>
<path fill="#d5e8f0" stroke="black" d="M742.75,-52C742.75,-52 641.25,-52 641.25,-52 635.25,-52 629.25,-46 629.25,-40 629.25,-40 629.25,-28 629.25,-28 629.25,-22 635.25,-16 641.25,-16 641.25,-16 742.75,-16 742.75,-16 748.75,-16 754.75,-22 754.75,-28 754.75,-28 754.75,-40 754.75,-40 754.75,-46 748.75,-52 742.75,-52"/>
<text xml:space="preserve" text-anchor="middle" x="692" y="-36.5" font-family="Arial" font-size="10.00">Response + Case IDs</text>
<text xml:space="preserve" text-anchor="middle" x="692" y="-24.5" font-family="Arial" font-size="10.00">Human Agent Dashboard</text>
</g>
<!-- T2_CC&#45;&gt;T2_OUT -->
<g id="edge12" class="edge">
<title>T2_CC&#45;&gt;T2_OUT</title>
<path fill="none" stroke="black" d="M692,-87.6C692,-80.11 692,-71.59 692,-63.61"/>
<polygon fill="black" stroke="black" points="695.5,-63.65 692,-53.65 688.5,-63.65 695.5,-63.65"/>
</g>
</g>
</svg>
