<?xml version="1.0" encoding="UTF-8" standalone="no"?>
<!DOCTYPE svg PUBLIC "-//W3C//DTD SVG 1.1//EN"
 "http://www.w3.org/Graphics/SVG/1.1/DTD/svg11.dtd">
<!-- Generated by graphviz version 14.1.5 (20260411.2331)
 -->
<!-- Title: ConfidenceDilution Pages: 1 -->
<svg width="1203pt" height="262pt"
 viewBox="0.00 0.00 1203.00 262.00" xmlns="http://www.w3.org/2000/svg" xmlns:xlink="http://www.w3.org/1999/xlink">
<g id="graph0" class="graph" transform="scale(1 1) rotate(0) translate(4 257.75)">
<title>ConfidenceDilution</title>
<polygon fill="white" stroke="none" points="-4,4 -4,-257.75 1199.25,-257.75 1199.25,4 -4,4"/>
<text xml:space="preserve" text-anchor="middle" x="597.62" y="-236.45" font-family="Arial" font-size="14.00">Figure 11: Confidence Dilution Model (graph/graph_rag.py rank_failure_modes)</text>
<g id="clust1" class="cluster">
<title>cluster_t1</title>
<polygon fill="white" stroke="black" stroke-dasharray="5,2" points="261,-146 261,-222 852,-222 852,-146 261,-146"/>
<text xml:space="preserve" text-anchor="middle" x="556.5" y="-204.7" font-family="Arial" font-size="14.00">Turn 1 — 1 matched symptom</text>
</g>
<g id="clust2" class="cluster">
<title>cluster_t2</title>
<polygon fill="white" stroke="black" stroke-dasharray="5,2" points="240.75,-8 240.75,-138 849.75,-138 849.75,-8 240.75,-8"/>
<text xml:space="preserve" text-anchor="middle" x="545.25" y="-120.7" font-family="Arial" font-size="14.00">Turn 2 — 2 matched symptoms</text>
</g>
<!-- Formula -->
<g id="node1" class="node">
<title>Formula</title>
<path fill="#fff2cc" stroke="black" d="M199.75,-147C199.75,-147 12,-147 12,-147 6,-147 0,-141 0,-135 0,-135 0,-123 0,-123 0,-117 6,-111 12,-111 12,-111 199.75,-111 199.75,-111 205.75,-111 211.75,-117 211.75,-123 211.75,-123 211.75,-135 211.75,-135 211.75,-141 205.75,-147 199.75,-147"/>
<text xml:space="preserve" text-anchor="middle" x="105.88" y="-131.5" font-family="Arial" font-size="10.00">aggregate_confidence =</text>
<text xml:space="preserve" text-anchor="middle" x="105.88" y="-119.5" font-family="Arial" font-size="10.00">total_confidence ÷ max(len(symptom_ids), 1)</text>
</g>
<!-- S1 -->
<g id="node2" class="node">
<title>S1</title>
<polygon fill="none" stroke="black" points="396,-190 269,-190 269,-154 396,-154 396,-190"/>
<text xml:space="preserve" text-anchor="middle" x="332.5" y="-168.5" font-family="Arial" font-size="10.00">symptom_ids = [wm&#45;s01]</text>
</g>
<!-- Formula&#45;&gt;S1 -->
<g id="edge6" class="edge">
<title>Formula&#45;&gt;S1</title>
<path fill="none" stroke="black" stroke-dasharray="5,2" d="M203.44,-147.49C221.58,-150.96 240.28,-154.54 257.6,-157.85"/>
<polygon fill="black" stroke="black" points="256.8,-161.26 267.27,-159.71 258.11,-154.39 256.8,-161.26"/>
</g>
<!-- S2 -->
<g id="node5" class="node">
<title>S2</title>
<polygon fill="none" stroke="black" points="416.25,-106 248.75,-106 248.75,-70 416.25,-70 416.25,-106"/>
<text xml:space="preserve" text-anchor="middle" x="332.5" y="-84.5" font-family="Arial" font-size="10.00">symptom_ids = [wm&#45;s02, wm&#45;s01]</text>
</g>
<!-- Formula&#45;&gt;S2 -->
<g id="edge7" class="edge">
<title>Formula&#45;&gt;S2</title>
<path fill="none" stroke="black" stroke-dasharray="5,2" d="M208.02,-110.54C217.73,-108.77 227.55,-106.97 237.19,-105.21"/>
<polygon fill="black" stroke="black" points="237.7,-108.68 246.91,-103.44 236.45,-101.79 237.7,-108.68"/>
</g>
<!-- E1 -->
<g id="node3" class="node">
<title>E1</title>
<polygon fill="none" stroke="black" points="687.5,-190 453.25,-190 453.25,-154 687.5,-154 687.5,-190"/>
<text xml:space="preserve" text-anchor="middle" x="570.38" y="-174.5" font-family="Arial" font-size="10.00">Cypher: (wm&#45;s01)&#45;[INDICATES 0.94]&#45;&gt;(wm&#45;fm01)</text>
<text xml:space="preserve" text-anchor="middle" x="570.38" y="-162.5" font-family="Arial" font-size="10.00">total_confidence = 0.94</text>
</g>
<!-- S1&#45;&gt;E1 -->
<g id="edge1" class="edge">
<title>S1&#45;&gt;E1</title>
<path fill="none" stroke="black" d="M396.4,-172C410.46,-172 425.86,-172 441.49,-172"/>
<polygon fill="black" stroke="black" points="441.39,-175.5 451.39,-172 441.39,-168.5 441.39,-175.5"/>
</g>
<!-- R1 -->
<g id="node4" class="node">
<title>R1</title>
<path fill="#c6e0b4" stroke="black" d="M832,-190C832,-190 736.5,-190 736.5,-190 730.5,-190 724.5,-184 724.5,-178 724.5,-178 724.5,-166 724.5,-166 724.5,-160 730.5,-154 736.5,-154 736.5,-154 832,-154 832,-154 838,-154 844,-160 844,-166 844,-166 844,-178 844,-178 844,-184 838,-190 832,-190"/>
<text xml:space="preserve" text-anchor="middle" x="784.25" y="-174.5" font-family="Arial" font-size="10.00">0.94 ÷ 1 = 0.94 (94%)</text>
<text xml:space="preserve" text-anchor="middle" x="784.25" y="-162.5" font-family="Arial" font-size="10.00">should_escalate = false</text>
</g>
<!-- E1&#45;&gt;R1 -->
<g id="edge2" class="edge">
<title>E1&#45;&gt;R1</title>
<path fill="none" stroke="black" d="M687.85,-172C696.25,-172 704.56,-172 712.56,-172"/>
<polygon fill="black" stroke="black" points="712.54,-175.5 722.54,-172 712.54,-168.5 712.54,-175.5"/>
</g>
<!-- E2a -->
<g id="node6" class="node">
<title>E2a</title>
<polygon fill="none" stroke="black" points="637.62,-52 503.12,-52 503.12,-16 637.62,-16 637.62,-52"/>
<text xml:space="preserve" text-anchor="middle" x="570.38" y="-36.5" font-family="Arial" font-size="10.00">wm&#45;s02 → wm&#45;fm03 (0.85)</text>
<text xml:space="preserve" text-anchor="middle" x="570.38" y="-24.5" font-family="Arial" font-size="10.00">(not top — lower total)</text>
</g>
<!-- S2&#45;&gt;E2a -->
<g id="edge3" class="edge">
<title>S2&#45;&gt;E2a</title>
<path fill="none" stroke="black" d="M414.02,-69.57C439.24,-63.79 467.02,-57.43 492.02,-51.71"/>
<polygon fill="black" stroke="black" points="492.48,-55.19 501.45,-49.55 490.92,-48.37 492.48,-55.19"/>
</g>
<!-- E2b -->
<g id="node7" class="node">
<title>E2b</title>
<polygon fill="none" stroke="black" points="637.62,-106 503.12,-106 503.12,-70 637.62,-70 637.62,-106"/>
<text xml:space="preserve" text-anchor="middle" x="570.38" y="-90.5" font-family="Arial" font-size="10.00">wm&#45;s01 → wm&#45;fm01 (0.94)</text>
<text xml:space="preserve" text-anchor="middle" x="570.38" y="-78.5" font-family="Arial" font-size="10.00">still ranked #1</text>
</g>
<!-- S2&#45;&gt;E2b -->
<g id="edge4" class="edge">
<title>S2&#45;&gt;E2b</title>
<path fill="none" stroke="black" d="M416.66,-88C441.05,-88 467.62,-88 491.65,-88"/>
<polygon fill="black" stroke="black" points="491.35,-91.5 501.35,-88 491.35,-84.5 491.35,-91.5"/>
</g>
<!-- R2 -->
<g id="node8" class="node">
<title>R2</title>
<path fill="#f8cbad" stroke="black" d="M829.75,-106C829.75,-106 738.75,-106 738.75,-106 732.75,-106 726.75,-100 726.75,-94 726.75,-94 726.75,-82 726.75,-82 726.75,-76 732.75,-70 738.75,-70 738.75,-70 829.75,-70 829.75,-70 835.75,-70 841.75,-76 841.75,-82 841.75,-82 841.75,-94 841.75,-94 841.75,-100 835.75,-106 829.75,-106"/>
<text xml:space="preserve" text-anchor="middle" x="784.25" y="-90.5" font-family="Arial" font-size="10.00">0.94 ÷ 2 = 0.47 (47%)</text>
<text xml:space="preserve" text-anchor="middle" x="784.25" y="-78.5" font-family="Arial" font-size="10.00">should_escalate = true</text>
</g>
<!-- E2b&#45;&gt;R2 -->
<g id="edge5" class="edge">
<title>E2b&#45;&gt;R2</title>
<path fill="none" stroke="black" d="M638.12,-88C662.63,-88 690.39,-88 715.02,-88"/>
<polygon fill="black" stroke="black" points="714.95,-91.5 724.95,-88 714.95,-84.5 714.95,-91.5"/>
</g>
<!-- Threshold -->
<g id="node9" class="node">
<title>Threshold</title>
<polygon fill="none" stroke="black" points="1189.25,-106 945.25,-106 945.25,-70 1195.25,-70 1195.25,-100 1189.25,-106"/>
<polyline fill="none" stroke="black" points="1189.25,-106 1189.25,-100"/>
<polyline fill="none" stroke="black" points="1195.25,-100 1189.25,-100"/>
<text xml:space="preserve" text-anchor="middle" x="1070.25" y="-90.5" font-family="Arial" font-size="10.00">ESCALATION_CONFIDENCE_THRESHOLD = 0.65</text>
<text xml:space="preserve" text-anchor="middle" x="1070.25" y="-78.5" font-family="Arial" font-size="10.00">(config/settings.py)</text>
</g>
<!-- R2&#45;&gt;Threshold -->
<g id="edge8" class="edge">
<title>R2&#45;&gt;Threshold</title>
<path fill="none" stroke="#c00000" d="M842.04,-88C868.46,-88 901.14,-88 933.39,-88"/>
<polygon fill="#c00000" stroke="#c00000" points="933.25,-91.5 943.25,-88 933.25,-84.5 933.25,-91.5"/>
<text xml:space="preserve" text-anchor="middle" x="894.62" y="-89.95" font-family="Arial" font-size="9.00">below threshold</text>
</g>
</g>
</svg>
