<?xml version="1.0" encoding="UTF-8" standalone="no"?>
<!DOCTYPE svg PUBLIC "-//W3C//DTD SVG 1.1//EN"
 "http://www.w3.org/Graphics/SVG/1.1/DTD/svg11.dtd">
<!-- Generated by graphviz version 14.1.5 (20260411.2331)
 -->
<!-- Title: StreamlitEnterpriseLayers Pages: 1 -->
<svg width="471pt" height="588pt"
 viewBox="0.00 0.00 471.00 588.00" xmlns="http://www.w3.org/2000/svg" xmlns:xlink="http://www.w3.org/1999/xlink">
<g id="graph0" class="graph" transform="scale(1 1) rotate(0) translate(4 583.75)">
<title>StreamlitEnterpriseLayers</title>
<polygon fill="white" stroke="none" points="-4,4 -4,-583.75 466.75,-583.75 466.75,4 -4,4"/>
<text xml:space="preserve" text-anchor="middle" x="231.38" y="-562.45" font-family="Arial" font-size="14.00">Figure 12: Platform Layer Stack — Self&#45;Service Channel (ui/app.py)</text>
<!-- UI -->
<g id="node1" class="node">
<title>UI</title>
<path fill="#bdd7ee" stroke="black" d="M226.38,-556C226.38,-556 137.62,-556 137.62,-556 131.62,-556 125.62,-550 125.62,-544 125.62,-544 125.62,-532 125.62,-532 125.62,-526 131.62,-520 137.62,-520 137.62,-520 226.38,-520 226.38,-520 232.38,-520 238.38,-526 238.38,-532 238.38,-532 238.38,-544 238.38,-544 238.38,-550 232.38,-556 226.38,-556"/>
<text xml:space="preserve" text-anchor="middle" x="182" y="-540.5" font-family="Arial" font-size="10.00">Streamlit ui/app.py</text>
<text xml:space="preserve" text-anchor="middle" x="182" y="-528.5" font-family="Arial" font-size="10.00">Customer Chatbot tab</text>
</g>
<!-- CRM -->
<g id="node2" class="node">
<title>CRM</title>
<path fill="#fff2cc" stroke="black" d="M257.12,-473.5C257.12,-473.5 106.88,-473.5 106.88,-473.5 100.88,-473.5 94.88,-467.5 94.88,-461.5 94.88,-461.5 94.88,-441.5 94.88,-441.5 94.88,-435.5 100.88,-429.5 106.88,-429.5 106.88,-429.5 257.12,-429.5 257.12,-429.5 263.12,-429.5 269.12,-435.5 269.12,-441.5 269.12,-441.5 269.12,-461.5 269.12,-461.5 269.12,-467.5 263.12,-473.5 257.12,-473.5"/>
<text xml:space="preserve" text-anchor="middle" x="182" y="-460" font-family="Arial" font-size="10.00">integrations/crm_enrichment.py</text>
<text xml:space="preserve" text-anchor="middle" x="182" y="-448" font-family="Arial" font-size="10.00">GET mock :8090/api/crm/assets/{id}</text>
<text xml:space="preserve" text-anchor="middle" x="182" y="-436" font-family="Arial" font-size="10.00">fixture fallback</text>
</g>
<!-- UI&#45;&gt;CRM -->
<g id="edge1" class="edge">
<title>UI&#45;&gt;CRM</title>
<path fill="none" stroke="black" d="M182,-519.9C182,-509.92 182,-496.99 182,-485.13"/>
<polygon fill="black" stroke="black" points="185.5,-485.29 182,-475.29 178.5,-485.29 185.5,-485.29"/>
<text xml:space="preserve" text-anchor="middle" x="214.25" y="-493.45" font-family="Arial" font-size="9.00">asset_id priority</text>
</g>
<!-- WAR -->
<g id="node3" class="node">
<title>WAR</title>
<path fill="#fff2cc" stroke="black" d="M251.12,-392.5C251.12,-392.5 112.88,-392.5 112.88,-392.5 106.88,-392.5 100.88,-386.5 100.88,-380.5 100.88,-380.5 100.88,-360.5 100.88,-360.5 100.88,-354.5 106.88,-348.5 112.88,-348.5 112.88,-348.5 251.12,-348.5 251.12,-348.5 257.12,-348.5 263.12,-354.5 263.12,-360.5 263.12,-360.5 263.12,-380.5 263.12,-380.5 263.12,-386.5 257.12,-392.5 251.12,-392.5"/>
<text xml:space="preserve" text-anchor="middle" x="182" y="-379" font-family="Arial" font-size="10.00">integrations/warranty_eligibility.py</text>
<text xml:space="preserve" text-anchor="middle" x="182" y="-367" font-family="Arial" font-size="10.00">CRM status + Claims policies</text>
<text xml:space="preserve" text-anchor="middle" x="182" y="-355" font-family="Arial" font-size="10.00">WP&#45;STANDARD&#45;24M</text>
</g>
<!-- CRM&#45;&gt;WAR -->
<g id="edge2" class="edge">
<title>CRM&#45;&gt;WAR</title>
<path fill="none" stroke="black" d="M182,-429.33C182,-421.54 182,-412.52 182,-403.96"/>
<polygon fill="black" stroke="black" points="185.5,-404.24 182,-394.24 178.5,-404.24 185.5,-404.24"/>
</g>
<!-- GATE -->
<g id="node4" class="node">
<title>GATE</title>
<path fill="#fce4d6" stroke="black" d="M170.25,-309.06C170.25,-309.06 39.75,-281.94 39.75,-281.94 33.87,-280.72 33.87,-278.28 39.75,-277.06 39.75,-277.06 170.25,-249.94 170.25,-249.94 176.13,-248.72 187.87,-248.72 193.75,-249.94 193.75,-249.94 324.25,-277.06 324.25,-277.06 330.13,-278.28 330.13,-280.72 324.25,-281.94 324.25,-281.94 193.75,-309.06 193.75,-309.06 187.87,-310.28 176.13,-310.28 170.25,-309.06"/>
<text xml:space="preserve" text-anchor="middle" x="182" y="-282" font-family="Arial" font-size="10.00">Warranty gate</text>
<text xml:space="preserve" text-anchor="middle" x="182" y="-270" font-family="Arial" font-size="10.00">if not eligible → block diagnosis</text>
</g>
<!-- WAR&#45;&gt;GATE -->
<g id="edge3" class="edge">
<title>WAR&#45;&gt;GATE</title>
<path fill="none" stroke="black" d="M182,-348.41C182,-340.83 182,-331.99 182,-323.24"/>
<polygon fill="black" stroke="black" points="185.5,-323.41 182,-313.41 178.5,-323.41 185.5,-323.41"/>
</g>
<!-- LG -->
<g id="node5" class="node">
<title>LG</title>
<path fill="#c6e0b4" stroke="black" d="M125.12,-201C125.12,-201 16.87,-201 16.87,-201 10.87,-201 4.88,-195 4.88,-189 4.88,-189 4.88,-177 4.88,-177 4.88,-171 10.88,-165 16.88,-165 16.88,-165 125.12,-165 125.12,-165 131.12,-165 137.12,-171 137.12,-177 137.12,-177 137.12,-189 137.12,-189 137.12,-195 131.12,-201 125.12,-201"/>
<text xml:space="preserve" text-anchor="middle" x="71" y="-185.5" font-family="Arial" font-size="10.00">agents/diagnosis_graph.py</text>
<text xml:space="preserve" text-anchor="middle" x="71" y="-173.5" font-family="Arial" font-size="10.00">LangGraph StateGraph</text>
</g>
<!-- GATE&#45;&gt;LG -->
<g id="edge4" class="edge">
<title>GATE&#45;&gt;LG</title>
<path fill="none" stroke="black" d="M152.25,-253.18C136,-239.34 115.96,-222.27 99.84,-208.56"/>
<polygon fill="black" stroke="black" points="102.38,-206.12 92.5,-202.3 97.84,-211.45 102.38,-206.12"/>
<text xml:space="preserve" text-anchor="middle" x="138.17" y="-220.95" font-family="Arial" font-size="9.00">eligible</text>
</g>
<!-- LG&#45;&gt;UI -->
<g id="edge9" class="edge">
<title>LG&#45;&gt;UI</title>
<path fill="none" stroke="black" d="M46.96,-201.34C26.36,-218.4 0,-246.49 0,-278.5 0,-452.5 0,-452.5 0,-452.5 0,-504.75 62.48,-524.78 114.22,-532.41"/>
<polygon fill="black" stroke="black" points="113.54,-535.85 123.91,-533.7 114.46,-528.91 113.54,-535.85"/>
</g>
<!-- GR -->
<g id="node6" class="node">
<title>GR</title>
<path fill="#a9d18e" stroke="black" d="M115,-118.5C115,-118.5 27,-118.5 27,-118.5 21,-118.5 15,-112.5 15,-106.5 15,-106.5 15,-94.5 15,-94.5 15,-88.5 21,-82.5 27,-82.5 27,-82.5 115,-82.5 115,-82.5 121,-82.5 127,-88.5 127,-94.5 127,-94.5 127,-106.5 127,-106.5 127,-112.5 121,-118.5 115,-118.5"/>
<text xml:space="preserve" text-anchor="middle" x="71" y="-103" font-family="Arial" font-size="10.00">graph/graph_rag.py</text>
<text xml:space="preserve" text-anchor="middle" x="71" y="-91" font-family="Arial" font-size="10.00">GraphRAG diagnose()</text>
</g>
<!-- LG&#45;&gt;GR -->
<g id="edge5" class="edge">
<title>LG&#45;&gt;GR</title>
<path fill="none" stroke="black" d="M65.32,-164.53C64.26,-154.51 63.99,-141.68 64.5,-130.21"/>
<polygon fill="black" stroke="black" points="67.98,-130.67 65.22,-120.44 61,-130.16 67.98,-130.67"/>
</g>
<!-- ESC -->
<g id="node8" class="node">
<title>ESC</title>
<path fill="#fce4d6" stroke="black" d="M254.88,-118.5C254.88,-118.5 157.12,-118.5 157.12,-118.5 151.12,-118.5 145.12,-112.5 145.12,-106.5 145.12,-106.5 145.12,-94.5 145.12,-94.5 145.12,-88.5 151.12,-82.5 157.12,-82.5 157.12,-82.5 254.88,-82.5 254.88,-82.5 260.88,-82.5 266.88,-88.5 266.88,-94.5 266.88,-94.5 266.88,-106.5 266.88,-106.5 266.88,-112.5 260.88,-118.5 254.88,-118.5"/>
<text xml:space="preserve" text-anchor="middle" x="206" y="-103" font-family="Arial" font-size="10.00">utils/escalation_store.py</text>
<text xml:space="preserve" text-anchor="middle" x="206" y="-91" font-family="Arial" font-size="10.00">data/escalations.json</text>
</g>
<!-- LG&#45;&gt;ESC -->
<g id="edge8" class="edge">
<title>LG&#45;&gt;ESC</title>
<path fill="none" stroke="black" d="M100.29,-164.53C119.84,-152.88 145.76,-137.42 167.05,-124.73"/>
<polygon fill="black" stroke="black" points="168.67,-127.84 175.46,-119.71 165.08,-121.82 168.67,-127.84"/>
<text xml:space="preserve" text-anchor="middle" x="183.71" y="-138.45" font-family="Arial" font-size="9.00">if should_escalate</text>
</g>
<!-- GR&#45;&gt;LG -->
<g id="edge7" class="edge">
<title>GR&#45;&gt;LG</title>
<path fill="none" stroke="black" d="M76.67,-118.93C77.74,-128.95 78.01,-141.78 77.5,-153.25"/>
<polygon fill="black" stroke="black" points="74.02,-152.8 76.79,-163.02 81,-153.3 74.02,-152.8"/>
</g>
<!-- NEO -->
<g id="node7" class="node">
<title>NEO</title>
<path fill="#fce4d6" stroke="black" d="M105.25,-32.73C105.25,-34.53 89.9,-36 71,-36 52.1,-36 36.75,-34.53 36.75,-32.73 36.75,-32.73 36.75,-3.27 36.75,-3.27 36.75,-1.47 52.1,0 71,0 89.9,0 105.25,-1.47 105.25,-3.27 105.25,-3.27 105.25,-32.73 105.25,-32.73"/>
<path fill="none" stroke="black" d="M105.25,-32.73C105.25,-30.92 89.9,-29.45 71,-29.45 52.1,-29.45 36.75,-30.92 36.75,-32.73"/>
<text xml:space="preserve" text-anchor="middle" x="71" y="-14.5" font-family="Arial" font-size="10.00">Neo4j :7687</text>
</g>
<!-- GR&#45;&gt;NEO -->
<g id="edge6" class="edge">
<title>GR&#45;&gt;NEO</title>
<path fill="none" stroke="black" d="M71,-82.03C71,-72.01 71,-59.18 71,-47.71"/>
<polygon fill="black" stroke="black" points="74.5,-47.95 71,-37.95 67.5,-47.95 74.5,-47.95"/>
</g>
<!-- CC -->
<g id="node9" class="node">
<title>CC</title>
<path fill="#fff2cc" stroke="black" d="M442.62,-36C442.62,-36 301.38,-36 301.38,-36 295.38,-36 289.38,-30 289.38,-24 289.38,-24 289.38,-12 289.38,-12 289.38,-6 295.38,0 301.38,0 301.38,0 442.62,0 442.62,0 448.62,0 454.62,-6 454.62,-12 454.62,-12 454.62,-24 454.62,-24 454.62,-30 448.62,-36 442.62,-36"/>
<text xml:space="preserve" text-anchor="middle" x="372" y="-20.5" font-family="Arial" font-size="10.00">integrations/case_management.py</text>
<text xml:space="preserve" text-anchor="middle" x="372" y="-8.5" font-family="Arial" font-size="10.00">POST :8090/api/cases</text>
</g>
<!-- ESC&#45;&gt;CC -->
<g id="edge10" class="edge">
<title>ESC&#45;&gt;CC</title>
<path fill="none" stroke="black" d="M228.17,-82.16C240.68,-72.94 256.9,-61.91 272.5,-54 282.3,-49.03 292.97,-44.47 303.57,-40.4"/>
<polygon fill="black" stroke="black" points="304.53,-43.78 312.69,-37.02 302.09,-37.21 304.53,-43.78"/>
<text xml:space="preserve" text-anchor="middle" x="315.25" y="-55.95" font-family="Arial" font-size="9.00">CRM context present</text>
</g>
<!-- DASH -->
<g id="node10" class="node">
<title>DASH</title>
<path fill="#bdd7ee" stroke="black" d="M259,-36C259,-36 141,-36 141,-36 135,-36 129,-30 129,-24 129,-24 129,-12 129,-12 129,-6 135,0 141,0 141,0 259,0 259,0 265,0 271,-6 271,-12 271,-12 271,-24 271,-24 271,-30 265,-36 259,-36"/>
<text xml:space="preserve" text-anchor="middle" x="200" y="-14.5" font-family="Arial" font-size="10.00">Human Agent Dashboard tab</text>
</g>
<!-- ESC&#45;&gt;DASH -->
<g id="edge11" class="edge">
<title>ESC&#45;&gt;DASH</title>
<path fill="none" stroke="black" d="M204.7,-82.03C203.95,-72.01 202.99,-59.18 202.14,-47.71"/>
<polygon fill="black" stroke="black" points="205.65,-47.65 201.41,-37.94 198.66,-48.18 205.65,-47.65"/>
</g>
<!-- CC&#45;&gt;UI -->
<g id="edge12" class="edge">
<title>CC&#45;&gt;UI</title>
<path fill="none" stroke="black" d="M372,-36.27C372,-52.57 372,-77.7 372,-99.5 372,-452.5 372,-452.5 372,-452.5 372,-507.52 304.66,-526.98 250.16,-533.72"/>
<polygon fill="black" stroke="black" points="249.81,-530.23 240.25,-534.8 250.58,-537.19 249.81,-530.23"/>
<text xml:space="preserve" text-anchor="middle" x="417.38" y="-276.2" font-family="Arial" font-size="9.00">CCaaS case id in chat</text>
</g>
</g>
</svg>
