<?xml version="1.0" encoding="UTF-8" standalone="no"?>
<!DOCTYPE svg PUBLIC "-//W3C//DTD SVG 1.1//EN"
 "http://www.w3.org/Graphics/SVG/1.1/DTD/svg11.dtd">
<!-- Generated by graphviz version 14.1.5 (20260411.2331)
 -->
<!-- Title: DemoResponseFieldMap Pages: 1 -->
<svg width="1574pt" height="616pt"
 viewBox="0.00 0.00 1574.00 616.00" xmlns="http://www.w3.org/2000/svg" xmlns:xlink="http://www.w3.org/1999/xlink">
<g id="graph0" class="graph" transform="scale(1 1) rotate(0) translate(4 611.75)">
<title>DemoResponseFieldMap</title>
<polygon fill="white" stroke="none" points="-4,4 -4,-611.75 1570,-611.75 1570,4 -4,4"/>
<text xml:space="preserve" text-anchor="middle" x="783" y="-590.45" font-family="Arial" font-size="14.00">Figure 13: Diagnostic Response Fields → Neo4j Entities → Enterprise Sources</text>
<g id="clust1" class="cluster">
<title>cluster_ui</title>
<path fill="white" stroke="#2e75b6" d="M339,-176C339,-176 492.5,-176 492.5,-176 498.5,-176 504.5,-182 504.5,-188 504.5,-188 504.5,-564 504.5,-564 504.5,-570 498.5,-576 492.5,-576 492.5,-576 339,-576 339,-576 333,-576 327,-570 327,-564 327,-564 327,-188 327,-188 327,-182 333,-176 339,-176"/>
<text xml:space="preserve" text-anchor="middle" x="415.75" y="-558.7" font-family="Arial" font-size="14.00">UI Response Sections</text>
</g>
<g id="clust2" class="cluster">
<title>cluster_neo4j</title>
<path fill="white" stroke="#548235" d="M537.5,-167C537.5,-167 1546,-167 1546,-167 1552,-167 1558,-173 1558,-179 1558,-179 1558,-305 1558,-305 1558,-311 1552,-317 1546,-317 1546,-317 537.5,-317 537.5,-317 531.5,-317 525.5,-311 525.5,-305 525.5,-305 525.5,-179 525.5,-179 525.5,-173 531.5,-167 537.5,-167"/>
<text xml:space="preserve" text-anchor="middle" x="1041.75" y="-299.7" font-family="Arial" font-size="14.00">Neo4j Nodes &amp; Relationships</text>
</g>
<g id="clust3" class="cluster">
<title>cluster_etl</title>
<path fill="white" stroke="#bf8f00" d="M12,-8C12,-8 258.25,-8 258.25,-8 264.25,-8 270.25,-14 270.25,-20 270.25,-20 270.25,-342 270.25,-342 270.25,-348 264.25,-354 258.25,-354 258.25,-354 12,-354 12,-354 6,-354 0,-348 0,-342 0,-342 0,-20 0,-20 0,-14 6,-8 12,-8"/>
<text xml:space="preserve" text-anchor="middle" x="135.12" y="-336.7" font-family="Arial" font-size="14.00">ETL Source Systems (enterprise_pipeline)</text>
</g>
<!-- R_PROD -->
<g id="node1" class="node">
<title>R_PROD</title>
<polygon fill="none" stroke="black" points="496.5,-220 335,-220 335,-184 496.5,-184 496.5,-220"/>
<text xml:space="preserve" text-anchor="middle" x="415.75" y="-204.5" font-family="Arial" font-size="10.00">Product:</text>
<text xml:space="preserve" text-anchor="middle" x="415.75" y="-192.5" font-family="Arial" font-size="10.00">Front Load Washing Machine 8kg</text>
</g>
<!-- N_P -->
<g id="node8" class="node">
<title>N_P</title>
<polygon fill="none" stroke="black" points="858.75,-215 771.5,-215 771.5,-179 858.75,-179 858.75,-215"/>
<text xml:space="preserve" text-anchor="middle" x="815.12" y="-193.5" font-family="Arial" font-size="10.00">Product wm&#45;001</text>
</g>
<!-- R_PROD&#45;&gt;N_P -->
<g id="edge1" class="edge">
<title>R_PROD&#45;&gt;N_P</title>
<path fill="none" stroke="#4472c4" d="M486.55,-183.51C499.41,-180.8 512.8,-178.44 525.5,-177 607.15,-167.74 702.31,-178.48 760.37,-187.44"/>
<polygon fill="#4472c4" stroke="#4472c4" points="759.55,-190.86 769.98,-188.97 760.65,-183.94 759.55,-190.86"/>
</g>
<!-- R_SYM -->
<g id="node2" class="node">
<title>R_SYM</title>
<polygon fill="none" stroke="black" points="467.62,-328 363.88,-328 363.88,-292 467.62,-292 467.62,-328"/>
<text xml:space="preserve" text-anchor="middle" x="415.75" y="-312.5" font-family="Arial" font-size="10.00">Matched Symptoms</text>
<text xml:space="preserve" text-anchor="middle" x="415.75" y="-300.5" font-family="Arial" font-size="10.00">wm&#45;s01, wm&#45;s02</text>
</g>
<!-- N_S -->
<g id="node9" class="node">
<title>N_S</title>
<polygon fill="none" stroke="black" points="1102.38,-231 1015.12,-231 1015.12,-195 1102.38,-195 1102.38,-231"/>
<text xml:space="preserve" text-anchor="middle" x="1058.75" y="-209.5" font-family="Arial" font-size="10.00">Symptom nodes</text>
</g>
<!-- R_SYM&#45;&gt;N_S -->
<g id="edge2" class="edge">
<title>R_SYM&#45;&gt;N_S</title>
<path fill="none" stroke="#4472c4" d="M468.11,-294.49C482.96,-290.51 499.27,-286.62 514.5,-284 721.15,-248.46 781.72,-298.4 984.75,-246 990.2,-244.59 999.52,-240.77 1009.7,-236.21"/>
<polygon fill="#4472c4" stroke="#4472c4" points="1011.05,-239.44 1018.68,-232.08 1008.13,-233.07 1011.05,-239.44"/>
</g>
<!-- R_FM -->
<g id="node3" class="node">
<title>R_FM</title>
<polygon fill="none" stroke="black" points="480,-490 351.5,-490 351.5,-454 480,-454 480,-490"/>
<text xml:space="preserve" text-anchor="middle" x="415.75" y="-474.5" font-family="Arial" font-size="10.00">Failure Mode</text>
<text xml:space="preserve" text-anchor="middle" x="415.75" y="-462.5" font-family="Arial" font-size="10.00">Worn Drive Belt wm&#45;fm01</text>
</g>
<!-- N_FM -->
<g id="node10" class="node">
<title>N_FM</title>
<polygon fill="none" stroke="black" points="1550,-262 1451.5,-262 1451.5,-226 1550,-226 1550,-262"/>
<text xml:space="preserve" text-anchor="middle" x="1500.75" y="-240.5" font-family="Arial" font-size="10.00">FailureMode nodes</text>
</g>
<!-- R_FM&#45;&gt;N_FM -->
<g id="edge3" class="edge">
<title>R_FM&#45;&gt;N_FM</title>
<path fill="none" stroke="#4472c4" d="M480.41,-468.36C515.4,-466.66 559.58,-465 599,-465 599,-465 599,-465 1308,-465 1408.45,-465 1468.13,-333.12 1490.09,-273.11"/>
<polygon fill="#4472c4" stroke="#4472c4" points="1493.32,-274.48 1493.36,-263.89 1486.72,-272.14 1493.32,-274.48"/>
</g>
<!-- R_STEP -->
<g id="node4" class="node">
<title>R_STEP</title>
<polygon fill="none" stroke="black" points="461.25,-436 370.25,-436 370.25,-400 461.25,-400 461.25,-436"/>
<text xml:space="preserve" text-anchor="middle" x="415.75" y="-420.5" font-family="Arial" font-size="10.00">Diagnostic Steps</text>
<text xml:space="preserve" text-anchor="middle" x="415.75" y="-408.5" font-family="Arial" font-size="10.00">wm&#45;d01..d04</text>
</g>
<!-- N_DS -->
<g id="node11" class="node">
<title>N_DS</title>
<polygon fill="none" stroke="black" points="1114.75,-285 1002.75,-285 1002.75,-249 1114.75,-249 1114.75,-285"/>
<text xml:space="preserve" text-anchor="middle" x="1058.75" y="-263.5" font-family="Arial" font-size="10.00">DiagnosticStep nodes</text>
</g>
<!-- R_STEP&#45;&gt;N_DS -->
<g id="edge4" class="edge">
<title>R_STEP&#45;&gt;N_DS</title>
<path fill="none" stroke="#4472c4" d="M461.64,-421.04C561.57,-425.86 807.52,-426.87 984.75,-337 1005.04,-326.71 1023.49,-308.9 1036.77,-293.83"/>
<polygon fill="#4472c4" stroke="#4472c4" points="1039.19,-296.39 1042.98,-286.5 1033.85,-291.86 1039.19,-296.39"/>
</g>
<!-- R_RES -->
<g id="node5" class="node">
<title>R_RES</title>
<polygon fill="none" stroke="black" points="480,-274 351.5,-274 351.5,-238 480,-238 480,-274"/>
<text xml:space="preserve" text-anchor="middle" x="415.75" y="-258.5" font-family="Arial" font-size="10.00">Past Resolutions</text>
<text xml:space="preserve" text-anchor="middle" x="415.75" y="-246.5" font-family="Arial" font-size="10.00">CLM&#45;2026&#45;00481, wm&#45;r01</text>
</g>
<!-- N_HR -->
<g id="node12" class="node">
<title>N_HR</title>
<polygon fill="none" stroke="black" points="666.5,-222 533.5,-222 533.5,-186 666.5,-186 666.5,-222"/>
<text xml:space="preserve" text-anchor="middle" x="600" y="-200.5" font-family="Arial" font-size="10.00">HistoricalResolution nodes</text>
</g>
<!-- R_RES&#45;&gt;N_HR -->
<g id="edge5" class="edge">
<title>R_RES&#45;&gt;N_HR</title>
<path fill="none" stroke="#4472c4" d="M480.46,-238.99C488.7,-236.04 496.91,-232.71 504.5,-229 509.37,-226.62 509.53,-224.16 514.5,-222 517.09,-220.87 519.75,-219.82 522.47,-218.82"/>
<polygon fill="#4472c4" stroke="#4472c4" points="523.3,-222.24 531.7,-215.78 521.1,-215.59 523.3,-222.24"/>
</g>
<!-- R_PROV -->
<g id="node6" class="node">
<title>R_PROV</title>
<polygon fill="none" stroke="black" points="489,-382 342.5,-382 342.5,-346 489,-346 489,-382"/>
<text xml:space="preserve" text-anchor="middle" x="415.75" y="-366.5" font-family="Arial" font-size="10.00">Provenance Trail</text>
<text xml:space="preserve" text-anchor="middle" x="415.75" y="-354.5" font-family="Arial" font-size="10.00">FMEA · ServiceManual · FSM</text>
</g>
<!-- R_PROV&#45;&gt;N_S -->
<g id="edge6" class="edge">
<title>R_PROV&#45;&gt;N_S</title>
<path fill="none" stroke="#4472c4" d="M489.43,-352.78C640.33,-329.38 974.52,-276.96 984.75,-270 997.61,-261.26 991.3,-250.52 1002.75,-240 1003.65,-239.17 1004.58,-238.36 1005.54,-237.58"/>
<polygon fill="#4472c4" stroke="#4472c4" points="1007.38,-240.56 1013.48,-231.89 1003.31,-234.87 1007.38,-240.56"/>
</g>
<!-- R_PROV&#45;&gt;N_FM -->
<g id="edge7" class="edge">
<title>R_PROV&#45;&gt;N_FM</title>
<path fill="none" stroke="#4472c4" d="M489.43,-364.88C539.26,-365.35 606.88,-365.69 666.5,-365 1000.82,-361.16 1093.73,-379.29 1414.5,-285 1429.19,-280.68 1444.49,-274.07 1458,-267.41"/>
<polygon fill="#4472c4" stroke="#4472c4" points="1459.28,-270.69 1466.6,-263.03 1456.1,-264.45 1459.28,-270.69"/>
</g>
<!-- R_PROV&#45;&gt;N_DS -->
<g id="edge8" class="edge">
<title>R_PROV&#45;&gt;N_DS</title>
<path fill="none" stroke="#4472c4" d="M489.36,-361.48C621.23,-356.23 894.75,-342.01 984.75,-312 998.65,-307.36 1012.66,-299.64 1024.63,-291.89"/>
<polygon fill="#4472c4" stroke="#4472c4" points="1026.59,-294.79 1032.91,-286.28 1022.66,-288.99 1026.59,-294.79"/>
</g>
<!-- R_PROV&#45;&gt;N_HR -->
<g id="edge9" class="edge">
<title>R_PROV&#45;&gt;N_HR</title>
<path fill="none" stroke="#4472c4" d="M489.25,-349.17C494.93,-345.88 500.14,-341.87 504.5,-337 520.47,-319.13 503.02,-305.04 514.5,-284 526.2,-262.56 545.7,-243.52 563.02,-229.4"/>
<polygon fill="#4472c4" stroke="#4472c4" points="564.94,-232.35 570.64,-223.42 560.62,-226.85 564.94,-232.35"/>
</g>
<!-- R_CRM -->
<g id="node7" class="node">
<title>R_CRM</title>
<polygon fill="none" stroke="black" points="487.5,-544 344,-544 344,-508 487.5,-508 487.5,-544"/>
<text xml:space="preserve" text-anchor="middle" x="415.75" y="-528.5" font-family="Arial" font-size="10.00">CRM Context</text>
<text xml:space="preserve" text-anchor="middle" x="415.75" y="-516.5" font-family="Arial" font-size="10.00">Jane Martinez AST&#45;WM&#45;4421</text>
</g>
<!-- CRM_SRC -->
<g id="node18" class="node">
<title>CRM_SRC</title>
<polygon fill="none" stroke="black" points="178.62,-322 90.62,-322 90.62,-318 86.62,-318 86.62,-314 90.62,-314 90.62,-294 86.62,-294 86.62,-290 90.62,-290 90.62,-286 178.62,-286 178.62,-322"/>
<polyline fill="none" stroke="black" points="90.62,-318 94.62,-318 94.62,-314 90.62,-314"/>
<polyline fill="none" stroke="black" points="90.62,-294 94.62,-294 94.62,-290 90.62,-290"/>
<text xml:space="preserve" text-anchor="middle" x="134.62" y="-306.5" font-family="Arial" font-size="10.00">CRM</text>
<text xml:space="preserve" text-anchor="middle" x="134.62" y="-294.5" font-family="Arial" font-size="10.00">crm_assets.json</text>
</g>
<!-- R_CRM&#45;&gt;CRM_SRC -->
<g id="edge10" class="edge">
<title>R_CRM&#45;&gt;CRM_SRC</title>
<path fill="none" stroke="#4472c4" d="M343.94,-507.65C338.04,-505.1 332.31,-502.23 327,-499 252.75,-453.82 186.75,-373.42 155.23,-331.36"/>
<polygon fill="#4472c4" stroke="#4472c4" points="158.16,-329.44 149.4,-323.48 152.53,-333.6 158.16,-329.44"/>
</g>
<!-- N_P&#45;&gt;N_S -->
<g id="edge11" class="edge">
<title>N_P&#45;&gt;N_S</title>
<path fill="none" stroke="#4472c4" d="M859.19,-196.62C893.31,-196.68 942.17,-197.59 984.75,-201.5 990.82,-202.06 997.15,-202.8 1003.43,-203.65"/>
<polygon fill="#4472c4" stroke="#4472c4" points="1002.74,-207.08 1013.13,-205.04 1003.74,-200.16 1002.74,-207.08"/>
<text xml:space="preserve" text-anchor="middle" x="930.75" y="-203.45" font-family="Arial" font-size="9.00">HAS_SYMPTOM</text>
</g>
<!-- N_P&#45;&gt;N_FM -->
<g id="edge12" class="edge">
<title>N_P&#45;&gt;N_FM</title>
<path fill="none" stroke="#4472c4" d="M859.08,-193.71C896.89,-190.99 953.44,-187.37 1002.75,-186 1185.84,-180.92 1237.15,-157.25 1414.5,-203 1429.58,-206.89 1445.19,-213.52 1458.86,-220.34"/>
<polygon fill="#4472c4" stroke="#4472c4" points="1457.06,-223.35 1467.55,-224.84 1460.28,-217.13 1457.06,-223.35"/>
<text xml:space="preserve" text-anchor="middle" x="1157.12" y="-181.12" font-family="Arial" font-size="9.00">CAN_HAVE</text>
</g>
<!-- N_P&#45;&gt;N_DS -->
<g id="edge15" class="edge">
<title>N_P&#45;&gt;N_DS</title>
<path fill="none" stroke="#4472c4" d="M859.04,-209.43C895.77,-220.07 949.23,-235.56 991.45,-247.79"/>
<polygon fill="#4472c4" stroke="#4472c4" points="990.45,-251.15 1001.03,-250.57 992.4,-244.42 990.45,-251.15"/>
<text xml:space="preserve" text-anchor="middle" x="930.75" y="-246.31" font-family="Arial" font-size="9.00">HAS_DIAGNOSTIC_STEP</text>
</g>
<!-- N_IND -->
<g id="node13" class="node">
<title>N_IND</title>
<polygon fill="none" stroke="black" points="1307,-276 1199.5,-244 1307,-212 1414.5,-244 1307,-276"/>
<text xml:space="preserve" text-anchor="middle" x="1307" y="-246.5" font-family="Arial" font-size="10.00">INDICATES edges</text>
<text xml:space="preserve" text-anchor="middle" x="1307" y="-234.5" font-family="Arial" font-size="10.00">(confidence property)</text>
</g>
<!-- N_S&#45;&gt;N_IND -->
<g id="edge13" class="edge">
<title>N_S&#45;&gt;N_IND</title>
<path fill="none" stroke="#4472c4" d="M1102.64,-218.4C1134.69,-222.43 1179.59,-228.09 1219.05,-233.05"/>
<polygon fill="#4472c4" stroke="#4472c4" points="1218.43,-236.5 1228.78,-234.28 1219.3,-229.56 1218.43,-236.5"/>
</g>
<!-- N_HR&#45;&gt;N_P -->
<g id="edge16" class="edge">
<title>N_HR&#45;&gt;N_P</title>
<path fill="none" stroke="#4472c4" d="M666.97,-201.83C696.84,-200.85 731.72,-199.71 760.02,-198.78"/>
<polygon fill="#4472c4" stroke="#4472c4" points="759.91,-202.28 769.79,-198.46 759.69,-195.29 759.91,-202.28"/>
<text xml:space="preserve" text-anchor="middle" x="719" y="-203.08" font-family="Arial" font-size="9.00">FOR_PRODUCT</text>
</g>
<!-- N_IND&#45;&gt;N_FM -->
<g id="edge14" class="edge">
<title>N_IND&#45;&gt;N_FM</title>
<path fill="none" stroke="#4472c4" d="M1416.2,-244C1424.33,-244 1432.33,-244 1439.97,-244"/>
<polygon fill="#4472c4" stroke="#4472c4" points="1439.76,-247.5 1449.76,-244 1439.76,-240.5 1439.76,-247.5"/>
</g>
<!-- PIM -->
<g id="node14" class="node">
<title>PIM</title>
<polygon fill="none" stroke="black" points="179.38,-160 89.88,-160 89.88,-156 85.88,-156 85.88,-152 89.88,-152 89.88,-132 85.88,-132 85.88,-128 89.88,-128 89.88,-124 179.38,-124 179.38,-160"/>
<polyline fill="none" stroke="black" points="89.88,-156 93.88,-156 93.88,-152 89.88,-152"/>
<polyline fill="none" stroke="black" points="89.88,-132 93.88,-132 93.88,-128 89.88,-128"/>
<text xml:space="preserve" text-anchor="middle" x="134.62" y="-144.5" font-family="Arial" font-size="10.00">PIM</text>
<text xml:space="preserve" text-anchor="middle" x="134.62" y="-132.5" font-family="Arial" font-size="10.00">pim_catalog.json</text>
</g>
<!-- PIM&#45;&gt;N_P -->
<g id="edge17" class="edge">
<title>PIM&#45;&gt;N_P</title>
<path fill="none" stroke="#4472c4" d="M179.64,-144.05C248.8,-147.3 387.17,-153.88 504.5,-160 576.51,-163.76 594.5,-164.93 666.5,-169 705.17,-171.19 715.62,-165.93 753.5,-174 755.78,-174.49 758.09,-175.04 760.4,-175.66"/>
<polygon fill="#4472c4" stroke="#4472c4" points="759.19,-178.95 769.78,-178.46 761.2,-172.24 759.19,-178.95"/>
</g>
<!-- FMEA -->
<g id="node15" class="node">
<title>FMEA</title>
<polygon fill="none" stroke="black" points="193.25,-52 70,-52 70,-16 199.25,-16 199.25,-46 193.25,-52"/>
<polyline fill="none" stroke="black" points="193.25,-52 193.25,-46"/>
<polyline fill="none" stroke="black" points="199.25,-46 193.25,-46"/>
<text xml:space="preserve" text-anchor="middle" x="134.62" y="-36.5" font-family="Arial" font-size="10.00">FMEA docs</text>
<text xml:space="preserve" text-anchor="middle" x="134.62" y="-24.5" font-family="Arial" font-size="10.00">symptoms · failure modes</text>
</g>
<!-- FMEA&#45;&gt;N_S -->
<g id="edge18" class="edge">
<title>FMEA&#45;&gt;N_S</title>
<path fill="none" stroke="#4472c4" d="M199.63,-36.88C256.2,-39.17 340.94,-42 414.75,-42 414.75,-42 414.75,-42 816.12,-42 891.82,-42 923.39,-21.67 984.75,-66 1023.8,-94.21 1043.11,-149.27 1051.72,-183.42"/>
<polygon fill="#4472c4" stroke="#4472c4" points="1048.3,-184.14 1053.99,-193.07 1055.11,-182.54 1048.3,-184.14"/>
</g>
<!-- FMEA&#45;&gt;N_FM -->
<g id="edge19" class="edge">
<title>FMEA&#45;&gt;N_FM</title>
<path fill="none" stroke="#4472c4" d="M199.72,-23.17C256.16,-14.58 340.67,-4 414.75,-4 414.75,-4 414.75,-4 1308,-4 1414.69,-4 1471.73,-150.56 1491.56,-214.62"/>
<polygon fill="#4472c4" stroke="#4472c4" points="1488.19,-215.54 1494.41,-224.12 1494.89,-213.53 1488.19,-215.54"/>
</g>
<!-- MAN -->
<g id="node16" class="node">
<title>MAN</title>
<polygon fill="none" stroke="black" points="183.12,-106 80.12,-106 80.12,-70 189.12,-70 189.12,-100 183.12,-106"/>
<polyline fill="none" stroke="black" points="183.12,-106 183.12,-100"/>
<polyline fill="none" stroke="black" points="189.12,-100 183.12,-100"/>
<text xml:space="preserve" text-anchor="middle" x="134.62" y="-90.5" font-family="Arial" font-size="10.00">Service Manual</text>
<text xml:space="preserve" text-anchor="middle" x="134.62" y="-78.5" font-family="Arial" font-size="10.00">troubleshooting steps</text>
</g>
<!-- MAN&#45;&gt;N_DS -->
<g id="edge20" class="edge">
<title>MAN&#45;&gt;N_DS</title>
<path fill="none" stroke="#4472c4" d="M189.38,-85.55C245.58,-83.19 336.34,-80 414.75,-80 414.75,-80 414.75,-80 816.12,-80 906.34,-80 928.51,-122.46 984.75,-193 998.69,-210.49 987.67,-223.48 1002.75,-240 1003.21,-240.5 1003.68,-241 1004.16,-241.48"/>
<polygon fill="#4472c4" stroke="#4472c4" points="1001.68,-243.97 1011.59,-247.7 1006.17,-238.6 1001.68,-243.97"/>
</g>
<!-- FSM -->
<g id="node17" class="node">
<title>FSM</title>
<polygon fill="none" stroke="black" points="190.62,-214 78.62,-214 78.62,-210 74.62,-210 74.62,-206 78.62,-206 78.62,-186 74.62,-186 74.62,-182 78.62,-182 78.62,-178 190.62,-178 190.62,-214"/>
<polyline fill="none" stroke="black" points="78.62,-210 82.62,-210 82.62,-206 78.62,-206"/>
<polyline fill="none" stroke="black" points="78.62,-186 82.62,-186 82.62,-182 78.62,-182"/>
<text xml:space="preserve" text-anchor="middle" x="134.62" y="-198.5" font-family="Arial" font-size="10.00">FSM</text>
<text xml:space="preserve" text-anchor="middle" x="134.62" y="-186.5" font-family="Arial" font-size="10.00">fsm_work_orders.json</text>
</g>
<!-- FSM&#45;&gt;N_HR -->
<g id="edge21" class="edge">
<title>FSM&#45;&gt;N_HR</title>
<path fill="none" stroke="#4472c4" d="M191.01,-184.6C263.5,-171.46 394.32,-153.85 504.5,-172 517.45,-174.13 531.02,-177.81 543.7,-181.93"/>
<polygon fill="#4472c4" stroke="#4472c4" points="542.56,-185.23 553.15,-185.14 544.81,-178.61 542.56,-185.23"/>
</g>
<!-- CRM_SRC&#45;&gt;R_CRM -->
<g id="edge22" class="edge">
<title>CRM_SRC&#45;&gt;R_CRM</title>
<path fill="none" stroke="#4472c4" d="M165.03,-322.33C205.25,-348.9 276.96,-401.9 317,-465 325.44,-478.3 315.93,-487.79 327,-499 329.18,-501.21 331.54,-503.24 334.04,-505.1"/>
<polygon fill="#4472c4" stroke="#4472c4" points="332,-507.96 342.32,-510.35 335.74,-502.04 332,-507.96"/>
</g>
<!-- CLM -->
<g id="node19" class="node">
<title>CLM</title>
<polygon fill="none" stroke="black" points="179.38,-268 89.88,-268 89.88,-264 85.88,-264 85.88,-260 89.88,-260 89.88,-240 85.88,-240 85.88,-236 89.88,-236 89.88,-232 179.38,-232 179.38,-268"/>
<polyline fill="none" stroke="black" points="89.88,-264 93.88,-264 93.88,-260 89.88,-260"/>
<polyline fill="none" stroke="black" points="89.88,-240 93.88,-240 93.88,-236 89.88,-236"/>
<text xml:space="preserve" text-anchor="middle" x="134.62" y="-252.5" font-family="Arial" font-size="10.00">Claims</text>
<text xml:space="preserve" text-anchor="middle" x="134.62" y="-240.5" font-family="Arial" font-size="10.00">warranty policies</text>
</g>
<!-- CLM&#45;&gt;R_CRM -->
<g id="edge23" class="edge">
<title>CLM&#45;&gt;R_CRM</title>
<path fill="none" stroke="#4472c4" stroke-dasharray="5,2" d="M179.76,-248.32C208.62,-249.54 245.43,-255.78 270.25,-277 315.81,-315.95 303.38,-345.13 317,-403.5 321.85,-424.28 313.45,-482.52 327,-499 329.26,-501.74 331.78,-504.21 334.52,-506.44"/>
<polygon fill="#4472c4" stroke="#4472c4" points="332.38,-509.21 342.63,-511.89 336.28,-503.4 332.38,-509.21"/>
<text xml:space="preserve" text-anchor="middle" x="298.62" y="-405.45" font-family="Arial" font-size="9.00">policy ref</text>
</g>
</g>
</svg>
