<?xml version="1.0" encoding="UTF-8" standalone="no"?>
<!DOCTYPE svg PUBLIC "-//W3C//DTD SVG 1.1//EN"
 "http://www.w3.org/Graphics/SVG/1.1/DTD/svg11.dtd">
<!-- Generated by graphviz version 14.1.5 (20260411.2331)
 -->
<!-- Title: ETLToRuntime Pages: 1 -->
<svg width="926pt" height="335pt"
 viewBox="0.00 0.00 926.00 335.00" xmlns="http://www.w3.org/2000/svg" xmlns:xlink="http://www.w3.org/1999/xlink">
<g id="graph0" class="graph" transform="scale(1 1) rotate(0) translate(4 331.25)">
<title>ETLToRuntime</title>
<polygon fill="white" stroke="none" points="-4,4 -4,-331.25 922,-331.25 922,4 -4,4"/>
<text xml:space="preserve" text-anchor="middle" x="459" y="-309.95" font-family="Arial" font-size="14.00">[DEPRECATED — use 28+32 ETL/promotion diagrams] Figure 14: ETL to Runtime</text>
<g id="clust1" class="cluster">
<title>cluster_sources</title>
<path fill="white" stroke="black" d="M20,-219.75C20,-219.75 416,-219.75 416,-219.75 422,-219.75 428,-225.75 428,-231.75 428,-231.75 428,-283.5 428,-283.5 428,-289.5 422,-295.5 416,-295.5 416,-295.5 20,-295.5 20,-295.5 14,-295.5 8,-289.5 8,-283.5 8,-283.5 8,-231.75 8,-231.75 8,-225.75 14,-219.75 20,-219.75"/>
<text xml:space="preserve" text-anchor="middle" x="218" y="-278.2" font-family="Arial" font-size="14.00">Enterprise Sources (:8090 mock or fixtures)</text>
</g>
<g id="clust2" class="cluster">
<title>cluster_runtime</title>
<path fill="white" stroke="#2e75b6" d="M708,-64C708,-64 898,-64 898,-64 904,-64 910,-70 910,-76 910,-76 910,-199.75 910,-199.75 910,-205.75 904,-211.75 898,-211.75 898,-211.75 708,-211.75 708,-211.75 702,-211.75 696,-205.75 696,-199.75 696,-199.75 696,-76 696,-76 696,-70 702,-64 708,-64"/>
<text xml:space="preserve" text-anchor="middle" x="803" y="-194.45" font-family="Arial" font-size="14.00">Runtime (live diagnostic session)</text>
</g>
<!-- PIM -->
<g id="node1" class="node">
<title>PIM</title>
<polygon fill="none" stroke="black" points="98,-263.75 16,-263.75 16,-227.75 98,-227.75 98,-263.75"/>
<text xml:space="preserve" text-anchor="middle" x="57" y="-242.25" font-family="Arial" font-size="10.00">PIM Connector</text>
</g>
<!-- P1 -->
<g id="node5" class="node">
<title>P1</title>
<path fill="#bdd7ee" stroke="black" d="M327.5,-180C327.5,-180 98.5,-180 98.5,-180 92.5,-180 86.5,-174 86.5,-168 86.5,-168 86.5,-156 86.5,-156 86.5,-150 92.5,-144 98.5,-144 98.5,-144 327.5,-144 327.5,-144 333.5,-144 339.5,-150 339.5,-156 339.5,-156 339.5,-168 339.5,-168 339.5,-174 333.5,-180 327.5,-180"/>
<text xml:space="preserve" text-anchor="middle" x="213" y="-164.5" font-family="Arial" font-size="10.00">Pipeline 1: knowledge_etl.py</text>
<text xml:space="preserve" text-anchor="middle" x="213" y="-152.5" font-family="Arial" font-size="10.00">OntologyBuilder → enterprise_knowledge_catalog.json</text>
</g>
<!-- PIM&#45;&gt;P1 -->
<g id="edge1" class="edge">
<title>PIM&#45;&gt;P1</title>
<path fill="none" stroke="black" d="M90.08,-227.41C113.27,-215.26 144.5,-198.9 169.67,-185.71"/>
<polygon fill="black" stroke="black" points="171.12,-188.9 178.35,-181.16 167.87,-182.7 171.12,-188.9"/>
</g>
<!-- FSM -->
<g id="node2" class="node">
<title>FSM</title>
<polygon fill="none" stroke="black" points="201.5,-263.75 116.5,-263.75 116.5,-227.75 201.5,-227.75 201.5,-263.75"/>
<text xml:space="preserve" text-anchor="middle" x="159" y="-242.25" font-family="Arial" font-size="10.00">FSM Connector</text>
</g>
<!-- FSM&#45;&gt;P1 -->
<g id="edge2" class="edge">
<title>FSM&#45;&gt;P1</title>
<path fill="none" stroke="black" d="M170.45,-227.41C177.68,-216.47 187.17,-202.1 195.35,-189.72"/>
<polygon fill="black" stroke="black" points="198.14,-191.85 200.73,-181.57 192.3,-187.99 198.14,-191.85"/>
</g>
<!-- CLM -->
<g id="node3" class="node">
<title>CLM</title>
<polygon fill="none" stroke="black" points="314.38,-263.75 219.62,-263.75 219.62,-227.75 314.38,-227.75 314.38,-263.75"/>
<text xml:space="preserve" text-anchor="middle" x="267" y="-242.25" font-family="Arial" font-size="10.00">Claims Connector</text>
</g>
<!-- CLM&#45;&gt;P1 -->
<g id="edge3" class="edge">
<title>CLM&#45;&gt;P1</title>
<path fill="none" stroke="black" d="M255.55,-227.41C248.32,-216.47 238.83,-202.1 230.65,-189.72"/>
<polygon fill="black" stroke="black" points="233.7,-187.99 225.27,-181.57 227.86,-191.85 233.7,-187.99"/>
</g>
<!-- CRM -->
<g id="node4" class="node">
<title>CRM</title>
<polygon fill="none" stroke="black" points="419.62,-263.75 332.38,-263.75 332.38,-227.75 419.62,-227.75 419.62,-263.75"/>
<text xml:space="preserve" text-anchor="middle" x="376" y="-242.25" font-family="Arial" font-size="10.00">CRM Connector</text>
</g>
<!-- CRM&#45;&gt;P1 -->
<g id="edge4" class="edge">
<title>CRM&#45;&gt;P1</title>
<path fill="none" stroke="black" d="M341.43,-227.41C317.09,-215.21 284.29,-198.75 257.92,-185.53"/>
<polygon fill="black" stroke="black" points="259.66,-182.49 249.15,-181.13 256.52,-188.74 259.66,-182.49"/>
</g>
<!-- POP -->
<g id="node6" class="node">
<title>POP</title>
<path fill="#bdd7ee" stroke="black" d="M316.62,-108C316.62,-108 199.38,-108 199.38,-108 193.38,-108 187.38,-102 187.38,-96 187.38,-96 187.38,-84 187.38,-84 187.38,-78 193.38,-72 199.38,-72 199.38,-72 316.62,-72 316.62,-72 322.62,-72 328.62,-78 328.62,-84 328.62,-84 328.62,-96 328.62,-96 328.62,-102 322.62,-108 316.62,-108"/>
<text xml:space="preserve" text-anchor="middle" x="258" y="-92.5" font-family="Arial" font-size="10.00">populate_graph.py</text>
<text xml:space="preserve" text-anchor="middle" x="258" y="-80.5" font-family="Arial" font-size="10.00">MERGE + provenance fields</text>
</g>
<!-- P1&#45;&gt;POP -->
<g id="edge5" class="edge">
<title>P1&#45;&gt;POP</title>
<path fill="none" stroke="black" d="M224.12,-143.7C229.19,-135.81 235.3,-126.3 240.93,-117.55"/>
<polygon fill="black" stroke="black" points="243.72,-119.68 246.19,-109.38 237.83,-115.9 243.72,-119.68"/>
</g>
<!-- LINE -->
<g id="node9" class="node">
<title>LINE</title>
<polygon fill="none" stroke="black" points="473.75,-108 390.25,-108 390.25,-72 479.75,-72 479.75,-102 473.75,-108"/>
<polyline fill="none" stroke="black" points="473.75,-108 473.75,-102"/>
<polyline fill="none" stroke="black" points="479.75,-102 473.75,-102"/>
<text xml:space="preserve" text-anchor="middle" x="435" y="-92.5" font-family="Arial" font-size="10.00">lineage_store.py</text>
<text xml:space="preserve" text-anchor="middle" x="435" y="-80.5" font-family="Arial" font-size="10.00">etl_batches.jsonl</text>
</g>
<!-- P1&#45;&gt;LINE -->
<g id="edge7" class="edge">
<title>P1&#45;&gt;LINE</title>
<path fill="none" stroke="black" d="M268.45,-143.52C302.29,-132.85 345.41,-119.25 379.29,-108.57"/>
<polygon fill="black" stroke="black" points="380.02,-112.01 388.5,-105.66 377.91,-105.33 380.02,-112.01"/>
</g>
<!-- NEO -->
<g id="node10" class="node">
<title>NEO</title>
<path fill="none" stroke="black" d="M669.88,-32.73C669.88,-34.53 642.59,-36 609,-36 575.41,-36 548.12,-34.53 548.12,-32.73 548.12,-32.73 548.12,-3.27 548.12,-3.27 548.12,-1.47 575.41,0 609,0 642.59,0 669.88,-1.47 669.88,-3.27 669.88,-3.27 669.88,-32.73 669.88,-32.73"/>
<path fill="none" stroke="black" d="M669.88,-32.73C669.88,-30.92 642.59,-29.45 609,-29.45 575.41,-29.45 548.12,-30.92 548.12,-32.73"/>
<text xml:space="preserve" text-anchor="middle" x="609" y="-14.5" font-family="Arial" font-size="10.00">Neo4j neo4j&#45;demo :7687</text>
</g>
<!-- POP&#45;&gt;NEO -->
<g id="edge6" class="edge">
<title>POP&#45;&gt;NEO</title>
<path fill="none" stroke="black" d="M328.88,-74.52C345.95,-71.06 364.12,-67.38 381,-64 433.15,-53.55 492.05,-41.93 536.92,-33.12"/>
<polygon fill="black" stroke="black" points="537.39,-36.59 546.53,-31.23 536.04,-29.72 537.39,-36.59"/>
</g>
<!-- P2 -->
<g id="node7" class="node">
<title>P2</title>
<path fill="#e2efda" stroke="black" d="M500,-180C500,-180 370,-180 370,-180 364,-180 358,-174 358,-168 358,-168 358,-156 358,-156 358,-150 364,-144 370,-144 370,-144 500,-144 500,-144 506,-144 512,-150 512,-156 512,-156 512,-168 512,-168 512,-174 506,-180 500,-180"/>
<text xml:space="preserve" text-anchor="middle" x="435" y="-164.5" font-family="Arial" font-size="10.00">Pipeline 2: smoke_validation.py</text>
<text xml:space="preserve" text-anchor="middle" x="435" y="-152.5" font-family="Arial" font-size="10.00">test_enterprise_scenarios.py</text>
</g>
<!-- P2&#45;&gt;LINE -->
<g id="edge8" class="edge">
<title>P2&#45;&gt;LINE</title>
<path fill="none" stroke="black" d="M435,-143.7C435,-136.41 435,-127.73 435,-119.54"/>
<polygon fill="black" stroke="black" points="438.5,-119.62 435,-109.62 431.5,-119.62 438.5,-119.62"/>
</g>
<!-- P3 -->
<g id="node8" class="node">
<title>P3</title>
<path fill="#e2efda" stroke="black" d="M675.88,-180C675.88,-180 542.12,-180 542.12,-180 536.12,-180 530.12,-174 530.12,-168 530.12,-168 530.12,-156 530.12,-156 530.12,-150 536.12,-144 542.12,-144 542.12,-144 675.88,-144 675.88,-144 681.88,-144 687.88,-150 687.88,-156 687.88,-156 687.88,-168 687.88,-168 687.88,-174 681.88,-180 675.88,-180"/>
<text xml:space="preserve" text-anchor="middle" x="609" y="-164.5" font-family="Arial" font-size="10.00">Pipeline 3: staging_promotion.py</text>
<text xml:space="preserve" text-anchor="middle" x="609" y="-152.5" font-family="Arial" font-size="10.00">promote to Neo4j</text>
</g>
<!-- P3&#45;&gt;LINE -->
<g id="edge10" class="edge">
<title>P3&#45;&gt;LINE</title>
<path fill="none" stroke="black" d="M565.54,-143.52C542.31,-134.17 513.49,-122.57 488.84,-112.66"/>
<polygon fill="black" stroke="black" points="490.19,-109.43 479.61,-108.95 487.58,-115.93 490.19,-109.43"/>
</g>
<!-- P3&#45;&gt;NEO -->
<g id="edge9" class="edge">
<title>P3&#45;&gt;NEO</title>
<path fill="none" stroke="black" d="M609,-143.59C609,-119.61 609,-76.14 609,-47.42"/>
<polygon fill="black" stroke="black" points="612.5,-47.62 609,-37.62 605.5,-47.62 612.5,-47.62"/>
</g>
<!-- UI -->
<g id="node11" class="node">
<title>UI</title>
<polygon fill="none" stroke="black" points="814.88,-180 735.12,-180 735.12,-144 814.88,-144 814.88,-180"/>
<text xml:space="preserve" text-anchor="middle" x="775" y="-158.5" font-family="Arial" font-size="10.00">Streamlit / API</text>
</g>
<!-- GR -->
<g id="node12" class="node">
<title>GR</title>
<polygon fill="none" stroke="black" points="845.62,-108 704.38,-108 704.38,-72 845.62,-72 845.62,-108"/>
<text xml:space="preserve" text-anchor="middle" x="775" y="-86.5" font-family="Arial" font-size="10.00">graph_rag.py Cypher queries</text>
</g>
<!-- UI&#45;&gt;GR -->
<g id="edge11" class="edge">
<title>UI&#45;&gt;GR</title>
<path fill="none" stroke="black" d="M775,-143.7C775,-136.41 775,-127.73 775,-119.54"/>
<polygon fill="black" stroke="black" points="778.5,-119.62 775,-109.62 771.5,-119.62 778.5,-119.62"/>
</g>
<!-- GR&#45;&gt;NEO -->
<g id="edge12" class="edge">
<title>GR&#45;&gt;NEO</title>
<path fill="none" stroke="black" d="M733.54,-71.52C711.22,-62.11 683.5,-50.42 659.89,-40.46"/>
<polygon fill="black" stroke="black" points="661.33,-37.27 650.75,-36.61 658.61,-43.72 661.33,-37.27"/>
</g>
</g>
</svg>
