<?xml version="1.0" encoding="UTF-8" standalone="no"?>
<!DOCTYPE svg PUBLIC "-//W3C//DTD SVG 1.1//EN"
 "http://www.w3.org/Graphics/SVG/1.1/DTD/svg11.dtd">
<!-- Generated by graphviz version 14.1.5 (20260411.2331)
 -->
<!-- Title: CurrentStateSwimlane Pages: 1 -->
<svg width="1420pt" height="460pt"
 viewBox="0.00 0.00 1420.00 460.00" xmlns="http://www.w3.org/2000/svg" xmlns:xlink="http://www.w3.org/1999/xlink">
<g id="graph0" class="graph" transform="scale(1 1) rotate(0) translate(4 455.75)">
<title>CurrentStateSwimlane</title>
<polygon fill="white" stroke="none" points="-4,4 -4,-455.75 1416.4,-455.75 1416.4,4 -4,4"/>
<text xml:space="preserve" text-anchor="middle" x="706.2" y="-434.45" font-family="Arial" font-size="14.00">Figure 15: Current State Swimlane — POC / Pilot Platform</text>
<g id="clust1" class="cluster">
<title>cluster_ch</title>
<path fill="#d5e8f0" stroke="black" d="M20,-92C20,-92 659.2,-92 659.2,-92 665.2,-92 671.2,-98 671.2,-104 671.2,-104 671.2,-156 671.2,-156 671.2,-162 665.2,-168 659.2,-168 659.2,-168 20,-168 20,-168 14,-168 8,-162 8,-156 8,-156 8,-104 8,-104 8,-98 14,-92 20,-92"/>
<text xml:space="preserve" text-anchor="middle" x="339.6" y="-150.7" font-family="Arial" font-size="14.00">Customer &amp; Agent Channels</text>
</g>
<g id="clust2" class="cluster">
<title>cluster_ui</title>
<path fill="#bdd7ee" stroke="black" d="M264.4,-260C264.4,-260 903.6,-260 903.6,-260 909.6,-260 915.6,-266 915.6,-272 915.6,-272 915.6,-324 915.6,-324 915.6,-330 909.6,-336 903.6,-336 903.6,-336 264.4,-336 264.4,-336 258.4,-336 252.4,-330 252.4,-324 252.4,-324 252.4,-272 252.4,-272 252.4,-266 258.4,-260 264.4,-260"/>
<text xml:space="preserve" text-anchor="middle" x="584" y="-318.7" font-family="Arial" font-size="14.00">Presentation Layer</text>
</g>
<g id="clust3" class="cluster">
<title>cluster_eng</title>
<path fill="#c6e0b4" stroke="black" d="M508.8,-176C508.8,-176 1148,-176 1148,-176 1154,-176 1160,-182 1160,-188 1160,-188 1160,-240 1160,-240 1160,-246 1154,-252 1148,-252 1148,-252 508.8,-252 508.8,-252 502.8,-252 496.8,-246 496.8,-240 496.8,-240 496.8,-188 496.8,-188 496.8,-182 502.8,-176 508.8,-176"/>
<text xml:space="preserve" text-anchor="middle" x="828.4" y="-234.7" font-family="Arial" font-size="14.00">Intelligence Layer</text>
</g>
<g id="clust4" class="cluster">
<title>cluster_int</title>
<path fill="#fff2cc" stroke="black" d="M753.2,-344C753.2,-344 1392.4,-344 1392.4,-344 1398.4,-344 1404.4,-350 1404.4,-356 1404.4,-356 1404.4,-408 1404.4,-408 1404.4,-414 1398.4,-420 1392.4,-420 1392.4,-420 753.2,-420 753.2,-420 747.2,-420 741.2,-414 741.2,-408 741.2,-408 741.2,-356 741.2,-356 741.2,-350 747.2,-344 753.2,-344"/>
<text xml:space="preserve" text-anchor="middle" x="1072.8" y="-402.7" font-family="Arial" font-size="14.00">Enterprise Integration (Sandbox)</text>
</g>
<g id="clust5" class="cluster">
<title>cluster_kg</title>
<path fill="#fce4d6" stroke="black" d="M997.6,-92C997.6,-92 1392.4,-92 1392.4,-92 1398.4,-92 1404.4,-98 1404.4,-104 1404.4,-104 1404.4,-156 1404.4,-156 1404.4,-162 1398.4,-168 1392.4,-168 1392.4,-168 997.6,-168 997.6,-168 991.6,-168 985.6,-162 985.6,-156 985.6,-156 985.6,-104 985.6,-104 985.6,-98 991.6,-92 997.6,-92"/>
<text xml:space="preserve" text-anchor="middle" x="1195" y="-150.7" font-family="Arial" font-size="14.00">Knowledge Graph (Pilot)</text>
</g>
<g id="clust6" class="cluster">
<title>cluster_etl</title>
<path fill="#e2efda" stroke="black" d="M508.8,-8C508.8,-8 1148,-8 1148,-8 1154,-8 1160,-14 1160,-20 1160,-20 1160,-72 1160,-72 1160,-78 1154,-84 1148,-84 1148,-84 508.8,-84 508.8,-84 502.8,-84 496.8,-78 496.8,-72 496.8,-72 496.8,-20 496.8,-20 496.8,-14 502.8,-8 508.8,-8"/>
<text xml:space="preserve" text-anchor="middle" x="828.4" y="-66.7" font-family="Arial" font-size="14.00">Knowledge Engineering</text>
</g>
<!-- CH1 -->
<g id="node1" class="node">
<title>CH1</title>
<path fill="lightgrey" stroke="black" d="M162.4,-136C162.4,-136 28,-136 28,-136 22,-136 16,-130 16,-124 16,-124 16,-112 16,-112 16,-106 22,-100 28,-100 28,-100 162.4,-100 162.4,-100 168.4,-100 174.4,-106 174.4,-112 174.4,-112 174.4,-124 174.4,-124 174.4,-130 168.4,-136 162.4,-136"/>
<text xml:space="preserve" text-anchor="middle" x="95.2" y="-119.95" font-family="Arial" font-size="9.00">Describes</text>
<text xml:space="preserve" text-anchor="middle" x="95.2" y="-109.45" font-family="Arial" font-size="9.00">appliance issue</text>
</g>
<!-- CH2 -->
<g id="node2" class="node">
<title>CH2</title>
<path fill="lightgrey" stroke="black" d="M406.8,-136C406.8,-136 272.4,-136 272.4,-136 266.4,-136 260.4,-130 260.4,-124 260.4,-124 260.4,-112 260.4,-112 260.4,-106 266.4,-100 272.4,-100 272.4,-100 406.8,-100 406.8,-100 412.8,-100 418.8,-106 418.8,-112 418.8,-112 418.8,-124 418.8,-124 418.8,-130 412.8,-136 406.8,-136"/>
<text xml:space="preserve" text-anchor="middle" x="339.6" y="-119.95" font-family="Arial" font-size="9.00">Receives</text>
<text xml:space="preserve" text-anchor="middle" x="339.6" y="-109.45" font-family="Arial" font-size="9.00">diagnosis</text>
</g>
<!-- CH1&#45;&gt;CH2 -->
<!-- UI1 -->
<g id="node4" class="node">
<title>UI1</title>
<path fill="lightgrey" stroke="black" d="M406.8,-304C406.8,-304 272.4,-304 272.4,-304 266.4,-304 260.4,-298 260.4,-292 260.4,-292 260.4,-280 260.4,-280 260.4,-274 266.4,-268 272.4,-268 272.4,-268 406.8,-268 406.8,-268 412.8,-268 418.8,-274 418.8,-280 418.8,-280 418.8,-292 418.8,-292 418.8,-298 412.8,-304 406.8,-304"/>
<text xml:space="preserve" text-anchor="middle" x="339.6" y="-287.95" font-family="Arial" font-size="9.00">Self&#45;Service &amp;</text>
<text xml:space="preserve" text-anchor="middle" x="339.6" y="-277.45" font-family="Arial" font-size="9.00">Agent Console</text>
</g>
<!-- CH1&#45;&gt;UI1 -->
<g id="edge12" class="edge">
<title>CH1&#45;&gt;UI1</title>
<path fill="none" stroke="#2e75b6" d="M122.6,-136.3C166.32,-166.6 253.77,-227.21 302.93,-261.28"/>
<polygon fill="#2e75b6" stroke="#2e75b6" points="300.77,-264.04 310.99,-266.86 304.76,-258.29 300.77,-264.04"/>
</g>
<!-- CH3 -->
<g id="node3" class="node">
<title>CH3</title>
<path fill="lightgrey" stroke="black" d="M651.2,-136C651.2,-136 516.8,-136 516.8,-136 510.8,-136 504.8,-130 504.8,-124 504.8,-124 504.8,-112 504.8,-112 504.8,-106 510.8,-100 516.8,-100 516.8,-100 651.2,-100 651.2,-100 657.2,-100 663.2,-106 663.2,-112 663.2,-112 663.2,-124 663.2,-124 663.2,-130 657.2,-136 651.2,-136"/>
<text xml:space="preserve" text-anchor="middle" x="584" y="-119.95" font-family="Arial" font-size="9.00">Escalation &amp;</text>
<text xml:space="preserve" text-anchor="middle" x="584" y="-109.45" font-family="Arial" font-size="9.00">case reference</text>
</g>
<!-- CH2&#45;&gt;CH3 -->
<!-- UI2 -->
<g id="node5" class="node">
<title>UI2</title>
<path fill="lightgrey" stroke="black" d="M651.2,-304C651.2,-304 516.8,-304 516.8,-304 510.8,-304 504.8,-298 504.8,-292 504.8,-292 504.8,-280 504.8,-280 504.8,-274 510.8,-268 516.8,-268 516.8,-268 651.2,-268 651.2,-268 657.2,-268 663.2,-274 663.2,-280 663.2,-280 663.2,-292 663.2,-292 663.2,-298 657.2,-304 651.2,-304"/>
<text xml:space="preserve" text-anchor="middle" x="584" y="-287.95" font-family="Arial" font-size="9.00">CRM context</text>
<text xml:space="preserve" text-anchor="middle" x="584" y="-277.45" font-family="Arial" font-size="9.00">binding</text>
</g>
<!-- UI1&#45;&gt;UI2 -->
<!-- EN1 -->
<g id="node7" class="node">
<title>EN1</title>
<path fill="lightgrey" stroke="black" d="M651.2,-220C651.2,-220 516.8,-220 516.8,-220 510.8,-220 504.8,-214 504.8,-208 504.8,-208 504.8,-196 504.8,-196 504.8,-190 510.8,-184 516.8,-184 516.8,-184 651.2,-184 651.2,-184 657.2,-184 663.2,-190 663.2,-196 663.2,-196 663.2,-208 663.2,-208 663.2,-214 657.2,-220 651.2,-220"/>
<text xml:space="preserve" text-anchor="middle" x="584" y="-203.95" font-family="Arial" font-size="9.00">LangGraph</text>
<text xml:space="preserve" text-anchor="middle" x="584" y="-193.45" font-family="Arial" font-size="9.00">orchestration</text>
</g>
<!-- UI1&#45;&gt;EN1 -->
<g id="edge13" class="edge">
<title>UI1&#45;&gt;EN1</title>
<path fill="none" stroke="#2e75b6" d="M393.8,-267.57C430.74,-254.76 480.14,-237.64 519.2,-224.11"/>
<polygon fill="#2e75b6" stroke="#2e75b6" points="520.2,-227.47 528.5,-220.89 517.9,-220.85 520.2,-227.47"/>
</g>
<!-- UI3 -->
<g id="node6" class="node">
<title>UI3</title>
<path fill="lightgrey" stroke="black" d="M895.6,-304C895.6,-304 761.2,-304 761.2,-304 755.2,-304 749.2,-298 749.2,-292 749.2,-292 749.2,-280 749.2,-280 749.2,-274 755.2,-268 761.2,-268 761.2,-268 895.6,-268 895.6,-268 901.6,-268 907.6,-274 907.6,-280 907.6,-280 907.6,-292 907.6,-292 907.6,-298 901.6,-304 895.6,-304"/>
<text xml:space="preserve" text-anchor="middle" x="828.4" y="-282.7" font-family="Arial" font-size="9.00">Agent Dashboard</text>
</g>
<!-- UI2&#45;&gt;UI3 -->
<!-- INT1 -->
<g id="node10" class="node">
<title>INT1</title>
<path fill="lightgrey" stroke="black" d="M895.6,-388C895.6,-388 761.2,-388 761.2,-388 755.2,-388 749.2,-382 749.2,-376 749.2,-376 749.2,-364 749.2,-364 749.2,-358 755.2,-352 761.2,-352 761.2,-352 895.6,-352 895.6,-352 901.6,-352 907.6,-358 907.6,-364 907.6,-364 907.6,-376 907.6,-376 907.6,-382 901.6,-388 895.6,-388"/>
<text xml:space="preserve" text-anchor="middle" x="828.4" y="-366.7" font-family="Arial" font-size="9.00">CRM — assets</text>
</g>
<!-- UI2&#45;&gt;INT1 -->
<g id="edge14" class="edge">
<title>UI2&#45;&gt;INT1</title>
<path fill="none" stroke="#2e75b6" d="M638.2,-304.43C675.14,-317.24 724.54,-334.36 763.6,-347.89"/>
<polygon fill="#2e75b6" stroke="#2e75b6" points="762.3,-351.15 772.9,-351.11 764.6,-344.53 762.3,-351.15"/>
</g>
<!-- UI3&#45;&gt;CH3 -->
<g id="edge20" class="edge">
<title>UI3&#45;&gt;CH3</title>
<path fill="none" stroke="#2e75b6" d="M801.03,-267.72C757.34,-237.44 669.89,-176.83 620.7,-142.75"/>
<polygon fill="#2e75b6" stroke="#2e75b6" points="622.86,-139.98 612.65,-137.16 618.87,-145.73 622.86,-139.98"/>
</g>
<!-- EN2 -->
<g id="node8" class="node">
<title>EN2</title>
<path fill="lightgrey" stroke="black" d="M895.6,-220C895.6,-220 761.2,-220 761.2,-220 755.2,-220 749.2,-214 749.2,-208 749.2,-208 749.2,-196 749.2,-196 749.2,-190 755.2,-184 761.2,-184 761.2,-184 895.6,-184 895.6,-184 901.6,-184 907.6,-190 907.6,-196 907.6,-196 907.6,-208 907.6,-208 907.6,-214 901.6,-220 895.6,-220"/>
<text xml:space="preserve" text-anchor="middle" x="828.4" y="-203.95" font-family="Arial" font-size="9.00">GraphRAG</text>
<text xml:space="preserve" text-anchor="middle" x="828.4" y="-193.45" font-family="Arial" font-size="9.00">engine</text>
</g>
<!-- EN1&#45;&gt;EN2 -->
<!-- EN3 -->
<g id="node9" class="node">
<title>EN3</title>
<path fill="lightgrey" stroke="black" d="M1140,-220C1140,-220 1005.6,-220 1005.6,-220 999.6,-220 993.6,-214 993.6,-208 993.6,-208 993.6,-196 993.6,-196 993.6,-190 999.6,-184 1005.6,-184 1005.6,-184 1140,-184 1140,-184 1146,-184 1152,-190 1152,-196 1152,-196 1152,-208 1152,-208 1152,-214 1146,-220 1140,-220"/>
<text xml:space="preserve" text-anchor="middle" x="1072.8" y="-203.95" font-family="Arial" font-size="9.00">Provenance</text>
<text xml:space="preserve" text-anchor="middle" x="1072.8" y="-193.45" font-family="Arial" font-size="9.00">assembly</text>
</g>
<!-- EN2&#45;&gt;EN3 -->
<!-- KG1 -->
<g id="node13" class="node">
<title>KG1</title>
<path fill="lightgrey" stroke="black" d="M1140,-136C1140,-136 1005.6,-136 1005.6,-136 999.6,-136 993.6,-130 993.6,-124 993.6,-124 993.6,-112 993.6,-112 993.6,-106 999.6,-100 1005.6,-100 1005.6,-100 1140,-100 1140,-100 1146,-100 1152,-106 1152,-112 1152,-112 1152,-124 1152,-124 1152,-130 1146,-136 1140,-136"/>
<text xml:space="preserve" text-anchor="middle" x="1072.8" y="-114.7" font-family="Arial" font-size="9.00">Neo4j ontology</text>
</g>
<!-- EN2&#45;&gt;KG1 -->
<g id="edge16" class="edge">
<title>EN2&#45;&gt;KG1</title>
<path fill="none" stroke="#2e75b6" d="M882.6,-183.57C919.54,-170.76 968.94,-153.64 1008,-140.11"/>
<polygon fill="#2e75b6" stroke="#2e75b6" points="1009,-143.47 1017.3,-136.89 1006.7,-136.85 1009,-143.47"/>
</g>
<!-- EN3&#45;&gt;UI3 -->
<g id="edge19" class="edge">
<title>EN3&#45;&gt;UI3</title>
<path fill="none" stroke="#2e75b6" d="M1018.73,-220.39C981.81,-233.18 932.41,-250.3 893.33,-263.85"/>
<polygon fill="#2e75b6" stroke="#2e75b6" points="892.33,-260.49 884.03,-267.07 894.62,-267.1 892.33,-260.49"/>
</g>
<!-- INT3 -->
<g id="node12" class="node">
<title>INT3</title>
<path fill="lightgrey" stroke="black" d="M1384.4,-388C1384.4,-388 1250,-388 1250,-388 1244,-388 1238,-382 1238,-376 1238,-376 1238,-364 1238,-364 1238,-358 1244,-352 1250,-352 1250,-352 1384.4,-352 1384.4,-352 1390.4,-352 1396.4,-358 1396.4,-364 1396.4,-364 1396.4,-376 1396.4,-376 1396.4,-382 1390.4,-388 1384.4,-388"/>
<text xml:space="preserve" text-anchor="middle" x="1317.2" y="-371.95" font-family="Arial" font-size="9.00">Case</text>
<text xml:space="preserve" text-anchor="middle" x="1317.2" y="-361.45" font-family="Arial" font-size="9.00">Management</text>
</g>
<!-- EN3&#45;&gt;INT3 -->
<g id="edge21" class="edge">
<title>EN3&#45;&gt;INT3</title>
<path fill="none" stroke="#2e75b6" d="M1100.2,-220.3C1143.92,-250.6 1231.37,-311.21 1280.53,-345.28"/>
<polygon fill="#2e75b6" stroke="#2e75b6" points="1278.37,-348.04 1288.59,-350.86 1282.36,-342.29 1278.37,-348.04"/>
</g>
<!-- INT2 -->
<g id="node11" class="node">
<title>INT2</title>
<path fill="lightgrey" stroke="black" d="M1140,-388C1140,-388 1005.6,-388 1005.6,-388 999.6,-388 993.6,-382 993.6,-376 993.6,-376 993.6,-364 993.6,-364 993.6,-358 999.6,-352 1005.6,-352 1005.6,-352 1140,-352 1140,-352 1146,-352 1152,-358 1152,-364 1152,-364 1152,-376 1152,-376 1152,-382 1146,-388 1140,-388"/>
<text xml:space="preserve" text-anchor="middle" x="1072.8" y="-371.95" font-family="Arial" font-size="9.00">Claims —</text>
<text xml:space="preserve" text-anchor="middle" x="1072.8" y="-361.45" font-family="Arial" font-size="9.00">warranty</text>
</g>
<!-- INT1&#45;&gt;INT2 -->
<!-- INT1&#45;&gt;INT2 -->
<g id="edge15" class="edge">
<title>INT1&#45;&gt;INT2</title>
<path fill="none" stroke="#2e75b6" d="M907.77,-378.83C931.41,-379.46 957.55,-379.54 981.88,-379.09"/>
<polygon fill="#2e75b6" stroke="#2e75b6" points="981.86,-382.59 991.78,-378.87 981.7,-375.6 981.86,-382.59"/>
</g>
<!-- INT2&#45;&gt;INT3 -->
<!-- KG2 -->
<g id="node14" class="node">
<title>KG2</title>
<path fill="lightgrey" stroke="black" d="M1384.4,-136C1384.4,-136 1250,-136 1250,-136 1244,-136 1238,-130 1238,-124 1238,-124 1238,-112 1238,-112 1238,-106 1244,-100 1250,-100 1250,-100 1384.4,-100 1384.4,-100 1390.4,-100 1396.4,-106 1396.4,-112 1396.4,-112 1396.4,-124 1396.4,-124 1396.4,-130 1390.4,-136 1384.4,-136"/>
<text xml:space="preserve" text-anchor="middle" x="1317.2" y="-119.95" font-family="Arial" font-size="9.00">Confidence &amp;</text>
<text xml:space="preserve" text-anchor="middle" x="1317.2" y="-109.45" font-family="Arial" font-size="9.00">steps</text>
</g>
<!-- KG1&#45;&gt;KG2 -->
<!-- KG1&#45;&gt;KG2 -->
<g id="edge17" class="edge">
<title>KG1&#45;&gt;KG2</title>
<path fill="none" stroke="#2e75b6" d="M1152.17,-126.83C1175.81,-127.46 1201.95,-127.54 1226.28,-127.09"/>
<polygon fill="#2e75b6" stroke="#2e75b6" points="1226.26,-130.59 1236.18,-126.87 1226.1,-123.6 1226.26,-130.59"/>
</g>
<!-- KG2&#45;&gt;EN3 -->
<g id="edge18" class="edge">
<title>KG2&#45;&gt;EN3</title>
<path fill="none" stroke="#2e75b6" d="M1263.13,-136.39C1226.21,-149.18 1176.81,-166.3 1137.73,-179.85"/>
<polygon fill="#2e75b6" stroke="#2e75b6" points="1136.73,-176.49 1128.43,-183.07 1139.02,-183.1 1136.73,-176.49"/>
</g>
<!-- ET1 -->
<g id="node15" class="node">
<title>ET1</title>
<path fill="lightgrey" stroke="black" d="M651.2,-52C651.2,-52 516.8,-52 516.8,-52 510.8,-52 504.8,-46 504.8,-40 504.8,-40 504.8,-28 504.8,-28 504.8,-22 510.8,-16 516.8,-16 516.8,-16 651.2,-16 651.2,-16 657.2,-16 663.2,-22 663.2,-28 663.2,-28 663.2,-40 663.2,-40 663.2,-46 657.2,-52 651.2,-52"/>
<text xml:space="preserve" text-anchor="middle" x="584" y="-30.7" font-family="Arial" font-size="9.00">ETL ingest</text>
</g>
<!-- ET2 -->
<g id="node16" class="node">
<title>ET2</title>
<path fill="lightgrey" stroke="black" d="M895.6,-52C895.6,-52 761.2,-52 761.2,-52 755.2,-52 749.2,-46 749.2,-40 749.2,-40 749.2,-28 749.2,-28 749.2,-22 755.2,-16 761.2,-16 761.2,-16 895.6,-16 895.6,-16 901.6,-16 907.6,-22 907.6,-28 907.6,-28 907.6,-40 907.6,-40 907.6,-46 901.6,-52 895.6,-52"/>
<text xml:space="preserve" text-anchor="middle" x="828.4" y="-35.95" font-family="Arial" font-size="9.00">Validation &amp;</text>
<text xml:space="preserve" text-anchor="middle" x="828.4" y="-25.45" font-family="Arial" font-size="9.00">promotion</text>
</g>
<!-- ET1&#45;&gt;ET2 -->
<!-- ET1&#45;&gt;ET2 -->
<g id="edge22" class="edge">
<title>ET1&#45;&gt;ET2</title>
<path fill="none" stroke="#2e75b6" d="M663.37,-42.83C687.01,-43.46 713.15,-43.54 737.48,-43.09"/>
<polygon fill="#2e75b6" stroke="#2e75b6" points="737.46,-46.59 747.38,-42.87 737.3,-39.6 737.46,-46.59"/>
</g>
<!-- ET2&#45;&gt;KG1 -->
<g id="edge23" class="edge">
<title>ET2&#45;&gt;KG1</title>
<path fill="none" stroke="#2e75b6" d="M882.6,-52.43C919.54,-65.24 968.94,-82.36 1008,-95.89"/>
<polygon fill="#2e75b6" stroke="#2e75b6" points="1006.7,-99.15 1017.3,-99.11 1009,-92.53 1006.7,-99.15"/>
</g>
<!-- ET3 -->
<g id="node17" class="node">
<title>ET3</title>
<path fill="lightgrey" stroke="black" d="M1140,-52C1140,-52 1005.6,-52 1005.6,-52 999.6,-52 993.6,-46 993.6,-40 993.6,-40 993.6,-28 993.6,-28 993.6,-22 999.6,-16 1005.6,-16 1005.6,-16 1140,-16 1140,-16 1146,-16 1152,-22 1152,-28 1152,-28 1152,-40 1152,-40 1152,-46 1146,-52 1140,-52"/>
<text xml:space="preserve" text-anchor="middle" x="1072.8" y="-35.95" font-family="Arial" font-size="9.00">Lineage</text>
<text xml:space="preserve" text-anchor="middle" x="1072.8" y="-25.45" font-family="Arial" font-size="9.00">audit</text>
</g>
<!-- ET2&#45;&gt;ET3 -->
<!-- ET2&#45;&gt;ET3 -->
<g id="edge24" class="edge">
<title>ET2&#45;&gt;ET3</title>
<path fill="none" stroke="#2e75b6" d="M907.77,-42.83C931.41,-43.46 957.55,-43.54 981.88,-43.09"/>
<polygon fill="#2e75b6" stroke="#2e75b6" points="981.86,-46.59 991.78,-42.87 981.7,-39.6 981.86,-46.59"/>
</g>
</g>
</svg>
