<?xml version="1.0" encoding="UTF-8" standalone="no"?>
<!DOCTYPE svg PUBLIC "-//W3C//DTD SVG 1.1//EN"
 "http://www.w3.org/Graphics/SVG/1.1/DTD/svg11.dtd">
<!-- Generated by graphviz version 14.1.5 (20260411.2331)
 -->
<!-- Title: FutureStateSwimlane Pages: 1 -->
<svg width="1296pt" height="530pt"
 viewBox="0.00 0.00 1296.00 530.00" xmlns="http://www.w3.org/2000/svg" xmlns:xlink="http://www.w3.org/1999/xlink">
<g id="graph0" class="graph" transform="scale(1 1) rotate(0) translate(4 526)">
<title>FutureStateSwimlane</title>
<polygon fill="white" stroke="none" points="-4,4 -4,-526 1292,-526 1292,4 -4,4"/>
<text xml:space="preserve" text-anchor="middle" x="644" y="-504.7" font-family="Arial" font-size="14.00">Figure 16: Future State Swimlane — Target Production Architecture</text>
<g id="clust1" class="cluster">
<title>cluster_ch</title>
<path fill="#d5e8f0" stroke="black" d="M180,-314.55C180,-314.55 568,-314.55 568,-314.55 574,-314.55 580,-320.55 580,-326.55 580,-326.55 580,-381.9 580,-381.9 580,-387.9 574,-393.9 568,-393.9 568,-393.9 180,-393.9 180,-393.9 174,-393.9 168,-387.9 168,-381.9 168,-381.9 168,-326.55 168,-326.55 168,-320.55 174,-314.55 180,-314.55"/>
<text xml:space="preserve" text-anchor="middle" x="374" y="-376.6" font-family="Arial" font-size="14.00">Omnichannel Customer &amp; Agent</text>
</g>
<g id="clust2" class="cluster">
<title>cluster_api</title>
<path fill="#bdd7ee" stroke="black" d="M654,-314.55C654,-314.55 840,-314.55 840,-314.55 846,-314.55 852,-320.55 852,-326.55 852,-326.55 852,-478.25 852,-478.25 852,-484.25 846,-490.25 840,-490.25 840,-490.25 654,-490.25 654,-490.25 648,-490.25 642,-484.25 642,-478.25 642,-478.25 642,-326.55 642,-326.55 642,-320.55 648,-314.55 654,-314.55"/>
<text xml:space="preserve" text-anchor="middle" x="747" y="-472.95" font-family="Arial" font-size="14.00">Diagnostics Platform — API Tier</text>
</g>
<g id="clust3" class="cluster">
<title>cluster_ent</title>
<path fill="#ededed" stroke="black" d="M20,-209.45C20,-209.45 1056,-209.45 1056,-209.45 1062,-209.45 1068,-215.45 1068,-221.45 1068,-221.45 1068,-276.8 1068,-276.8 1068,-282.8 1062,-288.8 1056,-288.8 1056,-288.8 20,-288.8 20,-288.8 14,-288.8 8,-282.8 8,-276.8 8,-276.8 8,-221.45 8,-221.45 8,-215.45 14,-209.45 20,-209.45"/>
<text xml:space="preserve" text-anchor="middle" x="538" y="-271.5" font-family="Arial" font-size="14.00">Production Enterprise Systems</text>
</g>
<g id="clust4" class="cluster">
<title>cluster_kg</title>
<path fill="#fce4d6" stroke="black" d="M880,-8C880,-8 1268,-8 1268,-8 1274,-8 1280,-14 1280,-20 1280,-20 1280,-75.35 1280,-75.35 1280,-81.35 1274,-87.35 1268,-87.35 1268,-87.35 880,-87.35 880,-87.35 874,-87.35 868,-81.35 868,-75.35 868,-75.35 868,-20 868,-20 868,-14 874,-8 880,-8"/>
<text xml:space="preserve" text-anchor="middle" x="1074" y="-70.05" font-family="Arial" font-size="14.00">Knowledge Graph Platform</text>
</g>
<g id="clust5" class="cluster">
<title>cluster_gov</title>
<path fill="#e2efda" stroke="black" d="M460,-8C460,-8 848,-8 848,-8 854,-8 860,-14 860,-20 860,-20 860,-171.7 860,-171.7 860,-177.7 854,-183.7 848,-183.7 848,-183.7 460,-183.7 460,-183.7 454,-183.7 448,-177.7 448,-171.7 448,-171.7 448,-20 448,-20 448,-14 454,-8 460,-8"/>
<text xml:space="preserve" text-anchor="middle" x="654" y="-166.4" font-family="Arial" font-size="14.00">Data Engineering &amp; Governance</text>
</g>
<!-- CH1 -->
<g id="node1" class="node">
<title>CH1</title>
<path fill="lightgrey" stroke="black" d="M344,-362.15C344,-362.15 188,-362.15 188,-362.15 182,-362.15 176,-356.15 176,-350.15 176,-350.15 176,-334.55 176,-334.55 176,-328.55 182,-322.55 188,-322.55 188,-322.55 344,-322.55 344,-322.55 350,-322.55 356,-328.55 356,-334.55 356,-334.55 356,-350.15 356,-350.15 356,-356.15 350,-362.15 344,-362.15"/>
<text xml:space="preserve" text-anchor="middle" x="266" y="-344.3" font-family="Arial" font-size="9.00">Web · Mobile · IVR ·</text>
<text xml:space="preserve" text-anchor="middle" x="266" y="-333.8" font-family="Arial" font-size="9.00">Agent Desktop</text>
</g>
<!-- API1 -->
<g id="node3" class="node">
<title>API1</title>
<path fill="lightgrey" stroke="black" d="M818,-458.5C818,-458.5 662,-458.5 662,-458.5 656,-458.5 650,-452.5 650,-446.5 650,-446.5 650,-430.9 650,-430.9 650,-424.9 656,-418.9 662,-418.9 662,-418.9 818,-418.9 818,-418.9 824,-418.9 830,-424.9 830,-430.9 830,-430.9 830,-446.5 830,-446.5 830,-452.5 824,-458.5 818,-458.5"/>
<text xml:space="preserve" text-anchor="middle" x="740" y="-440.65" font-family="Arial" font-size="9.00">FastAPI / API Gateway</text>
<text xml:space="preserve" text-anchor="middle" x="740" y="-430.15" font-family="Arial" font-size="9.00">rate limit · auth · audit</text>
</g>
<!-- CH1&#45;&gt;API1 -->
<g id="edge1" class="edge">
<title>CH1&#45;&gt;API1</title>
<path fill="none" stroke="#548235" d="M266,-362.38C266,-390.69 266,-439 266,-439 266,-439 638.21,-439 638.21,-439"/>
<polygon fill="#548235" stroke="#548235" points="638.22,-442.5 648.21,-439 638.21,-435.5 638.22,-442.5"/>
</g>
<!-- CH2 -->
<g id="node2" class="node">
<title>CH2</title>
<path fill="lightgrey" stroke="black" d="M560,-362.15C560,-362.15 404,-362.15 404,-362.15 398,-362.15 392,-356.15 392,-350.15 392,-350.15 392,-334.55 392,-334.55 392,-328.55 398,-322.55 404,-322.55 404,-322.55 560,-322.55 560,-322.55 566,-322.55 572,-328.55 572,-334.55 572,-334.55 572,-350.15 572,-350.15 572,-356.15 566,-362.15 560,-362.15"/>
<text xml:space="preserve" text-anchor="middle" x="482" y="-344.3" font-family="Arial" font-size="9.00">Authenticated customer</text>
<text xml:space="preserve" text-anchor="middle" x="482" y="-333.8" font-family="Arial" font-size="9.00">&amp; asset context</text>
</g>
<!-- CRM -->
<g id="node5" class="node">
<title>CRM</title>
<path fill="lightgrey" stroke="black" d="M184,-257.05C184,-257.05 28,-257.05 28,-257.05 22,-257.05 16,-251.05 16,-245.05 16,-245.05 16,-229.45 16,-229.45 16,-223.45 22,-217.45 28,-217.45 28,-217.45 184,-217.45 184,-217.45 190,-217.45 196,-223.45 196,-229.45 196,-229.45 196,-245.05 196,-245.05 196,-251.05 190,-257.05 184,-257.05"/>
<text xml:space="preserve" text-anchor="middle" x="106" y="-239.2" font-family="Arial" font-size="9.00">Salesforce Service Cloud</text>
<text xml:space="preserve" text-anchor="middle" x="106" y="-228.7" font-family="Arial" font-size="9.00">assets · customers</text>
</g>
<!-- CH2&#45;&gt;CRM -->
<g id="edge3" class="edge">
<title>CH2&#45;&gt;CRM</title>
<path fill="none" stroke="#548235" d="M398.67,-322.26C398.67,-307.5 398.67,-290 398.67,-290 398.67,-290 186,-290 186,-290 186,-290 186,-269.01 186,-269.01"/>
<polygon fill="#548235" stroke="#548235" points="189.5,-269.01 186,-259.01 182.5,-269.01 189.5,-269.01"/>
</g>
<!-- CLM -->
<g id="node6" class="node">
<title>CLM</title>
<path fill="lightgrey" stroke="black" d="M400,-257.05C400,-257.05 244,-257.05 244,-257.05 238,-257.05 232,-251.05 232,-245.05 232,-245.05 232,-229.45 232,-229.45 232,-223.45 238,-217.45 244,-217.45 244,-217.45 400,-217.45 400,-217.45 406,-217.45 412,-223.45 412,-229.45 412,-229.45 412,-245.05 412,-245.05 412,-251.05 406,-257.05 400,-257.05"/>
<text xml:space="preserve" text-anchor="middle" x="322" y="-239.2" font-family="Arial" font-size="9.00">Claims Management</text>
<text xml:space="preserve" text-anchor="middle" x="322" y="-228.7" font-family="Arial" font-size="9.00">warranty policies</text>
</g>
<!-- CH2&#45;&gt;CLM -->
<g id="edge4" class="edge">
<title>CH2&#45;&gt;CLM</title>
<path fill="none" stroke="#548235" d="M405.33,-322.09C405.33,-322.09 405.33,-268.97 405.33,-268.97"/>
<polygon fill="#548235" stroke="#548235" points="408.83,-268.97 405.33,-258.97 401.83,-268.97 408.83,-268.97"/>
</g>
<!-- API1&#45;&gt;CH2 -->
<g id="edge2" class="edge">
<title>API1&#45;&gt;CH2</title>
<path fill="none" stroke="#548235" d="M654.67,-418.79C654.67,-392.37 654.67,-349 654.67,-349 654.67,-349 583.89,-349 583.89,-349"/>
<polygon fill="#548235" stroke="#548235" points="583.89,-345.5 573.89,-349 583.89,-352.5 583.89,-345.5"/>
</g>
<!-- API2 -->
<g id="node4" class="node">
<title>API2</title>
<path fill="lightgrey" stroke="black" d="M832,-362.15C832,-362.15 676,-362.15 676,-362.15 670,-362.15 664,-356.15 664,-350.15 664,-350.15 664,-334.55 664,-334.55 664,-328.55 670,-322.55 676,-322.55 676,-322.55 832,-322.55 832,-322.55 838,-322.55 844,-328.55 844,-334.55 844,-334.55 844,-350.15 844,-350.15 844,-356.15 838,-362.15 832,-362.15"/>
<text xml:space="preserve" text-anchor="middle" x="754" y="-344.3" font-family="Arial" font-size="9.00">LangGraph + GraphRAG</text>
<text xml:space="preserve" text-anchor="middle" x="754" y="-333.8" font-family="Arial" font-size="9.00">(diagnosis service)</text>
</g>
<!-- API1&#45;&gt;API2 -->
<g id="edge5" class="edge">
<title>API1&#45;&gt;API2</title>
<path fill="none" stroke="#548235" d="M747,-418.74C747,-418.74 747,-374.13 747,-374.13"/>
<polygon fill="#548235" stroke="#548235" points="750.5,-374.13 747,-364.13 743.5,-374.13 750.5,-374.13"/>
</g>
<!-- CC -->
<g id="node7" class="node">
<title>CC</title>
<path fill="lightgrey" stroke="black" d="M832,-257.05C832,-257.05 676,-257.05 676,-257.05 670,-257.05 664,-251.05 664,-245.05 664,-245.05 664,-229.45 664,-229.45 664,-223.45 670,-217.45 676,-217.45 676,-217.45 832,-217.45 832,-217.45 838,-217.45 844,-223.45 844,-229.45 844,-229.45 844,-245.05 844,-245.05 844,-251.05 838,-257.05 832,-257.05"/>
<text xml:space="preserve" text-anchor="middle" x="754" y="-233.95" font-family="Arial" font-size="9.00">CCaaS / Service Cloud Cases</text>
</g>
<!-- API2&#45;&gt;CC -->
<g id="edge7" class="edge">
<title>API2&#45;&gt;CC</title>
<path fill="none" stroke="#548235" d="M754,-322.09C754,-322.09 754,-268.97 754,-268.97"/>
<polygon fill="#548235" stroke="#548235" points="757.5,-268.97 754,-258.97 750.5,-268.97 757.5,-268.97"/>
<text xml:space="preserve" text-anchor="middle" x="771.62" y="-298.95" font-family="Arial" font-size="8.00">escalation</text>
</g>
<!-- PRD -->
<g id="node11" class="node">
<title>PRD</title>
<path fill="lightgrey" stroke="black" d="M1260,-55.6C1260,-55.6 1104,-55.6 1104,-55.6 1098,-55.6 1092,-49.6 1092,-43.6 1092,-43.6 1092,-28 1092,-28 1092,-22 1098,-16 1104,-16 1104,-16 1260,-16 1260,-16 1266,-16 1272,-22 1272,-28 1272,-28 1272,-43.6 1272,-43.6 1272,-49.6 1266,-55.6 1260,-55.6"/>
<text xml:space="preserve" text-anchor="middle" x="1182" y="-37.75" font-family="Arial" font-size="9.00">Production Neo4j Aura</text>
<text xml:space="preserve" text-anchor="middle" x="1182" y="-27.25" font-family="Arial" font-size="9.00">(read&#45;optimized)</text>
</g>
<!-- API2&#45;&gt;PRD -->
<g id="edge6" class="edge">
<title>API2&#45;&gt;PRD</title>
<path fill="none" stroke="#548235" d="M844.49,-342C977.96,-342 1212,-342 1212,-342 1212,-342 1212,-67.4 1212,-67.4"/>
<polygon fill="#548235" stroke="#548235" points="1215.5,-67.4 1212,-57.4 1208.5,-67.4 1215.5,-67.4"/>
</g>
<!-- LN -->
<g id="node14" class="node">
<title>LN</title>
<path fill="lightgrey" stroke="black" d="M792,-55.6C792,-55.6 636,-55.6 636,-55.6 630,-55.6 624,-49.6 624,-43.6 624,-43.6 624,-28 624,-28 624,-22 630,-16 636,-16 636,-16 792,-16 792,-16 798,-16 804,-22 804,-28 804,-28 804,-43.6 804,-43.6 804,-49.6 798,-55.6 792,-55.6"/>
<text xml:space="preserve" text-anchor="middle" x="714" y="-37.75" font-family="Arial" font-size="9.00">Lineage store +</text>
<text xml:space="preserve" text-anchor="middle" x="714" y="-27.25" font-family="Arial" font-size="9.00">compliance audit</text>
</g>
<!-- API2&#45;&gt;LN -->
<g id="edge16" class="edge">
<title>API2&#45;&gt;LN</title>
<path fill="none" stroke="#548235" stroke-dasharray="5,2" d="M663.65,-336C660.91,-336 659.33,-336 659.33,-336 659.33,-336 659.33,-67.48 659.33,-67.48"/>
<polygon fill="#548235" stroke="#548235" points="662.83,-67.48 659.33,-57.48 655.83,-67.48 662.83,-67.48"/>
<text xml:space="preserve" text-anchor="middle" x="1136" y="-193.85" font-family="Arial" font-size="8.00">provenance</text>
</g>
<!-- AF -->
<g id="node12" class="node">
<title>AF</title>
<path fill="lightgrey" stroke="black" d="M624,-151.95C624,-151.95 468,-151.95 468,-151.95 462,-151.95 456,-145.95 456,-139.95 456,-139.95 456,-124.35 456,-124.35 456,-118.35 462,-112.35 468,-112.35 468,-112.35 624,-112.35 624,-112.35 630,-112.35 636,-118.35 636,-124.35 636,-124.35 636,-139.95 636,-139.95 636,-145.95 630,-151.95 624,-151.95"/>
<text xml:space="preserve" text-anchor="middle" x="546" y="-134.1" font-family="Arial" font-size="9.00">Airflow / Dagster</text>
<text xml:space="preserve" text-anchor="middle" x="546" y="-123.6" font-family="Arial" font-size="9.00">scheduled ETL</text>
</g>
<!-- CRM&#45;&gt;AF -->
<g id="edge11" class="edge">
<title>CRM&#45;&gt;AF</title>
<path fill="none" stroke="#548235" d="M106,-217.1C106,-185.04 106,-126 106,-126 106,-126 444.12,-126 444.12,-126"/>
<polygon fill="#548235" stroke="#548235" points="444.12,-129.5 454.12,-126 444.12,-122.5 444.12,-129.5"/>
</g>
<!-- CLM&#45;&gt;AF -->
<g id="edge10" class="edge">
<title>CLM&#45;&gt;AF</title>
<path fill="none" stroke="#548235" d="M322,-217.37C322,-188.66 322,-139 322,-139 322,-139 444.02,-139 444.02,-139"/>
<polygon fill="#548235" stroke="#548235" points="444.02,-142.5 454.02,-139 444.02,-135.5 444.02,-142.5"/>
</g>
<!-- PIM -->
<g id="node8" class="node">
<title>PIM</title>
<path fill="lightgrey" stroke="black" d="M1048,-257.05C1048,-257.05 892,-257.05 892,-257.05 886,-257.05 880,-251.05 880,-245.05 880,-245.05 880,-229.45 880,-229.45 880,-223.45 886,-217.45 892,-217.45 892,-217.45 1048,-217.45 1048,-217.45 1054,-217.45 1060,-223.45 1060,-229.45 1060,-229.45 1060,-245.05 1060,-245.05 1060,-251.05 1054,-257.05 1048,-257.05"/>
<text xml:space="preserve" text-anchor="middle" x="970" y="-233.95" font-family="Arial" font-size="9.00">PIM / PLM catalog</text>
</g>
<!-- PIM&#45;&gt;AF -->
<g id="edge8" class="edge">
<title>PIM&#45;&gt;AF</title>
<path fill="none" stroke="#548235" d="M968,-217.2C968,-202.46 968,-185 968,-185 968,-185 632,-185 632,-185 632,-185 632,-163.95 632,-163.95"/>
<polygon fill="#548235" stroke="#548235" points="635.5,-163.95 632,-153.95 628.5,-163.95 635.5,-163.95"/>
</g>
<!-- FSM -->
<g id="node9" class="node">
<title>FSM</title>
<path fill="lightgrey" stroke="black" d="M616,-257.05C616,-257.05 460,-257.05 460,-257.05 454,-257.05 448,-251.05 448,-245.05 448,-245.05 448,-229.45 448,-229.45 448,-223.45 454,-217.45 460,-217.45 460,-217.45 616,-217.45 616,-217.45 622,-217.45 628,-223.45 628,-229.45 628,-229.45 628,-245.05 628,-245.05 628,-251.05 622,-257.05 616,-257.05"/>
<text xml:space="preserve" text-anchor="middle" x="538" y="-233.95" font-family="Arial" font-size="9.00">Field Service Management</text>
</g>
<!-- FSM&#45;&gt;AF -->
<g id="edge9" class="edge">
<title>FSM&#45;&gt;AF</title>
<path fill="none" stroke="#548235" d="M542,-216.99C542,-216.99 542,-163.87 542,-163.87"/>
<polygon fill="#548235" stroke="#548235" points="545.5,-163.87 542,-153.87 538.5,-163.87 545.5,-163.87"/>
</g>
<!-- STG -->
<g id="node10" class="node">
<title>STG</title>
<path fill="lightgrey" stroke="black" d="M1044,-55.6C1044,-55.6 888,-55.6 888,-55.6 882,-55.6 876,-49.6 876,-43.6 876,-43.6 876,-28 876,-28 876,-22 882,-16 888,-16 888,-16 1044,-16 1044,-16 1050,-16 1056,-22 1056,-28 1056,-28 1056,-43.6 1056,-43.6 1056,-49.6 1050,-55.6 1044,-55.6"/>
<text xml:space="preserve" text-anchor="middle" x="966" y="-37.75" font-family="Arial" font-size="9.00">Staging Neo4j</text>
<text xml:space="preserve" text-anchor="middle" x="966" y="-27.25" font-family="Arial" font-size="9.00">(governed load)</text>
</g>
<!-- SM -->
<g id="node13" class="node">
<title>SM</title>
<path fill="lightgrey" stroke="black" d="M840,-151.95C840,-151.95 684,-151.95 684,-151.95 678,-151.95 672,-145.95 672,-139.95 672,-139.95 672,-124.35 672,-124.35 672,-118.35 678,-112.35 684,-112.35 684,-112.35 840,-112.35 840,-112.35 846,-112.35 852,-118.35 852,-124.35 852,-124.35 852,-139.95 852,-139.95 852,-145.95 846,-151.95 840,-151.95"/>
<text xml:space="preserve" text-anchor="middle" x="762" y="-134.1" font-family="Arial" font-size="9.00">Smoke + regression</text>
<text xml:space="preserve" text-anchor="middle" x="762" y="-123.6" font-family="Arial" font-size="9.00">test gate</text>
</g>
<!-- STG&#45;&gt;SM -->
<g id="edge14" class="edge">
<title>STG&#45;&gt;SM</title>
<path fill="none" stroke="#548235" d="M875.88,-42C849.69,-42 828,-42 828,-42 828,-42 828,-100.63 828,-100.63"/>
<polygon fill="#548235" stroke="#548235" points="824.5,-100.63 828,-110.63 831.5,-100.63 824.5,-100.63"/>
</g>
<!-- AF&#45;&gt;LN -->
<g id="edge12" class="edge">
<title>AF&#45;&gt;LN</title>
<path fill="none" stroke="#548235" d="M630,-112.19C630,-112.19 630,-67.58 630,-67.58"/>
<polygon fill="#548235" stroke="#548235" points="633.5,-67.58 630,-57.58 626.5,-67.58 633.5,-67.58"/>
</g>
<!-- SM&#45;&gt;PRD -->
<g id="edge15" class="edge">
<title>SM&#45;&gt;PRD</title>
<path fill="none" stroke="#548235" d="M852.45,-132C967.66,-132 1152,-132 1152,-132 1152,-132 1152,-67.25 1152,-67.25"/>
<polygon fill="#548235" stroke="#548235" points="1155.5,-67.25 1152,-57.25 1148.5,-67.25 1155.5,-67.25"/>
</g>
<!-- LN&#45;&gt;STG -->
<g id="edge13" class="edge">
<title>LN&#45;&gt;STG</title>
<path fill="none" stroke="#548235" d="M804.27,-29C804.27,-29 864,-29 864,-29"/>
<polygon fill="#548235" stroke="#548235" points="864,-32.5 874,-29 864,-25.5 864,-32.5"/>
</g>
</g>
</svg>
