<?xml version="1.0" encoding="UTF-8" standalone="no"?>
<!DOCTYPE svg PUBLIC "-//W3C//DTD SVG 1.1//EN"
 "http://www.w3.org/Graphics/SVG/1.1/DTD/svg11.dtd">
<!-- Generated by graphviz version 14.1.5 (20260411.2331)
 -->
<!-- Title: LiveSessionSwimlane Pages: 1 -->
<svg width="1425pt" height="524pt"
 viewBox="0.00 0.00 1425.00 524.00" xmlns="http://www.w3.org/2000/svg" xmlns:xlink="http://www.w3.org/1999/xlink">
<g id="graph0" class="graph" transform="scale(1 1) rotate(0) translate(4 520)">
<title>LiveSessionSwimlane</title>
<polygon fill="white" stroke="none" points="-4,4 -4,-520 1421,-520 1421,4 -4,4"/>
<text xml:space="preserve" text-anchor="middle" x="708.5" y="-498.7" font-family="Arial" font-size="14.00">Figure 17: Live Session Swimlane — Washer Diagnosis (Two Customer Turns)</text>
<g id="clust1" class="cluster">
<title>cluster_cust</title>
<path fill="#d5e8f0" stroke="black" d="M843,-76C843,-76 1397,-76 1397,-76 1403,-76 1409,-82 1409,-88 1409,-88 1409,-163.5 1409,-163.5 1409,-169.5 1403,-175.5 1397,-175.5 1397,-175.5 843,-175.5 843,-175.5 837,-175.5 831,-169.5 831,-163.5 831,-163.5 831,-88 831,-88 831,-82 837,-76 843,-76"/>
<text xml:space="preserve" text-anchor="middle" x="1120" y="-158.2" font-family="Arial" font-size="14.00">Customer</text>
</g>
<g id="clust2" class="cluster">
<title>cluster_crm</title>
<path fill="#fff2cc" stroke="black" d="M797,-317.75C797,-317.75 955,-317.75 955,-317.75 961,-317.75 967,-323.75 967,-329.75 967,-329.75 967,-472.25 967,-472.25 967,-478.25 961,-484.25 955,-484.25 955,-484.25 797,-484.25 797,-484.25 791,-484.25 785,-478.25 785,-472.25 785,-472.25 785,-329.75 785,-329.75 785,-323.75 791,-317.75 797,-317.75"/>
<text xml:space="preserve" text-anchor="middle" x="876" y="-466.95" font-family="Arial" font-size="14.00">CRM &amp; Warranty Services</text>
</g>
<g id="clust3" class="cluster">
<title>cluster_plat</title>
<path fill="#c6e0b4" stroke="black" d="M447,-76C447,-76 803,-76 803,-76 809,-76 815,-82 815,-88 815,-88 815,-288.75 815,-288.75 815,-294.75 809,-300.75 803,-300.75 803,-300.75 447,-300.75 447,-300.75 441,-300.75 435,-294.75 435,-288.75 435,-288.75 435,-88 435,-88 435,-82 441,-76 447,-76"/>
<text xml:space="preserve" text-anchor="middle" x="625" y="-283.45" font-family="Arial" font-size="14.00">Diagnostics Platform</text>
</g>
<g id="clust4" class="cluster">
<title>cluster_neo</title>
<path fill="#fce4d6" stroke="black" d="M20,-201.25C20,-201.25 376,-201.25 376,-201.25 382,-201.25 388,-207.25 388,-213.25 388,-213.25 388,-288.75 388,-288.75 388,-294.75 382,-300.75 376,-300.75 376,-300.75 20,-300.75 20,-300.75 14,-300.75 8,-294.75 8,-288.75 8,-288.75 8,-213.25 8,-213.25 8,-207.25 14,-201.25 20,-201.25"/>
<text xml:space="preserve" text-anchor="middle" x="198" y="-283.45" font-family="Arial" font-size="14.00">Knowledge Graph</text>
</g>
<g id="clust5" class="cluster">
<title>cluster_ops</title>
<path fill="#f8cbad" stroke="black" d="M51,-8C51,-8 407,-8 407,-8 413,-8 419,-14 419,-20 419,-20 419,-163.5 419,-163.5 419,-169.5 413,-175.5 407,-175.5 407,-175.5 51,-175.5 51,-175.5 45,-175.5 39,-169.5 39,-163.5 39,-163.5 39,-20 39,-20 39,-14 45,-8 51,-8"/>
<text xml:space="preserve" text-anchor="middle" x="229" y="-158.2" font-family="Arial" font-size="14.00">Agent Operations</text>
</g>
<!-- T1 -->
<g id="node1" class="node">
<title>T1</title>
<path fill="lightgrey" stroke="black" d="M1190.8,-120C1190.8,-120 1049.2,-120 1049.2,-120 1043.2,-120 1037.2,-114 1037.2,-108 1037.2,-108 1037.2,-96 1037.2,-96 1037.2,-90 1043.2,-84 1049.2,-84 1049.2,-84 1190.8,-84 1190.8,-84 1196.8,-84 1202.8,-90 1202.8,-96 1202.8,-96 1202.8,-108 1202.8,-108 1202.8,-114 1196.8,-120 1190.8,-120"/>
<text xml:space="preserve" text-anchor="middle" x="1120" y="-103.95" font-family="Arial" font-size="9.00">Turn 1:</text>
<text xml:space="preserve" text-anchor="middle" x="1120" y="-93.45" font-family="Arial" font-size="9.00">&#39;Machine does not spin…&#39;</text>
</g>
<!-- CRM1 -->
<g id="node4" class="node">
<title>CRM1</title>
<path fill="lightgrey" stroke="black" d="M946.8,-428.75C946.8,-428.75 805.2,-428.75 805.2,-428.75 799.2,-428.75 793.2,-422.75 793.2,-416.75 793.2,-416.75 793.2,-404.75 793.2,-404.75 793.2,-398.75 799.2,-392.75 805.2,-392.75 805.2,-392.75 946.8,-392.75 946.8,-392.75 952.8,-392.75 958.8,-398.75 958.8,-404.75 958.8,-404.75 958.8,-416.75 958.8,-416.75 958.8,-422.75 952.8,-428.75 946.8,-428.75"/>
<text xml:space="preserve" text-anchor="middle" x="876" y="-412.7" font-family="Arial" font-size="9.00">Asset AST&#45;WM&#45;4421</text>
<text xml:space="preserve" text-anchor="middle" x="876" y="-402.2" font-family="Arial" font-size="9.00">→ Jane Martinez · wm&#45;001</text>
</g>
<!-- T1&#45;&gt;CRM1 -->
<g id="edge1" class="edge">
<title>T1&#45;&gt;CRM1</title>
<path fill="none" stroke="black" d="M1120,-120.4C1120,-186.93 1120,-411 1120,-411 1120,-411 970.8,-411 970.8,-411"/>
<polygon fill="black" stroke="black" points="970.8,-407.5 960.8,-411 970.8,-414.5 970.8,-407.5"/>
</g>
<!-- T2 -->
<g id="node2" class="node">
<title>T2</title>
<path fill="lightgrey" stroke="black" d="M992.8,-120C992.8,-120 851.2,-120 851.2,-120 845.2,-120 839.2,-114 839.2,-108 839.2,-108 839.2,-96 839.2,-96 839.2,-90 845.2,-84 851.2,-84 851.2,-84 992.8,-84 992.8,-84 998.8,-84 1004.8,-90 1004.8,-96 1004.8,-96 1004.8,-108 1004.8,-108 1004.8,-114 998.8,-120 992.8,-120"/>
<text xml:space="preserve" text-anchor="middle" x="922" y="-103.95" font-family="Arial" font-size="9.00">Turn 2:</text>
<text xml:space="preserve" text-anchor="middle" x="922" y="-93.45" font-family="Arial" font-size="9.00">&#39;Grinding noise when spinning&#39;</text>
</g>
<!-- LG1 -->
<g id="node6" class="node">
<title>LG1</title>
<path fill="lightgrey" stroke="black" d="M794.8,-245.25C794.8,-245.25 653.2,-245.25 653.2,-245.25 647.2,-245.25 641.2,-239.25 641.2,-233.25 641.2,-233.25 641.2,-221.25 641.2,-221.25 641.2,-215.25 647.2,-209.25 653.2,-209.25 653.2,-209.25 794.8,-209.25 794.8,-209.25 800.8,-209.25 806.8,-215.25 806.8,-221.25 806.8,-221.25 806.8,-233.25 806.8,-233.25 806.8,-239.25 800.8,-245.25 794.8,-245.25"/>
<text xml:space="preserve" text-anchor="middle" x="724" y="-223.95" font-family="Arial" font-size="9.00">LangGraph pipeline</text>
</g>
<!-- T2&#45;&gt;LG1 -->
<g id="edge7" class="edge">
<title>T2&#45;&gt;LG1</title>
<path fill="none" stroke="black" d="M918.93,-120.44C918.93,-155.22 918.93,-227 918.93,-227 918.93,-227 818.75,-227 818.75,-227"/>
<polygon fill="black" stroke="black" points="818.75,-223.5 808.75,-227 818.75,-230.5 818.75,-223.5"/>
</g>
<!-- T3 -->
<g id="node3" class="node">
<title>T3</title>
<path fill="lightgrey" stroke="black" d="M1388.8,-120C1388.8,-120 1247.2,-120 1247.2,-120 1241.2,-120 1235.2,-114 1235.2,-108 1235.2,-108 1235.2,-96 1235.2,-96 1235.2,-90 1241.2,-84 1247.2,-84 1247.2,-84 1388.8,-84 1388.8,-84 1394.8,-84 1400.8,-90 1400.8,-96 1400.8,-96 1400.8,-108 1400.8,-108 1400.8,-114 1394.8,-120 1388.8,-120"/>
<text xml:space="preserve" text-anchor="middle" x="1318" y="-103.95" font-family="Arial" font-size="9.00">Receives case IDs</text>
<text xml:space="preserve" text-anchor="middle" x="1318" y="-93.45" font-family="Arial" font-size="9.00">on escalation</text>
</g>
<!-- WAR1 -->
<g id="node5" class="node">
<title>WAR1</title>
<path fill="lightgrey" stroke="black" d="M946.8,-361.75C946.8,-361.75 805.2,-361.75 805.2,-361.75 799.2,-361.75 793.2,-355.75 793.2,-349.75 793.2,-349.75 793.2,-337.75 793.2,-337.75 793.2,-331.75 799.2,-325.75 805.2,-325.75 805.2,-325.75 946.8,-325.75 946.8,-325.75 952.8,-325.75 958.8,-331.75 958.8,-337.75 958.8,-337.75 958.8,-349.75 958.8,-349.75 958.8,-355.75 952.8,-361.75 946.8,-361.75"/>
<text xml:space="preserve" text-anchor="middle" x="876" y="-345.7" font-family="Arial" font-size="9.00">Warranty eligible</text>
<text xml:space="preserve" text-anchor="middle" x="876" y="-335.2" font-family="Arial" font-size="9.00">WP&#45;STANDARD&#45;24M</text>
</g>
<!-- CRM1&#45;&gt;WAR1 -->
<g id="edge2" class="edge">
<title>CRM1&#45;&gt;WAR1</title>
<path fill="none" stroke="black" d="M876,-392.44C876,-392.44 876,-373.55 876,-373.55"/>
<polygon fill="black" stroke="black" points="879.5,-373.55 876,-363.55 872.5,-373.55 879.5,-373.55"/>
</g>
<!-- WAR1&#45;&gt;LG1 -->
<g id="edge3" class="edge">
<title>WAR1&#45;&gt;LG1</title>
<path fill="none" stroke="black" d="M800,-325.29C800,-325.29 800,-257.14 800,-257.14"/>
<polygon fill="black" stroke="black" points="803.5,-257.14 800,-247.14 796.5,-257.14 803.5,-257.14"/>
</g>
<!-- GR1 -->
<g id="node7" class="node">
<title>GR1</title>
<path fill="lightgrey" stroke="black" d="M596.8,-120C596.8,-120 455.2,-120 455.2,-120 449.2,-120 443.2,-114 443.2,-108 443.2,-108 443.2,-96 443.2,-96 443.2,-90 449.2,-84 455.2,-84 455.2,-84 596.8,-84 596.8,-84 602.8,-84 608.8,-90 608.8,-96 608.8,-96 608.8,-108 608.8,-108 608.8,-114 602.8,-120 596.8,-120"/>
<text xml:space="preserve" text-anchor="middle" x="526" y="-103.95" font-family="Arial" font-size="9.00">GraphRAG:</text>
<text xml:space="preserve" text-anchor="middle" x="526" y="-93.45" font-family="Arial" font-size="9.00">1 symptom → 94%</text>
</g>
<!-- LG1&#45;&gt;GR1 -->
<g id="edge4" class="edge">
<title>LG1&#45;&gt;GR1</title>
<path fill="none" stroke="black" d="M640.91,-227C631.38,-227 625,-227 625,-227 625,-227 625,-102 625,-102 625,-102 620.61,-102 620.61,-102"/>
<polygon fill="black" stroke="black" points="620.61,-98.5 610.61,-102 620.61,-105.5 620.61,-98.5"/>
</g>
<!-- GR2 -->
<g id="node8" class="node">
<title>GR2</title>
<path fill="lightgrey" stroke="black" d="M794.8,-120C794.8,-120 653.2,-120 653.2,-120 647.2,-120 641.2,-114 641.2,-108 641.2,-108 641.2,-96 641.2,-96 641.2,-90 647.2,-84 653.2,-84 653.2,-84 794.8,-84 794.8,-84 800.8,-84 806.8,-90 806.8,-96 806.8,-96 806.8,-108 806.8,-108 806.8,-114 800.8,-120 794.8,-120"/>
<text xml:space="preserve" text-anchor="middle" x="724" y="-103.95" font-family="Arial" font-size="9.00">GraphRAG:</text>
<text xml:space="preserve" text-anchor="middle" x="724" y="-93.45" font-family="Arial" font-size="9.00">2 symptoms → 47%</text>
</g>
<!-- LG1&#45;&gt;GR2 -->
<g id="edge8" class="edge">
<title>LG1&#45;&gt;GR2</title>
<path fill="none" stroke="black" d="M751.6,-208.77C751.6,-208.77 751.6,-131.66 751.6,-131.66"/>
<polygon fill="black" stroke="black" points="755.1,-131.66 751.6,-121.66 748.1,-131.66 755.1,-131.66"/>
</g>
<!-- GR1&#45;&gt;T1 -->
<g id="edge14" class="edge">
<title>GR1&#45;&gt;T1</title>
<path fill="none" stroke="#548235" stroke-dasharray="5,2" d="M526,-83.81C526,-75.72 526,-68 526,-68 526,-68 1120,-68 1120,-68 1120,-68 1120,-72.29 1120,-72.29"/>
<polygon fill="#548235" stroke="#548235" points="1116.5,-72.29 1120,-82.29 1123.5,-72.29 1116.5,-72.29"/>
<text xml:space="preserve" text-anchor="middle" x="762" y="-185.65" font-family="Arial" font-size="8.00">94% response</text>
</g>
<!-- N1 -->
<g id="node10" class="node">
<title>N1</title>
<path fill="lightgrey" stroke="black" d="M169.8,-245.25C169.8,-245.25 28.2,-245.25 28.2,-245.25 22.2,-245.25 16.2,-239.25 16.2,-233.25 16.2,-233.25 16.2,-221.25 16.2,-221.25 16.2,-215.25 22.2,-209.25 28.2,-209.25 28.2,-209.25 169.8,-209.25 169.8,-209.25 175.8,-209.25 181.8,-215.25 181.8,-221.25 181.8,-221.25 181.8,-233.25 181.8,-233.25 181.8,-239.25 175.8,-245.25 169.8,-245.25"/>
<text xml:space="preserve" text-anchor="middle" x="99" y="-229.2" font-family="Arial" font-size="9.00">wm&#45;s01 → wm&#45;fm01</text>
<text xml:space="preserve" text-anchor="middle" x="99" y="-218.7" font-family="Arial" font-size="9.00">Worn Drive Belt</text>
</g>
<!-- GR1&#45;&gt;N1 -->
<g id="edge5" class="edge">
<title>GR1&#45;&gt;N1</title>
<path fill="none" stroke="black" d="M498.4,-120.13C498.4,-130.71 498.4,-142 498.4,-142 498.4,-142 136.93,-142 136.93,-142 136.93,-142 136.93,-197.24 136.93,-197.24"/>
<polygon fill="black" stroke="black" points="133.43,-197.24 136.93,-207.24 140.43,-197.24 133.43,-197.24"/>
</g>
<!-- N2 -->
<g id="node11" class="node">
<title>N2</title>
<path fill="lightgrey" stroke="black" d="M367.8,-245.25C367.8,-245.25 226.2,-245.25 226.2,-245.25 220.2,-245.25 214.2,-239.25 214.2,-233.25 214.2,-233.25 214.2,-221.25 214.2,-221.25 214.2,-215.25 220.2,-209.25 226.2,-209.25 226.2,-209.25 367.8,-209.25 367.8,-209.25 373.8,-209.25 379.8,-215.25 379.8,-221.25 379.8,-221.25 379.8,-233.25 379.8,-233.25 379.8,-239.25 373.8,-245.25 367.8,-245.25"/>
<text xml:space="preserve" text-anchor="middle" x="297" y="-229.2" font-family="Arial" font-size="9.00">+ wm&#45;s02 vibration</text>
<text xml:space="preserve" text-anchor="middle" x="297" y="-218.7" font-family="Arial" font-size="9.00">confidence diluted</text>
</g>
<!-- GR2&#45;&gt;N2 -->
<g id="edge9" class="edge">
<title>GR2&#45;&gt;N2</title>
<path fill="none" stroke="black" d="M696.4,-120.22C696.4,-138.83 696.4,-165 696.4,-165 696.4,-165 312.5,-165 312.5,-165 312.5,-165 312.5,-197.4 312.5,-197.4"/>
<polygon fill="black" stroke="black" points="309,-197.4 312.5,-207.4 316,-197.4 309,-197.4"/>
</g>
<!-- ESC -->
<g id="node9" class="node">
<title>ESC</title>
<path fill="lightgrey" stroke="black" d="M596.8,-245.25C596.8,-245.25 455.2,-245.25 455.2,-245.25 449.2,-245.25 443.2,-239.25 443.2,-233.25 443.2,-233.25 443.2,-221.25 443.2,-221.25 443.2,-215.25 449.2,-209.25 455.2,-209.25 455.2,-209.25 596.8,-209.25 596.8,-209.25 602.8,-209.25 608.8,-215.25 608.8,-221.25 608.8,-221.25 608.8,-233.25 608.8,-233.25 608.8,-239.25 602.8,-245.25 596.8,-245.25"/>
<text xml:space="preserve" text-anchor="middle" x="526" y="-229.2" font-family="Arial" font-size="9.00">Escalation decision</text>
<text xml:space="preserve" text-anchor="middle" x="526" y="-218.7" font-family="Arial" font-size="9.00">47% &lt; 65% threshold</text>
</g>
<!-- ESC&#45;&gt;T2 -->
<g id="edge15" class="edge">
<title>ESC&#45;&gt;T2</title>
<path fill="none" stroke="#c00000" stroke-dasharray="5,2" d="M553.6,-209.01C553.6,-198.36 553.6,-187 553.6,-187 553.6,-187 879.07,-187 879.07,-187 879.07,-187 879.07,-131.96 879.07,-131.96"/>
<polygon fill="#c00000" stroke="#c00000" points="882.57,-131.96 879.07,-121.96 875.57,-131.96 882.57,-131.96"/>
<text xml:space="preserve" text-anchor="middle" x="865.62" y="-185.65" font-family="Arial" font-size="8.00">escalate</text>
</g>
<!-- AG2 -->
<g id="node13" class="node">
<title>AG2</title>
<path fill="lightgrey" stroke="black" d="M398.8,-120C398.8,-120 257.2,-120 257.2,-120 251.2,-120 245.2,-114 245.2,-108 245.2,-108 245.2,-96 245.2,-96 245.2,-90 251.2,-84 257.2,-84 257.2,-84 398.8,-84 398.8,-84 404.8,-84 410.8,-90 410.8,-96 410.8,-96 410.8,-108 410.8,-108 410.8,-114 404.8,-120 398.8,-120"/>
<text xml:space="preserve" text-anchor="middle" x="328" y="-103.95" font-family="Arial" font-size="9.00">Case 231311d2</text>
<text xml:space="preserve" text-anchor="middle" x="328" y="-93.45" font-family="Arial" font-size="9.00">Agent Dashboard</text>
</g>
<!-- ESC&#45;&gt;AG2 -->
<g id="edge11" class="edge">
<title>ESC&#45;&gt;AG2</title>
<path fill="none" stroke="black" d="M442.86,-221C417.08,-221 395.3,-221 395.3,-221 395.3,-221 395.3,-131.85 395.3,-131.85"/>
<polygon fill="black" stroke="black" points="398.8,-131.85 395.3,-121.85 391.8,-131.85 398.8,-131.85"/>
</g>
<!-- AG1 -->
<g id="node12" class="node">
<title>AG1</title>
<path fill="lightgrey" stroke="black" d="M200.8,-120C200.8,-120 59.2,-120 59.2,-120 53.2,-120 47.2,-114 47.2,-108 47.2,-108 47.2,-96 47.2,-96 47.2,-90 53.2,-84 59.2,-84 59.2,-84 200.8,-84 200.8,-84 206.8,-84 212.8,-90 212.8,-96 212.8,-96 212.8,-108 212.8,-108 212.8,-114 206.8,-120 200.8,-120"/>
<text xml:space="preserve" text-anchor="middle" x="130" y="-103.95" font-family="Arial" font-size="9.00">Automated resolution</text>
<text xml:space="preserve" text-anchor="middle" x="130" y="-93.45" font-family="Arial" font-size="9.00">(no escalation)</text>
</g>
<!-- N1&#45;&gt;AG1 -->
<g id="edge6" class="edge">
<title>N1&#45;&gt;AG1</title>
<path fill="none" stroke="black" d="M92.07,-208.77C92.07,-208.77 92.07,-131.66 92.07,-131.66"/>
<polygon fill="black" stroke="black" points="95.57,-131.66 92.07,-121.66 88.57,-131.66 95.57,-131.66"/>
</g>
<!-- N2&#45;&gt;ESC -->
<g id="edge10" class="edge">
<title>N2&#45;&gt;ESC</title>
<path fill="none" stroke="black" d="M380,-233C380,-233 431.39,-233 431.39,-233"/>
<polygon fill="black" stroke="black" points="431.39,-236.5 441.39,-233 431.39,-229.5 431.39,-236.5"/>
</g>
<!-- AG3 -->
<g id="node14" class="node">
<title>AG3</title>
<path fill="lightgrey" stroke="black" d="M398.8,-52C398.8,-52 257.2,-52 257.2,-52 251.2,-52 245.2,-46 245.2,-40 245.2,-40 245.2,-28 245.2,-28 245.2,-22 251.2,-16 257.2,-16 257.2,-16 398.8,-16 398.8,-16 404.8,-16 410.8,-22 410.8,-28 410.8,-28 410.8,-40 410.8,-40 410.8,-46 404.8,-52 398.8,-52"/>
<text xml:space="preserve" text-anchor="middle" x="328" y="-35.95" font-family="Arial" font-size="9.00">CASE&#45;4B881382</text>
<text xml:space="preserve" text-anchor="middle" x="328" y="-25.45" font-family="Arial" font-size="9.00">Service Cloud handoff</text>
</g>
<!-- AG2&#45;&gt;AG3 -->
<g id="edge12" class="edge">
<title>AG2&#45;&gt;AG3</title>
<path fill="none" stroke="black" d="M328,-83.78C328,-83.78 328,-63.79 328,-63.79"/>
<polygon fill="black" stroke="black" points="331.5,-63.79 328,-53.79 324.5,-63.79 331.5,-63.79"/>
</g>
<!-- AG3&#45;&gt;T3 -->
<g id="edge13" class="edge">
<title>AG3&#45;&gt;T3</title>
<path fill="none" stroke="black" d="M411.13,-34C649.44,-34 1318,-34 1318,-34 1318,-34 1318,-72.26 1318,-72.26"/>
<polygon fill="black" stroke="black" points="1314.5,-72.26 1318,-82.26 1321.5,-72.26 1314.5,-72.26"/>
</g>
</g>
</svg>
