<?xml version="1.0" encoding="UTF-8" standalone="no"?>
<!DOCTYPE svg PUBLIC "-//W3C//DTD SVG 1.1//EN"
 "http://www.w3.org/Graphics/SVG/1.1/DTD/svg11.dtd">
<!-- Generated by graphviz version 14.1.5 (20260411.2331)
 -->
<!-- Title: ETLRuntimeSwimlane Pages: 1 -->
<svg width="807pt" height="439pt"
 viewBox="0.00 0.00 807.00 439.00" xmlns="http://www.w3.org/2000/svg" xmlns:xlink="http://www.w3.org/1999/xlink">
<g id="graph0" class="graph" transform="scale(1 1) rotate(0) translate(4 434.75)">
<title>ETLRuntimeSwimlane</title>
<polygon fill="white" stroke="none" points="-4,4 -4,-434.75 802.5,-434.75 802.5,4 -4,4"/>
<text xml:space="preserve" text-anchor="middle" x="399.25" y="-413.45" font-family="Arial" font-size="14.00">Figure 18: ETL &amp; Governance vs Runtime Diagnosis Swimlane</text>
<g id="clust1" class="cluster">
<title>cluster_src</title>
<path fill="#ededed" stroke="black" d="M12,-128C12,-128 181.75,-128 181.75,-128 187.75,-128 193.75,-134 193.75,-140 193.75,-140 193.75,-387 193.75,-387 193.75,-393 187.75,-399 181.75,-399 181.75,-399 12,-399 12,-399 6,-399 0,-393 0,-387 0,-387 0,-140 0,-140 0,-134 6,-128 12,-128"/>
<text xml:space="preserve" text-anchor="middle" x="96.88" y="-381.7" font-family="Arial" font-size="14.00">Authoritative Source Systems</text>
</g>
<g id="clust2" class="cluster">
<title>cluster_batch</title>
<path fill="#e2efda" stroke="black" d="M232.75,-180C232.75,-180 749.75,-180 749.75,-180 755.75,-180 761.75,-186 761.75,-192 761.75,-192 761.75,-306 761.75,-306 761.75,-312 755.75,-318 749.75,-318 749.75,-318 232.75,-318 232.75,-318 226.75,-318 220.75,-312 220.75,-306 220.75,-306 220.75,-192 220.75,-192 220.75,-186 226.75,-180 232.75,-180"/>
<text xml:space="preserve" text-anchor="middle" x="491.25" y="-300.7" font-family="Arial" font-size="14.00">Batch — Knowledge Engineering</text>
</g>
<g id="clust3" class="cluster">
<title>cluster_store</title>
<path fill="#fce4d6" stroke="black" d="M649.75,-92C649.75,-92 786.5,-92 786.5,-92 792.5,-92 798.5,-98 798.5,-104 798.5,-104 798.5,-160 798.5,-160 798.5,-166 792.5,-172 786.5,-172 786.5,-172 649.75,-172 649.75,-172 643.75,-172 637.75,-166 637.75,-160 637.75,-160 637.75,-104 637.75,-104 637.75,-98 643.75,-92 649.75,-92"/>
<text xml:space="preserve" text-anchor="middle" x="718.12" y="-154.7" font-family="Arial" font-size="14.00">Knowledge Graph Store</text>
</g>
<g id="clust4" class="cluster">
<title>cluster_rt</title>
<path fill="#c6e0b4" stroke="black" d="M381.75,-8C381.75,-8 766.25,-8 766.25,-8 772.25,-8 778.25,-14 778.25,-20 778.25,-20 778.25,-72 778.25,-72 778.25,-78 772.25,-84 766.25,-84 766.25,-84 381.75,-84 381.75,-84 375.75,-84 369.75,-78 369.75,-72 369.75,-72 369.75,-20 369.75,-20 369.75,-14 375.75,-8 381.75,-8"/>
<text xml:space="preserve" text-anchor="middle" x="574" y="-66.7" font-family="Arial" font-size="14.00">Runtime — Live Diagnosis</text>
</g>
<!-- PIM -->
<g id="node1" class="node">
<title>PIM</title>
<path fill="lightgrey" stroke="black" d="M113,-172C113,-172 79.75,-172 79.75,-172 73.75,-172 67.75,-166 67.75,-160 67.75,-160 67.75,-148 67.75,-148 67.75,-142 73.75,-136 79.75,-136 79.75,-136 113,-136 113,-136 119,-136 125,-142 125,-148 125,-148 125,-160 125,-160 125,-166 119,-172 113,-172"/>
<text xml:space="preserve" text-anchor="middle" x="96.38" y="-150.7" font-family="Arial" font-size="9.00">PIM / PLM</text>
</g>
<!-- ETL -->
<g id="node5" class="node">
<title>ETL</title>
<path fill="lightgrey" stroke="black" d="M322.75,-270C322.75,-270 240.75,-270 240.75,-270 234.75,-270 228.75,-264 228.75,-258 228.75,-258 228.75,-246 228.75,-246 228.75,-240 234.75,-234 240.75,-234 240.75,-234 322.75,-234 322.75,-234 328.75,-234 334.75,-240 334.75,-246 334.75,-246 334.75,-258 334.75,-258 334.75,-264 328.75,-270 322.75,-270"/>
<text xml:space="preserve" text-anchor="middle" x="281.75" y="-253.95" font-family="Arial" font-size="9.00">Knowledge ETL</text>
<text xml:space="preserve" text-anchor="middle" x="281.75" y="-243.45" font-family="Arial" font-size="9.00">connectors + ontology</text>
</g>
<!-- PIM&#45;&gt;ETL -->
<g id="edge1" class="edge">
<title>PIM&#45;&gt;ETL</title>
<path fill="none" stroke="#4472c4" d="M125.3,-155.88C177.37,-155.88 281.5,-155.88 281.5,-155.88 281.5,-155.88 281.5,-222.41 281.5,-222.41"/>
<polygon fill="#4472c4" stroke="#4472c4" points="278,-222.41 281.5,-232.41 285,-222.41 278,-222.41"/>
</g>
<!-- FSM -->
<g id="node2" class="node">
<title>FSM</title>
<path fill="lightgrey" stroke="black" d="M111.38,-237C111.38,-237 81.38,-237 81.38,-237 75.38,-237 69.38,-231 69.38,-225 69.38,-225 69.38,-213 69.38,-213 69.38,-207 75.38,-201 81.38,-201 81.38,-201 111.38,-201 111.38,-201 117.38,-201 123.38,-207 123.38,-213 123.38,-213 123.38,-225 123.38,-225 123.38,-231 117.38,-237 111.38,-237"/>
<text xml:space="preserve" text-anchor="middle" x="96.38" y="-215.7" font-family="Arial" font-size="9.00">FSM</text>
</g>
<!-- FSM&#45;&gt;ETL -->
<g id="edge2" class="edge">
<title>FSM&#45;&gt;ETL</title>
<path fill="none" stroke="#4472c4" d="M87.5,-237.3C87.5,-242.45 87.5,-246.67 87.5,-246.67 87.5,-246.67 216.9,-246.67 216.9,-246.67"/>
<polygon fill="#4472c4" stroke="#4472c4" points="216.9,-250.17 226.9,-246.67 216.9,-243.17 216.9,-250.17"/>
</g>
<!-- CLM -->
<g id="node3" class="node">
<title>CLM</title>
<path fill="lightgrey" stroke="black" d="M111.38,-302C111.38,-302 81.38,-302 81.38,-302 75.38,-302 69.38,-296 69.38,-290 69.38,-290 69.38,-278 69.38,-278 69.38,-272 75.38,-266 81.38,-266 81.38,-266 111.38,-266 111.38,-266 117.38,-266 123.38,-272 123.38,-278 123.38,-278 123.38,-290 123.38,-290 123.38,-296 117.38,-302 111.38,-302"/>
<text xml:space="preserve" text-anchor="middle" x="96.38" y="-280.7" font-family="Arial" font-size="9.00">Claims</text>
</g>
<!-- CLM&#45;&gt;ETL -->
<g id="edge3" class="edge">
<title>CLM&#45;&gt;ETL</title>
<path fill="none" stroke="#4472c4" d="M105.5,-265.7C105.5,-260.55 105.5,-256.33 105.5,-256.33 105.5,-256.33 216.88,-256.33 216.88,-256.33"/>
<polygon fill="#4472c4" stroke="#4472c4" points="216.88,-259.83 226.88,-256.33 216.88,-252.83 216.88,-259.83"/>
</g>
<!-- CRM -->
<g id="node4" class="node">
<title>CRM</title>
<path fill="lightgrey" stroke="black" d="M111.38,-367C111.38,-367 81.38,-367 81.38,-367 75.38,-367 69.38,-361 69.38,-355 69.38,-355 69.38,-343 69.38,-343 69.38,-337 75.38,-331 81.38,-331 81.38,-331 111.38,-331 111.38,-331 117.38,-331 123.38,-337 123.38,-343 123.38,-343 123.38,-355 123.38,-355 123.38,-361 117.38,-367 111.38,-367"/>
<text xml:space="preserve" text-anchor="middle" x="96.38" y="-345.7" font-family="Arial" font-size="9.00">CRM</text>
</g>
<!-- CRM&#45;&gt;ETL -->
<g id="edge4" class="edge">
<title>CRM&#45;&gt;ETL</title>
<path fill="none" stroke="#4472c4" d="M123.69,-349C175.19,-349 281.5,-349 281.5,-349 281.5,-349 281.5,-281.76 281.5,-281.76"/>
<polygon fill="#4472c4" stroke="#4472c4" points="285,-281.76 281.5,-271.76 278,-281.76 285,-281.76"/>
</g>
<!-- VAL -->
<g id="node6" class="node">
<title>VAL</title>
<path fill="lightgrey" stroke="black" d="M454.5,-255C454.5,-255 392,-255 392,-255 386,-255 380,-249 380,-243 380,-243 380,-231 380,-231 380,-225 386,-219 392,-219 392,-219 454.5,-219 454.5,-219 460.5,-219 466.5,-225 466.5,-231 466.5,-231 466.5,-243 466.5,-243 466.5,-249 460.5,-255 454.5,-255"/>
<text xml:space="preserve" text-anchor="middle" x="423.25" y="-238.95" font-family="Arial" font-size="9.00">Smoke validation</text>
<text xml:space="preserve" text-anchor="middle" x="423.25" y="-228.45" font-family="Arial" font-size="9.00">gate</text>
</g>
<!-- ETL&#45;&gt;VAL -->
<g id="edge5" class="edge">
<title>ETL&#45;&gt;VAL</title>
<path fill="none" stroke="#4472c4" d="M335.25,-244.5C335.25,-244.5 368.29,-244.5 368.29,-244.5"/>
<polygon fill="#4472c4" stroke="#4472c4" points="368.29,-248 378.29,-244.5 368.29,-241 368.29,-248"/>
</g>
<!-- LINE -->
<g id="node8" class="node">
<title>LINE</title>
<path fill="lightgrey" stroke="black" d="M741.75,-272C741.75,-272 693.5,-272 693.5,-272 687.5,-272 681.5,-266 681.5,-260 681.5,-260 681.5,-248 681.5,-248 681.5,-242 687.5,-236 693.5,-236 693.5,-236 741.75,-236 741.75,-236 747.75,-236 753.75,-242 753.75,-248 753.75,-248 753.75,-260 753.75,-260 753.75,-266 747.75,-272 741.75,-272"/>
<text xml:space="preserve" text-anchor="middle" x="717.62" y="-250.7" font-family="Arial" font-size="9.00">Lineage audit</text>
</g>
<!-- ETL&#45;&gt;LINE -->
<g id="edge8" class="edge">
<title>ETL&#45;&gt;LINE</title>
<path fill="none" stroke="#4472c4" d="M335.2,-262.5C335.2,-262.5 669.69,-262.5 669.69,-262.5"/>
<polygon fill="#4472c4" stroke="#4472c4" points="669.69,-266 679.69,-262.5 669.69,-259 669.69,-266"/>
</g>
<!-- PROM -->
<g id="node7" class="node">
<title>PROM</title>
<path fill="lightgrey" stroke="black" d="M590.75,-224C590.75,-224 523.75,-224 523.75,-224 517.75,-224 511.75,-218 511.75,-212 511.75,-212 511.75,-200 511.75,-200 511.75,-194 517.75,-188 523.75,-188 523.75,-188 590.75,-188 590.75,-188 596.75,-188 602.75,-194 602.75,-200 602.75,-200 602.75,-212 602.75,-212 602.75,-218 596.75,-224 590.75,-224"/>
<text xml:space="preserve" text-anchor="middle" x="557.25" y="-202.7" font-family="Arial" font-size="9.00">Staging promotion</text>
</g>
<!-- VAL&#45;&gt;PROM -->
<g id="edge6" class="edge">
<title>VAL&#45;&gt;PROM</title>
<path fill="none" stroke="#4472c4" d="M466.84,-230C506.04,-230 557.5,-230 557.5,-230 557.5,-230 557.5,-229.44 557.5,-229.44"/>
<polygon fill="#4472c4" stroke="#4472c4" points="561,-235.95 557.5,-225.95 554,-235.95 561,-235.95"/>
</g>
<!-- VAL&#45;&gt;LINE -->
<g id="edge9" class="edge">
<title>VAL&#45;&gt;LINE</title>
<path fill="none" stroke="#4472c4" d="M466.69,-245.5C466.69,-245.5 669.92,-245.5 669.92,-245.5"/>
<polygon fill="#4472c4" stroke="#4472c4" points="669.92,-249 679.92,-245.5 669.92,-242 669.92,-249"/>
</g>
<!-- PROM&#45;&gt;LINE -->
<g id="edge10" class="edge">
<title>PROM&#45;&gt;LINE</title>
<path fill="none" stroke="#4472c4" d="M603.17,-206C650.52,-206 717.5,-206 717.5,-206 717.5,-206 717.5,-224.07 717.5,-224.07"/>
<polygon fill="#4472c4" stroke="#4472c4" points="714,-224.07 717.5,-234.07 721,-224.07 714,-224.07"/>
</g>
<!-- NEO -->
<g id="node9" class="node">
<title>NEO</title>
<path fill="lightgrey" stroke="black" d="M759.75,-139.75C759.75,-139.75 675.5,-139.75 675.5,-139.75 669.5,-139.75 663.5,-133.75 663.5,-127.75 663.5,-127.75 663.5,-112.25 663.5,-112.25 663.5,-106.25 669.5,-100.25 675.5,-100.25 675.5,-100.25 759.75,-100.25 759.75,-100.25 765.75,-100.25 771.75,-106.25 771.75,-112.25 771.75,-112.25 771.75,-127.75 771.75,-127.75 771.75,-133.75 765.75,-139.75 759.75,-139.75"/>
<text xml:space="preserve" text-anchor="middle" x="717.62" y="-127.2" font-family="Arial" font-size="9.00">Neo4j</text>
<text xml:space="preserve" text-anchor="middle" x="717.62" y="-116.7" font-family="Arial" font-size="9.00">(products · symptoms ·</text>
<text xml:space="preserve" text-anchor="middle" x="717.62" y="-106.2" font-family="Arial" font-size="9.00">failure modes · steps)</text>
</g>
<!-- PROM&#45;&gt;NEO -->
<g id="edge7" class="edge">
<title>PROM&#45;&gt;NEO</title>
<path fill="none" stroke="#4472c4" d="M597.5,-187.69C597.5,-164.37 597.5,-127.06 597.5,-127.06 597.5,-127.06 651.67,-127.06 651.67,-127.06"/>
<polygon fill="#4472c4" stroke="#4472c4" points="651.67,-130.56 661.67,-127.06 651.67,-123.56 651.67,-130.56"/>
</g>
<!-- EN -->
<g id="node11" class="node">
<title>EN</title>
<path fill="lightgrey" stroke="black" d="M580.25,-52C580.25,-52 534.25,-52 534.25,-52 528.25,-52 522.25,-46 522.25,-40 522.25,-40 522.25,-28 522.25,-28 522.25,-22 528.25,-16 534.25,-16 534.25,-16 580.25,-16 580.25,-16 586.25,-16 592.25,-22 592.25,-28 592.25,-28 592.25,-40 592.25,-40 592.25,-46 586.25,-52 580.25,-52"/>
<text xml:space="preserve" text-anchor="middle" x="557.25" y="-35.95" font-family="Arial" font-size="9.00">LangGraph +</text>
<text xml:space="preserve" text-anchor="middle" x="557.25" y="-25.45" font-family="Arial" font-size="9.00">GraphRAG</text>
</g>
<!-- NEO&#45;&gt;EN -->
<g id="edge13" class="edge">
<title>NEO&#45;&gt;EN</title>
<path fill="none" stroke="#4472c4" d="M663.37,-109.19C620.73,-109.19 568.5,-109.19 568.5,-109.19 568.5,-109.19 568.5,-63.71 568.5,-63.71"/>
<polygon fill="#4472c4" stroke="#4472c4" points="572,-63.71 568.5,-53.71 565,-63.71 572,-63.71"/>
</g>
<!-- CH -->
<g id="node10" class="node">
<title>CH</title>
<path fill="lightgrey" stroke="black" d="M456.75,-52C456.75,-52 389.75,-52 389.75,-52 383.75,-52 377.75,-46 377.75,-40 377.75,-40 377.75,-28 377.75,-28 377.75,-22 383.75,-16 389.75,-16 389.75,-16 456.75,-16 456.75,-16 462.75,-16 468.75,-22 468.75,-28 468.75,-28 468.75,-40 468.75,-40 468.75,-46 462.75,-52 456.75,-52"/>
<text xml:space="preserve" text-anchor="middle" x="423.25" y="-30.7" font-family="Arial" font-size="9.00">Customer channel</text>
</g>
<!-- CH&#45;&gt;EN -->
<g id="edge11" class="edge">
<title>CH&#45;&gt;EN</title>
<path fill="none" stroke="#4472c4" d="M468.99,-34C468.99,-34 510.35,-34 510.35,-34"/>
<polygon fill="#4472c4" stroke="#4472c4" points="510.35,-37.5 520.35,-34 510.35,-30.5 510.35,-37.5"/>
</g>
<!-- EN&#45;&gt;NEO -->
<g id="edge12" class="edge">
<title>EN&#45;&gt;NEO</title>
<path fill="none" stroke="#4472c4" d="M545.5,-52.25C545.5,-77 545.5,-118.12 545.5,-118.12 545.5,-118.12 651.65,-118.12 651.65,-118.12"/>
<polygon fill="#4472c4" stroke="#4472c4" points="651.65,-121.63 661.65,-118.13 651.65,-114.63 651.65,-121.63"/>
</g>
<!-- OUT -->
<g id="node12" class="node">
<title>OUT</title>
<path fill="lightgrey" stroke="black" d="M758.25,-52C758.25,-52 677,-52 677,-52 671,-52 665,-46 665,-40 665,-40 665,-28 665,-28 665,-22 671,-16 677,-16 677,-16 758.25,-16 758.25,-16 764.25,-16 770.25,-22 770.25,-28 770.25,-28 770.25,-40 770.25,-40 770.25,-46 764.25,-52 758.25,-52"/>
<text xml:space="preserve" text-anchor="middle" x="717.62" y="-35.95" font-family="Arial" font-size="9.00">Explainable response</text>
<text xml:space="preserve" text-anchor="middle" x="717.62" y="-25.45" font-family="Arial" font-size="9.00">+ provenance</text>
</g>
<!-- EN&#45;&gt;OUT -->
<g id="edge14" class="edge">
<title>EN&#45;&gt;OUT</title>
<path fill="none" stroke="#4472c4" d="M592.44,-34C592.44,-34 653.01,-34 653.01,-34"/>
<polygon fill="#4472c4" stroke="#4472c4" points="653.01,-37.5 663.01,-34 653.01,-30.5 653.01,-37.5"/>
</g>
</g>
</svg>
