<?xml version="1.0" encoding="UTF-8" standalone="no"?>
<!DOCTYPE svg PUBLIC "-//W3C//DTD SVG 1.1//EN"
 "http://www.w3.org/Graphics/SVG/1.1/DTD/svg11.dtd">
<!-- Generated by graphviz version 14.1.5 (20260411.2331)
 -->
<!-- Title: ProductionPipelines Pages: 1 -->
<svg width="1387pt" height="575pt"
 viewBox="0.00 0.00 1387.00 575.00" xmlns="http://www.w3.org/2000/svg" xmlns:xlink="http://www.w3.org/1999/xlink">
<g id="graph0" class="graph" transform="scale(1 1) rotate(0) translate(4 570.75)">
<title>ProductionPipelines</title>
<polygon fill="white" stroke="none" points="-4,4 -4,-570.75 1382.5,-570.75 1382.5,4 -4,4"/>
<text xml:space="preserve" text-anchor="middle" x="689.25" y="-549.45" font-family="Arial" font-size="14.00">Figure 19: Production Pipeline Landscape — Batch, Governance &amp; Runtime</text>
<g id="clust1" class="cluster">
<title>cluster_batch</title>
<path fill="#e2efda" stroke="black" d="M727,-64C727,-64 1350,-64 1350,-64 1356,-64 1362,-70 1362,-76 1362,-76 1362,-283.5 1362,-283.5 1362,-289.5 1356,-295.5 1350,-295.5 1350,-295.5 727,-295.5 727,-295.5 721,-295.5 715,-289.5 715,-283.5 715,-283.5 715,-76 715,-76 715,-70 721,-64 727,-64"/>
<text xml:space="preserve" text-anchor="middle" x="1038.5" y="-278.2" font-family="Arial" font-size="14.00">Batch — Knowledge Engineering (scheduled)</text>
</g>
<g id="clust2" class="cluster">
<title>cluster_gov</title>
<path fill="#fff2cc" stroke="black" d="M872,-303.5C872,-303.5 1198,-303.5 1198,-303.5 1204,-303.5 1210,-309.5 1210,-315.5 1210,-315.5 1210,-367.25 1210,-367.25 1210,-373.25 1204,-379.25 1198,-379.25 1198,-379.25 872,-379.25 872,-379.25 866,-379.25 860,-373.25 860,-367.25 860,-367.25 860,-315.5 860,-315.5 860,-309.5 866,-303.5 872,-303.5"/>
<text xml:space="preserve" text-anchor="middle" x="1035" y="-361.95" font-family="Arial" font-size="14.00">Governance — Human&#45;in&#45;the&#45;Loop</text>
</g>
<g id="clust3" class="cluster">
<title>cluster_ops</title>
<path fill="#fce4d6" stroke="black" d="M477,-136C477,-136 695,-136 695,-136 701,-136 707,-142 707,-148 707,-148 707,-199.75 707,-199.75 707,-205.75 701,-211.75 695,-211.75 695,-211.75 477,-211.75 477,-211.75 471,-211.75 465,-205.75 465,-199.75 465,-199.75 465,-148 465,-148 465,-142 471,-136 477,-136"/>
<text xml:space="preserve" text-anchor="middle" x="586" y="-194.45" font-family="Arial" font-size="14.00">Operations — Platform Health</text>
</g>
<g id="clust4" class="cluster">
<title>cluster_feedback</title>
<path fill="#d5e8f0" stroke="black" d="M842,-387.25C842,-387.25 986,-387.25 986,-387.25 992,-387.25 998,-393.25 998,-399.25 998,-399.25 998,-523 998,-523 998,-529 992,-535 986,-535 986,-535 842,-535 842,-535 836,-535 830,-529 830,-523 830,-523 830,-399.25 830,-399.25 830,-393.25 836,-387.25 842,-387.25"/>
<text xml:space="preserve" text-anchor="middle" x="914" y="-517.7" font-family="Arial" font-size="14.00">Continuous Improvement</text>
</g>
<g id="clust5" class="cluster">
<title>cluster_runtime</title>
<path fill="#bdd7ee" stroke="black" d="M20,-219.75C20,-219.75 286,-219.75 286,-219.75 292,-219.75 298,-225.75 298,-231.75 298,-231.75 298,-367.25 298,-367.25 298,-373.25 292,-379.25 286,-379.25 286,-379.25 20,-379.25 20,-379.25 14,-379.25 8,-373.25 8,-367.25 8,-367.25 8,-231.75 8,-231.75 8,-225.75 14,-219.75 20,-219.75"/>
<text xml:space="preserve" text-anchor="middle" x="153" y="-361.95" font-family="Arial" font-size="14.00">Runtime — Not batch pipelines (live services)</text>
</g>
<!-- P1 -->
<g id="node1" class="node">
<title>P1</title>
<path fill="#c6e0b4" stroke="black" d="M1203.25,-263.75C1203.25,-263.75 1134.75,-263.75 1134.75,-263.75 1128.75,-263.75 1122.75,-257.75 1122.75,-251.75 1122.75,-251.75 1122.75,-239.75 1122.75,-239.75 1122.75,-233.75 1128.75,-227.75 1134.75,-227.75 1134.75,-227.75 1203.25,-227.75 1203.25,-227.75 1209.25,-227.75 1215.25,-233.75 1215.25,-239.75 1215.25,-239.75 1215.25,-251.75 1215.25,-251.75 1215.25,-257.75 1209.25,-263.75 1203.25,-263.75"/>
<text xml:space="preserve" text-anchor="middle" x="1169" y="-247.7" font-family="Arial" font-size="9.00">1. Knowledge ETL</text>
<text xml:space="preserve" text-anchor="middle" x="1169" y="-237.2" font-family="Arial" font-size="9.00">(full &amp; incremental)</text>
</g>
<!-- P3 -->
<g id="node3" class="node">
<title>P3</title>
<path fill="#c6e0b4" stroke="black" d="M1199.12,-180C1199.12,-180 1138.88,-180 1138.88,-180 1132.88,-180 1126.88,-174 1126.88,-168 1126.88,-168 1126.88,-156 1126.88,-156 1126.88,-150 1132.88,-144 1138.88,-144 1138.88,-144 1199.12,-144 1199.12,-144 1205.12,-144 1211.12,-150 1211.12,-156 1211.12,-156 1211.12,-168 1211.12,-168 1211.12,-174 1205.12,-180 1199.12,-180"/>
<text xml:space="preserve" text-anchor="middle" x="1169" y="-163.95" font-family="Arial" font-size="9.00">3. Data Quality &amp;</text>
<text xml:space="preserve" text-anchor="middle" x="1169" y="-153.45" font-family="Arial" font-size="9.00">Reconciliation</text>
</g>
<!-- P1&#45;&gt;P3 -->
<g id="edge2" class="edge">
<title>P1&#45;&gt;P3</title>
<path fill="none" stroke="#4472c4" d="M1169,-227.41C1169,-217.01 1169,-203.52 1169,-191.57"/>
<polygon fill="#4472c4" stroke="#4472c4" points="1172.5,-191.83 1169,-181.83 1165.5,-191.83 1172.5,-191.83"/>
</g>
<!-- P2 -->
<g id="node2" class="node">
<title>P2</title>
<path fill="#c6e0b4" stroke="black" d="M1342.12,-263.75C1342.12,-263.75 1251.88,-263.75 1251.88,-263.75 1245.88,-263.75 1239.88,-257.75 1239.88,-251.75 1239.88,-251.75 1239.88,-239.75 1239.88,-239.75 1239.88,-233.75 1245.88,-227.75 1251.88,-227.75 1251.88,-227.75 1342.12,-227.75 1342.12,-227.75 1348.12,-227.75 1354.12,-233.75 1354.12,-239.75 1354.12,-239.75 1354.12,-251.75 1354.12,-251.75 1354.12,-257.75 1348.12,-263.75 1342.12,-263.75"/>
<text xml:space="preserve" text-anchor="middle" x="1297" y="-247.7" font-family="Arial" font-size="9.00">2. Document Ingestion</text>
<text xml:space="preserve" text-anchor="middle" x="1297" y="-237.2" font-family="Arial" font-size="9.00">(PDF · FMEA · manuals)</text>
</g>
<!-- P2&#45;&gt;P3 -->
<g id="edge6" class="edge">
<title>P2&#45;&gt;P3</title>
<path fill="none" stroke="#4472c4" d="M1269.85,-227.41C1251.19,-215.49 1226.17,-199.52 1205.73,-186.46"/>
<polygon fill="#4472c4" stroke="#4472c4" points="1207.69,-183.56 1197.38,-181.13 1203.93,-189.46 1207.69,-183.56"/>
</g>
<!-- P4 -->
<g id="node4" class="node">
<title>P4</title>
<path fill="#fff2cc" stroke="black" d="M1015.12,-108C1015.12,-108 930.88,-108 930.88,-108 924.88,-108 918.88,-102 918.88,-96 918.88,-96 918.88,-84 918.88,-84 918.88,-78 924.88,-72 930.88,-72 930.88,-72 1015.12,-72 1015.12,-72 1021.12,-72 1027.12,-78 1027.12,-84 1027.12,-84 1027.12,-96 1027.12,-96 1027.12,-102 1021.12,-108 1015.12,-108"/>
<text xml:space="preserve" text-anchor="middle" x="973" y="-91.95" font-family="Arial" font-size="9.00">4. Smoke / Regression</text>
<text xml:space="preserve" text-anchor="middle" x="973" y="-81.45" font-family="Arial" font-size="9.00">Validation Gate</text>
</g>
<!-- P3&#45;&gt;P4 -->
<g id="edge3" class="edge">
<title>P3&#45;&gt;P4</title>
<path fill="none" stroke="#4472c4" d="M1126.47,-145.81C1098.88,-135.96 1062.53,-122.98 1032.14,-112.12"/>
<polygon fill="#4472c4" stroke="#4472c4" points="1033.68,-108.95 1023.08,-108.89 1031.32,-115.55 1033.68,-108.95"/>
</g>
<!-- G1 -->
<g id="node8" class="node">
<title>G1</title>
<path fill="lightgrey" stroke="black" d="M948.25,-347.5C948.25,-347.5 879.75,-347.5 879.75,-347.5 873.75,-347.5 867.75,-341.5 867.75,-335.5 867.75,-335.5 867.75,-323.5 867.75,-323.5 867.75,-317.5 873.75,-311.5 879.75,-311.5 879.75,-311.5 948.25,-311.5 948.25,-311.5 954.25,-311.5 960.25,-317.5 960.25,-323.5 960.25,-323.5 960.25,-335.5 960.25,-335.5 960.25,-341.5 954.25,-347.5 948.25,-347.5"/>
<text xml:space="preserve" text-anchor="middle" x="914" y="-331.45" font-family="Arial" font-size="9.00">8. SME Review &amp;</text>
<text xml:space="preserve" text-anchor="middle" x="914" y="-320.95" font-family="Arial" font-size="9.00">Approval Workflow</text>
</g>
<!-- P4&#45;&gt;G1 -->
<g id="edge7" class="edge">
<title>P4&#45;&gt;G1</title>
<path fill="none" stroke="#4472c4" d="M918.43,-90.79C773.5,-90.81 387.38,-94.75 349,-136 199.43,-296.74 684.49,-323.27 856.12,-327.64"/>
<polygon fill="#4472c4" stroke="#4472c4" points="855.84,-331.14 865.92,-327.87 856.01,-324.14 855.84,-331.14"/>
</g>
<!-- STG -->
<g id="node19" class="node">
<title>STG</title>
<path fill="#fce4d6" stroke="black" d="M1010.25,-32.73C1010.25,-34.53 993.55,-36 973,-36 952.45,-36 935.75,-34.53 935.75,-32.73 935.75,-32.73 935.75,-3.27 935.75,-3.27 935.75,-1.47 952.45,0 973,0 993.55,0 1010.25,-1.47 1010.25,-3.27 1010.25,-3.27 1010.25,-32.73 1010.25,-32.73"/>
<path fill="none" stroke="black" d="M1010.25,-32.73C1010.25,-30.92 993.55,-29.45 973,-29.45 952.45,-29.45 935.75,-30.92 935.75,-32.73"/>
<text xml:space="preserve" text-anchor="middle" x="973" y="-14.7" font-family="Arial" font-size="9.00">Staging Neo4j</text>
</g>
<!-- P4&#45;&gt;STG -->
<g id="edge4" class="edge">
<title>P4&#45;&gt;STG</title>
<path fill="none" stroke="#4472c4" d="M973,-71.7C973,-64.41 973,-55.73 973,-47.54"/>
<polygon fill="#4472c4" stroke="#4472c4" points="976.5,-47.62 973,-37.62 969.5,-47.62 976.5,-47.62"/>
</g>
<!-- P5 -->
<g id="node5" class="node">
<title>P5</title>
<path fill="#fff2cc" stroke="black" d="M1085.5,-263.75C1085.5,-263.75 994.5,-263.75 994.5,-263.75 988.5,-263.75 982.5,-257.75 982.5,-251.75 982.5,-251.75 982.5,-239.75 982.5,-239.75 982.5,-233.75 988.5,-227.75 994.5,-227.75 994.5,-227.75 1085.5,-227.75 1085.5,-227.75 1091.5,-227.75 1097.5,-233.75 1097.5,-239.75 1097.5,-239.75 1097.5,-251.75 1097.5,-251.75 1097.5,-257.75 1091.5,-263.75 1085.5,-263.75"/>
<text xml:space="preserve" text-anchor="middle" x="1040" y="-247.7" font-family="Arial" font-size="9.00">5. Staging Promotion</text>
<text xml:space="preserve" text-anchor="middle" x="1040" y="-237.2" font-family="Arial" font-size="9.00">(approved batches only)</text>
</g>
<!-- O1 -->
<g id="node11" class="node">
<title>O1</title>
<path fill="lightgrey" stroke="black" d="M558.5,-180C558.5,-180 485.5,-180 485.5,-180 479.5,-180 473.5,-174 473.5,-168 473.5,-168 473.5,-156 473.5,-156 473.5,-150 479.5,-144 485.5,-144 485.5,-144 558.5,-144 558.5,-144 564.5,-144 570.5,-150 570.5,-156 570.5,-156 570.5,-168 570.5,-168 570.5,-174 564.5,-180 558.5,-180"/>
<text xml:space="preserve" text-anchor="middle" x="522" y="-163.95" font-family="Arial" font-size="9.00">11. Graph Backup &amp;</text>
<text xml:space="preserve" text-anchor="middle" x="522" y="-153.45" font-family="Arial" font-size="9.00">DR Snapshot</text>
</g>
<!-- P5&#45;&gt;O1 -->
<g id="edge10" class="edge">
<title>P5&#45;&gt;O1</title>
<path fill="none" stroke="#4472c4" d="M998.03,-227.3C988.94,-224.22 979.27,-221.45 970,-219.75 927.7,-211.97 623.44,-226.39 583,-211.75 569.26,-206.77 556.27,-197.34 545.84,-188.09"/>
<polygon fill="#4472c4" stroke="#4472c4" points="548.51,-185.8 538.82,-181.5 543.72,-190.9 548.51,-185.8"/>
</g>
<!-- PRD -->
<g id="node20" class="node">
<title>PRD</title>
<path fill="#f4b084" stroke="black" d="M448.62,-176.73C448.62,-178.53 429.07,-180 405,-180 380.93,-180 361.38,-178.53 361.38,-176.73 361.38,-176.73 361.38,-147.27 361.38,-147.27 361.38,-145.47 380.93,-144 405,-144 429.07,-144 448.62,-145.47 448.62,-147.27 448.62,-147.27 448.62,-176.73 448.62,-176.73"/>
<path fill="none" stroke="black" d="M448.62,-176.73C448.62,-174.92 429.07,-173.45 405,-173.45 380.93,-173.45 361.38,-174.92 361.38,-176.73"/>
<text xml:space="preserve" text-anchor="middle" x="405" y="-158.7" font-family="Arial" font-size="9.00">Production Neo4j</text>
</g>
<!-- P5&#45;&gt;PRD -->
<g id="edge9" class="edge">
<title>P5&#45;&gt;PRD</title>
<path fill="none" stroke="#4472c4" d="M998.04,-227.27C988.94,-224.19 979.27,-221.43 970,-219.75 942.06,-214.69 485.42,-222.15 459,-211.75 446.58,-206.86 435.22,-197.71 426.15,-188.64"/>
<polygon fill="#4472c4" stroke="#4472c4" points="428.92,-186.48 419.54,-181.56 423.81,-191.26 428.92,-186.48"/>
</g>
<!-- P6 -->
<g id="node6" class="node">
<title>P6</title>
<path fill="#e2efda" stroke="black" d="M815.25,-263.75C815.25,-263.75 734.75,-263.75 734.75,-263.75 728.75,-263.75 722.75,-257.75 722.75,-251.75 722.75,-251.75 722.75,-239.75 722.75,-239.75 722.75,-233.75 728.75,-227.75 734.75,-227.75 734.75,-227.75 815.25,-227.75 815.25,-227.75 821.25,-227.75 827.25,-233.75 827.25,-239.75 827.25,-239.75 827.25,-251.75 827.25,-251.75 827.25,-257.75 821.25,-263.75 815.25,-263.75"/>
<text xml:space="preserve" text-anchor="middle" x="775" y="-247.7" font-family="Arial" font-size="9.00">6. Vector Index Build</text>
<text xml:space="preserve" text-anchor="middle" x="775" y="-237.2" font-family="Arial" font-size="9.00">(optional hybrid RAG)</text>
</g>
<!-- P6&#45;&gt;PRD -->
<g id="edge11" class="edge">
<title>P6&#45;&gt;PRD</title>
<path fill="none" stroke="#4472c4" d="M722.55,-243.19C645.22,-240.24 504.85,-232.18 459,-211.75 447.11,-206.45 436.04,-197.52 427.06,-188.74"/>
<polygon fill="#4472c4" stroke="#4472c4" points="429.63,-186.36 420.18,-181.58 424.58,-191.21 429.63,-186.36"/>
</g>
<!-- P7 -->
<g id="node7" class="node">
<title>P7</title>
<path fill="#e2efda" stroke="black" d="M945.62,-263.75C945.62,-263.75 864.38,-263.75 864.38,-263.75 858.38,-263.75 852.38,-257.75 852.38,-251.75 852.38,-251.75 852.38,-239.75 852.38,-239.75 852.38,-233.75 858.38,-227.75 864.38,-227.75 864.38,-227.75 945.62,-227.75 945.62,-227.75 951.62,-227.75 957.62,-233.75 957.62,-239.75 957.62,-239.75 957.62,-251.75 957.62,-251.75 957.62,-257.75 951.62,-263.75 945.62,-263.75"/>
<text xml:space="preserve" text-anchor="middle" x="905" y="-247.7" font-family="Arial" font-size="9.00">7. Catalog Retirement</text>
<text xml:space="preserve" text-anchor="middle" x="905" y="-237.2" font-family="Arial" font-size="9.00">(EOL products)</text>
</g>
<!-- P7&#45;&gt;PRD -->
<g id="edge12" class="edge">
<title>P7&#45;&gt;PRD</title>
<path fill="none" stroke="#4472c4" d="M866.12,-227.3C857.67,-224.22 848.66,-221.45 840,-219.75 798.45,-211.58 498.36,-227.36 459,-211.75 446.6,-206.83 435.23,-197.67 426.16,-188.6"/>
<polygon fill="#4472c4" stroke="#4472c4" points="428.94,-186.44 419.55,-181.53 423.83,-191.23 428.94,-186.44"/>
</g>
<!-- G1&#45;&gt;P5 -->
<g id="edge8" class="edge">
<title>G1&#45;&gt;P5</title>
<path fill="none" stroke="#4472c4" d="M944.48,-311.1C952.83,-306.18 961.83,-300.74 970,-295.5 982.17,-287.69 995.24,-278.75 1006.76,-270.67"/>
<polygon fill="#4472c4" stroke="#4472c4" points="1008.63,-273.63 1014.77,-265 1004.59,-267.92 1008.63,-273.63"/>
</g>
<!-- G2 -->
<g id="node9" class="node">
<title>G2</title>
<path fill="lightgrey" stroke="black" d="M1068.75,-347.5C1068.75,-347.5 997.25,-347.5 997.25,-347.5 991.25,-347.5 985.25,-341.5 985.25,-335.5 985.25,-335.5 985.25,-323.5 985.25,-323.5 985.25,-317.5 991.25,-311.5 997.25,-311.5 997.25,-311.5 1068.75,-311.5 1068.75,-311.5 1074.75,-311.5 1080.75,-317.5 1080.75,-323.5 1080.75,-323.5 1080.75,-335.5 1080.75,-335.5 1080.75,-341.5 1074.75,-347.5 1068.75,-347.5"/>
<text xml:space="preserve" text-anchor="middle" x="1033" y="-331.45" font-family="Arial" font-size="9.00">9. Ontology Version</text>
<text xml:space="preserve" text-anchor="middle" x="1033" y="-320.95" font-family="Arial" font-size="9.00">Migration</text>
</g>
<!-- G2&#45;&gt;P5 -->
<g id="edge13" class="edge">
<title>G2&#45;&gt;P5</title>
<path fill="none" stroke="#4472c4" d="M1034.48,-311.16C1035.38,-300.76 1036.53,-287.27 1037.55,-275.32"/>
<polygon fill="#4472c4" stroke="#4472c4" points="1041.02,-275.83 1038.39,-265.57 1034.05,-275.24 1041.02,-275.83"/>
</g>
<!-- G3 -->
<g id="node10" class="node">
<title>G3</title>
<path fill="lightgrey" stroke="black" d="M1190.12,-347.5C1190.12,-347.5 1117.88,-347.5 1117.88,-347.5 1111.88,-347.5 1105.88,-341.5 1105.88,-335.5 1105.88,-335.5 1105.88,-323.5 1105.88,-323.5 1105.88,-317.5 1111.88,-311.5 1117.88,-311.5 1117.88,-311.5 1190.12,-311.5 1190.12,-311.5 1196.12,-311.5 1202.12,-317.5 1202.12,-323.5 1202.12,-323.5 1202.12,-335.5 1202.12,-335.5 1202.12,-341.5 1196.12,-347.5 1190.12,-347.5"/>
<text xml:space="preserve" text-anchor="middle" x="1154" y="-331.45" font-family="Arial" font-size="9.00">10. Lineage &amp; Audit</text>
<text xml:space="preserve" text-anchor="middle" x="1154" y="-320.95" font-family="Arial" font-size="9.00">Export</text>
</g>
<!-- G3&#45;&gt;P1 -->
<g id="edge14" class="edge">
<title>G3&#45;&gt;P1</title>
<path fill="none" stroke="#4472c4" d="M1157.18,-311.16C1159.09,-300.76 1161.57,-287.27 1163.76,-275.32"/>
<polygon fill="#4472c4" stroke="#4472c4" points="1167.19,-276.02 1165.55,-265.55 1160.3,-274.75 1167.19,-276.02"/>
</g>
<!-- O2 -->
<g id="node12" class="node">
<title>O2</title>
<path fill="lightgrey" stroke="black" d="M686.88,-180C686.88,-180 607.12,-180 607.12,-180 601.12,-180 595.12,-174 595.12,-168 595.12,-168 595.12,-156 595.12,-156 595.12,-150 601.12,-144 607.12,-144 607.12,-144 686.88,-144 686.88,-144 692.88,-144 698.88,-150 698.88,-156 698.88,-156 698.88,-168 698.88,-168 698.88,-174 692.88,-180 686.88,-180"/>
<text xml:space="preserve" text-anchor="middle" x="647" y="-163.95" font-family="Arial" font-size="9.00">12. Connector Health</text>
<text xml:space="preserve" text-anchor="middle" x="647" y="-153.45" font-family="Arial" font-size="9.00">&amp; Credential Rotation</text>
</g>
<!-- F1 -->
<g id="node13" class="node">
<title>F1</title>
<path fill="lightgrey" stroke="black" d="M952.38,-431.25C952.38,-431.25 875.62,-431.25 875.62,-431.25 869.62,-431.25 863.62,-425.25 863.62,-419.25 863.62,-419.25 863.62,-407.25 863.62,-407.25 863.62,-401.25 869.62,-395.25 875.62,-395.25 875.62,-395.25 952.38,-395.25 952.38,-395.25 958.38,-395.25 964.38,-401.25 964.38,-407.25 964.38,-407.25 964.38,-419.25 964.38,-419.25 964.38,-425.25 958.38,-431.25 952.38,-431.25"/>
<text xml:space="preserve" text-anchor="middle" x="914" y="-415.2" font-family="Arial" font-size="9.00">13. Agent Override &amp;</text>
<text xml:space="preserve" text-anchor="middle" x="914" y="-404.7" font-family="Arial" font-size="9.00">Feedback Ingestion</text>
</g>
<!-- F1&#45;&gt;G1 -->
<g id="edge15" class="edge">
<title>F1&#45;&gt;G1</title>
<path fill="none" stroke="#4472c4" d="M914,-394.91C914,-384.51 914,-371.02 914,-359.07"/>
<polygon fill="#4472c4" stroke="#4472c4" points="917.5,-359.33 914,-349.33 910.5,-359.33 917.5,-359.33"/>
</g>
<!-- F2 -->
<g id="node14" class="node">
<title>F2</title>
<path fill="lightgrey" stroke="black" d="M947.88,-503.25C947.88,-503.25 880.12,-503.25 880.12,-503.25 874.12,-503.25 868.12,-497.25 868.12,-491.25 868.12,-491.25 868.12,-479.25 868.12,-479.25 868.12,-473.25 874.12,-467.25 880.12,-467.25 880.12,-467.25 947.88,-467.25 947.88,-467.25 953.88,-467.25 959.88,-473.25 959.88,-479.25 959.88,-479.25 959.88,-491.25 959.88,-491.25 959.88,-497.25 953.88,-503.25 947.88,-503.25"/>
<text xml:space="preserve" text-anchor="middle" x="914" y="-487.2" font-family="Arial" font-size="9.00">14. KPI / Telemetry</text>
<text xml:space="preserve" text-anchor="middle" x="914" y="-476.7" font-family="Arial" font-size="9.00">Aggregation</text>
</g>
<!-- F2&#45;&gt;F1 -->
<g id="edge16" class="edge">
<title>F2&#45;&gt;F1</title>
<path fill="none" stroke="#4472c4" d="M914,-466.95C914,-459.66 914,-450.98 914,-442.79"/>
<polygon fill="#4472c4" stroke="#4472c4" points="917.5,-442.87 914,-432.87 910.5,-442.87 917.5,-442.87"/>
</g>
<!-- R1 -->
<g id="node15" class="node">
<title>R1</title>
<path fill="lightgrey" stroke="black" d="M272.62,-263.75C272.62,-263.75 179.38,-263.75 179.38,-263.75 173.38,-263.75 167.38,-257.75 167.38,-251.75 167.38,-251.75 167.38,-239.75 167.38,-239.75 167.38,-233.75 173.38,-227.75 179.38,-227.75 179.38,-227.75 272.62,-227.75 272.62,-227.75 278.62,-227.75 284.62,-233.75 284.62,-239.75 284.62,-239.75 284.62,-251.75 284.62,-251.75 284.62,-257.75 278.62,-263.75 272.62,-263.75"/>
<text xml:space="preserve" text-anchor="middle" x="226" y="-247.7" font-family="Arial" font-size="9.00">Diagnosis API</text>
<text xml:space="preserve" text-anchor="middle" x="226" y="-237.2" font-family="Arial" font-size="9.00">LangGraph + GraphRAG</text>
</g>
<!-- R1&#45;&gt;PRD -->
<g id="edge17" class="edge">
<title>R1&#45;&gt;PRD</title>
<path fill="none" stroke="#4472c4" d="M263.96,-227.41C291.56,-214.81 329.09,-197.67 358.49,-184.24"/>
<polygon fill="#4472c4" stroke="#4472c4" points="359.91,-187.44 367.55,-180.1 357,-181.08 359.91,-187.44"/>
</g>
<!-- R2 -->
<g id="node16" class="node">
<title>R2</title>
<path fill="lightgrey" stroke="black" d="M150.25,-347.5C150.25,-347.5 93.75,-347.5 93.75,-347.5 87.75,-347.5 81.75,-341.5 81.75,-335.5 81.75,-335.5 81.75,-323.5 81.75,-323.5 81.75,-317.5 87.75,-311.5 93.75,-311.5 93.75,-311.5 150.25,-311.5 150.25,-311.5 156.25,-311.5 162.25,-317.5 162.25,-323.5 162.25,-323.5 162.25,-335.5 162.25,-335.5 162.25,-341.5 156.25,-347.5 150.25,-347.5"/>
<text xml:space="preserve" text-anchor="middle" x="122" y="-331.45" font-family="Arial" font-size="9.00">CRM / Warranty</text>
<text xml:space="preserve" text-anchor="middle" x="122" y="-320.95" font-family="Arial" font-size="9.00">Enrichment</text>
</g>
<!-- R2&#45;&gt;R1 -->
<g id="edge18" class="edge">
<title>R2&#45;&gt;R1</title>
<path fill="none" stroke="#4472c4" d="M144.06,-311.16C158.95,-299.46 178.81,-283.85 195.25,-270.92"/>
<polygon fill="#4472c4" stroke="#4472c4" points="197.09,-273.93 202.79,-265 192.76,-268.43 197.09,-273.93"/>
</g>
<!-- R3 -->
<g id="node17" class="node">
<title>R3</title>
<path fill="lightgrey" stroke="black" d="M269,-347.5C269,-347.5 199,-347.5 199,-347.5 193,-347.5 187,-341.5 187,-335.5 187,-335.5 187,-323.5 187,-323.5 187,-317.5 193,-311.5 199,-311.5 199,-311.5 269,-311.5 269,-311.5 275,-311.5 281,-317.5 281,-323.5 281,-323.5 281,-335.5 281,-335.5 281,-341.5 275,-347.5 269,-347.5"/>
<text xml:space="preserve" text-anchor="middle" x="234" y="-331.45" font-family="Arial" font-size="9.00">Case Management</text>
<text xml:space="preserve" text-anchor="middle" x="234" y="-320.95" font-family="Arial" font-size="9.00">Handoff</text>
</g>
<!-- R3&#45;&gt;R1 -->
<g id="edge19" class="edge">
<title>R3&#45;&gt;R1</title>
<path fill="none" stroke="#4472c4" d="M232.3,-311.16C231.29,-300.76 229.96,-287.27 228.8,-275.32"/>
<polygon fill="#4472c4" stroke="#4472c4" points="232.3,-275.18 227.84,-265.57 225.33,-275.86 232.3,-275.18"/>
</g>
<!-- SRC -->
<g id="node18" class="node">
<title>SRC</title>
<polygon fill="#ededed" stroke="black" points="1378.5,-347.5 1227.5,-347.5 1227.5,-343.5 1223.5,-343.5 1223.5,-339.5 1227.5,-339.5 1227.5,-319.5 1223.5,-319.5 1223.5,-315.5 1227.5,-315.5 1227.5,-311.5 1378.5,-311.5 1378.5,-347.5"/>
<polyline fill="none" stroke="black" points="1227.5,-343.5 1231.5,-343.5 1231.5,-339.5 1227.5,-339.5"/>
<polyline fill="none" stroke="black" points="1227.5,-319.5 1231.5,-319.5 1231.5,-315.5 1227.5,-315.5"/>
<text xml:space="preserve" text-anchor="middle" x="1303" y="-331.45" font-family="Arial" font-size="9.00">Enterprise Sources</text>
<text xml:space="preserve" text-anchor="middle" x="1303" y="-320.95" font-family="Arial" font-size="9.00">PIM · FSM · Claims · CRM · Docs</text>
</g>
<!-- SRC&#45;&gt;P1 -->
<g id="edge1" class="edge">
<title>SRC&#45;&gt;P1</title>
<path fill="none" stroke="#4472c4" d="M1256.9,-311.03C1246.77,-306.5 1236.3,-301.25 1227,-295.5 1216.07,-288.73 1205.03,-280.02 1195.55,-271.84"/>
<polygon fill="#4472c4" stroke="#4472c4" points="1197.94,-269.28 1188.14,-265.25 1193.29,-274.51 1197.94,-269.28"/>
</g>
<!-- SRC&#45;&gt;P2 -->
<g id="edge5" class="edge">
<title>SRC&#45;&gt;P2</title>
<path fill="none" stroke="#4472c4" d="M1301.73,-311.16C1300.96,-300.76 1299.97,-287.27 1299.1,-275.32"/>
<polygon fill="#4472c4" stroke="#4472c4" points="1302.6,-275.29 1298.38,-265.57 1295.62,-275.8 1302.6,-275.29"/>
</g>
</g>
</svg>
