<?xml version="1.0" encoding="UTF-8" standalone="no"?>
<!DOCTYPE svg PUBLIC "-//W3C//DTD SVG 1.1//EN"
 "http://www.w3.org/Graphics/SVG/1.1/DTD/svg11.dtd">
<!-- Generated by graphviz version 14.1.5 (20260411.2331)
 -->
<!-- Title: PhasedRoadmapSwimlane Pages: 1 -->
<svg width="2652pt" height="140pt"
 viewBox="0.00 0.00 2652.00 140.00" xmlns="http://www.w3.org/2000/svg" xmlns:xlink="http://www.w3.org/1999/xlink">
<g id="graph0" class="graph" transform="scale(1 1) rotate(0) translate(4 135.75)">
<title>PhasedRoadmapSwimlane</title>
<polygon fill="white" stroke="none" points="-4,4 -4,-135.75 2647.5,-135.75 2647.5,4 -4,4"/>
<text xml:space="preserve" text-anchor="middle" x="1321.75" y="-114.45" font-family="Arial" font-size="14.00">Figure 20: Phased Roadmap Swimlane — POC · Pilot · Production</text>
<g id="clust1" class="cluster">
<title>cluster_poc</title>
<path fill="#d5e8f0" stroke="black" d="M20,-8C20,-8 807,-8 807,-8 813,-8 819,-14 819,-20 819,-20 819,-88 819,-88 819,-94 813,-100 807,-100 807,-100 20,-100 20,-100 14,-100 8,-94 8,-88 8,-88 8,-20 8,-20 8,-14 14,-8 20,-8"/>
<text xml:space="preserve" text-anchor="middle" x="413.5" y="-82.7" font-family="Arial" font-size="14.00">POC (Weeks 1–8)</text>
<text xml:space="preserve" text-anchor="middle" x="413.5" y="-66.95" font-family="Arial" font-size="14.00">Prove technical &amp; business hypothesis</text>
</g>
<g id="clust2" class="cluster">
<title>cluster_pilot</title>
<path fill="#c6e0b4" stroke="black" d="M928.25,-8C928.25,-8 1715.25,-8 1715.25,-8 1721.25,-8 1727.25,-14 1727.25,-20 1727.25,-20 1727.25,-88 1727.25,-88 1727.25,-94 1721.25,-100 1715.25,-100 1715.25,-100 928.25,-100 928.25,-100 922.25,-100 916.25,-94 916.25,-88 916.25,-88 916.25,-20 916.25,-20 916.25,-14 922.25,-8 928.25,-8"/>
<text xml:space="preserve" text-anchor="middle" x="1321.75" y="-82.7" font-family="Arial" font-size="14.00">Pilot (Weeks 9–16)</text>
<text xml:space="preserve" text-anchor="middle" x="1321.75" y="-66.95" font-family="Arial" font-size="14.00">Operational trial with real agents</text>
</g>
<g id="clust3" class="cluster">
<title>cluster_prod</title>
<path fill="#fce4d6" stroke="black" d="M1836.5,-8C1836.5,-8 2623.5,-8 2623.5,-8 2629.5,-8 2635.5,-14 2635.5,-20 2635.5,-20 2635.5,-88 2635.5,-88 2635.5,-94 2629.5,-100 2623.5,-100 2623.5,-100 1836.5,-100 1836.5,-100 1830.5,-100 1824.5,-94 1824.5,-88 1824.5,-88 1824.5,-20 1824.5,-20 1824.5,-14 1830.5,-8 1836.5,-8"/>
<text xml:space="preserve" text-anchor="middle" x="2230" y="-82.7" font-family="Arial" font-size="14.00">Production (Month 5–24+)</text>
<text xml:space="preserve" text-anchor="middle" x="2230" y="-66.95" font-family="Arial" font-size="14.00">Scale · govern · harden</text>
</g>
<!-- POC1 -->
<g id="node1" class="node">
<title>POC1</title>
<path fill="lightgrey" stroke="black" d="M148,-52C148,-52 28,-52 28,-52 22,-52 16,-46 16,-40 16,-40 16,-28 16,-28 16,-22 22,-16 28,-16 28,-16 148,-16 148,-16 154,-16 160,-22 160,-28 160,-28 160,-40 160,-40 160,-46 154,-52 148,-52"/>
<text xml:space="preserve" text-anchor="middle" x="88" y="-36.15" font-family="Arial" font-size="8.00">2 product families</text>
<text xml:space="preserve" text-anchor="middle" x="88" y="-26.4" font-family="Arial" font-size="8.00">Graph diagnosis</text>
</g>
<!-- POC2 -->
<g id="node2" class="node">
<title>POC2</title>
<path fill="lightgrey" stroke="black" d="M365,-52C365,-52 245,-52 245,-52 239,-52 233,-46 233,-40 233,-40 233,-28 233,-28 233,-22 239,-16 245,-16 245,-16 365,-16 365,-16 371,-16 377,-22 377,-28 377,-28 377,-40 377,-40 377,-46 371,-52 365,-52"/>
<text xml:space="preserve" text-anchor="middle" x="305" y="-36.15" font-family="Arial" font-size="8.00">3 batch pipelines</text>
<text xml:space="preserve" text-anchor="middle" x="305" y="-26.4" font-family="Arial" font-size="8.00">ETL · smoke · promote</text>
</g>
<!-- POC1&#45;&gt;POC2 -->
<!-- POC3 -->
<g id="node3" class="node">
<title>POC3</title>
<path fill="lightgrey" stroke="black" d="M582,-52C582,-52 462,-52 462,-52 456,-52 450,-46 450,-40 450,-40 450,-28 450,-28 450,-22 456,-16 462,-16 462,-16 582,-16 582,-16 588,-16 594,-22 594,-28 594,-28 594,-40 594,-40 594,-46 588,-52 582,-52"/>
<text xml:space="preserve" text-anchor="middle" x="522" y="-36.15" font-family="Arial" font-size="8.00">Provenance v1</text>
<text xml:space="preserve" text-anchor="middle" x="522" y="-26.4" font-family="Arial" font-size="8.00">Agent dossier</text>
</g>
<!-- POC2&#45;&gt;POC3 -->
<!-- POC4 -->
<g id="node4" class="node">
<title>POC4</title>
<path fill="lightgrey" stroke="black" d="M799,-52C799,-52 679,-52 679,-52 673,-52 667,-46 667,-40 667,-40 667,-28 667,-28 667,-22 673,-16 679,-16 679,-16 799,-16 799,-16 805,-16 811,-22 811,-28 811,-28 811,-40 811,-40 811,-46 805,-52 799,-52"/>
<text xml:space="preserve" text-anchor="middle" x="739" y="-36.15" font-family="Arial" font-size="8.00">1 CRM read</text>
<text xml:space="preserve" text-anchor="middle" x="739" y="-26.4" font-family="Arial" font-size="8.00">integration</text>
</g>
<!-- POC3&#45;&gt;POC4 -->
<!-- PIL1 -->
<g id="node5" class="node">
<title>PIL1</title>
<path fill="lightgrey" stroke="black" d="M1056.25,-52C1056.25,-52 936.25,-52 936.25,-52 930.25,-52 924.25,-46 924.25,-40 924.25,-40 924.25,-28 924.25,-28 924.25,-22 930.25,-16 936.25,-16 936.25,-16 1056.25,-16 1056.25,-16 1062.25,-16 1068.25,-22 1068.25,-28 1068.25,-28 1068.25,-40 1068.25,-40 1068.25,-46 1062.25,-52 1056.25,-52"/>
<text xml:space="preserve" text-anchor="middle" x="996.25" y="-36.15" font-family="Arial" font-size="8.00">10–15 families</text>
<text xml:space="preserve" text-anchor="middle" x="996.25" y="-26.4" font-family="Arial" font-size="8.00">Scheduled ETL</text>
</g>
<!-- POC4&#45;&gt;PIL1 -->
<g id="edge10" class="edge">
<title>POC4&#45;&gt;PIL1</title>
<path fill="none" stroke="#2e75b6" stroke-width="2" d="M811.44,-34C842.84,-34 879.91,-34 912.5,-34"/>
<polygon fill="#2e75b6" stroke="#2e75b6" stroke-width="2" points="910.8,-37.5 920.8,-34 910.8,-30.5 910.8,-37.5"/>
<text xml:space="preserve" text-anchor="middle" x="867.62" y="-35.95" font-family="Arial" font-size="9.00">Go/No&#45;Go</text>
</g>
<!-- PIL2 -->
<g id="node6" class="node">
<title>PIL2</title>
<path fill="lightgrey" stroke="black" d="M1273.25,-52C1273.25,-52 1153.25,-52 1153.25,-52 1147.25,-52 1141.25,-46 1141.25,-40 1141.25,-40 1141.25,-28 1141.25,-28 1141.25,-22 1147.25,-16 1153.25,-16 1153.25,-16 1273.25,-16 1273.25,-16 1279.25,-16 1285.25,-22 1285.25,-28 1285.25,-28 1285.25,-40 1285.25,-40 1285.25,-46 1279.25,-52 1273.25,-52"/>
<text xml:space="preserve" text-anchor="middle" x="1213.25" y="-36.15" font-family="Arial" font-size="8.00">SSO + API</text>
<text xml:space="preserve" text-anchor="middle" x="1213.25" y="-26.4" font-family="Arial" font-size="8.00">Case write&#45;back</text>
</g>
<!-- PIL1&#45;&gt;PIL2 -->
<!-- PIL3 -->
<g id="node7" class="node">
<title>PIL3</title>
<path fill="lightgrey" stroke="black" d="M1490.25,-52C1490.25,-52 1370.25,-52 1370.25,-52 1364.25,-52 1358.25,-46 1358.25,-40 1358.25,-40 1358.25,-28 1358.25,-28 1358.25,-22 1364.25,-16 1370.25,-16 1370.25,-16 1490.25,-16 1490.25,-16 1496.25,-16 1502.25,-22 1502.25,-28 1502.25,-28 1502.25,-40 1502.25,-40 1502.25,-46 1496.25,-52 1490.25,-52"/>
<text xml:space="preserve" text-anchor="middle" x="1430.25" y="-36.15" font-family="Arial" font-size="8.00">Agent desktop</text>
<text xml:space="preserve" text-anchor="middle" x="1430.25" y="-26.4" font-family="Arial" font-size="8.00">embed</text>
</g>
<!-- PIL2&#45;&gt;PIL3 -->
<!-- PIL4 -->
<g id="node8" class="node">
<title>PIL4</title>
<path fill="lightgrey" stroke="black" d="M1707.25,-52C1707.25,-52 1587.25,-52 1587.25,-52 1581.25,-52 1575.25,-46 1575.25,-40 1575.25,-40 1575.25,-28 1575.25,-28 1575.25,-22 1581.25,-16 1587.25,-16 1587.25,-16 1707.25,-16 1707.25,-16 1713.25,-16 1719.25,-22 1719.25,-28 1719.25,-28 1719.25,-40 1719.25,-40 1719.25,-46 1713.25,-52 1707.25,-52"/>
<text xml:space="preserve" text-anchor="middle" x="1647.25" y="-36.15" font-family="Arial" font-size="8.00">Override logging</text>
<text xml:space="preserve" text-anchor="middle" x="1647.25" y="-26.4" font-family="Arial" font-size="8.00">KPI baseline</text>
</g>
<!-- PIL3&#45;&gt;PIL4 -->
<!-- PRD1 -->
<g id="node9" class="node">
<title>PRD1</title>
<path fill="lightgrey" stroke="black" d="M1964.5,-52C1964.5,-52 1844.5,-52 1844.5,-52 1838.5,-52 1832.5,-46 1832.5,-40 1832.5,-40 1832.5,-28 1832.5,-28 1832.5,-22 1838.5,-16 1844.5,-16 1844.5,-16 1964.5,-16 1964.5,-16 1970.5,-16 1976.5,-22 1976.5,-28 1976.5,-28 1976.5,-40 1976.5,-40 1976.5,-46 1970.5,-52 1964.5,-52"/>
<text xml:space="preserve" text-anchor="middle" x="1904.5" y="-36.15" font-family="Arial" font-size="8.00">100+ families</text>
<text xml:space="preserve" text-anchor="middle" x="1904.5" y="-26.4" font-family="Arial" font-size="8.00">Full connector suite</text>
</g>
<!-- PIL4&#45;&gt;PRD1 -->
<g id="edge11" class="edge">
<title>PIL4&#45;&gt;PRD1</title>
<path fill="none" stroke="#548235" stroke-width="2" d="M1719.69,-34C1751.09,-34 1788.16,-34 1820.75,-34"/>
<polygon fill="#548235" stroke="#548235" stroke-width="2" points="1819.05,-37.5 1829.05,-34 1819.05,-30.5 1819.05,-37.5"/>
<text xml:space="preserve" text-anchor="middle" x="1775.88" y="-35.95" font-family="Arial" font-size="9.00">Go/No&#45;Go</text>
</g>
<!-- PRD2 -->
<g id="node10" class="node">
<title>PRD2</title>
<path fill="lightgrey" stroke="black" d="M2181.5,-52C2181.5,-52 2061.5,-52 2061.5,-52 2055.5,-52 2049.5,-46 2049.5,-40 2049.5,-40 2049.5,-28 2049.5,-28 2049.5,-22 2055.5,-16 2061.5,-16 2061.5,-16 2181.5,-16 2181.5,-16 2187.5,-16 2193.5,-22 2193.5,-28 2193.5,-28 2193.5,-40 2193.5,-40 2193.5,-46 2187.5,-52 2181.5,-52"/>
<text xml:space="preserve" text-anchor="middle" x="2121.5" y="-36.15" font-family="Arial" font-size="8.00">14 pipelines</text>
<text xml:space="preserve" text-anchor="middle" x="2121.5" y="-26.4" font-family="Arial" font-size="8.00">SME governance</text>
</g>
<!-- PRD1&#45;&gt;PRD2 -->
<!-- PRD3 -->
<g id="node11" class="node">
<title>PRD3</title>
<path fill="lightgrey" stroke="black" d="M2398.5,-52C2398.5,-52 2278.5,-52 2278.5,-52 2272.5,-52 2266.5,-46 2266.5,-40 2266.5,-40 2266.5,-28 2266.5,-28 2266.5,-22 2272.5,-16 2278.5,-16 2278.5,-16 2398.5,-16 2398.5,-16 2404.5,-16 2410.5,-22 2410.5,-28 2410.5,-28 2410.5,-40 2410.5,-40 2410.5,-46 2404.5,-52 2398.5,-52"/>
<text xml:space="preserve" text-anchor="middle" x="2338.5" y="-36.15" font-family="Arial" font-size="8.00">HA Neo4j</text>
<text xml:space="preserve" text-anchor="middle" x="2338.5" y="-26.4" font-family="Arial" font-size="8.00">Omnichannel</text>
</g>
<!-- PRD2&#45;&gt;PRD3 -->
<!-- PRD4 -->
<g id="node12" class="node">
<title>PRD4</title>
<path fill="lightgrey" stroke="black" d="M2615.5,-52C2615.5,-52 2495.5,-52 2495.5,-52 2489.5,-52 2483.5,-46 2483.5,-40 2483.5,-40 2483.5,-28 2483.5,-28 2483.5,-22 2489.5,-16 2495.5,-16 2495.5,-16 2615.5,-16 2615.5,-16 2621.5,-16 2627.5,-22 2627.5,-28 2627.5,-28 2627.5,-40 2627.5,-40 2627.5,-46 2621.5,-52 2615.5,-52"/>
<text xml:space="preserve" text-anchor="middle" x="2555.5" y="-36.15" font-family="Arial" font-size="8.00">Regional rollout</text>
<text xml:space="preserve" text-anchor="middle" x="2555.5" y="-26.4" font-family="Arial" font-size="8.00">SOC2 alignment</text>
</g>
<!-- PRD3&#45;&gt;PRD4 -->
</g>
</svg>
