<?xml version="1.0" encoding="UTF-8" standalone="no"?>
<!DOCTYPE svg PUBLIC "-//W3C//DTD SVG 1.1//EN"
 "http://www.w3.org/Graphics/SVG/1.1/DTD/svg11.dtd">
<!-- Generated by graphviz version 14.1.5 (20260411.2331)
 -->
<!-- Title: L1_SystemContext Pages: 1 -->
<svg width="1897pt" height="448pt"
 viewBox="0.00 0.00 1897.00 448.00" xmlns="http://www.w3.org/2000/svg" xmlns:xlink="http://www.w3.org/1999/xlink">
<g id="graph0" class="graph" transform="scale(1 1) rotate(0) translate(36 411.7)">
<title>L1_SystemContext</title>
<polygon fill="white" stroke="none" points="-36,36 -36,-411.7 1861,-411.7 1861,36 -36,36"/>
<text xml:space="preserve" text-anchor="middle" x="912.5" y="-358.4" font-family="Arial" font-size="14.00">L1 System Context — Enterprise Warranty Diagnostics &amp; Claims Platform</text>
<text xml:space="preserve" text-anchor="middle" x="912.5" y="-342.65" font-family="Arial" font-size="14.00">(C4 Level 1 · connector&#45;based external boundaries)</text>
<g id="clust1" class="cluster">
<title>cluster_actors</title>
<polygon fill="white" stroke="#666666" stroke-dasharray="5,2" points="8,-233.1 8,-321.45 742,-321.45 742,-233.1 8,-233.1"/>
<text xml:space="preserve" text-anchor="middle" x="375" y="-304.15" font-family="Arial" font-size="14.00">Actors</text>
</g>
<g id="clust2" class="cluster">
<title>cluster_platform</title>
<polygon fill="white" stroke="#1f4e79" stroke-width="2" points="680,-8 680,-176.85 1008,-176.85 1008,-8 680,-8"/>
<text xml:space="preserve" text-anchor="middle" x="844" y="-159.55" font-family="Arial" font-size="14.00">Enterprise Diagnostics Platform (diagnostic&#45;chatbot)</text>
</g>
<g id="clust3" class="cluster">
<title>cluster_external</title>
<polygon fill="white" stroke="#666666" stroke-dasharray="5,2" points="750,-226.35 750,-328.2 1817,-328.2 1817,-226.35 750,-226.35"/>
<text xml:space="preserve" text-anchor="middle" x="1283.5" y="-310.9" font-family="Arial" font-size="14.00">External Enterprise Systems (Connector Targets)</text>
</g>
<!-- Customer -->
<g id="node1" class="node">
<title>Customer</title>
<path fill="#d5e8f0" stroke="black" d="M162.12,-289.7C162.12,-289.7 27.88,-289.7 27.88,-289.7 21.87,-289.7 15.88,-283.7 15.88,-277.7 15.88,-277.7 15.88,-253.1 15.88,-253.1 15.88,-247.1 21.88,-241.1 27.88,-241.1 27.88,-241.1 162.12,-241.1 162.12,-241.1 168.12,-241.1 174.12,-247.1 174.12,-253.1 174.12,-253.1 174.12,-277.7 174.12,-277.7 174.12,-283.7 168.12,-289.7 162.12,-289.7"/>
<text xml:space="preserve" text-anchor="middle" x="95" y="-268.45" font-family="Arial" font-size="11.00">Appliance Owner</text>
<text xml:space="preserve" text-anchor="middle" x="95" y="-254.95" font-family="Arial" font-size="11.00">(Web chat · claim submit)</text>
</g>
<!-- Platform -->
<g id="node5" class="node">
<title>Platform</title>
<path fill="#bdd7ee" stroke="black" stroke-width="2" d="M947.5,-145.1C947.5,-145.1 740.5,-145.1 740.5,-145.1 734.5,-145.1 728.5,-139.1 728.5,-133.1 728.5,-133.1 728.5,-28 728.5,-28 728.5,-22 734.5,-16 740.5,-16 740.5,-16 947.5,-16 947.5,-16 953.5,-16 959.5,-22 959.5,-28 959.5,-28 959.5,-133.1 959.5,-133.1 959.5,-139.1 953.5,-145.1 947.5,-145.1"/>
<text xml:space="preserve" text-anchor="middle" x="844" y="-123.85" font-family="Arial" font-size="11.00">Warranty Diagnostics Platform</text>
<text xml:space="preserve" text-anchor="middle" x="844" y="-97.35" font-family="Arial" font-size="11.00">• 13&#45;product OEM knowledge graph</text>
<text xml:space="preserve" text-anchor="middle" x="844" y="-83.85" font-family="Arial" font-size="11.00">• Dynamic NEXT_STEP diagnostic trees</text>
<text xml:space="preserve" text-anchor="middle" x="844" y="-70.35" font-family="Arial" font-size="11.00">• GraphRAG + parts predictor</text>
<text xml:space="preserve" text-anchor="middle" x="844" y="-56.85" font-family="Arial" font-size="11.00">• Warranty claim workflow</text>
<text xml:space="preserve" text-anchor="middle" x="844" y="-43.35" font-family="Arial" font-size="11.00">• Interactive graph visualization</text>
<text xml:space="preserve" text-anchor="middle" x="844" y="-29.85" font-family="Arial" font-size="11.00">• REST API (:8080) + Streamlit (:8501)</text>
</g>
<!-- Customer&#45;&gt;Platform -->
<g id="edge1" class="edge">
<title>Customer&#45;&gt;Platform</title>
<path fill="none" stroke="#444444" d="M145.59,-240.7C157.69,-235.55 170.67,-230.42 183,-226.35 364.33,-166.45 581.89,-124.24 716.56,-101.4"/>
<polygon fill="#444444" stroke="#444444" points="716.95,-104.89 726.23,-99.77 715.79,-97.98 716.95,-104.89"/>
<text xml:space="preserve" text-anchor="middle" x="334.32" y="-202.55" font-family="Arial" font-size="9.00">HTTPS :8501</text>
<text xml:space="preserve" text-anchor="middle" x="334.32" y="-192.05" font-family="Arial" font-size="9.00">chat + claim</text>
</g>
<!-- Agent -->
<g id="node2" class="node">
<title>Agent</title>
<path fill="#d5e8f0" stroke="black" d="M387.88,-289.7C387.88,-289.7 204.12,-289.7 204.12,-289.7 198.12,-289.7 192.12,-283.7 192.12,-277.7 192.12,-277.7 192.12,-253.1 192.12,-253.1 192.12,-247.1 198.12,-241.1 204.12,-241.1 204.12,-241.1 387.88,-241.1 387.88,-241.1 393.88,-241.1 399.88,-247.1 399.88,-253.1 399.88,-253.1 399.88,-277.7 399.88,-277.7 399.88,-283.7 393.88,-289.7 387.88,-289.7"/>
<text xml:space="preserve" text-anchor="middle" x="296" y="-268.45" font-family="Arial" font-size="11.00">Contact Center Agent</text>
<text xml:space="preserve" text-anchor="middle" x="296" y="-254.95" font-family="Arial" font-size="11.00">(Claims approve/deny · escalations)</text>
</g>
<!-- Agent&#45;&gt;Platform -->
<g id="edge2" class="edge">
<title>Agent&#45;&gt;Platform</title>
<path fill="none" stroke="#444444" d="M355.14,-240.7C396.84,-224.29 454.14,-202.34 505.25,-184.85 574.68,-161.1 653,-137.04 716.82,-118.13"/>
<polygon fill="#444444" stroke="#444444" points="717.7,-121.52 726.3,-115.32 715.72,-114.8 717.7,-121.52"/>
<text xml:space="preserve" text-anchor="middle" x="541.62" y="-202.55" font-family="Arial" font-size="9.00">HTTPS :8501</text>
<text xml:space="preserve" text-anchor="middle" x="541.62" y="-192.05" font-family="Arial" font-size="9.00">claims dashboard</text>
</g>
<!-- SME -->
<g id="node3" class="node">
<title>SME</title>
<path fill="#e8e8e8" stroke="black" d="M575.75,-289.7C575.75,-289.7 430.25,-289.7 430.25,-289.7 424.25,-289.7 418.25,-283.7 418.25,-277.7 418.25,-277.7 418.25,-253.1 418.25,-253.1 418.25,-247.1 424.25,-241.1 430.25,-241.1 430.25,-241.1 575.75,-241.1 575.75,-241.1 581.75,-241.1 587.75,-247.1 587.75,-253.1 587.75,-253.1 587.75,-277.7 587.75,-277.7 587.75,-283.7 581.75,-289.7 575.75,-289.7"/>
<text xml:space="preserve" text-anchor="middle" x="503" y="-268.45" font-family="Arial" font-size="11.00">Knowledge Engineer / SME</text>
<text xml:space="preserve" text-anchor="middle" x="503" y="-254.95" font-family="Arial" font-size="11.00">(Ontology governance)</text>
</g>
<!-- SME&#45;&gt;Platform -->
<g id="edge3" class="edge">
<title>SME&#45;&gt;Platform</title>
<path fill="none" stroke="#444444" d="M539.4,-240.61C564.93,-224.26 600.07,-202.42 632,-184.85 659.36,-169.8 689.22,-154.55 717.68,-140.55"/>
<polygon fill="#444444" stroke="#444444" points="718.88,-143.86 726.33,-136.32 715.8,-137.58 718.88,-143.86"/>
<text xml:space="preserve" text-anchor="middle" x="672.5" y="-202.55" font-family="Arial" font-size="9.00">Govern ontology /</text>
<text xml:space="preserve" text-anchor="middle" x="672.5" y="-192.05" font-family="Arial" font-size="9.00">INDICATES weights</text>
</g>
<!-- Ops -->
<g id="node4" class="node">
<title>Ops</title>
<path fill="#e8e8e8" stroke="black" d="M722.12,-283.4C722.12,-283.4 617.88,-283.4 617.88,-283.4 611.88,-283.4 605.88,-277.4 605.88,-271.4 605.88,-271.4 605.88,-259.4 605.88,-259.4 605.88,-253.4 611.88,-247.4 617.88,-247.4 617.88,-247.4 722.12,-247.4 722.12,-247.4 728.12,-247.4 734.12,-253.4 734.12,-259.4 734.12,-259.4 734.12,-271.4 734.12,-271.4 734.12,-277.4 728.12,-283.4 722.12,-283.4"/>
<text xml:space="preserve" text-anchor="middle" x="670" y="-261.7" font-family="Arial" font-size="11.00">ETL / Platform Ops</text>
</g>
<!-- Ops&#45;&gt;Platform -->
<g id="edge4" class="edge">
<title>Ops&#45;&gt;Platform</title>
<path fill="none" stroke="#444444" d="M686.37,-247.2C706.65,-225.88 742.51,-188.2 774.91,-154.16"/>
<polygon fill="#444444" stroke="#444444" points="777.22,-156.8 781.58,-147.15 772.15,-151.98 777.22,-156.8"/>
<text xml:space="preserve" text-anchor="middle" x="774.79" y="-202.55" font-family="Arial" font-size="9.00">ETL orchestrator</text>
<text xml:space="preserve" text-anchor="middle" x="774.79" y="-192.05" font-family="Arial" font-size="9.00">Bolt :7687 load</text>
</g>
<!-- CCaaS -->
<g id="node10" class="node">
<title>CCaaS</title>
<path fill="#e8e8e8" stroke="black" stroke-dasharray="5,2" d="M918.25,-289.7C918.25,-289.7 769.75,-289.7 769.75,-289.7 763.75,-289.7 757.75,-283.7 757.75,-277.7 757.75,-277.7 757.75,-253.1 757.75,-253.1 757.75,-247.1 763.75,-241.1 769.75,-241.1 769.75,-241.1 918.25,-241.1 918.25,-241.1 924.25,-241.1 930.25,-247.1 930.25,-253.1 930.25,-253.1 930.25,-277.7 930.25,-277.7 930.25,-283.7 924.25,-289.7 918.25,-289.7"/>
<text xml:space="preserve" text-anchor="middle" x="844" y="-268.45" font-family="Arial" font-size="11.00">CCaaS / Case Management</text>
<text xml:space="preserve" text-anchor="middle" x="844" y="-254.95" font-family="Arial" font-size="11.00">(case_management.py)</text>
</g>
<!-- Platform&#45;&gt;CCaaS -->
<g id="edge9" class="edge">
<title>Platform&#45;&gt;CCaaS</title>
<path fill="none" stroke="#444444" stroke-dasharray="5,2" d="M844,-145.86C844,-174.06 844,-206.04 844,-229.67"/>
<polygon fill="#444444" stroke="#444444" points="840.5,-229.36 844,-239.36 847.5,-229.36 840.5,-229.36"/>
<text xml:space="preserve" text-anchor="middle" x="881.88" y="-202.55" font-family="Arial" font-size="9.00">Escalation handoff</text>
<text xml:space="preserve" text-anchor="middle" x="881.88" y="-192.05" font-family="Arial" font-size="9.00">(production target)</text>
</g>
<!-- PIM -->
<g id="node6" class="node">
<title>PIM</title>
<path fill="#ededed" stroke="black" d="M1200,-296.45C1200,-296.45 960,-296.45 960,-296.45 954,-296.45 948,-290.45 948,-284.45 948,-284.45 948,-246.35 948,-246.35 948,-240.35 954,-234.35 960,-234.35 960,-234.35 1200,-234.35 1200,-234.35 1206,-234.35 1212,-240.35 1212,-246.35 1212,-246.35 1212,-284.45 1212,-284.45 1212,-290.45 1206,-296.45 1200,-296.45"/>
<text xml:space="preserve" text-anchor="middle" x="1080" y="-275.2" font-family="Arial" font-size="11.00">PIM / PLM Connector</text>
<text xml:space="preserve" text-anchor="middle" x="1080" y="-261.7" font-family="Arial" font-size="11.00">pim_connector.py</text>
<text xml:space="preserve" text-anchor="middle" x="1080" y="-248.2" font-family="Arial" font-size="11.00">Product · Model · SKU · BOM · OEM blueprints</text>
</g>
<!-- PIM&#45;&gt;Platform -->
<g id="edge5" class="edge">
<title>PIM&#45;&gt;Platform</title>
<path fill="none" stroke="#2e75b6" d="M1040.76,-234C1012.13,-211.81 972.1,-180.8 935.62,-152.54"/>
<polygon fill="#2e75b6" stroke="#2e75b6" points="938.17,-150.08 928.12,-146.72 933.88,-155.62 938.17,-150.08"/>
<text xml:space="preserve" text-anchor="middle" x="1062.46" y="-207.8" font-family="Arial" font-size="9.00">HTTP/JSON extract</text>
<text xml:space="preserve" text-anchor="middle" x="1062.46" y="-197.3" font-family="Arial" font-size="9.00">→ pim_blueprint_sync</text>
<text xml:space="preserve" text-anchor="middle" x="1062.46" y="-186.8" font-family="Arial" font-size="9.00">→ populate_graph</text>
</g>
<!-- CRM -->
<g id="node7" class="node">
<title>CRM</title>
<path fill="#ededed" stroke="black" d="M1428,-296.45C1428,-296.45 1242,-296.45 1242,-296.45 1236,-296.45 1230,-290.45 1230,-284.45 1230,-284.45 1230,-246.35 1230,-246.35 1230,-240.35 1236,-234.35 1242,-234.35 1242,-234.35 1428,-234.35 1428,-234.35 1434,-234.35 1440,-240.35 1440,-246.35 1440,-246.35 1440,-284.45 1440,-284.45 1440,-290.45 1434,-296.45 1428,-296.45"/>
<text xml:space="preserve" text-anchor="middle" x="1335" y="-275.2" font-family="Arial" font-size="11.00">CRM Connector</text>
<text xml:space="preserve" text-anchor="middle" x="1335" y="-261.7" font-family="Arial" font-size="11.00">crm_connector.py</text>
<text xml:space="preserve" text-anchor="middle" x="1335" y="-248.2" font-family="Arial" font-size="11.00">Customer · Asset · Serial · Warranty</text>
</g>
<!-- CRM&#45;&gt;Platform -->
<g id="edge6" class="edge">
<title>CRM&#45;&gt;Platform</title>
<path fill="none" stroke="#2e75b6" d="M1253.09,-233.9C1176.14,-205.24 1059.83,-161.93 970.88,-128.8"/>
<polygon fill="#2e75b6" stroke="#2e75b6" points="972.18,-125.55 961.59,-125.34 969.74,-132.11 972.18,-125.55"/>
<text xml:space="preserve" text-anchor="middle" x="1244.57" y="-202.55" font-family="Arial" font-size="9.00">HTTP/JSON runtime</text>
<text xml:space="preserve" text-anchor="middle" x="1244.57" y="-192.05" font-family="Arial" font-size="9.00">→ crm_enrichment</text>
</g>
<!-- ClaimsSys -->
<g id="node8" class="node">
<title>ClaimsSys</title>
<path fill="#ededed" stroke="black" d="M1595.62,-296.45C1595.62,-296.45 1470.38,-296.45 1470.38,-296.45 1464.38,-296.45 1458.38,-290.45 1458.38,-284.45 1458.38,-284.45 1458.38,-246.35 1458.38,-246.35 1458.38,-240.35 1464.38,-234.35 1470.38,-234.35 1470.38,-234.35 1595.62,-234.35 1595.62,-234.35 1601.62,-234.35 1607.62,-240.35 1607.62,-246.35 1607.62,-246.35 1607.62,-284.45 1607.62,-284.45 1607.62,-290.45 1601.62,-296.45 1595.62,-296.45"/>
<text xml:space="preserve" text-anchor="middle" x="1533" y="-275.2" font-family="Arial" font-size="11.00">Claims Connector</text>
<text xml:space="preserve" text-anchor="middle" x="1533" y="-261.7" font-family="Arial" font-size="11.00">claims_connector.py</text>
<text xml:space="preserve" text-anchor="middle" x="1533" y="-248.2" font-family="Arial" font-size="11.00">Policies · Closed claims</text>
</g>
<!-- ClaimsSys&#45;&gt;Platform -->
<g id="edge7" class="edge">
<title>ClaimsSys&#45;&gt;Platform</title>
<path fill="none" stroke="#2e75b6" d="M1468.79,-233.98C1462.17,-231.25 1455.49,-228.65 1449,-226.35 1288.16,-169.4 1095.43,-127.59 971.42,-103.93"/>
<polygon fill="#2e75b6" stroke="#2e75b6" points="972.35,-100.54 961.87,-102.12 971.05,-107.42 972.35,-100.54"/>
<text xml:space="preserve" text-anchor="middle" x="1468.35" y="-202.55" font-family="Arial" font-size="9.00">HTTP/JSON</text>
<text xml:space="preserve" text-anchor="middle" x="1468.35" y="-192.05" font-family="Arial" font-size="9.00">→ warranty + precedents</text>
</g>
<!-- FSM -->
<g id="node9" class="node">
<title>FSM</title>
<path fill="#ededed" stroke="black" d="M1796.5,-296.45C1796.5,-296.45 1637.5,-296.45 1637.5,-296.45 1631.5,-296.45 1625.5,-290.45 1625.5,-284.45 1625.5,-284.45 1625.5,-246.35 1625.5,-246.35 1625.5,-240.35 1631.5,-234.35 1637.5,-234.35 1637.5,-234.35 1796.5,-234.35 1796.5,-234.35 1802.5,-234.35 1808.5,-240.35 1808.5,-246.35 1808.5,-246.35 1808.5,-284.45 1808.5,-284.45 1808.5,-290.45 1802.5,-296.45 1796.5,-296.45"/>
<text xml:space="preserve" text-anchor="middle" x="1717" y="-275.2" font-family="Arial" font-size="11.00">FSM Connector</text>
<text xml:space="preserve" text-anchor="middle" x="1717" y="-261.7" font-family="Arial" font-size="11.00">fsm_connector.py</text>
<text xml:space="preserve" text-anchor="middle" x="1717" y="-248.2" font-family="Arial" font-size="11.00">Work orders · Field resolutions</text>
</g>
<!-- FSM&#45;&gt;Platform -->
<g id="edge8" class="edge">
<title>FSM&#45;&gt;Platform</title>
<path fill="none" stroke="#2e75b6" d="M1653.68,-233.95C1616.41,-217.17 1567.91,-197.28 1523,-184.85 1334.94,-132.79 1109.84,-105.08 971.91,-91.86"/>
<polygon fill="#2e75b6" stroke="#2e75b6" points="972.28,-88.38 962,-90.92 971.62,-95.34 972.28,-88.38"/>
<text xml:space="preserve" text-anchor="middle" x="1670.88" y="-202.55" font-family="Arial" font-size="9.00">HTTP/JSON</text>
<text xml:space="preserve" text-anchor="middle" x="1670.88" y="-192.05" font-family="Arial" font-size="9.00">→ HistoricalResolution merge</text>
</g>
</g>
</svg>
