<?xml version="1.0" encoding="UTF-8" standalone="no"?>
<!DOCTYPE svg PUBLIC "-//W3C//DTD SVG 1.1//EN"
 "http://www.w3.org/Graphics/SVG/1.1/DTD/svg11.dtd">
<!-- Generated by graphviz version 14.1.5 (20260411.2331)
 -->
<!-- Title: L2_Container Pages: 1 -->
<svg width="841pt" height="501pt"
 viewBox="0.00 0.00 841.00 501.00" xmlns="http://www.w3.org/2000/svg" xmlns:xlink="http://www.w3.org/1999/xlink">
<g id="graph0" class="graph" transform="scale(1 1) rotate(0) translate(4 496.5)">
<title>L2_Container</title>
<polygon fill="white" stroke="none" points="-4,4 -4,-496.5 837,-496.5 837,4 -4,4"/>
<text xml:space="preserve" text-anchor="middle" x="416.5" y="-475.2" font-family="Arial" font-size="14.00">L2 Container Diagram — Runtime Containers &amp; Integration Connectors</text>
<g id="clust1" class="cluster">
<title>cluster_platform</title>
<polygon fill="white" stroke="#1f4e79" stroke-width="2" points="8,-8 8,-397 825,-397 825,-8 8,-8"/>
<text xml:space="preserve" text-anchor="middle" x="416.5" y="-379.7" font-family="Arial" font-size="14.00">Diagnostics Platform Boundary</text>
</g>
<!-- Customer -->
<g id="node1" class="node">
<title>Customer</title>
<polygon fill="#d5e8f0" stroke="black" points="262.38,-468.75 203.62,-468.75 203.62,-432.75 262.38,-432.75 262.38,-468.75"/>
<text xml:space="preserve" text-anchor="middle" x="233" y="-447.25" font-family="Arial" font-size="10.00">Customer</text>
</g>
<!-- Streamlit -->
<g id="node3" class="node">
<title>Streamlit</title>
<path fill="#bdd7ee" stroke="black" d="M415,-365.25C415,-365.25 249,-365.25 249,-365.25 243,-365.25 237,-359.25 237,-353.25 237,-353.25 237,-333.25 237,-333.25 237,-327.25 243,-321.25 249,-321.25 249,-321.25 415,-321.25 415,-321.25 421,-321.25 427,-327.25 427,-333.25 427,-333.25 427,-353.25 427,-353.25 427,-359.25 421,-365.25 415,-365.25"/>
<text xml:space="preserve" text-anchor="middle" x="332" y="-351.75" font-family="Arial" font-size="10.00">Streamlit UI · ui/app.py</text>
<text xml:space="preserve" text-anchor="middle" x="332" y="-339.75" font-family="Arial" font-size="10.00">:8501</text>
<text xml:space="preserve" text-anchor="middle" x="332" y="-327.75" font-family="Arial" font-size="10.00">Chat · Claims · KG Explorer · Graph viz</text>
</g>
<!-- Customer&#45;&gt;Streamlit -->
<g id="edge1" class="edge">
<title>Customer&#45;&gt;Streamlit</title>
<path fill="none" stroke="#2e75b6" d="M249.35,-432.33C264.21,-416.49 286.44,-392.8 304.11,-373.97"/>
<polygon fill="#2e75b6" stroke="#2e75b6" points="306.54,-376.5 310.83,-366.81 301.43,-371.71 306.54,-376.5"/>
<text xml:space="preserve" text-anchor="middle" x="287.13" y="-407.15" font-family="Arial" font-size="8.00">HTTPS</text>
</g>
<!-- FastAPI -->
<g id="node4" class="node">
<title>FastAPI</title>
<path fill="#bdd7ee" stroke="black" d="M200.12,-365.25C200.12,-365.25 37.87,-365.25 37.87,-365.25 31.87,-365.25 25.88,-359.25 25.88,-353.25 25.88,-353.25 25.88,-333.25 25.88,-333.25 25.88,-327.25 31.88,-321.25 37.88,-321.25 37.88,-321.25 200.12,-321.25 200.12,-321.25 206.12,-321.25 212.12,-327.25 212.12,-333.25 212.12,-333.25 212.12,-353.25 212.12,-353.25 212.12,-359.25 206.12,-365.25 200.12,-365.25"/>
<text xml:space="preserve" text-anchor="middle" x="119" y="-351.75" font-family="Arial" font-size="10.00">Diagnostics API · api/main.py</text>
<text xml:space="preserve" text-anchor="middle" x="119" y="-339.75" font-family="Arial" font-size="10.00">:8080</text>
<text xml:space="preserve" text-anchor="middle" x="119" y="-327.75" font-family="Arial" font-size="10.00">/diagnose · /claims/* · /graph/* · /health</text>
</g>
<!-- Customer&#45;&gt;FastAPI -->
<g id="edge3" class="edge">
<title>Customer&#45;&gt;FastAPI</title>
<path fill="none" stroke="#2e75b6" stroke-dasharray="5,2" d="M214.18,-432.33C196.91,-416.35 171,-392.37 150.57,-373.46"/>
<polygon fill="#2e75b6" stroke="#2e75b6" points="153.02,-370.96 143.3,-366.74 148.26,-376.1 153.02,-370.96"/>
<text xml:space="preserve" text-anchor="middle" x="218.37" y="-407.15" font-family="Arial" font-size="8.00">HTTPS/REST</text>
</g>
<!-- Agent -->
<g id="node2" class="node">
<title>Agent</title>
<polygon fill="#d5e8f0" stroke="black" points="359,-468.75 305,-468.75 305,-432.75 359,-432.75 359,-468.75"/>
<text xml:space="preserve" text-anchor="middle" x="332" y="-447.25" font-family="Arial" font-size="10.00">Agent</text>
</g>
<!-- Agent&#45;&gt;Streamlit -->
<g id="edge2" class="edge">
<title>Agent&#45;&gt;Streamlit</title>
<path fill="none" stroke="#2e75b6" d="M332,-432.33C332,-417.35 332,-395.34 332,-377.07"/>
<polygon fill="#2e75b6" stroke="#2e75b6" points="335.5,-377.22 332,-367.22 328.5,-377.22 335.5,-377.22"/>
<text xml:space="preserve" text-anchor="middle" x="345.5" y="-407.15" font-family="Arial" font-size="8.00">HTTPS</text>
</g>
<!-- LangGraph -->
<g id="node5" class="node">
<title>LangGraph</title>
<path fill="#c6e0b4" stroke="black" d="M221.12,-261.75C221.12,-261.75 112.88,-261.75 112.88,-261.75 106.88,-261.75 100.88,-255.75 100.88,-249.75 100.88,-249.75 100.88,-237.75 100.88,-237.75 100.88,-231.75 106.88,-225.75 112.88,-225.75 112.88,-225.75 221.12,-225.75 221.12,-225.75 227.12,-225.75 233.12,-231.75 233.12,-237.75 233.12,-237.75 233.12,-249.75 233.12,-249.75 233.12,-255.75 227.12,-261.75 221.12,-261.75"/>
<text xml:space="preserve" text-anchor="middle" x="167" y="-246.25" font-family="Arial" font-size="10.00">LangGraph Agent</text>
<text xml:space="preserve" text-anchor="middle" x="167" y="-234.25" font-family="Arial" font-size="10.00">agents/diagnosis_graph.py</text>
</g>
<!-- Streamlit&#45;&gt;LangGraph -->
<g id="edge4" class="edge">
<title>Streamlit&#45;&gt;LangGraph</title>
<path fill="none" stroke="#2e75b6" d="M302.41,-320.97C285.86,-309.42 264.66,-295.21 245,-283.75 235.29,-278.09 224.65,-272.43 214.44,-267.25"/>
<polygon fill="#2e75b6" stroke="#2e75b6" points="216.28,-264.26 205.77,-262.92 213.15,-270.52 216.28,-264.26"/>
<text xml:space="preserve" text-anchor="middle" x="302.12" y="-295.65" font-family="Arial" font-size="8.00">Python import</text>
<text xml:space="preserve" text-anchor="middle" x="302.12" y="-285.9" font-family="Arial" font-size="8.00">run_diagnosis()</text>
</g>
<!-- ClaimsWF -->
<g id="node7" class="node">
<title>ClaimsWF</title>
<path fill="#ffe699" stroke="black" d="M419,-265.75C419,-265.75 265,-265.75 265,-265.75 259,-265.75 253,-259.75 253,-253.75 253,-253.75 253,-233.75 253,-233.75 253,-227.75 259,-221.75 265,-221.75 265,-221.75 419,-221.75 419,-221.75 425,-221.75 431,-227.75 431,-233.75 431,-233.75 431,-253.75 431,-253.75 431,-259.75 425,-265.75 419,-265.75"/>
<text xml:space="preserve" text-anchor="middle" x="342" y="-252.25" font-family="Arial" font-size="10.00">Claims Workflow</text>
<text xml:space="preserve" text-anchor="middle" x="342" y="-240.25" font-family="Arial" font-size="10.00">claims_workflow · warranty_eligibility</text>
<text xml:space="preserve" text-anchor="middle" x="342" y="-228.25" font-family="Arial" font-size="10.00">crm_enrichment · case_management</text>
</g>
<!-- Streamlit&#45;&gt;ClaimsWF -->
<g id="edge5" class="edge">
<title>Streamlit&#45;&gt;ClaimsWF</title>
<path fill="none" stroke="#2e75b6" d="M334.17,-321.09C335.47,-308.4 337.15,-292 338.63,-277.65"/>
<polygon fill="#2e75b6" stroke="#2e75b6" points="342.11,-278.01 339.65,-267.71 335.14,-277.3 342.11,-278.01"/>
<text xml:space="preserve" text-anchor="middle" x="393.02" y="-290.77" font-family="Arial" font-size="8.00">submit_claim_from_diagnosis()</text>
</g>
<!-- MockAPI -->
<g id="node10" class="node">
<title>MockAPI</title>
<path fill="#e7e6e6" stroke="black" d="M681,-172C681,-172 503,-172 503,-172 497,-172 491,-166 491,-160 491,-160 491,-148 491,-148 491,-142 497,-136 503,-136 503,-136 681,-136 681,-136 687,-136 693,-142 693,-148 693,-148 693,-160 693,-160 693,-166 687,-172 681,-172"/>
<text xml:space="preserve" text-anchor="middle" x="592" y="-156.5" font-family="Arial" font-size="10.00">Mock Enterprise API</text>
<text xml:space="preserve" text-anchor="middle" x="592" y="-144.5" font-family="Arial" font-size="10.00">simulation/mock_enterprise_apps.py :8090</text>
</g>
<!-- Streamlit&#45;&gt;MockAPI -->
<g id="edge18" class="edge">
<title>Streamlit&#45;&gt;MockAPI</title>
<path fill="none" stroke="#2e75b6" stroke-dasharray="5,2" d="M427.23,-322.54C436.54,-317.49 445.08,-311.17 452,-303.25 476.21,-275.52 445.06,-251.49 466.75,-221.75 481.23,-201.9 503.43,-187.39 525.14,-177.06"/>
<polygon fill="#2e75b6" stroke="#2e75b6" points="526.31,-180.37 534,-173.09 523.45,-173.99 526.31,-180.37"/>
<text xml:space="preserve" text-anchor="middle" x="499.38" y="-241.03" font-family="Arial" font-size="8.00">HTTP CRM :8090</text>
</g>
<!-- FastAPI&#45;&gt;LangGraph -->
<g id="edge6" class="edge">
<title>FastAPI&#45;&gt;LangGraph</title>
<path fill="none" stroke="#2e75b6" d="M89.84,-320.79C78.58,-309.82 70.13,-296.19 78.25,-283.75 82.17,-277.74 87.26,-272.65 93,-268.34"/>
<polygon fill="#2e75b6" stroke="#2e75b6" points="94.73,-271.38 101.23,-263.01 90.93,-265.51 94.73,-271.38"/>
<text xml:space="preserve" text-anchor="middle" x="107.12" y="-290.77" font-family="Arial" font-size="8.00">POST /diagnose</text>
</g>
<!-- GraphRAG -->
<g id="node6" class="node">
<title>GraphRAG</title>
<path fill="#c6e0b4" stroke="black" d="M176.38,-176C176.38,-176 27.63,-176 27.63,-176 21.62,-176 15.62,-170 15.62,-164 15.62,-164 15.62,-144 15.62,-144 15.62,-138 21.62,-132 27.62,-132 27.62,-132 176.38,-132 176.38,-132 182.38,-132 188.38,-138 188.38,-144 188.38,-144 188.38,-164 188.38,-164 188.38,-170 182.38,-176 176.38,-176"/>
<text xml:space="preserve" text-anchor="middle" x="102" y="-162.5" font-family="Arial" font-size="10.00">GraphRAG Stack</text>
<text xml:space="preserve" text-anchor="middle" x="102" y="-150.5" font-family="Arial" font-size="10.00">graph_rag · diagnostic_engine</text>
<text xml:space="preserve" text-anchor="middle" x="102" y="-138.5" font-family="Arial" font-size="10.00">parts_predictor · graph_visualization</text>
</g>
<!-- FastAPI&#45;&gt;GraphRAG -->
<g id="edge8" class="edge">
<title>FastAPI&#45;&gt;GraphRAG</title>
<path fill="none" stroke="#2e75b6" stroke-dasharray="5,2" d="M87.45,-320.9C70.81,-307.41 52.44,-288.28 45.5,-265.75 39.75,-247.06 38.77,-240.11 45.5,-221.75 50.53,-208.03 59.76,-195.19 69.33,-184.5"/>
<polygon fill="#2e75b6" stroke="#2e75b6" points="71.61,-187.18 75.96,-177.52 66.54,-182.36 71.61,-187.18"/>
<text xml:space="preserve" text-anchor="middle" x="68.75" y="-241.03" font-family="Arial" font-size="8.00">GET /graph/*</text>
</g>
<!-- FastAPI&#45;&gt;ClaimsWF -->
<g id="edge7" class="edge">
<title>FastAPI&#45;&gt;ClaimsWF</title>
<path fill="none" stroke="#2e75b6" d="M126.86,-321.02C132.66,-308.29 141.8,-292.86 154.75,-283.75 184.55,-262.8 200.55,-271.99 241.35,-265.6"/>
<polygon fill="#2e75b6" stroke="#2e75b6" points="241.89,-269.05 251.1,-263.81 240.64,-262.17 241.89,-269.05"/>
<text xml:space="preserve" text-anchor="middle" x="197.88" y="-290.77" font-family="Arial" font-size="8.00">/claims/* · PATCH status</text>
</g>
<!-- LangGraph&#45;&gt;GraphRAG -->
<g id="edge9" class="edge">
<title>LangGraph&#45;&gt;GraphRAG</title>
<path fill="none" stroke="#2e75b6" d="M154.16,-225.41C145.68,-213.97 134.35,-198.67 124.41,-185.25"/>
<polygon fill="#2e75b6" stroke="#2e75b6" points="127.47,-183.5 118.7,-177.55 121.84,-187.67 127.47,-183.5"/>
</g>
<!-- JSONStore -->
<g id="node12" class="node">
<title>JSONStore</title>
<polygon fill="#fff2cc" stroke="black" points="466.5,-176 309.5,-176 309.5,-132 472.5,-132 472.5,-170 466.5,-176"/>
<polyline fill="none" stroke="black" points="466.5,-176 466.5,-170"/>
<polyline fill="none" stroke="black" points="472.5,-170 466.5,-170"/>
<text xml:space="preserve" text-anchor="middle" x="391" y="-162.5" font-family="Arial" font-size="10.00">JSON Stores</text>
<text xml:space="preserve" text-anchor="middle" x="391" y="-150.5" font-family="Arial" font-size="10.00">escalations · claims_submissions</text>
<text xml:space="preserve" text-anchor="middle" x="391" y="-138.5" font-family="Arial" font-size="10.00">lineage · simulated_cases</text>
</g>
<!-- LangGraph&#45;&gt;JSONStore -->
<g id="edge13" class="edge">
<title>LangGraph&#45;&gt;JSONStore</title>
<path fill="none" stroke="#2e75b6" d="M211.52,-225.31C244.15,-212.53 288.97,-194.97 325.65,-180.6"/>
<polygon fill="#2e75b6" stroke="#2e75b6" points="326.82,-183.9 334.85,-177 324.26,-177.39 326.82,-183.9"/>
<text xml:space="preserve" text-anchor="middle" x="313.47" y="-196.15" font-family="Arial" font-size="8.00">escalations.json</text>
</g>
<!-- Neo4j -->
<g id="node11" class="node">
<title>Neo4j</title>
<path fill="#fce4d6" stroke="black" d="M328.75,-71C328.75,-74.03 281.8,-76.5 224,-76.5 166.2,-76.5 119.25,-74.03 119.25,-71 119.25,-71 119.25,-21.5 119.25,-21.5 119.25,-18.47 166.2,-16 224,-16 281.8,-16 328.75,-18.47 328.75,-21.5 328.75,-21.5 328.75,-71 328.75,-71"/>
<path fill="none" stroke="black" d="M328.75,-71C328.75,-67.97 281.8,-65.5 224,-65.5 166.2,-65.5 119.25,-67.97 119.25,-71"/>
<text xml:space="preserve" text-anchor="middle" x="224" y="-54.75" font-family="Arial" font-size="10.00">Neo4j Knowledge Graph</text>
<text xml:space="preserve" text-anchor="middle" x="224" y="-42.75" font-family="Arial" font-size="10.00">Bolt :7687 · Browser :7474</text>
<text xml:space="preserve" text-anchor="middle" x="224" y="-30.75" font-family="Arial" font-size="10.00">13 products · 8 assets · Claims · BOM trees</text>
</g>
<!-- GraphRAG&#45;&gt;Neo4j -->
<g id="edge10" class="edge">
<title>GraphRAG&#45;&gt;Neo4j</title>
<path fill="none" stroke="#2e75b6" d="M126.69,-131.6C142.51,-117.89 163.45,-99.74 181.85,-83.78"/>
<polygon fill="#2e75b6" stroke="#2e75b6" points="183.69,-86.82 188.96,-77.62 179.11,-81.53 183.69,-86.82"/>
<text xml:space="preserve" text-anchor="middle" x="189.16" y="-106.4" font-family="Arial" font-size="8.00">Bolt driver</text>
<text xml:space="preserve" text-anchor="middle" x="189.16" y="-96.65" font-family="Arial" font-size="8.00">Cypher read</text>
</g>
<!-- ClaimsWF&#45;&gt;MockAPI -->
<g id="edge19" class="edge">
<title>ClaimsWF&#45;&gt;MockAPI</title>
<path fill="none" stroke="#2e75b6" stroke-dasharray="5,2" d="M368.27,-221.4C381.34,-211.75 397.77,-200.97 414,-194 422.17,-190.49 457.48,-182.55 494.53,-174.74"/>
<polygon fill="#2e75b6" stroke="#2e75b6" points="494.97,-178.22 504.04,-172.74 493.54,-171.37 494.97,-178.22"/>
<text xml:space="preserve" text-anchor="middle" x="438" y="-196.15" font-family="Arial" font-size="8.00">HTTP Claims</text>
</g>
<!-- ClaimsWF&#45;&gt;Neo4j -->
<g id="edge11" class="edge">
<title>ClaimsWF&#45;&gt;Neo4j</title>
<path fill="none" stroke="#2e75b6" d="M286.16,-221.33C266.18,-210.78 245.63,-195.93 233.5,-176 217.62,-149.89 215.96,-115.08 217.88,-88.24"/>
<polygon fill="#2e75b6" stroke="#2e75b6" points="221.35,-88.69 218.79,-78.41 214.38,-88.04 221.35,-88.69"/>
<text xml:space="preserve" text-anchor="middle" x="267.25" y="-151.28" font-family="Arial" font-size="8.00">Bolt MERGE Claim</text>
</g>
<!-- ClaimsWF&#45;&gt;JSONStore -->
<g id="edge12" class="edge">
<title>ClaimsWF&#45;&gt;JSONStore</title>
<path fill="none" stroke="#2e75b6" d="M346.17,-221.55C348.45,-212.69 351.79,-202.49 356.5,-194 358.16,-191.01 360.08,-188.06 362.15,-185.19"/>
<polygon fill="#2e75b6" stroke="#2e75b6" points="364.71,-187.6 368.18,-177.59 359.22,-183.25 364.71,-187.6"/>
<text xml:space="preserve" text-anchor="middle" x="367.75" y="-196.15" font-family="Arial" font-size="8.00">file I/O</text>
</g>
<!-- ETL -->
<g id="node8" class="node">
<title>ETL</title>
<path fill="#ffd966" stroke="black" d="M798.62,-265.75C798.62,-265.75 657.38,-265.75 657.38,-265.75 651.38,-265.75 645.38,-259.75 645.38,-253.75 645.38,-253.75 645.38,-233.75 645.38,-233.75 645.38,-227.75 651.38,-221.75 657.38,-221.75 657.38,-221.75 798.62,-221.75 798.62,-221.75 804.62,-221.75 810.62,-227.75 810.62,-233.75 810.62,-233.75 810.62,-253.75 810.62,-253.75 810.62,-259.75 804.62,-265.75 798.62,-265.75"/>
<text xml:space="preserve" text-anchor="middle" x="728" y="-252.25" font-family="Arial" font-size="10.00">ETL Orchestrator</text>
<text xml:space="preserve" text-anchor="middle" x="728" y="-240.25" font-family="Arial" font-size="10.00">enterprise_pipeline/orchestrator.py</text>
<text xml:space="preserve" text-anchor="middle" x="728" y="-228.25" font-family="Arial" font-size="10.00">knowledge_etl · smoke · promote</text>
</g>
<!-- ETL&#45;&gt;MockAPI -->
<g id="edge16" class="edge">
<title>ETL&#45;&gt;MockAPI</title>
<path fill="none" stroke="#2e75b6" d="M674.38,-221.45C663.63,-216.27 652.67,-210.32 643,-203.75 633.22,-197.11 623.57,-188.55 615.34,-180.46"/>
<polygon fill="#2e75b6" stroke="#2e75b6" points="617.89,-178.07 608.39,-173.38 612.9,-182.97 617.89,-178.07"/>
<text xml:space="preserve" text-anchor="middle" x="683.5" y="-196.15" font-family="Arial" font-size="8.00">HTTP GET connectors</text>
</g>
<!-- ETL&#45;&gt;Neo4j -->
<g id="edge15" class="edge">
<title>ETL&#45;&gt;Neo4j</title>
<path fill="none" stroke="#2e75b6" d="M729.83,-221.45C730.72,-195.91 727.77,-153.83 702,-132 648.71,-86.87 464.14,-64.66 340.57,-54.6"/>
<polygon fill="#2e75b6" stroke="#2e75b6" points="340.93,-51.12 330.69,-53.81 340.38,-58.1 340.93,-51.12"/>
<text xml:space="preserve" text-anchor="middle" x="769.76" y="-151.28" font-family="Arial" font-size="8.00">populate_graph MERGE</text>
</g>
<!-- PIMSync -->
<g id="node9" class="node">
<title>PIMSync</title>
<path fill="#ffd966" stroke="black" d="M698.12,-365.25C698.12,-365.25 523.88,-365.25 523.88,-365.25 517.88,-365.25 511.88,-359.25 511.88,-353.25 511.88,-353.25 511.88,-333.25 511.88,-333.25 511.88,-327.25 517.88,-321.25 523.88,-321.25 523.88,-321.25 698.12,-321.25 698.12,-321.25 704.12,-321.25 710.12,-327.25 710.12,-333.25 710.12,-333.25 710.12,-353.25 710.12,-353.25 710.12,-359.25 704.12,-365.25 698.12,-365.25"/>
<text xml:space="preserve" text-anchor="middle" x="611" y="-351.75" font-family="Arial" font-size="10.00">PIM Blueprint Sync</text>
<text xml:space="preserve" text-anchor="middle" x="611" y="-339.75" font-family="Arial" font-size="10.00">pim_blueprint_sync.py</text>
<text xml:space="preserve" text-anchor="middle" x="611" y="-327.75" font-family="Arial" font-size="10.00">oem_product_catalog → pim_catalog.json</text>
</g>
<!-- PIMSync&#45;&gt;ETL -->
<g id="edge17" class="edge">
<title>PIMSync&#45;&gt;ETL</title>
<path fill="none" stroke="#2e75b6" stroke-dasharray="5,2" d="M636.68,-320.85C653.44,-306.88 675.52,-288.48 693.77,-273.27"/>
<polygon fill="#2e75b6" stroke="#2e75b6" points="695.78,-276.16 701.22,-267.07 691.3,-270.78 695.78,-276.16"/>
<text xml:space="preserve" text-anchor="middle" x="709.98" y="-290.77" font-family="Arial" font-size="8.00">feeds PIM fixture</text>
</g>
<!-- PIMSync&#45;&gt;JSONStore -->
<g id="edge14" class="edge">
<title>PIMSync&#45;&gt;JSONStore</title>
<path fill="none" stroke="#2e75b6" d="M602.34,-320.9C590.72,-294.54 567.79,-249.78 536,-221.75 516.54,-204.58 491.91,-191.05 468.5,-180.78"/>
<polygon fill="#2e75b6" stroke="#2e75b6" points="470.18,-177.69 459.61,-177.02 467.46,-184.14 470.18,-177.69"/>
<text xml:space="preserve" text-anchor="middle" x="601.52" y="-241.03" font-family="Arial" font-size="8.00">pim_catalog.json</text>
</g>
</g>
</svg>
