<?xml version="1.0" encoding="UTF-8" standalone="no"?>
<!DOCTYPE svg PUBLIC "-//W3C//DTD SVG 1.1//EN"
 "http://www.w3.org/Graphics/SVG/1.1/DTD/svg11.dtd">
<!-- Generated by graphviz version 14.1.5 (20260411.2331)
 -->
<!-- Title: L3_Component Pages: 1 -->
<svg width="2181pt" height="824pt"
 viewBox="0.00 0.00 2181.00 824.00" xmlns="http://www.w3.org/2000/svg" xmlns:xlink="http://www.w3.org/1999/xlink">
<g id="graph0" class="graph" transform="scale(1 1) rotate(0) translate(4 820.06)">
<title>L3_Component</title>
<polygon fill="white" stroke="none" points="-4,4 -4,-820.06 2177,-820.06 2177,4 -4,4"/>
<g id="clust1" class="cluster">
<title>cluster_ui</title>
<polygon fill="none" stroke="#1565c0" stroke-dasharray="5,2" points="954,-734.81 954,-808.06 1683,-808.06 1683,-734.81 954,-734.81"/>
<text xml:space="preserve" text-anchor="middle" x="1318.5" y="-793.61" font-family="Helvetica,sans-Serif" font-size="11.00">Streamlit UI (ui/app.py)</text>
</g>
<g id="clust2" class="cluster">
<title>cluster_api</title>
<polygon fill="none" stroke="#2e7d32" stroke-dasharray="5,2" points="964,-629.31 964,-702.56 1524,-702.56 1524,-629.31 964,-629.31"/>
<text xml:space="preserve" text-anchor="middle" x="1244" y="-688.11" font-family="Helvetica,sans-Serif" font-size="11.00">FastAPI (api/main.py)</text>
</g>
<g id="clust3" class="cluster">
<title>cluster_agent</title>
<polygon fill="none" stroke="#6a1b9a" stroke-dasharray="5,2" points="502,-228.06 502,-597.06 798,-597.06 798,-228.06 502,-228.06"/>
<text xml:space="preserve" text-anchor="middle" x="650" y="-582.61" font-family="Helvetica,sans-Serif" font-size="11.00">LangGraph Agent (agents/)</text>
</g>
<g id="clust4" class="cluster">
<title>cluster_graphrag</title>
<polygon fill="none" stroke="#e65100" stroke-dasharray="5,2" points="8,-8.91 8,-186.06 824,-186.06 824,-8.91 8,-8.91"/>
<text xml:space="preserve" text-anchor="middle" x="416" y="-171.61" font-family="Helvetica,sans-Serif" font-size="11.00">GraphRAG + Diagnosis Engine (graph/)</text>
</g>
<g id="clust5" class="cluster">
<title>cluster_integrations</title>
<polygon fill="none" stroke="#00838f" stroke-dasharray="5,2" points="840,-114.06 840,-186.06 1209,-186.06 1209,-114.06 840,-114.06"/>
<text xml:space="preserve" text-anchor="middle" x="1024.5" y="-171.61" font-family="Helvetica,sans-Serif" font-size="11.00">Integrations (integrations/)</text>
</g>
<g id="clust6" class="cluster">
<title>cluster_etl</title>
<polygon fill="none" stroke="#5d4037" stroke-dasharray="5,2" points="1423,-114.06 1423,-392.31 2165,-392.31 2165,-114.06 1423,-114.06"/>
<text xml:space="preserve" text-anchor="middle" x="1794" y="-377.86" font-family="Helvetica,sans-Serif" font-size="11.00">Enterprise ETL (graph/enterprise_pipeline/)</text>
</g>
<g id="clust7" class="cluster">
<title>cluster_mock</title>
<polygon fill="none" stroke="#455a64" stroke-dasharray="5,2" points="1827,-8.91 1827,-80.91 1991,-80.91 1991,-8.91 1827,-8.91"/>
<text xml:space="preserve" text-anchor="middle" x="1909" y="-66.46" font-family="Helvetica,sans-Serif" font-size="11.00">Mock Enterprise (simulation/)</text>
</g>
<g id="clust8" class="cluster">
<title>cluster_data</title>
<polygon fill="none" stroke="#37474f" stroke-dasharray="5,2" points="866,-8 866,-81.81 1197,-81.81 1197,-8 866,-8"/>
<text xml:space="preserve" text-anchor="middle" x="1031.5" y="-67.36" font-family="Helvetica,sans-Serif" font-size="11.00">Data Stores</text>
</g>
<!-- ui_chat -->
<g id="node1" class="node">
<title>ui_chat</title>
<path fill="white" stroke="black" d="M1067.62,-779.44C1067.62,-779.44 974.38,-779.44 974.38,-779.44 968.38,-779.44 962.38,-773.44 962.38,-767.44 962.38,-767.44 962.38,-755.44 962.38,-755.44 962.38,-749.44 968.38,-743.44 974.38,-743.44 974.38,-743.44 1067.62,-743.44 1067.62,-743.44 1073.62,-743.44 1079.62,-749.44 1079.62,-755.44 1079.62,-755.44 1079.62,-767.44 1079.62,-767.44 1079.62,-773.44 1073.62,-779.44 1067.62,-779.44"/>
<text xml:space="preserve" text-anchor="middle" x="1021" y="-762.64" font-family="Helvetica,sans-Serif" font-size="9.00">Chat tab</text>
<text xml:space="preserve" text-anchor="middle" x="1021" y="-752.89" font-family="Helvetica,sans-Serif" font-size="9.00">LangGraph + GraphRAG</text>
</g>
<!-- api_diag -->
<g id="node6" class="node">
<title>api_diag</title>
<path fill="white" stroke="black" d="M1042.38,-673.94C1042.38,-673.94 983.62,-673.94 983.62,-673.94 977.62,-673.94 971.62,-667.94 971.62,-661.94 971.62,-661.94 971.62,-649.94 971.62,-649.94 971.62,-643.94 977.62,-637.94 983.62,-637.94 983.62,-637.94 1042.38,-637.94 1042.38,-637.94 1048.38,-637.94 1054.38,-643.94 1054.38,-649.94 1054.38,-649.94 1054.38,-661.94 1054.38,-661.94 1054.38,-667.94 1048.38,-673.94 1042.38,-673.94"/>
<text xml:space="preserve" text-anchor="middle" x="1013" y="-652.26" font-family="Helvetica,sans-Serif" font-size="9.00">POST /diagnose</text>
</g>
<!-- ui_chat&#45;&gt;api_diag -->
<g id="edge1" class="edge">
<title>ui_chat&#45;&gt;api_diag</title>
<path fill="none" stroke="#37474f" d="M1013,-743.06C1013,-743.06 1013,-685.62 1013,-685.62"/>
<polygon fill="#37474f" stroke="#37474f" points="1016.5,-685.62 1013,-675.62 1009.5,-685.62 1016.5,-685.62"/>
<text xml:space="preserve" text-anchor="middle" x="1026.38" y="-712.16" font-family="Helvetica,sans-Serif" font-size="7.00">HTTP</text>
</g>
<!-- ui_claims -->
<g id="node2" class="node">
<title>ui_claims</title>
<path fill="white" stroke="black" d="M1210.25,-779.44C1210.25,-779.44 1123.75,-779.44 1123.75,-779.44 1117.75,-779.44 1111.75,-773.44 1111.75,-767.44 1111.75,-767.44 1111.75,-755.44 1111.75,-755.44 1111.75,-749.44 1117.75,-743.44 1123.75,-743.44 1123.75,-743.44 1210.25,-743.44 1210.25,-743.44 1216.25,-743.44 1222.25,-749.44 1222.25,-755.44 1222.25,-755.44 1222.25,-767.44 1222.25,-767.44 1222.25,-773.44 1216.25,-779.44 1210.25,-779.44"/>
<text xml:space="preserve" text-anchor="middle" x="1167" y="-762.64" font-family="Helvetica,sans-Serif" font-size="9.00">Warranty Claims tab</text>
<text xml:space="preserve" text-anchor="middle" x="1167" y="-752.89" font-family="Helvetica,sans-Serif" font-size="9.00">submit / approve / deny</text>
</g>
<!-- api_claims -->
<g id="node7" class="node">
<title>api_claims</title>
<path fill="white" stroke="black" d="M1210,-674.56C1210,-674.56 1098,-674.56 1098,-674.56 1092,-674.56 1086,-668.56 1086,-662.56 1086,-662.56 1086,-649.31 1086,-649.31 1086,-643.31 1092,-637.31 1098,-637.31 1098,-637.31 1210,-637.31 1210,-637.31 1216,-637.31 1222,-643.31 1222,-649.31 1222,-649.31 1222,-662.56 1222,-662.56 1222,-668.56 1216,-674.56 1210,-674.56"/>
<text xml:space="preserve" text-anchor="middle" x="1154" y="-662.01" font-family="Helvetica,sans-Serif" font-size="9.00">POST /claims/submit</text>
<text xml:space="preserve" text-anchor="middle" x="1154" y="-652.26" font-family="Helvetica,sans-Serif" font-size="9.00">GET /claims · GET /claims/{id}</text>
<text xml:space="preserve" text-anchor="middle" x="1154" y="-642.51" font-family="Helvetica,sans-Serif" font-size="9.00">PATCH /claims/{id}/status</text>
</g>
<!-- ui_claims&#45;&gt;api_claims -->
<g id="edge2" class="edge">
<title>ui_claims&#45;&gt;api_claims</title>
<path fill="none" stroke="#37474f" d="M1166.88,-743.06C1166.88,-743.06 1166.88,-686.33 1166.88,-686.33"/>
<polygon fill="#37474f" stroke="#37474f" points="1170.38,-686.33 1166.88,-676.33 1163.38,-686.33 1170.38,-686.33"/>
<text xml:space="preserve" text-anchor="middle" x="1170.38" y="-712.16" font-family="Helvetica,sans-Serif" font-size="7.00">HTTP</text>
</g>
<!-- ui_dash -->
<g id="node3" class="node">
<title>ui_dash</title>
<path fill="white" stroke="black" d="M1345.5,-779.44C1345.5,-779.44 1266.5,-779.44 1266.5,-779.44 1260.5,-779.44 1254.5,-773.44 1254.5,-767.44 1254.5,-767.44 1254.5,-755.44 1254.5,-755.44 1254.5,-749.44 1260.5,-743.44 1266.5,-743.44 1266.5,-743.44 1345.5,-743.44 1345.5,-743.44 1351.5,-743.44 1357.5,-749.44 1357.5,-755.44 1357.5,-755.44 1357.5,-767.44 1357.5,-767.44 1357.5,-773.44 1351.5,-779.44 1345.5,-779.44"/>
<text xml:space="preserve" text-anchor="middle" x="1306" y="-762.64" font-family="Helvetica,sans-Serif" font-size="9.00">Agent Dashboard</text>
<text xml:space="preserve" text-anchor="middle" x="1306" y="-752.89" font-family="Helvetica,sans-Serif" font-size="9.00">escalations + lineage</text>
</g>
<!-- api_health -->
<g id="node9" class="node">
<title>api_health</title>
<path fill="white" stroke="black" d="M1345.88,-673.94C1345.88,-673.94 1266.12,-673.94 1266.12,-673.94 1260.12,-673.94 1254.12,-667.94 1254.12,-661.94 1254.12,-661.94 1254.12,-649.94 1254.12,-649.94 1254.12,-643.94 1260.12,-637.94 1266.12,-637.94 1266.12,-637.94 1345.88,-637.94 1345.88,-637.94 1351.88,-637.94 1357.88,-643.94 1357.88,-649.94 1357.88,-649.94 1357.88,-661.94 1357.88,-661.94 1357.88,-667.94 1351.88,-673.94 1345.88,-673.94"/>
<text xml:space="preserve" text-anchor="middle" x="1306" y="-657.14" font-family="Helvetica,sans-Serif" font-size="9.00">GET /health</text>
<text xml:space="preserve" text-anchor="middle" x="1306" y="-647.39" font-family="Helvetica,sans-Serif" font-size="9.00">GET /lineage/batches</text>
</g>
<!-- ui_dash&#45;&gt;api_health -->
<g id="edge4" class="edge">
<title>ui_dash&#45;&gt;api_health</title>
<path fill="none" stroke="#37474f" d="M1306,-743.06C1306,-743.06 1306,-685.62 1306,-685.62"/>
<polygon fill="#37474f" stroke="#37474f" points="1309.5,-685.62 1306,-675.62 1302.5,-685.62 1309.5,-685.62"/>
<text xml:space="preserve" text-anchor="middle" x="1315.38" y="-712.16" font-family="Helvetica,sans-Serif" font-size="7.00">HTTP</text>
</g>
<!-- ui_kg -->
<g id="node4" class="node">
<title>ui_kg</title>
<path fill="white" stroke="black" d="M1504.88,-780.06C1504.88,-780.06 1401.12,-780.06 1401.12,-780.06 1395.12,-780.06 1389.12,-774.06 1389.12,-768.06 1389.12,-768.06 1389.12,-754.81 1389.12,-754.81 1389.12,-748.81 1395.12,-742.81 1401.12,-742.81 1401.12,-742.81 1504.88,-742.81 1504.88,-742.81 1510.88,-742.81 1516.88,-748.81 1516.88,-754.81 1516.88,-754.81 1516.88,-768.06 1516.88,-768.06 1516.88,-774.06 1510.88,-780.06 1504.88,-780.06"/>
<text xml:space="preserve" text-anchor="middle" x="1453" y="-767.51" font-family="Helvetica,sans-Serif" font-size="9.00">Knowledge Graph tab</text>
<text xml:space="preserve" text-anchor="middle" x="1453" y="-757.76" font-family="Helvetica,sans-Serif" font-size="9.00">Ontology | Product | Cypher</text>
<text xml:space="preserve" text-anchor="middle" x="1453" y="-748.01" font-family="Helvetica,sans-Serif" font-size="9.00">PyVis interactive</text>
</g>
<!-- api_graph -->
<g id="node8" class="node">
<title>api_graph</title>
<path fill="white" stroke="black" d="M1504.12,-674.56C1504.12,-674.56 1401.88,-674.56 1401.88,-674.56 1395.88,-674.56 1389.88,-668.56 1389.88,-662.56 1389.88,-662.56 1389.88,-649.31 1389.88,-649.31 1389.88,-643.31 1395.88,-637.31 1401.88,-637.31 1401.88,-637.31 1504.12,-637.31 1504.12,-637.31 1510.12,-637.31 1516.12,-643.31 1516.12,-649.31 1516.12,-649.31 1516.12,-662.56 1516.12,-662.56 1516.12,-668.56 1510.12,-674.56 1504.12,-674.56"/>
<text xml:space="preserve" text-anchor="middle" x="1453" y="-662.01" font-family="Helvetica,sans-Serif" font-size="9.00">GET /graph/ontology</text>
<text xml:space="preserve" text-anchor="middle" x="1453" y="-652.26" font-family="Helvetica,sans-Serif" font-size="9.00">/graph/product/{id}</text>
<text xml:space="preserve" text-anchor="middle" x="1453" y="-642.51" font-family="Helvetica,sans-Serif" font-size="9.00">/graph/diagnosis&#45;subgraph</text>
</g>
<!-- ui_kg&#45;&gt;api_graph -->
<g id="edge3" class="edge">
<title>ui_kg&#45;&gt;api_graph</title>
<path fill="none" stroke="#37474f" d="M1453,-742.58C1453,-742.58 1453,-686.5 1453,-686.5"/>
<polygon fill="#37474f" stroke="#37474f" points="1456.5,-686.5 1453,-676.5 1449.5,-686.5 1456.5,-686.5"/>
<text xml:space="preserve" text-anchor="middle" x="1462.38" y="-712.16" font-family="Helvetica,sans-Serif" font-size="7.00">HTTP</text>
</g>
<!-- ui_etl -->
<g id="node5" class="node">
<title>ui_etl</title>
<path fill="white" stroke="black" d="M1663.12,-779.44C1663.12,-779.44 1560.88,-779.44 1560.88,-779.44 1554.88,-779.44 1548.88,-773.44 1548.88,-767.44 1548.88,-767.44 1548.88,-755.44 1548.88,-755.44 1548.88,-749.44 1554.88,-743.44 1560.88,-743.44 1560.88,-743.44 1663.12,-743.44 1663.12,-743.44 1669.12,-743.44 1675.12,-749.44 1675.12,-755.44 1675.12,-755.44 1675.12,-767.44 1675.12,-767.44 1675.12,-773.44 1669.12,-779.44 1663.12,-779.44"/>
<text xml:space="preserve" text-anchor="middle" x="1612" y="-762.64" font-family="Helvetica,sans-Serif" font-size="9.00">ETL tab</text>
<text xml:space="preserve" text-anchor="middle" x="1612" y="-752.89" font-family="Helvetica,sans-Serif" font-size="9.00">run pipeline + batch history</text>
</g>
<!-- etl_orch -->
<g id="node26" class="node">
<title>etl_orch</title>
<path fill="white" stroke="black" d="M1744.75,-364.31C1744.75,-364.31 1649.25,-364.31 1649.25,-364.31 1643.25,-364.31 1637.25,-358.31 1637.25,-352.31 1637.25,-352.31 1637.25,-340.31 1637.25,-340.31 1637.25,-334.31 1643.25,-328.31 1649.25,-328.31 1649.25,-328.31 1744.75,-328.31 1744.75,-328.31 1750.75,-328.31 1756.75,-334.31 1756.75,-340.31 1756.75,-340.31 1756.75,-352.31 1756.75,-352.31 1756.75,-358.31 1750.75,-364.31 1744.75,-364.31"/>
<text xml:space="preserve" text-anchor="middle" x="1697" y="-348.26" font-family="Helvetica,sans-Serif" font-size="9.00">orchestrator.py</text>
<text xml:space="preserve" text-anchor="middle" x="1697" y="-338.51" font-family="Helvetica,sans-Serif" font-size="9.00">ETL → smoke → promote</text>
</g>
<!-- ui_etl&#45;&gt;etl_orch -->
<g id="edge5" class="edge">
<title>ui_etl&#45;&gt;etl_orch</title>
<path fill="none" stroke="#37474f" d="M1656.19,-743.06C1656.19,-743.06 1656.19,-375.99 1656.19,-375.99"/>
<polygon fill="#37474f" stroke="#37474f" points="1659.69,-375.99 1656.19,-365.99 1652.69,-375.99 1659.69,-375.99"/>
<text xml:space="preserve" text-anchor="middle" x="1681" y="-548.54" font-family="Helvetica,sans-Serif" font-size="7.00">CLI / subprocess</text>
</g>
<!-- ag_detect -->
<g id="node10" class="node">
<title>ag_detect</title>
<path fill="white" stroke="black" d="M724.38,-569.06C724.38,-569.06 671.62,-569.06 671.62,-569.06 665.62,-569.06 659.62,-563.06 659.62,-557.06 659.62,-557.06 659.62,-545.06 659.62,-545.06 659.62,-539.06 665.62,-533.06 671.62,-533.06 671.62,-533.06 724.38,-533.06 724.38,-533.06 730.38,-533.06 736.38,-539.06 736.38,-545.06 736.38,-545.06 736.38,-557.06 736.38,-557.06 736.38,-563.06 730.38,-569.06 724.38,-569.06"/>
<text xml:space="preserve" text-anchor="middle" x="698" y="-547.39" font-family="Helvetica,sans-Serif" font-size="9.00">detect_product</text>
</g>
<!-- api_diag&#45;&gt;ag_detect -->
<g id="edge7" class="edge">
<title>api_diag&#45;&gt;ag_detect</title>
<path fill="none" stroke="#37474f" d="M971.17,-656C885.48,-656 698,-656 698,-656 698,-656 698,-580.85 698,-580.85"/>
<polygon fill="#37474f" stroke="#37474f" points="701.5,-580.85 698,-570.85 694.5,-580.85 701.5,-580.85"/>
<text xml:space="preserve" text-anchor="middle" x="754.62" y="-606.66" font-family="Helvetica,sans-Serif" font-size="7.00">run_diagnosis()</text>
</g>
<!-- int_warranty -->
<g id="node23" class="node">
<title>int_warranty</title>
<path fill="white" stroke="black" d="M1062.25,-158.06C1062.25,-158.06 981.75,-158.06 981.75,-158.06 975.75,-158.06 969.75,-152.06 969.75,-146.06 969.75,-146.06 969.75,-134.06 969.75,-134.06 969.75,-128.06 975.75,-122.06 981.75,-122.06 981.75,-122.06 1062.25,-122.06 1062.25,-122.06 1068.25,-122.06 1074.25,-128.06 1074.25,-134.06 1074.25,-134.06 1074.25,-146.06 1074.25,-146.06 1074.25,-152.06 1068.25,-158.06 1062.25,-158.06"/>
<text xml:space="preserve" text-anchor="middle" x="1022" y="-136.39" font-family="Helvetica,sans-Serif" font-size="9.00">warranty_eligibility.py</text>
</g>
<!-- api_diag&#45;&gt;int_warranty -->
<g id="edge6" class="edge">
<title>api_diag&#45;&gt;int_warranty</title>
<path fill="none" stroke="#37474f" d="M1013,-637.58C1013,-637.58 1013,-169.98 1013,-169.98"/>
<polygon fill="#37474f" stroke="#37474f" points="1016.5,-169.98 1013,-159.98 1009.5,-169.98 1016.5,-169.98"/>
<text xml:space="preserve" text-anchor="middle" x="1044.75" y="-410.16" font-family="Helvetica,sans-Serif" font-size="7.00">warranty gate</text>
<text xml:space="preserve" text-anchor="middle" x="1044.75" y="-401.91" font-family="Helvetica,sans-Serif" font-size="7.00">(if CRM enriched)</text>
</g>
<!-- int_claims -->
<g id="node24" class="node">
<title>int_claims</title>
<path fill="white" stroke="black" d="M1189.38,-158.06C1189.38,-158.06 1118.62,-158.06 1118.62,-158.06 1112.62,-158.06 1106.62,-152.06 1106.62,-146.06 1106.62,-146.06 1106.62,-134.06 1106.62,-134.06 1106.62,-128.06 1112.62,-122.06 1118.62,-122.06 1118.62,-122.06 1189.38,-122.06 1189.38,-122.06 1195.38,-122.06 1201.38,-128.06 1201.38,-134.06 1201.38,-134.06 1201.38,-146.06 1201.38,-146.06 1201.38,-152.06 1195.38,-158.06 1189.38,-158.06"/>
<text xml:space="preserve" text-anchor="middle" x="1154" y="-141.26" font-family="Helvetica,sans-Serif" font-size="9.00">claims_workflow.py</text>
<text xml:space="preserve" text-anchor="middle" x="1154" y="-131.51" font-family="Helvetica,sans-Serif" font-size="9.00">JSON claim store</text>
</g>
<!-- api_claims&#45;&gt;int_claims -->
<g id="edge8" class="edge">
<title>api_claims&#45;&gt;int_claims</title>
<path fill="none" stroke="#37474f" d="M1154,-636.97C1154,-636.97 1154,-169.91 1154,-169.91"/>
<polygon fill="#37474f" stroke="#37474f" points="1157.5,-169.91 1154,-159.91 1150.5,-169.91 1157.5,-169.91"/>
<text xml:space="preserve" text-anchor="middle" x="1159.25" y="-406.04" font-family="Helvetica,sans-Serif" font-size="7.00">call</text>
</g>
<!-- gr_viz -->
<g id="node18" class="node">
<title>gr_viz</title>
<path fill="white" stroke="black" d="M542.12,-158.06C542.12,-158.06 457.88,-158.06 457.88,-158.06 451.88,-158.06 445.88,-152.06 445.88,-146.06 445.88,-146.06 445.88,-134.06 445.88,-134.06 445.88,-128.06 451.88,-122.06 457.88,-122.06 457.88,-122.06 542.12,-122.06 542.12,-122.06 548.12,-122.06 554.12,-128.06 554.12,-134.06 554.12,-134.06 554.12,-146.06 554.12,-146.06 554.12,-152.06 548.12,-158.06 542.12,-158.06"/>
<text xml:space="preserve" text-anchor="middle" x="500" y="-141.26" font-family="Helvetica,sans-Serif" font-size="9.00">graph_visualization.py</text>
<text xml:space="preserve" text-anchor="middle" x="500" y="-131.51" font-family="Helvetica,sans-Serif" font-size="9.00">subgraph + PyVis</text>
</g>
<!-- api_graph&#45;&gt;gr_viz -->
<g id="edge9" class="edge">
<title>api_graph&#45;&gt;gr_viz</title>
<path fill="none" stroke="#37474f" d="M1410.56,-637.3C1410.56,-564.07 1410.56,-300 1410.56,-300 1410.56,-300 532,-300 532,-300 532,-300 532,-169.92 532,-169.92"/>
<polygon fill="#37474f" stroke="#37474f" points="535.5,-169.92 532,-159.92 528.5,-169.92 535.5,-169.92"/>
<text xml:space="preserve" text-anchor="middle" x="844.25" y="-406.04" font-family="Helvetica,sans-Serif" font-size="7.00">call</text>
</g>
<!-- ag_run -->
<g id="node11" class="node">
<title>ag_run</title>
<path fill="white" stroke="black" d="M622.25,-476.81C622.25,-476.81 571.75,-476.81 571.75,-476.81 565.75,-476.81 559.75,-470.81 559.75,-464.81 559.75,-464.81 559.75,-452.81 559.75,-452.81 559.75,-446.81 565.75,-440.81 571.75,-440.81 571.75,-440.81 622.25,-440.81 622.25,-440.81 628.25,-440.81 634.25,-446.81 634.25,-452.81 634.25,-452.81 634.25,-464.81 634.25,-464.81 634.25,-470.81 628.25,-476.81 622.25,-476.81"/>
<text xml:space="preserve" text-anchor="middle" x="597" y="-455.14" font-family="Helvetica,sans-Serif" font-size="9.00">run_diagnosis</text>
</g>
<!-- ag_detect&#45;&gt;ag_run -->
<g id="edge10" class="edge">
<title>ag_detect&#45;&gt;ag_run</title>
<path fill="none" stroke="#37474f" d="M663.79,-532.81C663.79,-507.55 663.79,-465 663.79,-465 663.79,-465 646.2,-465 646.2,-465"/>
<polygon fill="#37474f" stroke="#37474f" points="646.2,-461.5 636.2,-465 646.2,-468.5 646.2,-461.5"/>
<text xml:space="preserve" text-anchor="middle" x="644.75" y="-502.41" font-family="Helvetica,sans-Serif" font-size="7.00">next</text>
</g>
<!-- ag_tools -->
<g id="node14" class="node">
<title>ag_tools</title>
<path fill="white" stroke="black" d="M660.12,-364.31C660.12,-364.31 521.88,-364.31 521.88,-364.31 515.88,-364.31 509.88,-358.31 509.88,-352.31 509.88,-352.31 509.88,-340.31 509.88,-340.31 509.88,-334.31 515.88,-328.31 521.88,-328.31 521.88,-328.31 660.12,-328.31 660.12,-328.31 666.12,-328.31 672.12,-334.31 672.12,-340.31 672.12,-340.31 672.12,-352.31 672.12,-352.31 672.12,-358.31 666.12,-364.31 660.12,-364.31"/>
<text xml:space="preserve" text-anchor="middle" x="591" y="-347.51" font-family="Helvetica,sans-Serif" font-size="9.00">tools.py</text>
<text xml:space="preserve" text-anchor="middle" x="591" y="-337.76" font-family="Helvetica,sans-Serif" font-size="9.00">tool_detect_product · tool_diagnose</text>
</g>
<!-- ag_detect&#45;&gt;ag_tools -->
<g id="edge13" class="edge">
<title>ag_detect&#45;&gt;ag_tools</title>
<path fill="none" stroke="#37474f" d="M667.96,-532.89C667.96,-532.89 667.96,-376.25 667.96,-376.25"/>
<polygon fill="#37474f" stroke="#37474f" points="671.46,-376.25 667.96,-366.25 664.46,-376.25 671.46,-376.25"/>
<text xml:space="preserve" text-anchor="middle" x="728.75" y="-456.29" font-family="Helvetica,sans-Serif" font-size="7.00">tool_detect_product</text>
</g>
<!-- ag_format -->
<g id="node12" class="node">
<title>ag_format</title>
<path fill="white" stroke="black" d="M777.5,-364.31C777.5,-364.31 716.5,-364.31 716.5,-364.31 710.5,-364.31 704.5,-358.31 704.5,-352.31 704.5,-352.31 704.5,-340.31 704.5,-340.31 704.5,-334.31 710.5,-328.31 716.5,-328.31 716.5,-328.31 777.5,-328.31 777.5,-328.31 783.5,-328.31 789.5,-334.31 789.5,-340.31 789.5,-340.31 789.5,-352.31 789.5,-352.31 789.5,-358.31 783.5,-364.31 777.5,-364.31"/>
<text xml:space="preserve" text-anchor="middle" x="747" y="-342.64" font-family="Helvetica,sans-Serif" font-size="9.00">format_response</text>
</g>
<!-- ag_run&#45;&gt;ag_format -->
<g id="edge11" class="edge">
<title>ag_run&#45;&gt;ag_format</title>
<path fill="none" stroke="#37474f" d="M634.71,-453C671.01,-453 720.44,-453 720.44,-453 720.44,-453 720.44,-375.92 720.44,-375.92"/>
<polygon fill="#37474f" stroke="#37474f" points="723.94,-375.92 720.44,-365.92 716.94,-375.92 723.94,-375.92"/>
<text xml:space="preserve" text-anchor="middle" x="750.75" y="-406.04" font-family="Helvetica,sans-Serif" font-size="7.00">next</text>
</g>
<!-- ag_run&#45;&gt;ag_tools -->
<g id="edge14" class="edge">
<title>ag_run&#45;&gt;ag_tools</title>
<path fill="none" stroke="#37474f" d="M597,-440.49C597,-440.49 597,-376.14 597,-376.14"/>
<polygon fill="#37474f" stroke="#37474f" points="600.5,-376.14 597,-366.14 593.5,-376.14 600.5,-376.14"/>
<text xml:space="preserve" text-anchor="middle" x="614.38" y="-406.04" font-family="Helvetica,sans-Serif" font-size="7.00">tool_diagnose</text>
</g>
<!-- ag_esc -->
<g id="node13" class="node">
<title>ag_esc</title>
<path fill="white" stroke="black" d="M777.88,-272.06C777.88,-272.06 710.12,-272.06 710.12,-272.06 704.12,-272.06 698.12,-266.06 698.12,-260.06 698.12,-260.06 698.12,-248.06 698.12,-248.06 698.12,-242.06 704.12,-236.06 710.12,-236.06 710.12,-236.06 777.88,-236.06 777.88,-236.06 783.88,-236.06 789.88,-242.06 789.88,-248.06 789.88,-248.06 789.88,-260.06 789.88,-260.06 789.88,-266.06 783.88,-272.06 777.88,-272.06"/>
<text xml:space="preserve" text-anchor="middle" x="744" y="-250.39" font-family="Helvetica,sans-Serif" font-size="9.00">handle_escalation</text>
</g>
<!-- ag_format&#45;&gt;ag_esc -->
<g id="edge12" class="edge">
<title>ag_format&#45;&gt;ag_esc</title>
<path fill="none" stroke="#37474f" d="M747,-328.09C747,-328.09 747,-283.76 747,-283.76"/>
<polygon fill="#37474f" stroke="#37474f" points="750.5,-283.76 747,-273.76 743.5,-283.76 750.5,-283.76"/>
<text xml:space="preserve" text-anchor="middle" x="751.75" y="-297.66" font-family="Helvetica,sans-Serif" font-size="7.00">next</text>
</g>
<!-- int_fsm -->
<g id="node25" class="node">
<title>int_fsm</title>
<path fill="white" stroke="black" d="M925.75,-158.06C925.75,-158.06 860.25,-158.06 860.25,-158.06 854.25,-158.06 848.25,-152.06 848.25,-146.06 848.25,-146.06 848.25,-134.06 848.25,-134.06 848.25,-128.06 854.25,-122.06 860.25,-122.06 860.25,-122.06 925.75,-122.06 925.75,-122.06 931.75,-122.06 937.75,-128.06 937.75,-134.06 937.75,-134.06 937.75,-146.06 937.75,-146.06 937.75,-152.06 931.75,-158.06 925.75,-158.06"/>
<text xml:space="preserve" text-anchor="middle" x="893" y="-136.39" font-family="Helvetica,sans-Serif" font-size="9.00">fsm_escalation.py</text>
</g>
<!-- ag_esc&#45;&gt;int_fsm -->
<g id="edge16" class="edge">
<title>ag_esc&#45;&gt;int_fsm</title>
<path fill="none" stroke="#37474f" d="M790.33,-254C834.07,-254 893,-254 893,-254 893,-254 893,-169.88 893,-169.88"/>
<polygon fill="#37474f" stroke="#37474f" points="896.5,-169.88 893,-159.88 889.5,-169.88 896.5,-169.88"/>
<text xml:space="preserve" text-anchor="middle" x="918.12" y="-200.54" font-family="Helvetica,sans-Serif" font-size="7.00">save_escalation</text>
</g>
<!-- gr_rag -->
<g id="node15" class="node">
<title>gr_rag</title>
<path fill="white" stroke="black" d="M270.12,-158.06C270.12,-158.06 191.88,-158.06 191.88,-158.06 185.88,-158.06 179.88,-152.06 179.88,-146.06 179.88,-146.06 179.88,-134.06 179.88,-134.06 179.88,-128.06 185.88,-122.06 191.88,-122.06 191.88,-122.06 270.12,-122.06 270.12,-122.06 276.12,-122.06 282.12,-128.06 282.12,-134.06 282.12,-134.06 282.12,-146.06 282.12,-146.06 282.12,-152.06 276.12,-158.06 270.12,-158.06"/>
<text xml:space="preserve" text-anchor="middle" x="231" y="-141.26" font-family="Helvetica,sans-Serif" font-size="9.00">graph_rag.py</text>
<text xml:space="preserve" text-anchor="middle" x="231" y="-131.51" font-family="Helvetica,sans-Serif" font-size="9.00">vector + graph hybrid</text>
</g>
<!-- ag_tools&#45;&gt;gr_rag -->
<g id="edge15" class="edge">
<title>ag_tools&#45;&gt;gr_rag</title>
<path fill="none" stroke="#37474f" d="M509.76,-346C403.58,-346 231,-346 231,-346 231,-346 231,-169.85 231,-169.85"/>
<polygon fill="#37474f" stroke="#37474f" points="234.5,-169.85 231,-159.85 227.5,-169.85 234.5,-169.85"/>
<text xml:space="preserve" text-anchor="middle" x="427.12" y="-251.54" font-family="Helvetica,sans-Serif" font-size="7.00">diagnose()</text>
</g>
<!-- neo4j -->
<g id="node38" class="node">
<title>neo4j</title>
<path fill="#e8f5e9" stroke="black" d="M1028.62,-50.38C1028.62,-52.27 1015.79,-53.81 1000,-53.81 984.21,-53.81 971.38,-52.27 971.38,-50.38 971.38,-50.38 971.38,-19.44 971.38,-19.44 971.38,-17.54 984.21,-16 1000,-16 1015.79,-16 1028.62,-17.54 1028.62,-19.44 1028.62,-19.44 1028.62,-50.38 1028.62,-50.38"/>
<path fill="none" stroke="black" d="M1028.62,-50.38C1028.62,-48.48 1015.79,-46.94 1000,-46.94 984.21,-46.94 971.38,-48.48 971.38,-50.38"/>
<text xml:space="preserve" text-anchor="middle" x="1000" y="-36.11" font-family="Helvetica,sans-Serif" font-size="9.00">Neo4j</text>
<text xml:space="preserve" text-anchor="middle" x="1000" y="-26.36" font-family="Helvetica,sans-Serif" font-size="9.00">Bolt :7687</text>
</g>
<!-- gr_rag&#45;&gt;neo4j -->
<g id="edge17" class="edge">
<title>gr_rag&#45;&gt;neo4j</title>
<path fill="none" stroke="#37474f" d="M248.04,-121.82C248.04,-103.2 248.04,-77 248.04,-77 248.04,-77 978.53,-77 978.53,-77 978.53,-77 978.53,-65.01 978.53,-65.01"/>
<polygon fill="#37474f" stroke="#37474f" points="982.03,-65.01 978.53,-55.01 975.03,-65.01 982.03,-65.01"/>
<text xml:space="preserve" text-anchor="middle" x="739.25" y="-91.41" font-family="Helvetica,sans-Serif" font-size="7.00">Cypher</text>
</g>
<!-- chroma -->
<g id="node40" class="node">
<title>chroma</title>
<path fill="#fff8e1" stroke="black" d="M939.75,-50.38C939.75,-52.27 925.07,-53.81 907,-53.81 888.93,-53.81 874.25,-52.27 874.25,-50.38 874.25,-50.38 874.25,-19.44 874.25,-19.44 874.25,-17.54 888.93,-16 907,-16 925.07,-16 939.75,-17.54 939.75,-19.44 939.75,-19.44 939.75,-50.38 939.75,-50.38"/>
<path fill="none" stroke="black" d="M939.75,-50.38C939.75,-48.48 925.07,-46.94 907,-46.94 888.93,-46.94 874.25,-48.48 874.25,-50.38"/>
<text xml:space="preserve" text-anchor="middle" x="907" y="-36.11" font-family="Helvetica,sans-Serif" font-size="9.00">ChromaDB</text>
<text xml:space="preserve" text-anchor="middle" x="907" y="-26.36" font-family="Helvetica,sans-Serif" font-size="9.00">vector index</text>
</g>
<!-- gr_rag&#45;&gt;chroma -->
<g id="edge18" class="edge">
<title>gr_rag&#45;&gt;chroma</title>
<path fill="none" stroke="#37474f" d="M213.96,-121.76C213.96,-100.71 213.96,-69 213.96,-69 213.96,-69 906,-69 906,-69 906,-69 906,-65.46 906,-65.46"/>
<polygon fill="#37474f" stroke="#37474f" points="909.5,-65.46 906,-55.46 902.5,-65.46 909.5,-65.46"/>
<text xml:space="preserve" text-anchor="middle" x="680.5" y="-91.41" font-family="Helvetica,sans-Serif" font-size="7.00">embed</text>
</g>
<!-- gr_engine -->
<g id="node16" class="node">
<title>gr_engine</title>
<path fill="white" stroke="black" d="M803.88,-158.06C803.88,-158.06 724.12,-158.06 724.12,-158.06 718.12,-158.06 712.12,-152.06 712.12,-146.06 712.12,-146.06 712.12,-134.06 712.12,-134.06 712.12,-128.06 718.12,-122.06 724.12,-122.06 724.12,-122.06 803.88,-122.06 803.88,-122.06 809.88,-122.06 815.88,-128.06 815.88,-134.06 815.88,-134.06 815.88,-146.06 815.88,-146.06 815.88,-152.06 809.88,-158.06 803.88,-158.06"/>
<text xml:space="preserve" text-anchor="middle" x="764" y="-141.26" font-family="Helvetica,sans-Serif" font-size="9.00">diagnostic_engine.py</text>
<text xml:space="preserve" text-anchor="middle" x="764" y="-131.51" font-family="Helvetica,sans-Serif" font-size="9.00">NEXT_STEP trees</text>
</g>
<!-- gr_engine&#45;&gt;neo4j -->
<g id="edge19" class="edge">
<title>gr_engine&#45;&gt;neo4j</title>
<path fill="none" stroke="#37474f" d="M764,-121.6C764,-114.02 764,-107 764,-107 764,-107 1007.16,-107 1007.16,-107 1007.16,-107 1007.16,-65.74 1007.16,-65.74"/>
<polygon fill="#37474f" stroke="#37474f" points="1010.66,-65.74 1007.16,-55.74 1003.66,-65.74 1010.66,-65.74"/>
<text xml:space="preserve" text-anchor="middle" x="982.25" y="-91.41" font-family="Helvetica,sans-Serif" font-size="7.00">Cypher</text>
</g>
<!-- gr_parts -->
<g id="node17" class="node">
<title>gr_parts</title>
<path fill="white" stroke="black" d="M401.62,-158.06C401.62,-158.06 326.38,-158.06 326.38,-158.06 320.38,-158.06 314.38,-152.06 314.38,-146.06 314.38,-146.06 314.38,-134.06 314.38,-134.06 314.38,-128.06 320.38,-122.06 326.38,-122.06 326.38,-122.06 401.62,-122.06 401.62,-122.06 407.62,-122.06 413.62,-128.06 413.62,-134.06 413.62,-134.06 413.62,-146.06 413.62,-146.06 413.62,-152.06 407.62,-158.06 401.62,-158.06"/>
<text xml:space="preserve" text-anchor="middle" x="364" y="-141.26" font-family="Helvetica,sans-Serif" font-size="9.00">parts_predictor.py</text>
<text xml:space="preserve" text-anchor="middle" x="364" y="-131.51" font-family="Helvetica,sans-Serif" font-size="9.00">multi&#45;source ranking</text>
</g>
<!-- gr_parts&#45;&gt;neo4j -->
<g id="edge20" class="edge">
<title>gr_parts&#45;&gt;neo4j</title>
<path fill="none" stroke="#37474f" d="M394.21,-121.71C394.21,-105.36 394.21,-84 394.21,-84 394.21,-84 985.69,-84 985.69,-84 985.69,-84 985.69,-65.82 985.69,-65.82"/>
<polygon fill="#37474f" stroke="#37474f" points="989.19,-65.82 985.69,-55.82 982.19,-65.82 989.19,-65.82"/>
<text xml:space="preserve" text-anchor="middle" x="799.25" y="-91.41" font-family="Helvetica,sans-Serif" font-size="7.00">Cypher</text>
</g>
<!-- gr_viz&#45;&gt;neo4j -->
<g id="edge21" class="edge">
<title>gr_viz&#45;&gt;neo4j</title>
<path fill="none" stroke="#37474f" d="M513.38,-121.62C513.38,-108.06 513.38,-92 513.38,-92 513.38,-92 992.84,-92 992.84,-92 992.84,-92 992.84,-65.75 992.84,-65.75"/>
<polygon fill="#37474f" stroke="#37474f" points="996.34,-65.75 992.84,-55.75 989.34,-65.75 996.34,-65.75"/>
<text xml:space="preserve" text-anchor="middle" x="859.25" y="-91.41" font-family="Helvetica,sans-Serif" font-size="7.00">Cypher</text>
</g>
<!-- gr_warranty -->
<g id="node19" class="node">
<title>gr_warranty</title>
<path fill="white" stroke="black" d="M161.88,-52.91C161.88,-52.91 28.13,-52.91 28.13,-52.91 22.13,-52.91 16.12,-46.91 16.12,-40.91 16.12,-40.91 16.12,-28.91 16.12,-28.91 16.12,-22.91 22.12,-16.91 28.12,-16.91 28.12,-16.91 161.88,-16.91 161.88,-16.91 167.88,-16.91 173.88,-22.91 173.88,-28.91 173.88,-28.91 173.88,-40.91 173.88,-40.91 173.88,-46.91 167.88,-52.91 161.88,-52.91"/>
<text xml:space="preserve" text-anchor="middle" x="95" y="-36.11" font-family="Helvetica,sans-Serif" font-size="9.00">warranty_catalog_extensions.py</text>
<text xml:space="preserve" text-anchor="middle" x="95" y="-26.36" font-family="Helvetica,sans-Serif" font-size="9.00">Model SKU Component ErrorCode</text>
</g>
<!-- gr_oem -->
<g id="node20" class="node">
<title>gr_oem</title>
<path fill="white" stroke="black" d="M460.62,-52.91C460.62,-52.91 367.38,-52.91 367.38,-52.91 361.38,-52.91 355.38,-46.91 355.38,-40.91 355.38,-40.91 355.38,-28.91 355.38,-28.91 355.38,-22.91 361.38,-16.91 367.38,-16.91 367.38,-16.91 460.62,-16.91 460.62,-16.91 466.62,-16.91 472.62,-22.91 472.62,-28.91 472.62,-28.91 472.62,-40.91 472.62,-40.91 472.62,-46.91 466.62,-52.91 460.62,-52.91"/>
<text xml:space="preserve" text-anchor="middle" x="414" y="-36.11" font-family="Helvetica,sans-Serif" font-size="9.00">oem_product_catalog.py</text>
<text xml:space="preserve" text-anchor="middle" x="414" y="-26.36" font-family="Helvetica,sans-Serif" font-size="9.00">10 OEM + 3 legacy</text>
</g>
<!-- gr_pop -->
<g id="node21" class="node">
<title>gr_pop</title>
<path fill="white" stroke="black" d="M667.62,-158.06C667.62,-158.06 598.38,-158.06 598.38,-158.06 592.38,-158.06 586.38,-152.06 586.38,-146.06 586.38,-146.06 586.38,-134.06 586.38,-134.06 586.38,-128.06 592.38,-122.06 598.38,-122.06 598.38,-122.06 667.62,-122.06 667.62,-122.06 673.62,-122.06 679.62,-128.06 679.62,-134.06 679.62,-134.06 679.62,-146.06 679.62,-146.06 679.62,-152.06 673.62,-158.06 667.62,-158.06"/>
<text xml:space="preserve" text-anchor="middle" x="633" y="-136.39" font-family="Helvetica,sans-Serif" font-size="9.00">populate_graph.py</text>
</g>
<!-- gr_pop&#45;&gt;neo4j -->
<g id="edge26" class="edge">
<title>gr_pop&#45;&gt;neo4j</title>
<path fill="none" stroke="#37474f" d="M633,-121.93C633,-110.93 633,-99 633,-99 633,-99 1000,-99 1000,-99 1000,-99 1000,-65.65 1000,-65.65"/>
<polygon fill="#37474f" stroke="#37474f" points="1003.5,-65.65 1000,-55.65 996.5,-65.65 1003.5,-65.65"/>
<text xml:space="preserve" text-anchor="middle" x="920.75" y="-91.41" font-family="Helvetica,sans-Serif" font-size="7.00">MERGE</text>
</g>
<!-- gr_synth -->
<g id="node22" class="node">
<title>gr_synth</title>
<path fill="white" stroke="black" d="M136.12,-158.06C136.12,-158.06 27.87,-158.06 27.87,-158.06 21.88,-158.06 15.88,-152.06 15.88,-146.06 15.88,-146.06 15.88,-134.06 15.88,-134.06 15.88,-128.06 21.88,-122.06 27.88,-122.06 27.88,-122.06 136.12,-122.06 136.12,-122.06 142.12,-122.06 148.12,-128.06 148.12,-134.06 148.12,-134.06 148.12,-146.06 148.12,-146.06 148.12,-152.06 142.12,-158.06 136.12,-158.06"/>
<text xml:space="preserve" text-anchor="middle" x="82" y="-136.39" font-family="Helvetica,sans-Serif" font-size="9.00">synthetic_data_generator.py</text>
</g>
<!-- gr_synth&#45;&gt;gr_warranty -->
<g id="edge25" class="edge">
<title>gr_synth&#45;&gt;gr_warranty</title>
<path fill="none" stroke="#37474f" d="M104.12,-121.75C104.12,-121.75 104.12,-64.88 104.12,-64.88"/>
<polygon fill="#37474f" stroke="#37474f" points="107.63,-64.88 104.13,-54.88 100.63,-64.88 107.63,-64.88"/>
<text xml:space="preserve" text-anchor="middle" x="104.88" y="-91.41" font-family="Helvetica,sans-Serif" font-size="7.00">extensions</text>
</g>
<!-- gr_synth&#45;&gt;gr_oem -->
<g id="edge24" class="edge">
<title>gr_synth&#45;&gt;gr_oem</title>
<path fill="none" stroke="#37474f" d="M60.12,-121.73C60.12,-98.37 60.12,-61 60.12,-61 60.12,-61 374.79,-61 374.79,-61 374.79,-61 374.79,-60.23 374.79,-60.23"/>
<polygon fill="#37474f" stroke="#37474f" points="378.29,-64.83 374.79,-54.83 371.29,-64.83 378.29,-64.83"/>
<text xml:space="preserve" text-anchor="middle" x="302" y="-91.41" font-family="Helvetica,sans-Serif" font-size="7.00">blueprints</text>
</g>
<!-- int_warranty&#45;&gt;neo4j -->
<g id="edge22" class="edge">
<title>int_warranty&#45;&gt;neo4j</title>
<path fill="none" stroke="#37474f" d="M1014.31,-121.75C1014.31,-121.75 1014.31,-65.59 1014.31,-65.59"/>
<polygon fill="#37474f" stroke="#37474f" points="1017.81,-65.59 1014.31,-55.59 1010.81,-65.59 1017.81,-65.59"/>
<text xml:space="preserve" text-anchor="middle" x="1042.25" y="-91.41" font-family="Helvetica,sans-Serif" font-size="7.00">Cypher</text>
</g>
<!-- json_stores -->
<g id="node39" class="node">
<title>json_stores</title>
<polygon fill="white" stroke="black" points="1188.88,-53.53 1185.88,-57.53 1164.88,-57.53 1161.88,-53.53 1061.12,-53.53 1061.12,-16.28 1188.88,-16.28 1188.88,-53.53"/>
<text xml:space="preserve" text-anchor="middle" x="1125" y="-40.98" font-family="Helvetica,sans-Serif" font-size="9.00">JSON</text>
<text xml:space="preserve" text-anchor="middle" x="1125" y="-31.23" font-family="Helvetica,sans-Serif" font-size="9.00">claims_history | crm_assets</text>
<text xml:space="preserve" text-anchor="middle" x="1125" y="-21.48" font-family="Helvetica,sans-Serif" font-size="9.00">pim_catalog | lineage</text>
</g>
<!-- int_claims&#45;&gt;json_stores -->
<g id="edge23" class="edge">
<title>int_claims&#45;&gt;json_stores</title>
<path fill="none" stroke="#37474f" d="M1147.75,-121.75C1147.75,-121.75 1147.75,-65.23 1147.75,-65.23"/>
<polygon fill="#37474f" stroke="#37474f" points="1151.25,-65.23 1147.75,-55.23 1144.25,-65.23 1151.25,-65.23"/>
<text xml:space="preserve" text-anchor="middle" x="1169.38" y="-91.41" font-family="Helvetica,sans-Serif" font-size="7.00">read/write</text>
</g>
<!-- etl_knowledge -->
<g id="node27" class="node">
<title>etl_knowledge</title>
<path fill="white" stroke="black" d="M1791.88,-272.06C1791.88,-272.06 1688.12,-272.06 1688.12,-272.06 1682.12,-272.06 1676.12,-266.06 1676.12,-260.06 1676.12,-260.06 1676.12,-248.06 1676.12,-248.06 1676.12,-242.06 1682.12,-236.06 1688.12,-236.06 1688.12,-236.06 1791.88,-236.06 1791.88,-236.06 1797.88,-236.06 1803.88,-242.06 1803.88,-248.06 1803.88,-248.06 1803.88,-260.06 1803.88,-260.06 1803.88,-266.06 1797.88,-272.06 1791.88,-272.06"/>
<text xml:space="preserve" text-anchor="middle" x="1740" y="-250.39" font-family="Helvetica,sans-Serif" font-size="9.00">pipelines/knowledge_etl.py</text>
</g>
<!-- etl_orch&#45;&gt;etl_knowledge -->
<g id="edge27" class="edge">
<title>etl_orch&#45;&gt;etl_knowledge</title>
<path fill="none" stroke="#37474f" d="M1716.44,-328.09C1716.44,-328.09 1716.44,-283.76 1716.44,-283.76"/>
<polygon fill="#37474f" stroke="#37474f" points="1719.94,-283.76 1716.44,-273.76 1712.94,-283.76 1719.94,-283.76"/>
<text xml:space="preserve" text-anchor="middle" x="1728.5" y="-297.66" font-family="Helvetica,sans-Serif" font-size="7.00">1. ETL</text>
</g>
<!-- etl_smoke -->
<g id="node28" class="node">
<title>etl_smoke</title>
<path fill="white" stroke="black" d="M1963.88,-272.06C1963.88,-272.06 1848.12,-272.06 1848.12,-272.06 1842.12,-272.06 1836.12,-266.06 1836.12,-260.06 1836.12,-260.06 1836.12,-248.06 1836.12,-248.06 1836.12,-242.06 1842.12,-236.06 1848.12,-236.06 1848.12,-236.06 1963.88,-236.06 1963.88,-236.06 1969.88,-236.06 1975.88,-242.06 1975.88,-248.06 1975.88,-248.06 1975.88,-260.06 1975.88,-260.06 1975.88,-266.06 1969.88,-272.06 1963.88,-272.06"/>
<text xml:space="preserve" text-anchor="middle" x="1906" y="-250.39" font-family="Helvetica,sans-Serif" font-size="9.00">pipelines/smoke_validation.py</text>
</g>
<!-- etl_orch&#45;&gt;etl_smoke -->
<g id="edge28" class="edge">
<title>etl_orch&#45;&gt;etl_smoke</title>
<path fill="none" stroke="#37474f" d="M1757.17,-346C1818.91,-346 1906,-346 1906,-346 1906,-346 1906,-283.74 1906,-283.74"/>
<polygon fill="#37474f" stroke="#37474f" points="1909.5,-283.74 1906,-273.74 1902.5,-283.74 1909.5,-283.74"/>
<text xml:space="preserve" text-anchor="middle" x="1865.62" y="-297.66" font-family="Helvetica,sans-Serif" font-size="7.00">2. smoke</text>
</g>
<!-- etl_promote -->
<g id="node29" class="node">
<title>etl_promote</title>
<path fill="white" stroke="black" d="M1632.12,-272.06C1632.12,-272.06 1511.88,-272.06 1511.88,-272.06 1505.88,-272.06 1499.88,-266.06 1499.88,-260.06 1499.88,-260.06 1499.88,-248.06 1499.88,-248.06 1499.88,-242.06 1505.88,-236.06 1511.88,-236.06 1511.88,-236.06 1632.12,-236.06 1632.12,-236.06 1638.12,-236.06 1644.12,-242.06 1644.12,-248.06 1644.12,-248.06 1644.12,-260.06 1644.12,-260.06 1644.12,-266.06 1638.12,-272.06 1632.12,-272.06"/>
<text xml:space="preserve" text-anchor="middle" x="1572" y="-250.39" font-family="Helvetica,sans-Serif" font-size="9.00">pipelines/staging_promotion.py</text>
</g>
<!-- etl_orch&#45;&gt;etl_promote -->
<g id="edge29" class="edge">
<title>etl_orch&#45;&gt;etl_promote</title>
<path fill="none" stroke="#37474f" d="M1653.81,-328.07C1653.81,-301.17 1653.81,-254 1653.81,-254 1653.81,-254 1652.87,-254 1652.87,-254"/>
<polygon fill="#37474f" stroke="#37474f" points="1655.94,-250.5 1645.94,-254 1655.94,-257.5 1655.94,-250.5"/>
<text xml:space="preserve" text-anchor="middle" x="1615.88" y="-297.66" font-family="Helvetica,sans-Serif" font-size="7.00">3. promote</text>
</g>
<!-- etl_ontology -->
<g id="node30" class="node">
<title>etl_ontology</title>
<path fill="white" stroke="black" d="M1516.5,-158.06C1516.5,-158.06 1443.5,-158.06 1443.5,-158.06 1437.5,-158.06 1431.5,-152.06 1431.5,-146.06 1431.5,-146.06 1431.5,-134.06 1431.5,-134.06 1431.5,-128.06 1437.5,-122.06 1443.5,-122.06 1443.5,-122.06 1516.5,-122.06 1516.5,-122.06 1522.5,-122.06 1528.5,-128.06 1528.5,-134.06 1528.5,-134.06 1528.5,-146.06 1528.5,-146.06 1528.5,-152.06 1522.5,-158.06 1516.5,-158.06"/>
<text xml:space="preserve" text-anchor="middle" x="1480" y="-141.26" font-family="Helvetica,sans-Serif" font-size="9.00">ontology_builder.py</text>
<text xml:space="preserve" text-anchor="middle" x="1480" y="-131.51" font-family="Helvetica,sans-Serif" font-size="9.00">Neo4j MERGE</text>
</g>
<!-- etl_knowledge&#45;&gt;etl_ontology -->
<g id="edge31" class="edge">
<title>etl_knowledge&#45;&gt;etl_ontology</title>
<path fill="none" stroke="#37474f" d="M1682.62,-235.69C1682.62,-219.01 1682.62,-197 1682.62,-197 1682.62,-197 1514.19,-197 1514.19,-197 1514.19,-197 1514.19,-169.9 1514.19,-169.9"/>
<polygon fill="#37474f" stroke="#37474f" points="1517.69,-169.9 1514.19,-159.9 1510.69,-169.9 1517.69,-169.9"/>
<text xml:space="preserve" text-anchor="middle" x="1552" y="-200.54" font-family="Helvetica,sans-Serif" font-size="7.00">transform</text>
</g>
<!-- etl_lineage -->
<g id="node32" class="node">
<title>etl_lineage</title>
<path fill="white" stroke="black" d="M1651.5,-158.06C1651.5,-158.06 1572.5,-158.06 1572.5,-158.06 1566.5,-158.06 1560.5,-152.06 1560.5,-146.06 1560.5,-146.06 1560.5,-134.06 1560.5,-134.06 1560.5,-128.06 1566.5,-122.06 1572.5,-122.06 1572.5,-122.06 1651.5,-122.06 1651.5,-122.06 1657.5,-122.06 1663.5,-128.06 1663.5,-134.06 1663.5,-134.06 1663.5,-146.06 1663.5,-146.06 1663.5,-152.06 1657.5,-158.06 1651.5,-158.06"/>
<text xml:space="preserve" text-anchor="middle" x="1612" y="-136.39" font-family="Helvetica,sans-Serif" font-size="9.00">utils/lineage_store.py</text>
</g>
<!-- etl_knowledge&#45;&gt;etl_lineage -->
<g id="edge32" class="edge">
<title>etl_knowledge&#45;&gt;etl_lineage</title>
<path fill="none" stroke="#37474f" d="M1689.12,-235.74C1689.12,-203.49 1689.12,-140 1689.12,-140 1689.12,-140 1675.38,-140 1675.38,-140"/>
<polygon fill="#37474f" stroke="#37474f" points="1675.38,-136.5 1665.38,-140 1675.38,-143.5 1675.38,-136.5"/>
<text xml:space="preserve" text-anchor="middle" x="1657.5" y="-200.54" font-family="Helvetica,sans-Serif" font-size="7.00">audit</text>
</g>
<!-- etl_conn_pim -->
<g id="node33" class="node">
<title>etl_conn_pim</title>
<path fill="white" stroke="black" d="M1772.38,-158.06C1772.38,-158.06 1707.62,-158.06 1707.62,-158.06 1701.62,-158.06 1695.62,-152.06 1695.62,-146.06 1695.62,-146.06 1695.62,-134.06 1695.62,-134.06 1695.62,-128.06 1701.62,-122.06 1707.62,-122.06 1707.62,-122.06 1772.38,-122.06 1772.38,-122.06 1778.38,-122.06 1784.38,-128.06 1784.38,-134.06 1784.38,-134.06 1784.38,-146.06 1784.38,-146.06 1784.38,-152.06 1778.38,-158.06 1772.38,-158.06"/>
<text xml:space="preserve" text-anchor="middle" x="1740" y="-136.39" font-family="Helvetica,sans-Serif" font-size="9.00">pim_connector.py</text>
</g>
<!-- etl_knowledge&#45;&gt;etl_conn_pim -->
<g id="edge33" class="edge">
<title>etl_knowledge&#45;&gt;etl_conn_pim</title>
<path fill="none" stroke="#37474f" d="M1740,-235.75C1740,-235.75 1740,-169.85 1740,-169.85"/>
<polygon fill="#37474f" stroke="#37474f" points="1743.5,-169.85 1740,-159.85 1736.5,-169.85 1743.5,-169.85"/>
<text xml:space="preserve" text-anchor="middle" x="1747.88" y="-200.54" font-family="Helvetica,sans-Serif" font-size="7.00">fetch</text>
</g>
<!-- etl_conn_crm -->
<g id="node34" class="node">
<title>etl_conn_crm</title>
<path fill="white" stroke="black" d="M1893.38,-158.06C1893.38,-158.06 1828.62,-158.06 1828.62,-158.06 1822.62,-158.06 1816.62,-152.06 1816.62,-146.06 1816.62,-146.06 1816.62,-134.06 1816.62,-134.06 1816.62,-128.06 1822.62,-122.06 1828.62,-122.06 1828.62,-122.06 1893.38,-122.06 1893.38,-122.06 1899.38,-122.06 1905.38,-128.06 1905.38,-134.06 1905.38,-134.06 1905.38,-146.06 1905.38,-146.06 1905.38,-152.06 1899.38,-158.06 1893.38,-158.06"/>
<text xml:space="preserve" text-anchor="middle" x="1861" y="-136.39" font-family="Helvetica,sans-Serif" font-size="9.00">crm_connector.py</text>
</g>
<!-- etl_knowledge&#45;&gt;etl_conn_crm -->
<g id="edge34" class="edge">
<title>etl_knowledge&#45;&gt;etl_conn_crm</title>
<path fill="none" stroke="#37474f" d="M1799,-235.74C1799,-203.49 1799,-140 1799,-140 1799,-140 1804.76,-140 1804.76,-140"/>
<polygon fill="#37474f" stroke="#37474f" points="1804.76,-143.5 1814.76,-140 1804.76,-136.5 1804.76,-143.5"/>
<text xml:space="preserve" text-anchor="middle" x="1834.88" y="-200.54" font-family="Helvetica,sans-Serif" font-size="7.00">fetch</text>
</g>
<!-- etl_conn_claims -->
<g id="node35" class="node">
<title>etl_conn_claims</title>
<path fill="white" stroke="black" d="M2025,-158.06C2025,-158.06 1949,-158.06 1949,-158.06 1943,-158.06 1937,-152.06 1937,-146.06 1937,-146.06 1937,-134.06 1937,-134.06 1937,-128.06 1943,-122.06 1949,-122.06 1949,-122.06 2025,-122.06 2025,-122.06 2031,-122.06 2037,-128.06 2037,-134.06 2037,-134.06 2037,-146.06 2037,-146.06 2037,-152.06 2031,-158.06 2025,-158.06"/>
<text xml:space="preserve" text-anchor="middle" x="1987" y="-136.39" font-family="Helvetica,sans-Serif" font-size="9.00">claims_connector.py</text>
</g>
<!-- etl_knowledge&#45;&gt;etl_conn_claims -->
<g id="edge35" class="edge">
<title>etl_knowledge&#45;&gt;etl_conn_claims</title>
<path fill="none" stroke="#37474f" d="M1789.25,-235.65C1789.25,-213.14 1789.25,-178 1789.25,-178 1789.25,-178 1956.44,-178 1956.44,-178 1956.44,-178 1956.44,-169.66 1956.44,-169.66"/>
<polygon fill="#37474f" stroke="#37474f" points="1959.94,-169.66 1956.44,-159.66 1952.94,-169.66 1959.94,-169.66"/>
<text xml:space="preserve" text-anchor="middle" x="1940.88" y="-200.54" font-family="Helvetica,sans-Serif" font-size="7.00">fetch</text>
</g>
<!-- etl_conn_fsm -->
<g id="node36" class="node">
<title>etl_conn_fsm</title>
<path fill="white" stroke="black" d="M2145,-158.06C2145,-158.06 2081,-158.06 2081,-158.06 2075,-158.06 2069,-152.06 2069,-146.06 2069,-146.06 2069,-134.06 2069,-134.06 2069,-128.06 2075,-122.06 2081,-122.06 2081,-122.06 2145,-122.06 2145,-122.06 2151,-122.06 2157,-128.06 2157,-134.06 2157,-134.06 2157,-146.06 2157,-146.06 2157,-152.06 2151,-158.06 2145,-158.06"/>
<text xml:space="preserve" text-anchor="middle" x="2113" y="-136.39" font-family="Helvetica,sans-Serif" font-size="9.00">fsm_connector.py</text>
</g>
<!-- etl_knowledge&#45;&gt;etl_conn_fsm -->
<g id="edge36" class="edge">
<title>etl_knowledge&#45;&gt;etl_conn_fsm</title>
<path fill="none" stroke="#37474f" d="M1794.12,-235.97C1794.12,-226.56 1794.12,-217 1794.12,-217 1794.12,-217 2113,-217 2113,-217 2113,-217 2113,-169.81 2113,-169.81"/>
<polygon fill="#37474f" stroke="#37474f" points="2116.5,-169.81 2113,-159.81 2109.5,-169.81 2116.5,-169.81"/>
<text xml:space="preserve" text-anchor="middle" x="2056.88" y="-200.54" font-family="Helvetica,sans-Serif" font-size="7.00">fetch</text>
</g>
<!-- etl_ontology&#45;&gt;neo4j -->
<g id="edge43" class="edge">
<title>etl_ontology&#45;&gt;neo4j</title>
<path fill="none" stroke="#37474f" d="M1480,-121.68C1480,-117.37 1480,-114 1480,-114 1480,-114 1021.47,-114 1021.47,-114 1021.47,-114 1021.47,-64.76 1021.47,-64.76"/>
<polygon fill="#37474f" stroke="#37474f" points="1024.97,-64.76 1021.47,-54.76 1017.97,-64.76 1024.97,-64.76"/>
<text xml:space="preserve" text-anchor="middle" x="1103.75" y="-91.41" font-family="Helvetica,sans-Serif" font-size="7.00">MERGE</text>
</g>
<!-- etl_pim_sync -->
<g id="node31" class="node">
<title>etl_pim_sync</title>
<path fill="white" stroke="black" d="M1550.75,-364.31C1550.75,-364.31 1443.25,-364.31 1443.25,-364.31 1437.25,-364.31 1431.25,-358.31 1431.25,-352.31 1431.25,-352.31 1431.25,-340.31 1431.25,-340.31 1431.25,-334.31 1437.25,-328.31 1443.25,-328.31 1443.25,-328.31 1550.75,-328.31 1550.75,-328.31 1556.75,-328.31 1562.75,-334.31 1562.75,-340.31 1562.75,-340.31 1562.75,-352.31 1562.75,-352.31 1562.75,-358.31 1556.75,-364.31 1550.75,-364.31"/>
<text xml:space="preserve" text-anchor="middle" x="1497" y="-348.26" font-family="Helvetica,sans-Serif" font-size="9.00">pim_blueprint_sync.py</text>
<text xml:space="preserve" text-anchor="middle" x="1497" y="-338.51" font-family="Helvetica,sans-Serif" font-size="9.00">OEM → PIM + catalog JSON</text>
</g>
<!-- etl_pim_sync&#45;&gt;gr_oem -->
<g id="edge41" class="edge">
<title>etl_pim_sync&#45;&gt;gr_oem</title>
<path fill="none" stroke="#37474f" d="M1430.81,-355C1262.62,-355 832.06,-355 832.06,-355 832.06,-355 832.06,-35 832.06,-35 832.06,-35 484.53,-35 484.53,-35"/>
<polygon fill="#37474f" stroke="#37474f" points="484.53,-31.5 474.53,-35 484.52,-38.5 484.53,-31.5"/>
<text xml:space="preserve" text-anchor="middle" x="1259.75" y="-200.54" font-family="Helvetica,sans-Serif" font-size="7.00">import</text>
</g>
<!-- etl_pim_sync&#45;&gt;json_stores -->
<g id="edge30" class="edge">
<title>etl_pim_sync&#45;&gt;json_stores</title>
<path fill="none" stroke="#37474f" d="M1430.96,-337C1318,-337 1099.75,-337 1099.75,-337 1099.75,-337 1099.75,-65.32 1099.75,-65.32"/>
<polygon fill="#37474f" stroke="#37474f" points="1103.25,-65.32 1099.75,-55.32 1096.25,-65.32 1103.25,-65.32"/>
<text xml:space="preserve" text-anchor="middle" x="1348.62" y="-205.41" font-family="Helvetica,sans-Serif" font-size="7.00">pre&#45;step</text>
<text xml:space="preserve" text-anchor="middle" x="1348.62" y="-197.16" font-family="Helvetica,sans-Serif" font-size="7.00">(OEM → PIM JSON)</text>
</g>
<!-- etl_pim_sync&#45;&gt;json_stores -->
<g id="edge42" class="edge">
<title>etl_pim_sync&#45;&gt;json_stores</title>
<path fill="none" stroke="#37474f" d="M1431.17,-346C1316.66,-346 1092.88,-346 1092.88,-346 1092.88,-346 1092.88,-65.41 1092.88,-65.41"/>
<polygon fill="#37474f" stroke="#37474f" points="1096.38,-65.41 1092.88,-55.41 1089.38,-65.41 1096.38,-65.41"/>
<text xml:space="preserve" text-anchor="middle" x="1436" y="-200.54" font-family="Helvetica,sans-Serif" font-size="7.00">write JSON</text>
</g>
<!-- etl_lineage&#45;&gt;json_stores -->
<g id="edge44" class="edge">
<title>etl_lineage&#45;&gt;json_stores</title>
<path fill="none" stroke="#37474f" d="M1612,-121.89C1612,-93.29 1612,-41 1612,-41 1612,-41 1200.68,-41 1200.68,-41"/>
<polygon fill="#37474f" stroke="#37474f" points="1200.68,-37.5 1190.68,-41 1200.68,-44.5 1200.68,-37.5"/>
<text xml:space="preserve" text-anchor="middle" x="1535.25" y="-91.41" font-family="Helvetica,sans-Serif" font-size="7.00">append</text>
</g>
<!-- mock_api -->
<g id="node37" class="node">
<title>mock_api</title>
<path fill="white" stroke="black" d="M1970.62,-52.91C1970.62,-52.91 1847.38,-52.91 1847.38,-52.91 1841.38,-52.91 1835.38,-46.91 1835.38,-40.91 1835.38,-40.91 1835.38,-28.91 1835.38,-28.91 1835.38,-22.91 1841.38,-16.91 1847.38,-16.91 1847.38,-16.91 1970.62,-16.91 1970.62,-16.91 1976.62,-16.91 1982.62,-22.91 1982.62,-28.91 1982.62,-28.91 1982.62,-40.91 1982.62,-40.91 1982.62,-46.91 1976.62,-52.91 1970.62,-52.91"/>
<text xml:space="preserve" text-anchor="middle" x="1909" y="-36.11" font-family="Helvetica,sans-Serif" font-size="9.00">mock_enterprise_apps.py :8090</text>
<text xml:space="preserve" text-anchor="middle" x="1909" y="-26.36" font-family="Helvetica,sans-Serif" font-size="9.00">/pim /crm /claims /fsm</text>
</g>
<!-- etl_conn_pim&#45;&gt;mock_api -->
<g id="edge37" class="edge">
<title>etl_conn_pim&#45;&gt;mock_api</title>
<path fill="none" stroke="#37474f" d="M1740,-121.72C1740,-90.18 1740,-29 1740,-29 1740,-29 1823.85,-29 1823.85,-29"/>
<polygon fill="#37474f" stroke="#37474f" points="1823.85,-32.5 1833.85,-29 1823.85,-25.5 1823.85,-32.5"/>
<text xml:space="preserve" text-anchor="middle" x="1782" y="-91.41" font-family="Helvetica,sans-Serif" font-size="7.00">GET /pim</text>
</g>
<!-- etl_conn_crm&#45;&gt;mock_api -->
<g id="edge38" class="edge">
<title>etl_conn_crm&#45;&gt;mock_api</title>
<path fill="none" stroke="#37474f" d="M1870.38,-121.75C1870.38,-121.75 1870.38,-64.88 1870.38,-64.88"/>
<polygon fill="#37474f" stroke="#37474f" points="1873.88,-64.88 1870.38,-54.88 1866.88,-64.88 1873.88,-64.88"/>
<text xml:space="preserve" text-anchor="middle" x="1890.38" y="-91.41" font-family="Helvetica,sans-Serif" font-size="7.00">GET /crm</text>
</g>
<!-- etl_conn_claims&#45;&gt;mock_api -->
<g id="edge39" class="edge">
<title>etl_conn_claims&#45;&gt;mock_api</title>
<path fill="none" stroke="#37474f" d="M1959.81,-121.75C1959.81,-121.75 1959.81,-64.88 1959.81,-64.88"/>
<polygon fill="#37474f" stroke="#37474f" points="1963.31,-64.88 1959.81,-54.88 1956.31,-64.88 1963.31,-64.88"/>
<text xml:space="preserve" text-anchor="middle" x="1991.5" y="-91.41" font-family="Helvetica,sans-Serif" font-size="7.00">GET /claims</text>
</g>
<!-- etl_conn_fsm&#45;&gt;mock_api -->
<g id="edge40" class="edge">
<title>etl_conn_fsm&#45;&gt;mock_api</title>
<path fill="none" stroke="#37474f" d="M2113,-121.76C2113,-91.66 2113,-35 2113,-35 2113,-35 1994.45,-35 1994.45,-35"/>
<polygon fill="#37474f" stroke="#37474f" points="1994.45,-31.5 1984.45,-35 1994.45,-38.5 1994.45,-31.5"/>
<text xml:space="preserve" text-anchor="middle" x="2102.38" y="-91.41" font-family="Helvetica,sans-Serif" font-size="7.00">GET /fsm</text>
</g>
</g>
</svg>
