<?xml version="1.0" encoding="UTF-8" standalone="no"?>
<!DOCTYPE svg PUBLIC "-//W3C//DTD SVG 1.1//EN"
 "http://www.w3.org/Graphics/SVG/1.1/DTD/svg11.dtd">
<!-- Generated by graphviz version 14.1.5 (20260411.2331)
 -->
<!-- Title: L4_Code Pages: 1 -->
<svg width="1208pt" height="1179pt"
 viewBox="0.00 0.00 1208.00 1179.00" xmlns="http://www.w3.org/2000/svg" xmlns:xlink="http://www.w3.org/1999/xlink">
<g id="graph0" class="graph" transform="scale(1 1) rotate(0) translate(4 1175)">
<title>L4_Code</title>
<polygon fill="white" stroke="none" points="-4,4 -4,-1175 1204.25,-1175 1204.25,4 -4,4"/>
<g id="clust1" class="cluster">
<title>cluster_entry</title>
<polygon fill="none" stroke="#1565c0" stroke-dasharray="5,2" points="8,-293 8,-669 287.5,-669 287.5,-293 8,-293"/>
<text xml:space="preserve" text-anchor="middle" x="147.75" y="-655.5" font-family="Helvetica,sans-Serif" font-size="10.00">Entry Points</text>
</g>
<g id="clust2" class="cluster">
<title>cluster_api_routes</title>
<polygon fill="none" stroke="#2e7d32" stroke-dasharray="5,2" points="318.25,-532 318.25,-1091 463.5,-1091 463.5,-532 318.25,-532"/>
<text xml:space="preserve" text-anchor="middle" x="390.88" y="-1077.5" font-family="Helvetica,sans-Serif" font-size="10.00">api/main.py routes</text>
</g>
<g id="clust3" class="cluster">
<title>cluster_api_integrations</title>
<polygon fill="none" stroke="#00838f" stroke-dasharray="5,2" points="503.88,-690 503.88,-883 658.62,-883 658.62,-690 503.88,-690"/>
<text xml:space="preserve" text-anchor="middle" x="581.25" y="-869.5" font-family="Helvetica,sans-Serif" font-size="10.00">api/main.py runtime integrations</text>
</g>
<g id="clust4" class="cluster">
<title>cluster_agent_code</title>
<polygon fill="none" stroke="#6a1b9a" stroke-dasharray="5,2" points="538.12,-1031 538.12,-1163 1167.12,-1163 1167.12,-1031 538.12,-1031"/>
<text xml:space="preserve" text-anchor="middle" x="852.62" y="-1149.5" font-family="Helvetica,sans-Serif" font-size="10.00">agents/diagnosis_graph.py (4 nodes)</text>
</g>
<g id="clust5" class="cluster">
<title>cluster_graph_modules</title>
<polygon fill="none" stroke="#e65100" stroke-dasharray="5,2" points="1046.25,-329 1046.25,-827 1192.25,-827 1192.25,-329 1046.25,-329"/>
<text xml:space="preserve" text-anchor="middle" x="1119.25" y="-813.5" font-family="Helvetica,sans-Serif" font-size="10.00">graph/ core modules</text>
</g>
<g id="clust6" class="cluster">
<title>cluster_etl_code</title>
<polygon fill="none" stroke="#5d4037" stroke-dasharray="5,2" points="311.5,-8 311.5,-384 839.5,-384 839.5,-8 311.5,-8"/>
<text xml:space="preserve" text-anchor="middle" x="575.5" y="-370.5" font-family="Helvetica,sans-Serif" font-size="10.00">graph/enterprise_pipeline/</text>
</g>
<g id="clust7" class="cluster">
<title>cluster_integrations_code</title>
<polygon fill="none" stroke="#00838f" stroke-dasharray="5,2" points="494.25,-891 494.25,-1023 667.25,-1023 667.25,-891 494.25,-891"/>
<text xml:space="preserve" text-anchor="middle" x="580.75" y="-1009.5" font-family="Helvetica,sans-Serif" font-size="10.00">integrations/</text>
</g>
<g id="clust8" class="cluster">
<title>cluster_sim</title>
<polygon fill="none" stroke="#455a64" stroke-dasharray="5,2" points="881.12,-160 881.12,-231 1004.62,-231 1004.62,-160 881.12,-160"/>
<text xml:space="preserve" text-anchor="middle" x="942.88" y="-217.5" font-family="Helvetica,sans-Serif" font-size="10.00">simulation/</text>
</g>
<!-- streamlit -->
<g id="node1" class="node">
<title>streamlit</title>
<path fill="#e3f2fd" stroke="black" d="M172.25,-581C172.25,-581 123.25,-581 123.25,-581 117.25,-581 111.25,-575 111.25,-569 111.25,-569 111.25,-557 111.25,-557 111.25,-551 117.25,-545 123.25,-545 123.25,-545 172.25,-545 172.25,-545 178.25,-545 184.25,-551 184.25,-557 184.25,-557 184.25,-569 184.25,-569 184.25,-575 178.25,-581 172.25,-581"/>
<text xml:space="preserve" text-anchor="middle" x="147.75" y="-564.4" font-family="Helvetica,sans-Serif" font-size="8.00">ui/app.py</text>
<text xml:space="preserve" text-anchor="middle" x="147.75" y="-555.4" font-family="Helvetica,sans-Serif" font-size="8.00">Streamlit main()</text>
</g>
<!-- r_diag -->
<g id="node7" class="node">
<title>r_diag</title>
<path fill="white" stroke="black" d="M415.75,-759C415.75,-759 366,-759 366,-759 360,-759 354,-753 354,-747 354,-747 354,-735 354,-735 354,-729 360,-723 366,-723 366,-723 415.75,-723 415.75,-723 421.75,-723 427.75,-729 427.75,-735 427.75,-735 427.75,-747 427.75,-747 427.75,-753 421.75,-759 415.75,-759"/>
<text xml:space="preserve" text-anchor="middle" x="390.88" y="-737.9" font-family="Helvetica,sans-Serif" font-size="8.00">POST /diagnose</text>
</g>
<!-- streamlit&#45;&gt;r_diag -->
<g id="edge1" class="edge">
<title>streamlit&#45;&gt;r_diag</title>
<path fill="none" stroke="#37474f" d="M184.47,-552.75C196.22,-552.75 206.25,-552.75 206.25,-552.75 206.25,-552.75 206.25,-735 206.25,-735 206.25,-735 342,-735 342,-735"/>
<polygon fill="#37474f" stroke="#37474f" points="342,-738.5 352,-735 342,-731.5 342,-738.5"/>
</g>
<!-- r_claim_submit -->
<g id="node8" class="node">
<title>r_claim_submit</title>
<path fill="white" stroke="black" d="M423.25,-942C423.25,-942 358.5,-942 358.5,-942 352.5,-942 346.5,-936 346.5,-930 346.5,-930 346.5,-918 346.5,-918 346.5,-912 352.5,-906 358.5,-906 358.5,-906 423.25,-906 423.25,-906 429.25,-906 435.25,-912 435.25,-918 435.25,-918 435.25,-930 435.25,-930 435.25,-936 429.25,-942 423.25,-942"/>
<text xml:space="preserve" text-anchor="middle" x="390.88" y="-920.9" font-family="Helvetica,sans-Serif" font-size="8.00">POST /claims/submit</text>
</g>
<!-- streamlit&#45;&gt;r_claim_submit -->
<g id="edge2" class="edge">
<title>streamlit&#45;&gt;r_claim_submit</title>
<path fill="none" stroke="#37474f" d="M184.63,-560.5C192.88,-560.5 199.25,-560.5 199.25,-560.5 199.25,-560.5 199.25,-924 199.25,-924 199.25,-924 334.92,-924 334.92,-924"/>
<polygon fill="#37474f" stroke="#37474f" points="334.92,-927.5 344.92,-924 334.92,-920.5 334.92,-927.5"/>
</g>
<!-- r_graph_ont -->
<g id="node11" class="node">
<title>r_graph_ont</title>
<path fill="white" stroke="black" d="M423.62,-576C423.62,-576 358.12,-576 358.12,-576 352.12,-576 346.12,-570 346.12,-564 346.12,-564 346.12,-552 346.12,-552 346.12,-546 352.12,-540 358.12,-540 358.12,-540 423.62,-540 423.62,-540 429.62,-540 435.62,-546 435.62,-552 435.62,-552 435.62,-564 435.62,-564 435.62,-570 429.62,-576 423.62,-576"/>
<text xml:space="preserve" text-anchor="middle" x="390.88" y="-554.9" font-family="Helvetica,sans-Serif" font-size="8.00">GET /graph/ontology</text>
</g>
<!-- streamlit&#45;&gt;r_graph_ont -->
<g id="edge3" class="edge">
<title>streamlit&#45;&gt;r_graph_ont</title>
<path fill="none" stroke="#37474f" d="M184.68,-568.25C184.68,-568.25 334.21,-568.25 334.21,-568.25"/>
<polygon fill="#37474f" stroke="#37474f" points="334.21,-571.75 344.21,-568.25 334.21,-564.75 334.21,-571.75"/>
</g>
<!-- fastapi -->
<g id="node2" class="node">
<title>fastapi</title>
<path fill="#e8f5e9" stroke="black" d="M165.88,-642C165.88,-642 129.62,-642 129.62,-642 123.62,-642 117.62,-636 117.62,-630 117.62,-630 117.62,-618 117.62,-618 117.62,-612 123.62,-606 129.62,-606 129.62,-606 165.88,-606 165.88,-606 171.88,-606 177.88,-612 177.88,-618 177.88,-618 177.88,-630 177.88,-630 177.88,-636 171.88,-642 165.88,-642"/>
<text xml:space="preserve" text-anchor="middle" x="147.75" y="-625.4" font-family="Helvetica,sans-Serif" font-size="8.00">api/main.py</text>
<text xml:space="preserve" text-anchor="middle" x="147.75" y="-616.4" font-family="Helvetica,sans-Serif" font-size="8.00">FastAPI app</text>
</g>
<!-- fastapi&#45;&gt;r_diag -->
<g id="edge4" class="edge">
<title>fastapi&#45;&gt;r_diag</title>
<path fill="none" stroke="#37474f" d="M147.25,-642.41C147.25,-676.73 147.25,-747 147.25,-747 147.25,-747 342.09,-747 342.09,-747"/>
<polygon fill="#37474f" stroke="#37474f" points="342.09,-750.5 352.09,-747 342.09,-743.5 342.09,-750.5"/>
</g>
<!-- cli_etl -->
<g id="node3" class="node">
<title>cli_etl</title>
<path fill="#efebe9" stroke="black" d="M231.12,-337C231.12,-337 64.38,-337 64.38,-337 58.38,-337 52.38,-331 52.38,-325 52.38,-325 52.38,-313 52.38,-313 52.38,-307 58.38,-301 64.38,-301 64.38,-301 231.12,-301 231.12,-301 237.12,-301 243.12,-307 243.12,-313 243.12,-313 243.12,-325 243.12,-325 243.12,-331 237.12,-337 231.12,-337"/>
<text xml:space="preserve" text-anchor="middle" x="147.75" y="-315.9" font-family="Helvetica,sans-Serif" font-size="8.00">python &#45;m graph.enterprise_pipeline.orchestrator</text>
</g>
<!-- orch -->
<g id="node32" class="node">
<title>orch</title>
<path fill="white" stroke="black" d="M413.5,-296C413.5,-296 368.25,-296 368.25,-296 362.25,-296 356.25,-290 356.25,-284 356.25,-284 356.25,-272 356.25,-272 356.25,-266 362.25,-260 368.25,-260 368.25,-260 413.5,-260 413.5,-260 419.5,-260 425.5,-266 425.5,-272 425.5,-272 425.5,-284 425.5,-284 425.5,-290 419.5,-296 413.5,-296"/>
<text xml:space="preserve" text-anchor="middle" x="390.88" y="-279.4" font-family="Helvetica,sans-Serif" font-size="8.00">orchestrator.py</text>
<text xml:space="preserve" text-anchor="middle" x="390.88" y="-270.4" font-family="Helvetica,sans-Serif" font-size="8.00">run_all()</text>
</g>
<!-- cli_etl&#45;&gt;orch -->
<g id="edge28" class="edge">
<title>cli_etl&#45;&gt;orch</title>
<path fill="none" stroke="#37474f" d="M243.29,-311C311.51,-311 391.25,-311 391.25,-311 391.25,-311 391.25,-307.94 391.25,-307.94"/>
<polygon fill="#37474f" stroke="#37474f" points="394.75,-307.94 391.25,-297.94 387.75,-307.94 394.75,-307.94"/>
</g>
<!-- cli_pim -->
<g id="node4" class="node">
<title>cli_pim</title>
<path fill="#efebe9" stroke="black" d="M267.5,-398C267.5,-398 28,-398 28,-398 22,-398 16,-392 16,-386 16,-386 16,-374 16,-374 16,-368 22,-362 28,-362 28,-362 267.5,-362 267.5,-362 273.5,-362 279.5,-368 279.5,-374 279.5,-374 279.5,-386 279.5,-386 279.5,-392 273.5,-398 267.5,-398"/>
<text xml:space="preserve" text-anchor="middle" x="147.75" y="-376.9" font-family="Helvetica,sans-Serif" font-size="8.00">python &#45;m graph.enterprise_pipeline.transformers.pim_blueprint_sync</text>
</g>
<!-- pim_sync -->
<g id="node37" class="node">
<title>pim_sync</title>
<path fill="white" stroke="black" d="M450.25,-357C450.25,-357 331.5,-357 331.5,-357 325.5,-357 319.5,-351 319.5,-345 319.5,-345 319.5,-333 319.5,-333 319.5,-327 325.5,-321 331.5,-321 331.5,-321 450.25,-321 450.25,-321 456.25,-321 462.25,-327 462.25,-333 462.25,-333 462.25,-345 462.25,-345 462.25,-351 456.25,-357 450.25,-357"/>
<text xml:space="preserve" text-anchor="middle" x="390.88" y="-340.4" font-family="Helvetica,sans-Serif" font-size="8.00">transformers/pim_blueprint_sync.py</text>
<text xml:space="preserve" text-anchor="middle" x="390.88" y="-331.4" font-family="Helvetica,sans-Serif" font-size="8.00">sync_pim_fixture()</text>
</g>
<!-- cli_pim&#45;&gt;pim_sync -->
<g id="edge26" class="edge">
<title>cli_pim&#45;&gt;pim_sync</title>
<path fill="none" stroke="#37474f" d="M279.6,-367.5C309.81,-367.5 333.25,-367.5 333.25,-367.5 333.25,-367.5 333.25,-366.47 333.25,-366.47"/>
<polygon fill="#37474f" stroke="#37474f" points="336.75,-368.72 333.25,-358.72 329.75,-368.72 336.75,-368.72"/>
</g>
<!-- cli_synth -->
<g id="node5" class="node">
<title>cli_synth</title>
<path fill="#fff3e0" stroke="black" d="M219.88,-459C219.88,-459 75.62,-459 75.62,-459 69.62,-459 63.62,-453 63.62,-447 63.62,-447 63.62,-435 63.62,-435 63.62,-429 69.62,-423 75.62,-423 75.62,-423 219.88,-423 219.88,-423 225.88,-423 231.88,-429 231.88,-435 231.88,-435 231.88,-447 231.88,-447 231.88,-453 225.88,-459 219.88,-459"/>
<text xml:space="preserve" text-anchor="middle" x="147.75" y="-437.9" font-family="Helvetica,sans-Serif" font-size="8.00">python &#45;m graph.synthetic_data_generator</text>
</g>
<!-- oem_cat -->
<g id="node29" class="node">
<title>oem_cat</title>
<path fill="white" stroke="black" d="M1159.12,-373C1159.12,-373 1079.38,-373 1079.38,-373 1073.38,-373 1067.38,-367 1067.38,-361 1067.38,-361 1067.38,-349 1067.38,-349 1067.38,-343 1073.38,-337 1079.38,-337 1079.38,-337 1159.12,-337 1159.12,-337 1165.12,-337 1171.12,-343 1171.12,-349 1171.12,-349 1171.12,-361 1171.12,-361 1171.12,-367 1165.12,-373 1159.12,-373"/>
<text xml:space="preserve" text-anchor="middle" x="1119.25" y="-356.4" font-family="Helvetica,sans-Serif" font-size="8.00">oem_product_catalog.py</text>
<text xml:space="preserve" text-anchor="middle" x="1119.25" y="-347.4" font-family="Helvetica,sans-Serif" font-size="8.00">10 OEM + 3 legacy</text>
</g>
<!-- cli_synth&#45;&gt;oem_cat -->
<g id="edge23" class="edge">
<title>cli_synth&#45;&gt;oem_cat</title>
<path fill="none" stroke="#37474f" d="M232.36,-426.67C267.06,-426.67 299.25,-426.67 299.25,-426.67 299.25,-426.67 299.25,-370.25 299.25,-370.25 299.25,-370.25 1055.51,-370.25 1055.51,-370.25"/>
<polygon fill="#37474f" stroke="#37474f" points="1055.51,-373.75 1065.51,-370.25 1055.51,-366.75 1055.51,-373.75"/>
</g>
<!-- cli_synth&#45;&gt;pim_sync -->
<g id="edge24" class="edge">
<title>cli_synth&#45;&gt;pim_sync</title>
<path fill="none" stroke="#37474f" d="M232.3,-430.33C283.6,-430.33 339.25,-430.33 339.25,-430.33 339.25,-430.33 339.25,-369 339.25,-369"/>
<polygon fill="#37474f" stroke="#37474f" points="342.75,-369 339.25,-359 335.75,-369 342.75,-369"/>
</g>
<!-- cli_pop -->
<g id="node6" class="node">
<title>cli_pop</title>
<path fill="#fff3e0" stroke="black" d="M201.88,-520C201.88,-520 93.62,-520 93.62,-520 87.62,-520 81.62,-514 81.62,-508 81.62,-508 81.62,-496 81.62,-496 81.62,-490 87.62,-484 93.62,-484 93.62,-484 201.88,-484 201.88,-484 207.88,-484 213.88,-490 213.88,-496 213.88,-496 213.88,-508 213.88,-508 213.88,-514 207.88,-520 201.88,-520"/>
<text xml:space="preserve" text-anchor="middle" x="147.75" y="-498.9" font-family="Helvetica,sans-Serif" font-size="8.00">python graph/populate_graph.py</text>
</g>
<!-- pop_graph -->
<g id="node31" class="node">
<title>pop_graph</title>
<path fill="white" stroke="black" d="M1148.62,-556C1148.62,-556 1089.88,-556 1089.88,-556 1083.88,-556 1077.88,-550 1077.88,-544 1077.88,-544 1077.88,-532 1077.88,-532 1077.88,-526 1083.88,-520 1089.88,-520 1089.88,-520 1148.62,-520 1148.62,-520 1154.62,-520 1160.62,-526 1160.62,-532 1160.62,-532 1160.62,-544 1160.62,-544 1160.62,-550 1154.62,-556 1148.62,-556"/>
<text xml:space="preserve" text-anchor="middle" x="1119.25" y="-534.9" font-family="Helvetica,sans-Serif" font-size="8.00">populate_graph.py</text>
</g>
<!-- cli_pop&#45;&gt;pop_graph -->
<g id="edge25" class="edge">
<title>cli_pop&#45;&gt;pop_graph</title>
<path fill="none" stroke="#37474f" d="M191.25,-520.21C191.25,-525.55 191.25,-530 191.25,-530 191.25,-530 1066.06,-530 1066.06,-530"/>
<polygon fill="#37474f" stroke="#37474f" points="1066.06,-533.5 1076.06,-530 1066.06,-526.5 1066.06,-533.5"/>
</g>
<!-- crm_enrich -->
<g id="node16" class="node">
<title>crm_enrich</title>
<path fill="white" stroke="black" d="M625.5,-856C625.5,-856 536,-856 536,-856 530,-856 524,-850 524,-844 524,-844 524,-832 524,-832 524,-826 530,-820 536,-820 536,-820 625.5,-820 625.5,-820 631.5,-820 637.5,-826 637.5,-832 637.5,-832 637.5,-844 637.5,-844 637.5,-850 631.5,-856 625.5,-856"/>
<text xml:space="preserve" text-anchor="middle" x="580.75" y="-839.4" font-family="Helvetica,sans-Serif" font-size="8.00">crm_enrichment.py</text>
<text xml:space="preserve" text-anchor="middle" x="580.75" y="-830.4" font-family="Helvetica,sans-Serif" font-size="8.00">enrich_session_from_crm()</text>
</g>
<!-- r_diag&#45;&gt;crm_enrich -->
<g id="edge5" class="edge">
<title>r_diag&#45;&gt;crm_enrich</title>
<path fill="none" stroke="#37474f" d="M428.22,-754C431.87,-754 434.25,-754 434.25,-754 434.25,-754 434.25,-832.5 434.25,-832.5 434.25,-832.5 512.18,-832.5 512.18,-832.5"/>
<polygon fill="#37474f" stroke="#37474f" points="512.18,-836 522.18,-832.5 512.18,-829 512.18,-836"/>
</g>
<!-- case_mgmt -->
<g id="node17" class="node">
<title>case_mgmt</title>
<path fill="white" stroke="black" d="M631.88,-795C631.88,-795 529.62,-795 529.62,-795 523.62,-795 517.62,-789 517.62,-783 517.62,-783 517.62,-771 517.62,-771 517.62,-765 523.62,-759 529.62,-759 529.62,-759 631.88,-759 631.88,-759 637.88,-759 643.88,-765 643.88,-771 643.88,-771 643.88,-783 643.88,-783 643.88,-789 637.88,-795 631.88,-795"/>
<text xml:space="preserve" text-anchor="middle" x="580.75" y="-778.4" font-family="Helvetica,sans-Serif" font-size="8.00">case_management.py</text>
<text xml:space="preserve" text-anchor="middle" x="580.75" y="-769.4" font-family="Helvetica,sans-Serif" font-size="8.00">create_case_from_escalation()</text>
</g>
<!-- r_diag&#45;&gt;case_mgmt -->
<g id="edge8" class="edge">
<title>r_diag&#45;&gt;case_mgmt</title>
<path fill="none" stroke="#37474f" d="M428.24,-744C466.76,-744 521.25,-744 521.25,-744 521.25,-744 521.25,-747.06 521.25,-747.06"/>
<polygon fill="#37474f" stroke="#37474f" points="517.75,-747.06 521.25,-757.06 524.75,-747.06 517.75,-747.06"/>
</g>
<!-- warranty_elig -->
<g id="node18" class="node">
<title>warranty_elig</title>
<path fill="white" stroke="black" d="M624.38,-734C624.38,-734 537.12,-734 537.12,-734 531.12,-734 525.12,-728 525.12,-722 525.12,-722 525.12,-710 525.12,-710 525.12,-704 531.12,-698 537.12,-698 537.12,-698 624.38,-698 624.38,-698 630.38,-698 636.38,-704 636.38,-710 636.38,-710 636.38,-722 636.38,-722 636.38,-728 630.38,-734 624.38,-734"/>
<text xml:space="preserve" text-anchor="middle" x="580.75" y="-717.4" font-family="Helvetica,sans-Serif" font-size="8.00">warranty_eligibility.py</text>
<text xml:space="preserve" text-anchor="middle" x="580.75" y="-708.4" font-family="Helvetica,sans-Serif" font-size="8.00">check_warranty_eligibility()</text>
</g>
<!-- r_diag&#45;&gt;warranty_elig -->
<g id="edge6" class="edge">
<title>r_diag&#45;&gt;warranty_elig</title>
<path fill="none" stroke="#37474f" d="M427.94,-728.5C427.94,-728.5 513.18,-728.5 513.18,-728.5"/>
<polygon fill="#37474f" stroke="#37474f" points="513.18,-732 523.18,-728.5 513.18,-725 513.18,-732"/>
</g>
<!-- node_detect -->
<g id="node19" class="node">
<title>node_detect</title>
<path fill="white" stroke="black" d="M603.38,-1075C603.38,-1075 558.12,-1075 558.12,-1075 552.12,-1075 546.12,-1069 546.12,-1063 546.12,-1063 546.12,-1051 546.12,-1051 546.12,-1045 552.12,-1039 558.12,-1039 558.12,-1039 603.38,-1039 603.38,-1039 609.38,-1039 615.38,-1045 615.38,-1051 615.38,-1051 615.38,-1063 615.38,-1063 615.38,-1069 609.38,-1075 603.38,-1075"/>
<text xml:space="preserve" text-anchor="middle" x="580.75" y="-1053.9" font-family="Helvetica,sans-Serif" font-size="8.00">detect_product</text>
</g>
<!-- r_diag&#45;&gt;node_detect -->
<g id="edge7" class="edge">
<title>r_diag&#45;&gt;node_detect</title>
<path fill="none" stroke="#37474f" d="M428.18,-749C439.62,-749 449.25,-749 449.25,-749 449.25,-749 449.25,-1055.67 449.25,-1055.67 449.25,-1055.67 534.34,-1055.67 534.34,-1055.67"/>
<polygon fill="#37474f" stroke="#37474f" points="534.34,-1059.17 544.34,-1055.67 534.34,-1052.17 534.34,-1059.17"/>
</g>
<!-- r_claim_submit&#45;&gt;crm_enrich -->
<g id="edge9" class="edge">
<title>r_claim_submit&#45;&gt;crm_enrich</title>
<path fill="none" stroke="#37474f" d="M435.74,-915.67C461.69,-915.67 489.25,-915.67 489.25,-915.67 489.25,-915.67 489.25,-850.5 489.25,-850.5 489.25,-850.5 512.07,-850.5 512.07,-850.5"/>
<polygon fill="#37474f" stroke="#37474f" points="512.07,-854 522.07,-850.5 512.07,-847 512.07,-854"/>
</g>
<!-- r_claim_submit&#45;&gt;node_detect -->
<g id="edge10" class="edge">
<title>r_claim_submit&#45;&gt;node_detect</title>
<path fill="none" stroke="#37474f" d="M435.53,-938.5C455.77,-938.5 475.25,-938.5 475.25,-938.5 475.25,-938.5 475.25,-1047.33 475.25,-1047.33 475.25,-1047.33 534.4,-1047.33 534.4,-1047.33"/>
<polygon fill="#37474f" stroke="#37474f" points="534.4,-1050.83 544.4,-1047.33 534.4,-1043.83 534.4,-1050.83"/>
</g>
<!-- claims_wf -->
<g id="node43" class="node">
<title>claims_wf</title>
<path fill="white" stroke="black" d="M628.12,-935C628.12,-935 533.38,-935 533.38,-935 527.38,-935 521.38,-929 521.38,-923 521.38,-923 521.38,-911 521.38,-911 521.38,-905 527.38,-899 533.38,-899 533.38,-899 628.12,-899 628.12,-899 634.12,-899 640.12,-905 640.12,-911 640.12,-911 640.12,-923 640.12,-923 640.12,-929 634.12,-935 628.12,-935"/>
<text xml:space="preserve" text-anchor="middle" x="580.75" y="-918.4" font-family="Helvetica,sans-Serif" font-size="8.00">claims_workflow.py</text>
<text xml:space="preserve" text-anchor="middle" x="580.75" y="-909.4" font-family="Helvetica,sans-Serif" font-size="8.00">submit · update_claim_status</text>
</g>
<!-- r_claim_submit&#45;&gt;claims_wf -->
<g id="edge11" class="edge">
<title>r_claim_submit&#45;&gt;claims_wf</title>
<path fill="none" stroke="#37474f" d="M435.39,-925.33C435.39,-925.33 509.54,-925.33 509.54,-925.33"/>
<polygon fill="#37474f" stroke="#37474f" points="509.54,-928.83 519.54,-925.33 509.54,-921.83 509.54,-928.83"/>
</g>
<!-- r_claim_list -->
<g id="node9" class="node">
<title>r_claim_list</title>
<path fill="white" stroke="black" d="M415,-820C415,-820 366.75,-820 366.75,-820 360.75,-820 354.75,-814 354.75,-808 354.75,-808 354.75,-796 354.75,-796 354.75,-790 360.75,-784 366.75,-784 366.75,-784 415,-784 415,-784 421,-784 427,-790 427,-796 427,-796 427,-808 427,-808 427,-814 421,-820 415,-820"/>
<text xml:space="preserve" text-anchor="middle" x="390.88" y="-803.4" font-family="Helvetica,sans-Serif" font-size="8.00">GET /claims</text>
<text xml:space="preserve" text-anchor="middle" x="390.88" y="-794.4" font-family="Helvetica,sans-Serif" font-size="8.00">GET /claims/{id}</text>
</g>
<!-- r_claim_list&#45;&gt;claims_wf -->
<g id="edge12" class="edge">
<title>r_claim_list&#45;&gt;claims_wf</title>
<path fill="none" stroke="#37474f" d="M427.29,-810C440.5,-810 452.25,-810 452.25,-810 452.25,-810 452.25,-901.33 452.25,-901.33 452.25,-901.33 509.5,-901.33 509.5,-901.33"/>
<polygon fill="#37474f" stroke="#37474f" points="509.5,-904.83 519.5,-901.33 509.5,-897.83 509.5,-904.83"/>
</g>
<!-- r_claim_patch -->
<g id="node10" class="node">
<title>r_claim_patch</title>
<path fill="white" stroke="black" d="M431.88,-881C431.88,-881 349.88,-881 349.88,-881 343.88,-881 337.88,-875 337.88,-869 337.88,-869 337.88,-857 337.88,-857 337.88,-851 343.88,-845 349.88,-845 349.88,-845 431.88,-845 431.88,-845 437.88,-845 443.88,-851 443.88,-857 443.88,-857 443.88,-869 443.88,-869 443.88,-875 437.88,-881 431.88,-881"/>
<text xml:space="preserve" text-anchor="middle" x="390.88" y="-859.9" font-family="Helvetica,sans-Serif" font-size="8.00">PATCH /claims/{id}/status</text>
</g>
<!-- r_claim_patch&#45;&gt;claims_wf -->
<g id="edge13" class="edge">
<title>r_claim_patch&#45;&gt;claims_wf</title>
<path fill="none" stroke="#37474f" d="M440.25,-881.43C440.25,-892.19 440.25,-903.67 440.25,-903.67 440.25,-903.67 509.65,-903.67 509.65,-903.67"/>
<polygon fill="#37474f" stroke="#37474f" points="509.65,-907.17 519.65,-903.67 509.65,-900.17 509.65,-907.17"/>
</g>
<!-- graph_viz -->
<g id="node27" class="node">
<title>graph_viz</title>
<path fill="white" stroke="black" d="M1170,-678C1170,-678 1068.5,-678 1068.5,-678 1062.5,-678 1056.5,-672 1056.5,-666 1056.5,-666 1056.5,-654 1056.5,-654 1056.5,-648 1062.5,-642 1068.5,-642 1068.5,-642 1170,-642 1170,-642 1176,-642 1182,-648 1182,-654 1182,-654 1182,-666 1182,-666 1182,-672 1176,-678 1170,-678"/>
<text xml:space="preserve" text-anchor="middle" x="1119.25" y="-661.4" font-family="Helvetica,sans-Serif" font-size="8.00">graph_visualization.py</text>
<text xml:space="preserve" text-anchor="middle" x="1119.25" y="-652.4" font-family="Helvetica,sans-Serif" font-size="8.00">get_*_subgraph · render_pyvis</text>
</g>
<!-- r_graph_ont&#45;&gt;graph_viz -->
<g id="edge14" class="edge">
<title>r_graph_ont&#45;&gt;graph_viz</title>
<path fill="none" stroke="#37474f" d="M435.87,-566C468.62,-566 507.25,-566 507.25,-566 507.25,-566 507.25,-648.67 507.25,-648.67 507.25,-648.67 1044.55,-648.67 1044.55,-648.67"/>
<polygon fill="#37474f" stroke="#37474f" points="1044.55,-652.17 1054.55,-648.67 1044.55,-645.17 1044.55,-652.17"/>
</g>
<!-- r_graph_prod -->
<g id="node12" class="node">
<title>r_graph_prod</title>
<path fill="white" stroke="black" d="M429.25,-698C429.25,-698 352.5,-698 352.5,-698 346.5,-698 340.5,-692 340.5,-686 340.5,-686 340.5,-674 340.5,-674 340.5,-668 346.5,-662 352.5,-662 352.5,-662 429.25,-662 429.25,-662 435.25,-662 441.25,-668 441.25,-674 441.25,-674 441.25,-686 441.25,-686 441.25,-692 435.25,-698 429.25,-698"/>
<text xml:space="preserve" text-anchor="middle" x="390.88" y="-676.9" font-family="Helvetica,sans-Serif" font-size="8.00">GET /graph/product/{id}</text>
</g>
<!-- r_graph_prod&#45;&gt;graph_viz -->
<g id="edge15" class="edge">
<title>r_graph_prod&#45;&gt;graph_viz</title>
<path fill="none" stroke="#37474f" d="M441.51,-670C441.51,-670 1044.49,-670 1044.49,-670"/>
<polygon fill="#37474f" stroke="#37474f" points="1044.49,-673.5 1054.49,-670 1044.49,-666.5 1044.49,-673.5"/>
</g>
<!-- r_graph_diag -->
<g id="node13" class="node">
<title>r_graph_diag</title>
<path fill="white" stroke="black" d="M443.5,-637C443.5,-637 338.25,-637 338.25,-637 332.25,-637 326.25,-631 326.25,-625 326.25,-625 326.25,-613 326.25,-613 326.25,-607 332.25,-601 338.25,-601 338.25,-601 443.5,-601 443.5,-601 449.5,-601 455.5,-607 455.5,-613 455.5,-613 455.5,-625 455.5,-625 455.5,-631 449.5,-637 443.5,-637"/>
<text xml:space="preserve" text-anchor="middle" x="390.88" y="-615.9" font-family="Helvetica,sans-Serif" font-size="8.00">GET /graph/diagnosis&#45;subgraph</text>
</g>
<!-- r_graph_diag&#45;&gt;graph_viz -->
<g id="edge16" class="edge">
<title>r_graph_diag&#45;&gt;graph_viz</title>
<path fill="none" stroke="#37474f" d="M447.25,-637.17C447.25,-646.25 447.25,-655.33 447.25,-655.33 447.25,-655.33 1044.52,-655.33 1044.52,-655.33"/>
<polygon fill="#37474f" stroke="#37474f" points="1044.52,-658.83 1054.52,-655.33 1044.52,-651.83 1044.52,-658.83"/>
</g>
<!-- r_health -->
<g id="node14" class="node">
<title>r_health</title>
<path fill="white" stroke="black" d="M407.88,-1003C407.88,-1003 373.88,-1003 373.88,-1003 367.88,-1003 361.88,-997 361.88,-991 361.88,-991 361.88,-979 361.88,-979 361.88,-973 367.88,-967 373.88,-967 373.88,-967 407.88,-967 407.88,-967 413.88,-967 419.88,-973 419.88,-979 419.88,-979 419.88,-991 419.88,-991 419.88,-997 413.88,-1003 407.88,-1003"/>
<text xml:space="preserve" text-anchor="middle" x="390.88" y="-981.9" font-family="Helvetica,sans-Serif" font-size="8.00">GET /health</text>
</g>
<!-- r_lineage -->
<g id="node15" class="node">
<title>r_lineage</title>
<path fill="white" stroke="black" d="M424.75,-1064C424.75,-1064 357,-1064 357,-1064 351,-1064 345,-1058 345,-1052 345,-1052 345,-1040 345,-1040 345,-1034 351,-1028 357,-1028 357,-1028 424.75,-1028 424.75,-1028 430.75,-1028 436.75,-1034 436.75,-1040 436.75,-1040 436.75,-1052 436.75,-1052 436.75,-1058 430.75,-1064 424.75,-1064"/>
<text xml:space="preserve" text-anchor="middle" x="390.88" y="-1042.9" font-family="Helvetica,sans-Serif" font-size="8.00">GET /lineage/batches</text>
</g>
<!-- node_run -->
<g id="node20" class="node">
<title>node_run</title>
<path fill="white" stroke="black" d="M786.12,-1119C786.12,-1119 744.62,-1119 744.62,-1119 738.62,-1119 732.62,-1113 732.62,-1107 732.62,-1107 732.62,-1095 732.62,-1095 732.62,-1089 738.62,-1083 744.62,-1083 744.62,-1083 786.12,-1083 786.12,-1083 792.12,-1083 798.12,-1089 798.12,-1095 798.12,-1095 798.12,-1107 798.12,-1107 798.12,-1113 792.12,-1119 786.12,-1119"/>
<text xml:space="preserve" text-anchor="middle" x="765.38" y="-1097.9" font-family="Helvetica,sans-Serif" font-size="8.00">run_diagnosis</text>
</g>
<!-- node_detect&#45;&gt;node_run -->
<g id="edge17" class="edge">
<title>node_detect&#45;&gt;node_run</title>
<path fill="none" stroke="#37474f" d="M615.45,-1063C668.9,-1063 765.25,-1063 765.25,-1063 765.25,-1063 765.25,-1071.38 765.25,-1071.38"/>
<polygon fill="#37474f" stroke="#37474f" points="761.75,-1071.38 765.25,-1081.38 768.75,-1071.38 761.75,-1071.38"/>
</g>
<!-- tools_py -->
<g id="node23" class="node">
<title>tools_py</title>
<path fill="white" stroke="black" d="M1002.25,-1075C1002.25,-1075 883.5,-1075 883.5,-1075 877.5,-1075 871.5,-1069 871.5,-1063 871.5,-1063 871.5,-1051 871.5,-1051 871.5,-1045 877.5,-1039 883.5,-1039 883.5,-1039 1002.25,-1039 1002.25,-1039 1008.25,-1039 1014.25,-1045 1014.25,-1051 1014.25,-1051 1014.25,-1063 1014.25,-1063 1014.25,-1069 1008.25,-1075 1002.25,-1075"/>
<text xml:space="preserve" text-anchor="middle" x="942.88" y="-1058.4" font-family="Helvetica,sans-Serif" font-size="8.00">agents/tools.py</text>
<text xml:space="preserve" text-anchor="middle" x="942.88" y="-1049.4" font-family="Helvetica,sans-Serif" font-size="8.00">tool_detect_product · tool_diagnose</text>
</g>
<!-- node_detect&#45;&gt;tools_py -->
<g id="edge20" class="edge">
<title>node_detect&#45;&gt;tools_py</title>
<path fill="none" stroke="#37474f" d="M615.8,-1051C615.8,-1051 859.66,-1051 859.66,-1051"/>
<polygon fill="#37474f" stroke="#37474f" points="859.66,-1054.5 869.66,-1051 859.66,-1047.5 859.66,-1054.5"/>
</g>
<!-- node_format -->
<g id="node21" class="node">
<title>node_format</title>
<path fill="white" stroke="black" d="M969.25,-1136C969.25,-1136 916.5,-1136 916.5,-1136 910.5,-1136 904.5,-1130 904.5,-1124 904.5,-1124 904.5,-1112 904.5,-1112 904.5,-1106 910.5,-1100 916.5,-1100 916.5,-1100 969.25,-1100 969.25,-1100 975.25,-1100 981.25,-1106 981.25,-1112 981.25,-1112 981.25,-1124 981.25,-1124 981.25,-1130 975.25,-1136 969.25,-1136"/>
<text xml:space="preserve" text-anchor="middle" x="942.88" y="-1114.9" font-family="Helvetica,sans-Serif" font-size="8.00">format_response</text>
</g>
<!-- node_run&#45;&gt;node_format -->
<g id="edge18" class="edge">
<title>node_run&#45;&gt;node_format</title>
<path fill="none" stroke="#37474f" d="M798.35,-1109.5C798.35,-1109.5 892.7,-1109.5 892.7,-1109.5"/>
<polygon fill="#37474f" stroke="#37474f" points="892.7,-1113 902.7,-1109.5 892.7,-1106 892.7,-1113"/>
</g>
<!-- node_run&#45;&gt;tools_py -->
<g id="edge21" class="edge">
<title>node_run&#45;&gt;tools_py</title>
<path fill="none" stroke="#37474f" d="M798.3,-1091.5C834.7,-1091.5 888.25,-1091.5 888.25,-1091.5 888.25,-1091.5 888.25,-1086.98 888.25,-1086.98"/>
<polygon fill="#37474f" stroke="#37474f" points="891.75,-1086.98 888.25,-1076.98 884.75,-1086.98 891.75,-1086.98"/>
</g>
<!-- node_esc -->
<g id="node22" class="node">
<title>node_esc</title>
<path fill="white" stroke="black" d="M1147.12,-1136C1147.12,-1136 1091.38,-1136 1091.38,-1136 1085.38,-1136 1079.38,-1130 1079.38,-1124 1079.38,-1124 1079.38,-1112 1079.38,-1112 1079.38,-1106 1085.38,-1100 1091.38,-1100 1091.38,-1100 1147.12,-1100 1147.12,-1100 1153.12,-1100 1159.12,-1106 1159.12,-1112 1159.12,-1112 1159.12,-1124 1159.12,-1124 1159.12,-1130 1153.12,-1136 1147.12,-1136"/>
<text xml:space="preserve" text-anchor="middle" x="1119.25" y="-1114.9" font-family="Helvetica,sans-Serif" font-size="8.00">handle_escalation</text>
</g>
<!-- node_format&#45;&gt;node_esc -->
<g id="edge19" class="edge">
<title>node_format&#45;&gt;node_esc</title>
<path fill="none" stroke="#37474f" d="M981.58,-1118C981.58,-1118 1067.59,-1118 1067.59,-1118"/>
<polygon fill="#37474f" stroke="#37474f" points="1067.59,-1121.5 1077.59,-1118 1067.59,-1114.5 1067.59,-1121.5"/>
</g>
<!-- graph_rag -->
<g id="node24" class="node">
<title>graph_rag</title>
<path fill="white" stroke="black" d="M1166.25,-800C1166.25,-800 1072.25,-800 1072.25,-800 1066.25,-800 1060.25,-794 1060.25,-788 1060.25,-788 1060.25,-776 1060.25,-776 1060.25,-770 1066.25,-764 1072.25,-764 1072.25,-764 1166.25,-764 1166.25,-764 1172.25,-764 1178.25,-770 1178.25,-776 1178.25,-776 1178.25,-788 1178.25,-788 1178.25,-794 1172.25,-800 1166.25,-800"/>
<text xml:space="preserve" text-anchor="middle" x="1119.25" y="-783.4" font-family="Helvetica,sans-Serif" font-size="8.00">graph_rag.py</text>
<text xml:space="preserve" text-anchor="middle" x="1119.25" y="-774.4" font-family="Helvetica,sans-Serif" font-size="8.00">diagnose() · DiagnosisResult</text>
</g>
<!-- tools_py&#45;&gt;graph_rag -->
<g id="edge22" class="edge">
<title>tools_py&#45;&gt;graph_rag</title>
<path fill="none" stroke="#37474f" d="M1014.38,-1057C1043.42,-1057 1070.25,-1057 1070.25,-1057 1070.25,-1057 1070.25,-811.98 1070.25,-811.98"/>
<polygon fill="#37474f" stroke="#37474f" points="1073.75,-811.98 1070.25,-801.98 1066.75,-811.98 1073.75,-811.98"/>
</g>
<!-- diag_engine -->
<g id="node25" class="node">
<title>diag_engine</title>
<path fill="white" stroke="black" d="M1160.25,-434C1160.25,-434 1078.25,-434 1078.25,-434 1072.25,-434 1066.25,-428 1066.25,-422 1066.25,-422 1066.25,-410 1066.25,-410 1066.25,-404 1072.25,-398 1078.25,-398 1078.25,-398 1160.25,-398 1160.25,-398 1166.25,-398 1172.25,-404 1172.25,-410 1172.25,-410 1172.25,-422 1172.25,-422 1172.25,-428 1166.25,-434 1160.25,-434"/>
<text xml:space="preserve" text-anchor="middle" x="1119.25" y="-417.4" font-family="Helvetica,sans-Serif" font-size="8.00">diagnostic_engine.py</text>
<text xml:space="preserve" text-anchor="middle" x="1119.25" y="-408.4" font-family="Helvetica,sans-Serif" font-size="8.00">get_next_diagnostic_step</text>
</g>
<!-- parts_pred -->
<g id="node26" class="node">
<title>parts_pred</title>
<path fill="white" stroke="black" d="M1147.12,-495C1147.12,-495 1091.38,-495 1091.38,-495 1085.38,-495 1079.38,-489 1079.38,-483 1079.38,-483 1079.38,-471 1079.38,-471 1079.38,-465 1085.38,-459 1091.38,-459 1091.38,-459 1147.12,-459 1147.12,-459 1153.12,-459 1159.12,-465 1159.12,-471 1159.12,-471 1159.12,-483 1159.12,-483 1159.12,-489 1153.12,-495 1147.12,-495"/>
<text xml:space="preserve" text-anchor="middle" x="1119.25" y="-478.4" font-family="Helvetica,sans-Serif" font-size="8.00">parts_predictor.py</text>
<text xml:space="preserve" text-anchor="middle" x="1119.25" y="-469.4" font-family="Helvetica,sans-Serif" font-size="8.00">predict_parts</text>
</g>
<!-- warranty_ext -->
<g id="node28" class="node">
<title>warranty_ext</title>
<path fill="white" stroke="black" d="M1172.25,-617C1172.25,-617 1066.25,-617 1066.25,-617 1060.25,-617 1054.25,-611 1054.25,-605 1054.25,-605 1054.25,-593 1054.25,-593 1054.25,-587 1060.25,-581 1066.25,-581 1066.25,-581 1172.25,-581 1172.25,-581 1178.25,-581 1184.25,-587 1184.25,-593 1184.25,-593 1184.25,-605 1184.25,-605 1184.25,-611 1178.25,-617 1172.25,-617"/>
<text xml:space="preserve" text-anchor="middle" x="1119.25" y="-595.9" font-family="Helvetica,sans-Serif" font-size="8.00">warranty_catalog_extensions.py</text>
</g>
<!-- synth_gen -->
<g id="node30" class="node">
<title>synth_gen</title>
<path fill="white" stroke="black" d="M1165.5,-739C1165.5,-739 1073,-739 1073,-739 1067,-739 1061,-733 1061,-727 1061,-727 1061,-715 1061,-715 1061,-709 1067,-703 1073,-703 1073,-703 1165.5,-703 1165.5,-703 1171.5,-703 1177.5,-709 1177.5,-715 1177.5,-715 1177.5,-727 1177.5,-727 1177.5,-733 1171.5,-739 1165.5,-739"/>
<text xml:space="preserve" text-anchor="middle" x="1119.25" y="-717.9" font-family="Helvetica,sans-Serif" font-size="8.00">synthetic_data_generator.py</text>
</g>
<!-- knowledge -->
<g id="node33" class="node">
<title>knowledge</title>
<path fill="white" stroke="black" d="M624,-235C624,-235 537.5,-235 537.5,-235 531.5,-235 525.5,-229 525.5,-223 525.5,-223 525.5,-211 525.5,-211 525.5,-205 531.5,-199 537.5,-199 537.5,-199 624,-199 624,-199 630,-199 636,-205 636,-211 636,-211 636,-223 636,-223 636,-229 630,-235 624,-235"/>
<text xml:space="preserve" text-anchor="middle" x="580.75" y="-218.4" font-family="Helvetica,sans-Serif" font-size="8.00">pipelines/knowledge_etl.py</text>
<text xml:space="preserve" text-anchor="middle" x="580.75" y="-209.4" font-family="Helvetica,sans-Serif" font-size="8.00">run_knowledge_etl()</text>
</g>
<!-- orch&#45;&gt;knowledge -->
<g id="edge29" class="edge">
<title>orch&#45;&gt;knowledge</title>
<path fill="none" stroke="#37474f" d="M391.25,-259.7C391.25,-241.73 391.25,-217 391.25,-217 391.25,-217 513.66,-217 513.66,-217"/>
<polygon fill="#37474f" stroke="#37474f" points="513.66,-220.5 523.66,-217 513.66,-213.5 513.66,-220.5"/>
</g>
<!-- smoke -->
<g id="node34" class="node">
<title>smoke</title>
<path fill="white" stroke="black" d="M628.88,-296C628.88,-296 532.62,-296 532.62,-296 526.62,-296 520.62,-290 520.62,-284 520.62,-284 520.62,-272 520.62,-272 520.62,-266 526.62,-260 532.62,-260 532.62,-260 628.88,-260 628.88,-260 634.88,-260 640.88,-266 640.88,-272 640.88,-272 640.88,-284 640.88,-284 640.88,-290 634.88,-296 628.88,-296"/>
<text xml:space="preserve" text-anchor="middle" x="580.75" y="-274.9" font-family="Helvetica,sans-Serif" font-size="8.00">pipelines/smoke_validation.py</text>
</g>
<!-- orch&#45;&gt;smoke -->
<g id="edge30" class="edge">
<title>orch&#45;&gt;smoke</title>
<path fill="none" stroke="#37474f" d="M425.7,-272C425.7,-272 508.88,-272 508.88,-272"/>
<polygon fill="#37474f" stroke="#37474f" points="508.88,-275.5 518.88,-272 508.88,-268.5 508.88,-275.5"/>
</g>
<!-- promote -->
<g id="node35" class="node">
<title>promote</title>
<path fill="white" stroke="black" d="M631.5,-357C631.5,-357 530,-357 530,-357 524,-357 518,-351 518,-345 518,-345 518,-333 518,-333 518,-327 524,-321 530,-321 530,-321 631.5,-321 631.5,-321 637.5,-321 643.5,-327 643.5,-333 643.5,-333 643.5,-345 643.5,-345 643.5,-351 637.5,-357 631.5,-357"/>
<text xml:space="preserve" text-anchor="middle" x="580.75" y="-335.9" font-family="Helvetica,sans-Serif" font-size="8.00">pipelines/staging_promotion.py</text>
</g>
<!-- orch&#45;&gt;promote -->
<g id="edge31" class="edge">
<title>orch&#45;&gt;promote</title>
<path fill="none" stroke="#37474f" d="M425.98,-284C461.83,-284 512.25,-284 512.25,-284 512.25,-284 512.25,-339 512.25,-339 512.25,-339 512.79,-339 512.79,-339"/>
<polygon fill="#37474f" stroke="#37474f" points="506.11,-342.5 516.11,-339 506.11,-335.5 506.11,-342.5"/>
</g>
<!-- ontology_b -->
<g id="node36" class="node">
<title>ontology_b</title>
<path fill="white" stroke="black" d="M819.5,-52C819.5,-52 711.25,-52 711.25,-52 705.25,-52 699.25,-46 699.25,-40 699.25,-40 699.25,-28 699.25,-28 699.25,-22 705.25,-16 711.25,-16 711.25,-16 819.5,-16 819.5,-16 825.5,-16 831.5,-22 831.5,-28 831.5,-28 831.5,-40 831.5,-40 831.5,-46 825.5,-52 819.5,-52"/>
<text xml:space="preserve" text-anchor="middle" x="765.38" y="-30.9" font-family="Helvetica,sans-Serif" font-size="8.00">transformers/ontology_builder.py</text>
</g>
<!-- knowledge&#45;&gt;ontology_b -->
<g id="edge36" class="edge">
<title>knowledge&#45;&gt;ontology_b</title>
<path fill="none" stroke="#37474f" d="M553.25,-198.78C553.25,-152.5 553.25,-34 553.25,-34 553.25,-34 687.33,-34 687.33,-34"/>
<polygon fill="#37474f" stroke="#37474f" points="687.33,-37.5 697.33,-34 687.33,-30.5 687.33,-37.5"/>
</g>
<!-- pim_c -->
<g id="node38" class="node">
<title>pim_c</title>
<path fill="white" stroke="black" d="M813.12,-113C813.12,-113 717.62,-113 717.62,-113 711.62,-113 705.62,-107 705.62,-101 705.62,-101 705.62,-89 705.62,-89 705.62,-83 711.62,-77 717.62,-77 717.62,-77 813.12,-77 813.12,-77 819.12,-77 825.12,-83 825.12,-89 825.12,-89 825.12,-101 825.12,-101 825.12,-107 819.12,-113 813.12,-113"/>
<text xml:space="preserve" text-anchor="middle" x="765.38" y="-91.9" font-family="Helvetica,sans-Serif" font-size="8.00">connectors/pim_connector.py</text>
</g>
<!-- knowledge&#45;&gt;pim_c -->
<g id="edge32" class="edge">
<title>knowledge&#45;&gt;pim_c</title>
<path fill="none" stroke="#37474f" d="M580.25,-198.74C580.25,-164.7 580.25,-95 580.25,-95 580.25,-95 693.76,-95 693.76,-95"/>
<polygon fill="#37474f" stroke="#37474f" points="693.76,-98.5 703.76,-95 693.76,-91.5 693.76,-98.5"/>
</g>
<!-- crm_c -->
<g id="node39" class="node">
<title>crm_c</title>
<path fill="white" stroke="black" d="M813.5,-235C813.5,-235 717.25,-235 717.25,-235 711.25,-235 705.25,-229 705.25,-223 705.25,-223 705.25,-211 705.25,-211 705.25,-205 711.25,-199 717.25,-199 717.25,-199 813.5,-199 813.5,-199 819.5,-199 825.5,-205 825.5,-211 825.5,-211 825.5,-223 825.5,-223 825.5,-229 819.5,-235 813.5,-235"/>
<text xml:space="preserve" text-anchor="middle" x="765.38" y="-213.9" font-family="Helvetica,sans-Serif" font-size="8.00">connectors/crm_connector.py</text>
</g>
<!-- knowledge&#45;&gt;crm_c -->
<g id="edge33" class="edge">
<title>knowledge&#45;&gt;crm_c</title>
<path fill="none" stroke="#37474f" d="M636.39,-208C636.39,-208 693.51,-208 693.51,-208"/>
<polygon fill="#37474f" stroke="#37474f" points="693.51,-211.5 703.51,-208 693.51,-204.5 693.51,-211.5"/>
</g>
<!-- claims_c -->
<g id="node40" class="node">
<title>claims_c</title>
<path fill="white" stroke="black" d="M817.62,-296C817.62,-296 713.12,-296 713.12,-296 707.12,-296 701.12,-290 701.12,-284 701.12,-284 701.12,-272 701.12,-272 701.12,-266 707.12,-260 713.12,-260 713.12,-260 817.62,-260 817.62,-260 823.62,-260 829.62,-266 829.62,-272 829.62,-272 829.62,-284 829.62,-284 829.62,-290 823.62,-296 817.62,-296"/>
<text xml:space="preserve" text-anchor="middle" x="765.38" y="-274.9" font-family="Helvetica,sans-Serif" font-size="8.00">connectors/claims_connector.py</text>
</g>
<!-- knowledge&#45;&gt;claims_c -->
<g id="edge34" class="edge">
<title>knowledge&#45;&gt;claims_c</title>
<path fill="none" stroke="#37474f" d="M636.46,-217C646.71,-217 654.25,-217 654.25,-217 654.25,-217 654.25,-278 654.25,-278 654.25,-278 689.22,-278 689.22,-278"/>
<polygon fill="#37474f" stroke="#37474f" points="689.22,-281.5 699.22,-278 689.22,-274.5 689.22,-281.5"/>
</g>
<!-- fsm_c -->
<g id="node41" class="node">
<title>fsm_c</title>
<path fill="white" stroke="black" d="M813.12,-174C813.12,-174 717.62,-174 717.62,-174 711.62,-174 705.62,-168 705.62,-162 705.62,-162 705.62,-150 705.62,-150 705.62,-144 711.62,-138 717.62,-138 717.62,-138 813.12,-138 813.12,-138 819.12,-138 825.12,-144 825.12,-150 825.12,-150 825.12,-162 825.12,-162 825.12,-168 819.12,-174 813.12,-174"/>
<text xml:space="preserve" text-anchor="middle" x="765.38" y="-152.9" font-family="Helvetica,sans-Serif" font-size="8.00">connectors/fsm_connector.py</text>
</g>
<!-- knowledge&#45;&gt;fsm_c -->
<g id="edge35" class="edge">
<title>knowledge&#45;&gt;fsm_c</title>
<path fill="none" stroke="#37474f" d="M608.25,-198.7C608.25,-180.73 608.25,-156 608.25,-156 608.25,-156 694.01,-156 694.01,-156"/>
<polygon fill="#37474f" stroke="#37474f" points="694.01,-159.5 704.01,-156 694.01,-152.5 694.01,-159.5"/>
</g>
<!-- lineage -->
<g id="node42" class="node">
<title>lineage</title>
<path fill="white" stroke="black" d="M798.5,-357C798.5,-357 732.25,-357 732.25,-357 726.25,-357 720.25,-351 720.25,-345 720.25,-345 720.25,-333 720.25,-333 720.25,-327 726.25,-321 732.25,-321 732.25,-321 798.5,-321 798.5,-321 804.5,-321 810.5,-327 810.5,-333 810.5,-333 810.5,-345 810.5,-345 810.5,-351 804.5,-357 798.5,-357"/>
<text xml:space="preserve" text-anchor="middle" x="765.38" y="-335.9" font-family="Helvetica,sans-Serif" font-size="8.00">utils/lineage_store.py</text>
</g>
<!-- knowledge&#45;&gt;lineage -->
<g id="edge37" class="edge">
<title>knowledge&#45;&gt;lineage</title>
<path fill="none" stroke="#37474f" d="M636.37,-226C643.98,-226 649.25,-226 649.25,-226 649.25,-226 649.25,-339 649.25,-339 649.25,-339 708.3,-339 708.3,-339"/>
<polygon fill="#37474f" stroke="#37474f" points="708.3,-342.5 718.3,-339 708.3,-335.5 708.3,-342.5"/>
</g>
<!-- pim_sync&#45;&gt;oem_cat -->
<g id="edge27" class="edge">
<title>pim_sync&#45;&gt;oem_cat</title>
<path fill="none" stroke="#37474f" d="M445.25,-357.44C445.25,-361.57 445.25,-364.75 445.25,-364.75 445.25,-364.75 1055.41,-364.75 1055.41,-364.75"/>
<polygon fill="#37474f" stroke="#37474f" points="1055.41,-368.25 1065.41,-364.75 1055.41,-361.25 1055.41,-368.25"/>
</g>
<!-- mock -->
<g id="node45" class="node">
<title>mock</title>
<path fill="white" stroke="black" d="M984.62,-204C984.62,-204 901.12,-204 901.12,-204 895.12,-204 889.12,-198 889.12,-192 889.12,-192 889.12,-180 889.12,-180 889.12,-174 895.12,-168 901.12,-168 901.12,-168 984.62,-168 984.62,-168 990.62,-168 996.62,-174 996.62,-180 996.62,-180 996.62,-192 996.62,-192 996.62,-198 990.62,-204 984.62,-204"/>
<text xml:space="preserve" text-anchor="middle" x="942.88" y="-187.4" font-family="Helvetica,sans-Serif" font-size="8.00">mock_enterprise_apps.py</text>
<text xml:space="preserve" text-anchor="middle" x="942.88" y="-178.4" font-family="Helvetica,sans-Serif" font-size="8.00">FastAPI :8090</text>
</g>
<!-- pim_c&#45;&gt;mock -->
<g id="edge38" class="edge">
<title>pim_c&#45;&gt;mock</title>
<path fill="none" stroke="#37474f" d="M825.36,-95C870.73,-95 925.25,-95 925.25,-95 925.25,-95 925.25,-156.07 925.25,-156.07"/>
<polygon fill="#37474f" stroke="#37474f" points="921.75,-156.07 925.25,-166.07 928.75,-156.07 921.75,-156.07"/>
</g>
<!-- crm_c&#45;&gt;mock -->
<g id="edge39" class="edge">
<title>crm_c&#45;&gt;mock</title>
<path fill="none" stroke="#37474f" d="M825.82,-219.5C871.09,-219.5 925.25,-219.5 925.25,-219.5 925.25,-219.5 925.25,-215.83 925.25,-215.83"/>
<polygon fill="#37474f" stroke="#37474f" points="928.75,-215.83 925.25,-205.83 921.75,-215.83 928.75,-215.83"/>
</g>
<!-- claims_c&#45;&gt;mock -->
<g id="edge40" class="edge">
<title>claims_c&#45;&gt;mock</title>
<path fill="none" stroke="#37474f" d="M830.05,-278C887.11,-278 961.25,-278 961.25,-278 961.25,-278 961.25,-215.69 961.25,-215.69"/>
<polygon fill="#37474f" stroke="#37474f" points="964.75,-215.69 961.25,-205.69 957.75,-215.69 964.75,-215.69"/>
</g>
<!-- fsm_c&#45;&gt;mock -->
<g id="edge41" class="edge">
<title>fsm_c&#45;&gt;mock</title>
<path fill="none" stroke="#37474f" d="M825.48,-153C883.05,-153 961.25,-153 961.25,-153 961.25,-153 961.25,-156.06 961.25,-156.06"/>
<polygon fill="#37474f" stroke="#37474f" points="957.75,-156.06 961.25,-166.06 964.75,-156.06 957.75,-156.06"/>
</g>
<!-- fsm_esc -->
<g id="node44" class="node">
<title>fsm_esc</title>
<path fill="white" stroke="black" d="M647.25,-996C647.25,-996 514.25,-996 514.25,-996 508.25,-996 502.25,-990 502.25,-984 502.25,-984 502.25,-972 502.25,-972 502.25,-966 508.25,-960 514.25,-960 514.25,-960 647.25,-960 647.25,-960 653.25,-960 659.25,-966 659.25,-972 659.25,-972 659.25,-984 659.25,-984 659.25,-990 653.25,-996 647.25,-996"/>
<text xml:space="preserve" text-anchor="middle" x="580.75" y="-974.9" font-family="Helvetica,sans-Serif" font-size="8.00">fsm_escalation.py (via escalation_store)</text>
</g>
</g>
</svg>
