<?xml version="1.0" encoding="UTF-8" standalone="no"?>
<!DOCTYPE svg PUBLIC "-//W3C//DTD SVG 1.1//EN"
 "http://www.w3.org/Graphics/SVG/1.1/DTD/svg11.dtd">
<!-- Generated by graphviz version 14.1.5 (20260411.2331)
 -->
<!-- Title: LLD_Diagnosis_Claim_Sequence Pages: 1 -->
<svg width="1212pt" height="588pt"
 viewBox="0.00 0.00 1212.00 588.00" xmlns="http://www.w3.org/2000/svg" xmlns:xlink="http://www.w3.org/1999/xlink">
<g id="graph0" class="graph" transform="scale(1 1) rotate(0) translate(4 584.39)">
<title>LLD_Diagnosis_Claim_Sequence</title>
<polygon fill="white" stroke="none" points="-4,4 -4,-584.39 1208.12,-584.39 1208.12,4 -4,4"/>
<!-- actor -->
<g id="node1" class="node">
<title>actor</title>
<ellipse fill="#e3f2fd" stroke="black" cx="261.38" cy="-560.95" rx="61.16" ry="19.45"/>
<text xml:space="preserve" text-anchor="middle" x="261.38" y="-562.15" font-family="Helvetica,sans-Serif" font-size="9.00">Customer / Agent</text>
<text xml:space="preserve" text-anchor="middle" x="261.38" y="-552.4" font-family="Helvetica,sans-Serif" font-size="9.00">(Streamlit Chat)</text>
</g>
<!-- ui -->
<g id="node2" class="node">
<title>ui</title>
<path fill="#bbdefb" stroke="black" d="M276.38,-487.5C276.38,-487.5 246.38,-487.5 246.38,-487.5 240.38,-487.5 234.38,-481.5 234.38,-475.5 234.38,-475.5 234.38,-463.5 234.38,-463.5 234.38,-457.5 240.38,-451.5 246.38,-451.5 246.38,-451.5 276.38,-451.5 276.38,-451.5 282.38,-451.5 288.38,-457.5 288.38,-463.5 288.38,-463.5 288.38,-475.5 288.38,-475.5 288.38,-481.5 282.38,-487.5 276.38,-487.5"/>
<text xml:space="preserve" text-anchor="middle" x="261.38" y="-465.82" font-family="Helvetica,sans-Serif" font-size="9.00">ui/app.py</text>
</g>
<!-- actor&#45;&gt;ui -->
<g id="edge1" class="edge">
<title>actor&#45;&gt;ui</title>
<path fill="none" stroke="#37474f" d="M252.38,-541.55C252.38,-541.55 252.38,-499.44 252.38,-499.44"/>
<polygon fill="#37474f" stroke="#37474f" points="255.88,-499.44 252.38,-489.44 248.88,-499.44 255.88,-499.44"/>
<text xml:space="preserve" text-anchor="middle" x="250.38" y="-515.9" font-family="Helvetica,sans-Serif" font-size="8.00">1. message + optional</text>
<text xml:space="preserve" text-anchor="middle" x="250.38" y="-506.9" font-family="Helvetica,sans-Serif" font-size="8.00">product_id · asset_id</text>
</g>
<!-- ui&#45;&gt;actor -->
<g id="edge18" class="edge">
<title>ui&#45;&gt;actor</title>
<path fill="none" stroke="#37474f" d="M270.38,-487.57C270.38,-487.57 270.38,-529.82 270.38,-529.82"/>
<polygon fill="#37474f" stroke="#37474f" points="266.88,-529.82 270.38,-539.82 273.88,-529.82 266.88,-529.82"/>
<text xml:space="preserve" text-anchor="middle" x="359.62" y="-511.4" font-family="Helvetica,sans-Serif" font-size="8.00">15. render answer + PyVis</text>
</g>
<!-- api -->
<g id="node3" class="node">
<title>api</title>
<path fill="#c8e6c9" stroke="black" d="M290.75,-397.5C290.75,-397.5 232,-397.5 232,-397.5 226,-397.5 220,-391.5 220,-385.5 220,-385.5 220,-373.5 220,-373.5 220,-367.5 226,-361.5 232,-361.5 232,-361.5 290.75,-361.5 290.75,-361.5 296.75,-361.5 302.75,-367.5 302.75,-373.5 302.75,-373.5 302.75,-385.5 302.75,-385.5 302.75,-391.5 296.75,-397.5 290.75,-397.5"/>
<text xml:space="preserve" text-anchor="middle" x="261.38" y="-380.7" font-family="Helvetica,sans-Serif" font-size="9.00">api/main.py</text>
<text xml:space="preserve" text-anchor="middle" x="261.38" y="-370.95" font-family="Helvetica,sans-Serif" font-size="9.00">POST /diagnose</text>
</g>
<!-- ui&#45;&gt;api -->
<g id="edge2" class="edge">
<title>ui&#45;&gt;api</title>
<path fill="none" stroke="#37474f" d="M270.38,-451.29C270.38,-451.29 270.38,-409.51 270.38,-409.51"/>
<polygon fill="#37474f" stroke="#37474f" points="273.88,-409.51 270.38,-399.51 266.88,-409.51 273.88,-409.51"/>
<text xml:space="preserve" text-anchor="middle" x="249.75" y="-421.4" font-family="Helvetica,sans-Serif" font-size="8.00">2. HTTP POST /diagnose</text>
</g>
<!-- api&#45;&gt;ui -->
<g id="edge17" class="edge">
<title>api&#45;&gt;ui</title>
<path fill="none" stroke="#37474f" d="M252.38,-397.71C252.38,-397.71 252.38,-439.49 252.38,-439.49"/>
<polygon fill="#37474f" stroke="#37474f" points="248.88,-439.49 252.38,-449.49 255.88,-439.49 248.88,-439.49"/>
<text xml:space="preserve" text-anchor="middle" x="360" y="-425.9" font-family="Helvetica,sans-Serif" font-size="8.00">14. DiagnoseResponse</text>
<text xml:space="preserve" text-anchor="middle" x="360" y="-416.9" font-family="Helvetica,sans-Serif" font-size="8.00">+ graph_subgraph</text>
</g>
<!-- crm -->
<g id="node4" class="node">
<title>crm</title>
<path fill="#b2ebf2" stroke="black" d="M794.38,-307.5C794.38,-307.5 724.38,-307.5 724.38,-307.5 718.38,-307.5 712.38,-301.5 712.38,-295.5 712.38,-295.5 712.38,-283.5 712.38,-283.5 712.38,-277.5 718.38,-271.5 724.38,-271.5 724.38,-271.5 794.38,-271.5 794.38,-271.5 800.38,-271.5 806.38,-277.5 806.38,-283.5 806.38,-283.5 806.38,-295.5 806.38,-295.5 806.38,-301.5 800.38,-307.5 794.38,-307.5"/>
<text xml:space="preserve" text-anchor="middle" x="759.38" y="-285.82" font-family="Helvetica,sans-Serif" font-size="9.00">crm_enrichment.py</text>
</g>
<!-- api&#45;&gt;crm -->
<g id="edge3" class="edge">
<title>api&#45;&gt;crm</title>
<path fill="none" stroke="#37474f" d="M303.14,-386C415.96,-386 718.38,-386 718.38,-386 718.38,-386 718.38,-319.16 718.38,-319.16"/>
<polygon fill="#37474f" stroke="#37474f" points="721.88,-319.16 718.38,-309.16 714.88,-319.16 721.88,-319.16"/>
<text xml:space="preserve" text-anchor="middle" x="491.62" y="-331.4" font-family="Helvetica,sans-Serif" font-size="8.00">3. enrich_session_from_crm()</text>
</g>
<!-- we -->
<g id="node5" class="node">
<title>we</title>
<path fill="#b2ebf2" stroke="black" d="M235.62,-253.5C235.62,-253.5 155.12,-253.5 155.12,-253.5 149.12,-253.5 143.12,-247.5 143.12,-241.5 143.12,-241.5 143.12,-229.5 143.12,-229.5 143.12,-223.5 149.12,-217.5 155.12,-217.5 155.12,-217.5 235.62,-217.5 235.62,-217.5 241.62,-217.5 247.62,-223.5 247.62,-229.5 247.62,-229.5 247.62,-241.5 247.62,-241.5 247.62,-247.5 241.62,-253.5 235.62,-253.5"/>
<text xml:space="preserve" text-anchor="middle" x="195.38" y="-231.82" font-family="Helvetica,sans-Serif" font-size="9.00">warranty_eligibility.py</text>
</g>
<!-- api&#45;&gt;we -->
<g id="edge5" class="edge">
<title>api&#45;&gt;we</title>
<path fill="none" stroke="#37474f" d="M219.74,-374C212.27,-374 206.81,-374 206.81,-374 206.81,-374 206.81,-265.41 206.81,-265.41"/>
<polygon fill="#37474f" stroke="#37474f" points="210.31,-265.41 206.81,-255.41 203.31,-265.41 210.31,-265.41"/>
<text xml:space="preserve" text-anchor="middle" x="249.5" y="-331.4" font-family="Helvetica,sans-Serif" font-size="8.00">4. check_warranty (if enriched)</text>
</g>
<!-- lg -->
<g id="node6" class="node">
<title>lg</title>
<path fill="#e1bee7" stroke="black" d="M337.88,-307.5C337.88,-307.5 234.88,-307.5 234.88,-307.5 228.88,-307.5 222.88,-301.5 222.88,-295.5 222.88,-295.5 222.88,-283.5 222.88,-283.5 222.88,-277.5 228.88,-271.5 234.88,-271.5 234.88,-271.5 337.88,-271.5 337.88,-271.5 343.88,-271.5 349.88,-277.5 349.88,-283.5 349.88,-283.5 349.88,-295.5 349.88,-295.5 349.88,-301.5 343.88,-307.5 337.88,-307.5"/>
<text xml:space="preserve" text-anchor="middle" x="286.38" y="-290.7" font-family="Helvetica,sans-Serif" font-size="9.00">agents/diagnosis_graph.py</text>
<text xml:space="preserve" text-anchor="middle" x="286.38" y="-280.95" font-family="Helvetica,sans-Serif" font-size="9.00">4&#45;node StateGraph</text>
</g>
<!-- api&#45;&gt;lg -->
<g id="edge7" class="edge">
<title>api&#45;&gt;lg</title>
<path fill="none" stroke="#37474f" d="M276.12,-361.29C276.12,-361.29 276.12,-319.51 276.12,-319.51"/>
<polygon fill="#37474f" stroke="#37474f" points="279.63,-319.51 276.13,-309.51 272.63,-319.51 279.63,-319.51"/>
<text xml:space="preserve" text-anchor="middle" x="359.62" y="-331.4" font-family="Helvetica,sans-Serif" font-size="8.00">5. run_diagnosis()</text>
</g>
<!-- case -->
<g id="node11" class="node">
<title>case</title>
<path fill="#b2ebf2" stroke="black" d="M94.75,-307.5C94.75,-307.5 12,-307.5 12,-307.5 6,-307.5 0,-301.5 0,-295.5 0,-295.5 0,-283.5 0,-283.5 0,-277.5 6,-271.5 12,-271.5 12,-271.5 94.75,-271.5 94.75,-271.5 100.75,-271.5 106.75,-277.5 106.75,-283.5 106.75,-283.5 106.75,-295.5 106.75,-295.5 106.75,-301.5 100.75,-307.5 94.75,-307.5"/>
<text xml:space="preserve" text-anchor="middle" x="53.38" y="-290.7" font-family="Helvetica,sans-Serif" font-size="9.00">case_management.py</text>
<text xml:space="preserve" text-anchor="middle" x="53.38" y="-280.95" font-family="Helvetica,sans-Serif" font-size="9.00">(if escalated)</text>
</g>
<!-- api&#45;&gt;case -->
<g id="edge16" class="edge">
<title>api&#45;&gt;case</title>
<path fill="none" stroke="#37474f" d="M219.78,-386C159.08,-386 53.38,-386 53.38,-386 53.38,-386 53.38,-319.16 53.38,-319.16"/>
<polygon fill="#37474f" stroke="#37474f" points="56.88,-319.16 53.38,-309.16 49.88,-319.16 56.88,-319.16"/>
<text xml:space="preserve" text-anchor="middle" x="112.25" y="-331.4" font-family="Helvetica,sans-Serif" font-size="8.00">13. create_case_from_escalation</text>
</g>
<!-- mock -->
<g id="node12" class="node">
<title>mock</title>
<path fill="#eceff1" stroke="black" d="M777.62,-199.5C777.62,-199.5 715.12,-199.5 715.12,-199.5 709.12,-199.5 703.12,-193.5 703.12,-187.5 703.12,-187.5 703.12,-175.5 703.12,-175.5 703.12,-169.5 709.12,-163.5 715.12,-163.5 715.12,-163.5 777.62,-163.5 777.62,-163.5 783.62,-163.5 789.62,-169.5 789.62,-175.5 789.62,-175.5 789.62,-187.5 789.62,-187.5 789.62,-193.5 783.62,-199.5 777.62,-199.5"/>
<text xml:space="preserve" text-anchor="middle" x="746.38" y="-177.82" font-family="Helvetica,sans-Serif" font-size="9.00">Mock CRM :8090</text>
</g>
<!-- crm&#45;&gt;mock -->
<g id="edge4" class="edge">
<title>crm&#45;&gt;mock</title>
<path fill="none" stroke="#37474f" stroke-dasharray="5,2" d="M751,-271.18C751,-271.18 751,-211.42 751,-211.42"/>
<polygon fill="#37474f" stroke="#37474f" points="754.5,-211.42 751,-201.42 747.5,-211.42 754.5,-211.42"/>
<text xml:space="preserve" text-anchor="middle" x="772.25" y="-232.4" font-family="Helvetica,sans-Serif" font-size="8.00">GET /api/crm/*</text>
</g>
<!-- neo4j -->
<g id="node9" class="node">
<title>neo4j</title>
<path fill="#e8f5e9" stroke="black" d="M445.38,-32.73C445.38,-34.53 433.27,-36 418.38,-36 403.48,-36 391.38,-34.53 391.38,-32.73 391.38,-32.73 391.38,-3.27 391.38,-3.27 391.38,-1.47 403.48,0 418.38,0 433.27,0 445.38,-1.47 445.38,-3.27 445.38,-3.27 445.38,-32.73 445.38,-32.73"/>
<path fill="none" stroke="black" d="M445.38,-32.73C445.38,-30.92 433.27,-29.45 418.38,-29.45 403.48,-29.45 391.38,-30.92 391.38,-32.73"/>
<text xml:space="preserve" text-anchor="middle" x="418.38" y="-14.32" font-family="Helvetica,sans-Serif" font-size="9.00">Neo4j</text>
</g>
<!-- we&#45;&gt;neo4j -->
<g id="edge6" class="edge">
<title>we&#45;&gt;neo4j</title>
<path fill="none" stroke="#37474f" stroke-dasharray="5,2" d="M185.19,-217.33C185.19,-165.06 185.19,-18 185.19,-18 185.19,-18 379.66,-18 379.66,-18"/>
<polygon fill="#37474f" stroke="#37474f" points="379.66,-21.5 389.66,-18 379.66,-14.5 379.66,-21.5"/>
<text xml:space="preserve" text-anchor="middle" x="220.88" y="-137.15" font-family="Helvetica,sans-Serif" font-size="8.00">policy lookup</text>
</g>
<!-- lg&#45;&gt;lg -->
<g id="edge8" class="edge">
<title>lg&#45;&gt;lg</title>
<path fill="none" stroke="#37474f" d="M333.47,-307.73C333.47,-322.2 333.47,-340 333.47,-340 333.47,-340 364.88,-340 364.88,-340 364.88,-340 364.88,-257 364.88,-257 364.88,-257 343.59,-257 343.59,-257 343.59,-257 343.59,-259.84 343.59,-259.84"/>
<polygon fill="#37474f" stroke="#37474f" points="340.09,-259.84 343.59,-269.84 347.09,-259.84 340.09,-259.84"/>
</g>
<!-- lg&#45;&gt;lg -->
<g id="edge10" class="edge">
<title>lg&#45;&gt;lg</title>
<path fill="none" stroke="#37474f" d="M249.5,-307.95C249.5,-326.07 249.5,-351 249.5,-351 249.5,-351 213.4,-351 213.4,-351 213.4,-351 213.4,-268 213.4,-268 213.4,-268 235.25,-268 235.25,-268 235.25,-268 235.25,-268.34 235.25,-268.34"/>
<polygon fill="#37474f" stroke="#37474f" points="231.75,-259.85 235.25,-269.85 238.75,-259.85 231.75,-259.85"/>
</g>
<!-- lg&#45;&gt;lg -->
<g id="edge13" class="edge">
<title>lg&#45;&gt;lg</title>
<path fill="none" stroke="#37474f" d="M344.41,-307.71C344.41,-313.3 344.41,-318 344.41,-318 344.41,-318 354.88,-318 354.88,-318 354.88,-318 354.88,-264 354.88,-264 354.88,-264 347.78,-264 347.78,-264 347.78,-264 347.78,-264.72 347.78,-264.72"/>
<polygon fill="#37474f" stroke="#37474f" points="344.28,-259.73 347.78,-269.73 351.28,-259.73 344.28,-259.73"/>
</g>
<!-- lg&#45;&gt;lg -->
<g id="edge14" class="edge">
<title>lg&#45;&gt;lg</title>
<path fill="none" stroke="#37474f" d="M338.94,-307.86C338.94,-318.18 338.94,-329 338.94,-329 338.94,-329 359.88,-329 359.88,-329 359.88,-329 359.88,-261 359.88,-261 359.88,-261 345.69,-261 345.69,-261 345.69,-261 345.69,-262.03 345.69,-262.03"/>
<polygon fill="#37474f" stroke="#37474f" points="342.19,-259.78 345.69,-269.78 349.19,-259.78 342.19,-259.78"/>
</g>
<!-- tools -->
<g id="node7" class="node">
<title>tools</title>
<path fill="#e1bee7" stroke="black" d="M445.12,-199.5C445.12,-199.5 391.62,-199.5 391.62,-199.5 385.62,-199.5 379.62,-193.5 379.62,-187.5 379.62,-187.5 379.62,-175.5 379.62,-175.5 379.62,-169.5 385.62,-163.5 391.62,-163.5 391.62,-163.5 445.12,-163.5 445.12,-163.5 451.12,-163.5 457.12,-169.5 457.12,-175.5 457.12,-175.5 457.12,-187.5 457.12,-187.5 457.12,-193.5 451.12,-199.5 445.12,-199.5"/>
<text xml:space="preserve" text-anchor="middle" x="418.38" y="-177.82" font-family="Helvetica,sans-Serif" font-size="9.00">agents/tools.py</text>
</g>
<!-- lg&#45;&gt;tools -->
<g id="edge9" class="edge">
<title>lg&#45;&gt;tools</title>
<path fill="none" stroke="#37474f" d="M350.06,-290C383.81,-290 418.38,-290 418.38,-290 418.38,-290 418.38,-211.42 418.38,-211.42"/>
<polygon fill="#37474f" stroke="#37474f" points="421.88,-211.42 418.38,-201.42 414.88,-211.42 421.88,-211.42"/>
<text xml:space="preserve" text-anchor="middle" x="458.12" y="-232.4" font-family="Helvetica,sans-Serif" font-size="8.00">7. tool_detect_product</text>
</g>
<!-- esc -->
<g id="node10" class="node">
<title>esc</title>
<polygon fill="#fafafa" stroke="black" points="341.5,-199.5 338.5,-203.5 317.5,-203.5 314.5,-199.5 227.25,-199.5 227.25,-163.5 341.5,-163.5 341.5,-199.5"/>
<text xml:space="preserve" text-anchor="middle" x="284.38" y="-177.82" font-family="Helvetica,sans-Serif" font-size="9.00">utils/escalation_store.py</text>
</g>
<!-- lg&#45;&gt;esc -->
<g id="edge15" class="edge">
<title>lg&#45;&gt;esc</title>
<path fill="none" stroke="#37474f" d="M294.56,-271.18C294.56,-271.18 294.56,-211.42 294.56,-211.42"/>
<polygon fill="#37474f" stroke="#37474f" points="298.06,-211.42 294.56,-201.42 291.06,-211.42 298.06,-211.42"/>
<text xml:space="preserve" text-anchor="middle" x="339.88" y="-232.4" font-family="Helvetica,sans-Serif" font-size="8.00">12. save_escalation (if needed)</text>
</g>
<!-- gr -->
<g id="node8" class="node">
<title>gr</title>
<path fill="#ffe0b2" stroke="black" d="M454.88,-117C454.88,-117 381.88,-117 381.88,-117 375.88,-117 369.88,-111 369.88,-105 369.88,-105 369.88,-93 369.88,-93 369.88,-87 375.88,-81 381.88,-81 381.88,-81 454.88,-81 454.88,-81 460.88,-81 466.88,-87 466.88,-93 466.88,-93 466.88,-105 466.88,-105 466.88,-111 460.88,-117 454.88,-117"/>
<text xml:space="preserve" text-anchor="middle" x="418.38" y="-100.2" font-family="Helvetica,sans-Serif" font-size="9.00">graph/graph_rag.py</text>
<text xml:space="preserve" text-anchor="middle" x="418.38" y="-90.45" font-family="Helvetica,sans-Serif" font-size="9.00">diagnose()</text>
</g>
<!-- tools&#45;&gt;gr -->
<g id="edge11" class="edge">
<title>tools&#45;&gt;gr</title>
<path fill="none" stroke="#37474f" d="M418.38,-163.19C418.38,-163.19 418.38,-128.77 418.38,-128.77"/>
<polygon fill="#37474f" stroke="#37474f" points="421.88,-128.77 418.38,-118.77 414.88,-128.77 421.88,-128.77"/>
<text xml:space="preserve" text-anchor="middle" x="473.12" y="-137.9" font-family="Helvetica,sans-Serif" font-size="8.00">9. tool_diagnose → diagnose()</text>
</g>
<!-- gr&#45;&gt;neo4j -->
<g id="edge12" class="edge">
<title>gr&#45;&gt;neo4j</title>
<path fill="none" stroke="#37474f" d="M418.38,-80.62C418.38,-80.62 418.38,-47.82 418.38,-47.82"/>
<polygon fill="#37474f" stroke="#37474f" points="421.88,-47.82 418.38,-37.82 414.88,-47.82 421.88,-47.82"/>
<text xml:space="preserve" text-anchor="middle" x="446.88" y="-55.4" font-family="Helvetica,sans-Serif" font-size="8.00">Cypher + vector</text>
</g>
<!-- actor2 -->
<g id="node13" class="node">
<title>actor2</title>
<ellipse fill="#e3f2fd" stroke="black" cx="876.38" cy="-181.5" rx="52.73" ry="18"/>
<text xml:space="preserve" text-anchor="middle" x="876.38" y="-177.82" font-family="Helvetica,sans-Serif" font-size="9.00">Agent (Claims tab)</text>
</g>
<!-- ui2 -->
<g id="node14" class="node">
<title>ui2</title>
<path fill="#bbdefb" stroke="black" d="M887.38,-307.5C887.38,-307.5 857.38,-307.5 857.38,-307.5 851.38,-307.5 845.38,-301.5 845.38,-295.5 845.38,-295.5 845.38,-283.5 845.38,-283.5 845.38,-277.5 851.38,-271.5 857.38,-271.5 857.38,-271.5 887.38,-271.5 887.38,-271.5 893.38,-271.5 899.38,-277.5 899.38,-283.5 899.38,-283.5 899.38,-295.5 899.38,-295.5 899.38,-301.5 893.38,-307.5 887.38,-307.5"/>
<text xml:space="preserve" text-anchor="middle" x="872.38" y="-285.82" font-family="Helvetica,sans-Serif" font-size="9.00">ui/app.py</text>
</g>
<!-- actor2&#45;&gt;ui2 -->
<g id="edge19" class="edge">
<title>actor2&#45;&gt;ui2</title>
<path fill="none" stroke="#37474f" d="M881.38,-199.82C881.38,-199.82 881.38,-259.58 881.38,-259.58"/>
<polygon fill="#37474f" stroke="#37474f" points="877.88,-259.58 881.38,-269.58 884.88,-259.58 877.88,-259.58"/>
<text xml:space="preserve" text-anchor="middle" x="929.88" y="-232.4" font-family="Helvetica,sans-Serif" font-size="8.00">16. submit claim</text>
</g>
<!-- ui2&#45;&gt;actor2 -->
<g id="edge27" class="edge">
<title>ui2&#45;&gt;actor2</title>
<path fill="none" stroke="#37474f" d="M863.38,-271.18C863.38,-271.18 863.38,-210.71 863.38,-210.71"/>
<polygon fill="#37474f" stroke="#37474f" points="866.88,-210.71 863.38,-200.71 859.88,-210.71 866.88,-210.71"/>
<text xml:space="preserve" text-anchor="middle" x="849.88" y="-232.4" font-family="Helvetica,sans-Serif" font-size="8.00">24. confirmation</text>
</g>
<!-- api2 -->
<g id="node15" class="node">
<title>api2</title>
<path fill="#c8e6c9" stroke="black" d="M812.38,-397.5C812.38,-397.5 736.38,-397.5 736.38,-397.5 730.38,-397.5 724.38,-391.5 724.38,-385.5 724.38,-385.5 724.38,-373.5 724.38,-373.5 724.38,-367.5 730.38,-361.5 736.38,-361.5 736.38,-361.5 812.38,-361.5 812.38,-361.5 818.38,-361.5 824.38,-367.5 824.38,-373.5 824.38,-373.5 824.38,-385.5 824.38,-385.5 824.38,-391.5 818.38,-397.5 812.38,-397.5"/>
<text xml:space="preserve" text-anchor="middle" x="774.38" y="-375.82" font-family="Helvetica,sans-Serif" font-size="9.00">POST /claims/submit</text>
</g>
<!-- ui2&#45;&gt;api2 -->
<g id="edge20" class="edge">
<title>ui2&#45;&gt;api2</title>
<path fill="none" stroke="#37474f" d="M845.07,-284C829.13,-284 812.13,-284 812.13,-284 812.13,-284 812.13,-349.57 812.13,-349.57"/>
<polygon fill="#37474f" stroke="#37474f" points="808.63,-349.57 812.13,-359.57 815.63,-349.57 808.63,-349.57"/>
<text xml:space="preserve" text-anchor="middle" x="911" y="-331.4" font-family="Helvetica,sans-Serif" font-size="8.00">17. HTTP POST</text>
</g>
<!-- api2&#45;&gt;crm -->
<g id="edge21" class="edge">
<title>api2&#45;&gt;crm</title>
<path fill="none" stroke="#37474f" d="M765.38,-361.29C765.38,-361.29 765.38,-319.51 765.38,-319.51"/>
<polygon fill="#37474f" stroke="#37474f" points="768.88,-319.51 765.38,-309.51 761.88,-319.51 768.88,-319.51"/>
<text xml:space="preserve" text-anchor="middle" x="723.5" y="-331.4" font-family="Helvetica,sans-Serif" font-size="8.00">18. CRM enrich</text>
</g>
<!-- api2&#45;&gt;lg -->
<g id="edge22" class="edge">
<title>api2&#45;&gt;lg</title>
<path fill="none" stroke="#37474f" d="M724.04,-374C607.3,-374 328.01,-374 328.01,-374 328.01,-374 328.01,-319.35 328.01,-319.35"/>
<polygon fill="#37474f" stroke="#37474f" points="331.51,-319.35 328.01,-309.35 324.51,-319.35 331.51,-319.35"/>
<text xml:space="preserve" text-anchor="middle" x="626.88" y="-331.4" font-family="Helvetica,sans-Serif" font-size="8.00">19. run_diagnosis</text>
</g>
<!-- api2&#45;&gt;ui2 -->
<g id="edge26" class="edge">
<title>api2&#45;&gt;ui2</title>
<path fill="none" stroke="#37474f" d="M817.89,-361.38C817.89,-336.82 817.89,-296 817.89,-296 817.89,-296 833.62,-296 833.62,-296"/>
<polygon fill="#37474f" stroke="#37474f" points="833.62,-299.5 843.62,-296 833.62,-292.5 833.62,-299.5"/>
<text xml:space="preserve" text-anchor="middle" x="816.38" y="-331.4" font-family="Helvetica,sans-Serif" font-size="8.00">23. claim_id + diagnosis</text>
</g>
<!-- cw -->
<g id="node16" class="node">
<title>cw</title>
<path fill="#b2ebf2" stroke="black" d="M1008.75,-307.5C1008.75,-307.5 938,-307.5 938,-307.5 932,-307.5 926,-301.5 926,-295.5 926,-295.5 926,-283.5 926,-283.5 926,-277.5 932,-271.5 938,-271.5 938,-271.5 1008.75,-271.5 1008.75,-271.5 1014.75,-271.5 1020.75,-277.5 1020.75,-283.5 1020.75,-283.5 1020.75,-295.5 1020.75,-295.5 1020.75,-301.5 1014.75,-307.5 1008.75,-307.5"/>
<text xml:space="preserve" text-anchor="middle" x="973.38" y="-285.82" font-family="Helvetica,sans-Serif" font-size="9.00">claims_workflow.py</text>
</g>
<!-- api2&#45;&gt;cw -->
<g id="edge23" class="edge">
<title>api2&#45;&gt;cw</title>
<path fill="none" stroke="#37474f" d="M824.85,-380C883.8,-380 973.38,-380 973.38,-380 973.38,-380 973.38,-319.33 973.38,-319.33"/>
<polygon fill="#37474f" stroke="#37474f" points="976.88,-319.33 973.38,-309.33 969.88,-319.33 976.88,-319.33"/>
<text xml:space="preserve" text-anchor="middle" x="1025.25" y="-331.4" font-family="Helvetica,sans-Serif" font-size="8.00">20. submit_claim_from_diagnosis()</text>
</g>
<!-- cw&#45;&gt;neo4j -->
<g id="edge25" class="edge">
<title>cw&#45;&gt;neo4j</title>
<path fill="none" stroke="#37474f" stroke-dasharray="5,2" d="M973.74,-271.26C973.74,-210.39 973.74,-18 973.74,-18 973.74,-18 457.05,-18 457.05,-18"/>
<polygon fill="#37474f" stroke="#37474f" points="457.05,-14.5 447.05,-18 457.05,-21.5 457.05,-14.5"/>
<text xml:space="preserve" text-anchor="middle" x="1024" y="-137.15" font-family="Helvetica,sans-Serif" font-size="8.00">22. MERGE Claim (optional)</text>
</g>
<!-- claims_json -->
<g id="node17" class="node">
<title>claims_json</title>
<polygon fill="#fafafa" stroke="black" points="1136.38,-199.5 1133.38,-203.5 1112.38,-203.5 1109.38,-199.5 1018.38,-199.5 1018.38,-163.5 1136.38,-163.5 1136.38,-199.5"/>
<text xml:space="preserve" text-anchor="middle" x="1077.38" y="-177.82" font-family="Helvetica,sans-Serif" font-size="9.00">claims_submissions.json</text>
</g>
<!-- cw&#45;&gt;claims_json -->
<g id="edge24" class="edge">
<title>cw&#45;&gt;claims_json</title>
<path fill="none" stroke="#37474f" d="M1021.15,-290C1027.5,-290 1031.88,-290 1031.88,-290 1031.88,-290 1031.88,-211.42 1031.88,-211.42"/>
<polygon fill="#37474f" stroke="#37474f" points="1035.38,-211.42 1031.88,-201.42 1028.38,-211.42 1035.38,-211.42"/>
<text xml:space="preserve" text-anchor="middle" x="1039.75" y="-232.4" font-family="Helvetica,sans-Serif" font-size="8.00">21. append claim</text>
</g>
<!-- actor3 -->
<g id="node18" class="node">
<title>actor3</title>
<ellipse fill="#e3f2fd" stroke="black" cx="1110.38" cy="-469.5" rx="64.37" ry="18"/>
<text xml:space="preserve" text-anchor="middle" x="1110.38" y="-465.82" font-family="Helvetica,sans-Serif" font-size="9.00">Supervisor (Claims tab)</text>
</g>
<!-- ui3 -->
<g id="node19" class="node">
<title>ui3</title>
<path fill="#bbdefb" stroke="black" d="M1154,-397.5C1154,-397.5 1066.75,-397.5 1066.75,-397.5 1060.75,-397.5 1054.75,-391.5 1054.75,-385.5 1054.75,-385.5 1054.75,-373.5 1054.75,-373.5 1054.75,-367.5 1060.75,-361.5 1066.75,-361.5 1066.75,-361.5 1154,-361.5 1154,-361.5 1160,-361.5 1166,-367.5 1166,-373.5 1166,-373.5 1166,-385.5 1166,-385.5 1166,-391.5 1160,-397.5 1154,-397.5"/>
<text xml:space="preserve" text-anchor="middle" x="1110.38" y="-380.7" font-family="Helvetica,sans-Serif" font-size="9.00">ui/app.py</text>
<text xml:space="preserve" text-anchor="middle" x="1110.38" y="-370.95" font-family="Helvetica,sans-Serif" font-size="9.00">Approve / Deny buttons</text>
</g>
<!-- actor3&#45;&gt;ui3 -->
<g id="edge28" class="edge">
<title>actor3&#45;&gt;ui3</title>
<path fill="none" stroke="#37474f" d="M1110.38,-451.29C1110.38,-451.29 1110.38,-409.51 1110.38,-409.51"/>
<polygon fill="#37474f" stroke="#37474f" points="1113.88,-409.51 1110.38,-399.51 1106.88,-409.51 1113.88,-409.51"/>
<text xml:space="preserve" text-anchor="middle" x="1144.12" y="-421.4" font-family="Helvetica,sans-Serif" font-size="8.00">25. review pending</text>
</g>
<!-- cw2 -->
<g id="node20" class="node">
<title>cw2</title>
<path fill="#b2ebf2" stroke="black" d="M1137.75,-307.5C1137.75,-307.5 1055,-307.5 1055,-307.5 1049,-307.5 1043,-301.5 1043,-295.5 1043,-295.5 1043,-283.5 1043,-283.5 1043,-277.5 1049,-271.5 1055,-271.5 1055,-271.5 1137.75,-271.5 1137.75,-271.5 1143.75,-271.5 1149.75,-277.5 1149.75,-283.5 1149.75,-283.5 1149.75,-295.5 1149.75,-295.5 1149.75,-301.5 1143.75,-307.5 1137.75,-307.5"/>
<text xml:space="preserve" text-anchor="middle" x="1096.38" y="-285.82" font-family="Helvetica,sans-Serif" font-size="9.00">update_claim_status()</text>
</g>
<!-- ui3&#45;&gt;cw2 -->
<g id="edge29" class="edge">
<title>ui3&#45;&gt;cw2</title>
<path fill="none" stroke="#37474f" d="M1102.25,-361.29C1102.25,-361.29 1102.25,-319.51 1102.25,-319.51"/>
<polygon fill="#37474f" stroke="#37474f" points="1105.75,-319.51 1102.25,-309.51 1098.75,-319.51 1105.75,-319.51"/>
<text xml:space="preserve" text-anchor="middle" x="1157.25" y="-335.9" font-family="Helvetica,sans-Serif" font-size="8.00">26. direct Python call</text>
<text xml:space="preserve" text-anchor="middle" x="1157.25" y="-326.9" font-family="Helvetica,sans-Serif" font-size="8.00">approved | denied | closed</text>
</g>
<!-- cw2&#45;&gt;claims_json -->
<g id="edge30" class="edge">
<title>cw2&#45;&gt;claims_json</title>
<path fill="none" stroke="#37474f" d="M1089.69,-271.18C1089.69,-271.18 1089.69,-211.42 1089.69,-211.42"/>
<polygon fill="#37474f" stroke="#37474f" points="1093.19,-211.42 1089.69,-201.42 1086.19,-211.42 1093.19,-211.42"/>
<text xml:space="preserve" text-anchor="middle" x="1125.12" y="-232.4" font-family="Helvetica,sans-Serif" font-size="8.00">27. update status</text>
</g>
</g>
</svg>
