<?xml version="1.0" encoding="UTF-8" standalone="no"?>
<!DOCTYPE svg PUBLIC "-//W3C//DTD SVG 1.1//EN"
 "http://www.w3.org/Graphics/SVG/1.1/DTD/svg11.dtd">
<!-- Generated by graphviz version 14.1.5 (20260411.2331)
 -->
<!-- Title: EnterpriseProductBlueprint Pages: 1 -->
<svg width="957pt" height="598pt"
 viewBox="0.00 0.00 957.00 598.00" xmlns="http://www.w3.org/2000/svg" xmlns:xlink="http://www.w3.org/1999/xlink">
<g id="graph0" class="graph" transform="scale(1 1) rotate(0) translate(4 593.5)">
<title>EnterpriseProductBlueprint</title>
<polygon fill="white" stroke="none" points="-4,4 -4,-593.5 953,-593.5 953,4 -4,4"/>
<text xml:space="preserve" text-anchor="middle" x="474.5" y="-572.2" font-family="Arial" font-size="14.00">Ontology Blueprint (not C4) — OEM Diagnostic Graph per SKU · pairs with 05&#45;neo4j&#45;ontology.dot</text>
<g id="clust1" class="cluster">
<title>cluster_identity</title>
<polygon fill="white" stroke="#1f4e79" points="8,-193.25 8,-557.75 332,-557.75 332,-193.25 8,-193.25"/>
<text xml:space="preserve" text-anchor="middle" x="170" y="-540.45" font-family="Arial" font-size="14.00">Product Identity Layer</text>
</g>
<g id="clust2" class="cluster">
<title>cluster_diagnosis</title>
<polygon fill="white" stroke="#548235" points="340,-193.25 340,-350.75 795,-350.75 795,-193.25 340,-193.25"/>
<text xml:space="preserve" text-anchor="middle" x="567.5" y="-333.45" font-family="Arial" font-size="14.00">Dynamic Diagnosis Layer</text>
</g>
<g id="clust3" class="cluster">
<title>cluster_bom</title>
<polygon fill="white" stroke="#843c0c" points="326,-8 326,-165.5 524,-165.5 524,-8 326,-8"/>
<text xml:space="preserve" text-anchor="middle" x="425" y="-148.2" font-family="Arial" font-size="14.00">BOM &amp; Parts Prediction Layer</text>
</g>
<g id="clust4" class="cluster">
<title>cluster_warranty</title>
<polygon fill="white" stroke="#bf8f00" points="424,-378.5 424,-454.25 710,-454.25 710,-378.5 424,-378.5"/>
<text xml:space="preserve" text-anchor="middle" x="567" y="-436.95" font-family="Arial" font-size="14.00">Claims &amp; Warranty Layer</text>
</g>
<!-- OEM -->
<g id="node1" class="node">
<title>OEM</title>
<path fill="#d5e8f0" stroke="black" d="M166.12,-526C166.12,-526 27.87,-526 27.87,-526 21.87,-526 15.88,-520 15.88,-514 15.88,-514 15.88,-502 15.88,-502 15.88,-496 21.88,-490 27.88,-490 27.88,-490 166.12,-490 166.12,-490 172.12,-490 178.12,-496 178.12,-502 178.12,-502 178.12,-514 178.12,-514 178.12,-520 172.12,-526 166.12,-526"/>
<text xml:space="preserve" text-anchor="middle" x="97" y="-509.95" font-family="Arial" font-size="9.00">OEM</text>
<text xml:space="preserve" text-anchor="middle" x="97" y="-499.45" font-family="Arial" font-size="9.00">(Samsung·LG·Bosch·GE·Whirlpool)</text>
</g>
<!-- Product -->
<g id="node2" class="node">
<title>Product</title>
<path fill="#bdd7ee" stroke="black" d="M311.5,-422.5C311.5,-422.5 202.5,-422.5 202.5,-422.5 196.5,-422.5 190.5,-416.5 190.5,-410.5 190.5,-410.5 190.5,-398.5 190.5,-398.5 190.5,-392.5 196.5,-386.5 202.5,-386.5 202.5,-386.5 311.5,-386.5 311.5,-386.5 317.5,-386.5 323.5,-392.5 323.5,-398.5 323.5,-398.5 323.5,-410.5 323.5,-410.5 323.5,-416.5 317.5,-422.5 311.5,-422.5"/>
<text xml:space="preserve" text-anchor="middle" x="257" y="-406.45" font-family="Arial" font-size="9.00">:Product</text>
<text xml:space="preserve" text-anchor="middle" x="257" y="-395.95" font-family="Arial" font-size="9.00">product_id · name · category</text>
</g>
<!-- OEM&#45;&gt;Product -->
<g id="edge1" class="edge">
<title>OEM&#45;&gt;Product</title>
<path fill="none" stroke="black" d="M124.5,-489.55C150.92,-472.8 190.99,-447.37 220.15,-428.88"/>
<polygon fill="black" stroke="black" points="221.74,-432.01 228.31,-423.7 217.99,-426.1 221.74,-432.01"/>
</g>
<!-- Model -->
<g id="node3" class="node">
<title>Model</title>
<path fill="#9dc3e6" stroke="black" d="M233.12,-319C233.12,-319 88.88,-319 88.88,-319 82.88,-319 76.88,-313 76.88,-307 76.88,-307 76.88,-295 76.88,-295 76.88,-289 82.88,-283 88.88,-283 88.88,-283 233.12,-283 233.12,-283 239.12,-283 245.12,-289 245.12,-295 245.12,-295 245.12,-307 245.12,-307 245.12,-313 239.12,-319 233.12,-319"/>
<text xml:space="preserve" text-anchor="middle" x="161" y="-302.95" font-family="Arial" font-size="9.00">:Model</text>
<text xml:space="preserve" text-anchor="middle" x="161" y="-292.45" font-family="Arial" font-size="9.00">model_number (e.g. WF45T6000AW)</text>
</g>
<!-- Product&#45;&gt;Model -->
<g id="edge2" class="edge">
<title>Product&#45;&gt;Model</title>
<path fill="none" stroke="black" d="M230.69,-386.32C223.46,-381.02 215.86,-374.89 209.5,-368.5 197.53,-356.47 186.23,-341.3 177.56,-328.48"/>
<polygon fill="black" stroke="black" points="180.72,-326.92 172.3,-320.5 174.87,-330.77 180.72,-326.92"/>
<text xml:space="preserve" text-anchor="middle" x="234.25" y="-360.9" font-family="Arial" font-size="8.00">HAS_MODEL</text>
</g>
<!-- Symptom -->
<g id="node6" class="node">
<title>Symptom</title>
<path fill="#ffe699" stroke="black" d="M774.5,-319C774.5,-319 707.5,-319 707.5,-319 701.5,-319 695.5,-313 695.5,-307 695.5,-307 695.5,-295 695.5,-295 695.5,-289 701.5,-283 707.5,-283 707.5,-283 774.5,-283 774.5,-283 780.5,-283 786.5,-289 786.5,-295 786.5,-295 786.5,-307 786.5,-307 786.5,-313 780.5,-319 774.5,-319"/>
<text xml:space="preserve" text-anchor="middle" x="741" y="-302.95" font-family="Arial" font-size="9.00">:Symptom</text>
<text xml:space="preserve" text-anchor="middle" x="741" y="-292.45" font-family="Arial" font-size="9.00">customer&#45;reported</text>
</g>
<!-- Product&#45;&gt;Symptom -->
<g id="edge6" class="edge">
<title>Product&#45;&gt;Symptom</title>
<path fill="none" stroke="black" d="M323.84,-391.95C353.26,-387.2 388.27,-382.01 420,-378.5 479.07,-371.97 632.14,-375.88 686,-350.75 698.04,-345.13 709.38,-336.02 718.61,-327.18"/>
<polygon fill="black" stroke="black" points="720.84,-329.91 725.38,-320.33 715.86,-324.99 720.84,-329.91"/>
<text xml:space="preserve" text-anchor="middle" x="688.45" y="-360.9" font-family="Arial" font-size="8.00">HAS_SYMPTOM</text>
</g>
<!-- ErrorCode -->
<g id="node7" class="node">
<title>ErrorCode</title>
<path fill="#ffc000" stroke="black" d="M461.75,-319C461.75,-319 360.25,-319 360.25,-319 354.25,-319 348.25,-313 348.25,-307 348.25,-307 348.25,-295 348.25,-295 348.25,-289 354.25,-283 360.25,-283 360.25,-283 461.75,-283 461.75,-283 467.75,-283 473.75,-289 473.75,-295 473.75,-295 473.75,-307 473.75,-307 473.75,-313 467.75,-319 461.75,-319"/>
<text xml:space="preserve" text-anchor="middle" x="411" y="-302.95" font-family="Arial" font-size="9.00">:ErrorCode</text>
<text xml:space="preserve" text-anchor="middle" x="411" y="-292.45" font-family="Arial" font-size="9.00">OE·IE·UE·5E (OEM public)</text>
</g>
<!-- Product&#45;&gt;ErrorCode -->
<g id="edge7" class="edge">
<title>Product&#45;&gt;ErrorCode</title>
<path fill="none" stroke="black" d="M283.47,-386.05C308.78,-369.37 347.13,-344.1 375.17,-325.62"/>
<polygon fill="black" stroke="black" points="376.93,-328.65 383.35,-320.22 373.08,-322.8 376.93,-328.65"/>
<text xml:space="preserve" text-anchor="middle" x="363.78" y="-360.9" font-family="Arial" font-size="8.00">HAS_ERROR_CODE</text>
</g>
<!-- Step -->
<g id="node9" class="node">
<title>Step</title>
<path fill="#d9d2e9" stroke="black" d="M560.25,-319C560.25,-319 503.75,-319 503.75,-319 497.75,-319 491.75,-313 491.75,-307 491.75,-307 491.75,-295 491.75,-295 491.75,-289 497.75,-283 503.75,-283 503.75,-283 560.25,-283 560.25,-283 566.25,-283 572.25,-289 572.25,-295 572.25,-295 572.25,-307 572.25,-307 572.25,-313 566.25,-319 560.25,-319"/>
<text xml:space="preserve" text-anchor="middle" x="532" y="-302.95" font-family="Arial" font-size="9.00">:DiagnosticStep</text>
<text xml:space="preserve" text-anchor="middle" x="532" y="-292.45" font-family="Arial" font-size="9.00">troubleshooting</text>
</g>
<!-- Product&#45;&gt;Step -->
<g id="edge10" class="edge">
<title>Product&#45;&gt;Step</title>
<path fill="none" stroke="black" d="M323.77,-397.67C370.7,-391.31 433.67,-378.1 483,-350.75 493.44,-344.96 503.16,-336.32 511.15,-327.9"/>
<polygon fill="black" stroke="black" points="513.73,-330.26 517.79,-320.48 508.52,-325.6 513.73,-330.26"/>
<text xml:space="preserve" text-anchor="middle" x="514.68" y="-360.9" font-family="Arial" font-size="8.00">HAS_DIAGNOSTIC_STEP</text>
</g>
<!-- Component -->
<g id="node10" class="node">
<title>Component</title>
<path fill="#00b0f0" stroke="black" d="M481.75,-133.75C481.75,-133.75 368.25,-133.75 368.25,-133.75 362.25,-133.75 356.25,-127.75 356.25,-121.75 356.25,-121.75 356.25,-109.75 356.25,-109.75 356.25,-103.75 362.25,-97.75 368.25,-97.75 368.25,-97.75 481.75,-97.75 481.75,-97.75 487.75,-97.75 493.75,-103.75 493.75,-109.75 493.75,-109.75 493.75,-121.75 493.75,-121.75 493.75,-127.75 487.75,-133.75 481.75,-133.75"/>
<text xml:space="preserve" text-anchor="middle" x="425" y="-117.7" font-family="Arial" font-size="9.00">:Component</text>
<text xml:space="preserve" text-anchor="middle" x="425" y="-107.2" font-family="Arial" font-size="9.00">subsystem (Drive·Drain·Heat)</text>
</g>
<!-- Product&#45;&gt;Component -->
<g id="edge13" class="edge">
<title>Product&#45;&gt;Component</title>
<path fill="none" stroke="black" d="M258.09,-386.06C258.41,-380.45 258.75,-374.22 259,-368.5 260.11,-343.35 251.6,-277.94 262.5,-255.25 276.53,-226.05 347.15,-172.16 390.55,-140.91"/>
<polygon fill="black" stroke="black" points="392.56,-143.77 398.66,-135.11 388.49,-138.08 392.56,-143.77"/>
<text xml:space="preserve" text-anchor="middle" x="299.25" y="-257.4" font-family="Arial" font-size="8.00">HAS_COMPONENT</text>
</g>
<!-- SKU -->
<g id="node4" class="node">
<title>SKU</title>
<path fill="#9dc3e6" stroke="black" d="M203.12,-237.25C203.12,-237.25 118.88,-237.25 118.88,-237.25 112.88,-237.25 106.88,-231.25 106.88,-225.25 106.88,-225.25 106.88,-213.25 106.88,-213.25 106.88,-207.25 112.88,-201.25 118.88,-201.25 118.88,-201.25 203.12,-201.25 203.12,-201.25 209.12,-201.25 215.12,-207.25 215.12,-213.25 215.12,-213.25 215.12,-225.25 215.12,-225.25 215.12,-231.25 209.12,-237.25 203.12,-237.25"/>
<text xml:space="preserve" text-anchor="middle" x="161" y="-221.2" font-family="Arial" font-size="9.00">:SKU</text>
<text xml:space="preserve" text-anchor="middle" x="161" y="-210.7" font-family="Arial" font-size="9.00">sku_id · revision · year</text>
</g>
<!-- Model&#45;&gt;SKU -->
<g id="edge3" class="edge">
<title>Model&#45;&gt;SKU</title>
<path fill="none" stroke="black" d="M161,-282.7C161,-272.77 161,-260.06 161,-248.7"/>
<polygon fill="black" stroke="black" points="164.5,-249.03 161,-239.03 157.5,-249.03 164.5,-249.03"/>
<text xml:space="preserve" text-anchor="middle" x="179.75" y="-257.4" font-family="Arial" font-size="8.00">HAS_SKU</text>
</g>
<!-- Part -->
<g id="node11" class="node">
<title>Part</title>
<path fill="#a5a5a5" stroke="black" d="M487.25,-52C487.25,-52 418.75,-52 418.75,-52 412.75,-52 406.75,-46 406.75,-40 406.75,-40 406.75,-28 406.75,-28 406.75,-22 412.75,-16 418.75,-16 418.75,-16 487.25,-16 487.25,-16 493.25,-16 499.25,-22 499.25,-28 499.25,-28 499.25,-40 499.25,-40 499.25,-46 493.25,-52 487.25,-52"/>
<text xml:space="preserve" text-anchor="middle" x="453" y="-35.95" font-family="Arial" font-size="9.00">:Part</text>
<text xml:space="preserve" text-anchor="middle" x="453" y="-25.45" font-family="Arial" font-size="9.00">part_number · cost</text>
</g>
<!-- SKU&#45;&gt;Part -->
<g id="edge17" class="edge">
<title>SKU&#45;&gt;Part</title>
<path fill="none" stroke="black" d="M172.5,-200.97C190.59,-175.03 228.11,-126.08 271.25,-97.75 309.22,-72.82 358.17,-56.66 395.7,-46.99"/>
<polygon fill="black" stroke="black" points="396.13,-50.49 404.99,-44.69 394.45,-43.7 396.13,-50.49"/>
<text xml:space="preserve" text-anchor="middle" x="309.12" y="-113.03" font-family="Arial" font-size="8.00">COMPATIBLE_WITH</text>
</g>
<!-- Asset -->
<g id="node5" class="node">
<title>Asset</title>
<path fill="#f4b084" stroke="black" d="M311.5,-526C311.5,-526 208.5,-526 208.5,-526 202.5,-526 196.5,-520 196.5,-514 196.5,-514 196.5,-502 196.5,-502 196.5,-496 202.5,-490 208.5,-490 208.5,-490 311.5,-490 311.5,-490 317.5,-490 323.5,-496 323.5,-502 323.5,-502 323.5,-514 323.5,-514 323.5,-520 317.5,-526 311.5,-526"/>
<text xml:space="preserve" text-anchor="middle" x="260" y="-509.95" font-family="Arial" font-size="9.00">:Asset</text>
<text xml:space="preserve" text-anchor="middle" x="260" y="-499.45" font-family="Arial" font-size="9.00">serial · purchase · warranty</text>
</g>
<!-- Asset&#45;&gt;Product -->
<g id="edge5" class="edge">
<title>Asset&#45;&gt;Product</title>
<path fill="none" stroke="black" d="M259.49,-489.78C259.04,-474.54 258.37,-452.01 257.84,-434.07"/>
<polygon fill="black" stroke="black" points="261.35,-434.21 257.56,-424.32 254.35,-434.41 261.35,-434.21"/>
<text xml:space="preserve" text-anchor="middle" x="287.07" y="-464.4" font-family="Arial" font-size="8.00">INSTANCE_OF</text>
</g>
<!-- Asset&#45;&gt;SKU -->
<g id="edge4" class="edge">
<title>Asset&#45;&gt;SKU</title>
<path fill="none" stroke="black" d="M221.62,-489.61C174.76,-465.91 98.01,-418.54 68,-350.75 55.81,-323.22 53.87,-309.59 68,-283 76.93,-266.19 92.6,-253.08 108.55,-243.28"/>
<polygon fill="black" stroke="black" points="110.21,-246.36 117.15,-238.35 106.74,-240.28 110.21,-246.36"/>
<text xml:space="preserve" text-anchor="middle" x="108.68" y="-360.9" font-family="Arial" font-size="8.00">BOUND_TO_SKU</text>
</g>
<!-- Policy -->
<g id="node12" class="node">
<title>Policy</title>
<path fill="#fff2cc" stroke="black" d="M689.5,-422.5C689.5,-422.5 598.5,-422.5 598.5,-422.5 592.5,-422.5 586.5,-416.5 586.5,-410.5 586.5,-410.5 586.5,-398.5 586.5,-398.5 586.5,-392.5 592.5,-386.5 598.5,-386.5 598.5,-386.5 689.5,-386.5 689.5,-386.5 695.5,-386.5 701.5,-392.5 701.5,-398.5 701.5,-398.5 701.5,-410.5 701.5,-410.5 701.5,-416.5 695.5,-422.5 689.5,-422.5"/>
<text xml:space="preserve" text-anchor="middle" x="644" y="-406.45" font-family="Arial" font-size="9.00">:WarrantyPolicy</text>
<text xml:space="preserve" text-anchor="middle" x="644" y="-395.95" font-family="Arial" font-size="9.00">covers_parts · max_cost</text>
</g>
<!-- Asset&#45;&gt;Policy -->
<g id="edge18" class="edge">
<title>Asset&#45;&gt;Policy</title>
<path fill="none" stroke="black" d="M323.73,-504.98C389.49,-500.96 493.9,-489.09 577,-454.25 591.13,-448.33 605.1,-438.89 616.6,-429.89"/>
<polygon fill="black" stroke="black" points="618.54,-432.83 624.08,-423.8 614.11,-427.41 618.54,-432.83"/>
<text xml:space="preserve" text-anchor="middle" x="580.14" y="-464.4" font-family="Arial" font-size="8.00">COVERED_BY</text>
</g>
<!-- FM -->
<g id="node8" class="node">
<title>FM</title>
<path fill="#a9d18e" stroke="black" d="M572.62,-237.25C572.62,-237.25 491.38,-237.25 491.38,-237.25 485.38,-237.25 479.38,-231.25 479.38,-225.25 479.38,-225.25 479.38,-213.25 479.38,-213.25 479.38,-207.25 485.38,-201.25 491.38,-201.25 491.38,-201.25 572.62,-201.25 572.62,-201.25 578.62,-201.25 584.62,-207.25 584.62,-213.25 584.62,-213.25 584.62,-225.25 584.62,-225.25 584.62,-231.25 578.62,-237.25 572.62,-237.25"/>
<text xml:space="preserve" text-anchor="middle" x="532" y="-221.2" font-family="Arial" font-size="9.00">:FailureMode</text>
<text xml:space="preserve" text-anchor="middle" x="532" y="-210.7" font-family="Arial" font-size="9.00">diagnosis / root cause</text>
</g>
<!-- Symptom&#45;&gt;FM -->
<g id="edge8" class="edge">
<title>Symptom&#45;&gt;FM</title>
<path fill="none" stroke="black" d="M701.51,-282.53C681.68,-273.97 657.22,-263.7 635,-255.25 622.38,-250.45 608.78,-245.6 595.73,-241.11"/>
<polygon fill="black" stroke="black" points="596.95,-237.83 586.36,-237.91 594.69,-244.45 596.95,-237.83"/>
<text xml:space="preserve" text-anchor="middle" x="703.09" y="-257.4" font-family="Arial" font-size="8.00">INDICATES {confidence}</text>
</g>
<!-- ErrorCode&#45;&gt;FM -->
<g id="edge9" class="edge">
<title>ErrorCode&#45;&gt;FM</title>
<path fill="none" stroke="black" d="M437.26,-282.7C454.54,-271.3 477.38,-256.25 496.31,-243.78"/>
<polygon fill="black" stroke="black" points="498.11,-246.78 504.53,-238.35 494.26,-240.93 498.11,-246.78"/>
<text xml:space="preserve" text-anchor="middle" x="500.12" y="-257.4" font-family="Arial" font-size="8.00">INDICATES</text>
</g>
<!-- FM&#45;&gt;Component -->
<g id="edge14" class="edge">
<title>FM&#45;&gt;Component</title>
<path fill="none" stroke="black" d="M478.95,-213.65C458.99,-209.05 438.14,-200.17 425.75,-183.25 417.87,-172.48 416.95,-157.87 418.32,-145.1"/>
<polygon fill="black" stroke="black" points="421.72,-145.96 419.84,-135.53 414.81,-144.85 421.72,-145.96"/>
<text xml:space="preserve" text-anchor="middle" x="471.88" y="-175.65" font-family="Arial" font-size="8.00">IMPACTS_COMPONENT</text>
</g>
<!-- FM&#45;&gt;Part -->
<g id="edge16" class="edge">
<title>FM&#45;&gt;Part</title>
<path fill="none" stroke="black" d="M531.9,-200.79C530.94,-171.49 525.6,-111.52 499,-70 496.63,-66.3 493.73,-62.85 490.55,-59.66"/>
<polygon fill="black" stroke="black" points="493.14,-57.28 483.33,-53.3 488.52,-62.53 493.14,-57.28"/>
<text xml:space="preserve" text-anchor="middle" x="592.15" y="-113.03" font-family="Arial" font-size="8.00">REQUIRES_PART {qty, probability}</text>
</g>
<!-- Step&#45;&gt;FM -->
<g id="edge11" class="edge">
<title>Step&#45;&gt;FM</title>
<path fill="none" stroke="black" d="M532,-282.7C532,-272.77 532,-260.06 532,-248.7"/>
<polygon fill="black" stroke="black" points="535.5,-249.03 532,-239.03 528.5,-249.03 535.5,-249.03"/>
<text xml:space="preserve" text-anchor="middle" x="581.5" y="-257.4" font-family="Arial" font-size="8.00">CONFIRMS / RULES_OUT</text>
</g>
<!-- Step&#45;&gt;Step -->
<g id="edge12" class="edge">
<title>Step&#45;&gt;Step</title>
<path fill="none" stroke="#c00000" d="M572.56,-308.56C582.68,-308.03 590.25,-305.51 590.25,-301 590.25,-298.39 587.72,-296.45 583.63,-295.17"/>
<polygon fill="#c00000" stroke="#c00000" points="584.48,-291.76 574.06,-293.68 583.4,-298.68 584.48,-291.76"/>
<text xml:space="preserve" text-anchor="middle" x="633.75" y="-298.27" font-family="Arial" font-size="8.00">NEXT_STEP {condition}</text>
</g>
<!-- Component&#45;&gt;Part -->
<g id="edge15" class="edge">
<title>Component&#45;&gt;Part</title>
<path fill="none" stroke="black" d="M431.08,-97.45C434.6,-87.41 439.12,-74.54 443.14,-63.09"/>
<polygon fill="black" stroke="black" points="446.42,-64.29 446.43,-53.7 439.82,-61.97 446.42,-64.29"/>
<text xml:space="preserve" text-anchor="middle" x="468.05" y="-72.15" font-family="Arial" font-size="8.00">REALIZED_BY</text>
</g>
<!-- Claim -->
<g id="node13" class="node">
<title>Claim</title>
<path fill="#fce4d6" stroke="black" d="M556.38,-422.5C556.38,-422.5 443.62,-422.5 443.62,-422.5 437.62,-422.5 431.62,-416.5 431.62,-410.5 431.62,-410.5 431.62,-398.5 431.62,-398.5 431.62,-392.5 437.62,-386.5 443.62,-386.5 443.62,-386.5 556.38,-386.5 556.38,-386.5 562.38,-386.5 568.38,-392.5 568.38,-398.5 568.38,-398.5 568.38,-410.5 568.38,-410.5 568.38,-416.5 562.38,-422.5 556.38,-422.5"/>
<text xml:space="preserve" text-anchor="middle" x="500" y="-406.45" font-family="Arial" font-size="9.00">:Claim</text>
<text xml:space="preserve" text-anchor="middle" x="500" y="-395.95" font-family="Arial" font-size="9.00">submitted · approved · closed</text>
</g>
<!-- Claim&#45;&gt;Asset -->
<g id="edge19" class="edge">
<title>Claim&#45;&gt;Asset</title>
<path fill="none" stroke="black" d="M458.88,-422.89C418.19,-440.1 355.79,-466.49 311.75,-485.11"/>
<polygon fill="black" stroke="black" points="310.5,-481.84 302.65,-488.96 313.23,-488.29 310.5,-481.84"/>
<text xml:space="preserve" text-anchor="middle" x="389.63" y="-464.4" font-family="Arial" font-size="8.00">FOR_ASSET</text>
</g>
<!-- Claim&#45;&gt;FM -->
<g id="edge20" class="edge">
<title>Claim&#45;&gt;FM</title>
<path fill="none" stroke="black" d="M548.21,-386.06C557.96,-383.09 568.22,-380.38 578,-378.5 625.96,-369.3 765.82,-389.15 796,-350.75 814.61,-327.08 810.54,-309.37 796,-283 784.83,-262.76 773.64,-263.4 752,-255.25 701.73,-236.31 641.24,-227.62 596.42,-223.63"/>
<polygon fill="black" stroke="black" points="596.85,-220.16 586.6,-222.82 596.27,-227.13 596.85,-220.16"/>
<text xml:space="preserve" text-anchor="middle" x="833.23" y="-298.27" font-family="Arial" font-size="8.00">CONFIRMED</text>
</g>
<!-- Claim&#45;&gt;Part -->
<g id="edge21" class="edge">
<title>Claim&#45;&gt;Part</title>
<path fill="none" stroke="black" d="M547.76,-386.01C557.64,-383.02 568.06,-380.3 578,-378.5 640.4,-367.22 808.52,-384.82 862,-350.75 885.4,-335.84 901,-329.75 901,-302 901,-302 901,-302 901,-114.75 901,-75.58 632.05,-49.23 510.92,-39.35"/>
<polygon fill="black" stroke="black" points="511.43,-35.88 501.18,-38.57 510.87,-42.86 511.43,-35.88"/>
<text xml:space="preserve" text-anchor="middle" x="925" y="-216.53" font-family="Arial" font-size="8.00">USED_PART</text>
</g>
</g>
</svg>
