<?xml version="1.0" encoding="UTF-8" standalone="no"?>
<!DOCTYPE svg PUBLIC "-//W3C//DTD SVG 1.1//EN"
 "http://www.w3.org/Graphics/SVG/1.1/DTD/svg11.dtd">
<!-- Generated by graphviz version 14.1.5 (20260411.2331)
 -->
<!-- Title: L2_EnterpriseConnectors Pages: 1 -->
<svg width="1395pt" height="656pt"
 viewBox="0.00 0.00 1395.00 656.00" xmlns="http://www.w3.org/2000/svg" xmlns:xlink="http://www.w3.org/1999/xlink">
<g id="graph0" class="graph" transform="scale(1 1) rotate(0) translate(4 651.75)">
<title>L2_EnterpriseConnectors</title>
<polygon fill="white" stroke="none" points="-4,4 -4,-651.75 1390.5,-651.75 1390.5,4 -4,4"/>
<text xml:space="preserve" text-anchor="middle" x="693.25" y="-630.45" font-family="Arial" font-size="14.00">L2 Detail — Enterprise Connector Topology (Protocols · Endpoints · Fallbacks)</text>
<g id="clust1" class="cluster">
<title>cluster_upstream</title>
<polygon fill="white" stroke="#666666" points="0,-324 0,-562 256.75,-562 256.75,-324 0,-324"/>
<text xml:space="preserve" text-anchor="middle" x="128.38" y="-544.7" font-family="Arial" font-size="14.00">Upstream Systems (Production Targets)</text>
</g>
<g id="clust2" class="cluster">
<title>cluster_mock</title>
<polygon fill="white" stroke="#843c0c" points="322.5,-270 322.5,-616 667,-616 667,-270 322.5,-270"/>
<text xml:space="preserve" text-anchor="middle" x="494.75" y="-598.7" font-family="Arial" font-size="14.00">Mock API (simulation/mock_enterprise_apps.py :8090)</text>
</g>
<g id="clust3" class="cluster">
<title>cluster_connectors</title>
<polygon fill="white" stroke="#1f4e79" points="388.62,-8 388.62,-262 930.25,-262 930.25,-8 388.62,-8"/>
<text xml:space="preserve" text-anchor="middle" x="659.44" y="-244.7" font-family="Arial" font-size="14.00">Connector Layer (graph/enterprise_pipeline/connectors/)</text>
</g>
<g id="clust4" class="cluster">
<title>cluster_runtime</title>
<polygon fill="white" stroke="#548235" points="1003.5,-152 1003.5,-336 1378.5,-336 1378.5,-152 1003.5,-152"/>
<text xml:space="preserve" text-anchor="middle" x="1191" y="-318.7" font-family="Arial" font-size="14.00">Runtime Consumers</text>
</g>
<!-- PIMSys -->
<g id="node1" class="node">
<title>PIMSys</title>
<path fill="#ededed" stroke="black" d="M154.62,-368C154.62,-368 101.12,-368 101.12,-368 95.12,-368 89.12,-362 89.12,-356 89.12,-356 89.12,-344 89.12,-344 89.12,-338 95.12,-332 101.12,-332 101.12,-332 154.62,-332 154.62,-332 160.62,-332 166.62,-338 166.62,-344 166.62,-344 166.62,-356 166.62,-356 166.62,-362 160.62,-368 154.62,-368"/>
<text xml:space="preserve" text-anchor="middle" x="127.88" y="-346.7" font-family="Arial" font-size="9.00">SAP PLM / PIM</text>
</g>
<!-- MPIM -->
<g id="node6" class="node">
<title>MPIM</title>
<path fill="#ffe699" stroke="black" d="M535.25,-368C535.25,-368 453.25,-368 453.25,-368 447.25,-368 441.25,-362 441.25,-356 441.25,-356 441.25,-344 441.25,-344 441.25,-338 447.25,-332 453.25,-332 453.25,-332 535.25,-332 535.25,-332 541.25,-332 547.25,-338 547.25,-344 547.25,-344 547.25,-356 547.25,-356 547.25,-362 541.25,-368 535.25,-368"/>
<text xml:space="preserve" text-anchor="middle" x="494.25" y="-346.7" font-family="Arial" font-size="9.00">GET /api/pim/products</text>
</g>
<!-- PIMSys&#45;&gt;MPIM -->
<g id="edge1" class="edge">
<title>PIMSys&#45;&gt;MPIM</title>
<path fill="none" stroke="#2e75b6" stroke-dasharray="5,2" d="M166.84,-350C229.08,-350 353.49,-350 429.46,-350"/>
<polygon fill="#2e75b6" stroke="#2e75b6" points="429.24,-353.5 439.24,-350 429.24,-346.5 429.24,-353.5"/>
<text xml:space="preserve" text-anchor="middle" x="289.62" y="-352.15" font-family="Arial" font-size="8.00">prod HTTPS</text>
</g>
<!-- CRMSys -->
<g id="node2" class="node">
<title>CRMSys</title>
<path fill="#ededed" stroke="black" d="M157.25,-530C157.25,-530 98.5,-530 98.5,-530 92.5,-530 86.5,-524 86.5,-518 86.5,-518 86.5,-506 86.5,-506 86.5,-500 92.5,-494 98.5,-494 98.5,-494 157.25,-494 157.25,-494 163.25,-494 169.25,-500 169.25,-506 169.25,-506 169.25,-518 169.25,-518 169.25,-524 163.25,-530 157.25,-530"/>
<text xml:space="preserve" text-anchor="middle" x="127.88" y="-508.7" font-family="Arial" font-size="9.00">Salesforce CRM</text>
</g>
<!-- MCRM -->
<g id="node7" class="node">
<title>MCRM</title>
<path fill="#ffe699" stroke="black" d="M538.62,-530C538.62,-530 449.88,-530 449.88,-530 443.88,-530 437.88,-524 437.88,-518 437.88,-518 437.88,-506 437.88,-506 437.88,-500 443.88,-494 449.88,-494 449.88,-494 538.62,-494 538.62,-494 544.62,-494 550.62,-500 550.62,-506 550.62,-506 550.62,-518 550.62,-518 550.62,-524 544.62,-530 538.62,-530"/>
<text xml:space="preserve" text-anchor="middle" x="494.25" y="-513.95" font-family="Arial" font-size="9.00">GET /api/crm/customers</text>
<text xml:space="preserve" text-anchor="middle" x="494.25" y="-503.45" font-family="Arial" font-size="9.00">GET /api/crm/assets</text>
</g>
<!-- CRMSys&#45;&gt;MCRM -->
<g id="edge2" class="edge">
<title>CRMSys&#45;&gt;MCRM</title>
<path fill="none" stroke="#2e75b6" stroke-dasharray="5,2" d="M169.61,-512C231.88,-512 351.38,-512 426.46,-512"/>
<polygon fill="#2e75b6" stroke="#2e75b6" points="426.14,-515.5 436.14,-512 426.14,-508.5 426.14,-515.5"/>
</g>
<!-- ClaimSys -->
<g id="node3" class="node">
<title>ClaimSys</title>
<path fill="#ededed" stroke="black" d="M171.88,-476C171.88,-476 83.88,-476 83.88,-476 77.88,-476 71.88,-470 71.88,-464 71.88,-464 71.88,-452 71.88,-452 71.88,-446 77.88,-440 83.88,-440 83.88,-440 171.88,-440 171.88,-440 177.88,-440 183.88,-446 183.88,-452 183.88,-452 183.88,-464 183.88,-464 183.88,-470 177.88,-476 171.88,-476"/>
<text xml:space="preserve" text-anchor="middle" x="127.88" y="-454.7" font-family="Arial" font-size="9.00">Guidewire ClaimCenter</text>
</g>
<!-- MClaims -->
<g id="node8" class="node">
<title>MClaims</title>
<path fill="#ffe699" stroke="black" d="M536.75,-476C536.75,-476 451.75,-476 451.75,-476 445.75,-476 439.75,-470 439.75,-464 439.75,-464 439.75,-452 439.75,-452 439.75,-446 445.75,-440 451.75,-440 451.75,-440 536.75,-440 536.75,-440 542.75,-440 548.75,-446 548.75,-452 548.75,-452 548.75,-464 548.75,-464 548.75,-470 542.75,-476 536.75,-476"/>
<text xml:space="preserve" text-anchor="middle" x="494.25" y="-454.7" font-family="Arial" font-size="9.00">GET /api/claims/closed</text>
</g>
<!-- ClaimSys&#45;&gt;MClaims -->
<g id="edge3" class="edge">
<title>ClaimSys&#45;&gt;MClaims</title>
<path fill="none" stroke="#2e75b6" stroke-dasharray="5,2" d="M184.22,-458C249.75,-458 358.76,-458 428.25,-458"/>
<polygon fill="#2e75b6" stroke="#2e75b6" points="427.96,-461.5 437.96,-458 427.96,-454.5 427.96,-461.5"/>
</g>
<!-- FSMSys -->
<g id="node4" class="node">
<title>FSMSys</title>
<path fill="#ededed" stroke="black" d="M162.88,-422C162.88,-422 92.88,-422 92.88,-422 86.88,-422 80.88,-416 80.88,-410 80.88,-410 80.88,-398 80.88,-398 80.88,-392 86.88,-386 92.88,-386 92.88,-386 162.88,-386 162.88,-386 168.88,-386 174.88,-392 174.88,-398 174.88,-398 174.88,-410 174.88,-410 174.88,-416 168.88,-422 162.88,-422"/>
<text xml:space="preserve" text-anchor="middle" x="127.88" y="-400.7" font-family="Arial" font-size="9.00">Field Service Mgmt</text>
</g>
<!-- MFSM -->
<g id="node9" class="node">
<title>MFSM</title>
<path fill="#ffe699" stroke="black" d="M541.62,-422C541.62,-422 446.88,-422 446.88,-422 440.88,-422 434.88,-416 434.88,-410 434.88,-410 434.88,-398 434.88,-398 434.88,-392 440.88,-386 446.88,-386 446.88,-386 541.62,-386 541.62,-386 547.62,-386 553.62,-392 553.62,-398 553.62,-398 553.62,-410 553.62,-410 553.62,-416 547.62,-422 541.62,-422"/>
<text xml:space="preserve" text-anchor="middle" x="494.25" y="-400.7" font-family="Arial" font-size="9.00">GET /api/fsm/work&#45;orders</text>
</g>
<!-- FSMSys&#45;&gt;MFSM -->
<g id="edge4" class="edge">
<title>FSMSys&#45;&gt;MFSM</title>
<path fill="none" stroke="#2e75b6" stroke-dasharray="5,2" d="M175.02,-404C237.65,-404 350.09,-404 423.16,-404"/>
<polygon fill="#2e75b6" stroke="#2e75b6" points="423.03,-407.5 433.03,-404 423.03,-400.5 423.03,-407.5"/>
</g>
<!-- MHealth -->
<g id="node5" class="node">
<title>MHealth</title>
<path fill="#e7e6e6" stroke="black" d="M514.25,-314C514.25,-314 474.25,-314 474.25,-314 468.25,-314 462.25,-308 462.25,-302 462.25,-302 462.25,-290 462.25,-290 462.25,-284 468.25,-278 474.25,-278 474.25,-278 514.25,-278 514.25,-278 520.25,-278 526.25,-284 526.25,-290 526.25,-290 526.25,-302 526.25,-302 526.25,-308 520.25,-314 514.25,-314"/>
<text xml:space="preserve" text-anchor="middle" x="494.25" y="-292.7" font-family="Arial" font-size="9.00">GET /health</text>
</g>
<!-- PIMC -->
<g id="node11" class="node">
<title>PIMC</title>
<path fill="#bdd7ee" stroke="black" d="M905.75,-55.75C905.75,-55.75 805.75,-55.75 805.75,-55.75 799.75,-55.75 793.75,-49.75 793.75,-43.75 793.75,-43.75 793.75,-28.25 793.75,-28.25 793.75,-22.25 799.75,-16.25 805.75,-16.25 805.75,-16.25 905.75,-16.25 905.75,-16.25 911.75,-16.25 917.75,-22.25 917.75,-28.25 917.75,-28.25 917.75,-43.75 917.75,-43.75 917.75,-49.75 911.75,-55.75 905.75,-55.75"/>
<text xml:space="preserve" text-anchor="middle" x="855.75" y="-43.2" font-family="Arial" font-size="9.00">PIMConnector</text>
<text xml:space="preserve" text-anchor="middle" x="855.75" y="-32.7" font-family="Arial" font-size="9.00">fetch() → ConnectorResult</text>
<text xml:space="preserve" text-anchor="middle" x="855.75" y="-22.2" font-family="Arial" font-size="9.00">fixture: pim_catalog.json</text>
</g>
<!-- MPIM&#45;&gt;PIMC -->
<g id="edge5" class="edge">
<title>MPIM&#45;&gt;PIMC</title>
<path fill="none" stroke="#2e75b6" d="M547.41,-356.62C585.7,-358.37 636.19,-353.65 667,-323 702.35,-287.83 666.05,-258.38 685,-212.25 710.12,-151.08 733.26,-145.13 771.25,-91 779.32,-79.5 778.42,-73.96 789.25,-65 790.36,-64.09 791.49,-63.2 792.66,-62.33"/>
<polygon fill="#2e75b6" stroke="#2e75b6" points="794.38,-65.39 800.8,-56.96 790.53,-59.54 794.38,-65.39"/>
<text xml:space="preserve" text-anchor="middle" x="728.12" y="-214.4" font-family="Arial" font-size="8.00">HTTP or fixture_fallback</text>
</g>
<!-- CRMC -->
<g id="node12" class="node">
<title>CRMC</title>
<path fill="#bdd7ee" stroke="black" d="M910.25,-229.75C910.25,-229.75 801.25,-229.75 801.25,-229.75 795.25,-229.75 789.25,-223.75 789.25,-217.75 789.25,-217.75 789.25,-202.25 789.25,-202.25 789.25,-196.25 795.25,-190.25 801.25,-190.25 801.25,-190.25 910.25,-190.25 910.25,-190.25 916.25,-190.25 922.25,-196.25 922.25,-202.25 922.25,-202.25 922.25,-217.75 922.25,-217.75 922.25,-223.75 916.25,-229.75 910.25,-229.75"/>
<text xml:space="preserve" text-anchor="middle" x="855.75" y="-217.2" font-family="Arial" font-size="9.00">CRMConnector</text>
<text xml:space="preserve" text-anchor="middle" x="855.75" y="-206.7" font-family="Arial" font-size="9.00">fetch() → customers + assets</text>
<text xml:space="preserve" text-anchor="middle" x="855.75" y="-196.2" font-family="Arial" font-size="9.00">crm_assets.json</text>
</g>
<!-- MCRM&#45;&gt;CRMC -->
<g id="edge6" class="edge">
<title>MCRM&#45;&gt;CRMC</title>
<path fill="none" stroke="#2e75b6" d="M550.93,-514.71C586.8,-513.85 632.92,-507.61 667,-485 752.87,-428.04 728.8,-371.45 789.25,-288 801.54,-271.04 816.47,-253.08 828.98,-238.68"/>
<polygon fill="#2e75b6" stroke="#2e75b6" points="831.44,-241.17 835.4,-231.34 826.18,-236.56 831.44,-241.17"/>
</g>
<!-- CRMRun -->
<g id="node17" class="node">
<title>CRMRun</title>
<path fill="#a9d18e" stroke="black" d="M1131,-304C1131,-304 1061,-304 1061,-304 1055,-304 1049,-298 1049,-292 1049,-292 1049,-280 1049,-280 1049,-274 1055,-268 1061,-268 1061,-268 1131,-268 1131,-268 1137,-268 1143,-274 1143,-280 1143,-280 1143,-292 1143,-292 1143,-298 1137,-304 1131,-304"/>
<text xml:space="preserve" text-anchor="middle" x="1096" y="-287.95" font-family="Arial" font-size="9.00">crm_enrichment.py</text>
<text xml:space="preserve" text-anchor="middle" x="1096" y="-277.45" font-family="Arial" font-size="9.00">runtime asset bind</text>
</g>
<!-- MCRM&#45;&gt;CRMRun -->
<g id="edge18" class="edge">
<title>MCRM&#45;&gt;CRMRun</title>
<path fill="none" stroke="#2e75b6" d="M551.05,-507.21C585.09,-503.32 629.17,-496.52 667,-485 815.62,-439.75 978.84,-352.38 1053.53,-310.1"/>
<polygon fill="#2e75b6" stroke="#2e75b6" points="1055.2,-313.17 1062.16,-305.19 1051.74,-307.09 1055.2,-313.17"/>
<text xml:space="preserve" text-anchor="middle" x="855.75" y="-440.2" font-family="Arial" font-size="8.00">HTTP runtime</text>
</g>
<!-- ClaimsC -->
<g id="node13" class="node">
<title>ClaimsC</title>
<path fill="#bdd7ee" stroke="black" d="M905,-113.75C905,-113.75 806.5,-113.75 806.5,-113.75 800.5,-113.75 794.5,-107.75 794.5,-101.75 794.5,-101.75 794.5,-86.25 794.5,-86.25 794.5,-80.25 800.5,-74.25 806.5,-74.25 806.5,-74.25 905,-74.25 905,-74.25 911,-74.25 917,-80.25 917,-86.25 917,-86.25 917,-101.75 917,-101.75 917,-107.75 911,-113.75 905,-113.75"/>
<text xml:space="preserve" text-anchor="middle" x="855.75" y="-101.2" font-family="Arial" font-size="9.00">ClaimsConnector</text>
<text xml:space="preserve" text-anchor="middle" x="855.75" y="-90.7" font-family="Arial" font-size="9.00">fetch() → policies + claims</text>
<text xml:space="preserve" text-anchor="middle" x="855.75" y="-80.2" font-family="Arial" font-size="9.00">claims_history.json</text>
</g>
<!-- MClaims&#45;&gt;ClaimsC -->
<g id="edge7" class="edge">
<title>MClaims&#45;&gt;ClaimsC</title>
<path fill="none" stroke="#2e75b6" d="M548.87,-464.93C587.13,-466.65 636.94,-461.77 667,-431 709.3,-387.7 655.41,-348.8 685,-296 709.14,-252.93 746.25,-268.57 771.25,-226 794.78,-185.93 760.63,-159.61 789.25,-123 789.49,-122.69 789.74,-122.38 789.99,-122.07"/>
<polygon fill="#2e75b6" stroke="#2e75b6" points="792.42,-124.59 797.19,-115.14 787.56,-119.55 792.42,-124.59"/>
</g>
<!-- Warranty -->
<g id="node18" class="node">
<title>Warranty</title>
<path fill="#a9d18e" stroke="black" d="M1135.88,-250C1135.88,-250 1056.12,-250 1056.12,-250 1050.12,-250 1044.12,-244 1044.12,-238 1044.12,-238 1044.12,-226 1044.12,-226 1044.12,-220 1050.12,-214 1056.12,-214 1056.12,-214 1135.88,-214 1135.88,-214 1141.88,-214 1147.88,-220 1147.88,-226 1147.88,-226 1147.88,-238 1147.88,-238 1147.88,-244 1141.88,-250 1135.88,-250"/>
<text xml:space="preserve" text-anchor="middle" x="1096" y="-233.95" font-family="Arial" font-size="9.00">warranty_eligibility.py</text>
<text xml:space="preserve" text-anchor="middle" x="1096" y="-223.45" font-family="Arial" font-size="9.00">policy lookup</text>
</g>
<!-- MClaims&#45;&gt;Warranty -->
<g id="edge20" class="edge">
<title>MClaims&#45;&gt;Warranty</title>
<path fill="none" stroke="#2e75b6" d="M549.03,-454.4C583.48,-450.93 628.75,-444.14 667,-431 725.75,-410.81 734.14,-391.91 789.25,-363.25 883.21,-314.4 904.77,-297.28 1003.5,-259 1012.91,-255.35 1023.03,-251.91 1032.98,-248.78"/>
<polygon fill="#2e75b6" stroke="#2e75b6" points="1033.69,-252.23 1042.23,-245.96 1031.64,-245.53 1033.69,-252.23"/>
<text xml:space="preserve" text-anchor="middle" x="855.75" y="-365.4" font-family="Arial" font-size="8.00">HTTP runtime</text>
</g>
<!-- FSMC -->
<g id="node14" class="node">
<title>FSMC</title>
<path fill="#bdd7ee" stroke="black" d="M896.75,-171.75C896.75,-171.75 814.75,-171.75 814.75,-171.75 808.75,-171.75 802.75,-165.75 802.75,-159.75 802.75,-159.75 802.75,-144.25 802.75,-144.25 802.75,-138.25 808.75,-132.25 814.75,-132.25 814.75,-132.25 896.75,-132.25 896.75,-132.25 902.75,-132.25 908.75,-138.25 908.75,-144.25 908.75,-144.25 908.75,-159.75 908.75,-159.75 908.75,-165.75 902.75,-171.75 896.75,-171.75"/>
<text xml:space="preserve" text-anchor="middle" x="855.75" y="-159.2" font-family="Arial" font-size="9.00">FSMConnector</text>
<text xml:space="preserve" text-anchor="middle" x="855.75" y="-148.7" font-family="Arial" font-size="9.00">fetch() → closed WOs</text>
<text xml:space="preserve" text-anchor="middle" x="855.75" y="-138.2" font-family="Arial" font-size="9.00">fsm_work_orders.json</text>
</g>
<!-- MFSM&#45;&gt;FSMC -->
<g id="edge8" class="edge">
<title>MFSM&#45;&gt;FSMC</title>
<path fill="none" stroke="#2e75b6" d="M553.77,-410.3C590.82,-410.92 637.19,-405 667,-377 693.88,-351.75 665.6,-327.37 685,-296 710.97,-254.01 741.97,-265.75 771.25,-226 784.02,-208.66 774.3,-196.51 789.25,-181 790.59,-179.62 792,-178.29 793.48,-177.03"/>
<polygon fill="#2e75b6" stroke="#2e75b6" points="795.29,-180.03 801.3,-171.31 791.17,-174.38 795.29,-180.03"/>
</g>
<!-- MCases -->
<g id="node10" class="node">
<title>MCases</title>
<path fill="#ffe699" stroke="black" d="M524,-584C524,-584 464.5,-584 464.5,-584 458.5,-584 452.5,-578 452.5,-572 452.5,-572 452.5,-560 452.5,-560 452.5,-554 458.5,-548 464.5,-548 464.5,-548 524,-548 524,-548 530,-548 536,-554 536,-560 536,-560 536,-572 536,-572 536,-578 530,-584 524,-584"/>
<text xml:space="preserve" text-anchor="middle" x="494.25" y="-562.7" font-family="Arial" font-size="9.00">POST /api/cases</text>
</g>
<!-- ETLPipe -->
<g id="node16" class="node">
<title>ETLPipe</title>
<path fill="#c6e0b4" stroke="black" d="M1168.5,-196C1168.5,-196 1023.5,-196 1023.5,-196 1017.5,-196 1011.5,-190 1011.5,-184 1011.5,-184 1011.5,-172 1011.5,-172 1011.5,-166 1017.5,-160 1023.5,-160 1023.5,-160 1168.5,-160 1168.5,-160 1174.5,-160 1180.5,-166 1180.5,-172 1180.5,-172 1180.5,-184 1180.5,-184 1180.5,-190 1174.5,-196 1168.5,-196"/>
<text xml:space="preserve" text-anchor="middle" x="1096" y="-179.95" font-family="Arial" font-size="9.00">knowledge_etl.py</text>
<text xml:space="preserve" text-anchor="middle" x="1096" y="-169.45" font-family="Arial" font-size="9.00">PIM+FSM+Claims → OntologyBuilder</text>
</g>
<!-- PIMC&#45;&gt;ETLPipe -->
<g id="edge13" class="edge">
<title>PIMC&#45;&gt;ETLPipe</title>
<path fill="none" stroke="#2e75b6" d="M911.95,-56.2C918.22,-58.96 924.44,-61.91 930.25,-65 978.89,-90.85 1030.59,-128.12 1062.83,-152.69"/>
<polygon fill="#2e75b6" stroke="#2e75b6" points="1060.53,-155.33 1070.59,-158.65 1064.79,-149.78 1060.53,-155.33"/>
<text xml:space="preserve" text-anchor="middle" x="966.88" y="-103.89" font-family="Arial" font-size="8.00">products[]</text>
</g>
<!-- CRMC&#45;&gt;ETLPipe -->
<g id="edge16" class="edge">
<title>CRMC&#45;&gt;ETLPipe</title>
<path fill="none" stroke="#2e75b6" stroke-dasharray="5,2" d="M922.48,-201.17C946.36,-197.96 973.84,-194.27 999.76,-190.79"/>
<polygon fill="#2e75b6" stroke="#2e75b6" points="1000.19,-194.27 1009.64,-189.47 999.26,-187.33 1000.19,-194.27"/>
<text xml:space="preserve" text-anchor="middle" x="966.88" y="-200.89" font-family="Arial" font-size="8.00">(catalog only)</text>
</g>
<!-- ClaimsC&#45;&gt;ETLPipe -->
<g id="edge15" class="edge">
<title>ClaimsC&#45;&gt;ETLPipe</title>
<path fill="none" stroke="#2e75b6" d="M914.12,-114.23C949.71,-126.78 995.47,-142.91 1032.05,-155.81"/>
<polygon fill="#2e75b6" stroke="#2e75b6" points="1030.58,-159 1041.17,-159.02 1032.91,-152.4 1030.58,-159"/>
<text xml:space="preserve" text-anchor="middle" x="966.88" y="-143.18" font-family="Arial" font-size="8.00">closed_claims[]</text>
</g>
<!-- FSMC&#45;&gt;ETLPipe -->
<g id="edge14" class="edge">
<title>FSMC&#45;&gt;ETLPipe</title>
<path fill="none" stroke="#2e75b6" d="M909.04,-157.31C934.53,-159.93 965.62,-163.18 993.5,-166.25 995.56,-166.48 997.64,-166.71 999.74,-166.94"/>
<polygon fill="#2e75b6" stroke="#2e75b6" points="999.26,-170.41 1009.59,-168.04 1000.04,-163.45 999.26,-170.41"/>
<text xml:space="preserve" text-anchor="middle" x="966.88" y="-168.4" font-family="Arial" font-size="8.00">work_orders[]</text>
</g>
<!-- Base -->
<g id="node15" class="node">
<title>Base</title>
<path fill="#d5e8f0" stroke="black" d="M579.88,-141C579.88,-141 408.62,-141 408.62,-141 402.62,-141 396.62,-135 396.62,-129 396.62,-129 396.62,-117 396.62,-117 396.62,-111 402.62,-105 408.62,-105 408.62,-105 579.88,-105 579.88,-105 585.88,-105 591.88,-111 591.88,-117 591.88,-117 591.88,-129 591.88,-129 591.88,-135 585.88,-141 579.88,-141"/>
<text xml:space="preserve" text-anchor="middle" x="494.25" y="-124.95" font-family="Arial" font-size="9.00">EnterpriseConnector (ABC)</text>
<text xml:space="preserve" text-anchor="middle" x="494.25" y="-114.45" font-family="Arial" font-size="9.00">ConnectorResult {records, metadata, errors}</text>
</g>
<!-- Base&#45;&gt;PIMC -->
<g id="edge9" class="edge">
<title>Base&#45;&gt;PIMC</title>
<path fill="none" stroke="#2e75b6" stroke-dasharray="5,2" d="M571.49,-104.55C633.78,-89.48 721.21,-68.32 782.41,-53.51"/>
<polygon fill="#2e75b6" stroke="#2e75b6" points="783.16,-56.93 792.05,-51.17 781.51,-50.12 783.16,-56.93"/>
<text xml:space="preserve" text-anchor="middle" x="728.12" y="-79.04" font-family="Arial" font-size="8.00">implements</text>
</g>
<!-- Base&#45;&gt;CRMC -->
<g id="edge10" class="edge">
<title>Base&#45;&gt;CRMC</title>
<path fill="none" stroke="#2e75b6" stroke-dasharray="5,2" d="M571.49,-141.45C632.22,-156.15 716.87,-176.63 777.79,-191.38"/>
<polygon fill="#2e75b6" stroke="#2e75b6" points="776.86,-194.75 787.41,-193.7 778.51,-187.95 776.86,-194.75"/>
</g>
<!-- Base&#45;&gt;ClaimsC -->
<g id="edge11" class="edge">
<title>Base&#45;&gt;ClaimsC</title>
<path fill="none" stroke="#2e75b6" stroke-dasharray="5,2" d="M592.06,-115.19C652.15,-110.34 728.08,-104.22 782.84,-99.8"/>
<polygon fill="#2e75b6" stroke="#2e75b6" points="782.99,-103.3 792.68,-99.01 782.43,-96.32 782.99,-103.3"/>
</g>
<!-- Base&#45;&gt;FSMC -->
<g id="edge12" class="edge">
<title>Base&#45;&gt;FSMC</title>
<path fill="none" stroke="#2e75b6" stroke-dasharray="5,2" d="M592.06,-130.81C655.16,-135.9 735.73,-142.4 790.9,-146.85"/>
<polygon fill="#2e75b6" stroke="#2e75b6" points="790.51,-150.33 800.76,-147.64 791.08,-143.35 790.51,-150.33"/>
</g>
<!-- Neo4j -->
<g id="node19" class="node">
<title>Neo4j</title>
<path fill="#fce4d6" stroke="black" d="M1370.5,-227.73C1370.5,-229.53 1355.65,-231 1337.38,-231 1319.1,-231 1304.25,-229.53 1304.25,-227.73 1304.25,-227.73 1304.25,-198.27 1304.25,-198.27 1304.25,-196.47 1319.1,-195 1337.38,-195 1355.65,-195 1370.5,-196.47 1370.5,-198.27 1370.5,-198.27 1370.5,-227.73 1370.5,-227.73"/>
<path fill="none" stroke="black" d="M1370.5,-227.73C1370.5,-225.92 1355.65,-224.45 1337.38,-224.45 1319.1,-224.45 1304.25,-225.92 1304.25,-227.73"/>
<text xml:space="preserve" text-anchor="middle" x="1337.38" y="-209.7" font-family="Arial" font-size="9.00">Neo4j :7687</text>
</g>
<!-- ETLPipe&#45;&gt;Neo4j -->
<g id="edge17" class="edge">
<title>ETLPipe&#45;&gt;Neo4j</title>
<path fill="none" stroke="#2e75b6" d="M1180.72,-190.24C1218.38,-195.75 1261.27,-202.02 1292.48,-206.58"/>
<polygon fill="#2e75b6" stroke="#2e75b6" points="1291.94,-210.04 1302.34,-208.02 1292.95,-203.11 1291.94,-210.04"/>
<text xml:space="preserve" text-anchor="middle" x="1242.38" y="-207.59" font-family="Arial" font-size="8.00">populate_graph MERGE</text>
</g>
<!-- CRMRun&#45;&gt;Neo4j -->
<g id="edge19" class="edge">
<title>CRMRun&#45;&gt;Neo4j</title>
<path fill="none" stroke="#2e75b6" stroke-dasharray="5,2" d="M1143.44,-271.84C1186.75,-258.63 1250.84,-239.08 1293.1,-226.2"/>
<polygon fill="#2e75b6" stroke="#2e75b6" points="1293.88,-229.62 1302.43,-223.35 1291.84,-222.92 1293.88,-229.62"/>
<text xml:space="preserve" text-anchor="middle" x="1242.38" y="-256.02" font-family="Arial" font-size="8.00">asset_id → product_id</text>
</g>
</g>
</svg>
