<?xml version="1.0" encoding="UTF-8" standalone="no"?>
<!DOCTYPE svg PUBLIC "-//W3C//DTD SVG 1.1//EN"
 "http://www.w3.org/Graphics/SVG/1.1/DTD/svg11.dtd">
<!-- Generated by graphviz version 14.1.5 (20260411.2331)
 -->
<!-- Title: LLD_ETL_ConnectorPipeline Pages: 1 -->
<svg width="850pt" height="486pt"
 viewBox="0.00 0.00 850.00 486.00" xmlns="http://www.w3.org/2000/svg" xmlns:xlink="http://www.w3.org/1999/xlink">
<g id="graph0" class="graph" transform="scale(1 1) rotate(0) translate(4 482.25)">
<title>LLD_ETL_ConnectorPipeline</title>
<polygon fill="white" stroke="none" points="-4,4 -4,-482.25 846.25,-482.25 846.25,4 -4,4"/>
<text xml:space="preserve" text-anchor="middle" x="421.12" y="-460.95" font-family="Arial" font-size="14.00">LLD — ETL Connector Pipeline (Batch · Provenance · Neo4j Load)</text>
<!-- Ops -->
<g id="node1" class="node">
<title>Ops</title>
<polygon fill="#e8e8e8" stroke="black" points="406.25,-454.5 337.75,-454.5 337.75,-418.5 406.25,-418.5 406.25,-454.5"/>
<text xml:space="preserve" text-anchor="middle" x="372" y="-433.2" font-family="Arial" font-size="9.00">Platform Ops</text>
</g>
<!-- Sync -->
<g id="node2" class="node">
<title>Sync</title>
<polygon fill="#ffd966" stroke="black" points="381.62,-372.75 234.38,-372.75 234.38,-336.75 381.62,-336.75 381.62,-372.75"/>
<text xml:space="preserve" text-anchor="middle" x="308" y="-356.7" font-family="Arial" font-size="9.00">pim_blueprint_sync.py</text>
<text xml:space="preserve" text-anchor="middle" x="308" y="-346.2" font-family="Arial" font-size="9.00">build_oem_enterprise_catalog()</text>
</g>
<!-- Ops&#45;&gt;Sync -->
<g id="edge1" class="edge">
<title>Ops&#45;&gt;Sync</title>
<path fill="none" stroke="#2e75b6" d="M359.69,-418.36C359.69,-418.36 359.69,-384.64 359.69,-384.64"/>
<polygon fill="#2e75b6" stroke="#2e75b6" points="363.19,-384.64 359.69,-374.64 356.19,-384.64 363.19,-384.64"/>
<text xml:space="preserve" text-anchor="middle" x="360.88" y="-392.9" font-family="Arial" font-size="8.00">1. Regenerate OEM catalog</text>
</g>
<!-- Orch -->
<g id="node4" class="node">
<title>Orch</title>
<polygon fill="#ffe699" stroke="black" points="476,-372.75 400,-372.75 400,-336.75 476,-336.75 476,-372.75"/>
<text xml:space="preserve" text-anchor="middle" x="438" y="-351.45" font-family="Arial" font-size="9.00">orchestrator.py</text>
</g>
<!-- Ops&#45;&gt;Orch -->
<g id="edge3" class="edge">
<title>Ops&#45;&gt;Orch</title>
<path fill="none" stroke="#2e75b6" d="M387.81,-418.01C387.81,-393.96 387.81,-355 387.81,-355 387.81,-355 389,-355 389,-355"/>
<polygon fill="#2e75b6" stroke="#2e75b6" points="388.19,-358.5 398.19,-355 388.19,-351.5 388.19,-358.5"/>
<text xml:space="preserve" text-anchor="middle" x="470.88" y="-392.9" font-family="Arial" font-size="8.00">3. Run orchestrator</text>
</g>
<!-- PIMFix -->
<g id="node3" class="node">
<title>PIMFix</title>
<polygon fill="#fff2cc" stroke="black" points="356.88,-291 259.12,-291 259.12,-255 356.88,-255 356.88,-291"/>
<text xml:space="preserve" text-anchor="middle" x="308" y="-274.95" font-family="Arial" font-size="9.00">pim_catalog.json</text>
<text xml:space="preserve" text-anchor="middle" x="308" y="-264.45" font-family="Arial" font-size="9.00">(13 OEM blueprints)</text>
</g>
<!-- Sync&#45;&gt;PIMFix -->
<g id="edge2" class="edge">
<title>Sync&#45;&gt;PIMFix</title>
<path fill="none" stroke="#2e75b6" d="M308,-336.61C308,-336.61 308,-302.89 308,-302.89"/>
<polygon fill="#2e75b6" stroke="#2e75b6" points="311.5,-302.89 308,-292.89 304.5,-302.89 311.5,-302.89"/>
<text xml:space="preserve" text-anchor="middle" x="342.12" y="-311.15" font-family="Arial" font-size="8.00">2. Write PIM fixture</text>
</g>
<!-- ETL -->
<g id="node5" class="node">
<title>ETL</title>
<polygon fill="#c6e0b4" stroke="black" points="482,-291 394,-291 394,-255 482,-255 482,-291"/>
<text xml:space="preserve" text-anchor="middle" x="438" y="-269.7" font-family="Arial" font-size="9.00">knowledge_etl.py</text>
</g>
<!-- Orch&#45;&gt;ETL -->
<g id="edge4" class="edge">
<title>Orch&#45;&gt;ETL</title>
<path fill="none" stroke="#2e75b6" d="M438,-336.61C438,-336.61 438,-302.89 438,-302.89"/>
<polygon fill="#2e75b6" stroke="#2e75b6" points="441.5,-302.89 438,-292.89 434.5,-302.89 441.5,-302.89"/>
<text xml:space="preserve" text-anchor="middle" x="482.62" y="-311.15" font-family="Arial" font-size="8.00">4. knowledge_etl pipeline</text>
</g>
<!-- PIMC -->
<g id="node6" class="node">
<title>PIMC</title>
<polygon fill="#bdd7ee" stroke="black" points="200.75,-209.25 99.25,-209.25 99.25,-173.25 200.75,-173.25 200.75,-209.25"/>
<text xml:space="preserve" text-anchor="middle" x="150" y="-187.95" font-family="Arial" font-size="9.00">PIMConnector.fetch()</text>
</g>
<!-- ETL&#45;&gt;PIMC -->
<g id="edge5" class="edge">
<title>ETL&#45;&gt;PIMC</title>
<path fill="none" stroke="#2e75b6" d="M409.28,-254.57C409.28,-247.01 409.28,-240 409.28,-240 409.28,-240 150,-240 150,-240 150,-240 150,-221.19 150,-221.19"/>
<polygon fill="#2e75b6" stroke="#2e75b6" points="153.5,-221.19 150,-211.19 146.5,-221.19 153.5,-221.19"/>
<text xml:space="preserve" text-anchor="middle" x="246.5" y="-229.4" font-family="Arial" font-size="8.00">5a</text>
</g>
<!-- FSMC -->
<g id="node7" class="node">
<title>FSMC</title>
<polygon fill="#bdd7ee" stroke="black" points="323.25,-209.25 218.75,-209.25 218.75,-173.25 323.25,-173.25 323.25,-209.25"/>
<text xml:space="preserve" text-anchor="middle" x="271" y="-187.95" font-family="Arial" font-size="9.00">FSMConnector.fetch()</text>
</g>
<!-- ETL&#45;&gt;FSMC -->
<g id="edge6" class="edge">
<title>ETL&#45;&gt;FSMC</title>
<path fill="none" stroke="#2e75b6" d="M424.56,-254.58C424.56,-241.04 424.56,-225 424.56,-225 424.56,-225 291.19,-225 291.19,-225 291.19,-225 291.19,-221.22 291.19,-221.22"/>
<polygon fill="#2e75b6" stroke="#2e75b6" points="294.69,-221.22 291.19,-211.22 287.69,-221.22 294.69,-221.22"/>
<text xml:space="preserve" text-anchor="middle" x="322.5" y="-229.4" font-family="Arial" font-size="8.00">5b</text>
</g>
<!-- ClaimsC -->
<g id="node8" class="node">
<title>ClaimsC</title>
<polygon fill="#bdd7ee" stroke="black" points="455.12,-209.25 340.88,-209.25 340.88,-173.25 455.12,-173.25 455.12,-209.25"/>
<text xml:space="preserve" text-anchor="middle" x="398" y="-187.95" font-family="Arial" font-size="9.00">ClaimsConnector.fetch()</text>
</g>
<!-- ETL&#45;&gt;ClaimsC -->
<g id="edge7" class="edge">
<title>ETL&#45;&gt;ClaimsC</title>
<path fill="none" stroke="#2e75b6" d="M439.84,-254.86C439.84,-254.86 439.84,-221.14 439.84,-221.14"/>
<polygon fill="#2e75b6" stroke="#2e75b6" points="443.34,-221.14 439.84,-211.14 436.34,-221.14 443.34,-221.14"/>
<text xml:space="preserve" text-anchor="middle" x="422.12" y="-229.4" font-family="Arial" font-size="8.00">5c</text>
</g>
<!-- CRMC -->
<g id="node9" class="node">
<title>CRMC</title>
<polygon fill="#bdd7ee" stroke="black" points="580.38,-209.25 473.62,-209.25 473.62,-173.25 580.38,-173.25 580.38,-209.25"/>
<text xml:space="preserve" text-anchor="middle" x="527" y="-187.95" font-family="Arial" font-size="9.00">CRMConnector.fetch()</text>
</g>
<!-- ETL&#45;&gt;CRMC -->
<g id="edge8" class="edge">
<title>ETL&#45;&gt;CRMC</title>
<path fill="none" stroke="#2e75b6" d="M477.81,-254.86C477.81,-254.86 477.81,-221.14 477.81,-221.14"/>
<polygon fill="#2e75b6" stroke="#2e75b6" points="481.31,-221.14 477.81,-211.14 474.31,-221.14 481.31,-221.14"/>
<text xml:space="preserve" text-anchor="middle" x="500.5" y="-229.4" font-family="Arial" font-size="8.00">5d (optional)</text>
</g>
<!-- PG -->
<g id="node13" class="node">
<title>PG</title>
<polygon fill="#ffe699" stroke="black" points="701.5,-209.25 598.5,-209.25 598.5,-173.25 701.5,-173.25 701.5,-209.25"/>
<text xml:space="preserve" text-anchor="middle" x="650" y="-193.2" font-family="Arial" font-size="9.00">populate_graph.py</text>
<text xml:space="preserve" text-anchor="middle" x="650" y="-182.7" font-family="Arial" font-size="9.00">MERGE + constraints</text>
</g>
<!-- ETL&#45;&gt;PG -->
<g id="edge17" class="edge">
<title>ETL&#45;&gt;PG</title>
<path fill="none" stroke="#2e75b6" d="M482.44,-267C544.61,-267 650,-267 650,-267 650,-267 650,-221.1 650,-221.1"/>
<polygon fill="#2e75b6" stroke="#2e75b6" points="653.5,-221.1 650,-211.1 646.5,-221.1 653.5,-221.1"/>
<text xml:space="preserve" text-anchor="middle" x="634.38" y="-229.4" font-family="Arial" font-size="8.00">8. if load_neo4j=true</text>
</g>
<!-- Lineage -->
<g id="node15" class="node">
<title>Lineage</title>
<polygon fill="#e2efda" stroke="black" points="822.5,-209.25 719.5,-209.25 719.5,-173.25 822.5,-173.25 822.5,-209.25"/>
<text xml:space="preserve" text-anchor="middle" x="771" y="-193.2" font-family="Arial" font-size="9.00">utils/lineage_store.py</text>
<text xml:space="preserve" text-anchor="middle" x="771" y="-182.7" font-family="Arial" font-size="9.00">etl_batches.jsonl</text>
</g>
<!-- ETL&#45;&gt;Lineage -->
<g id="edge19" class="edge">
<title>ETL&#45;&gt;Lineage</title>
<path fill="none" stroke="#2e75b6" d="M482.22,-279C572.8,-279 771,-279 771,-279 771,-279 771,-220.95 771,-220.95"/>
<polygon fill="#2e75b6" stroke="#2e75b6" points="774.5,-220.95 771,-210.95 767.5,-220.95 774.5,-220.95"/>
<text xml:space="preserve" text-anchor="middle" x="806.62" y="-229.4" font-family="Arial" font-size="8.00">10. log_batch status</text>
</g>
<!-- Mock -->
<g id="node10" class="node">
<title>Mock</title>
<polygon fill="#e7e6e6" stroke="black" points="439,-117.75 357,-117.75 357,-81.75 439,-81.75 439,-117.75"/>
<text xml:space="preserve" text-anchor="middle" x="398" y="-101.7" font-family="Arial" font-size="9.00">Mock API :8090</text>
<text xml:space="preserve" text-anchor="middle" x="398" y="-91.2" font-family="Arial" font-size="9.00">or JSON fixtures</text>
</g>
<!-- PIMC&#45;&gt;Mock -->
<g id="edge9" class="edge">
<title>PIMC&#45;&gt;Mock</title>
<path fill="none" stroke="#2e75b6" d="M166.92,-172.85C166.92,-160.32 166.92,-146 166.92,-146 166.92,-146 384.33,-146 384.33,-146 384.33,-146 384.33,-129.54 384.33,-129.54"/>
<polygon fill="#2e75b6" stroke="#2e75b6" points="387.83,-129.54 384.33,-119.54 380.83,-129.54 387.83,-129.54"/>
<text xml:space="preserve" text-anchor="middle" x="306.38" y="-147.65" font-family="Arial" font-size="8.00">HTTP GET /api/pim/products</text>
<text xml:space="preserve" text-anchor="middle" x="306.38" y="-137.9" font-family="Arial" font-size="8.00">or fixture_fallback</text>
</g>
<!-- OB -->
<g id="node11" class="node">
<title>OB</title>
<polygon fill="#a9d18e" stroke="black" points="212.62,-117.75 29.38,-117.75 29.38,-81.75 212.62,-81.75 212.62,-117.75"/>
<text xml:space="preserve" text-anchor="middle" x="121" y="-101.7" font-family="Arial" font-size="9.00">OntologyBuilder.build_catalog_payload()</text>
<text xml:space="preserve" text-anchor="middle" x="121" y="-91.2" font-family="Arial" font-size="9.00">+ warranty_catalog_extensions</text>
</g>
<!-- PIMC&#45;&gt;OB -->
<g id="edge13" class="edge">
<title>PIMC&#45;&gt;OB</title>
<path fill="none" stroke="#2e75b6" d="M133.08,-173.17C133.08,-173.17 133.08,-129.62 133.08,-129.62"/>
<polygon fill="#2e75b6" stroke="#2e75b6" points="136.58,-129.62 133.08,-119.62 129.58,-129.62 136.58,-129.62"/>
<text xml:space="preserve" text-anchor="middle" x="49.12" y="-142.78" font-family="Arial" font-size="8.00">6. ConnectorResult.records</text>
</g>
<!-- FSMC&#45;&gt;Mock -->
<g id="edge10" class="edge">
<title>FSMC&#45;&gt;Mock</title>
<path fill="none" stroke="#2e75b6" d="M271,-172.96C271,-144.79 271,-94 271,-94 271,-94 345.25,-94 345.25,-94"/>
<polygon fill="#2e75b6" stroke="#2e75b6" points="345.25,-97.5 355.25,-94 345.25,-90.5 345.25,-97.5"/>
</g>
<!-- FSMC&#45;&gt;OB -->
<g id="edge14" class="edge">
<title>FSMC&#45;&gt;OB</title>
<path fill="none" stroke="#2e75b6" d="M218.48,-191C211.5,-191 206.69,-191 206.69,-191 206.69,-191 206.69,-129.73 206.69,-129.73"/>
<polygon fill="#2e75b6" stroke="#2e75b6" points="210.19,-129.73 206.69,-119.73 203.19,-129.73 210.19,-129.73"/>
<text xml:space="preserve" text-anchor="middle" x="176.5" y="-142.78" font-family="Arial" font-size="8.00">merge resolutions + confidence</text>
</g>
<!-- ClaimsC&#45;&gt;Mock -->
<g id="edge11" class="edge">
<title>ClaimsC&#45;&gt;Mock</title>
<path fill="none" stroke="#2e75b6" d="M411.67,-173.17C411.67,-173.17 411.67,-129.62 411.67,-129.62"/>
<polygon fill="#2e75b6" stroke="#2e75b6" points="415.17,-129.62 411.67,-119.62 408.17,-129.62 415.17,-129.62"/>
</g>
<!-- ClaimsC&#45;&gt;OB -->
<g id="edge15" class="edge">
<title>ClaimsC&#45;&gt;OB</title>
<path fill="none" stroke="#2e75b6" d="M348.94,-172.75C348.94,-147.68 348.94,-106 348.94,-106 348.94,-106 224.57,-106 224.57,-106"/>
<polygon fill="#2e75b6" stroke="#2e75b6" points="224.57,-102.5 214.57,-106 224.57,-109.5 224.57,-102.5"/>
</g>
<!-- CRMC&#45;&gt;Mock -->
<g id="edge12" class="edge">
<title>CRMC&#45;&gt;Mock</title>
<path fill="none" stroke="#2e75b6" d="M527,-172.78C527,-146.12 527,-100 527,-100 527,-100 450.68,-100 450.68,-100"/>
<polygon fill="#2e75b6" stroke="#2e75b6" points="450.68,-96.5 440.68,-100 450.68,-103.5 450.68,-96.5"/>
</g>
<!-- CatJSON -->
<g id="node12" class="node">
<title>CatJSON</title>
<polygon fill="#fff2cc" stroke="black" points="202.12,-36 39.88,-36 39.88,0 202.12,0 202.12,-36"/>
<text xml:space="preserve" text-anchor="middle" x="121" y="-19.95" font-family="Arial" font-size="9.00">enterprise_knowledge_catalog.json</text>
<text xml:space="preserve" text-anchor="middle" x="121" y="-9.45" font-family="Arial" font-size="9.00">synthetic_diagnosis_data.json</text>
</g>
<!-- OB&#45;&gt;CatJSON -->
<g id="edge16" class="edge">
<title>OB&#45;&gt;CatJSON</title>
<path fill="none" stroke="#2e75b6" d="M121,-81.61C121,-81.61 121,-47.89 121,-47.89"/>
<polygon fill="#2e75b6" stroke="#2e75b6" points="124.5,-47.89 121,-37.89 117.5,-47.89 124.5,-47.89"/>
<text xml:space="preserve" text-anchor="middle" x="167.12" y="-56.15" font-family="Arial" font-size="8.00">7. Validated catalog JSON</text>
</g>
<!-- Neo4j -->
<g id="node14" class="node">
<title>Neo4j</title>
<path fill="#fce4d6" stroke="black" d="M683.12,-114.48C683.12,-116.28 668.28,-117.75 650,-117.75 631.72,-117.75 616.88,-116.28 616.88,-114.48 616.88,-114.48 616.88,-85.02 616.88,-85.02 616.88,-83.22 631.72,-81.75 650,-81.75 668.28,-81.75 683.12,-83.22 683.12,-85.02 683.12,-85.02 683.12,-114.48 683.12,-114.48"/>
<path fill="none" stroke="black" d="M683.12,-114.48C683.12,-112.67 668.28,-111.2 650,-111.2 631.72,-111.2 616.88,-112.67 616.88,-114.48"/>
<text xml:space="preserve" text-anchor="middle" x="650" y="-96.45" font-family="Arial" font-size="9.00">Neo4j :7687</text>
</g>
<!-- PG&#45;&gt;Neo4j -->
<g id="edge18" class="edge">
<title>PG&#45;&gt;Neo4j</title>
<path fill="none" stroke="#2e75b6" d="M650,-173.17C650,-173.17 650,-129.62 650,-129.62"/>
<polygon fill="#2e75b6" stroke="#2e75b6" points="653.5,-129.62 650,-119.62 646.5,-129.62 653.5,-129.62"/>
<text xml:space="preserve" text-anchor="middle" x="697.25" y="-147.65" font-family="Arial" font-size="8.00">9. Bolt MERGE</text>
<text xml:space="preserve" text-anchor="middle" x="697.25" y="-137.9" font-family="Arial" font-size="8.00">Product·Asset·Claim·BOM</text>
</g>
</g>
</svg>
