<?xml version="1.0" encoding="UTF-8" standalone="no"?>
<!DOCTYPE svg PUBLIC "-//W3C//DTD SVG 1.1//EN"
 "http://www.w3.org/Graphics/SVG/1.1/DTD/svg11.dtd">
<!-- Generated by graphviz version 14.1.5 (20260411.2331)
 -->
<!-- Title: LLD_API_ConnectorRoutes Pages: 1 -->
<svg width="794pt" height="397pt"
 viewBox="0.00 0.00 794.00 397.00" xmlns="http://www.w3.org/2000/svg" xmlns:xlink="http://www.w3.org/1999/xlink">
<g id="graph0" class="graph" transform="scale(1 1) rotate(0) translate(4 392.75)">
<title>LLD_API_ConnectorRoutes</title>
<polygon fill="white" stroke="none" points="-4,4 -4,-392.75 789.5,-392.75 789.5,4 -4,4"/>
<text xml:space="preserve" text-anchor="middle" x="392.75" y="-371.45" font-family="Arial" font-size="14.00">LLD — REST API Routes &amp; Runtime Connector Protocol Map</text>
<g id="clust1" class="cluster">
<title>cluster_api</title>
<polygon fill="white" stroke="#1f4e79" points="126,-8 126,-357 301,-357 301,-8 126,-8"/>
<text xml:space="preserve" text-anchor="middle" x="213.5" y="-339.7" font-family="Arial" font-size="14.00">FastAPI api/main.py :8080</text>
</g>
<g id="clust2" class="cluster">
<title>cluster_runtime_connectors</title>
<polygon fill="white" stroke="#548235" points="429,-112 429,-350 570.25,-350 570.25,-112 429,-112"/>
<text xml:space="preserve" text-anchor="middle" x="499.62" y="-332.7" font-family="Arial" font-size="14.00">Runtime Integrations</text>
</g>
<g id="clust3" class="cluster">
<title>cluster_data</title>
<polygon fill="white" stroke="#843c0c" points="642,-67 642,-197 777.5,-197 777.5,-67 642,-67"/>
<text xml:space="preserve" text-anchor="middle" x="709.75" y="-179.7" font-family="Arial" font-size="14.00">Data Stores</text>
</g>
<!-- Client -->
<g id="node1" class="node">
<title>Client</title>
<path fill="#d5e8f0" stroke="black" d="M85,-181C85,-181 12,-181 12,-181 6,-181 0,-175 0,-169 0,-169 0,-157 0,-157 0,-151 6,-145 12,-145 12,-145 85,-145 85,-145 91,-145 97,-151 97,-157 97,-157 97,-169 97,-169 97,-175 91,-181 85,-181"/>
<text xml:space="preserve" text-anchor="middle" x="48.5" y="-160.28" font-family="Courier,monospace" font-size="8.00">Client / Streamlit</text>
</g>
<!-- H -->
<g id="node2" class="node">
<title>H</title>
<path fill="#bdd7ee" stroke="black" d="M233.75,-325C233.75,-325 192.25,-325 192.25,-325 186.25,-325 180.25,-319 180.25,-313 180.25,-313 180.25,-301 180.25,-301 180.25,-295 186.25,-289 192.25,-289 192.25,-289 233.75,-289 233.75,-289 239.75,-289 245.75,-295 245.75,-301 245.75,-301 245.75,-313 245.75,-313 245.75,-319 239.75,-325 233.75,-325"/>
<text xml:space="preserve" text-anchor="middle" x="213" y="-304.27" font-family="Courier,monospace" font-size="8.00">GET /health</text>
</g>
<!-- Client&#45;&gt;H -->
<g id="edge1" class="edge">
<title>Client&#45;&gt;H</title>
<path fill="none" stroke="#2e75b6" d="M56.7,-181.27C67.76,-207.02 91.36,-253.78 126,-280 138.53,-289.48 154.46,-295.68 169.19,-299.71"/>
<polygon fill="#2e75b6" stroke="#2e75b6" points="168.14,-303.06 178.68,-302.03 169.8,-296.26 168.14,-303.06"/>
</g>
<!-- D -->
<g id="node3" class="node">
<title>D</title>
<path fill="#bdd7ee" stroke="black" d="M240.5,-271C240.5,-271 185.5,-271 185.5,-271 179.5,-271 173.5,-265 173.5,-259 173.5,-259 173.5,-247 173.5,-247 173.5,-241 179.5,-235 185.5,-235 185.5,-235 240.5,-235 240.5,-235 246.5,-235 252.5,-241 252.5,-247 252.5,-247 252.5,-259 252.5,-259 252.5,-265 246.5,-271 240.5,-271"/>
<text xml:space="preserve" text-anchor="middle" x="213" y="-250.28" font-family="Courier,monospace" font-size="8.00">POST /diagnose</text>
</g>
<!-- Client&#45;&gt;D -->
<g id="edge2" class="edge">
<title>Client&#45;&gt;D</title>
<path fill="none" stroke="#2e75b6" d="M67.5,-181.27C82.14,-195.22 103.91,-214.03 126,-226 137.17,-232.05 149.9,-236.98 162.08,-240.89"/>
<polygon fill="#2e75b6" stroke="#2e75b6" points="161.01,-244.22 171.6,-243.76 163.03,-237.52 161.01,-244.22"/>
</g>
<!-- CS -->
<g id="node4" class="node">
<title>CS</title>
<path fill="#bdd7ee" stroke="black" d="M251.75,-217C251.75,-217 174.25,-217 174.25,-217 168.25,-217 162.25,-211 162.25,-205 162.25,-205 162.25,-193 162.25,-193 162.25,-187 168.25,-181 174.25,-181 174.25,-181 251.75,-181 251.75,-181 257.75,-181 263.75,-187 263.75,-193 263.75,-193 263.75,-205 263.75,-205 263.75,-211 257.75,-217 251.75,-217"/>
<text xml:space="preserve" text-anchor="middle" x="213" y="-196.28" font-family="Courier,monospace" font-size="8.00">POST /claims/submit</text>
</g>
<!-- Client&#45;&gt;CS -->
<g id="edge3" class="edge">
<title>Client&#45;&gt;CS</title>
<path fill="none" stroke="#2e75b6" d="M97.38,-173.61C114.12,-177.32 133.15,-181.53 150.83,-185.45"/>
<polygon fill="#2e75b6" stroke="#2e75b6" points="149.93,-188.83 160.45,-187.58 151.44,-182 149.93,-188.83"/>
</g>
<!-- CL -->
<g id="node5" class="node">
<title>CL</title>
<path fill="#bdd7ee" stroke="black" d="M265.25,-162.62C265.25,-162.62 160.75,-162.62 160.75,-162.62 154.75,-162.62 148.75,-156.62 148.75,-150.62 148.75,-150.62 148.75,-137.38 148.75,-137.38 148.75,-131.38 154.75,-125.38 160.75,-125.38 160.75,-125.38 265.25,-125.38 265.25,-125.38 271.25,-125.38 277.25,-131.38 277.25,-137.38 277.25,-137.38 277.25,-150.62 277.25,-150.62 277.25,-156.62 271.25,-162.62 265.25,-162.62"/>
<text xml:space="preserve" text-anchor="middle" x="213" y="-151.03" font-family="Courier,monospace" font-size="8.00">GET /claims</text>
<text xml:space="preserve" text-anchor="middle" x="213" y="-141.28" font-family="Courier,monospace" font-size="8.00">GET /claims/{id}</text>
<text xml:space="preserve" text-anchor="middle" x="213" y="-131.53" font-family="Courier,monospace" font-size="8.00">PATCH /claims/{id}/status</text>
</g>
<!-- Client&#45;&gt;CL -->
<g id="edge4" class="edge">
<title>Client&#45;&gt;CL</title>
<path fill="none" stroke="#2e75b6" d="M97.38,-157.4C109.88,-155.94 123.67,-154.33 137.21,-152.74"/>
<polygon fill="#2e75b6" stroke="#2e75b6" points="137.47,-156.24 146.99,-151.6 136.65,-149.29 137.47,-156.24"/>
</g>
<!-- GO -->
<g id="node6" class="node">
<title>GO</title>
<path fill="#bdd7ee" stroke="black" d="M274.25,-107.62C274.25,-107.62 151.75,-107.62 151.75,-107.62 145.75,-107.62 139.75,-101.62 139.75,-95.62 139.75,-95.62 139.75,-82.38 139.75,-82.38 139.75,-76.38 145.75,-70.38 151.75,-70.38 151.75,-70.38 274.25,-70.38 274.25,-70.38 280.25,-70.38 286.25,-76.38 286.25,-82.38 286.25,-82.38 286.25,-95.62 286.25,-95.62 286.25,-101.62 280.25,-107.62 274.25,-107.62"/>
<text xml:space="preserve" text-anchor="middle" x="213" y="-96.03" font-family="Courier,monospace" font-size="8.00">GET /graph/ontology</text>
<text xml:space="preserve" text-anchor="middle" x="213" y="-86.28" font-family="Courier,monospace" font-size="8.00">GET /graph/product/{id}</text>
<text xml:space="preserve" text-anchor="middle" x="213" y="-76.53" font-family="Courier,monospace" font-size="8.00">GET /graph/diagnosis&#45;subgraph</text>
</g>
<!-- Client&#45;&gt;GO -->
<g id="edge5" class="edge">
<title>Client&#45;&gt;GO</title>
<path fill="none" stroke="#2e75b6" d="M75.86,-144.56C90.21,-135.11 108.55,-123.95 126,-116 128.94,-114.66 131.96,-113.36 135.03,-112.11"/>
<polygon fill="#2e75b6" stroke="#2e75b6" points="136.16,-115.42 144.23,-108.55 133.64,-108.9 136.16,-115.42"/>
</g>
<!-- LB -->
<g id="node7" class="node">
<title>LB</title>
<path fill="#bdd7ee" stroke="black" d="M254,-52C254,-52 172,-52 172,-52 166,-52 160,-46 160,-40 160,-40 160,-28 160,-28 160,-22 166,-16 172,-16 172,-16 254,-16 254,-16 260,-16 266,-22 266,-28 266,-28 266,-40 266,-40 266,-46 260,-52 254,-52"/>
<text xml:space="preserve" text-anchor="middle" x="213" y="-31.27" font-family="Courier,monospace" font-size="8.00">GET /lineage/batches</text>
</g>
<!-- Client&#45;&gt;LB -->
<g id="edge6" class="edge">
<title>Client&#45;&gt;LB</title>
<path fill="none" stroke="#2e75b6" d="M58.55,-144.76C70.79,-121.92 94.74,-83.12 126,-61 132.93,-56.1 140.78,-52.06 148.86,-48.74"/>
<polygon fill="#2e75b6" stroke="#2e75b6" points="149.96,-52.07 158.12,-45.31 147.53,-45.5 149.96,-52.07"/>
</g>
<!-- CRM -->
<g id="node8" class="node">
<title>CRM</title>
<path fill="#ffe699" stroke="black" d="M546.88,-264C546.88,-264 451.38,-264 451.38,-264 445.38,-264 439.38,-258 439.38,-252 439.38,-252 439.38,-240 439.38,-240 439.38,-234 445.38,-228 451.38,-228 451.38,-228 546.88,-228 546.88,-228 552.88,-228 558.88,-234 558.88,-240 558.88,-240 558.88,-252 558.88,-252 558.88,-258 552.88,-264 546.88,-264"/>
<text xml:space="preserve" text-anchor="middle" x="499.12" y="-248.15" font-family="Courier,monospace" font-size="8.00">crm_enrichment.py</text>
<text xml:space="preserve" text-anchor="middle" x="499.12" y="-238.4" font-family="Courier,monospace" font-size="8.00">→ Mock :8090 /api/crm/*</text>
</g>
<!-- D&#45;&gt;CRM -->
<g id="edge7" class="edge">
<title>D&#45;&gt;CRM</title>
<path fill="none" stroke="#2e75b6" d="M252.91,-252.04C297.75,-250.94 372.33,-249.1 427.49,-247.74"/>
<polygon fill="#2e75b6" stroke="#2e75b6" points="427.52,-251.24 437.43,-247.5 427.35,-244.24 427.52,-251.24"/>
<text xml:space="preserve" text-anchor="middle" x="365" y="-252.69" font-family="Arial" font-size="8.00">customer_id, asset_id</text>
</g>
<!-- WE -->
<g id="node9" class="node">
<title>WE</title>
<path fill="#ffe699" stroke="black" d="M546.88,-318C546.88,-318 451.38,-318 451.38,-318 445.38,-318 439.38,-312 439.38,-306 439.38,-306 439.38,-294 439.38,-294 439.38,-288 445.38,-282 451.38,-282 451.38,-282 546.88,-282 546.88,-282 552.88,-282 558.88,-288 558.88,-294 558.88,-294 558.88,-306 558.88,-306 558.88,-312 552.88,-318 546.88,-318"/>
<text xml:space="preserve" text-anchor="middle" x="499.12" y="-302.15" font-family="Courier,monospace" font-size="8.00">warranty_eligibility.py</text>
<text xml:space="preserve" text-anchor="middle" x="499.12" y="-292.4" font-family="Courier,monospace" font-size="8.00">→ Claims API / fixture</text>
</g>
<!-- D&#45;&gt;WE -->
<g id="edge8" class="edge">
<title>D&#45;&gt;WE</title>
<path fill="none" stroke="#2e75b6" d="M252.91,-259.44C297.84,-266.87 372.64,-279.24 427.83,-288.37"/>
<polygon fill="#2e75b6" stroke="#2e75b6" points="427.02,-291.78 437.45,-289.96 428.16,-284.88 427.02,-291.78"/>
<text xml:space="preserve" text-anchor="middle" x="365" y="-288.26" font-family="Arial" font-size="8.00">warranty gate</text>
</g>
<!-- LG -->
<g id="node10" class="node">
<title>LG</title>
<path fill="#c6e0b4" stroke="black" d="M540.12,-210C540.12,-210 458.12,-210 458.12,-210 452.12,-210 446.12,-204 446.12,-198 446.12,-198 446.12,-186 446.12,-186 446.12,-180 452.12,-174 458.12,-174 458.12,-174 540.12,-174 540.12,-174 546.12,-174 552.12,-180 552.12,-186 552.12,-186 552.12,-198 552.12,-198 552.12,-204 546.12,-210 540.12,-210"/>
<text xml:space="preserve" text-anchor="middle" x="499.12" y="-194.15" font-family="Courier,monospace" font-size="8.00">run_diagnosis()</text>
<text xml:space="preserve" text-anchor="middle" x="499.12" y="-184.4" font-family="Courier,monospace" font-size="8.00">LangGraph → GraphRAG</text>
</g>
<!-- D&#45;&gt;LG -->
<g id="edge9" class="edge">
<title>D&#45;&gt;LG</title>
<path fill="none" stroke="#2e75b6" d="M252.91,-244.65C299.69,-234.6 378.84,-217.61 434.54,-205.65"/>
<polygon fill="#2e75b6" stroke="#2e75b6" points="435.18,-209.09 444.22,-203.57 433.71,-202.25 435.18,-209.09"/>
<text xml:space="preserve" text-anchor="middle" x="365" y="-233.68" font-family="Arial" font-size="8.00">message, product_id, asset_id</text>
</g>
<!-- CS&#45;&gt;CRM -->
<g id="edge10" class="edge">
<title>CS&#45;&gt;CRM</title>
<path fill="none" stroke="#2e75b6" d="M263.85,-199.72C305.71,-201.19 366.87,-205.37 419,-217 427.05,-218.8 435.39,-221.21 443.51,-223.87"/>
<polygon fill="#2e75b6" stroke="#2e75b6" points="442.36,-227.18 452.95,-227.14 444.65,-220.57 442.36,-227.18"/>
</g>
<!-- CS&#45;&gt;LG -->
<g id="edge11" class="edge">
<title>CS&#45;&gt;LG</title>
<path fill="none" stroke="#2e75b6" d="M263.81,-194.71C278.95,-193.6 295.65,-192.55 311,-192 352.01,-190.52 398.12,-190.5 434.3,-190.86"/>
<polygon fill="#2e75b6" stroke="#2e75b6" points="434.13,-194.36 444.16,-190.97 434.21,-187.36 434.13,-194.36"/>
</g>
<!-- CW -->
<g id="node11" class="node">
<title>CW</title>
<path fill="#ffd966" stroke="black" d="M535.62,-156C535.62,-156 462.62,-156 462.62,-156 456.62,-156 450.62,-150 450.62,-144 450.62,-144 450.62,-132 450.62,-132 450.62,-126 456.62,-120 462.62,-120 462.62,-120 535.62,-120 535.62,-120 541.62,-120 547.62,-126 547.62,-132 547.62,-132 547.62,-144 547.62,-144 547.62,-150 541.62,-156 535.62,-156"/>
<text xml:space="preserve" text-anchor="middle" x="499.12" y="-135.28" font-family="Courier,monospace" font-size="8.00">claims_workflow.py</text>
</g>
<!-- CS&#45;&gt;CW -->
<g id="edge12" class="edge">
<title>CS&#45;&gt;CW</title>
<path fill="none" stroke="#2e75b6" d="M264.14,-188.23C313.12,-177.72 387.64,-161.72 439.38,-150.61"/>
<polygon fill="#2e75b6" stroke="#2e75b6" points="439.85,-154.09 448.9,-148.57 438.38,-147.25 439.85,-154.09"/>
</g>
<!-- CL&#45;&gt;CW -->
<g id="edge13" class="edge">
<title>CL&#45;&gt;CW</title>
<path fill="none" stroke="#2e75b6" d="M277.41,-142.66C325.76,-141.64 391.86,-140.24 439.09,-139.25"/>
<polygon fill="#2e75b6" stroke="#2e75b6" points="438.93,-142.75 448.86,-139.04 438.78,-135.75 438.93,-142.75"/>
</g>
<!-- Neo4j -->
<g id="node12" class="node">
<title>Neo4j</title>
<path fill="#fce4d6" stroke="black" d="M753.75,-161.73C753.75,-163.53 734.03,-165 709.75,-165 685.47,-165 665.75,-163.53 665.75,-161.73 665.75,-161.73 665.75,-132.27 665.75,-132.27 665.75,-130.47 685.47,-129 709.75,-129 734.03,-129 753.75,-130.47 753.75,-132.27 753.75,-132.27 753.75,-161.73 753.75,-161.73"/>
<path fill="none" stroke="black" d="M753.75,-161.73C753.75,-159.92 734.03,-158.45 709.75,-158.45 685.47,-158.45 665.75,-159.92 665.75,-161.73"/>
<text xml:space="preserve" text-anchor="middle" x="709.75" y="-144.28" font-family="Courier,monospace" font-size="8.00">Neo4j Bolt :7687</text>
</g>
<!-- GO&#45;&gt;Neo4j -->
<g id="edge15" class="edge">
<title>GO&#45;&gt;Neo4j</title>
<path fill="none" stroke="#2e75b6" d="M286.67,-84.32C359.15,-81.18 473.35,-80.4 570.25,-98.25 586.92,-101.32 623.64,-114.35 655.08,-126.17"/>
<polygon fill="#2e75b6" stroke="#2e75b6" points="653.5,-129.31 664.09,-129.58 655.97,-122.77 653.5,-129.31"/>
<text xml:space="preserve" text-anchor="middle" x="499.12" y="-100.4" font-family="Arial" font-size="8.00">subgraph JSON</text>
</g>
<!-- JSON -->
<g id="node13" class="node">
<title>JSON</title>
<polygon fill="#fff2cc" stroke="black" points="763.5,-111 650,-111 650,-75 769.5,-75 769.5,-105 763.5,-111"/>
<polyline fill="none" stroke="black" points="763.5,-111 763.5,-105"/>
<polyline fill="none" stroke="black" points="769.5,-105 763.5,-105"/>
<text xml:space="preserve" text-anchor="middle" x="709.75" y="-95.15" font-family="Courier,monospace" font-size="8.00">claims_submissions.json</text>
<text xml:space="preserve" text-anchor="middle" x="709.75" y="-85.4" font-family="Courier,monospace" font-size="8.00">escalations.json</text>
</g>
<!-- LB&#45;&gt;JSON -->
<g id="edge18" class="edge">
<title>LB&#45;&gt;JSON</title>
<path fill="none" stroke="#2e75b6" d="M266.33,-38.31C335.89,-44.28 462.56,-55.94 570.25,-70.25 592.47,-73.2 616.59,-76.97 638.39,-80.58"/>
<polygon fill="#2e75b6" stroke="#2e75b6" points="637.63,-84 648.07,-82.21 638.78,-77.1 637.63,-84"/>
<text xml:space="preserve" text-anchor="middle" x="499.12" y="-72.4" font-family="Arial" font-size="8.00">lineage/etl_batches.jsonl</text>
</g>
<!-- LG&#45;&gt;Neo4j -->
<g id="edge14" class="edge">
<title>LG&#45;&gt;Neo4j</title>
<path fill="none" stroke="#2e75b6" d="M552.5,-180.7C583.57,-174 622.89,-165.52 654.31,-158.74"/>
<polygon fill="#2e75b6" stroke="#2e75b6" points="654.98,-162.18 664.02,-156.65 653.51,-155.34 654.98,-162.18"/>
<text xml:space="preserve" text-anchor="middle" x="606.12" y="-175.68" font-family="Arial" font-size="8.00">Cypher</text>
</g>
<!-- CW&#45;&gt;Neo4j -->
<g id="edge16" class="edge">
<title>CW&#45;&gt;Neo4j</title>
<path fill="none" stroke="#2e75b6" d="M547.99,-140.06C579.63,-141.43 621.18,-143.22 654.11,-144.64"/>
<polygon fill="#2e75b6" stroke="#2e75b6" points="653.72,-148.13 663.86,-145.06 654.02,-141.14 653.72,-148.13"/>
<text xml:space="preserve" text-anchor="middle" x="606.12" y="-145.72" font-family="Arial" font-size="8.00">MERGE Claim</text>
</g>
<!-- CW&#45;&gt;JSON -->
<g id="edge17" class="edge">
<title>CW&#45;&gt;JSON</title>
<path fill="none" stroke="#2e75b6" d="M547.99,-127.68C574.76,-121.9 608.64,-114.59 638.38,-108.18"/>
<polygon fill="#2e75b6" stroke="#2e75b6" points="639.04,-111.62 648.07,-106.09 637.56,-104.77 639.04,-111.62"/>
</g>
</g>
</svg>
