<?xml version="1.0" encoding="UTF-8" standalone="no"?>
<!DOCTYPE svg PUBLIC "-//W3C//DTD SVG 1.1//EN"
 "http://www.w3.org/Graphics/SVG/1.1/DTD/svg11.dtd">
<!-- Generated by graphviz version 14.1.5 (20260411.2331)
 -->
<!-- Title: LLD_K8s_Deployment Pages: 1 -->
<svg width="1185pt" height="527pt"
 viewBox="0.00 0.00 1185.00 527.00" xmlns="http://www.w3.org/2000/svg" xmlns:xlink="http://www.w3.org/1999/xlink">
<g id="graph0" class="graph" transform="scale(1 1) rotate(0) translate(4 523.44)">
<title>LLD_K8s_Deployment</title>
<polygon fill="white" stroke="none" points="-4,4 -4,-523.44 1181,-523.44 1181,4 -4,4"/>
<text xml:space="preserve" text-anchor="middle" x="588.5" y="-502.14" font-family="Arial" font-size="14.00">LLD — Kubernetes Deployment Topology</text>
<text xml:space="preserve" text-anchor="middle" x="588.5" y="-486.39" font-family="Arial" font-size="14.00">(Neo4j · API · Streamlit · Mock Enterprise · ETL CronJob · Ingress)</text>
<g id="clust1" class="cluster">
<title>cluster_cicd_ext</title>
<polygon fill="white" stroke="#666666" points="8,-226.69 8,-471.94 167,-471.94 167,-226.69 8,-226.69"/>
<text xml:space="preserve" text-anchor="middle" x="87.5" y="-454.64" font-family="Arial" font-size="14.00">CI/CD (see diagram 31)</text>
</g>
<g id="clust2" class="cluster">
<title>cluster_cluster</title>
<polygon fill="white" stroke="#1f4e79" points="175,-8 175,-304.19 871,-304.19 871,-8 175,-8"/>
<text xml:space="preserve" text-anchor="middle" x="523" y="-286.89" font-family="Arial" font-size="14.00">Kubernetes Cluster</text>
</g>
<g id="clust3" class="cluster">
<title>cluster_ns_staging</title>
<polygon fill="white" stroke="#548235" points="183,-16 183,-197.19 863,-197.19 863,-16 183,-16"/>
<text xml:space="preserve" text-anchor="middle" x="523" y="-179.89" font-family="Arial" font-size="14.00">Namespace: diagnostics&#45;staging</text>
</g>
<g id="clust4" class="cluster">
<title>cluster_external_prod</title>
<polygon fill="white" stroke="#666666" points="879,-17.94 879,-93.69 1169,-93.69 1169,-17.94 879,-17.94"/>
<text xml:space="preserve" text-anchor="middle" x="1024" y="-76.39" font-family="Arial" font-size="14.00">Production Enterprise Connectors</text>
</g>
<!-- GH -->
<g id="node1" class="node">
<title>GH</title>
<path fill="#f2f2f2" stroke="black" d="M134.5,-440.19C134.5,-440.19 67.5,-440.19 67.5,-440.19 61.5,-440.19 55.5,-434.19 55.5,-428.19 55.5,-428.19 55.5,-416.19 55.5,-416.19 55.5,-410.19 61.5,-404.19 67.5,-404.19 67.5,-404.19 134.5,-404.19 134.5,-404.19 140.5,-404.19 146.5,-410.19 146.5,-416.19 146.5,-416.19 146.5,-428.19 146.5,-428.19 146.5,-434.19 140.5,-440.19 134.5,-440.19"/>
<text xml:space="preserve" text-anchor="middle" x="101" y="-424.14" font-family="Arial" font-size="9.00">GitHub Repository</text>
<text xml:space="preserve" text-anchor="middle" x="101" y="-413.64" font-family="Arial" font-size="9.00">diagnostic&#45;chatbot</text>
</g>
<!-- GHA -->
<g id="node2" class="node">
<title>GHA</title>
<path fill="#e2efda" stroke="black" d="M146.5,-367.19C146.5,-367.19 55.5,-367.19 55.5,-367.19 49.5,-367.19 43.5,-361.19 43.5,-355.19 43.5,-355.19 43.5,-343.19 43.5,-343.19 43.5,-337.19 49.5,-331.19 55.5,-331.19 55.5,-331.19 146.5,-331.19 146.5,-331.19 152.5,-331.19 158.5,-337.19 158.5,-343.19 158.5,-343.19 158.5,-355.19 158.5,-355.19 158.5,-361.19 152.5,-367.19 146.5,-367.19"/>
<text xml:space="preserve" text-anchor="middle" x="101" y="-351.14" font-family="Arial" font-size="9.00">GitHub Actions</text>
<text xml:space="preserve" text-anchor="middle" x="101" y="-340.64" font-family="Arial" font-size="9.00">build · test · push GHCR</text>
</g>
<!-- GH&#45;&gt;GHA -->
<g id="edge1" class="edge">
<title>GH&#45;&gt;GHA</title>
<path fill="none" stroke="#2e75b6" d="M101,-404C101,-396.41 101,-387.29 101,-378.73"/>
<polygon fill="#2e75b6" stroke="#2e75b6" points="104.5,-378.73 101,-368.73 97.5,-378.73 104.5,-378.73"/>
</g>
<!-- GHCR -->
<g id="node3" class="node">
<title>GHCR</title>
<path fill="#fff2cc" stroke="black" d="M147.12,-270.69C147.12,-270.69 56.87,-270.69 56.87,-270.69 50.88,-270.69 44.87,-264.69 44.87,-258.69 44.87,-258.69 44.87,-246.69 44.87,-246.69 44.87,-240.69 50.87,-234.69 56.87,-234.69 56.87,-234.69 147.12,-234.69 147.12,-234.69 153.12,-234.69 159.12,-240.69 159.12,-246.69 159.12,-246.69 159.12,-258.69 159.12,-258.69 159.12,-264.69 153.12,-270.69 147.12,-270.69"/>
<text xml:space="preserve" text-anchor="middle" x="102" y="-254.64" font-family="Arial" font-size="9.00">ghcr.io/org/diagnostics&#45;*</text>
<text xml:space="preserve" text-anchor="middle" x="102" y="-244.14" font-family="Arial" font-size="9.00">api · ui · mock · etl</text>
</g>
<!-- GHA&#45;&gt;GHCR -->
<g id="edge2" class="edge">
<title>GHA&#45;&gt;GHCR</title>
<path fill="none" stroke="#2e75b6" d="M101.18,-330.85C101.33,-317.27 101.53,-298.07 101.7,-282.23"/>
<polygon fill="#2e75b6" stroke="#2e75b6" points="105.2,-282.46 101.8,-272.42 98.2,-282.39 105.2,-282.46"/>
</g>
<!-- API -->
<g id="node5" class="node">
<title>API</title>
<path fill="#c6e0b4" stroke="black" d="M686.12,-165.44C686.12,-165.44 577.88,-165.44 577.88,-165.44 571.88,-165.44 565.88,-159.44 565.88,-153.44 565.88,-153.44 565.88,-141.44 565.88,-141.44 565.88,-135.44 571.88,-129.44 577.88,-129.44 577.88,-129.44 686.12,-129.44 686.12,-129.44 692.12,-129.44 698.12,-135.44 698.12,-141.44 698.12,-141.44 698.12,-153.44 698.12,-153.44 698.12,-159.44 692.12,-165.44 686.12,-165.44"/>
<text xml:space="preserve" text-anchor="middle" x="632" y="-149.39" font-family="Arial" font-size="9.00">Deployment: diagnostics&#45;api</text>
<text xml:space="preserve" text-anchor="middle" x="632" y="-138.89" font-family="Arial" font-size="9.00">:8080 replicas 2</text>
</g>
<!-- GHA&#45;&gt;API -->
<g id="edge3" class="edge">
<title>GHA&#45;&gt;API</title>
<path fill="none" stroke="#2e75b6" stroke-dasharray="5,2" d="M158.76,-346.6C280.64,-342.73 555.58,-331.09 588,-304.19 625.49,-273.07 632.38,-212.65 632.92,-176.9"/>
<polygon fill="#2e75b6" stroke="#2e75b6" points="636.42,-177.31 632.9,-167.31 629.42,-177.32 636.42,-177.31"/>
<text xml:space="preserve" text-anchor="middle" x="664.62" y="-249.96" font-family="Arial" font-size="8.00">kubectl apply staging</text>
</g>
<!-- GHCR&#45;&gt;API -->
<g id="edge4" class="edge">
<title>GHCR&#45;&gt;API</title>
<path fill="none" stroke="#2e75b6" d="M144.54,-234.24C153.17,-231.28 162.28,-228.56 171,-226.69 238.11,-212.25 258.43,-231.7 325,-214.94 335.37,-212.33 336.58,-207.6 347,-205.19 392.5,-194.65 512.49,-211.31 557,-197.19 573.44,-191.97 589.73,-182.11 602.9,-172.61"/>
<polygon fill="#2e75b6" stroke="#2e75b6" points="604.81,-175.55 610.7,-166.74 600.6,-169.96 604.81,-175.55"/>
<text xml:space="preserve" text-anchor="middle" x="364.25" y="-207.34" font-family="Arial" font-size="8.00">imagePull</text>
</g>
<!-- UI -->
<g id="node6" class="node">
<title>UI</title>
<path fill="#c6e0b4" stroke="black" d="M416.5,-165.44C416.5,-165.44 313.5,-165.44 313.5,-165.44 307.5,-165.44 301.5,-159.44 301.5,-153.44 301.5,-153.44 301.5,-141.44 301.5,-141.44 301.5,-135.44 307.5,-129.44 313.5,-129.44 313.5,-129.44 416.5,-129.44 416.5,-129.44 422.5,-129.44 428.5,-135.44 428.5,-141.44 428.5,-141.44 428.5,-153.44 428.5,-153.44 428.5,-159.44 422.5,-165.44 416.5,-165.44"/>
<text xml:space="preserve" text-anchor="middle" x="365" y="-149.39" font-family="Arial" font-size="9.00">Deployment: diagnostics&#45;ui</text>
<text xml:space="preserve" text-anchor="middle" x="365" y="-138.89" font-family="Arial" font-size="9.00">:8501 replicas 2</text>
</g>
<!-- GHCR&#45;&gt;UI -->
<g id="edge5" class="edge">
<title>GHCR&#45;&gt;UI</title>
<path fill="none" stroke="#2e75b6" d="M146.32,-234.29C191.37,-216.6 261.26,-189.16 309.86,-170.08"/>
<polygon fill="#2e75b6" stroke="#2e75b6" points="311.06,-173.37 319.09,-166.46 308.51,-166.86 311.06,-173.37"/>
<text xml:space="preserve" text-anchor="middle" x="235" y="-207.34" font-family="Arial" font-size="8.00">imagePull</text>
</g>
<!-- MOCK -->
<g id="node7" class="node">
<title>MOCK</title>
<path fill="#ffe699" stroke="black" d="M435,-61.94C435,-61.94 323,-61.94 323,-61.94 317,-61.94 311,-55.94 311,-49.94 311,-49.94 311,-37.94 311,-37.94 311,-31.94 317,-25.94 323,-25.94 323,-25.94 435,-25.94 435,-25.94 441,-25.94 447,-31.94 447,-37.94 447,-37.94 447,-49.94 447,-49.94 447,-55.94 441,-61.94 435,-61.94"/>
<text xml:space="preserve" text-anchor="middle" x="379" y="-45.89" font-family="Arial" font-size="9.00">Deployment: mock&#45;enterprise</text>
<text xml:space="preserve" text-anchor="middle" x="379" y="-35.39" font-family="Arial" font-size="9.00">:8090</text>
</g>
<!-- GHCR&#45;&gt;MOCK -->
<g id="edge6" class="edge">
<title>GHCR&#45;&gt;MOCK</title>
<path fill="none" stroke="#2e75b6" d="M123.5,-234.32C153.42,-210.29 209.46,-165.75 258.5,-129.44 286.84,-108.46 319.63,-85.54 343.85,-68.88"/>
<polygon fill="#2e75b6" stroke="#2e75b6" points="345.83,-71.77 352.09,-63.22 341.87,-65.99 345.83,-71.77"/>
<text xml:space="preserve" text-anchor="middle" x="275.75" y="-144.71" font-family="Arial" font-size="8.00">imagePull</text>
</g>
<!-- ETL -->
<g id="node9" class="node">
<title>ETL</title>
<path fill="#ffd966" stroke="black" d="M535.75,-165.44C535.75,-165.44 458.25,-165.44 458.25,-165.44 452.25,-165.44 446.25,-159.44 446.25,-153.44 446.25,-153.44 446.25,-141.44 446.25,-141.44 446.25,-135.44 452.25,-129.44 458.25,-129.44 458.25,-129.44 535.75,-129.44 535.75,-129.44 541.75,-129.44 547.75,-135.44 547.75,-141.44 547.75,-141.44 547.75,-153.44 547.75,-153.44 547.75,-159.44 541.75,-165.44 535.75,-165.44"/>
<text xml:space="preserve" text-anchor="middle" x="497" y="-149.39" font-family="Arial" font-size="9.00">CronJob: etl&#45;pipeline</text>
<text xml:space="preserve" text-anchor="middle" x="497" y="-138.89" font-family="Arial" font-size="9.00">orchestrator.py</text>
</g>
<!-- GHCR&#45;&gt;ETL -->
<g id="edge7" class="edge">
<title>GHCR&#45;&gt;ETL</title>
<path fill="none" stroke="#2e75b6" d="M145.74,-234.28C154.04,-231.43 162.71,-228.74 171,-226.69 208.02,-217.53 218.67,-222.75 256,-214.94 271.6,-211.67 274.78,-207.8 290.5,-205.19 322.88,-199.8 407.42,-209.13 438,-197.19 451.21,-192.03 463.66,-182.7 473.69,-173.57"/>
<polygon fill="#2e75b6" stroke="#2e75b6" points="475.98,-176.22 480.75,-166.76 471.12,-171.18 475.98,-176.22"/>
<text xml:space="preserve" text-anchor="middle" x="307.75" y="-207.34" font-family="Arial" font-size="8.00">imagePull</text>
</g>
<!-- ING -->
<g id="node4" class="node">
<title>ING</title>
<path fill="#bdd7ee" stroke="black" d="M476.75,-272.44C476.75,-272.44 381.25,-272.44 381.25,-272.44 375.25,-272.44 369.25,-266.44 369.25,-260.44 369.25,-260.44 369.25,-244.94 369.25,-244.94 369.25,-238.94 375.25,-232.94 381.25,-232.94 381.25,-232.94 476.75,-232.94 476.75,-232.94 482.75,-232.94 488.75,-238.94 488.75,-244.94 488.75,-244.94 488.75,-260.44 488.75,-260.44 488.75,-266.44 482.75,-272.44 476.75,-272.44"/>
<text xml:space="preserve" text-anchor="middle" x="429" y="-259.89" font-family="Arial" font-size="9.00">Ingress</text>
<text xml:space="preserve" text-anchor="middle" x="429" y="-249.39" font-family="Arial" font-size="9.00">diagnostics.example.com</text>
<text xml:space="preserve" text-anchor="middle" x="429" y="-238.89" font-family="Arial" font-size="9.00">/ui · /api</text>
</g>
<!-- ING&#45;&gt;API -->
<g id="edge9" class="edge">
<title>ING&#45;&gt;API</title>
<path fill="none" stroke="#2e75b6" d="M479.48,-232.56C503.43,-222.89 532.17,-210.42 557,-197.19 570.98,-189.74 585.73,-180.49 598.41,-172.05"/>
<polygon fill="#2e75b6" stroke="#2e75b6" points="600.08,-175.15 606.4,-166.65 596.16,-169.35 600.08,-175.15"/>
<text xml:space="preserve" text-anchor="middle" x="546.53" y="-207.34" font-family="Arial" font-size="8.00">/api</text>
</g>
<!-- ING&#45;&gt;UI -->
<g id="edge8" class="edge">
<title>ING&#45;&gt;UI</title>
<path fill="none" stroke="#2e75b6" d="M417.26,-232.75C407.32,-216.71 392.95,-193.53 381.79,-175.53"/>
<polygon fill="#2e75b6" stroke="#2e75b6" points="384.85,-173.82 376.61,-167.17 378.9,-177.51 384.85,-173.82"/>
<text xml:space="preserve" text-anchor="middle" x="408.74" y="-207.34" font-family="Arial" font-size="8.00">/ui</text>
</g>
<!-- API&#45;&gt;MOCK -->
<g id="edge12" class="edge">
<title>API&#45;&gt;MOCK</title>
<path fill="none" stroke="#2e75b6" stroke-dasharray="5,2" d="M565.42,-130.95C562.58,-130.41 559.76,-129.91 557,-129.44 522.33,-123.54 426.85,-133.86 399.75,-111.44 388.58,-102.2 383.32,-87.03 380.89,-73.51"/>
<polygon fill="#2e75b6" stroke="#2e75b6" points="384.38,-73.2 379.59,-63.74 377.44,-74.12 384.38,-73.2"/>
<text xml:space="preserve" text-anchor="middle" x="448.88" y="-103.84" font-family="Arial" font-size="8.00">http://mock&#45;enterprise:8090</text>
</g>
<!-- NEO -->
<g id="node8" class="node">
<title>NEO</title>
<path fill="#fce4d6" stroke="black" d="M553,-60.25C553,-62.25 533.28,-63.88 509,-63.88 484.72,-63.88 465,-62.25 465,-60.25 465,-60.25 465,-27.62 465,-27.62 465,-25.62 484.72,-24 509,-24 533.28,-24 553,-25.62 553,-27.62 553,-27.62 553,-60.25 553,-60.25"/>
<path fill="none" stroke="black" d="M553,-60.25C553,-58.25 533.28,-56.62 509,-56.62 484.72,-56.62 465,-58.25 465,-60.25"/>
<text xml:space="preserve" text-anchor="middle" x="509" y="-45.89" font-family="Arial" font-size="9.00">StatefulSet: neo4j</text>
<text xml:space="preserve" text-anchor="middle" x="509" y="-35.39" font-family="Arial" font-size="9.00">Bolt :7687 PVC</text>
</g>
<!-- API&#45;&gt;NEO -->
<g id="edge10" class="edge">
<title>API&#45;&gt;NEO</title>
<path fill="none" stroke="#2e75b6" d="M598.97,-129.07C590.13,-123.86 580.8,-117.82 572.75,-111.44 558.29,-99.98 543.91,-85.34 532.48,-72.72"/>
<polygon fill="#2e75b6" stroke="#2e75b6" points="535.33,-70.66 526.08,-65.5 530.1,-75.3 535.33,-70.66"/>
<text xml:space="preserve" text-anchor="middle" x="602.38" y="-103.84" font-family="Arial" font-size="8.00">bolt://neo4j:7687</text>
</g>
<!-- CM -->
<g id="node10" class="node">
<title>CM</title>
<polygon fill="#fff2cc" stroke="black" points="704.88,-61.94 571.12,-61.94 571.12,-25.94 710.88,-25.94 710.88,-55.94 704.88,-61.94"/>
<polyline fill="none" stroke="black" points="704.88,-61.94 704.88,-55.94"/>
<polyline fill="none" stroke="black" points="710.88,-55.94 704.88,-55.94"/>
<text xml:space="preserve" text-anchor="middle" x="641" y="-40.64" font-family="Arial" font-size="9.00">ConfigMap: diagnostics&#45;config</text>
</g>
<!-- API&#45;&gt;CM -->
<g id="edge17" class="edge">
<title>API&#45;&gt;CM</title>
<path fill="none" stroke="#2e75b6" stroke-dasharray="5,2" d="M634.13,-129C634.77,-123.4 635.46,-117.16 636,-111.44 637.17,-99.03 638.25,-85.31 639.09,-73.56"/>
<polygon fill="#2e75b6" stroke="#2e75b6" points="642.58,-73.91 639.78,-63.69 635.59,-73.42 642.58,-73.91"/>
</g>
<!-- SEC -->
<g id="node11" class="node">
<title>SEC</title>
<polygon fill="#fce4d6" stroke="black" points="848.75,-61.94 729.25,-61.94 729.25,-25.94 854.75,-25.94 854.75,-55.94 848.75,-61.94"/>
<polyline fill="none" stroke="black" points="848.75,-61.94 848.75,-55.94"/>
<polyline fill="none" stroke="black" points="854.75,-55.94 848.75,-55.94"/>
<text xml:space="preserve" text-anchor="middle" x="792" y="-45.89" font-family="Arial" font-size="9.00">Secret: diagnostics&#45;secrets</text>
<text xml:space="preserve" text-anchor="middle" x="792" y="-35.39" font-family="Arial" font-size="9.00">NEO4J_PASSWORD</text>
</g>
<!-- API&#45;&gt;SEC -->
<g id="edge18" class="edge">
<title>API&#45;&gt;SEC</title>
<path fill="none" stroke="#2e75b6" stroke-dasharray="5,2" d="M661.99,-129.02C679.12,-118.93 700.93,-105.85 720,-93.69 732.33,-85.83 745.64,-76.93 757.42,-68.92"/>
<polygon fill="#2e75b6" stroke="#2e75b6" points="759.38,-71.82 765.65,-63.28 755.42,-66.04 759.38,-71.82"/>
</g>
<!-- CRM -->
<g id="node14" class="node">
<title>CRM</title>
<path fill="#ededed" stroke="black" d="M1077,-61.94C1077,-61.94 1047,-61.94 1047,-61.94 1041,-61.94 1035,-55.94 1035,-49.94 1035,-49.94 1035,-37.94 1035,-37.94 1035,-31.94 1041,-25.94 1047,-25.94 1047,-25.94 1077,-25.94 1077,-25.94 1083,-25.94 1089,-31.94 1089,-37.94 1089,-37.94 1089,-49.94 1089,-49.94 1089,-55.94 1083,-61.94 1077,-61.94"/>
<text xml:space="preserve" text-anchor="middle" x="1062" y="-40.64" font-family="Arial" font-size="9.00">CRM</text>
</g>
<!-- API&#45;&gt;CRM -->
<g id="edge21" class="edge">
<title>API&#45;&gt;CRM</title>
<path fill="none" stroke="#2e75b6" stroke-dasharray="5,2" d="M698.42,-144.16C796.15,-139.72 972.88,-127.19 1026,-93.69 1034.7,-88.2 1042,-79.8 1047.71,-71.5"/>
<polygon fill="#2e75b6" stroke="#2e75b6" points="1050.52,-73.61 1052.86,-63.28 1044.59,-69.9 1050.52,-73.61"/>
</g>
<!-- CLM -->
<g id="node15" class="node">
<title>CLM</title>
<path fill="#ededed" stroke="black" d="M1149,-61.94C1149,-61.94 1119,-61.94 1119,-61.94 1113,-61.94 1107,-55.94 1107,-49.94 1107,-49.94 1107,-37.94 1107,-37.94 1107,-31.94 1113,-25.94 1119,-25.94 1119,-25.94 1149,-25.94 1149,-25.94 1155,-25.94 1161,-31.94 1161,-37.94 1161,-37.94 1161,-49.94 1161,-49.94 1161,-55.94 1155,-61.94 1149,-61.94"/>
<text xml:space="preserve" text-anchor="middle" x="1134" y="-40.64" font-family="Arial" font-size="9.00">Claims</text>
</g>
<!-- API&#45;&gt;CLM -->
<g id="edge22" class="edge">
<title>API&#45;&gt;CLM</title>
<path fill="none" stroke="#2e75b6" stroke-dasharray="5,2" d="M698.49,-142.44C774.19,-137.38 901.43,-127.37 1010,-111.44 1049.48,-105.65 1064.34,-115.11 1098,-93.69 1106.68,-88.16 1113.97,-79.75 1119.68,-71.46"/>
<polygon fill="#2e75b6" stroke="#2e75b6" points="1122.49,-73.58 1124.84,-63.25 1116.56,-69.86 1122.49,-73.58"/>
</g>
<!-- UI&#45;&gt;MOCK -->
<g id="edge13" class="edge">
<title>UI&#45;&gt;MOCK</title>
<path fill="none" stroke="#2e75b6" stroke-dasharray="5,2" d="M366.76,-128.99C367.65,-120.7 368.79,-110.67 370,-101.69 371.24,-92.48 372.77,-82.45 374.22,-73.43"/>
<polygon fill="#2e75b6" stroke="#2e75b6" points="377.64,-74.22 375.79,-63.79 370.73,-73.09 377.64,-74.22"/>
</g>
<!-- UI&#45;&gt;NEO -->
<g id="edge11" class="edge">
<title>UI&#45;&gt;NEO</title>
<path fill="none" stroke="#2e75b6" d="M428.82,-130.79C460.44,-122.77 492.45,-114.13 495,-111.44 503.97,-101.95 507.8,-88.25 509.26,-75.74"/>
<polygon fill="#2e75b6" stroke="#2e75b6" points="512.75,-76.01 509.92,-65.8 505.77,-75.54 512.75,-76.01"/>
</g>
<!-- ETL&#45;&gt;MOCK -->
<g id="edge14" class="edge">
<title>ETL&#45;&gt;MOCK</title>
<path fill="none" stroke="#2e75b6" d="M445.94,-131.73C413.4,-122.32 377.29,-111.82 377,-111.44 368.99,-100.75 368.62,-86.16 370.63,-73.36"/>
<polygon fill="#2e75b6" stroke="#2e75b6" points="374.01,-74.27 372.67,-63.76 367.17,-72.81 374.01,-74.27"/>
</g>
<!-- ETL&#45;&gt;NEO -->
<g id="edge15" class="edge">
<title>ETL&#45;&gt;NEO</title>
<path fill="none" stroke="#2e75b6" d="M499.62,-129.01C500.43,-123.4 501.29,-117.16 502,-111.44 503.46,-99.64 504.88,-86.64 506.04,-75.28"/>
<polygon fill="#2e75b6" stroke="#2e75b6" points="509.49,-75.97 507.01,-65.67 502.53,-75.27 509.49,-75.97"/>
<text xml:space="preserve" text-anchor="middle" x="517.71" y="-103.84" font-family="Arial" font-size="8.00">MERGE</text>
</g>
<!-- PVC_JSON -->
<g id="node12" class="node">
<title>PVC_JSON</title>
<polygon fill="#fafafa" stroke="black" points="292.75,-61.94 289.75,-65.94 268.75,-65.94 265.75,-61.94 191.25,-61.94 191.25,-25.94 292.75,-25.94 292.75,-61.94"/>
<text xml:space="preserve" text-anchor="middle" x="242" y="-40.64" font-family="Arial" font-size="9.00">PVC: enterprise&#45;data</text>
</g>
<!-- ETL&#45;&gt;PVC_JSON -->
<g id="edge16" class="edge">
<title>ETL&#45;&gt;PVC_JSON</title>
<path fill="none" stroke="#2e75b6" d="M445.86,-131.6C443.2,-130.86 440.57,-130.14 438,-129.44 377.7,-113 357.65,-122.13 302,-93.69 289.83,-87.47 277.85,-78.48 267.83,-69.92"/>
<polygon fill="#2e75b6" stroke="#2e75b6" points="270.16,-67.3 260.37,-63.27 265.5,-72.53 270.16,-67.3"/>
</g>
<!-- PIM -->
<g id="node13" class="node">
<title>PIM</title>
<path fill="#ededed" stroke="black" d="M932.62,-61.94C932.62,-61.94 899.38,-61.94 899.38,-61.94 893.38,-61.94 887.38,-55.94 887.38,-49.94 887.38,-49.94 887.38,-37.94 887.38,-37.94 887.38,-31.94 893.38,-25.94 899.38,-25.94 899.38,-25.94 932.62,-25.94 932.62,-25.94 938.62,-25.94 944.62,-31.94 944.62,-37.94 944.62,-37.94 944.62,-49.94 944.62,-49.94 944.62,-55.94 938.62,-61.94 932.62,-61.94"/>
<text xml:space="preserve" text-anchor="middle" x="916" y="-40.64" font-family="Arial" font-size="9.00">PIM / PLM</text>
</g>
<!-- ETL&#45;&gt;PIM -->
<g id="edge19" class="edge">
<title>ETL&#45;&gt;PIM</title>
<path fill="none" stroke="#2e75b6" stroke-dasharray="5,2" d="M547.93,-131.4C550.99,-130.69 554.03,-130.03 557,-129.44 693.05,-102.5 742.05,-153.87 867,-93.69 878.03,-88.38 888.05,-79.56 896.11,-70.87"/>
<polygon fill="#2e75b6" stroke="#2e75b6" points="898.59,-73.35 902.49,-63.51 893.3,-68.77 898.59,-73.35"/>
</g>
<!-- FSM -->
<g id="node16" class="node">
<title>FSM</title>
<path fill="#ededed" stroke="black" d="M1005,-61.94C1005,-61.94 975,-61.94 975,-61.94 969,-61.94 963,-55.94 963,-49.94 963,-49.94 963,-37.94 963,-37.94 963,-31.94 969,-25.94 975,-25.94 975,-25.94 1005,-25.94 1005,-25.94 1011,-25.94 1017,-31.94 1017,-37.94 1017,-37.94 1017,-49.94 1017,-49.94 1017,-55.94 1011,-61.94 1005,-61.94"/>
<text xml:space="preserve" text-anchor="middle" x="990" y="-40.64" font-family="Arial" font-size="9.00">FSM</text>
</g>
<!-- ETL&#45;&gt;FSM -->
<g id="edge20" class="edge">
<title>ETL&#45;&gt;FSM</title>
<path fill="none" stroke="#2e75b6" stroke-dasharray="5,2" d="M548.22,-131.14C551.18,-130.51 554.12,-129.93 557,-129.44 644.32,-114.55 878.53,-140.07 954,-93.69 962.76,-88.3 970.08,-79.92 975.78,-71.62"/>
<polygon fill="#2e75b6" stroke="#2e75b6" points="978.6,-73.71 980.92,-63.38 972.66,-70.01 978.6,-73.71"/>
</g>
</g>
</svg>
