<?xml version="1.0" encoding="UTF-8" standalone="no"?>
<!DOCTYPE svg PUBLIC "-//W3C//DTD SVG 1.1//EN"
 "http://www.w3.org/Graphics/SVG/1.1/DTD/svg11.dtd">
<!-- Generated by graphviz version 14.1.5 (20260411.2331)
 -->
<!-- Title: LLD_GitHubActions_CICD Pages: 1 -->
<svg width="1138pt" height="435pt"
 viewBox="0.00 0.00 1138.00 435.00" xmlns="http://www.w3.org/2000/svg" xmlns:xlink="http://www.w3.org/1999/xlink">
<g id="graph0" class="graph" transform="scale(1 1) rotate(0) translate(4 430.5)">
<title>LLD_GitHubActions_CICD</title>
<polygon fill="white" stroke="none" points="-4,4 -4,-430.5 1134,-430.5 1134,4 -4,4"/>
<text xml:space="preserve" text-anchor="middle" x="565" y="-409.2" font-family="Arial" font-size="14.00">LLD — GitHub Actions CI/CD Pipeline</text>
<text xml:space="preserve" text-anchor="middle" x="565" y="-393.45" font-family="Arial" font-size="14.00">(.github/workflows/ci.yml · cd.yml)</text>
<g id="clust1" class="cluster">
<title>cluster_ci</title>
<polygon fill="white" stroke="#1f4e79" points="120.75,-8 120.75,-210 430.75,-210 430.75,-8 120.75,-8"/>
<text xml:space="preserve" text-anchor="middle" x="275.75" y="-192.7" font-family="Arial" font-size="14.00">Workflow: ci.yml (every PR + push)</text>
</g>
<g id="clust2" class="cluster">
<title>cluster_cd</title>
<polygon fill="white" stroke="#548235" points="142.12,-292 142.12,-379 906.25,-379 906.25,-292 142.12,-292"/>
<text xml:space="preserve" text-anchor="middle" x="524.19" y="-361.7" font-family="Arial" font-size="14.00">Workflow: cd.yml (main only · manual)</text>
</g>
<g id="clust3" class="cluster">
<title>cluster_secrets</title>
<polygon fill="white" stroke="#843c0c" points="927.25,-194 927.25,-378 1130,-378 1130,-194 927.25,-194"/>
<text xml:space="preserve" text-anchor="middle" x="1028.62" y="-360.7" font-family="Arial" font-size="14.00">GitHub Secrets / Environments</text>
</g>
<!-- TriggerPR -->
<g id="node1" class="node">
<title>TriggerPR</title>
<path fill="#d5e8f0" stroke="black" d="M68.12,-122C68.12,-122 23.62,-122 23.62,-122 17.62,-122 11.62,-116 11.62,-110 11.62,-110 11.62,-98 11.62,-98 11.62,-92 17.62,-86 23.62,-86 23.62,-86 68.12,-86 68.12,-86 74.12,-86 80.12,-92 80.12,-98 80.12,-98 80.12,-110 80.12,-110 80.12,-116 74.12,-122 68.12,-122"/>
<text xml:space="preserve" text-anchor="middle" x="45.88" y="-105.95" font-family="Arial" font-size="9.00">Pull Request</text>
<text xml:space="preserve" text-anchor="middle" x="45.88" y="-95.45" font-family="Arial" font-size="9.00">→ main</text>
</g>
<!-- Lint -->
<g id="node3" class="node">
<title>Lint</title>
<path fill="#bdd7ee" stroke="black" d="M231,-178C231,-178 155.75,-178 155.75,-178 149.75,-178 143.75,-172 143.75,-166 143.75,-166 143.75,-154 143.75,-154 143.75,-148 149.75,-142 155.75,-142 155.75,-142 231,-142 231,-142 237,-142 243,-148 243,-154 243,-154 243,-166 243,-166 243,-172 237,-178 231,-178"/>
<text xml:space="preserve" text-anchor="middle" x="193.38" y="-161.95" font-family="Arial" font-size="9.00">Job: lint</text>
<text xml:space="preserve" text-anchor="middle" x="193.38" y="-151.45" font-family="Arial" font-size="9.00">Python syntax check</text>
</g>
<!-- TriggerPR&#45;&gt;Lint -->
<g id="edge1" class="edge">
<title>TriggerPR&#45;&gt;Lint</title>
<path fill="none" stroke="#2e75b6" d="M80.3,-117.23C92.96,-122.21 107.5,-127.9 120.75,-133 124.64,-134.5 128.65,-136.03 132.69,-137.57"/>
<polygon fill="#2e75b6" stroke="#2e75b6" points="131.4,-140.83 141.99,-141.11 133.89,-134.28 131.4,-140.83"/>
</g>
<!-- Test -->
<g id="node4" class="node">
<title>Test</title>
<path fill="#bdd7ee" stroke="black" d="M227.25,-123.75C227.25,-123.75 159.5,-123.75 159.5,-123.75 153.5,-123.75 147.5,-117.75 147.5,-111.75 147.5,-111.75 147.5,-96.25 147.5,-96.25 147.5,-90.25 153.5,-84.25 159.5,-84.25 159.5,-84.25 227.25,-84.25 227.25,-84.25 233.25,-84.25 239.25,-90.25 239.25,-96.25 239.25,-96.25 239.25,-111.75 239.25,-111.75 239.25,-117.75 233.25,-123.75 227.25,-123.75"/>
<text xml:space="preserve" text-anchor="middle" x="193.38" y="-111.2" font-family="Arial" font-size="9.00">Job: test</text>
<text xml:space="preserve" text-anchor="middle" x="193.38" y="-100.7" font-family="Arial" font-size="9.00">pytest tests/</text>
<text xml:space="preserve" text-anchor="middle" x="193.38" y="-90.2" font-family="Arial" font-size="9.00">(fastapi TestClient)</text>
</g>
<!-- TriggerPR&#45;&gt;Test -->
<g id="edge2" class="edge">
<title>TriggerPR&#45;&gt;Test</title>
<path fill="none" stroke="#2e75b6" d="M80.62,-104C97.03,-104 117.19,-104 135.86,-104"/>
<polygon fill="#2e75b6" stroke="#2e75b6" points="135.72,-107.5 145.72,-104 135.72,-100.5 135.72,-107.5"/>
</g>
<!-- Graphviz -->
<g id="node5" class="node">
<title>Graphviz</title>
<path fill="#bdd7ee" stroke="black" d="M246,-66C246,-66 140.75,-66 140.75,-66 134.75,-66 128.75,-60 128.75,-54 128.75,-54 128.75,-28 128.75,-28 128.75,-22 134.75,-16 140.75,-16 140.75,-16 246,-16 246,-16 252,-16 258,-22 258,-28 258,-28 258,-54 258,-54 258,-60 252,-66 246,-66"/>
<text xml:space="preserve" text-anchor="middle" x="193.38" y="-53.45" font-family="Arial" font-size="9.00">Job: graphviz</text>
<text xml:space="preserve" text-anchor="middle" x="193.38" y="-42.95" font-family="Arial" font-size="9.00">apt install graphviz</text>
<text xml:space="preserve" text-anchor="middle" x="193.38" y="-32.45" font-family="Arial" font-size="9.00">docs/graphviz/render_all.sh</text>
<text xml:space="preserve" text-anchor="middle" x="193.38" y="-21.95" font-family="Arial" font-size="9.00">(verify .dot compile)</text>
</g>
<!-- TriggerPR&#45;&gt;Graphviz -->
<g id="edge3" class="edge">
<title>TriggerPR&#45;&gt;Graphviz</title>
<path fill="none" stroke="#2e75b6" d="M80.62,-89.39C93.44,-83.84 108.56,-77.29 123.47,-70.84"/>
<polygon fill="#2e75b6" stroke="#2e75b6" points="124.54,-74.18 132.33,-67 121.76,-67.76 124.54,-74.18"/>
</g>
<!-- TriggerMain -->
<g id="node2" class="node">
<title>TriggerMain</title>
<path fill="#d5e8f0" stroke="black" d="M79.75,-338C79.75,-338 12,-338 12,-338 6,-338 0,-332 0,-326 0,-326 0,-314 0,-314 0,-308 6,-302 12,-302 12,-302 79.75,-302 79.75,-302 85.75,-302 91.75,-308 91.75,-314 91.75,-314 91.75,-326 91.75,-326 91.75,-332 85.75,-338 79.75,-338"/>
<text xml:space="preserve" text-anchor="middle" x="45.88" y="-321.95" font-family="Arial" font-size="9.00">Push → main</text>
<text xml:space="preserve" text-anchor="middle" x="45.88" y="-311.45" font-family="Arial" font-size="9.00">workflow_dispatch</text>
</g>
<!-- Push -->
<g id="node7" class="node">
<title>Push</title>
<path fill="#ffe699" stroke="black" d="M224.62,-339.75C224.62,-339.75 162.12,-339.75 162.12,-339.75 156.12,-339.75 150.12,-333.75 150.12,-327.75 150.12,-327.75 150.12,-312.25 150.12,-312.25 150.12,-306.25 156.12,-300.25 162.12,-300.25 162.12,-300.25 224.62,-300.25 224.62,-300.25 230.62,-300.25 236.62,-306.25 236.62,-312.25 236.62,-312.25 236.62,-327.75 236.62,-327.75 236.62,-333.75 230.62,-339.75 224.62,-339.75"/>
<text xml:space="preserve" text-anchor="middle" x="193.38" y="-327.2" font-family="Arial" font-size="9.00">Job: publish</text>
<text xml:space="preserve" text-anchor="middle" x="193.38" y="-316.7" font-family="Arial" font-size="9.00">push to ghcr.io</text>
<text xml:space="preserve" text-anchor="middle" x="193.38" y="-306.2" font-family="Arial" font-size="9.00"> tags: sha + latest</text>
</g>
<!-- TriggerMain&#45;&gt;Push -->
<g id="edge7" class="edge">
<title>TriggerMain&#45;&gt;Push</title>
<path fill="none" stroke="#2e75b6" d="M92.11,-320C106.74,-320 123.1,-320 138.3,-320"/>
<polygon fill="#2e75b6" stroke="#2e75b6" points="138.13,-323.5 148.13,-320 138.13,-316.5 138.13,-323.5"/>
</g>
<!-- Build -->
<g id="node6" class="node">
<title>Build</title>
<path fill="#c6e0b4" stroke="black" d="M410.75,-129C410.75,-129 344.5,-129 344.5,-129 338.5,-129 332.5,-123 332.5,-117 332.5,-117 332.5,-91 332.5,-91 332.5,-85 338.5,-79 344.5,-79 344.5,-79 410.75,-79 410.75,-79 416.75,-79 422.75,-85 422.75,-91 422.75,-91 422.75,-117 422.75,-117 422.75,-123 416.75,-129 410.75,-129"/>
<text xml:space="preserve" text-anchor="middle" x="377.62" y="-116.45" font-family="Arial" font-size="9.00">Job: build&#45;images</text>
<text xml:space="preserve" text-anchor="middle" x="377.62" y="-105.95" font-family="Arial" font-size="9.00">docker build x4</text>
<text xml:space="preserve" text-anchor="middle" x="377.62" y="-95.45" font-family="Arial" font-size="9.00">api · ui · mock · etl</text>
<text xml:space="preserve" text-anchor="middle" x="377.62" y="-84.95" font-family="Arial" font-size="9.00">(dry&#45;run on PR)</text>
</g>
<!-- Lint&#45;&gt;Build -->
<g id="edge4" class="edge">
<title>Lint&#45;&gt;Build</title>
<path fill="none" stroke="#2e75b6" d="M243.21,-144.99C267.28,-137.6 296.4,-128.65 321.28,-121"/>
<polygon fill="#2e75b6" stroke="#2e75b6" points="322.05,-124.43 330.58,-118.15 319.99,-117.74 322.05,-124.43"/>
</g>
<!-- Test&#45;&gt;Build -->
<g id="edge5" class="edge">
<title>Test&#45;&gt;Build</title>
<path fill="none" stroke="#2e75b6" d="M239.43,-104C264.03,-104 294.73,-104 320.84,-104"/>
<polygon fill="#2e75b6" stroke="#2e75b6" points="320.58,-107.5 330.58,-104 320.58,-100.5 320.58,-107.5"/>
</g>
<!-- Graphviz&#45;&gt;Build -->
<g id="edge6" class="edge">
<title>Graphviz&#45;&gt;Build</title>
<path fill="none" stroke="#2e75b6" d="M258.37,-63.12C278.97,-70.24 301.6,-78.07 321.5,-84.94"/>
<polygon fill="#2e75b6" stroke="#2e75b6" points="320.22,-88.21 330.82,-88.16 322.51,-81.59 320.22,-88.21"/>
</g>
<!-- DeployStg -->
<g id="node8" class="node">
<title>DeployStg</title>
<path fill="#a9d18e" stroke="black" d="M448.25,-339.75C448.25,-339.75 307,-339.75 307,-339.75 301,-339.75 295,-333.75 295,-327.75 295,-327.75 295,-312.25 295,-312.25 295,-306.25 301,-300.25 307,-300.25 307,-300.25 448.25,-300.25 448.25,-300.25 454.25,-300.25 460.25,-306.25 460.25,-312.25 460.25,-312.25 460.25,-327.75 460.25,-327.75 460.25,-333.75 454.25,-339.75 448.25,-339.75"/>
<text xml:space="preserve" text-anchor="middle" x="377.62" y="-327.2" font-family="Arial" font-size="9.00">Job: deploy&#45;staging</text>
<text xml:space="preserve" text-anchor="middle" x="377.62" y="-316.7" font-family="Arial" font-size="9.00">kubectl apply &#45;k k8s/overlays/staging</text>
<text xml:space="preserve" text-anchor="middle" x="377.62" y="-306.2" font-family="Arial" font-size="9.00">rollout status</text>
</g>
<!-- Push&#45;&gt;DeployStg -->
<g id="edge8" class="edge">
<title>Push&#45;&gt;DeployStg</title>
<path fill="none" stroke="#2e75b6" d="M237.1,-320C251.12,-320 267.3,-320 283.55,-320"/>
<polygon fill="#2e75b6" stroke="#2e75b6" points="283.28,-323.5 293.28,-320 283.28,-316.5 283.28,-323.5"/>
</g>
<!-- GHCR_SEC -->
<g id="node13" class="node">
<title>GHCR_SEC</title>
<polygon fill="#fff2cc" stroke="black" points="1096.5,-238 953.75,-238 953.75,-202 1102.5,-202 1102.5,-232 1096.5,-238"/>
<polyline fill="none" stroke="black" points="1096.5,-238 1096.5,-232"/>
<polyline fill="none" stroke="black" points="1102.5,-232 1096.5,-232"/>
<text xml:space="preserve" text-anchor="middle" x="1028.12" y="-216.7" font-family="Arial" font-size="9.00">GITHUB_TOKEN → ghcr.io push</text>
</g>
<!-- Push&#45;&gt;GHCR_SEC -->
<g id="edge11" class="edge">
<title>Push&#45;&gt;GHCR_SEC</title>
<path fill="none" stroke="#2e75b6" stroke-dasharray="5,2" d="M216.98,-299.81C249.71,-272.73 313.36,-228 376.62,-228 376.62,-228 376.62,-228 822.25,-228 861.77,-228 905.54,-226.5 942.44,-224.79"/>
<polygon fill="#2e75b6" stroke="#2e75b6" points="942.33,-228.3 952.15,-224.33 942,-221.31 942.33,-228.3"/>
</g>
<!-- SmokeK8s -->
<g id="node9" class="node">
<title>SmokeK8s</title>
<path fill="#a9d18e" stroke="black" d="M623.5,-338C623.5,-338 509.25,-338 509.25,-338 503.25,-338 497.25,-332 497.25,-326 497.25,-326 497.25,-314 497.25,-314 497.25,-308 503.25,-302 509.25,-302 509.25,-302 623.5,-302 623.5,-302 629.5,-302 635.5,-308 635.5,-314 635.5,-314 635.5,-326 635.5,-326 635.5,-332 629.5,-338 623.5,-338"/>
<text xml:space="preserve" text-anchor="middle" x="566.38" y="-321.95" font-family="Arial" font-size="9.00">Job: smoke&#45;staging</text>
<text xml:space="preserve" text-anchor="middle" x="566.38" y="-311.45" font-family="Arial" font-size="9.00">GET /health · POST /diagnose</text>
</g>
<!-- DeployStg&#45;&gt;SmokeK8s -->
<g id="edge9" class="edge">
<title>DeployStg&#45;&gt;SmokeK8s</title>
<path fill="none" stroke="#2e75b6" d="M460.54,-320C468.89,-320 477.37,-320 485.7,-320"/>
<polygon fill="#2e75b6" stroke="#2e75b6" points="485.43,-323.5 495.43,-320 485.43,-316.5 485.43,-323.5"/>
</g>
<!-- KUBE -->
<g id="node11" class="node">
<title>KUBE</title>
<polygon fill="#fff2cc" stroke="black" points="1084.5,-292 965.75,-292 965.75,-256 1090.5,-256 1090.5,-286 1084.5,-292"/>
<polyline fill="none" stroke="black" points="1084.5,-292 1084.5,-286"/>
<polyline fill="none" stroke="black" points="1090.5,-286 1084.5,-286"/>
<text xml:space="preserve" text-anchor="middle" x="1028.12" y="-275.95" font-family="Arial" font-size="9.00">KUBE_CONFIG_STAGING</text>
<text xml:space="preserve" text-anchor="middle" x="1028.12" y="-265.45" font-family="Arial" font-size="9.00">KUBE_CONFIG_PROD</text>
</g>
<!-- DeployStg&#45;&gt;KUBE -->
<g id="edge12" class="edge">
<title>DeployStg&#45;&gt;KUBE</title>
<path fill="none" stroke="#2e75b6" stroke-dasharray="5,2" d="M458.02,-299.77C471.05,-297.07 484.47,-294.67 497.25,-293 659.41,-271.83 851.68,-270.89 954.18,-272.3"/>
<polygon fill="#2e75b6" stroke="#2e75b6" points="954.06,-275.8 964.11,-272.45 954.16,-268.8 954.06,-275.8"/>
</g>
<!-- Promote -->
<g id="node10" class="node">
<title>Promote</title>
<path fill="#fce4d6" stroke="black" d="M886.25,-343.75C886.25,-343.75 756.25,-343.75 756.25,-343.75 750.25,-343.75 744.25,-337.75 744.25,-331.75 744.25,-331.75 744.25,-316.25 744.25,-316.25 744.25,-310.25 750.25,-304.25 756.25,-304.25 756.25,-304.25 886.25,-304.25 886.25,-304.25 892.25,-304.25 898.25,-310.25 898.25,-316.25 898.25,-316.25 898.25,-331.75 898.25,-331.75 898.25,-337.75 892.25,-343.75 886.25,-343.75"/>
<text xml:space="preserve" text-anchor="middle" x="821.25" y="-331.2" font-family="Arial" font-size="9.00">Job: promote&#45;prod</text>
<text xml:space="preserve" text-anchor="middle" x="821.25" y="-320.7" font-family="Arial" font-size="9.00">(manual approval gate)</text>
<text xml:space="preserve" text-anchor="middle" x="821.25" y="-310.2" font-family="Arial" font-size="9.00">kubectl apply &#45;k k8s/overlays/prod</text>
</g>
<!-- SmokeK8s&#45;&gt;Promote -->
<g id="edge10" class="edge">
<title>SmokeK8s&#45;&gt;Promote</title>
<path fill="none" stroke="#2e75b6" d="M635.81,-321.08C665.64,-321.55 700.97,-322.11 732.69,-322.61"/>
<polygon fill="#2e75b6" stroke="#2e75b6" points="732.63,-326.11 742.68,-322.77 732.74,-319.12 732.63,-326.11"/>
<text xml:space="preserve" text-anchor="middle" x="689.88" y="-344.13" font-family="Arial" font-size="8.00">environment:</text>
<text xml:space="preserve" text-anchor="middle" x="689.88" y="-334.38" font-family="Arial" font-size="8.00">production</text>
<text xml:space="preserve" text-anchor="middle" x="689.88" y="-324.63" font-family="Arial" font-size="8.00">(required reviewers)</text>
</g>
<!-- NEO -->
<g id="node12" class="node">
<title>NEO</title>
<polygon fill="#fff2cc" stroke="black" points="1095.38,-346 954.88,-346 954.88,-310 1101.38,-310 1101.38,-340 1095.38,-346"/>
<polyline fill="none" stroke="black" points="1095.38,-346 1095.38,-340"/>
<polyline fill="none" stroke="black" points="1101.38,-340 1095.38,-340"/>
<text xml:space="preserve" text-anchor="middle" x="1028.12" y="-329.95" font-family="Arial" font-size="9.00">NEO4J_PASSWORD_STAGING</text>
<text xml:space="preserve" text-anchor="middle" x="1028.12" y="-319.45" font-family="Arial" font-size="9.00">NEO4J_PASSWORD_PROD</text>
</g>
<!-- Promote&#45;&gt;NEO -->
<g id="edge13" class="edge">
<title>Promote&#45;&gt;NEO</title>
<path fill="none" stroke="#2e75b6" stroke-dasharray="5,2" d="M898.54,-325.49C913.13,-325.77 928.49,-326.07 943.31,-326.36"/>
<polygon fill="#2e75b6" stroke="#2e75b6" points="942.93,-329.86 953,-326.55 943.07,-322.86 942.93,-329.86"/>
</g>
</g>
</svg>
