<?xml version="1.0" encoding="UTF-8" standalone="no"?>
<!DOCTYPE svg PUBLIC "-//W3C//DTD SVG 1.1//EN"
 "http://www.w3.org/Graphics/SVG/1.1/DTD/svg11.dtd">
<!-- Generated by graphviz version 14.1.5 (20260411.2331)
 -->
<!-- Title: LLD_MultiEnv_Promotion Pages: 1 -->
<svg width="778pt" height="574pt"
 viewBox="0.00 0.00 778.00 574.00" xmlns="http://www.w3.org/2000/svg" xmlns:xlink="http://www.w3.org/1999/xlink">
<g id="graph0" class="graph" transform="scale(1 1) rotate(0) translate(4 570.31)">
<title>LLD_MultiEnv_Promotion</title>
<polygon fill="white" stroke="none" points="-4,4 -4,-570.31 774,-570.31 774,4 -4,4"/>
<text xml:space="preserve" text-anchor="middle" x="385" y="-549.01" font-family="Arial" font-size="14.00">LLD — Multi&#45;Environment Promotion &amp; Data Lineage</text>
<text xml:space="preserve" text-anchor="middle" x="385" y="-533.26" font-family="Arial" font-size="14.00">(Kustomize overlays · ETL smoke gate · Neo4j promotion)</text>
<g id="clust1" class="cluster">
<title>cluster_staging</title>
<polygon fill="white" stroke="#548235" points="8,-93.62 8,-369.81 470,-369.81 470,-93.62 8,-93.62"/>
<text xml:space="preserve" text-anchor="middle" x="239" y="-352.51" font-family="Arial" font-size="14.00">Staging (k8s/overlays/staging)</text>
</g>
<g id="clust2" class="cluster">
<title>cluster_prod</title>
<polygon fill="white" stroke="#843c0c" points="478,-8 478,-171.31 762,-171.31 762,-8 478,-8"/>
<text xml:space="preserve" text-anchor="middle" x="620" y="-154.01" font-family="Arial" font-size="14.00">Production (k8s/overlays/prod)</text>
</g>
<!-- Dev -->
<g id="node1" class="node">
<title>Dev</title>
<path fill="#e3f2fd" stroke="black" d="M127.75,-526.81C127.75,-526.81 50.25,-526.81 50.25,-526.81 44.25,-526.81 38.25,-520.81 38.25,-514.81 38.25,-514.81 38.25,-499.31 38.25,-499.31 38.25,-493.31 44.25,-487.31 50.25,-487.31 50.25,-487.31 127.75,-487.31 127.75,-487.31 133.75,-487.31 139.75,-493.31 139.75,-499.31 139.75,-499.31 139.75,-514.81 139.75,-514.81 139.75,-520.81 133.75,-526.81 127.75,-526.81"/>
<text xml:space="preserve" text-anchor="middle" x="89" y="-514.26" font-family="Arial" font-size="9.00">Local Dev</text>
<text xml:space="preserve" text-anchor="middle" x="89" y="-503.76" font-family="Arial" font-size="9.00">venv + Docker Neo4j</text>
<text xml:space="preserve" text-anchor="middle" x="89" y="-493.26" font-family="Arial" font-size="9.00">mock :8090</text>
</g>
<!-- GH -->
<g id="node2" class="node">
<title>GH</title>
<path fill="#e8eaf6" stroke="black" d="M126.25,-441.56C126.25,-441.56 51.75,-441.56 51.75,-441.56 45.75,-441.56 39.75,-435.56 39.75,-429.56 39.75,-429.56 39.75,-417.56 39.75,-417.56 39.75,-411.56 45.75,-405.56 51.75,-405.56 51.75,-405.56 126.25,-405.56 126.25,-405.56 132.25,-405.56 138.25,-411.56 138.25,-417.56 138.25,-417.56 138.25,-429.56 138.25,-429.56 138.25,-435.56 132.25,-441.56 126.25,-441.56"/>
<text xml:space="preserve" text-anchor="middle" x="89" y="-425.51" font-family="Arial" font-size="9.00">GitHub PR</text>
<text xml:space="preserve" text-anchor="middle" x="89" y="-415.01" font-family="Arial" font-size="9.00">CI: pytest + graphviz</text>
</g>
<!-- Dev&#45;&gt;GH -->
<g id="edge1" class="edge">
<title>Dev&#45;&gt;GH</title>
<path fill="none" stroke="#2e75b6" d="M89,-486.85C89,-486.85 89,-453.39 89,-453.39"/>
<polygon fill="#2e75b6" stroke="#2e75b6" points="92.5,-453.39 89,-443.39 85.5,-453.39 92.5,-453.39"/>
<text xml:space="preserve" text-anchor="middle" x="115.25" y="-461.71" font-family="Arial" font-size="8.00">feature branch</text>
</g>
<!-- StgNS -->
<g id="node3" class="node">
<title>StgNS</title>
<path fill="#c6e0b4" stroke="black" d="M149.88,-338.06C149.88,-338.06 28.12,-338.06 28.12,-338.06 22.13,-338.06 16.12,-332.06 16.12,-326.06 16.12,-326.06 16.12,-314.06 16.12,-314.06 16.12,-308.06 22.12,-302.06 28.12,-302.06 28.12,-302.06 149.88,-302.06 149.88,-302.06 155.88,-302.06 161.88,-308.06 161.88,-314.06 161.88,-314.06 161.88,-326.06 161.88,-326.06 161.88,-332.06 155.88,-338.06 149.88,-338.06"/>
<text xml:space="preserve" text-anchor="middle" x="89" y="-316.76" font-family="Arial" font-size="9.00">diagnostics&#45;staging namespace</text>
</g>
<!-- GH&#45;&gt;StgNS -->
<g id="edge2" class="edge">
<title>GH&#45;&gt;StgNS</title>
<path fill="none" stroke="#2e75b6" d="M89,-405.53C89,-405.53 89,-349.75 89,-349.75"/>
<polygon fill="#2e75b6" stroke="#2e75b6" points="92.5,-349.75 89,-339.75 85.5,-349.75 92.5,-349.75"/>
<text xml:space="preserve" text-anchor="middle" x="145.25" y="-379.96" font-family="Arial" font-size="8.00">merge → cd.yml deploy&#45;staging</text>
</g>
<!-- ProdGate -->
<g id="node11" class="node">
<title>ProdGate</title>
<path fill="#fff2cc" stroke="black" d="M711.88,-139.56C711.88,-139.56 638.12,-139.56 638.12,-139.56 632.12,-139.56 626.12,-133.56 626.12,-127.56 626.12,-127.56 626.12,-115.56 626.12,-115.56 626.12,-109.56 632.12,-103.56 638.12,-103.56 638.12,-103.56 711.88,-103.56 711.88,-103.56 717.88,-103.56 723.88,-109.56 723.88,-115.56 723.88,-115.56 723.88,-127.56 723.88,-127.56 723.88,-133.56 717.88,-139.56 711.88,-139.56"/>
<text xml:space="preserve" text-anchor="middle" x="675" y="-123.51" font-family="Arial" font-size="9.00">Manual approval</text>
<text xml:space="preserve" text-anchor="middle" x="675" y="-113.01" font-family="Arial" font-size="9.00">GitHub environment</text>
</g>
<!-- StgNS&#45;&gt;ProdGate -->
<g id="edge6" class="edge">
<title>StgNS&#45;&gt;ProdGate</title>
<path fill="none" stroke="#2e75b6" d="M89,-301.6C89,-260.89 89,-167 89,-167 89,-167 658.71,-167 658.71,-167 658.71,-167 658.71,-151.56 658.71,-151.56"/>
<polygon fill="#2e75b6" stroke="#2e75b6" points="662.21,-151.56 658.71,-141.56 655.21,-151.56 662.21,-151.56"/>
<text xml:space="preserve" text-anchor="middle" x="560.25" y="-238.71" font-family="Arial" font-size="8.00">promote&#45;prod job</text>
<text xml:space="preserve" text-anchor="middle" x="560.25" y="-228.96" font-family="Arial" font-size="8.00">+ reviewer approval</text>
</g>
<!-- StgNeo -->
<g id="node4" class="node">
<title>StgNeo</title>
<path fill="#fce4d6" stroke="black" d="M360.38,-137.88C360.38,-139.88 343.17,-141.5 322,-141.5 300.83,-141.5 283.62,-139.88 283.62,-137.88 283.62,-137.88 283.62,-105.25 283.62,-105.25 283.62,-103.25 300.83,-101.62 322,-101.62 343.17,-101.62 360.38,-103.25 360.38,-105.25 360.38,-105.25 360.38,-137.88 360.38,-137.88"/>
<path fill="none" stroke="black" d="M360.38,-137.88C360.38,-135.87 343.17,-134.25 322,-134.25 300.83,-134.25 283.62,-135.87 283.62,-137.88"/>
<text xml:space="preserve" text-anchor="middle" x="322" y="-123.51" font-family="Arial" font-size="9.00">Neo4j staging</text>
<text xml:space="preserve" text-anchor="middle" x="322" y="-113.01" font-family="Arial" font-size="9.00">(single replica)</text>
</g>
<!-- StgMock -->
<g id="node5" class="node">
<title>StgMock</title>
<path fill="#ffe699" stroke="black" d="M267.62,-338.06C267.62,-338.06 192.38,-338.06 192.38,-338.06 186.38,-338.06 180.38,-332.06 180.38,-326.06 180.38,-326.06 180.38,-314.06 180.38,-314.06 180.38,-308.06 186.38,-302.06 192.38,-302.06 192.38,-302.06 267.62,-302.06 267.62,-302.06 273.62,-302.06 279.62,-308.06 279.62,-314.06 279.62,-314.06 279.62,-326.06 279.62,-326.06 279.62,-332.06 273.62,-338.06 267.62,-338.06"/>
<text xml:space="preserve" text-anchor="middle" x="230" y="-322.01" font-family="Arial" font-size="9.00">mock&#45;enterprise ON</text>
<text xml:space="preserve" text-anchor="middle" x="230" y="-311.51" font-family="Arial" font-size="9.00">fixture + HTTP mode</text>
</g>
<!-- StgETL -->
<g id="node6" class="node">
<title>StgETL</title>
<path fill="#ffd966" stroke="black" d="M450.25,-338.06C450.25,-338.06 309.75,-338.06 309.75,-338.06 303.75,-338.06 297.75,-332.06 297.75,-326.06 297.75,-326.06 297.75,-314.06 297.75,-314.06 297.75,-308.06 303.75,-302.06 309.75,-302.06 309.75,-302.06 450.25,-302.06 450.25,-302.06 456.25,-302.06 462.25,-308.06 462.25,-314.06 462.25,-314.06 462.25,-326.06 462.25,-326.06 462.25,-332.06 456.25,-338.06 450.25,-338.06"/>
<text xml:space="preserve" text-anchor="middle" x="380" y="-322.01" font-family="Arial" font-size="9.00">ETL CronJob + manual run</text>
<text xml:space="preserve" text-anchor="middle" x="380" y="-311.51" font-family="Arial" font-size="9.00">orchestrator: ETL→smoke→promote</text>
</g>
<!-- StgSmoke -->
<g id="node7" class="node">
<title>StgSmoke</title>
<path fill="#a9d18e" stroke="black" d="M418.75,-254.56C418.75,-254.56 341.25,-254.56 341.25,-254.56 335.25,-254.56 329.25,-248.56 329.25,-242.56 329.25,-242.56 329.25,-230.56 329.25,-230.56 329.25,-224.56 335.25,-218.56 341.25,-218.56 341.25,-218.56 418.75,-218.56 418.75,-218.56 424.75,-218.56 430.75,-224.56 430.75,-230.56 430.75,-230.56 430.75,-242.56 430.75,-242.56 430.75,-248.56 424.75,-254.56 418.75,-254.56"/>
<text xml:space="preserve" text-anchor="middle" x="380" y="-238.51" font-family="Arial" font-size="9.00">smoke_validation.py</text>
<text xml:space="preserve" text-anchor="middle" x="380" y="-228.01" font-family="Arial" font-size="9.00">regression scenarios</text>
</g>
<!-- StgETL&#45;&gt;StgSmoke -->
<g id="edge3" class="edge">
<title>StgETL&#45;&gt;StgSmoke</title>
<path fill="none" stroke="#2e75b6" d="M380,-301.94C380,-301.94 380,-266.45 380,-266.45"/>
<polygon fill="#2e75b6" stroke="#2e75b6" points="383.5,-266.45 380,-256.45 376.5,-266.45 383.5,-266.45"/>
<text xml:space="preserve" text-anchor="middle" x="420.88" y="-276.46" font-family="Arial" font-size="8.00">gate: smoke must pass</text>
</g>
<!-- Lineage -->
<g id="node12" class="node">
<title>Lineage</title>
<polygon fill="#fafafa" stroke="black" points="752.12,-256.31 613.88,-256.31 613.88,-216.81 758.12,-216.81 758.12,-250.31 752.12,-256.31"/>
<polyline fill="none" stroke="black" points="752.12,-256.31 752.12,-250.31"/>
<polyline fill="none" stroke="black" points="758.12,-250.31 752.12,-250.31"/>
<text xml:space="preserve" text-anchor="middle" x="686" y="-243.76" font-family="Arial" font-size="9.00">data/lineage/etl_batches.jsonl</text>
<text xml:space="preserve" text-anchor="middle" x="686" y="-233.26" font-family="Arial" font-size="9.00">utils/lineage_store.py</text>
<text xml:space="preserve" text-anchor="middle" x="686" y="-222.76" font-family="Arial" font-size="9.00">batch_id · status · entity_counts</text>
</g>
<!-- StgETL&#45;&gt;Lineage -->
<g id="edge5" class="edge">
<title>StgETL&#45;&gt;Lineage</title>
<path fill="none" stroke="#2e75b6" d="M446.5,-301.63C446.5,-277.16 446.5,-237 446.5,-237 446.5,-237 601.98,-237 601.98,-237"/>
<polygon fill="#2e75b6" stroke="#2e75b6" points="601.98,-240.5 611.98,-237 601.98,-233.5 601.98,-240.5"/>
<text xml:space="preserve" text-anchor="middle" x="717.5" y="-276.46" font-family="Arial" font-size="8.00">log_batch per run</text>
</g>
<!-- StgSmoke&#45;&gt;StgNeo -->
<g id="edge4" class="edge">
<title>StgSmoke&#45;&gt;StgNeo</title>
<path fill="none" stroke="#2e75b6" d="M344.81,-218.09C344.81,-218.09 344.81,-153.05 344.81,-153.05"/>
<polygon fill="#2e75b6" stroke="#2e75b6" points="348.31,-153.05 344.81,-143.05 341.31,-153.05 348.31,-153.05"/>
<text xml:space="preserve" text-anchor="middle" x="367.38" y="-191.21" font-family="Arial" font-size="8.00">staging_promotion.py</text>
<text xml:space="preserve" text-anchor="middle" x="367.38" y="-181.46" font-family="Arial" font-size="8.00">MERGE validated catalog</text>
</g>
<!-- StgSmoke&#45;&gt;ProdGate -->
<g id="edge9" class="edge">
<title>StgSmoke&#45;&gt;ProdGate</title>
<path fill="none" stroke="#2e75b6" d="M395.56,-218.18C395.56,-205.9 395.56,-192 395.56,-192 395.56,-192 691.29,-192 691.29,-192 691.29,-192 691.29,-151.22 691.29,-151.22"/>
<polygon fill="#2e75b6" stroke="#2e75b6" points="694.79,-151.22 691.29,-141.22 687.79,-151.22 694.79,-151.22"/>
<text xml:space="preserve" text-anchor="middle" x="472.75" y="-191.21" font-family="Arial" font-size="8.00">smoke report artifact</text>
<text xml:space="preserve" text-anchor="middle" x="472.75" y="-181.46" font-family="Arial" font-size="8.00">required for prod</text>
</g>
<!-- ProdNS -->
<g id="node8" class="node">
<title>ProdNS</title>
<path fill="#fce4d6" stroke="black" d="M742.25,-53.94C742.25,-53.94 631.75,-53.94 631.75,-53.94 625.75,-53.94 619.75,-47.94 619.75,-41.94 619.75,-41.94 619.75,-29.94 619.75,-29.94 619.75,-23.94 625.75,-17.94 631.75,-17.94 631.75,-17.94 742.25,-17.94 742.25,-17.94 748.25,-17.94 754.25,-23.94 754.25,-29.94 754.25,-29.94 754.25,-41.94 754.25,-41.94 754.25,-47.94 748.25,-53.94 742.25,-53.94"/>
<text xml:space="preserve" text-anchor="middle" x="687" y="-32.64" font-family="Arial" font-size="9.00">diagnostics&#45;prod namespace</text>
</g>
<!-- ProdNeo -->
<g id="node9" class="node">
<title>ProdNeo</title>
<path fill="#fce4d6" stroke="black" d="M601.5,-52.25C601.5,-54.25 575.73,-55.88 544,-55.88 512.27,-55.88 486.5,-54.25 486.5,-52.25 486.5,-52.25 486.5,-19.62 486.5,-19.62 486.5,-17.62 512.27,-16 544,-16 575.73,-16 601.5,-17.62 601.5,-19.62 601.5,-19.62 601.5,-52.25 601.5,-52.25"/>
<path fill="none" stroke="black" d="M601.5,-52.25C601.5,-50.25 575.73,-48.62 544,-48.62 512.27,-48.62 486.5,-50.25 486.5,-52.25"/>
<text xml:space="preserve" text-anchor="middle" x="544" y="-37.89" font-family="Arial" font-size="9.00">Neo4j prod</text>
<text xml:space="preserve" text-anchor="middle" x="544" y="-27.39" font-family="Arial" font-size="9.00">(replicas + backup PVC)</text>
</g>
<!-- ProdConn -->
<g id="node10" class="node">
<title>ProdConn</title>
<path fill="#ededed" stroke="black" d="M596.25,-139.56C596.25,-139.56 497.75,-139.56 497.75,-139.56 491.75,-139.56 485.75,-133.56 485.75,-127.56 485.75,-127.56 485.75,-115.56 485.75,-115.56 485.75,-109.56 491.75,-103.56 497.75,-103.56 497.75,-103.56 596.25,-103.56 596.25,-103.56 602.25,-103.56 608.25,-109.56 608.25,-115.56 608.25,-115.56 608.25,-127.56 608.25,-127.56 608.25,-133.56 602.25,-139.56 596.25,-139.56"/>
<text xml:space="preserve" text-anchor="middle" x="547" y="-123.51" font-family="Arial" font-size="9.00">Real connector URLs</text>
<text xml:space="preserve" text-anchor="middle" x="547" y="-113.01" font-family="Arial" font-size="9.00">CRM · PIM · Claims · FSM</text>
</g>
<!-- ProdConn&#45;&gt;ProdNeo -->
<g id="edge8" class="edge">
<title>ProdConn&#45;&gt;ProdNeo</title>
<path fill="none" stroke="#2e75b6" d="M544,-103.4C544,-103.4 544,-67.68 544,-67.68"/>
<polygon fill="#2e75b6" stroke="#2e75b6" points="547.5,-67.68 544,-57.68 540.5,-67.68 547.5,-67.68"/>
<text xml:space="preserve" text-anchor="middle" x="584" y="-76.03" font-family="Arial" font-size="8.00">ETL from live systems</text>
</g>
<!-- ProdGate&#45;&gt;ProdNS -->
<g id="edge7" class="edge">
<title>ProdGate&#45;&gt;ProdNS</title>
<path fill="none" stroke="#2e75b6" d="M675,-103.4C675,-103.4 675,-65.88 675,-65.88"/>
<polygon fill="#2e75b6" stroke="#2e75b6" points="678.5,-65.88 675,-55.88 671.5,-65.88 678.5,-65.88"/>
</g>
</g>
</svg>
