<?xml version="1.0" encoding="UTF-8" standalone="no"?>
<!DOCTYPE svg PUBLIC "-//W3C//DTD SVG 1.1//EN"
 "http://www.w3.org/Graphics/SVG/1.1/DTD/svg11.dtd">
<!-- Generated by graphviz version 14.1.5 (20260411.2331)
 -->
<!-- Title: C4_Notation_Index Pages: 1 -->
<svg width="1805pt" height="739pt"
 viewBox="0.00 0.00 1805.00 739.00" xmlns="http://www.w3.org/2000/svg" xmlns:xlink="http://www.w3.org/1999/xlink">
<g id="graph0" class="graph" transform="scale(1 1) rotate(0) translate(4 734.5)">
<title>C4_Notation_Index</title>
<polygon fill="white" stroke="none" points="-4,4 -4,-734.5 1801,-734.5 1801,4 -4,4"/>
<text xml:space="preserve" text-anchor="middle" x="898.5" y="-713.2" font-family="Arial" font-size="14.00">Architecture Diagram Index — C4 Levels &amp; LLD (Canonical Set 21–32)</text>
<text xml:space="preserve" text-anchor="middle" x="898.5" y="-697.45" font-family="Arial" font-size="14.00">Render: bash docs/graphviz/render_all.sh</text>
<g id="clust1" class="cluster">
<title>cluster_c4</title>
<polygon fill="white" stroke="#1f4e79" points="268,-359.75 268,-683 653,-683 653,-359.75 268,-359.75"/>
<text xml:space="preserve" text-anchor="middle" x="460.5" y="-665.7" font-family="Arial" font-size="14.00">C4 Model Levels</text>
</g>
<g id="clust2" class="cluster">
<title>cluster_lld</title>
<polygon fill="white" stroke="#548235" points="277,-8 277,-331.25 823,-331.25 823,-8 277,-8"/>
<text xml:space="preserve" text-anchor="middle" x="550" y="-313.95" font-family="Arial" font-size="14.00">Low&#45;Level Design (LLD)</text>
</g>
<g id="clust3" class="cluster">
<title>cluster_pipeline</title>
<polygon fill="white" stroke="#5d4037" points="8,-8 8,-331.25 269,-331.25 269,-8 8,-8"/>
<text xml:space="preserve" text-anchor="middle" x="138.5" y="-313.95" font-family="Arial" font-size="14.00">Blueprint &amp; Pipeline (ERD + layers + I/O)</text>
</g>
<g id="clust4" class="cluster">
<title>cluster_other</title>
<polygon fill="white" stroke="#666666" points="661,-607.25 661,-683 843,-683 843,-607.25 661,-607.25"/>
<text xml:space="preserve" text-anchor="middle" x="752" y="-665.7" font-family="Arial" font-size="14.00">Domain / Ontology (not C4)</text>
</g>
<g id="clust5" class="cluster">
<title>cluster_deprecated</title>
<polygon fill="white" stroke="#999999" points="851,-607.25 851,-683 1789,-683 1789,-607.25 851,-607.25"/>
<text xml:space="preserve" text-anchor="middle" x="1320" y="-665.7" font-family="Arial" font-size="14.00">Deprecated (superseded — do not use for architecture reviews)</text>
</g>
<!-- L1 -->
<g id="node1" class="node">
<title>L1</title>
<path fill="#bdd7ee" stroke="black" d="M632.12,-651.25C632.12,-651.25 439.88,-651.25 439.88,-651.25 433.88,-651.25 427.88,-645.25 427.88,-639.25 427.88,-639.25 427.88,-627.25 427.88,-627.25 427.88,-621.25 433.88,-615.25 439.88,-615.25 439.88,-615.25 632.12,-615.25 632.12,-615.25 638.12,-615.25 644.12,-621.25 644.12,-627.25 644.12,-627.25 644.12,-639.25 644.12,-639.25 644.12,-645.25 638.12,-651.25 632.12,-651.25"/>
<text xml:space="preserve" text-anchor="middle" x="536" y="-635.75" font-family="Arial" font-size="10.00">21 — L1 System Context</text>
<text xml:space="preserve" text-anchor="middle" x="536" y="-623.75" font-family="Arial" font-size="10.00">Actors · platform boundary · connector targets</text>
</g>
<!-- L2 -->
<g id="node2" class="node">
<title>L2</title>
<path fill="#bdd7ee" stroke="black" d="M632.88,-568.75C632.88,-568.75 439.12,-568.75 439.12,-568.75 433.12,-568.75 427.12,-562.75 427.12,-556.75 427.12,-556.75 427.12,-544.75 427.12,-544.75 427.12,-538.75 433.12,-532.75 439.12,-532.75 439.12,-532.75 632.88,-532.75 632.88,-532.75 638.88,-532.75 644.88,-538.75 644.88,-544.75 644.88,-544.75 644.88,-556.75 644.88,-556.75 644.88,-562.75 638.88,-568.75 632.88,-568.75"/>
<text xml:space="preserve" text-anchor="middle" x="536" y="-553.25" font-family="Arial" font-size="10.00">22 — L2 Container</text>
<text xml:space="preserve" text-anchor="middle" x="536" y="-541.25" font-family="Arial" font-size="10.00">Streamlit · FastAPI · LangGraph · Neo4j · ETL</text>
</g>
<!-- L1&#45;&gt;L2 -->
<g id="edge1" class="edge">
<title>L1&#45;&gt;L2</title>
<path fill="none" stroke="#444444" d="M536,-614.78C536,-604.76 536,-591.93 536,-580.46"/>
<polygon fill="#444444" stroke="#444444" points="539.5,-580.7 536,-570.7 532.5,-580.7 539.5,-580.7"/>
<text xml:space="preserve" text-anchor="middle" x="560" y="-588.7" font-family="Arial" font-size="9.00">decompose</text>
</g>
<!-- L2D -->
<g id="node3" class="node">
<title>L2D</title>
<path fill="#bdd7ee" stroke="black" d="M632.75,-486.25C632.75,-486.25 465.25,-486.25 465.25,-486.25 459.25,-486.25 453.25,-480.25 453.25,-474.25 453.25,-474.25 453.25,-462.25 453.25,-462.25 453.25,-456.25 459.25,-450.25 465.25,-450.25 465.25,-450.25 632.75,-450.25 632.75,-450.25 638.75,-450.25 644.75,-456.25 644.75,-462.25 644.75,-462.25 644.75,-474.25 644.75,-474.25 644.75,-480.25 638.75,-486.25 632.75,-486.25"/>
<text xml:space="preserve" text-anchor="middle" x="549" y="-470.75" font-family="Arial" font-size="10.00">27 — L2 Connector Detail</text>
<text xml:space="preserve" text-anchor="middle" x="549" y="-458.75" font-family="Arial" font-size="10.00">Mock API → connectors → runtime/ETL</text>
</g>
<!-- L2&#45;&gt;L2D -->
<g id="edge2" class="edge">
<title>L2&#45;&gt;L2D</title>
<path fill="none" stroke="#444444" d="M538.82,-532.28C540.44,-522.26 542.51,-509.43 544.36,-497.96"/>
<polygon fill="#444444" stroke="#444444" points="547.8,-498.61 545.94,-488.18 540.89,-497.49 547.8,-498.61"/>
<text xml:space="preserve" text-anchor="middle" x="575.9" y="-506.2" font-family="Arial" font-size="9.00">connector detail</text>
</g>
<!-- L3 -->
<g id="node4" class="node">
<title>L3</title>
<path fill="#c6e0b4" stroke="black" d="M423.62,-486.25C423.62,-486.25 288.38,-486.25 288.38,-486.25 282.38,-486.25 276.38,-480.25 276.38,-474.25 276.38,-474.25 276.38,-462.25 276.38,-462.25 276.38,-456.25 282.38,-450.25 288.38,-450.25 288.38,-450.25 423.62,-450.25 423.62,-450.25 429.62,-450.25 435.62,-456.25 435.62,-462.25 435.62,-462.25 435.62,-474.25 435.62,-474.25 435.62,-480.25 429.62,-486.25 423.62,-486.25"/>
<text xml:space="preserve" text-anchor="middle" x="356" y="-470.75" font-family="Arial" font-size="10.00">23 — L3 Component</text>
<text xml:space="preserve" text-anchor="middle" x="356" y="-458.75" font-family="Arial" font-size="10.00">Modules · pipelines · integrations</text>
</g>
<!-- L2&#45;&gt;L3 -->
<g id="edge3" class="edge">
<title>L2&#45;&gt;L3</title>
<path fill="none" stroke="#444444" d="M496.94,-532.28C470.05,-520.26 434.12,-504.19 405.26,-491.28"/>
<polygon fill="#444444" stroke="#444444" points="406.92,-488.19 396.36,-487.3 404.06,-494.58 406.92,-488.19"/>
<text xml:space="preserve" text-anchor="middle" x="480.78" y="-506.2" font-family="Arial" font-size="9.00">decompose</text>
</g>
<!-- LLD3 -->
<g id="node8" class="node">
<title>LLD3</title>
<path fill="#ffe699" stroke="black" d="M802.62,-299.5C802.62,-299.5 643.38,-299.5 643.38,-299.5 637.38,-299.5 631.38,-293.5 631.38,-287.5 631.38,-287.5 631.38,-275.5 631.38,-275.5 631.38,-269.5 637.38,-263.5 643.38,-263.5 643.38,-263.5 802.62,-263.5 802.62,-263.5 808.62,-263.5 814.62,-269.5 814.62,-275.5 814.62,-275.5 814.62,-287.5 814.62,-287.5 814.62,-293.5 808.62,-299.5 802.62,-299.5"/>
<text xml:space="preserve" text-anchor="middle" x="723" y="-278" font-family="Arial" font-size="10.00">29 — REST API + runtime connectors</text>
</g>
<!-- L2&#45;&gt;LLD3 -->
<g id="edge7" class="edge">
<title>L2&#45;&gt;LLD3</title>
<path fill="none" stroke="#444444" d="M589.93,-532.37C612.91,-522.35 638.06,-507.44 654,-486.25 694.56,-432.33 712.24,-353.04 719.13,-311.04"/>
<polygon fill="#444444" stroke="#444444" points="722.57,-311.67 720.64,-301.25 715.65,-310.6 722.57,-311.67"/>
<text xml:space="preserve" text-anchor="middle" x="705.85" y="-423.7" font-family="Arial" font-size="9.00">API map</text>
</g>
<!-- LLD2 -->
<g id="node7" class="node">
<title>LLD2</title>
<path fill="#ffe699" stroke="black" d="M601,-299.5C601,-299.5 483,-299.5 483,-299.5 477,-299.5 471,-293.5 471,-287.5 471,-287.5 471,-275.5 471,-275.5 471,-269.5 477,-263.5 483,-263.5 483,-263.5 601,-263.5 601,-263.5 607,-263.5 613,-269.5 613,-275.5 613,-275.5 613,-287.5 613,-287.5 613,-293.5 607,-299.5 601,-299.5"/>
<text xml:space="preserve" text-anchor="middle" x="542" y="-278" font-family="Arial" font-size="10.00">28 — ETL connector pipeline</text>
</g>
<!-- L2D&#45;&gt;LLD2 -->
<g id="edge6" class="edge">
<title>L2D&#45;&gt;LLD2</title>
<path fill="none" stroke="#444444" d="M548.34,-449.87C547.13,-418.03 544.56,-350.05 543.09,-311.23"/>
<polygon fill="#444444" stroke="#444444" points="546.6,-311.34 542.72,-301.48 539.6,-311.61 546.6,-311.34"/>
<text xml:space="preserve" text-anchor="middle" x="569.41" y="-382.45" font-family="Arial" font-size="9.00">batch flows</text>
</g>
<!-- L4 -->
<g id="node5" class="node">
<title>L4</title>
<path fill="#c6e0b4" stroke="black" d="M404.88,-403.75C404.88,-403.75 307.12,-403.75 307.12,-403.75 301.12,-403.75 295.12,-397.75 295.12,-391.75 295.12,-391.75 295.12,-379.75 295.12,-379.75 295.12,-373.75 301.12,-367.75 307.12,-367.75 307.12,-367.75 404.88,-367.75 404.88,-367.75 410.88,-367.75 416.88,-373.75 416.88,-379.75 416.88,-379.75 416.88,-391.75 416.88,-391.75 416.88,-397.75 410.88,-403.75 404.88,-403.75"/>
<text xml:space="preserve" text-anchor="middle" x="356" y="-388.25" font-family="Arial" font-size="10.00">24 — L4 Code</text>
<text xml:space="preserve" text-anchor="middle" x="356" y="-376.25" font-family="Arial" font-size="10.00">Files · functions · routes</text>
</g>
<!-- L3&#45;&gt;L4 -->
<g id="edge4" class="edge">
<title>L3&#45;&gt;L4</title>
<path fill="none" stroke="#444444" d="M356,-449.78C356,-439.76 356,-426.93 356,-415.46"/>
<polygon fill="#444444" stroke="#444444" points="359.5,-415.7 356,-405.7 352.5,-415.7 359.5,-415.7"/>
<text xml:space="preserve" text-anchor="middle" x="380" y="-423.7" font-family="Arial" font-size="9.00">decompose</text>
</g>
<!-- LLD1 -->
<g id="node6" class="node">
<title>LLD1</title>
<path fill="#ffe699" stroke="black" d="M441.12,-299.5C441.12,-299.5 296.88,-299.5 296.88,-299.5 290.88,-299.5 284.88,-293.5 284.88,-287.5 284.88,-287.5 284.88,-275.5 284.88,-275.5 284.88,-269.5 290.88,-263.5 296.88,-263.5 296.88,-263.5 441.12,-263.5 441.12,-263.5 447.12,-263.5 453.12,-269.5 453.12,-275.5 453.12,-275.5 453.12,-287.5 453.12,-287.5 453.12,-293.5 447.12,-299.5 441.12,-299.5"/>
<text xml:space="preserve" text-anchor="middle" x="369" y="-278" font-family="Arial" font-size="10.00">25 — Diagnosis + Claim sequence</text>
</g>
<!-- L4&#45;&gt;LLD1 -->
<g id="edge5" class="edge">
<title>L4&#45;&gt;LLD1</title>
<path fill="none" stroke="#444444" d="M358.21,-367.4C360.16,-352.05 363.04,-329.35 365.34,-311.28"/>
<polygon fill="#444444" stroke="#444444" points="368.8,-311.79 366.59,-301.43 361.86,-310.91 368.8,-311.79"/>
<text xml:space="preserve" text-anchor="middle" x="388.72" y="-341.2" font-family="Arial" font-size="9.00">runtime flows</text>
</g>
<!-- ERD -->
<g id="node12" class="node">
<title>ERD</title>
<path fill="#d7ccc8" stroke="black" d="M243.5,-299.5C243.5,-299.5 116.5,-299.5 116.5,-299.5 110.5,-299.5 104.5,-293.5 104.5,-287.5 104.5,-287.5 104.5,-275.5 104.5,-275.5 104.5,-269.5 110.5,-263.5 116.5,-263.5 116.5,-263.5 243.5,-263.5 243.5,-263.5 249.5,-263.5 255.5,-269.5 255.5,-275.5 255.5,-275.5 255.5,-287.5 255.5,-287.5 255.5,-293.5 249.5,-299.5 243.5,-299.5"/>
<text xml:space="preserve" text-anchor="middle" x="180" y="-278" font-family="Arial" font-size="10.00">34 — Enterprise blueprint ERD</text>
</g>
<!-- L4&#45;&gt;ERD -->
<g id="edge11" class="edge">
<title>L4&#45;&gt;ERD</title>
<path fill="none" stroke="#444444" d="M326.14,-367.4C296.81,-350.36 251.89,-324.26 219.59,-305.5"/>
<polygon fill="#444444" stroke="#444444" points="221.72,-302.69 211.31,-300.69 218.2,-308.74 221.72,-302.69"/>
<text xml:space="preserve" text-anchor="middle" x="311.67" y="-341.2" font-family="Arial" font-size="9.00">ontology</text>
</g>
<!-- LLD4 -->
<g id="node9" class="node">
<title>LLD4</title>
<path fill="#fce4d6" stroke="black" d="M783.5,-217C783.5,-217 662.5,-217 662.5,-217 656.5,-217 650.5,-211 650.5,-205 650.5,-205 650.5,-193 650.5,-193 650.5,-187 656.5,-181 662.5,-181 662.5,-181 783.5,-181 783.5,-181 789.5,-181 795.5,-187 795.5,-193 795.5,-193 795.5,-205 795.5,-205 795.5,-211 789.5,-217 783.5,-217"/>
<text xml:space="preserve" text-anchor="middle" x="723" y="-195.5" font-family="Arial" font-size="10.00">30 — Kubernetes deployment</text>
</g>
<!-- LLD3&#45;&gt;LLD4 -->
<g id="edge8" class="edge">
<title>LLD3&#45;&gt;LLD4</title>
<path fill="none" stroke="#444444" d="M723,-263.03C723,-253.01 723,-240.18 723,-228.71"/>
<polygon fill="#444444" stroke="#444444" points="726.5,-228.95 723,-218.95 719.5,-228.95 726.5,-228.95"/>
<text xml:space="preserve" text-anchor="middle" x="736.88" y="-236.95" font-family="Arial" font-size="9.00">deploy</text>
</g>
<!-- LLD5 -->
<g id="node10" class="node">
<title>LLD5</title>
<path fill="#fce4d6" stroke="black" d="M780.88,-134.5C780.88,-134.5 665.12,-134.5 665.12,-134.5 659.12,-134.5 653.12,-128.5 653.12,-122.5 653.12,-122.5 653.12,-110.5 653.12,-110.5 653.12,-104.5 659.12,-98.5 665.12,-98.5 665.12,-98.5 780.88,-98.5 780.88,-98.5 786.88,-98.5 792.88,-104.5 792.88,-110.5 792.88,-110.5 792.88,-122.5 792.88,-122.5 792.88,-128.5 786.88,-134.5 780.88,-134.5"/>
<text xml:space="preserve" text-anchor="middle" x="723" y="-113" font-family="Arial" font-size="10.00">31 — GitHub Actions CI/CD</text>
</g>
<!-- LLD4&#45;&gt;LLD5 -->
<g id="edge9" class="edge">
<title>LLD4&#45;&gt;LLD5</title>
<path fill="none" stroke="#444444" d="M723,-180.53C723,-170.51 723,-157.68 723,-146.21"/>
<polygon fill="#444444" stroke="#444444" points="726.5,-146.45 723,-136.45 719.5,-146.45 726.5,-146.45"/>
<text xml:space="preserve" text-anchor="middle" x="742.12" y="-154.45" font-family="Arial" font-size="9.00">automate</text>
</g>
<!-- LLD6 -->
<g id="node11" class="node">
<title>LLD6</title>
<path fill="#fce4d6" stroke="black" d="M774.88,-52C774.88,-52 671.12,-52 671.12,-52 665.12,-52 659.12,-46 659.12,-40 659.12,-40 659.12,-28 659.12,-28 659.12,-22 665.12,-16 671.12,-16 671.12,-16 774.88,-16 774.88,-16 780.88,-16 786.88,-22 786.88,-28 786.88,-28 786.88,-40 786.88,-40 786.88,-46 780.88,-52 774.88,-52"/>
<text xml:space="preserve" text-anchor="middle" x="723" y="-30.5" font-family="Arial" font-size="10.00">32 — Multi&#45;env promotion</text>
</g>
<!-- LLD5&#45;&gt;LLD6 -->
<g id="edge10" class="edge">
<title>LLD5&#45;&gt;LLD6</title>
<path fill="none" stroke="#444444" d="M723,-98.03C723,-88.01 723,-75.18 723,-63.71"/>
<polygon fill="#444444" stroke="#444444" points="726.5,-63.95 723,-53.95 719.5,-63.95 726.5,-63.95"/>
<text xml:space="preserve" text-anchor="middle" x="739.88" y="-71.95" font-family="Arial" font-size="9.00">promote</text>
</g>
<!-- LAY -->
<g id="node13" class="node">
<title>LAY</title>
<path fill="#d7ccc8" stroke="black" d="M249.12,-217C249.12,-217 98.88,-217 98.88,-217 92.88,-217 86.88,-211 86.88,-205 86.88,-205 86.88,-193 86.88,-193 86.88,-187 92.88,-181 98.88,-181 98.88,-181 249.12,-181 249.12,-181 255.12,-181 261.12,-187 261.12,-193 261.12,-193 261.12,-205 261.12,-205 261.12,-211 255.12,-217 249.12,-217"/>
<text xml:space="preserve" text-anchor="middle" x="174" y="-195.5" font-family="Arial" font-size="10.00">35 — 6&#45;layer symmetric architecture</text>
</g>
<!-- ERD&#45;&gt;LAY -->
<g id="edge12" class="edge">
<title>ERD&#45;&gt;LAY</title>
<path fill="none" stroke="#444444" d="M178.7,-263.03C177.95,-253.01 176.99,-240.18 176.14,-228.71"/>
<polygon fill="#444444" stroke="#444444" points="179.65,-228.65 175.41,-218.94 172.66,-229.18 179.65,-228.65"/>
</g>
<!-- PIO -->
<g id="node14" class="node">
<title>PIO</title>
<path fill="#d7ccc8" stroke="black" d="M233,-134.5C233,-134.5 115,-134.5 115,-134.5 109,-134.5 103,-128.5 103,-122.5 103,-122.5 103,-110.5 103,-110.5 103,-104.5 109,-98.5 115,-98.5 115,-98.5 233,-98.5 233,-98.5 239,-98.5 245,-104.5 245,-110.5 245,-110.5 245,-122.5 245,-122.5 245,-128.5 239,-134.5 233,-134.5"/>
<text xml:space="preserve" text-anchor="middle" x="174" y="-113" font-family="Arial" font-size="10.00">36 — End&#45;to&#45;end pipeline I/O</text>
</g>
<!-- LAY&#45;&gt;PIO -->
<g id="edge13" class="edge">
<title>LAY&#45;&gt;PIO</title>
<path fill="none" stroke="#444444" d="M174,-180.53C174,-170.51 174,-157.68 174,-146.21"/>
<polygon fill="#444444" stroke="#444444" points="177.5,-146.45 174,-136.45 170.5,-146.45 177.5,-146.45"/>
</g>
<!-- MOD -->
<g id="node15" class="node">
<title>MOD</title>
<path fill="#d7ccc8" stroke="black" d="M237.5,-52C237.5,-52 110.5,-52 110.5,-52 104.5,-52 98.5,-46 98.5,-40 98.5,-40 98.5,-28 98.5,-28 98.5,-22 104.5,-16 110.5,-16 110.5,-16 237.5,-16 237.5,-16 243.5,-16 249.5,-22 249.5,-28 249.5,-28 249.5,-40 249.5,-40 249.5,-46 243.5,-52 237.5,-52"/>
<text xml:space="preserve" text-anchor="middle" x="174" y="-30.5" font-family="Arial" font-size="10.00">37 — Module catalog by phase</text>
</g>
<!-- PIO&#45;&gt;MOD -->
<g id="edge14" class="edge">
<title>PIO&#45;&gt;MOD</title>
<path fill="none" stroke="#444444" d="M174,-98.03C174,-88.01 174,-75.18 174,-63.71"/>
<polygon fill="#444444" stroke="#444444" points="177.5,-63.95 174,-53.95 170.5,-63.95 177.5,-63.95"/>
</g>
<!-- Ont -->
<g id="node16" class="node">
<title>Ont</title>
<path fill="#e8e8e8" stroke="black" d="M820.38,-651.25C820.38,-651.25 683.62,-651.25 683.62,-651.25 677.62,-651.25 671.62,-645.25 671.62,-639.25 671.62,-639.25 671.62,-627.25 671.62,-627.25 671.62,-621.25 677.62,-615.25 683.62,-615.25 683.62,-615.25 820.38,-615.25 820.38,-615.25 826.38,-615.25 832.38,-621.25 832.38,-627.25 832.38,-627.25 832.38,-639.25 832.38,-639.25 832.38,-645.25 826.38,-651.25 820.38,-651.25"/>
<text xml:space="preserve" text-anchor="middle" x="752" y="-635.75" font-family="Arial" font-size="10.00">26 — Per&#45;SKU blueprint instance</text>
<text xml:space="preserve" text-anchor="middle" x="752" y="-623.75" font-family="Arial" font-size="10.00">05 — Core Neo4j schema</text>
</g>
<!-- D01 -->
<g id="node17" class="node">
<title>D01</title>
<path fill="#f2f2f2" stroke="black" stroke-dasharray="5,2" d="M989,-651.25C989,-651.25 871,-651.25 871,-651.25 865,-651.25 859,-645.25 859,-639.25 859,-639.25 859,-627.25 859,-627.25 859,-621.25 865,-615.25 871,-615.25 871,-615.25 989,-615.25 989,-615.25 995,-615.25 1001,-621.25 1001,-627.25 1001,-627.25 1001,-639.25 1001,-639.25 1001,-645.25 995,-651.25 989,-651.25"/>
<text xml:space="preserve" text-anchor="middle" x="930" y="-629.75" font-family="Arial" font-size="10.00">01 system&#45;context → use 21</text>
</g>
<!-- D02 -->
<g id="node18" class="node">
<title>D02</title>
<path fill="#f2f2f2" stroke="black" stroke-dasharray="5,2" d="M1139.12,-651.25C1139.12,-651.25 1030.88,-651.25 1030.88,-651.25 1024.88,-651.25 1018.88,-645.25 1018.88,-639.25 1018.88,-639.25 1018.88,-627.25 1018.88,-627.25 1018.88,-621.25 1024.88,-615.25 1030.88,-615.25 1030.88,-615.25 1139.12,-615.25 1139.12,-615.25 1145.12,-615.25 1151.12,-621.25 1151.12,-627.25 1151.12,-627.25 1151.12,-639.25 1151.12,-639.25 1151.12,-645.25 1145.12,-651.25 1139.12,-651.25"/>
<text xml:space="preserve" text-anchor="middle" x="1085" y="-629.75" font-family="Arial" font-size="10.00">02 module&#45;block → use 24</text>
</g>
<!-- D06 -->
<g id="node19" class="node">
<title>D06</title>
<path fill="#f2f2f2" stroke="black" stroke-dasharray="5,2" d="M1249.25,-651.25C1249.25,-651.25 1180.75,-651.25 1180.75,-651.25 1174.75,-651.25 1168.75,-645.25 1168.75,-639.25 1168.75,-639.25 1168.75,-627.25 1168.75,-627.25 1168.75,-621.25 1174.75,-615.25 1180.75,-615.25 1180.75,-615.25 1249.25,-615.25 1249.25,-615.25 1255.25,-615.25 1261.25,-621.25 1261.25,-627.25 1261.25,-627.25 1261.25,-639.25 1261.25,-639.25 1261.25,-645.25 1255.25,-651.25 1249.25,-651.25"/>
<text xml:space="preserve" text-anchor="middle" x="1215" y="-629.75" font-family="Arial" font-size="10.00">06 ETL → use 28</text>
</g>
<!-- D08 -->
<g id="node20" class="node">
<title>D08</title>
<path fill="#f2f2f2" stroke="black" stroke-dasharray="5,2" d="M1418.88,-651.25C1418.88,-651.25 1291.12,-651.25 1291.12,-651.25 1285.12,-651.25 1279.12,-645.25 1279.12,-639.25 1279.12,-639.25 1279.12,-627.25 1279.12,-627.25 1279.12,-621.25 1285.12,-615.25 1291.12,-615.25 1291.12,-615.25 1418.88,-615.25 1418.88,-615.25 1424.88,-615.25 1430.88,-621.25 1430.88,-627.25 1430.88,-627.25 1430.88,-639.25 1430.88,-639.25 1430.88,-645.25 1424.88,-651.25 1418.88,-651.25"/>
<text xml:space="preserve" text-anchor="middle" x="1355" y="-629.75" font-family="Arial" font-size="10.00">08 runtime sequence → use 25</text>
</g>
<!-- D09 -->
<g id="node21" class="node">
<title>D09</title>
<path fill="#f2f2f2" stroke="black" stroke-dasharray="5,2" d="M1602.62,-651.25C1602.62,-651.25 1461.38,-651.25 1461.38,-651.25 1455.38,-651.25 1449.38,-645.25 1449.38,-639.25 1449.38,-639.25 1449.38,-627.25 1449.38,-627.25 1449.38,-621.25 1455.38,-615.25 1461.38,-615.25 1461.38,-615.25 1602.62,-615.25 1602.62,-615.25 1608.62,-615.25 1614.62,-621.25 1614.62,-627.25 1614.62,-627.25 1614.62,-639.25 1614.62,-639.25 1614.62,-645.25 1608.62,-651.25 1602.62,-651.25"/>
<text xml:space="preserve" text-anchor="middle" x="1532" y="-629.75" font-family="Arial" font-size="10.00">09 enterprise production → use 30</text>
</g>
<!-- D14 -->
<g id="node22" class="node">
<title>D14</title>
<path fill="#f2f2f2" stroke="black" stroke-dasharray="5,2" d="M1769,-651.25C1769,-651.25 1645,-651.25 1645,-651.25 1639,-651.25 1633,-645.25 1633,-639.25 1633,-639.25 1633,-627.25 1633,-627.25 1633,-621.25 1639,-615.25 1645,-615.25 1645,-615.25 1769,-615.25 1769,-615.25 1775,-615.25 1781,-621.25 1781,-627.25 1781,-627.25 1781,-639.25 1781,-639.25 1781,-645.25 1775,-651.25 1769,-651.25"/>
<text xml:space="preserve" text-anchor="middle" x="1707" y="-629.75" font-family="Arial" font-size="10.00">14 etl&#45;to&#45;runtime → use 28+32</text>
</g>
</g>
</svg>
