<?xml version="1.0" encoding="UTF-8" standalone="no"?>
<!DOCTYPE svg PUBLIC "-//W3C//DTD SVG 1.1//EN"
 "http://www.w3.org/Graphics/SVG/1.1/DTD/svg11.dtd">
<!-- Generated by graphviz version 14.1.5 (20260411.2331)
 -->
<!-- Title: EnterpriseBlueprintERD Pages: 1 -->
<svg width="1013pt" height="761pt"
 viewBox="0.00 0.00 1013.00 761.00" xmlns="http://www.w3.org/2000/svg" xmlns:xlink="http://www.w3.org/1999/xlink">
<g id="graph0" class="graph" transform="scale(1 1) rotate(0) translate(4 757.25)">
<title>EnterpriseBlueprintERD</title>
<polygon fill="white" stroke="none" points="-4,4 -4,-757.25 1008.75,-757.25 1008.75,4 -4,4"/>
<text xml:space="preserve" text-anchor="middle" x="502.38" y="-735.95" font-family="Arial" font-size="14.00">Enterprise Blueprint ERD — Product Ontology &amp; Knowledge Graph Schema</text>
<text xml:space="preserve" text-anchor="middle" x="502.38" y="-720.2" font-family="Arial" font-size="14.00">(Entity&#45;Relationship · populate_graph.py · warranty_catalog_extensions.py)</text>
<!-- Product -->
<g id="node1" class="node">
<title>Product</title>
<path fill="#e3f2fd" stroke="black" d="M472.75,-440.25C472.75,-440.25 571.25,-440.25 571.25,-440.25 577.25,-440.25 583.25,-446.25 583.25,-452.25 583.25,-452.25 583.25,-486.25 583.25,-486.25 583.25,-492.25 577.25,-498.25 571.25,-498.25 571.25,-498.25 472.75,-498.25 472.75,-498.25 466.75,-498.25 460.75,-492.25 460.75,-486.25 460.75,-486.25 460.75,-452.25 460.75,-452.25 460.75,-446.25 466.75,-440.25 472.75,-440.25"/>
<text xml:space="preserve" text-anchor="middle" x="522" y="-485.7" font-family="Arial" font-size="9.00">Product</text>
<polyline fill="none" stroke="black" points="460.75,-479.75 583.25,-479.75"/>
<text xml:space="preserve" text-anchor="start" x="468.75" y="-467.2" font-family="Arial" font-size="9.00">product_id PK</text>
<text xml:space="preserve" text-anchor="start" x="468.75" y="-456.7" font-family="Arial" font-size="9.00">name · category · brand</text>
<text xml:space="preserve" text-anchor="start" x="468.75" y="-446.2" font-family="Arial" font-size="9.00">model_year · etl_batch_id</text>
</g>
<!-- Model -->
<g id="node2" class="node">
<title>Model</title>
<path fill="#e3f2fd" stroke="black" d="M680.5,-445.5C680.5,-445.5 789.5,-445.5 789.5,-445.5 795.5,-445.5 801.5,-451.5 801.5,-457.5 801.5,-457.5 801.5,-481 801.5,-481 801.5,-487 795.5,-493 789.5,-493 789.5,-493 680.5,-493 680.5,-493 674.5,-493 668.5,-487 668.5,-481 668.5,-481 668.5,-457.5 668.5,-457.5 668.5,-451.5 674.5,-445.5 680.5,-445.5"/>
<text xml:space="preserve" text-anchor="middle" x="735" y="-480.45" font-family="Arial" font-size="9.00">Model</text>
<polyline fill="none" stroke="black" points="668.5,-474.5 801.5,-474.5"/>
<text xml:space="preserve" text-anchor="start" x="676.5" y="-461.95" font-family="Arial" font-size="9.00">model_id PK</text>
<text xml:space="preserve" text-anchor="start" x="676.5" y="-451.45" font-family="Arial" font-size="9.00">model_number · oem_family</text>
</g>
<!-- Product&#45;&gt;Model -->
<g id="edge1" class="edge">
<title>Product&#45;&gt;Model</title>
<path fill="none" stroke="#37474f" d="M583.61,-477C583.61,-477 656.8,-477 656.8,-477"/>
<polygon fill="#37474f" stroke="#37474f" points="656.8,-480.5 666.8,-477 656.8,-473.5 656.8,-480.5"/>
</g>
<!-- SKU -->
<g id="node3" class="node">
<title>SKU</title>
<path fill="#e3f2fd" stroke="black" d="M886.88,-445.5C886.88,-445.5 971.12,-445.5 971.12,-445.5 977.12,-445.5 983.12,-451.5 983.12,-457.5 983.12,-457.5 983.12,-481 983.12,-481 983.12,-487 977.12,-493 971.12,-493 971.12,-493 886.88,-493 886.88,-493 880.88,-493 874.88,-487 874.88,-481 874.88,-481 874.88,-457.5 874.88,-457.5 874.88,-451.5 880.88,-445.5 886.88,-445.5"/>
<text xml:space="preserve" text-anchor="middle" x="929" y="-480.45" font-family="Arial" font-size="9.00">SKU</text>
<polyline fill="none" stroke="black" points="874.88,-474.5 983.12,-474.5"/>
<text xml:space="preserve" text-anchor="start" x="882.88" y="-461.95" font-family="Arial" font-size="9.00">sku_id PK</text>
<text xml:space="preserve" text-anchor="start" x="882.88" y="-451.45" font-family="Arial" font-size="9.00">sku_code · description</text>
</g>
<!-- Product&#45;&gt;SKU -->
<g id="edge2" class="edge">
<title>Product&#45;&gt;SKU</title>
<path fill="none" stroke="#37474f" d="M576.42,-498.68C576.42,-514.58 576.42,-531 576.42,-531 576.42,-531 910.96,-531 910.96,-531 910.96,-531 910.96,-504.81 910.96,-504.81"/>
<polygon fill="#37474f" stroke="#37474f" points="914.46,-504.81 910.96,-494.81 907.46,-504.81 914.46,-504.81"/>
<text xml:space="preserve" text-anchor="middle" x="820" y="-522.9" font-family="Arial" font-size="8.00">HAS_SKU</text>
</g>
<!-- Component -->
<g id="node4" class="node">
<title>Component</title>
<path fill="#e3f2fd" stroke="black" d="M610.88,-102.75C610.88,-102.75 677.12,-102.75 677.12,-102.75 683.12,-102.75 689.12,-108.75 689.12,-114.75 689.12,-114.75 689.12,-138.25 689.12,-138.25 689.12,-144.25 683.12,-150.25 677.12,-150.25 677.12,-150.25 610.88,-150.25 610.88,-150.25 604.88,-150.25 598.88,-144.25 598.88,-138.25 598.88,-138.25 598.88,-114.75 598.88,-114.75 598.88,-108.75 604.88,-102.75 610.88,-102.75"/>
<text xml:space="preserve" text-anchor="middle" x="644" y="-137.7" font-family="Arial" font-size="9.00">Component</text>
<polyline fill="none" stroke="black" points="598.88,-131.75 689.12,-131.75"/>
<text xml:space="preserve" text-anchor="start" x="606.88" y="-119.2" font-family="Arial" font-size="9.00">component_id PK</text>
<text xml:space="preserve" text-anchor="start" x="606.88" y="-108.7" font-family="Arial" font-size="9.00">name · subsystem</text>
</g>
<!-- Product&#45;&gt;Component -->
<g id="edge4" class="edge">
<title>Product&#45;&gt;Component</title>
<path fill="none" stroke="#37474f" d="M583.54,-461C597.32,-461 607.94,-461 607.94,-461 607.94,-461 607.94,-162.07 607.94,-162.07"/>
<polygon fill="#37474f" stroke="#37474f" points="611.44,-162.07 607.94,-152.07 604.44,-162.07 611.44,-162.07"/>
<text xml:space="preserve" text-anchor="middle" x="867.75" y="-292.52" font-family="Arial" font-size="8.00">HAS_COMPONENT</text>
</g>
<!-- Symptom -->
<g id="node5" class="node">
<title>Symptom</title>
<path fill="#e3f2fd" stroke="black" d="M107,-210.25C107,-210.25 183,-210.25 183,-210.25 189,-210.25 195,-216.25 195,-222.25 195,-222.25 195,-245.75 195,-245.75 195,-251.75 189,-257.75 183,-257.75 183,-257.75 107,-257.75 107,-257.75 101,-257.75 95,-251.75 95,-245.75 95,-245.75 95,-222.25 95,-222.25 95,-216.25 101,-210.25 107,-210.25"/>
<text xml:space="preserve" text-anchor="middle" x="145" y="-245.2" font-family="Arial" font-size="9.00">Symptom</text>
<polyline fill="none" stroke="black" points="95,-239.25 195,-239.25"/>
<text xml:space="preserve" text-anchor="start" x="103" y="-226.7" font-family="Arial" font-size="9.00">symptom_id PK</text>
<text xml:space="preserve" text-anchor="start" x="103" y="-216.2" font-family="Arial" font-size="9.00">description · severity</text>
</g>
<!-- Product&#45;&gt;Symptom -->
<g id="edge6" class="edge">
<title>Product&#45;&gt;Symptom</title>
<path fill="none" stroke="#37474f" d="M460.49,-469C357.05,-469 159.42,-469 159.42,-469 159.42,-469 159.42,-269.34 159.42,-269.34"/>
<polygon fill="#37474f" stroke="#37474f" points="162.92,-269.34 159.42,-259.34 155.92,-269.34 162.92,-269.34"/>
<text xml:space="preserve" text-anchor="middle" x="121.38" y="-353.77" font-family="Arial" font-size="8.00">HAS_SYMPTOM</text>
</g>
<!-- ErrorCode -->
<g id="node6" class="node">
<title>ErrorCode</title>
<path fill="#e3f2fd" stroke="black" d="M284.62,-210.25C284.62,-210.25 349.38,-210.25 349.38,-210.25 355.38,-210.25 361.38,-216.25 361.38,-222.25 361.38,-222.25 361.38,-245.75 361.38,-245.75 361.38,-251.75 355.38,-257.75 349.38,-257.75 349.38,-257.75 284.62,-257.75 284.62,-257.75 278.62,-257.75 272.62,-251.75 272.62,-245.75 272.62,-245.75 272.62,-222.25 272.62,-222.25 272.62,-216.25 278.62,-210.25 284.62,-210.25"/>
<text xml:space="preserve" text-anchor="middle" x="317" y="-245.2" font-family="Arial" font-size="9.00">ErrorCode</text>
<polyline fill="none" stroke="black" points="272.62,-239.25 361.38,-239.25"/>
<text xml:space="preserve" text-anchor="start" x="280.62" y="-226.7" font-family="Arial" font-size="9.00">error_code_id PK</text>
<text xml:space="preserve" text-anchor="start" x="280.62" y="-216.2" font-family="Arial" font-size="9.00">code · description</text>
</g>
<!-- Product&#45;&gt;ErrorCode -->
<g id="edge7" class="edge">
<title>Product&#45;&gt;ErrorCode</title>
<path fill="none" stroke="#37474f" d="M460.27,-455C405.82,-455 335.06,-455 335.06,-455 335.06,-455 335.06,-269.59 335.06,-269.59"/>
<polygon fill="#37474f" stroke="#37474f" points="338.56,-269.59 335.06,-259.59 331.56,-269.59 338.56,-269.59"/>
<text xml:space="preserve" text-anchor="middle" x="427" y="-353.77" font-family="Arial" font-size="8.00">HAS_ERROR_CODE</text>
</g>
<!-- FailureMode -->
<g id="node7" class="node">
<title>FailureMode</title>
<path fill="#e3f2fd" stroke="black" d="M452.88,-205C452.88,-205 537.12,-205 537.12,-205 543.12,-205 549.12,-211 549.12,-217 549.12,-217 549.12,-251 549.12,-251 549.12,-257 543.12,-263 537.12,-263 537.12,-263 452.88,-263 452.88,-263 446.88,-263 440.88,-257 440.88,-251 440.88,-251 440.88,-217 440.88,-217 440.88,-211 446.88,-205 452.88,-205"/>
<text xml:space="preserve" text-anchor="middle" x="495" y="-250.45" font-family="Arial" font-size="9.00">FailureMode</text>
<polyline fill="none" stroke="black" points="440.88,-244.5 549.12,-244.5"/>
<text xml:space="preserve" text-anchor="start" x="448.88" y="-231.95" font-family="Arial" font-size="9.00">failure_mode_id PK</text>
<text xml:space="preserve" text-anchor="start" x="448.88" y="-221.45" font-family="Arial" font-size="9.00">name · repair_minutes</text>
<text xml:space="preserve" text-anchor="start" x="448.88" y="-210.95" font-family="Arial" font-size="9.00">safety_notes</text>
</g>
<!-- Product&#45;&gt;FailureMode -->
<g id="edge8" class="edge">
<title>Product&#45;&gt;FailureMode</title>
<path fill="none" stroke="#37474f" d="M504.94,-439.93C504.94,-439.93 504.94,-274.83 504.94,-274.83"/>
<polygon fill="#37474f" stroke="#37474f" points="508.44,-274.83 504.94,-264.83 501.44,-274.83 508.44,-274.83"/>
<text xml:space="preserve" text-anchor="middle" x="559.38" y="-353.77" font-family="Arial" font-size="8.00">CAN_HAVE</text>
</g>
<!-- DiagnosticStep -->
<g id="node8" class="node">
<title>DiagnosticStep</title>
<path fill="#e3f2fd" stroke="black" d="M629,-327.5C629,-327.5 699,-327.5 699,-327.5 705,-327.5 711,-333.5 711,-339.5 711,-339.5 711,-373.5 711,-373.5 711,-379.5 705,-385.5 699,-385.5 699,-385.5 629,-385.5 629,-385.5 623,-385.5 617,-379.5 617,-373.5 617,-373.5 617,-339.5 617,-339.5 617,-333.5 623,-327.5 629,-327.5"/>
<text xml:space="preserve" text-anchor="middle" x="664" y="-372.95" font-family="Arial" font-size="9.00">DiagnosticStep</text>
<polyline fill="none" stroke="black" points="617,-367 711,-367"/>
<text xml:space="preserve" text-anchor="start" x="625" y="-354.45" font-family="Arial" font-size="9.00">step_id PK</text>
<text xml:space="preserve" text-anchor="start" x="625" y="-343.95" font-family="Arial" font-size="9.00">description · order</text>
<text xml:space="preserve" text-anchor="start" x="625" y="-333.45" font-family="Arial" font-size="9.00">expected_outcome</text>
</g>
<!-- Product&#45;&gt;DiagnosticStep -->
<g id="edge9" class="edge">
<title>Product&#45;&gt;DiagnosticStep</title>
<path fill="none" stroke="#37474f" d="M566.19,-439.76C566.19,-406.5 566.19,-357 566.19,-357 566.19,-357 605.01,-357 605.01,-357"/>
<polygon fill="#37474f" stroke="#37474f" points="605.01,-360.5 615.01,-357 605.01,-353.5 605.01,-360.5"/>
<text xml:space="preserve" text-anchor="middle" x="679.38" y="-410.15" font-family="Arial" font-size="8.00">HAS_DIAGNOSTIC_STEP</text>
</g>
<!-- Model&#45;&gt;SKU -->
<g id="edge3" class="edge">
<title>Model&#45;&gt;SKU</title>
<path fill="none" stroke="#37474f" d="M801.76,-469C801.76,-469 863.13,-469 863.13,-469"/>
<polygon fill="#37474f" stroke="#37474f" points="863.13,-472.5 873.13,-469 863.13,-465.5 863.13,-472.5"/>
</g>
<!-- Part -->
<g id="node9" class="node">
<title>Part</title>
<path fill="#e3f2fd" stroke="black" d="M502.62,-0.5C502.62,-0.5 591.38,-0.5 591.38,-0.5 597.38,-0.5 603.38,-6.5 603.38,-12.5 603.38,-12.5 603.38,-36 603.38,-36 603.38,-42 597.38,-48 591.38,-48 591.38,-48 502.62,-48 502.62,-48 496.62,-48 490.62,-42 490.62,-36 490.62,-36 490.62,-12.5 490.62,-12.5 490.62,-6.5 496.62,-0.5 502.62,-0.5"/>
<text xml:space="preserve" text-anchor="middle" x="547" y="-35.45" font-family="Arial" font-size="9.00">Part</text>
<polyline fill="none" stroke="black" points="490.62,-29.5 603.38,-29.5"/>
<text xml:space="preserve" text-anchor="start" x="498.62" y="-16.95" font-family="Arial" font-size="9.00">part_id PK</text>
<text xml:space="preserve" text-anchor="start" x="498.62" y="-6.45" font-family="Arial" font-size="9.00">part_number · cost_usd</text>
</g>
<!-- SKU&#45;&gt;Part -->
<g id="edge14" class="edge">
<title>SKU&#45;&gt;Part</title>
<path fill="none" stroke="#37474f" d="M929,-445.31C929,-352.83 929,-24 929,-24 929,-24 615.29,-24 615.29,-24"/>
<polygon fill="#37474f" stroke="#37474f" points="615.29,-20.5 605.29,-24 615.29,-27.5 615.29,-20.5"/>
<text xml:space="preserve" text-anchor="middle" x="966.88" y="-231.28" font-family="Arial" font-size="8.00">COMPATIBLE_WITH</text>
</g>
<!-- Component&#45;&gt;Part -->
<g id="edge5" class="edge">
<title>Component&#45;&gt;Part</title>
<path fill="none" stroke="#37474f" d="M598.42,-127C593.97,-127 591.06,-127 591.06,-127 591.06,-127 591.06,-59.85 591.06,-59.85"/>
<polygon fill="#37474f" stroke="#37474f" points="594.56,-59.85 591.06,-49.85 587.56,-59.85 594.56,-59.85"/>
<text xml:space="preserve" text-anchor="middle" x="627.38" y="-72.65" font-family="Arial" font-size="8.00">REALIZED_BY</text>
</g>
<!-- Symptom&#45;&gt;FailureMode -->
<g id="edge10" class="edge">
<title>Symptom&#45;&gt;FailureMode</title>
<path fill="none" stroke="#37474f" d="M177.21,-257.97C177.21,-278.92 177.21,-306 177.21,-306 177.21,-306 447.44,-306 447.44,-306 447.44,-306 447.44,-274.8 447.44,-274.8"/>
<polygon fill="#37474f" stroke="#37474f" points="450.94,-274.8 447.44,-264.8 443.94,-274.8 450.94,-274.8"/>
<text xml:space="preserve" text-anchor="middle" x="253" y="-297.4" font-family="Arial" font-size="8.00">INDICATES</text>
<text xml:space="preserve" text-anchor="middle" x="253" y="-287.65" font-family="Arial" font-size="8.00">{confidence}</text>
</g>
<!-- ErrorCode&#45;&gt;FailureMode -->
<g id="edge11" class="edge">
<title>ErrorCode&#45;&gt;FailureMode</title>
<path fill="none" stroke="#37474f" d="M361.46,-226C361.46,-226 429.11,-226 429.11,-226"/>
<polygon fill="#37474f" stroke="#37474f" points="429.11,-229.5 439.11,-226 429.11,-222.5 429.11,-229.5"/>
</g>
<!-- FailureMode&#45;&gt;Component -->
<g id="edge12" class="edge">
<title>FailureMode&#45;&gt;Component</title>
<path fill="none" stroke="#37474f" d="M549.52,-224C576.52,-224 603.41,-224 603.41,-224 603.41,-224 603.41,-162.11 603.41,-162.11"/>
<polygon fill="#37474f" stroke="#37474f" points="606.91,-162.11 603.41,-152.11 599.91,-162.11 606.91,-162.11"/>
<text xml:space="preserve" text-anchor="middle" x="646.12" y="-174.9" font-family="Arial" font-size="8.00">IMPACTS_COMPONENT</text>
</g>
<!-- FailureMode&#45;&gt;Part -->
<g id="edge13" class="edge">
<title>FailureMode&#45;&gt;Part</title>
<path fill="none" stroke="#37474f" d="M519.88,-204.84C519.88,-204.84 519.88,-59.81 519.88,-59.81"/>
<polygon fill="#37474f" stroke="#37474f" points="523.38,-59.81 519.88,-49.81 516.38,-59.81 523.38,-59.81"/>
<text xml:space="preserve" text-anchor="middle" x="528.75" y="-128.65" font-family="Arial" font-size="8.00">REQUIRES_PART</text>
<text xml:space="preserve" text-anchor="middle" x="528.75" y="-118.9" font-family="Arial" font-size="8.00">{qty · probability}</text>
</g>
<!-- DiagnosticStep&#45;&gt;FailureMode -->
<g id="edge16" class="edge">
<title>DiagnosticStep&#45;&gt;FailureMode</title>
<path fill="none" stroke="#37474f" d="M641.04,-327.24C641.04,-293.9 641.04,-244 641.04,-244 641.04,-244 560.89,-244 560.89,-244"/>
<polygon fill="#37474f" stroke="#37474f" points="560.89,-240.5 550.89,-244 560.89,-247.5 560.89,-240.5"/>
<text xml:space="preserve" text-anchor="middle" x="680.5" y="-297.4" font-family="Arial" font-size="8.00">CONFIRMS / RULES_OUT</text>
<text xml:space="preserve" text-anchor="middle" x="680.5" y="-287.65" font-family="Arial" font-size="8.00">{confidence}</text>
</g>
<!-- DiagnosticStep&#45;&gt;DiagnosticStep -->
<g id="edge15" class="edge">
<title>DiagnosticStep&#45;&gt;DiagnosticStep</title>
<path fill="none" stroke="#37474f" d="M640.19,-385.74C640.19,-399.53 640.19,-413 640.19,-413 640.19,-413 612.47,-413 612.47,-413 612.47,-413 612.47,-285 612.47,-285 612.47,-285 665.08,-285 665.08,-285 665.08,-285 665.08,-315.49 665.08,-315.49"/>
<polygon fill="#37474f" stroke="#37474f" points="661.58,-315.49 665.08,-325.49 668.58,-315.49 661.58,-315.49"/>
</g>
<!-- Asset -->
<g id="node10" class="node">
<title>Asset</title>
<path fill="#e3f2fd" stroke="black" d="M455,-553C455,-553 561,-553 561,-553 567,-553 573,-559 573,-565 573,-565 573,-599 573,-599 573,-605 567,-611 561,-611 561,-611 455,-611 455,-611 449,-611 443,-605 443,-599 443,-599 443,-565 443,-565 443,-559 449,-553 455,-553"/>
<text xml:space="preserve" text-anchor="middle" x="508" y="-598.45" font-family="Arial" font-size="9.00">Asset</text>
<polyline fill="none" stroke="black" points="443,-592.5 573,-592.5"/>
<text xml:space="preserve" text-anchor="start" x="451" y="-579.95" font-family="Arial" font-size="9.00">asset_id PK</text>
<text xml:space="preserve" text-anchor="start" x="451" y="-569.45" font-family="Arial" font-size="9.00">serial_number · install_date</text>
<text xml:space="preserve" text-anchor="start" x="451" y="-558.95" font-family="Arial" font-size="9.00">warranty_status</text>
</g>
<!-- Asset&#45;&gt;Product -->
<g id="edge17" class="edge">
<title>Asset&#45;&gt;Product</title>
<path fill="none" stroke="#37474f" d="M498.17,-552.67C498.17,-552.67 498.17,-509.95 498.17,-509.95"/>
<polygon fill="#37474f" stroke="#37474f" points="501.67,-509.95 498.17,-499.95 494.67,-509.95 501.67,-509.95"/>
<text xml:space="preserve" text-anchor="middle" x="536.12" y="-522.9" font-family="Arial" font-size="8.00">INSTANCE_OF</text>
</g>
<!-- Asset&#45;&gt;SKU -->
<g id="edge18" class="edge">
<title>Asset&#45;&gt;SKU</title>
<path fill="none" stroke="#37474f" d="M535.58,-552.51C535.58,-546.51 535.58,-542 535.58,-542 535.58,-542 947.04,-542 947.04,-542 947.04,-542 947.04,-504.99 947.04,-504.99"/>
<polygon fill="#37474f" stroke="#37474f" points="950.54,-504.99 947.04,-494.99 943.54,-504.99 950.54,-504.99"/>
<text xml:space="preserve" text-anchor="middle" x="640.62" y="-522.9" font-family="Arial" font-size="8.00">BOUND_TO_SKU</text>
</g>
<!-- WarrantyPolicy -->
<g id="node11" class="node">
<title>WarrantyPolicy</title>
<path fill="#e3f2fd" stroke="black" d="M675.38,-558.25C675.38,-558.25 774.62,-558.25 774.62,-558.25 780.62,-558.25 786.62,-564.25 786.62,-570.25 786.62,-570.25 786.62,-593.75 786.62,-593.75 786.62,-599.75 780.62,-605.75 774.62,-605.75 774.62,-605.75 675.38,-605.75 675.38,-605.75 669.38,-605.75 663.38,-599.75 663.38,-593.75 663.38,-593.75 663.38,-570.25 663.38,-570.25 663.38,-564.25 669.38,-558.25 675.38,-558.25"/>
<text xml:space="preserve" text-anchor="middle" x="725" y="-593.2" font-family="Arial" font-size="9.00">WarrantyPolicy</text>
<polyline fill="none" stroke="black" points="663.38,-587.25 786.62,-587.25"/>
<text xml:space="preserve" text-anchor="start" x="671.38" y="-574.7" font-family="Arial" font-size="9.00">policy_id PK</text>
<text xml:space="preserve" text-anchor="start" x="671.38" y="-564.2" font-family="Arial" font-size="9.00">coverage_type · end_date</text>
</g>
<!-- Asset&#45;&gt;WarrantyPolicy -->
<g id="edge19" class="edge">
<title>Asset&#45;&gt;WarrantyPolicy</title>
<path fill="none" stroke="#37474f" d="M573.4,-590C573.4,-590 651.56,-590 651.56,-590"/>
<polygon fill="#37474f" stroke="#37474f" points="651.56,-593.5 661.56,-590 651.56,-586.5 651.56,-593.5"/>
</g>
<!-- WarrantyPolicy&#45;&gt;Product -->
<g id="edge20" class="edge">
<title>WarrantyPolicy&#45;&gt;Product</title>
<path fill="none" stroke="#37474f" d="M663.02,-574C623.56,-574 579.83,-574 579.83,-574 579.83,-574 579.83,-510.22 579.83,-510.22"/>
<polygon fill="#37474f" stroke="#37474f" points="583.33,-510.22 579.83,-500.22 576.33,-510.22 583.33,-510.22"/>
<text xml:space="preserve" text-anchor="middle" x="755.38" y="-522.9" font-family="Arial" font-size="8.00">COVERS_PRODUCT</text>
</g>
<!-- Claim -->
<g id="node12" class="node">
<title>Claim</title>
<path fill="#e3f2fd" stroke="black" d="M153.62,-553C153.62,-553 260.38,-553 260.38,-553 266.38,-553 272.38,-559 272.38,-565 272.38,-565 272.38,-599 272.38,-599 272.38,-605 266.38,-611 260.38,-611 260.38,-611 153.62,-611 153.62,-611 147.62,-611 141.62,-605 141.62,-599 141.62,-599 141.62,-565 141.62,-565 141.62,-559 147.62,-553 153.62,-553"/>
<text xml:space="preserve" text-anchor="middle" x="207" y="-598.45" font-family="Arial" font-size="9.00">Claim</text>
<polyline fill="none" stroke="black" points="141.62,-592.5 272.38,-592.5"/>
<text xml:space="preserve" text-anchor="start" x="149.62" y="-579.95" font-family="Arial" font-size="9.00">claim_id PK</text>
<text xml:space="preserve" text-anchor="start" x="149.62" y="-569.45" font-family="Arial" font-size="9.00">status · resolution_summary</text>
<text xml:space="preserve" text-anchor="start" x="149.62" y="-558.95" font-family="Arial" font-size="9.00">closed_date</text>
</g>
<!-- Claim&#45;&gt;FailureMode -->
<g id="edge23" class="edge">
<title>Claim&#45;&gt;FailureMode</title>
<path fill="none" stroke="#37474f" d="M233.69,-552.71C233.69,-532.78 233.69,-510 233.69,-510 233.69,-510 451.88,-510 451.88,-510 451.88,-510 451.88,-274.79 451.88,-274.79"/>
<polygon fill="#37474f" stroke="#37474f" points="455.38,-274.79 451.88,-264.79 448.38,-274.79 455.38,-274.79"/>
<text xml:space="preserve" text-anchor="middle" x="231.75" y="-410.15" font-family="Arial" font-size="8.00">CONFIRMED</text>
</g>
<!-- Claim&#45;&gt;Part -->
<g id="edge24" class="edge">
<title>Claim&#45;&gt;Part</title>
<path fill="none" stroke="#37474f" d="M214.34,-552.79C214.34,-437.97 214.34,-24 214.34,-24 214.34,-24 478.68,-24 478.68,-24"/>
<polygon fill="#37474f" stroke="#37474f" points="478.68,-27.5 488.68,-24 478.68,-20.5 478.68,-27.5"/>
<text xml:space="preserve" text-anchor="middle" x="24" y="-292.52" font-family="Arial" font-size="8.00">USED_PART</text>
</g>
<!-- Claim&#45;&gt;Asset -->
<g id="edge22" class="edge">
<title>Claim&#45;&gt;Asset</title>
<path fill="none" stroke="#37474f" d="M253.03,-552.82C253.03,-536.73 253.03,-520 253.03,-520 253.03,-520 456.31,-520 456.31,-520 456.31,-520 456.31,-541.3 456.31,-541.3"/>
<polygon fill="#37474f" stroke="#37474f" points="452.81,-541.3 456.31,-551.3 459.81,-541.3 452.81,-541.3"/>
<text xml:space="preserve" text-anchor="middle" x="358" y="-635.65" font-family="Arial" font-size="8.00">FOR_ASSET</text>
</g>
<!-- HistRes -->
<g id="node13" class="node">
<title>HistRes</title>
<path fill="#e3f2fd" stroke="black" d="M320.75,-558.25C320.75,-558.25 395.25,-558.25 395.25,-558.25 401.25,-558.25 407.25,-564.25 407.25,-570.25 407.25,-570.25 407.25,-593.75 407.25,-593.75 407.25,-599.75 401.25,-605.75 395.25,-605.75 395.25,-605.75 320.75,-605.75 320.75,-605.75 314.75,-605.75 308.75,-599.75 308.75,-593.75 308.75,-593.75 308.75,-570.25 308.75,-570.25 308.75,-564.25 314.75,-558.25 320.75,-558.25"/>
<text xml:space="preserve" text-anchor="middle" x="358" y="-593.2" font-family="Arial" font-size="9.00">HistoricalResolution</text>
<polyline fill="none" stroke="black" points="308.75,-587.25 407.25,-587.25"/>
<text xml:space="preserve" text-anchor="start" x="316.75" y="-574.7" font-family="Arial" font-size="9.00">resolution_id PK</text>
<text xml:space="preserve" text-anchor="start" x="316.75" y="-564.2" font-family="Arial" font-size="9.00">description · date</text>
</g>
<!-- HistRes&#45;&gt;Product -->
<g id="edge25" class="edge">
<title>HistRes&#45;&gt;Product</title>
<path fill="none" stroke="#37474f" d="M391.96,-557.78C391.96,-528.75 391.96,-484 391.96,-484 391.96,-484 448.89,-484 448.89,-484"/>
<polygon fill="#37474f" stroke="#37474f" points="448.89,-487.5 458.89,-484 448.89,-480.5 448.89,-487.5"/>
<text xml:space="preserve" text-anchor="middle" x="413.12" y="-522.9" font-family="Arial" font-size="8.00">FOR_PRODUCT</text>
</g>
<!-- HistRes&#45;&gt;FailureMode -->
<g id="edge26" class="edge">
<title>HistRes&#45;&gt;FailureMode</title>
<path fill="none" stroke="#37474f" d="M376.67,-557.82C376.67,-480.14 376.67,-242 376.67,-242 376.67,-242 429.17,-242 429.17,-242"/>
<polygon fill="#37474f" stroke="#37474f" points="429.17,-245.5 439.17,-242 429.17,-238.5 429.17,-245.5"/>
<text xml:space="preserve" text-anchor="middle" x="322.75" y="-410.15" font-family="Arial" font-size="8.00">CONFIRMED</text>
</g>
<!-- Customer -->
<g id="node14" class="node">
<title>Customer</title>
<path fill="#e3f2fd" stroke="black" d="M479.75,-665.75C479.75,-665.75 536.25,-665.75 536.25,-665.75 542.25,-665.75 548.25,-671.75 548.25,-677.75 548.25,-677.75 548.25,-701.25 548.25,-701.25 548.25,-707.25 542.25,-713.25 536.25,-713.25 536.25,-713.25 479.75,-713.25 479.75,-713.25 473.75,-713.25 467.75,-707.25 467.75,-701.25 467.75,-701.25 467.75,-677.75 467.75,-677.75 467.75,-671.75 473.75,-665.75 479.75,-665.75"/>
<text xml:space="preserve" text-anchor="middle" x="508" y="-700.7" font-family="Arial" font-size="9.00">Customer</text>
<polyline fill="none" stroke="black" points="467.75,-694.75 548.25,-694.75"/>
<text xml:space="preserve" text-anchor="start" x="475.75" y="-682.2" font-family="Arial" font-size="9.00">customer_id PK</text>
<text xml:space="preserve" text-anchor="start" x="475.75" y="-671.7" font-family="Arial" font-size="9.00">name · region</text>
</g>
<!-- Customer&#45;&gt;Asset -->
<g id="edge21" class="edge">
<title>Customer&#45;&gt;Asset</title>
<path fill="none" stroke="#37474f" d="M508,-665.37C508,-665.37 508,-622.92 508,-622.92"/>
<polygon fill="#37474f" stroke="#37474f" points="511.5,-622.92 508,-612.92 504.5,-622.92 511.5,-622.92"/>
<text xml:space="preserve" text-anchor="middle" x="520.38" y="-635.65" font-family="Arial" font-size="8.00">OWNS</text>
</g>
</g>
</svg>
