<?xml version="1.0" encoding="UTF-8" standalone="no"?>
<!DOCTYPE svg PUBLIC "-//W3C//DTD SVG 1.1//EN"
 "http://www.w3.org/Graphics/SVG/1.1/DTD/svg11.dtd">
<!-- Generated by graphviz version 14.1.5 (20260411.2331)
 -->
<!-- Title: LayerArchitectureSymmetric Pages: 1 -->
<svg width="1964pt" height="430pt"
 viewBox="0.00 0.00 1964.00 430.00" xmlns="http://www.w3.org/2000/svg" xmlns:xlink="http://www.w3.org/1999/xlink">
<g id="graph0" class="graph" transform="scale(1 1) rotate(0) translate(4 426.25)">
<title>LayerArchitectureSymmetric</title>
<polygon fill="white" stroke="none" points="-4,4 -4,-426.25 1960.4,-426.25 1960.4,4 -4,4"/>
<text xml:space="preserve" text-anchor="middle" x="978.2" y="-404.95" font-family="Arial" font-size="14.00">6&#45;Layer Application Architecture — Symmetrical View</text>
<text xml:space="preserve" text-anchor="middle" x="978.2" y="-389.2" font-family="Arial" font-size="14.00">(Every layer · left&#45;to&#45;right balanced · connector&#45;based)</text>
<g id="clust4" class="cluster">
<title>cluster_L3</title>
<path fill="#e0f7fa" stroke="#00838f" d="M869.2,-240.5C869.2,-240.5 1027.2,-240.5 1027.2,-240.5 1033.2,-240.5 1039.2,-246.5 1039.2,-252.5 1039.2,-252.5 1039.2,-362.75 1039.2,-362.75 1039.2,-368.75 1033.2,-374.75 1027.2,-374.75 1027.2,-374.75 869.2,-374.75 869.2,-374.75 863.2,-374.75 857.2,-368.75 857.2,-362.75 857.2,-362.75 857.2,-252.5 857.2,-252.5 857.2,-246.5 863.2,-240.5 869.2,-240.5"/>
<text xml:space="preserve" text-anchor="middle" x="948.2" y="-357.45" font-family="Arial" font-size="14.00">L3 — Enterprise Integration</text>
</g>
<!-- L6a -->
<g id="node1" class="node">
<title>L6a</title>
<path fill="#bbdefb" stroke="black" d="M283.4,-343C283.4,-343 149,-343 149,-343 143,-343 137,-337 137,-331 137,-331 137,-319 137,-319 137,-313 143,-307 149,-307 149,-307 283.4,-307 283.4,-307 289.4,-307 295.4,-313 295.4,-319 295.4,-319 295.4,-331 295.4,-331 295.4,-337 289.4,-343 283.4,-343"/>
<text xml:space="preserve" text-anchor="middle" x="216.2" y="-326.95" font-family="Arial" font-size="9.00">Streamlit UI</text>
<text xml:space="preserve" text-anchor="middle" x="216.2" y="-316.45" font-family="Arial" font-size="9.00">ui/app.py</text>
</g>
<!-- L5a -->
<g id="node5" class="node">
<title>L5a</title>
<path fill="#e1bee7" stroke="black" d="M283.4,-258.5C283.4,-258.5 149,-258.5 149,-258.5 143,-258.5 137,-252.5 137,-246.5 137,-246.5 137,-234.5 137,-234.5 137,-228.5 143,-222.5 149,-222.5 149,-222.5 283.4,-222.5 283.4,-222.5 289.4,-222.5 295.4,-228.5 295.4,-234.5 295.4,-234.5 295.4,-246.5 295.4,-246.5 295.4,-252.5 289.4,-258.5 283.4,-258.5"/>
<text xml:space="preserve" text-anchor="middle" x="216.2" y="-242.45" font-family="Arial" font-size="9.00">LangGraph Agent</text>
<text xml:space="preserve" text-anchor="middle" x="216.2" y="-231.95" font-family="Arial" font-size="9.00">agents/diagnosis_graph.py</text>
</g>
<!-- L6a&#45;&gt;L5a -->
<g id="edge1" class="edge">
<title>L6a&#45;&gt;L5a</title>
<path fill="none" stroke="#666666" stroke-dasharray="5,2" d="M216.2,-306.5C216.2,-296 216.2,-282.39 216.2,-270.33"/>
<polygon fill="#666666" stroke="#666666" points="219.7,-270.48 216.2,-260.48 212.7,-270.48 219.7,-270.48"/>
<text xml:space="preserve" text-anchor="middle" x="234.57" y="-277.7" font-family="Times,serif" font-size="14.00">invoke</text>
</g>
<!-- L6b -->
<g id="node2" class="node">
<title>L6b</title>
<path fill="#bbdefb" stroke="black" d="M466.4,-343C466.4,-343 332,-343 332,-343 326,-343 320,-337 320,-331 320,-331 320,-319 320,-319 320,-313 326,-307 332,-307 332,-307 466.4,-307 466.4,-307 472.4,-307 478.4,-313 478.4,-319 478.4,-319 478.4,-331 478.4,-331 478.4,-337 472.4,-343 466.4,-343"/>
<text xml:space="preserve" text-anchor="middle" x="399.2" y="-326.95" font-family="Arial" font-size="9.00">REST API</text>
<text xml:space="preserve" text-anchor="middle" x="399.2" y="-316.45" font-family="Arial" font-size="9.00">api/main.py</text>
</g>
<!-- L6b&#45;&gt;L5a -->
<g id="edge2" class="edge">
<title>L6b&#45;&gt;L5a</title>
<path fill="none" stroke="#666666" stroke-dasharray="5,2" d="M360.39,-306.5C332.61,-293.98 295,-277.02 265.16,-263.57"/>
<polygon fill="#666666" stroke="#666666" points="266.89,-260.51 256.33,-259.59 264.01,-266.89 266.89,-260.51"/>
</g>
<!-- L5b -->
<g id="node6" class="node">
<title>L5b</title>
<path fill="#e1bee7" stroke="black" d="M489.4,-258.5C489.4,-258.5 355,-258.5 355,-258.5 349,-258.5 343,-252.5 343,-246.5 343,-246.5 343,-234.5 343,-234.5 343,-228.5 349,-222.5 355,-222.5 355,-222.5 489.4,-222.5 489.4,-222.5 495.4,-222.5 501.4,-228.5 501.4,-234.5 501.4,-234.5 501.4,-246.5 501.4,-246.5 501.4,-252.5 495.4,-258.5 489.4,-258.5"/>
<text xml:space="preserve" text-anchor="middle" x="422.2" y="-242.45" font-family="Arial" font-size="9.00">Claims Workflow</text>
<text xml:space="preserve" text-anchor="middle" x="422.2" y="-231.95" font-family="Arial" font-size="9.00">integrations/claims_workflow.py</text>
</g>
<!-- L6b&#45;&gt;L5b -->
<g id="edge3" class="edge">
<title>L6b&#45;&gt;L5b</title>
<path fill="none" stroke="#666666" stroke-dasharray="5,2" d="M404.08,-306.5C407.04,-295.89 410.88,-282.1 414.27,-269.96"/>
<polygon fill="#666666" stroke="#666666" points="417.61,-271 416.92,-260.43 410.87,-269.12 417.61,-271"/>
</g>
<!-- L6c -->
<g id="node3" class="node">
<title>L6c</title>
<path fill="#bbdefb" stroke="black" d="M649.4,-343C649.4,-343 515,-343 515,-343 509,-343 503,-337 503,-331 503,-331 503,-319 503,-319 503,-313 509,-307 515,-307 515,-307 649.4,-307 649.4,-307 655.4,-307 661.4,-313 661.4,-319 661.4,-319 661.4,-331 661.4,-331 661.4,-337 655.4,-343 649.4,-343"/>
<text xml:space="preserve" text-anchor="middle" x="582.2" y="-326.95" font-family="Arial" font-size="9.00">Agent Dashboard</text>
<text xml:space="preserve" text-anchor="middle" x="582.2" y="-316.45" font-family="Arial" font-size="9.00">Claims · Escalations</text>
</g>
<!-- L6d -->
<g id="node4" class="node">
<title>L6d</title>
<path fill="#bbdefb" stroke="black" d="M832.4,-343C832.4,-343 698,-343 698,-343 692,-343 686,-337 686,-331 686,-331 686,-319 686,-319 686,-313 692,-307 698,-307 698,-307 832.4,-307 832.4,-307 838.4,-307 844.4,-313 844.4,-319 844.4,-319 844.4,-331 844.4,-331 844.4,-337 838.4,-343 832.4,-343"/>
<text xml:space="preserve" text-anchor="middle" x="765.2" y="-326.95" font-family="Arial" font-size="9.00">KG Explorer</text>
<text xml:space="preserve" text-anchor="middle" x="765.2" y="-316.45" font-family="Arial" font-size="9.00">PyVis graphs</text>
</g>
<!-- L4a -->
<g id="node9" class="node">
<title>L4a</title>
<path fill="#ffe0b2" stroke="black" d="M146.4,-189.5C146.4,-189.5 12,-189.5 12,-189.5 6,-189.5 0,-183.5 0,-177.5 0,-177.5 0,-165.5 0,-165.5 0,-159.5 6,-153.5 12,-153.5 12,-153.5 146.4,-153.5 146.4,-153.5 152.4,-153.5 158.4,-159.5 158.4,-165.5 158.4,-165.5 158.4,-177.5 158.4,-177.5 158.4,-183.5 152.4,-189.5 146.4,-189.5"/>
<text xml:space="preserve" text-anchor="middle" x="79.2" y="-173.45" font-family="Arial" font-size="9.00">GraphRAG</text>
<text xml:space="preserve" text-anchor="middle" x="79.2" y="-162.95" font-family="Arial" font-size="9.00">graph/graph_rag.py</text>
</g>
<!-- L5a&#45;&gt;L4a -->
<g id="edge4" class="edge">
<title>L5a&#45;&gt;L4a</title>
<path fill="none" stroke="#666666" stroke-dasharray="5,2" d="M180.56,-222.07C163.6,-213.77 143.1,-203.75 125,-194.9"/>
<polygon fill="#666666" stroke="#666666" points="126.54,-191.76 116.02,-190.51 123.46,-198.04 126.54,-191.76"/>
</g>
<!-- L4c -->
<g id="node11" class="node">
<title>L4c</title>
<path fill="#ffe0b2" stroke="black" d="M512.4,-189.5C512.4,-189.5 378,-189.5 378,-189.5 372,-189.5 366,-183.5 366,-177.5 366,-177.5 366,-165.5 366,-165.5 366,-159.5 372,-153.5 378,-153.5 378,-153.5 512.4,-153.5 512.4,-153.5 518.4,-153.5 524.4,-159.5 524.4,-165.5 524.4,-165.5 524.4,-177.5 524.4,-177.5 524.4,-183.5 518.4,-189.5 512.4,-189.5"/>
<text xml:space="preserve" text-anchor="middle" x="445.2" y="-173.45" font-family="Arial" font-size="9.00">Parts Predictor</text>
<text xml:space="preserve" text-anchor="middle" x="445.2" y="-162.95" font-family="Arial" font-size="9.00">graph/parts_predictor.py</text>
</g>
<!-- L5b&#45;&gt;L4c -->
<g id="edge5" class="edge">
<title>L5b&#45;&gt;L4c</title>
<path fill="none" stroke="#666666" stroke-dasharray="5,2" d="M428.12,-222.25C430.39,-215.65 433.03,-207.96 435.55,-200.61"/>
<polygon fill="#666666" stroke="#666666" points="438.79,-201.95 438.73,-191.36 432.17,-199.68 438.79,-201.95"/>
</g>
<!-- L5c -->
<g id="node7" class="node">
<title>L5c</title>
<path fill="#e1bee7" stroke="black" d="M672.4,-258.5C672.4,-258.5 538,-258.5 538,-258.5 532,-258.5 526,-252.5 526,-246.5 526,-246.5 526,-234.5 526,-234.5 526,-228.5 532,-222.5 538,-222.5 538,-222.5 672.4,-222.5 672.4,-222.5 678.4,-222.5 684.4,-228.5 684.4,-234.5 684.4,-234.5 684.4,-246.5 684.4,-246.5 684.4,-252.5 678.4,-258.5 672.4,-258.5"/>
<text xml:space="preserve" text-anchor="middle" x="605.2" y="-242.45" font-family="Arial" font-size="9.00">Case Management</text>
<text xml:space="preserve" text-anchor="middle" x="605.2" y="-231.95" font-family="Arial" font-size="9.00">integrations/case_management.py</text>
</g>
<!-- L5d -->
<g id="node8" class="node">
<title>L5d</title>
<path fill="#e1bee7" stroke="black" d="M855.4,-258.5C855.4,-258.5 721,-258.5 721,-258.5 715,-258.5 709,-252.5 709,-246.5 709,-246.5 709,-234.5 709,-234.5 709,-228.5 715,-222.5 721,-222.5 721,-222.5 855.4,-222.5 855.4,-222.5 861.4,-222.5 867.4,-228.5 867.4,-234.5 867.4,-234.5 867.4,-246.5 867.4,-246.5 867.4,-252.5 861.4,-258.5 855.4,-258.5"/>
<text xml:space="preserve" text-anchor="middle" x="788.2" y="-242.45" font-family="Arial" font-size="9.00">Warranty Gate</text>
<text xml:space="preserve" text-anchor="middle" x="788.2" y="-231.95" font-family="Arial" font-size="9.00">warranty_eligibility.py</text>
</g>
<!-- L2a -->
<g id="node19" class="node">
<title>L2a</title>
<path fill="#c8e6c9" stroke="black" d="M366.4,-32.73C366.4,-34.53 330.9,-36 287.2,-36 243.5,-36 208,-34.53 208,-32.73 208,-32.73 208,-3.27 208,-3.27 208,-1.47 243.5,0 287.2,0 330.9,0 366.4,-1.47 366.4,-3.27 366.4,-3.27 366.4,-32.73 366.4,-32.73"/>
<path fill="none" stroke="black" d="M366.4,-32.73C366.4,-30.92 330.9,-29.45 287.2,-29.45 243.5,-29.45 208,-30.92 208,-32.73"/>
<text xml:space="preserve" text-anchor="middle" x="287.2" y="-19.95" font-family="Arial" font-size="9.00">Neo4j</text>
<text xml:space="preserve" text-anchor="middle" x="287.2" y="-9.45" font-family="Arial" font-size="9.00">Bolt :7687</text>
</g>
<!-- L4a&#45;&gt;L2a -->
<g id="edge6" class="edge">
<title>L4a&#45;&gt;L2a</title>
<path fill="none" stroke="#666666" stroke-dasharray="5,2" d="M101.18,-153.19C128.61,-130.35 171.95,-94.25 171.95,-94.25 171.95,-94.25 216.43,-64.82 250.13,-42.53"/>
<polygon fill="#666666" stroke="#666666" points="251.63,-45.73 258.04,-37.29 247.77,-39.89 251.63,-45.73"/>
<text xml:space="preserve" text-anchor="middle" x="152.07" y="-97.45" font-family="Times,serif" font-size="14.00">Cypher</text>
</g>
<!-- L4b -->
<g id="node10" class="node">
<title>L4b</title>
<path fill="#ffe0b2" stroke="black" d="M329.4,-189.5C329.4,-189.5 195,-189.5 195,-189.5 189,-189.5 183,-183.5 183,-177.5 183,-177.5 183,-165.5 183,-165.5 183,-159.5 189,-153.5 195,-153.5 195,-153.5 329.4,-153.5 329.4,-153.5 335.4,-153.5 341.4,-159.5 341.4,-165.5 341.4,-165.5 341.4,-177.5 341.4,-177.5 341.4,-183.5 335.4,-189.5 329.4,-189.5"/>
<text xml:space="preserve" text-anchor="middle" x="262.2" y="-173.45" font-family="Arial" font-size="9.00">Diagnostic Engine</text>
<text xml:space="preserve" text-anchor="middle" x="262.2" y="-162.95" font-family="Arial" font-size="9.00">graph/diagnostic_engine.py</text>
</g>
<!-- L4b&#45;&gt;L2a -->
<g id="edge7" class="edge">
<title>L4b&#45;&gt;L2a</title>
<path fill="none" stroke="#666666" stroke-dasharray="5,2" d="M265.17,-153.29C269.43,-127.09 277.35,-78.5 282.44,-47.24"/>
<polygon fill="#666666" stroke="#666666" points="285.84,-48.11 283.99,-37.68 278.93,-46.99 285.84,-48.11"/>
</g>
<!-- L4c&#45;&gt;L2a -->
<g id="edge8" class="edge">
<title>L4c&#45;&gt;L2a</title>
<path fill="none" stroke="#666666" stroke-dasharray="5,2" d="M426.45,-153.29C398.54,-126.17 345.92,-75.04 313.96,-44"/>
<polygon fill="#666666" stroke="#666666" points="316.62,-41.7 307.01,-37.24 311.74,-46.72 316.62,-41.7"/>
</g>
<!-- L4d -->
<g id="node12" class="node">
<title>L4d</title>
<path fill="#ffe0b2" stroke="black" d="M954.4,-189.5C954.4,-189.5 820,-189.5 820,-189.5 814,-189.5 808,-183.5 808,-177.5 808,-177.5 808,-165.5 808,-165.5 808,-159.5 814,-153.5 820,-153.5 820,-153.5 954.4,-153.5 954.4,-153.5 960.4,-153.5 966.4,-159.5 966.4,-165.5 966.4,-165.5 966.4,-177.5 966.4,-177.5 966.4,-183.5 960.4,-189.5 954.4,-189.5"/>
<text xml:space="preserve" text-anchor="middle" x="887.2" y="-173.45" font-family="Arial" font-size="9.00">Graph Visualization</text>
<text xml:space="preserve" text-anchor="middle" x="887.2" y="-162.95" font-family="Arial" font-size="9.00">graph/graph_visualization.py</text>
</g>
<!-- L3a -->
<g id="node13" class="node">
<title>L3a</title>
<path fill="#b2ebf2" stroke="black" d="M812.4,-120.5C812.4,-120.5 678,-120.5 678,-120.5 672,-120.5 666,-114.5 666,-108.5 666,-108.5 666,-96.5 666,-96.5 666,-90.5 672,-84.5 678,-84.5 678,-84.5 812.4,-84.5 812.4,-84.5 818.4,-84.5 824.4,-90.5 824.4,-96.5 824.4,-96.5 824.4,-108.5 824.4,-108.5 824.4,-114.5 818.4,-120.5 812.4,-120.5"/>
<text xml:space="preserve" text-anchor="middle" x="745.2" y="-104.45" font-family="Arial" font-size="9.00">CRM Enrichment</text>
<text xml:space="preserve" text-anchor="middle" x="745.2" y="-93.95" font-family="Arial" font-size="9.00">crm_enrichment.py</text>
</g>
<!-- L3f -->
<g id="node18" class="node">
<title>L3f</title>
<path fill="#b2ebf2" stroke="black" d="M1029.4,-120.5C1029.4,-120.5 895,-120.5 895,-120.5 889,-120.5 883,-114.5 883,-108.5 883,-108.5 883,-96.5 883,-96.5 883,-90.5 889,-84.5 895,-84.5 895,-84.5 1029.4,-84.5 1029.4,-84.5 1035.4,-84.5 1041.4,-90.5 1041.4,-96.5 1041.4,-96.5 1041.4,-108.5 1041.4,-108.5 1041.4,-114.5 1035.4,-120.5 1029.4,-120.5"/>
<text xml:space="preserve" text-anchor="middle" x="962.2" y="-104.45" font-family="Arial" font-size="9.00">Mock Enterprise API</text>
<text xml:space="preserve" text-anchor="middle" x="962.2" y="-93.95" font-family="Arial" font-size="9.00">simulation/mock_enterprise_apps.py</text>
</g>
<!-- L3a&#45;&gt;L3f -->
<g id="edge9" class="edge">
<title>L3a&#45;&gt;L3f</title>
<path fill="none" stroke="#666666" stroke-dasharray="5,2" d="M824.77,-102.5C839.95,-102.5 855.95,-102.5 871.46,-102.5"/>
<polygon fill="#666666" stroke="#666666" points="871.13,-106 881.13,-102.5 871.13,-99 871.13,-106"/>
<text xml:space="preserve" text-anchor="middle" x="853.7" y="-108.7" font-family="Times,serif" font-size="14.00">HTTP</text>
</g>
<!-- L3b -->
<g id="node14" class="node">
<title>L3b</title>
<path fill="#b2ebf2" stroke="black" d="M1212.4,-120.5C1212.4,-120.5 1078,-120.5 1078,-120.5 1072,-120.5 1066,-114.5 1066,-108.5 1066,-108.5 1066,-96.5 1066,-96.5 1066,-90.5 1072,-84.5 1078,-84.5 1078,-84.5 1212.4,-84.5 1212.4,-84.5 1218.4,-84.5 1224.4,-90.5 1224.4,-96.5 1224.4,-96.5 1224.4,-108.5 1224.4,-108.5 1224.4,-114.5 1218.4,-120.5 1212.4,-120.5"/>
<text xml:space="preserve" text-anchor="middle" x="1145.2" y="-104.45" font-family="Arial" font-size="9.00">PIM Connector</text>
<text xml:space="preserve" text-anchor="middle" x="1145.2" y="-93.95" font-family="Arial" font-size="9.00">pim_connector.py</text>
</g>
<!-- L3c -->
<g id="node15" class="node">
<title>L3c</title>
<path fill="#b2ebf2" stroke="black" d="M1395.4,-120.5C1395.4,-120.5 1261,-120.5 1261,-120.5 1255,-120.5 1249,-114.5 1249,-108.5 1249,-108.5 1249,-96.5 1249,-96.5 1249,-90.5 1255,-84.5 1261,-84.5 1261,-84.5 1395.4,-84.5 1395.4,-84.5 1401.4,-84.5 1407.4,-90.5 1407.4,-96.5 1407.4,-96.5 1407.4,-108.5 1407.4,-108.5 1407.4,-114.5 1401.4,-120.5 1395.4,-120.5"/>
<text xml:space="preserve" text-anchor="middle" x="1328.2" y="-104.45" font-family="Arial" font-size="9.00">CRM Connector</text>
<text xml:space="preserve" text-anchor="middle" x="1328.2" y="-93.95" font-family="Arial" font-size="9.00">crm_connector.py</text>
</g>
<!-- L3d -->
<g id="node16" class="node">
<title>L3d</title>
<path fill="#b2ebf2" stroke="black" d="M1578.4,-120.5C1578.4,-120.5 1444,-120.5 1444,-120.5 1438,-120.5 1432,-114.5 1432,-108.5 1432,-108.5 1432,-96.5 1432,-96.5 1432,-90.5 1438,-84.5 1444,-84.5 1444,-84.5 1578.4,-84.5 1578.4,-84.5 1584.4,-84.5 1590.4,-90.5 1590.4,-96.5 1590.4,-96.5 1590.4,-108.5 1590.4,-108.5 1590.4,-114.5 1584.4,-120.5 1578.4,-120.5"/>
<text xml:space="preserve" text-anchor="middle" x="1511.2" y="-104.45" font-family="Arial" font-size="9.00">Claims Connector</text>
<text xml:space="preserve" text-anchor="middle" x="1511.2" y="-93.95" font-family="Arial" font-size="9.00">claims_connector.py</text>
</g>
<!-- L3e -->
<g id="node17" class="node">
<title>L3e</title>
<path fill="#b2ebf2" stroke="black" d="M1015.4,-343C1015.4,-343 881,-343 881,-343 875,-343 869,-337 869,-331 869,-331 869,-319 869,-319 869,-313 875,-307 881,-307 881,-307 1015.4,-307 1015.4,-307 1021.4,-307 1027.4,-313 1027.4,-319 1027.4,-319 1027.4,-331 1027.4,-331 1027.4,-337 1021.4,-343 1015.4,-343"/>
<text xml:space="preserve" text-anchor="middle" x="948.2" y="-326.95" font-family="Arial" font-size="9.00">FSM Connector</text>
<text xml:space="preserve" text-anchor="middle" x="948.2" y="-316.45" font-family="Arial" font-size="9.00">fsm_connector.py</text>
</g>
<!-- L2b -->
<g id="node20" class="node">
<title>L2b</title>
<path fill="#c8e6c9" stroke="black" d="M629.4,-120.5C629.4,-120.5 495,-120.5 495,-120.5 489,-120.5 483,-114.5 483,-108.5 483,-108.5 483,-96.5 483,-96.5 483,-90.5 489,-84.5 495,-84.5 495,-84.5 629.4,-84.5 629.4,-84.5 635.4,-84.5 641.4,-90.5 641.4,-96.5 641.4,-96.5 641.4,-108.5 641.4,-108.5 641.4,-114.5 635.4,-120.5 629.4,-120.5"/>
<text xml:space="preserve" text-anchor="middle" x="562.2" y="-104.45" font-family="Arial" font-size="9.00">Graph Loader</text>
<text xml:space="preserve" text-anchor="middle" x="562.2" y="-93.95" font-family="Arial" font-size="9.00">populate_graph.py</text>
</g>
<!-- L2b&#45;&gt;L2a -->
<g id="edge12" class="edge">
<title>L2b&#45;&gt;L2a</title>
<path fill="none" stroke="#666666" stroke-dasharray="5,2" d="M503.88,-84C460.18,-70.9 400.3,-52.93 354.56,-39.21"/>
<polygon fill="#666666" stroke="#666666" points="355.59,-35.86 345.01,-36.34 353.58,-42.57 355.59,-35.86"/>
<text xml:space="preserve" text-anchor="middle" x="475.25" y="-55.2" font-family="Times,serif" font-size="14.00">MERGE</text>
</g>
<!-- L2c -->
<g id="node21" class="node">
<title>L2c</title>
<path fill="#c8e6c9" stroke="black" d="M1761.4,-120.5C1761.4,-120.5 1627,-120.5 1627,-120.5 1621,-120.5 1615,-114.5 1615,-108.5 1615,-108.5 1615,-96.5 1615,-96.5 1615,-90.5 1621,-84.5 1627,-84.5 1627,-84.5 1761.4,-84.5 1761.4,-84.5 1767.4,-84.5 1773.4,-90.5 1773.4,-96.5 1773.4,-96.5 1773.4,-108.5 1773.4,-108.5 1773.4,-114.5 1767.4,-120.5 1761.4,-120.5"/>
<text xml:space="preserve" text-anchor="middle" x="1694.2" y="-104.45" font-family="Arial" font-size="9.00">Neo4j Client</text>
<text xml:space="preserve" text-anchor="middle" x="1694.2" y="-93.95" font-family="Arial" font-size="9.00">neo4j_client.py</text>
</g>
<!-- L2d -->
<g id="node22" class="node">
<title>L2d</title>
<path fill="#c8e6c9" stroke="black" d="M1944.4,-120.5C1944.4,-120.5 1810,-120.5 1810,-120.5 1804,-120.5 1798,-114.5 1798,-108.5 1798,-108.5 1798,-96.5 1798,-96.5 1798,-90.5 1804,-84.5 1810,-84.5 1810,-84.5 1944.4,-84.5 1944.4,-84.5 1950.4,-84.5 1956.4,-90.5 1956.4,-96.5 1956.4,-96.5 1956.4,-108.5 1956.4,-108.5 1956.4,-114.5 1950.4,-120.5 1944.4,-120.5"/>
<text xml:space="preserve" text-anchor="middle" x="1877.2" y="-104.45" font-family="Arial" font-size="9.00">Provenance</text>
<text xml:space="preserve" text-anchor="middle" x="1877.2" y="-93.95" font-family="Arial" font-size="9.00">provenance.py</text>
</g>
<!-- L1a -->
<g id="node23" class="node">
<title>L1a</title>
<path fill="#d7ccc8" stroke="black" d="M1395.4,-189.5C1395.4,-189.5 1261,-189.5 1261,-189.5 1255,-189.5 1249,-183.5 1249,-177.5 1249,-177.5 1249,-165.5 1249,-165.5 1249,-159.5 1255,-153.5 1261,-153.5 1261,-153.5 1395.4,-153.5 1395.4,-153.5 1401.4,-153.5 1407.4,-159.5 1407.4,-165.5 1407.4,-165.5 1407.4,-177.5 1407.4,-177.5 1407.4,-183.5 1401.4,-189.5 1395.4,-189.5"/>
<text xml:space="preserve" text-anchor="middle" x="1328.2" y="-173.45" font-family="Arial" font-size="9.00">OEM Catalog</text>
<text xml:space="preserve" text-anchor="middle" x="1328.2" y="-162.95" font-family="Arial" font-size="9.00">oem_product_catalog.py</text>
</g>
<!-- L1b -->
<g id="node24" class="node">
<title>L1b</title>
<path fill="#d7ccc8" stroke="black" d="M1578.4,-189.5C1578.4,-189.5 1444,-189.5 1444,-189.5 1438,-189.5 1432,-183.5 1432,-177.5 1432,-177.5 1432,-165.5 1432,-165.5 1432,-159.5 1438,-153.5 1444,-153.5 1444,-153.5 1578.4,-153.5 1578.4,-153.5 1584.4,-153.5 1590.4,-159.5 1590.4,-165.5 1590.4,-165.5 1590.4,-177.5 1590.4,-177.5 1590.4,-183.5 1584.4,-189.5 1578.4,-189.5"/>
<text xml:space="preserve" text-anchor="middle" x="1511.2" y="-173.45" font-family="Arial" font-size="9.00">PIM Blueprint Sync</text>
<text xml:space="preserve" text-anchor="middle" x="1511.2" y="-162.95" font-family="Arial" font-size="9.00">pim_blueprint_sync.py</text>
</g>
<!-- L1c -->
<g id="node25" class="node">
<title>L1c</title>
<path fill="#d7ccc8" stroke="black" d="M695.4,-189.5C695.4,-189.5 561,-189.5 561,-189.5 555,-189.5 549,-183.5 549,-177.5 549,-177.5 549,-165.5 549,-165.5 549,-159.5 555,-153.5 561,-153.5 561,-153.5 695.4,-153.5 695.4,-153.5 701.4,-153.5 707.4,-159.5 707.4,-165.5 707.4,-165.5 707.4,-177.5 707.4,-177.5 707.4,-183.5 701.4,-189.5 695.4,-189.5"/>
<text xml:space="preserve" text-anchor="middle" x="628.2" y="-173.45" font-family="Arial" font-size="9.00">Ontology Builder</text>
<text xml:space="preserve" text-anchor="middle" x="628.2" y="-162.95" font-family="Arial" font-size="9.00">ontology_builder.py</text>
</g>
<!-- L1c&#45;&gt;L2b -->
<g id="edge11" class="edge">
<title>L1c&#45;&gt;L2b</title>
<path fill="none" stroke="#666666" stroke-dasharray="5,2" d="M611.2,-153.25C603.95,-145.88 595.33,-137.13 587.36,-129.04"/>
<polygon fill="#666666" stroke="#666666" points="589.94,-126.67 580.43,-122.01 584.95,-131.59 589.94,-126.67"/>
</g>
<!-- L1d -->
<g id="node26" class="node">
<title>L1d</title>
<path fill="#d7ccc8" stroke="black" d="M1212.4,-189.5C1212.4,-189.5 1078,-189.5 1078,-189.5 1072,-189.5 1066,-183.5 1066,-177.5 1066,-177.5 1066,-165.5 1066,-165.5 1066,-159.5 1072,-153.5 1078,-153.5 1078,-153.5 1212.4,-153.5 1212.4,-153.5 1218.4,-153.5 1224.4,-159.5 1224.4,-165.5 1224.4,-165.5 1224.4,-177.5 1224.4,-177.5 1224.4,-183.5 1218.4,-189.5 1212.4,-189.5"/>
<text xml:space="preserve" text-anchor="middle" x="1145.2" y="-173.45" font-family="Arial" font-size="9.00">ETL Orchestrator</text>
<text xml:space="preserve" text-anchor="middle" x="1145.2" y="-162.95" font-family="Arial" font-size="9.00">orchestrator.py</text>
</g>
<!-- L1d&#45;&gt;L3b -->
<g id="edge10" class="edge">
<title>L1d&#45;&gt;L3b</title>
<path fill="none" stroke="#666666" stroke-dasharray="5,2" d="M1145.2,-153.25C1145.2,-146.89 1145.2,-139.5 1145.2,-132.39"/>
<polygon fill="#666666" stroke="#666666" points="1148.7,-132.44 1145.2,-122.44 1141.7,-132.44 1148.7,-132.44"/>
</g>
<!-- L1e -->
<g id="node27" class="node">
<title>L1e</title>
<polygon fill="#d7ccc8" stroke="black" points="1773.4,-189.5 1770.4,-193.5 1749.4,-193.5 1746.4,-189.5 1615,-189.5 1615,-153.5 1773.4,-153.5 1773.4,-189.5"/>
<text xml:space="preserve" text-anchor="middle" x="1694.2" y="-173.45" font-family="Arial" font-size="9.00">JSON Fixtures</text>
<text xml:space="preserve" text-anchor="middle" x="1694.2" y="-162.95" font-family="Arial" font-size="9.00">data/enterprise_sources/</text>
</g>
<!-- L1f -->
<g id="node28" class="node">
<title>L1f</title>
<path fill="#d7ccc8" stroke="black" d="M1944.4,-189.5C1944.4,-189.5 1810,-189.5 1810,-189.5 1804,-189.5 1798,-183.5 1798,-177.5 1798,-177.5 1798,-165.5 1798,-165.5 1798,-159.5 1804,-153.5 1810,-153.5 1810,-153.5 1944.4,-153.5 1944.4,-153.5 1950.4,-153.5 1956.4,-159.5 1956.4,-165.5 1956.4,-165.5 1956.4,-177.5 1956.4,-177.5 1956.4,-183.5 1950.4,-189.5 1944.4,-189.5"/>
<text xml:space="preserve" text-anchor="middle" x="1877.2" y="-173.45" font-family="Arial" font-size="9.00">Lineage Audit</text>
<text xml:space="preserve" text-anchor="middle" x="1877.2" y="-162.95" font-family="Arial" font-size="9.00">utils/lineage_store.py</text>
</g>
</g>
</svg>
