<?xml version="1.0" encoding="UTF-8" standalone="no"?>
<!DOCTYPE svg PUBLIC "-//W3C//DTD SVG 1.1//EN"
 "http://www.w3.org/Graphics/SVG/1.1/DTD/svg11.dtd">
<!-- Generated by graphviz version 14.1.5 (20260411.2331)
 -->
<!-- Title: EndToEndPipelineIO Pages: 1 -->
<svg width="531pt" height="1760pt"
 viewBox="0.00 0.00 531.00 1760.00" xmlns="http://www.w3.org/2000/svg" xmlns:xlink="http://www.w3.org/1999/xlink">
<g id="graph0" class="graph" transform="scale(1 1) rotate(0) translate(4 1755.59)">
<title>EndToEndPipelineIO</title>
<polygon fill="white" stroke="none" points="-4,4 -4,-1755.59 527,-1755.59 527,4 -4,4"/>
<text xml:space="preserve" text-anchor="middle" x="261.5" y="-1735.24" font-family="Arial" font-size="13.00">End&#45;to&#45;End Pipeline — Blueprint → Knowledge Graph → Diagnosis → Claim</text>
<text xml:space="preserve" text-anchor="middle" x="261.5" y="-1720.24" font-family="Arial" font-size="13.00">(Inputs · Outputs · File Formats · Tools)</text>
<g id="clust1" class="cluster">
<title>cluster_phase0</title>
<polygon fill="white" stroke="#5d4037" points="139,-1396.84 139,-1705.59 421,-1705.59 421,-1396.84 139,-1396.84"/>
<text xml:space="preserve" text-anchor="middle" x="280" y="-1689.24" font-family="Arial" font-size="13.00">Phase 0 — OEM Blueprint Authoring (offline)</text>
</g>
<g id="clust2" class="cluster">
<title>cluster_phase1</title>
<polygon fill="white" stroke="#f57c00" points="127,-1227.34 127,-1377.84 418,-1377.84 418,-1227.34 127,-1227.34"/>
<text xml:space="preserve" text-anchor="middle" x="272.5" y="-1361.49" font-family="Arial" font-size="13.00">Phase 1 — Fixture Sync</text>
</g>
<g id="clust3" class="cluster">
<title>cluster_phase2</title>
<polygon fill="white" stroke="#2e7d32" points="13,-815.59 13,-1208.34 345,-1208.34 345,-815.59 13,-815.59"/>
<text xml:space="preserve" text-anchor="middle" x="179" y="-1191.99" font-family="Arial" font-size="13.00">Phase 2 — Enterprise ETL (batch)</text>
</g>
<g id="clust4" class="cluster">
<title>cluster_phase3</title>
<polygon fill="white" stroke="#1565c0" points="8,-608.97 8,-796.59 212,-796.59 212,-608.97 8,-608.97"/>
<text xml:space="preserve" text-anchor="middle" x="110" y="-780.24" font-family="Arial" font-size="13.00">Phase 3 — Neo4j Graph Load</text>
</g>
<g id="clust5" class="cluster">
<title>cluster_phase4</title>
<polygon fill="white" stroke="#6a1b9a" points="220,-275.47 220,-791.72 418,-791.72 418,-275.47 220,-275.47"/>
<text xml:space="preserve" text-anchor="middle" x="319" y="-775.37" font-family="Arial" font-size="13.00">Phase 4 — Runtime Diagnosis</text>
</g>
<g id="clust6" class="cluster">
<title>cluster_phase5</title>
<polygon fill="white" stroke="#00838f" points="115,-8 115,-256.47 515,-256.47 515,-8 115,-8"/>
<text xml:space="preserve" text-anchor="middle" x="315" y="-240.12" font-family="Arial" font-size="13.00">Phase 5 — Warranty &amp; Claim</text>
</g>
<!-- P0_IN -->
<g id="node1" class="node">
<title>P0_IN</title>
<path fill="#efebe9" stroke="black" d="M323.88,-1674.59C323.88,-1674.59 220.12,-1674.59 220.12,-1674.59 214.12,-1674.59 208.12,-1668.59 208.12,-1662.59 208.12,-1662.59 208.12,-1649.34 208.12,-1649.34 208.12,-1643.34 214.12,-1637.34 220.12,-1637.34 220.12,-1637.34 323.88,-1637.34 323.88,-1637.34 329.88,-1637.34 335.88,-1643.34 335.88,-1649.34 335.88,-1649.34 335.88,-1662.59 335.88,-1662.59 335.88,-1668.59 329.88,-1674.59 323.88,-1674.59"/>
<text xml:space="preserve" text-anchor="middle" x="272" y="-1662.99" font-family="Arial" font-size="8.00">INPUT</text>
<text xml:space="preserve" text-anchor="middle" x="272" y="-1653.24" font-family="Arial" font-size="8.00">Public OEM support docs</text>
<text xml:space="preserve" text-anchor="middle" x="272" y="-1643.49" font-family="Arial" font-size="8.00">(error codes · service manuals)</text>
</g>
<!-- P0_TOOL -->
<g id="node2" class="node">
<title>P0_TOOL</title>
<path fill="#ffd966" stroke="black" d="M323.5,-1600.34C323.5,-1600.34 220.5,-1600.34 220.5,-1600.34 214.5,-1600.34 208.5,-1594.34 208.5,-1588.34 208.5,-1588.34 208.5,-1575.09 208.5,-1575.09 208.5,-1569.09 214.5,-1563.09 220.5,-1563.09 220.5,-1563.09 323.5,-1563.09 323.5,-1563.09 329.5,-1563.09 335.5,-1569.09 335.5,-1575.09 335.5,-1575.09 335.5,-1588.34 335.5,-1588.34 335.5,-1594.34 329.5,-1600.34 323.5,-1600.34"/>
<text xml:space="preserve" text-anchor="middle" x="272" y="-1588.74" font-family="Arial" font-size="8.00">TOOL</text>
<text xml:space="preserve" text-anchor="middle" x="272" y="-1578.99" font-family="Arial" font-size="8.00">graph/oem_product_catalog.py</text>
<text xml:space="preserve" text-anchor="middle" x="272" y="-1569.24" font-family="Arial" font-size="8.00">10 OEM builders + 3 legacy</text>
</g>
<!-- P0_IN&#45;&gt;P0_TOOL -->
<g id="edge1" class="edge">
<title>P0_IN&#45;&gt;P0_TOOL</title>
<path fill="none" stroke="#2e75b6" d="M272,-1636.85C272,-1636.85 272,-1612.29 272,-1612.29"/>
<polygon fill="#2e75b6" stroke="#2e75b6" points="275.5,-1612.29 272,-1602.29 268.5,-1612.29 275.5,-1612.29"/>
</g>
<!-- P0_EXT -->
<g id="node3" class="node">
<title>P0_EXT</title>
<path fill="#ffd966" stroke="black" d="M342.62,-1526.09C342.62,-1526.09 201.38,-1526.09 201.38,-1526.09 195.38,-1526.09 189.38,-1520.09 189.38,-1514.09 189.38,-1514.09 189.38,-1500.84 189.38,-1500.84 189.38,-1494.84 195.38,-1488.84 201.38,-1488.84 201.38,-1488.84 342.62,-1488.84 342.62,-1488.84 348.62,-1488.84 354.62,-1494.84 354.62,-1500.84 354.62,-1500.84 354.62,-1514.09 354.62,-1514.09 354.62,-1520.09 348.62,-1526.09 342.62,-1526.09"/>
<text xml:space="preserve" text-anchor="middle" x="272" y="-1514.49" font-family="Arial" font-size="8.00">TOOL</text>
<text xml:space="preserve" text-anchor="middle" x="272" y="-1504.74" font-family="Arial" font-size="8.00">graph/warranty_catalog_extensions.py</text>
<text xml:space="preserve" text-anchor="middle" x="272" y="-1494.99" font-family="Arial" font-size="8.00">Model · SKU · Component · Asset · Claim</text>
</g>
<!-- P0_TOOL&#45;&gt;P0_EXT -->
<g id="edge2" class="edge">
<title>P0_TOOL&#45;&gt;P0_EXT</title>
<path fill="none" stroke="#2e75b6" d="M272,-1562.6C272,-1562.6 272,-1538.04 272,-1538.04"/>
<polygon fill="#2e75b6" stroke="#2e75b6" points="275.5,-1538.04 272,-1528.04 268.5,-1538.04 275.5,-1538.04"/>
</g>
<!-- P0_OUT -->
<g id="node4" class="node">
<title>P0_OUT</title>
<path fill="#fff2cc" stroke="black" d="M328,-1451.84C328,-1451.84 216,-1451.84 216,-1451.84 210,-1451.84 204,-1445.84 204,-1439.84 204,-1439.84 204,-1416.84 204,-1416.84 204,-1410.84 210,-1404.84 216,-1404.84 216,-1404.84 328,-1404.84 328,-1404.84 334,-1404.84 340,-1410.84 340,-1416.84 340,-1416.84 340,-1439.84 340,-1439.84 340,-1445.84 334,-1451.84 328,-1451.84"/>
<text xml:space="preserve" text-anchor="middle" x="272" y="-1440.24" font-family="Arial" font-size="8.00">OUTPUT (in&#45;memory dict)</text>
<text xml:space="preserve" text-anchor="middle" x="272" y="-1430.49" font-family="Arial" font-size="8.00">products[] with nested:</text>
<text xml:space="preserve" text-anchor="middle" x="272" y="-1420.74" font-family="Arial" font-size="8.00">symptoms · failure_modes · steps</text>
<text xml:space="preserve" text-anchor="middle" x="272" y="-1410.99" font-family="Arial" font-size="8.00">parts · error_codes · trees</text>
</g>
<!-- P0_EXT&#45;&gt;P0_OUT -->
<g id="edge3" class="edge">
<title>P0_EXT&#45;&gt;P0_OUT</title>
<path fill="none" stroke="#2e75b6" d="M272,-1488.72C272,-1488.72 272,-1463.58 272,-1463.58"/>
<polygon fill="#2e75b6" stroke="#2e75b6" points="275.5,-1463.58 272,-1453.58 268.5,-1463.58 275.5,-1463.58"/>
</g>
<!-- P1_TOOL -->
<g id="node5" class="node">
<title>P1_TOOL</title>
<path fill="#ffe0b2" stroke="black" d="M391.75,-1346.84C391.75,-1346.84 152.25,-1346.84 152.25,-1346.84 146.25,-1346.84 140.25,-1340.84 140.25,-1334.84 140.25,-1334.84 140.25,-1321.59 140.25,-1321.59 140.25,-1315.59 146.25,-1309.59 152.25,-1309.59 152.25,-1309.59 391.75,-1309.59 391.75,-1309.59 397.75,-1309.59 403.75,-1315.59 403.75,-1321.59 403.75,-1321.59 403.75,-1334.84 403.75,-1334.84 403.75,-1340.84 397.75,-1346.84 391.75,-1346.84"/>
<text xml:space="preserve" text-anchor="middle" x="272" y="-1335.24" font-family="Arial" font-size="8.00">TOOL</text>
<text xml:space="preserve" text-anchor="middle" x="272" y="-1325.49" font-family="Arial" font-size="8.00">pim_blueprint_sync.py</text>
<text xml:space="preserve" text-anchor="middle" x="272" y="-1315.74" font-family="Arial" font-size="8.00">python &#45;m graph.enterprise_pipeline.transformers.pim_blueprint_sync</text>
</g>
<!-- P0_OUT&#45;&gt;P1_TOOL -->
<g id="edge4" class="edge">
<title>P0_OUT&#45;&gt;P1_TOOL</title>
<path fill="none" stroke="#2e75b6" d="M272,-1404.36C272,-1404.36 272,-1358.83 272,-1358.83"/>
<polygon fill="#2e75b6" stroke="#2e75b6" points="275.5,-1358.83 272,-1348.83 268.5,-1358.83 275.5,-1358.83"/>
</g>
<!-- P1_OUT1 -->
<g id="node6" class="node">
<title>P1_OUT1</title>
<polygon fill="#fff8e1" stroke="black" points="244.5,-1272.59 135.5,-1272.59 135.5,-1235.34 250.5,-1235.34 250.5,-1266.59 244.5,-1272.59"/>
<polyline fill="none" stroke="black" points="244.5,-1272.59 244.5,-1266.59"/>
<polyline fill="none" stroke="black" points="250.5,-1266.59 244.5,-1266.59"/>
<text xml:space="preserve" text-anchor="middle" x="193" y="-1260.99" font-family="Arial" font-size="8.00">OUTPUT JSON</text>
<text xml:space="preserve" text-anchor="middle" x="193" y="-1251.24" font-family="Arial" font-size="8.00">pim_catalog.json</text>
<text xml:space="preserve" text-anchor="middle" x="193" y="-1241.49" font-family="Arial" font-size="8.00">{source_system, products[]}</text>
</g>
<!-- P1_TOOL&#45;&gt;P1_OUT1 -->
<g id="edge5" class="edge">
<title>P1_TOOL&#45;&gt;P1_OUT1</title>
<path fill="none" stroke="#2e75b6" d="M195.38,-1309.1C195.38,-1309.1 195.38,-1284.54 195.38,-1284.54"/>
<polygon fill="#2e75b6" stroke="#2e75b6" points="198.88,-1284.54 195.38,-1274.54 191.88,-1284.54 198.88,-1284.54"/>
</g>
<!-- P1_OUT2 -->
<g id="node7" class="node">
<title>P1_OUT2</title>
<polygon fill="#fff8e1" stroke="black" points="403.62,-1272.59 268.38,-1272.59 268.38,-1235.34 409.62,-1235.34 409.62,-1266.59 403.62,-1272.59"/>
<polyline fill="none" stroke="black" points="403.62,-1272.59 403.62,-1266.59"/>
<polyline fill="none" stroke="black" points="409.62,-1266.59 403.62,-1266.59"/>
<text xml:space="preserve" text-anchor="middle" x="339" y="-1260.99" font-family="Arial" font-size="8.00">OUTPUT JSON</text>
<text xml:space="preserve" text-anchor="middle" x="339" y="-1251.24" font-family="Arial" font-size="8.00">enterprise_knowledge_catalog.json</text>
<text xml:space="preserve" text-anchor="middle" x="339" y="-1241.49" font-family="Arial" font-size="8.00">+ assets · claims · policies</text>
</g>
<!-- P1_TOOL&#45;&gt;P1_OUT2 -->
<g id="edge6" class="edge">
<title>P1_TOOL&#45;&gt;P1_OUT2</title>
<path fill="none" stroke="#2e75b6" d="M336.06,-1309.1C336.06,-1309.1 336.06,-1284.54 336.06,-1284.54"/>
<polygon fill="#2e75b6" stroke="#2e75b6" points="339.56,-1284.54 336.06,-1274.54 332.56,-1284.54 339.56,-1284.54"/>
</g>
<!-- P2_IN -->
<g id="node8" class="node">
<title>P2_IN</title>
<polygon fill="#e8f5e9" stroke="black" points="240.38,-1177.34 237.38,-1181.34 216.38,-1181.34 213.38,-1177.34 145.62,-1177.34 145.62,-1120.59 240.38,-1120.59 240.38,-1177.34"/>
<text xml:space="preserve" text-anchor="middle" x="193" y="-1165.74" font-family="Arial" font-size="8.00">INPUT JSON fixtures</text>
<text xml:space="preserve" text-anchor="middle" x="193" y="-1155.99" font-family="Arial" font-size="8.00">pim_catalog.json</text>
<text xml:space="preserve" text-anchor="middle" x="193" y="-1146.24" font-family="Arial" font-size="8.00">crm_assets.json</text>
<text xml:space="preserve" text-anchor="middle" x="193" y="-1136.49" font-family="Arial" font-size="8.00">claims_history.json</text>
<text xml:space="preserve" text-anchor="middle" x="193" y="-1126.74" font-family="Arial" font-size="8.00">fsm_work_orders.json</text>
</g>
<!-- P1_OUT1&#45;&gt;P2_IN -->
<g id="edge7" class="edge">
<title>P1_OUT1&#45;&gt;P2_IN</title>
<path fill="none" stroke="#2e75b6" d="M193,-1235.2C193,-1235.2 193,-1188.98 193,-1188.98"/>
<polygon fill="#2e75b6" stroke="#2e75b6" points="196.5,-1188.98 193,-1178.98 189.5,-1188.98 196.5,-1188.98"/>
</g>
<!-- P2_CONN -->
<g id="node9" class="node">
<title>P2_CONN</title>
<path fill="#c8e6c9" stroke="black" d="M261.38,-1083.59C261.38,-1083.59 124.62,-1083.59 124.62,-1083.59 118.62,-1083.59 112.62,-1077.59 112.62,-1071.59 112.62,-1071.59 112.62,-1058.34 112.62,-1058.34 112.62,-1052.34 118.62,-1046.34 124.62,-1046.34 124.62,-1046.34 261.38,-1046.34 261.38,-1046.34 267.38,-1046.34 273.38,-1052.34 273.38,-1058.34 273.38,-1058.34 273.38,-1071.59 273.38,-1071.59 273.38,-1077.59 267.38,-1083.59 261.38,-1083.59"/>
<text xml:space="preserve" text-anchor="middle" x="193" y="-1071.99" font-family="Arial" font-size="8.00">CONNECTORS</text>
<text xml:space="preserve" text-anchor="middle" x="193" y="-1062.24" font-family="Arial" font-size="8.00">pim · crm · claims · fsm_connector.py</text>
<text xml:space="preserve" text-anchor="middle" x="193" y="-1052.49" font-family="Arial" font-size="8.00">HTTP → mock :8090 OR fixture_fallback</text>
</g>
<!-- P2_IN&#45;&gt;P2_CONN -->
<g id="edge8" class="edge">
<title>P2_IN&#45;&gt;P2_CONN</title>
<path fill="none" stroke="#2e75b6" d="M193,-1120.53C193,-1120.53 193,-1095.38 193,-1095.38"/>
<polygon fill="#2e75b6" stroke="#2e75b6" points="196.5,-1095.38 193,-1085.38 189.5,-1095.38 196.5,-1095.38"/>
</g>
<!-- P2_ETL -->
<g id="node10" class="node">
<title>P2_ETL</title>
<path fill="#a5d6a7" stroke="black" d="M265.5,-1009.34C265.5,-1009.34 120.5,-1009.34 120.5,-1009.34 114.5,-1009.34 108.5,-1003.34 108.5,-997.34 108.5,-997.34 108.5,-984.09 108.5,-984.09 108.5,-978.09 114.5,-972.09 120.5,-972.09 120.5,-972.09 265.5,-972.09 265.5,-972.09 271.5,-972.09 277.5,-978.09 277.5,-984.09 277.5,-984.09 277.5,-997.34 277.5,-997.34 277.5,-1003.34 271.5,-1009.34 265.5,-1009.34"/>
<text xml:space="preserve" text-anchor="middle" x="193" y="-997.74" font-family="Arial" font-size="8.00">TOOL</text>
<text xml:space="preserve" text-anchor="middle" x="193" y="-987.99" font-family="Arial" font-size="8.00">pipelines/knowledge_etl.py</text>
<text xml:space="preserve" text-anchor="middle" x="193" y="-978.24" font-family="Arial" font-size="8.00">+ orchestrator.py (ETL→smoke→promote)</text>
</g>
<!-- P2_CONN&#45;&gt;P2_ETL -->
<g id="edge9" class="edge">
<title>P2_CONN&#45;&gt;P2_ETL</title>
<path fill="none" stroke="#2e75b6" d="M193,-1045.85C193,-1045.85 193,-1021.29 193,-1021.29"/>
<polygon fill="#2e75b6" stroke="#2e75b6" points="196.5,-1021.29 193,-1011.29 189.5,-1021.29 196.5,-1021.29"/>
</g>
<!-- P2_OB -->
<g id="node11" class="node">
<title>P2_OB</title>
<path fill="#a5d6a7" stroke="black" d="M187,-935.09C187,-935.09 33,-935.09 33,-935.09 27,-935.09 21,-929.09 21,-923.09 21,-923.09 21,-909.84 21,-909.84 21,-903.84 27,-897.84 33,-897.84 33,-897.84 187,-897.84 187,-897.84 193,-897.84 199,-903.84 199,-909.84 199,-909.84 199,-923.09 199,-923.09 199,-929.09 193,-935.09 187,-935.09"/>
<text xml:space="preserve" text-anchor="middle" x="110" y="-923.49" font-family="Arial" font-size="8.00">TOOL</text>
<text xml:space="preserve" text-anchor="middle" x="110" y="-913.74" font-family="Arial" font-size="8.00">transformers/ontology_builder.py</text>
<text xml:space="preserve" text-anchor="middle" x="110" y="-903.99" font-family="Arial" font-size="8.00">merge PIM+FSM+Claims → validated catalog</text>
</g>
<!-- P2_ETL&#45;&gt;P2_OB -->
<g id="edge10" class="edge">
<title>P2_ETL&#45;&gt;P2_OB</title>
<path fill="none" stroke="#2e75b6" d="M153.75,-971.6C153.75,-971.6 153.75,-947.04 153.75,-947.04"/>
<polygon fill="#2e75b6" stroke="#2e75b6" points="157.25,-947.04 153.75,-937.04 150.25,-947.04 157.25,-947.04"/>
</g>
<!-- P2_LINE -->
<g id="node13" class="node">
<title>P2_LINE</title>
<polygon fill="#fafafa" stroke="black" points="331.12,-934.47 216.88,-934.47 216.88,-898.47 337.12,-898.47 337.12,-928.47 331.12,-934.47"/>
<polyline fill="none" stroke="black" points="331.12,-934.47 331.12,-928.47"/>
<polyline fill="none" stroke="black" points="337.12,-928.47 331.12,-928.47"/>
<text xml:space="preserve" text-anchor="middle" x="277" y="-918.62" font-family="Arial" font-size="8.00">OUTPUT JSONL</text>
<text xml:space="preserve" text-anchor="middle" x="277" y="-908.87" font-family="Arial" font-size="8.00">data/lineage/etl_batches.jsonl</text>
</g>
<!-- P2_ETL&#45;&gt;P2_LINE -->
<g id="edge12" class="edge">
<title>P2_ETL&#45;&gt;P2_LINE</title>
<path fill="none" stroke="#2e75b6" d="M247.19,-971.6C247.19,-971.6 247.19,-946.27 247.19,-946.27"/>
<polygon fill="#2e75b6" stroke="#2e75b6" points="250.69,-946.27 247.19,-936.27 243.69,-946.27 250.69,-946.27"/>
</g>
<!-- P2_OUT -->
<g id="node12" class="node">
<title>P2_OUT</title>
<polygon fill="#fff8e1" stroke="black" points="182.5,-860.84 31.5,-860.84 31.5,-823.59 188.5,-823.59 188.5,-854.84 182.5,-860.84"/>
<polyline fill="none" stroke="black" points="182.5,-860.84 182.5,-854.84"/>
<polyline fill="none" stroke="black" points="188.5,-854.84 182.5,-854.84"/>
<text xml:space="preserve" text-anchor="middle" x="110" y="-849.24" font-family="Arial" font-size="8.00">OUTPUT JSON</text>
<text xml:space="preserve" text-anchor="middle" x="110" y="-839.49" font-family="Arial" font-size="8.00">synthetic_diagnosis_data.json</text>
<text xml:space="preserve" text-anchor="middle" x="110" y="-829.74" font-family="Arial" font-size="8.00">{products[], provenance{}, etl_batch_id}</text>
</g>
<!-- P2_OB&#45;&gt;P2_OUT -->
<g id="edge11" class="edge">
<title>P2_OB&#45;&gt;P2_OUT</title>
<path fill="none" stroke="#2e75b6" d="M110,-897.35C110,-897.35 110,-872.79 110,-872.79"/>
<polygon fill="#2e75b6" stroke="#2e75b6" points="113.5,-872.79 110,-862.79 106.5,-872.79 113.5,-872.79"/>
</g>
<!-- P3_TOOL -->
<g id="node14" class="node">
<title>P3_TOOL</title>
<path fill="#90caf9" stroke="black" d="M159.25,-765.59C159.25,-765.59 60.75,-765.59 60.75,-765.59 54.75,-765.59 48.75,-759.59 48.75,-753.59 48.75,-753.59 48.75,-730.59 48.75,-730.59 48.75,-724.59 54.75,-718.59 60.75,-718.59 60.75,-718.59 159.25,-718.59 159.25,-718.59 165.25,-718.59 171.25,-724.59 171.25,-730.59 171.25,-730.59 171.25,-753.59 171.25,-753.59 171.25,-759.59 165.25,-765.59 159.25,-765.59"/>
<text xml:space="preserve" text-anchor="middle" x="110" y="-753.99" font-family="Arial" font-size="8.00">TOOL</text>
<text xml:space="preserve" text-anchor="middle" x="110" y="-744.24" font-family="Arial" font-size="8.00">graph/populate_graph.py</text>
<text xml:space="preserve" text-anchor="middle" x="110" y="-734.49" font-family="Arial" font-size="8.00">MERGE nodes + relationships</text>
<text xml:space="preserve" text-anchor="middle" x="110" y="-724.74" font-family="Arial" font-size="8.00">+ constraints</text>
</g>
<!-- P2_OUT&#45;&gt;P3_TOOL -->
<g id="edge13" class="edge">
<title>P2_OUT&#45;&gt;P3_TOOL</title>
<path fill="none" stroke="#2e75b6" d="M110,-823.39C110,-823.39 110,-777.3 110,-777.3"/>
<polygon fill="#2e75b6" stroke="#2e75b6" points="113.5,-777.3 110,-767.3 106.5,-777.3 113.5,-777.3"/>
</g>
<!-- P3_OUT -->
<g id="node15" class="node">
<title>P3_OUT</title>
<path fill="#e3f2fd" stroke="black" d="M204.25,-675.72C204.25,-678.96 162.01,-681.59 110,-681.59 57.99,-681.59 15.75,-678.96 15.75,-675.72 15.75,-675.72 15.75,-622.84 15.75,-622.84 15.75,-619.6 57.99,-616.97 110,-616.97 162.01,-616.97 204.25,-619.6 204.25,-622.84 204.25,-622.84 204.25,-675.72 204.25,-675.72"/>
<path fill="none" stroke="black" d="M204.25,-675.72C204.25,-672.48 162.01,-669.84 110,-669.84 57.99,-669.84 15.75,-672.48 15.75,-675.72"/>
<text xml:space="preserve" text-anchor="middle" x="110" y="-661.18" font-family="Arial" font-size="8.00">OUTPUT</text>
<text xml:space="preserve" text-anchor="middle" x="110" y="-651.43" font-family="Arial" font-size="8.00">Neo4j graph (Bolt)</text>
<text xml:space="preserve" text-anchor="middle" x="110" y="-641.68" font-family="Arial" font-size="8.00">13 products · 8 assets</text>
<text xml:space="preserve" text-anchor="middle" x="110" y="-631.93" font-family="Arial" font-size="8.00">INDICATES · NEXT_STEP · REQUIRES_PART</text>
</g>
<!-- P3_TOOL&#45;&gt;P3_OUT -->
<g id="edge14" class="edge">
<title>P3_TOOL&#45;&gt;P3_OUT</title>
<path fill="none" stroke="#2e75b6" d="M110,-718.19C110,-718.19 110,-693.36 110,-693.36"/>
<polygon fill="#2e75b6" stroke="#2e75b6" points="113.5,-693.36 110,-683.36 106.5,-693.36 113.5,-693.36"/>
</g>
<!-- P4_RAG -->
<g id="node18" class="node">
<title>P4_RAG</title>
<path fill="#e1bee7" stroke="black" d="M347.62,-572.72C347.62,-572.72 248.38,-572.72 248.38,-572.72 242.38,-572.72 236.38,-566.72 236.38,-560.72 236.38,-560.72 236.38,-537.72 236.38,-537.72 236.38,-531.72 242.38,-525.72 248.38,-525.72 248.38,-525.72 347.62,-525.72 347.62,-525.72 353.62,-525.72 359.62,-531.72 359.62,-537.72 359.62,-537.72 359.62,-560.72 359.62,-560.72 359.62,-566.72 353.62,-572.72 347.62,-572.72"/>
<text xml:space="preserve" text-anchor="middle" x="298" y="-561.12" font-family="Arial" font-size="8.00">TOOL</text>
<text xml:space="preserve" text-anchor="middle" x="298" y="-551.37" font-family="Arial" font-size="8.00">graph/graph_rag.py</text>
<text xml:space="preserve" text-anchor="middle" x="298" y="-541.62" font-family="Arial" font-size="8.00">diagnose() — symptom match</text>
<text xml:space="preserve" text-anchor="middle" x="298" y="-531.87" font-family="Arial" font-size="8.00">rank failure modes</text>
</g>
<!-- P3_OUT&#45;&gt;P4_RAG -->
<g id="edge17" class="edge">
<title>P3_OUT&#45;&gt;P4_RAG</title>
<path fill="none" stroke="#2e75b6" stroke-dasharray="5,2" d="M163.62,-616.72C163.62,-587.44 163.62,-549 163.62,-549 163.62,-549 224.41,-549 224.41,-549"/>
<polygon fill="#2e75b6" stroke="#2e75b6" points="224.41,-552.5 234.41,-549 224.41,-545.5 224.41,-552.5"/>
<text xml:space="preserve" text-anchor="middle" x="201.12" y="-592.32" font-family="Arial" font-size="7.00">Cypher read</text>
</g>
<!-- P4_IN -->
<g id="node16" class="node">
<title>P4_IN</title>
<path fill="#f3e5f5" stroke="black" d="M348.75,-760.72C348.75,-760.72 247.25,-760.72 247.25,-760.72 241.25,-760.72 235.25,-754.72 235.25,-748.72 235.25,-748.72 235.25,-735.47 235.25,-735.47 235.25,-729.47 241.25,-723.47 247.25,-723.47 247.25,-723.47 348.75,-723.47 348.75,-723.47 354.75,-723.47 360.75,-729.47 360.75,-735.47 360.75,-735.47 360.75,-748.72 360.75,-748.72 360.75,-754.72 354.75,-760.72 348.75,-760.72"/>
<text xml:space="preserve" text-anchor="middle" x="298" y="-749.12" font-family="Arial" font-size="8.00">INPUT</text>
<text xml:space="preserve" text-anchor="middle" x="298" y="-739.37" font-family="Arial" font-size="8.00">user message (text)</text>
<text xml:space="preserve" text-anchor="middle" x="298" y="-729.62" font-family="Arial" font-size="8.00">product_id / asset_id (optional)</text>
</g>
<!-- P4_CRM -->
<g id="node17" class="node">
<title>P4_CRM</title>
<path fill="#e1bee7" stroke="black" d="M349.88,-667.91C349.88,-667.91 246.12,-667.91 246.12,-667.91 240.12,-667.91 234.12,-661.91 234.12,-655.91 234.12,-655.91 234.12,-642.66 234.12,-642.66 234.12,-636.66 240.12,-630.66 246.12,-630.66 246.12,-630.66 349.88,-630.66 349.88,-630.66 355.88,-630.66 361.88,-636.66 361.88,-642.66 361.88,-642.66 361.88,-655.91 361.88,-655.91 361.88,-661.91 355.88,-667.91 349.88,-667.91"/>
<text xml:space="preserve" text-anchor="middle" x="298" y="-656.31" font-family="Arial" font-size="8.00">TOOL</text>
<text xml:space="preserve" text-anchor="middle" x="298" y="-646.56" font-family="Arial" font-size="8.00">integrations/crm_enrichment.py</text>
<text xml:space="preserve" text-anchor="middle" x="298" y="-636.81" font-family="Arial" font-size="8.00">bind asset → product · SKU</text>
</g>
<!-- P4_IN&#45;&gt;P4_CRM -->
<g id="edge15" class="edge">
<title>P4_IN&#45;&gt;P4_CRM</title>
<path fill="none" stroke="#2e75b6" d="M298,-723.31C298,-723.31 298,-679.87 298,-679.87"/>
<polygon fill="#2e75b6" stroke="#2e75b6" points="301.5,-679.87 298,-669.87 294.5,-679.87 301.5,-679.87"/>
</g>
<!-- P4_CRM&#45;&gt;P4_RAG -->
<g id="edge16" class="edge">
<title>P4_CRM&#45;&gt;P4_RAG</title>
<path fill="none" stroke="#2e75b6" d="M298,-630.46C298,-630.46 298,-584.41 298,-584.41"/>
<polygon fill="#2e75b6" stroke="#2e75b6" points="301.5,-584.41 298,-574.41 294.5,-584.41 301.5,-584.41"/>
</g>
<!-- P4_DE -->
<g id="node19" class="node">
<title>P4_DE</title>
<path fill="#e1bee7" stroke="black" d="M347.75,-488.72C347.75,-488.72 258.25,-488.72 258.25,-488.72 252.25,-488.72 246.25,-482.72 246.25,-476.72 246.25,-476.72 246.25,-463.47 246.25,-463.47 246.25,-457.47 252.25,-451.47 258.25,-451.47 258.25,-451.47 347.75,-451.47 347.75,-451.47 353.75,-451.47 359.75,-457.47 359.75,-463.47 359.75,-463.47 359.75,-476.72 359.75,-476.72 359.75,-482.72 353.75,-488.72 347.75,-488.72"/>
<text xml:space="preserve" text-anchor="middle" x="303" y="-477.12" font-family="Arial" font-size="8.00">TOOL</text>
<text xml:space="preserve" text-anchor="middle" x="303" y="-467.37" font-family="Arial" font-size="8.00">graph/diagnostic_engine.py</text>
<text xml:space="preserve" text-anchor="middle" x="303" y="-457.62" font-family="Arial" font-size="8.00">NEXT_STEP tree traversal</text>
</g>
<!-- P4_RAG&#45;&gt;P4_DE -->
<g id="edge18" class="edge">
<title>P4_RAG&#45;&gt;P4_DE</title>
<path fill="none" stroke="#2e75b6" d="M302.94,-525.48C302.94,-525.48 302.94,-500.56 302.94,-500.56"/>
<polygon fill="#2e75b6" stroke="#2e75b6" points="306.44,-500.56 302.94,-490.56 299.44,-500.56 306.44,-500.56"/>
</g>
<!-- P4_PP -->
<g id="node20" class="node">
<title>P4_PP</title>
<path fill="#e1bee7" stroke="black" d="M375.38,-414.47C375.38,-414.47 244.62,-414.47 244.62,-414.47 238.62,-414.47 232.62,-408.47 232.62,-402.47 232.62,-402.47 232.62,-389.22 232.62,-389.22 232.62,-383.22 238.62,-377.22 244.62,-377.22 244.62,-377.22 375.38,-377.22 375.38,-377.22 381.38,-377.22 387.38,-383.22 387.38,-389.22 387.38,-389.22 387.38,-402.47 387.38,-402.47 387.38,-408.47 381.38,-414.47 375.38,-414.47"/>
<text xml:space="preserve" text-anchor="middle" x="310" y="-402.87" font-family="Arial" font-size="8.00">TOOL</text>
<text xml:space="preserve" text-anchor="middle" x="310" y="-393.12" font-family="Arial" font-size="8.00">graph/parts_predictor.py</text>
<text xml:space="preserve" text-anchor="middle" x="310" y="-383.37" font-family="Arial" font-size="8.00">REQUIRES_PART + BOM + precedent</text>
</g>
<!-- P4_DE&#45;&gt;P4_PP -->
<g id="edge19" class="edge">
<title>P4_DE&#45;&gt;P4_PP</title>
<path fill="none" stroke="#2e75b6" d="M303,-450.97C303,-450.97 303,-426.41 303,-426.41"/>
<polygon fill="#2e75b6" stroke="#2e75b6" points="306.5,-426.41 303,-416.41 299.5,-426.41 306.5,-426.41"/>
</g>
<!-- P4_OUT -->
<g id="node21" class="node">
<title>P4_OUT</title>
<polygon fill="#fff8e1" stroke="black" points="396.12,-340.22 227.88,-340.22 227.88,-283.47 402.12,-283.47 402.12,-334.22 396.12,-340.22"/>
<polyline fill="none" stroke="black" points="396.12,-340.22 396.12,-334.22"/>
<polyline fill="none" stroke="black" points="402.12,-334.22 396.12,-334.22"/>
<text xml:space="preserve" text-anchor="middle" x="315" y="-328.62" font-family="Arial" font-size="8.00">OUTPUT JSON</text>
<text xml:space="preserve" text-anchor="middle" x="315" y="-318.87" font-family="Arial" font-size="8.00">DiagnosisResult / API response</text>
<text xml:space="preserve" text-anchor="middle" x="315" y="-309.12" font-family="Arial" font-size="8.00">matched_symptoms · ranked_failure_modes</text>
<text xml:space="preserve" text-anchor="middle" x="315" y="-299.37" font-family="Arial" font-size="8.00">predicted_parts · diagnostic_tree</text>
<text xml:space="preserve" text-anchor="middle" x="315" y="-289.62" font-family="Arial" font-size="8.00">confidence · provenance_trail</text>
</g>
<!-- P4_PP&#45;&gt;P4_OUT -->
<g id="edge20" class="edge">
<title>P4_PP&#45;&gt;P4_OUT</title>
<path fill="none" stroke="#2e75b6" d="M310,-376.78C310,-376.78 310,-351.91 310,-351.91"/>
<polygon fill="#2e75b6" stroke="#2e75b6" points="313.5,-351.91 310,-341.91 306.5,-351.91 313.5,-351.91"/>
</g>
<!-- P5_W -->
<g id="node22" class="node">
<title>P5_W</title>
<path fill="#b2ebf2" stroke="black" d="M370.25,-225.47C370.25,-225.47 259.75,-225.47 259.75,-225.47 253.75,-225.47 247.75,-219.47 247.75,-213.47 247.75,-213.47 247.75,-200.22 247.75,-200.22 247.75,-194.22 253.75,-188.22 259.75,-188.22 259.75,-188.22 370.25,-188.22 370.25,-188.22 376.25,-188.22 382.25,-194.22 382.25,-200.22 382.25,-200.22 382.25,-213.47 382.25,-213.47 382.25,-219.47 376.25,-225.47 370.25,-225.47"/>
<text xml:space="preserve" text-anchor="middle" x="315" y="-213.87" font-family="Arial" font-size="8.00">TOOL</text>
<text xml:space="preserve" text-anchor="middle" x="315" y="-204.12" font-family="Arial" font-size="8.00">integrations/warranty_eligibility.py</text>
<text xml:space="preserve" text-anchor="middle" x="315" y="-194.37" font-family="Arial" font-size="8.00">policy + asset check</text>
</g>
<!-- P4_OUT&#45;&gt;P5_W -->
<g id="edge21" class="edge">
<title>P4_OUT&#45;&gt;P5_W</title>
<path fill="none" stroke="#2e75b6" d="M315,-283.15C315,-283.15 315,-237.4 315,-237.4"/>
<polygon fill="#2e75b6" stroke="#2e75b6" points="318.5,-237.4 315,-227.4 311.5,-237.4 318.5,-237.4"/>
</g>
<!-- P5_C -->
<g id="node23" class="node">
<title>P5_C</title>
<path fill="#b2ebf2" stroke="black" d="M366.5,-151.22C366.5,-151.22 263.5,-151.22 263.5,-151.22 257.5,-151.22 251.5,-145.22 251.5,-139.22 251.5,-139.22 251.5,-116.22 251.5,-116.22 251.5,-110.22 257.5,-104.22 263.5,-104.22 263.5,-104.22 366.5,-104.22 366.5,-104.22 372.5,-104.22 378.5,-110.22 378.5,-116.22 378.5,-116.22 378.5,-139.22 378.5,-139.22 378.5,-145.22 372.5,-151.22 366.5,-151.22"/>
<text xml:space="preserve" text-anchor="middle" x="315" y="-139.62" font-family="Arial" font-size="8.00">TOOL</text>
<text xml:space="preserve" text-anchor="middle" x="315" y="-129.87" font-family="Arial" font-size="8.00">integrations/claims_workflow.py</text>
<text xml:space="preserve" text-anchor="middle" x="315" y="-120.12" font-family="Arial" font-size="8.00">submit_claim_from_diagnosis()</text>
<text xml:space="preserve" text-anchor="middle" x="315" y="-110.37" font-family="Arial" font-size="8.00">update_claim_status()</text>
</g>
<!-- P5_W&#45;&gt;P5_C -->
<g id="edge22" class="edge">
<title>P5_W&#45;&gt;P5_C</title>
<path fill="none" stroke="#2e75b6" d="M315,-188.09C315,-188.09 315,-162.96 315,-162.96"/>
<polygon fill="#2e75b6" stroke="#2e75b6" points="318.5,-162.96 315,-152.96 311.5,-162.96 318.5,-162.96"/>
</g>
<!-- P5_OUT1 -->
<g id="node24" class="node">
<title>P5_OUT1</title>
<polygon fill="#fff8e1" stroke="black" points="307,-59.61 123,-59.61 123,-23.61 313,-23.61 313,-53.61 307,-59.61"/>
<polyline fill="none" stroke="black" points="307,-59.61 307,-53.61"/>
<polyline fill="none" stroke="black" points="313,-53.61 307,-53.61"/>
<text xml:space="preserve" text-anchor="middle" x="218" y="-43.76" font-family="Arial" font-size="8.00">OUTPUT JSON</text>
<text xml:space="preserve" text-anchor="middle" x="218" y="-34.01" font-family="Arial" font-size="8.00">data/enterprise_sources/claims_submissions.json</text>
</g>
<!-- P5_C&#45;&gt;P5_OUT1 -->
<g id="edge23" class="edge">
<title>P5_C&#45;&gt;P5_OUT1</title>
<path fill="none" stroke="#2e75b6" d="M282.25,-103.73C282.25,-103.73 282.25,-71.52 282.25,-71.52"/>
<polygon fill="#2e75b6" stroke="#2e75b6" points="285.75,-71.52 282.25,-61.52 278.75,-71.52 285.75,-71.52"/>
</g>
<!-- P5_OUT2 -->
<g id="node25" class="node">
<title>P5_OUT2</title>
<path fill="#e0f7fa" stroke="black" d="M506.88,-62.56C506.88,-65.13 467.49,-67.22 419,-67.22 370.51,-67.22 331.12,-65.13 331.12,-62.56 331.12,-62.56 331.12,-20.66 331.12,-20.66 331.12,-18.09 370.51,-16 419,-16 467.49,-16 506.88,-18.09 506.88,-20.66 506.88,-20.66 506.88,-62.56 506.88,-62.56"/>
<path fill="none" stroke="black" d="M506.88,-62.56C506.88,-59.99 467.49,-57.91 419,-57.91 370.51,-57.91 331.12,-59.99 331.12,-62.56"/>
<text xml:space="preserve" text-anchor="middle" x="419" y="-48.63" font-family="Arial" font-size="8.00">OUTPUT Neo4j</text>
<text xml:space="preserve" text-anchor="middle" x="419" y="-38.88" font-family="Arial" font-size="8.00">Claim node MERGE</text>
<text xml:space="preserve" text-anchor="middle" x="419" y="-29.13" font-family="Arial" font-size="8.00">FOR_ASSET · CONFIRMED · USED_PART</text>
</g>
<!-- P5_C&#45;&gt;P5_OUT2 -->
<g id="edge24" class="edge">
<title>P5_C&#45;&gt;P5_OUT2</title>
<path fill="none" stroke="#2e75b6" d="M354.81,-103.73C354.81,-103.73 354.81,-78.18 354.81,-78.18"/>
<polygon fill="#2e75b6" stroke="#2e75b6" points="358.31,-78.18 354.81,-68.18 351.31,-78.18 358.31,-78.18"/>
</g>
</g>
</svg>
