<?xml version="1.0" encoding="UTF-8" standalone="no"?>
<!DOCTYPE svg PUBLIC "-//W3C//DTD SVG 1.1//EN"
 "http://www.w3.org/Graphics/SVG/1.1/DTD/svg11.dtd">
<!-- Generated by graphviz version 14.1.5 (20260411.2331)
 -->
<!-- Title: ModuleCatalog Pages: 1 -->
<svg width="1288pt" height="660pt"
 viewBox="0.00 0.00 1288.00 660.00" xmlns="http://www.w3.org/2000/svg" xmlns:xlink="http://www.w3.org/1999/xlink">
<g id="graph0" class="graph" transform="scale(1 1) rotate(0) translate(4 656)">
<title>ModuleCatalog</title>
<polygon fill="white" stroke="none" points="-4,4 -4,-656 1284,-656 1284,4 -4,4"/>
<text xml:space="preserve" text-anchor="middle" x="640" y="-635.65" font-family="Arial" font-size="13.00">Module Catalog — Files &amp; Tools by Responsibility</text>
<text xml:space="preserve" text-anchor="middle" x="640" y="-620.65" font-family="Arial" font-size="13.00">(Key modules + supporting files)</text>
<g id="clust1" class="cluster">
<title>cluster_blueprint</title>
<polygon fill="white" stroke="#5d4037" points="8,-113 8,-307 429.5,-307 429.5,-113 8,-113"/>
<text xml:space="preserve" text-anchor="middle" x="218.75" y="-290.65" font-family="Arial" font-size="13.00">Blueprint &amp; Ontology</text>
</g>
<g id="clust2" class="cluster">
<title>cluster_etl</title>
<polygon fill="white" stroke="#2e7d32" points="449.5,-62 449.5,-515 639,-515 639,-62 449.5,-62"/>
<text xml:space="preserve" text-anchor="middle" x="544.25" y="-498.65" font-family="Arial" font-size="13.00">ETL &amp; Connectors</text>
</g>
<g id="clust3" class="cluster">
<title>cluster_graph</title>
<polygon fill="white" stroke="#1565c0" points="659,-116 659,-299 830.5,-299 830.5,-116 659,-116"/>
<text xml:space="preserve" text-anchor="middle" x="744.75" y="-282.65" font-family="Arial" font-size="13.00">Graph Store &amp; Load</text>
</g>
<g id="clust4" class="cluster">
<title>cluster_intel</title>
<polygon fill="white" stroke="#e65100" points="850.5,-116 850.5,-353 1044.5,-353 1044.5,-116 850.5,-116"/>
<text xml:space="preserve" text-anchor="middle" x="947.5" y="-336.65" font-family="Arial" font-size="13.00">Diagnosis Intelligence</text>
</g>
<g id="clust5" class="cluster">
<title>cluster_runtime</title>
<polygon fill="white" stroke="#00838f" points="1064.5,-8 1064.5,-299 1272,-299 1272,-8 1064.5,-8"/>
<text xml:space="preserve" text-anchor="middle" x="1168.25" y="-282.65" font-family="Arial" font-size="13.00">Runtime Integration &amp; Claims</text>
</g>
<g id="clust6" class="cluster">
<title>cluster_app</title>
<polygon fill="white" stroke="#6a1b9a" points="19.25,-315 19.25,-606 208.75,-606 208.75,-315 19.25,-315"/>
<text xml:space="preserve" text-anchor="middle" x="114" y="-589.65" font-family="Arial" font-size="13.00">Application Entry Points</text>
</g>
<!-- M1 -->
<g id="node1" class="node">
<title>M1</title>
<path fill="#d7ccc8" stroke="black" d="M177.5,-162.5C177.5,-162.5 50.5,-162.5 50.5,-162.5 44.5,-162.5 38.5,-156.5 38.5,-150.5 38.5,-150.5 38.5,-133.5 38.5,-133.5 38.5,-127.5 44.5,-121.5 50.5,-121.5 50.5,-121.5 177.5,-121.5 177.5,-121.5 183.5,-121.5 189.5,-127.5 189.5,-133.5 189.5,-133.5 189.5,-150.5 189.5,-150.5 189.5,-156.5 183.5,-162.5 177.5,-162.5"/>
<text xml:space="preserve" text-anchor="middle" x="114" y="-151.85" font-family="Courier,monospace" font-size="7.00">oem_product_catalog.py</text>
<text xml:space="preserve" text-anchor="middle" x="114" y="-143.6" font-family="Courier,monospace" font-size="7.00">OEM blueprint builders (10)</text>
<text xml:space="preserve" text-anchor="middle" x="114" y="-135.35" font-family="Courier,monospace" font-size="7.00">legacy washers/dish/micro (3)</text>
<text xml:space="preserve" text-anchor="middle" x="114" y="-127.1" font-family="Courier,monospace" font-size="7.00">build_oem_enterprise_catalog()</text>
</g>
<!-- M4 -->
<g id="node4" class="node">
<title>M4</title>
<path fill="#d7ccc8" stroke="black" d="M409.5,-160C409.5,-160 260,-160 260,-160 254,-160 248,-154 248,-148 248,-148 248,-136 248,-136 248,-130 254,-124 260,-124 260,-124 409.5,-124 409.5,-124 415.5,-124 421.5,-130 421.5,-136 421.5,-136 421.5,-148 421.5,-148 421.5,-154 415.5,-160 409.5,-160"/>
<text xml:space="preserve" text-anchor="middle" x="334.75" y="-147.72" font-family="Courier,monospace" font-size="7.00">pim_blueprint_sync.py</text>
<text xml:space="preserve" text-anchor="middle" x="334.75" y="-139.47" font-family="Courier,monospace" font-size="7.00">OEM → pim_catalog.json</text>
<text xml:space="preserve" text-anchor="middle" x="334.75" y="-131.22" font-family="Courier,monospace" font-size="7.00">+ enterprise_knowledge_catalog.json</text>
</g>
<!-- M1&#45;&gt;M4 -->
<!-- M2 -->
<g id="node2" class="node">
<title>M2</title>
<path fill="#d7ccc8" stroke="black" d="M177.5,-221.5C177.5,-221.5 50.5,-221.5 50.5,-221.5 44.5,-221.5 38.5,-215.5 38.5,-209.5 38.5,-209.5 38.5,-192.5 38.5,-192.5 38.5,-186.5 44.5,-180.5 50.5,-180.5 50.5,-180.5 177.5,-180.5 177.5,-180.5 183.5,-180.5 189.5,-186.5 189.5,-192.5 189.5,-192.5 189.5,-209.5 189.5,-209.5 189.5,-215.5 183.5,-221.5 177.5,-221.5"/>
<text xml:space="preserve" text-anchor="middle" x="114" y="-210.85" font-family="Courier,monospace" font-size="7.00">warranty_catalog_extensions.py</text>
<text xml:space="preserve" text-anchor="middle" x="114" y="-202.6" font-family="Courier,monospace" font-size="7.00">Model/SKU/Component/ErrorCode</text>
<text xml:space="preserve" text-anchor="middle" x="114" y="-194.35" font-family="Courier,monospace" font-size="7.00">Asset/Claim/WarrantyPolicy</text>
<text xml:space="preserve" text-anchor="middle" x="114" y="-186.1" font-family="Courier,monospace" font-size="7.00">merge_product_extensions()</text>
</g>
<!-- M3 -->
<g id="node3" class="node">
<title>M3</title>
<path fill="#d7ccc8" stroke="black" d="M200,-276C200,-276 28,-276 28,-276 22,-276 16,-270 16,-264 16,-264 16,-252 16,-252 16,-246 22,-240 28,-240 28,-240 200,-240 200,-240 206,-240 212,-246 212,-252 212,-252 212,-264 212,-264 212,-270 206,-276 200,-276"/>
<text xml:space="preserve" text-anchor="middle" x="114" y="-263.73" font-family="Courier,monospace" font-size="7.00">synthetic_data_generator.py</text>
<text xml:space="preserve" text-anchor="middle" x="114" y="-255.47" font-family="Courier,monospace" font-size="7.00">Pydantic models · legacy 3 products</text>
<text xml:space="preserve" text-anchor="middle" x="114" y="-247.22" font-family="Courier,monospace" font-size="7.00">python &#45;m graph.synthetic_data_generator</text>
</g>
<!-- M6 -->
<g id="node6" class="node">
<title>M6</title>
<path fill="#c8e6c9" stroke="black" d="M607.75,-160C607.75,-160 480.75,-160 480.75,-160 474.75,-160 468.75,-154 468.75,-148 468.75,-148 468.75,-136 468.75,-136 468.75,-130 474.75,-124 480.75,-124 480.75,-124 607.75,-124 607.75,-124 613.75,-124 619.75,-130 619.75,-136 619.75,-136 619.75,-148 619.75,-148 619.75,-154 613.75,-160 607.75,-160"/>
<text xml:space="preserve" text-anchor="middle" x="544.25" y="-147.72" font-family="Courier,monospace" font-size="7.00">knowledge_etl.py</text>
<text xml:space="preserve" text-anchor="middle" x="544.25" y="-139.47" font-family="Courier,monospace" font-size="7.00">4 connectors → OntologyBuilder</text>
<text xml:space="preserve" text-anchor="middle" x="544.25" y="-131.22" font-family="Courier,monospace" font-size="7.00">→ populate_graph (optional)</text>
</g>
<!-- M4&#45;&gt;M6 -->
<!-- M5 -->
<g id="node5" class="node">
<title>M5</title>
<path fill="#c8e6c9" stroke="black" d="M587.5,-106C587.5,-106 501,-106 501,-106 495,-106 489,-100 489,-94 489,-94 489,-82 489,-82 489,-76 495,-70 501,-70 501,-70 587.5,-70 587.5,-70 593.5,-70 599.5,-76 599.5,-82 599.5,-82 599.5,-94 599.5,-94 599.5,-100 593.5,-106 587.5,-106"/>
<text xml:space="preserve" text-anchor="middle" x="544.25" y="-89.6" font-family="Courier,monospace" font-size="7.00">orchestrator.py</text>
<text xml:space="preserve" text-anchor="middle" x="544.25" y="-81.35" font-family="Courier,monospace" font-size="7.00">ETL → smoke → promote</text>
</g>
<!-- M13 -->
<g id="node13" class="node">
<title>M13</title>
<path fill="#90caf9" stroke="black" d="M785.75,-160C785.75,-160 703.75,-160 703.75,-160 697.75,-160 691.75,-154 691.75,-148 691.75,-148 691.75,-136 691.75,-136 691.75,-130 697.75,-124 703.75,-124 703.75,-124 785.75,-124 785.75,-124 791.75,-124 797.75,-130 797.75,-136 797.75,-136 797.75,-148 797.75,-148 797.75,-154 791.75,-160 785.75,-160"/>
<text xml:space="preserve" text-anchor="middle" x="744.75" y="-147.72" font-family="Courier,monospace" font-size="7.00">populate_graph.py</text>
<text xml:space="preserve" text-anchor="middle" x="744.75" y="-139.47" font-family="Courier,monospace" font-size="7.00">MERGE all node types</text>
<text xml:space="preserve" text-anchor="middle" x="744.75" y="-131.22" font-family="Courier,monospace" font-size="7.00">15 constraints</text>
</g>
<!-- M6&#45;&gt;M13 -->
<!-- M7 -->
<g id="node7" class="node">
<title>M7</title>
<path fill="#c8e6c9" stroke="black" d="M619,-214C619,-214 469.5,-214 469.5,-214 463.5,-214 457.5,-208 457.5,-202 457.5,-202 457.5,-190 457.5,-190 457.5,-184 463.5,-178 469.5,-178 469.5,-178 619,-178 619,-178 625,-178 631,-184 631,-190 631,-190 631,-202 631,-202 631,-208 625,-214 619,-214"/>
<text xml:space="preserve" text-anchor="middle" x="544.25" y="-201.72" font-family="Courier,monospace" font-size="7.00">ontology_builder.py</text>
<text xml:space="preserve" text-anchor="middle" x="544.25" y="-193.47" font-family="Courier,monospace" font-size="7.00">PIM+FSM+Claims → KnowledgeGraphData</text>
<text xml:space="preserve" text-anchor="middle" x="544.25" y="-185.22" font-family="Courier,monospace" font-size="7.00">provenance metadata</text>
</g>
<!-- M8 -->
<g id="node8" class="node">
<title>M8</title>
<path fill="#c8e6c9" stroke="black" d="M610,-268C610,-268 478.5,-268 478.5,-268 472.5,-268 466.5,-262 466.5,-256 466.5,-256 466.5,-244 466.5,-244 466.5,-238 472.5,-232 478.5,-232 478.5,-232 610,-232 610,-232 616,-232 622,-238 622,-244 622,-244 622,-256 622,-256 622,-262 616,-268 610,-268"/>
<text xml:space="preserve" text-anchor="middle" x="544.25" y="-255.72" font-family="Courier,monospace" font-size="7.00">pim/crm/claims/fsm_connector.py</text>
<text xml:space="preserve" text-anchor="middle" x="544.25" y="-247.47" font-family="Courier,monospace" font-size="7.00">fetch() → ConnectorResult</text>
<text xml:space="preserve" text-anchor="middle" x="544.25" y="-239.22" font-family="Courier,monospace" font-size="7.00">HTTP or JSON fixture</text>
</g>
<!-- M9 -->
<g id="node9" class="node">
<title>M9</title>
<path fill="#c8e6c9" stroke="black" d="M601,-322C601,-322 487.5,-322 487.5,-322 481.5,-322 475.5,-316 475.5,-310 475.5,-310 475.5,-298 475.5,-298 475.5,-292 481.5,-286 487.5,-286 487.5,-286 601,-286 601,-286 607,-286 613,-292 613,-298 613,-298 613,-310 613,-310 613,-316 607,-322 601,-322"/>
<text xml:space="preserve" text-anchor="middle" x="544.25" y="-305.6" font-family="Courier,monospace" font-size="7.00">http_client.py · base.py</text>
<text xml:space="preserve" text-anchor="middle" x="544.25" y="-297.35" font-family="Courier,monospace" font-size="7.00">get_json() · load_fixture()</text>
</g>
<!-- M10 -->
<g id="node10" class="node">
<title>M10</title>
<path fill="#c8e6c9" stroke="black" d="M596.5,-376C596.5,-376 492,-376 492,-376 486,-376 480,-370 480,-364 480,-364 480,-352 480,-352 480,-346 486,-340 492,-340 492,-340 596.5,-340 596.5,-340 602.5,-340 608.5,-346 608.5,-352 608.5,-352 608.5,-364 608.5,-364 608.5,-370 602.5,-376 596.5,-376"/>
<text xml:space="preserve" text-anchor="middle" x="544.25" y="-359.6" font-family="Courier,monospace" font-size="7.00">smoke_validation.py</text>
<text xml:space="preserve" text-anchor="middle" x="544.25" y="-351.35" font-family="Courier,monospace" font-size="7.00">regression before promote</text>
</g>
<!-- M11 -->
<g id="node11" class="node">
<title>M11</title>
<path fill="#c8e6c9" stroke="black" d="M592,-430C592,-430 496.5,-430 496.5,-430 490.5,-430 484.5,-424 484.5,-418 484.5,-418 484.5,-406 484.5,-406 484.5,-400 490.5,-394 496.5,-394 496.5,-394 592,-394 592,-394 598,-394 604,-400 604,-406 604,-406 604,-418 604,-418 604,-424 598,-430 592,-430"/>
<text xml:space="preserve" text-anchor="middle" x="544.25" y="-413.6" font-family="Courier,monospace" font-size="7.00">staging_promotion.py</text>
<text xml:space="preserve" text-anchor="middle" x="544.25" y="-405.35" font-family="Courier,monospace" font-size="7.00">promote validated batch</text>
</g>
<!-- M12 -->
<g id="node12" class="node">
<title>M12</title>
<path fill="#c8e6c9" stroke="black" d="M592,-484C592,-484 496.5,-484 496.5,-484 490.5,-484 484.5,-478 484.5,-472 484.5,-472 484.5,-460 484.5,-460 484.5,-454 490.5,-448 496.5,-448 496.5,-448 592,-448 592,-448 598,-448 604,-454 604,-460 604,-460 604,-472 604,-472 604,-478 598,-484 592,-484"/>
<text xml:space="preserve" text-anchor="middle" x="544.25" y="-467.6" font-family="Courier,monospace" font-size="7.00">lineage_store.py</text>
<text xml:space="preserve" text-anchor="middle" x="544.25" y="-459.35" font-family="Courier,monospace" font-size="7.00">etl_batches.jsonl audit</text>
</g>
<!-- M16 -->
<g id="node16" class="node">
<title>M16</title>
<path fill="#ffe0b2" stroke="black" d="M1015.5,-160C1015.5,-160 879.5,-160 879.5,-160 873.5,-160 867.5,-154 867.5,-148 867.5,-148 867.5,-136 867.5,-136 867.5,-130 873.5,-124 879.5,-124 879.5,-124 1015.5,-124 1015.5,-124 1021.5,-124 1027.5,-130 1027.5,-136 1027.5,-136 1027.5,-148 1027.5,-148 1027.5,-154 1021.5,-160 1015.5,-160"/>
<text xml:space="preserve" text-anchor="middle" x="947.5" y="-147.72" font-family="Courier,monospace" font-size="7.00">graph_rag.py</text>
<text xml:space="preserve" text-anchor="middle" x="947.5" y="-139.47" font-family="Courier,monospace" font-size="7.00">diagnose() · rank_failure_modes</text>
<text xml:space="preserve" text-anchor="middle" x="947.5" y="-131.22" font-family="Courier,monospace" font-size="7.00">detect_product · format_response</text>
</g>
<!-- M13&#45;&gt;M16 -->
<!-- M14 -->
<g id="node14" class="node">
<title>M14</title>
<path fill="#90caf9" stroke="black" d="M810.5,-214C810.5,-214 679,-214 679,-214 673,-214 667,-208 667,-202 667,-202 667,-190 667,-190 667,-184 673,-178 679,-178 679,-178 810.5,-178 810.5,-178 816.5,-178 822.5,-184 822.5,-190 822.5,-190 822.5,-202 822.5,-202 822.5,-208 816.5,-214 810.5,-214"/>
<text xml:space="preserve" text-anchor="middle" x="744.75" y="-197.6" font-family="Courier,monospace" font-size="7.00">neo4j_client.py</text>
<text xml:space="preserve" text-anchor="middle" x="744.75" y="-189.35" font-family="Courier,monospace" font-size="7.00">Bolt driver · verify_connection</text>
</g>
<!-- M15 -->
<g id="node15" class="node">
<title>M15</title>
<path fill="#90caf9" stroke="black" d="M790.25,-268C790.25,-268 699.25,-268 699.25,-268 693.25,-268 687.25,-262 687.25,-256 687.25,-256 687.25,-244 687.25,-244 687.25,-238 693.25,-232 699.25,-232 699.25,-232 790.25,-232 790.25,-232 796.25,-232 802.25,-238 802.25,-244 802.25,-244 802.25,-256 802.25,-256 802.25,-262 796.25,-268 790.25,-268"/>
<text xml:space="preserve" text-anchor="middle" x="744.75" y="-251.6" font-family="Courier,monospace" font-size="7.00">provenance.py</text>
<text xml:space="preserve" text-anchor="middle" x="744.75" y="-243.35" font-family="Courier,monospace" font-size="7.00">evidence trail helpers</text>
</g>
<!-- M22 -->
<g id="node22" class="node">
<title>M22</title>
<path fill="#b2ebf2" stroke="black" d="M1243,-160C1243,-160 1093.5,-160 1093.5,-160 1087.5,-160 1081.5,-154 1081.5,-148 1081.5,-148 1081.5,-136 1081.5,-136 1081.5,-130 1087.5,-124 1093.5,-124 1093.5,-124 1243,-124 1243,-124 1249,-124 1255,-130 1255,-136 1255,-136 1255,-148 1255,-148 1255,-154 1249,-160 1243,-160"/>
<text xml:space="preserve" text-anchor="middle" x="1168.25" y="-147.72" font-family="Courier,monospace" font-size="7.00">claims_workflow.py</text>
<text xml:space="preserve" text-anchor="middle" x="1168.25" y="-139.47" font-family="Courier,monospace" font-size="7.00">submit · list · update_claim_status</text>
<text xml:space="preserve" text-anchor="middle" x="1168.25" y="-131.22" font-family="Courier,monospace" font-size="7.00">JSON + Neo4j MERGE</text>
</g>
<!-- M16&#45;&gt;M22 -->
<!-- M17 -->
<g id="node17" class="node">
<title>M17</title>
<path fill="#ffe0b2" stroke="black" d="M1015.5,-214C1015.5,-214 879.5,-214 879.5,-214 873.5,-214 867.5,-208 867.5,-202 867.5,-202 867.5,-190 867.5,-190 867.5,-184 873.5,-178 879.5,-178 879.5,-178 1015.5,-178 1015.5,-178 1021.5,-178 1027.5,-184 1027.5,-190 1027.5,-190 1027.5,-202 1027.5,-202 1027.5,-208 1021.5,-214 1015.5,-214"/>
<text xml:space="preserve" text-anchor="middle" x="947.5" y="-201.72" font-family="Courier,monospace" font-size="7.00">diagnostic_engine.py</text>
<text xml:space="preserve" text-anchor="middle" x="947.5" y="-193.47" font-family="Courier,monospace" font-size="7.00">get_diagnostic_tree()</text>
<text xml:space="preserve" text-anchor="middle" x="947.5" y="-185.22" font-family="Courier,monospace" font-size="7.00">NEXT_STEP · CONFIRMS · RULES_OUT</text>
</g>
<!-- M18 -->
<g id="node18" class="node">
<title>M18</title>
<path fill="#ffe0b2" stroke="black" d="M1020,-268C1020,-268 875,-268 875,-268 869,-268 863,-262 863,-256 863,-256 863,-244 863,-244 863,-238 869,-232 875,-232 875,-232 1020,-232 1020,-232 1026,-232 1032,-238 1032,-244 1032,-244 1032,-256 1032,-256 1032,-262 1026,-268 1020,-268"/>
<text xml:space="preserve" text-anchor="middle" x="947.5" y="-255.72" font-family="Courier,monospace" font-size="7.00">parts_predictor.py</text>
<text xml:space="preserve" text-anchor="middle" x="947.5" y="-247.47" font-family="Courier,monospace" font-size="7.00">predict_parts() multi&#45;source</text>
<text xml:space="preserve" text-anchor="middle" x="947.5" y="-239.22" font-family="Courier,monospace" font-size="7.00">REQUIRES_PART · BOM · SKU · claims</text>
</g>
<!-- M19 -->
<g id="node19" class="node">
<title>M19</title>
<path fill="#ffe0b2" stroke="black" d="M1024.5,-322C1024.5,-322 870.5,-322 870.5,-322 864.5,-322 858.5,-316 858.5,-310 858.5,-310 858.5,-298 858.5,-298 858.5,-292 864.5,-286 870.5,-286 870.5,-286 1024.5,-286 1024.5,-286 1030.5,-286 1036.5,-292 1036.5,-298 1036.5,-298 1036.5,-310 1036.5,-310 1036.5,-316 1030.5,-322 1024.5,-322"/>
<text xml:space="preserve" text-anchor="middle" x="947.5" y="-309.73" font-family="Courier,monospace" font-size="7.00">graph_visualization.py</text>
<text xml:space="preserve" text-anchor="middle" x="947.5" y="-301.48" font-family="Courier,monospace" font-size="7.00">ontology/product/diagnosis subgraphs</text>
<text xml:space="preserve" text-anchor="middle" x="947.5" y="-293.23" font-family="Courier,monospace" font-size="7.00">PyVis render</text>
</g>
<!-- M20 -->
<g id="node20" class="node">
<title>M20</title>
<path fill="#b2ebf2" stroke="black" d="M1236.25,-52C1236.25,-52 1100.25,-52 1100.25,-52 1094.25,-52 1088.25,-46 1088.25,-40 1088.25,-40 1088.25,-28 1088.25,-28 1088.25,-22 1094.25,-16 1100.25,-16 1100.25,-16 1236.25,-16 1236.25,-16 1242.25,-16 1248.25,-22 1248.25,-28 1248.25,-28 1248.25,-40 1248.25,-40 1248.25,-46 1242.25,-52 1236.25,-52"/>
<text xml:space="preserve" text-anchor="middle" x="1168.25" y="-35.6" font-family="Courier,monospace" font-size="7.00">crm_enrichment.py</text>
<text xml:space="preserve" text-anchor="middle" x="1168.25" y="-27.35" font-family="Courier,monospace" font-size="7.00">asset_id → product_id · warranty</text>
</g>
<!-- M21 -->
<g id="node21" class="node">
<title>M21</title>
<path fill="#b2ebf2" stroke="black" d="M1227.25,-106C1227.25,-106 1109.25,-106 1109.25,-106 1103.25,-106 1097.25,-100 1097.25,-94 1097.25,-94 1097.25,-82 1097.25,-82 1097.25,-76 1103.25,-70 1109.25,-70 1109.25,-70 1227.25,-70 1227.25,-70 1233.25,-70 1239.25,-76 1239.25,-82 1239.25,-82 1239.25,-94 1239.25,-94 1239.25,-100 1233.25,-106 1227.25,-106"/>
<text xml:space="preserve" text-anchor="middle" x="1168.25" y="-89.6" font-family="Courier,monospace" font-size="7.00">warranty_eligibility.py</text>
<text xml:space="preserve" text-anchor="middle" x="1168.25" y="-81.35" font-family="Courier,monospace" font-size="7.00">check_warranty_eligibility()</text>
</g>
<!-- M23 -->
<g id="node23" class="node">
<title>M23</title>
<path fill="#b2ebf2" stroke="black" d="M1216,-214C1216,-214 1120.5,-214 1120.5,-214 1114.5,-214 1108.5,-208 1108.5,-202 1108.5,-202 1108.5,-190 1108.5,-190 1108.5,-184 1114.5,-178 1120.5,-178 1120.5,-178 1216,-178 1216,-178 1222,-178 1228,-184 1228,-190 1228,-190 1228,-202 1228,-202 1228,-208 1222,-214 1216,-214"/>
<text xml:space="preserve" text-anchor="middle" x="1168.25" y="-197.6" font-family="Courier,monospace" font-size="7.00">case_management.py</text>
<text xml:space="preserve" text-anchor="middle" x="1168.25" y="-189.35" font-family="Courier,monospace" font-size="7.00">escalation → CCaaS case</text>
</g>
<!-- M24 -->
<g id="node24" class="node">
<title>M24</title>
<path fill="#b2ebf2" stroke="black" d="M1252,-268C1252,-268 1084.5,-268 1084.5,-268 1078.5,-268 1072.5,-262 1072.5,-256 1072.5,-256 1072.5,-244 1072.5,-244 1072.5,-238 1078.5,-232 1084.5,-232 1084.5,-232 1252,-232 1252,-232 1258,-232 1264,-238 1264,-244 1264,-244 1264,-256 1264,-256 1264,-262 1258,-268 1252,-268"/>
<text xml:space="preserve" text-anchor="middle" x="1168.25" y="-251.6" font-family="Courier,monospace" font-size="7.00">fsm_escalation.py · escalation_store.py</text>
<text xml:space="preserve" text-anchor="middle" x="1168.25" y="-243.35" font-family="Courier,monospace" font-size="7.00">field service handoff</text>
</g>
<!-- M25 -->
<g id="node25" class="node">
<title>M25</title>
<path fill="#e1bee7" stroke="black" d="M166.25,-359C166.25,-359 61.75,-359 61.75,-359 55.75,-359 49.75,-353 49.75,-347 49.75,-347 49.75,-335 49.75,-335 49.75,-329 55.75,-323 61.75,-323 61.75,-323 166.25,-323 166.25,-323 172.25,-323 178.25,-329 178.25,-335 178.25,-335 178.25,-347 178.25,-347 178.25,-353 172.25,-359 166.25,-359"/>
<text xml:space="preserve" text-anchor="middle" x="114" y="-342.6" font-family="Courier,monospace" font-size="7.00">agents/diagnosis_graph.py</text>
<text xml:space="preserve" text-anchor="middle" x="114" y="-334.35" font-family="Courier,monospace" font-size="7.00">4&#45;node LangGraph pipeline</text>
</g>
<!-- M26 -->
<g id="node26" class="node">
<title>M26</title>
<path fill="#e1bee7" stroke="black" d="M188.75,-413C188.75,-413 39.25,-413 39.25,-413 33.25,-413 27.25,-407 27.25,-401 27.25,-401 27.25,-389 27.25,-389 27.25,-383 33.25,-377 39.25,-377 39.25,-377 188.75,-377 188.75,-377 194.75,-377 200.75,-383 200.75,-389 200.75,-389 200.75,-401 200.75,-401 200.75,-407 194.75,-413 188.75,-413"/>
<text xml:space="preserve" text-anchor="middle" x="114" y="-396.6" font-family="Courier,monospace" font-size="7.00">agents/tools.py</text>
<text xml:space="preserve" text-anchor="middle" x="114" y="-388.35" font-family="Courier,monospace" font-size="7.00">tool_diagnose · tool_detect_product</text>
</g>
<!-- M27 -->
<g id="node27" class="node">
<title>M27</title>
<path fill="#e1bee7" stroke="black" d="M182,-467C182,-467 46,-467 46,-467 40,-467 34,-461 34,-455 34,-455 34,-443 34,-443 34,-437 40,-431 46,-431 46,-431 182,-431 182,-431 188,-431 194,-437 194,-443 194,-443 194,-455 194,-455 194,-461 188,-467 182,-467"/>
<text xml:space="preserve" text-anchor="middle" x="114" y="-450.6" font-family="Courier,monospace" font-size="7.00">api/main.py</text>
<text xml:space="preserve" text-anchor="middle" x="114" y="-442.35" font-family="Courier,monospace" font-size="7.00">/diagnose · /claims/* · /graph/*</text>
</g>
<!-- M28 -->
<g id="node28" class="node">
<title>M28</title>
<path fill="#e1bee7" stroke="black" d="M170.75,-521C170.75,-521 57.25,-521 57.25,-521 51.25,-521 45.25,-515 45.25,-509 45.25,-509 45.25,-497 45.25,-497 45.25,-491 51.25,-485 57.25,-485 57.25,-485 170.75,-485 170.75,-485 176.75,-485 182.75,-491 182.75,-497 182.75,-497 182.75,-509 182.75,-509 182.75,-515 176.75,-521 170.75,-521"/>
<text xml:space="preserve" text-anchor="middle" x="114" y="-504.6" font-family="Courier,monospace" font-size="7.00">ui/app.py</text>
<text xml:space="preserve" text-anchor="middle" x="114" y="-496.35" font-family="Courier,monospace" font-size="7.00">Chat · Claims · KG Explorer</text>
</g>
<!-- M29 -->
<g id="node29" class="node">
<title>M29</title>
<path fill="#e1bee7" stroke="black" d="M182,-575C182,-575 46,-575 46,-575 40,-575 34,-569 34,-563 34,-563 34,-551 34,-551 34,-545 40,-539 46,-539 46,-539 182,-539 182,-539 188,-539 194,-545 194,-551 194,-551 194,-563 194,-563 194,-569 188,-575 182,-575"/>
<text xml:space="preserve" text-anchor="middle" x="114" y="-558.6" font-family="Courier,monospace" font-size="7.00">mock_enterprise_apps.py</text>
<text xml:space="preserve" text-anchor="middle" x="114" y="-550.35" font-family="Courier,monospace" font-size="7.00">/api/pim · /crm · /claims · /fsm</text>
</g>
</g>
</svg>
