<?xml version="1.0" encoding="UTF-8" standalone="no"?>
<!DOCTYPE svg PUBLIC "-//W3C//DTD SVG 1.1//EN"
 "http://www.w3.org/Graphics/SVG/1.1/DTD/svg11.dtd">
<!-- Generated by graphviz version 14.1.5 (20260411.2331)
 -->
<!-- Title: CompleteEnterpriseSystemPipeline Pages: 1 -->
<svg width="2786pt" height="604pt"
 viewBox="0.00 0.00 2786.00 604.00" xmlns="http://www.w3.org/2000/svg" xmlns:xlink="http://www.w3.org/1999/xlink">
<g id="graph0" class="graph" transform="scale(1 1) rotate(0) translate(28.8 574.8)">
<title>CompleteEnterpriseSystemPipeline</title>
<polygon fill="white" stroke="none" points="-28.8,28.8 -28.8,-574.8 2757.69,-574.8 2757.69,28.8 -28.8,28.8"/>
<text xml:space="preserve" text-anchor="middle" x="1364.44" y="-528.7" font-family="Helvetica,sans-Serif" font-size="14.00">39 — Complete Enterprise System Pipeline (As Built)</text>
<text xml:space="preserve" text-anchor="middle" x="1364.44" y="-513.7" font-family="Helvetica,sans-Serif" font-size="14.00">Blueprints → ETL → Staging → Neo4j → Runtime Diagnosis → Claims &#160;| &#160;Redis optional shared state</text>
<g id="clust1" class="cluster">
<title>cluster_src</title>
<path fill="#eceff1" stroke="#546e7a" d="M243.28,-8C243.28,-8 566.34,-8 566.34,-8 572.34,-8 578.34,-14 578.34,-20 578.34,-20 578.34,-254 578.34,-254 578.34,-260 572.34,-266 566.34,-266 566.34,-266 243.28,-266 243.28,-266 237.28,-266 231.28,-260 231.28,-254 231.28,-254 231.28,-20 231.28,-20 231.28,-14 237.28,-8 243.28,-8"/>
<text xml:space="preserve" text-anchor="middle" x="404.81" y="-248.7" font-family="Helvetica,sans-Serif" font-size="14.00">Enterprise Source Landscape</text>
</g>
<g id="clust2" class="cluster">
<title>cluster_bp</title>
<path fill="#efebe9" stroke="#6d4c41" d="M20,-274C20,-274 556.21,-274 556.21,-274 562.21,-274 568.21,-280 568.21,-286 568.21,-286 568.21,-337 568.21,-337 568.21,-343 562.21,-349 556.21,-349 556.21,-349 20,-349 20,-349 14,-349 8,-343 8,-337 8,-337 8,-286 8,-286 8,-280 14,-274 20,-274"/>
<text xml:space="preserve" text-anchor="middle" x="288.11" y="-331.7" font-family="Helvetica,sans-Serif" font-size="14.00">Phase 0–1 · Knowledge Authoring</text>
</g>
<g id="clust3" class="cluster">
<title>cluster_etl</title>
<path fill="#e8f5e9" stroke="#2e7d32" d="M446.81,-357C446.81,-357 1176.68,-357 1176.68,-357 1182.68,-357 1188.68,-363 1188.68,-369 1188.68,-369 1188.68,-485 1188.68,-485 1188.68,-491 1182.68,-497 1176.68,-497 1176.68,-497 446.81,-497 446.81,-497 440.81,-497 434.81,-491 434.81,-485 434.81,-485 434.81,-369 434.81,-369 434.81,-363 440.81,-357 446.81,-357"/>
<text xml:space="preserve" text-anchor="middle" x="811.74" y="-479.7" font-family="Helvetica,sans-Serif" font-size="14.00">Phase 2 · Knowledge ETL (parallel extract)</text>
</g>
<g id="clust4" class="cluster">
<title>cluster_gate</title>
<path fill="#fff3e0" stroke="#ef6c00" d="M1225.68,-359C1225.68,-359 1554.74,-359 1554.74,-359 1560.74,-359 1566.74,-365 1566.74,-371 1566.74,-371 1566.74,-422 1566.74,-422 1566.74,-428 1560.74,-434 1554.74,-434 1554.74,-434 1225.68,-434 1225.68,-434 1219.68,-434 1213.68,-428 1213.68,-422 1213.68,-422 1213.68,-371 1213.68,-371 1213.68,-365 1219.68,-359 1225.68,-359"/>
<text xml:space="preserve" text-anchor="middle" x="1390.21" y="-416.7" font-family="Helvetica,sans-Serif" font-size="14.00">Quality Gates</text>
</g>
<g id="clust5" class="cluster">
<title>cluster_graph</title>
<path fill="#e3f2fd" stroke="#1565c0" d="M1603.74,-365C1603.74,-365 2109.58,-365 2109.58,-365 2115.58,-365 2121.58,-371 2121.58,-377 2121.58,-377 2121.58,-464 2121.58,-464 2121.58,-470 2115.58,-476 2109.58,-476 2109.58,-476 1603.74,-476 1603.74,-476 1597.74,-476 1591.74,-470 1591.74,-464 1591.74,-464 1591.74,-377 1591.74,-377 1591.74,-371 1597.74,-365 1603.74,-365"/>
<text xml:space="preserve" text-anchor="middle" x="1856.66" y="-458.7" font-family="Helvetica,sans-Serif" font-size="14.00">Phase 3 · Knowledge Graph Store</text>
</g>
<g id="clust6" class="cluster">
<title>cluster_rt</title>
<path fill="#f3e5f5" stroke="#6a1b9a" d="M1801.89,-91C1801.89,-91 2708.89,-91 2708.89,-91 2714.89,-91 2720.89,-97 2720.89,-103 2720.89,-103 2720.89,-215 2720.89,-215 2720.89,-221 2714.89,-227 2708.89,-227 2708.89,-227 1801.89,-227 1801.89,-227 1795.89,-227 1789.89,-221 1789.89,-215 1789.89,-215 1789.89,-103 1789.89,-103 1789.89,-97 1795.89,-91 1801.89,-91"/>
<text xml:space="preserve" text-anchor="middle" x="2255.39" y="-209.7" font-family="Helvetica,sans-Serif" font-size="14.00">Phase 4–5 · Runtime Serving</text>
</g>
<g id="clust7" class="cluster">
<title>cluster_plat</title>
<path fill="#fafafa" stroke="#455a64" d="M2158.58,-235C2158.58,-235 2343.33,-235 2343.33,-235 2349.33,-235 2355.33,-241 2355.33,-247 2355.33,-247 2355.33,-433 2355.33,-433 2355.33,-439 2349.33,-445 2343.33,-445 2343.33,-445 2158.58,-445 2158.58,-445 2152.58,-445 2146.58,-439 2146.58,-433 2146.58,-433 2146.58,-247 2146.58,-247 2146.58,-241 2152.58,-235 2158.58,-235"/>
<text xml:space="preserve" text-anchor="middle" x="2250.95" y="-427.7" font-family="Helvetica,sans-Serif" font-size="14.00">Platform Cross&#45;Cutting (as built)</text>
</g>
<!-- PIM -->
<g id="node1" class="node">
<title>PIM</title>
<path fill="#cfd8dc" stroke="black" d="M347.68,-174C347.68,-174 265.15,-174 265.15,-174 259.15,-174 253.15,-168 253.15,-162 253.15,-162 253.15,-150 253.15,-150 253.15,-144 259.15,-138 265.15,-138 265.15,-138 347.68,-138 347.68,-138 353.68,-138 359.68,-144 359.68,-150 359.68,-150 359.68,-162 359.68,-162 359.68,-168 353.68,-174 347.68,-174"/>
<text xml:space="preserve" text-anchor="middle" x="306.42" y="-157.2" font-family="Helvetica,sans-Serif" font-size="9.00">PIM / PLM</text>
<text xml:space="preserve" text-anchor="middle" x="306.42" y="-147.45" font-family="Helvetica,sans-Serif" font-size="9.00">products · BOM · parts</text>
</g>
<!-- MOCK -->
<g id="node5" class="node">
<title>MOCK</title>
<polygon fill="#ffe082" stroke="black" points="570.34,-176.38 451.81,-176.38 451.81,-172.38 447.81,-172.38 447.81,-168.38 451.81,-168.38 451.81,-143.62 447.81,-143.62 447.81,-139.62 451.81,-139.62 451.81,-135.62 570.34,-135.62 570.34,-176.38"/>
<polyline fill="none" stroke="black" points="451.81,-172.38 455.81,-172.38 455.81,-168.38 451.81,-168.38"/>
<polyline fill="none" stroke="black" points="451.81,-143.62 455.81,-143.62 455.81,-139.62 451.81,-139.62"/>
<text xml:space="preserve" text-anchor="middle" x="511.07" y="-162.07" font-family="Helvetica,sans-Serif" font-size="9.00">Mock Enterprise API</text>
<text xml:space="preserve" text-anchor="middle" x="511.07" y="-152.32" font-family="Helvetica,sans-Serif" font-size="9.00">:8090 &#160;OR &#160;JSON fixtures</text>
<text xml:space="preserve" text-anchor="middle" x="511.07" y="-142.57" font-family="Helvetica,sans-Serif" font-size="9.00">data/enterprise_sources/</text>
</g>
<!-- PIM&#45;&gt;MOCK -->
<g id="edge1" class="edge">
<title>PIM&#45;&gt;MOCK</title>
<path fill="none" stroke="#37474f" stroke-dasharray="5,2" d="M360.14,-156C384.55,-156 413.9,-156 440.14,-156"/>
<polygon fill="#37474f" stroke="#37474f" points="440.04,-159.5 450.04,-156 440.04,-152.5 440.04,-159.5"/>
<text xml:space="preserve" text-anchor="middle" x="412.68" y="-157.4" font-family="Helvetica,sans-Serif" font-size="8.00">demo</text>
</g>
<!-- CRM -->
<g id="node2" class="node">
<title>CRM</title>
<path fill="#cfd8dc" stroke="black" d="M361.56,-235C361.56,-235 251.28,-235 251.28,-235 245.28,-235 239.28,-229 239.28,-223 239.28,-223 239.28,-211 239.28,-211 239.28,-205 245.28,-199 251.28,-199 251.28,-199 361.56,-199 361.56,-199 367.56,-199 373.56,-205 373.56,-211 373.56,-211 373.56,-223 373.56,-223 373.56,-229 367.56,-235 361.56,-235"/>
<text xml:space="preserve" text-anchor="middle" x="306.42" y="-218.2" font-family="Helvetica,sans-Serif" font-size="9.00">CRM</text>
<text xml:space="preserve" text-anchor="middle" x="306.42" y="-208.45" font-family="Helvetica,sans-Serif" font-size="9.00">assets · customers · warranty</text>
</g>
<!-- CRM&#45;&gt;MOCK -->
<g id="edge2" class="edge">
<title>CRM&#45;&gt;MOCK</title>
<path fill="none" stroke="#37474f" stroke-dasharray="5,2" d="M368.77,-198.53C391.4,-191.72 417.2,-183.96 440.5,-176.94"/>
<polygon fill="#37474f" stroke="#37474f" points="441.35,-180.34 449.91,-174.11 439.33,-173.64 441.35,-180.34"/>
</g>
<!-- FSM -->
<g id="node3" class="node">
<title>FSM</title>
<path fill="#cfd8dc" stroke="black" d="M352.93,-52C352.93,-52 259.9,-52 259.9,-52 253.9,-52 247.9,-46 247.9,-40 247.9,-40 247.9,-28 247.9,-28 247.9,-22 253.9,-16 259.9,-16 259.9,-16 352.93,-16 352.93,-16 358.93,-16 364.93,-22 364.93,-28 364.93,-28 364.93,-40 364.93,-40 364.93,-46 358.93,-52 352.93,-52"/>
<text xml:space="preserve" text-anchor="middle" x="306.42" y="-35.2" font-family="Helvetica,sans-Serif" font-size="9.00">FSM</text>
<text xml:space="preserve" text-anchor="middle" x="306.42" y="-25.45" font-family="Helvetica,sans-Serif" font-size="9.00">work orders · resolutions</text>
</g>
<!-- FSM&#45;&gt;MOCK -->
<g id="edge3" class="edge">
<title>FSM&#45;&gt;MOCK</title>
<path fill="none" stroke="#37474f" stroke-dasharray="5,2" d="M356.69,-52.43C365.47,-56.24 374.41,-60.49 382.56,-65 415.9,-83.45 450.94,-108.96 475.83,-128.28"/>
<polygon fill="#37474f" stroke="#37474f" points="473.63,-131 483.66,-134.42 477.95,-125.49 473.63,-131"/>
</g>
<!-- CLM -->
<g id="node4" class="node">
<title>CLM</title>
<path fill="#cfd8dc" stroke="black" d="M355.56,-113C355.56,-113 257.28,-113 257.28,-113 251.28,-113 245.28,-107 245.28,-101 245.28,-101 245.28,-89 245.28,-89 245.28,-83 251.28,-77 257.28,-77 257.28,-77 355.56,-77 355.56,-77 361.56,-77 367.56,-83 367.56,-89 367.56,-89 367.56,-101 367.56,-101 367.56,-107 361.56,-113 355.56,-113"/>
<text xml:space="preserve" text-anchor="middle" x="306.42" y="-96.2" font-family="Helvetica,sans-Serif" font-size="9.00">Claims</text>
<text xml:space="preserve" text-anchor="middle" x="306.42" y="-86.45" font-family="Helvetica,sans-Serif" font-size="9.00">closed claims · parts used</text>
</g>
<!-- CLM&#45;&gt;MOCK -->
<g id="edge4" class="edge">
<title>CLM&#45;&gt;MOCK</title>
<path fill="none" stroke="#37474f" stroke-dasharray="5,2" d="M367.95,-113.22C390.8,-120.1 416.98,-127.98 440.6,-135.09"/>
<polygon fill="#37474f" stroke="#37474f" points="439.56,-138.43 450.15,-137.96 441.58,-131.73 439.56,-138.43"/>
</g>
<!-- CONN -->
<g id="node10" class="node">
<title>CONN</title>
<path fill="#a5d6a7" stroke="black" d="M806.12,-405.38C806.12,-405.38 685.34,-405.38 685.34,-405.38 679.34,-405.38 673.34,-399.38 673.34,-393.38 673.34,-393.38 673.34,-376.62 673.34,-376.62 673.34,-370.62 679.34,-364.62 685.34,-364.62 685.34,-364.62 806.12,-364.62 806.12,-364.62 812.12,-364.62 818.12,-370.62 818.12,-376.62 818.12,-376.62 818.12,-393.38 818.12,-393.38 818.12,-399.38 812.12,-405.38 806.12,-405.38"/>
<text xml:space="preserve" text-anchor="middle" x="745.73" y="-391.07" font-family="Helvetica,sans-Serif" font-size="9.00">connectors/*</text>
<text xml:space="preserve" text-anchor="middle" x="745.73" y="-381.32" font-family="Helvetica,sans-Serif" font-size="9.00">PIM FSM Claims CRM</text>
<text xml:space="preserve" text-anchor="middle" x="745.73" y="-371.57" font-family="Helvetica,sans-Serif" font-size="9.00">runtime.parallel_map (workers)</text>
</g>
<!-- MOCK&#45;&gt;CONN -->
<g id="edge19" class="edge">
<title>MOCK&#45;&gt;CONN</title>
<path fill="none" stroke="#37474f" d="M533.13,-176.73C574.81,-217.75 667.9,-309.38 715.49,-356.22"/>
<polygon fill="#37474f" stroke="#37474f" points="712.89,-358.57 722.47,-363.09 717.8,-353.58 712.89,-358.57"/>
<text xml:space="preserve" text-anchor="middle" x="626.34" y="-292.41" font-family="Helvetica,sans-Serif" font-size="8.00">HTTP / fixtures</text>
</g>
<!-- OEM -->
<g id="node6" class="node">
<title>OEM</title>
<path fill="#d7ccc8" stroke="black" d="M177.28,-318C177.28,-318 28,-318 28,-318 22,-318 16,-312 16,-306 16,-306 16,-294 16,-294 16,-288 22,-282 28,-282 28,-282 177.28,-282 177.28,-282 183.28,-282 189.28,-288 189.28,-294 189.28,-294 189.28,-306 189.28,-306 189.28,-312 183.28,-318 177.28,-318"/>
<text xml:space="preserve" text-anchor="middle" x="102.64" y="-301.2" font-family="Helvetica,sans-Serif" font-size="9.00">oem_product_catalog.py</text>
<text xml:space="preserve" text-anchor="middle" x="102.64" y="-291.45" font-family="Helvetica,sans-Serif" font-size="9.00">OEM blueprints (symptoms, FM, steps)</text>
</g>
<!-- WCE -->
<g id="node7" class="node">
<title>WCE</title>
<path fill="#d7ccc8" stroke="black" d="M370.56,-318C370.56,-318 242.28,-318 242.28,-318 236.28,-318 230.28,-312 230.28,-306 230.28,-306 230.28,-294 230.28,-294 230.28,-288 236.28,-282 242.28,-282 242.28,-282 370.56,-282 370.56,-282 376.56,-282 382.56,-288 382.56,-294 382.56,-294 382.56,-306 382.56,-306 382.56,-312 376.56,-318 370.56,-318"/>
<text xml:space="preserve" text-anchor="middle" x="306.42" y="-301.2" font-family="Helvetica,sans-Serif" font-size="9.00">warranty_catalog_extensions.py</text>
<text xml:space="preserve" text-anchor="middle" x="306.42" y="-291.45" font-family="Helvetica,sans-Serif" font-size="9.00">Model · SKU · Component · Asset</text>
</g>
<!-- OEM&#45;&gt;WCE -->
<g id="edge5" class="edge">
<title>OEM&#45;&gt;WCE</title>
<path fill="none" stroke="#37474f" d="M189.51,-300C199.14,-300 208.97,-300 218.62,-300"/>
<polygon fill="#37474f" stroke="#37474f" points="218.33,-303.5 228.33,-300 218.33,-296.5 218.33,-303.5"/>
</g>
<!-- SYNC -->
<g id="node8" class="node">
<title>SYNC</title>
<path fill="#bcaaa4" stroke="black" d="M548.21,-318C548.21,-318 473.93,-318 473.93,-318 467.93,-318 461.93,-312 461.93,-306 461.93,-306 461.93,-294 461.93,-294 461.93,-288 467.93,-282 473.93,-282 473.93,-282 548.21,-282 548.21,-282 554.21,-282 560.21,-288 560.21,-294 560.21,-294 560.21,-306 560.21,-306 560.21,-312 554.21,-318 548.21,-318"/>
<text xml:space="preserve" text-anchor="middle" x="511.07" y="-301.95" font-family="Helvetica,sans-Serif" font-size="9.00">pim_blueprint_sync</text>
<text xml:space="preserve" text-anchor="middle" x="511.07" y="-292.2" font-family="Helvetica,sans-Serif" font-size="9.00">→ pim_catalog.json</text>
</g>
<!-- WCE&#45;&gt;SYNC -->
<g id="edge6" class="edge">
<title>WCE&#45;&gt;SYNC</title>
<path fill="none" stroke="#37474f" d="M382.88,-300C405.1,-300 429.1,-300 450.2,-300"/>
<polygon fill="#37474f" stroke="#37474f" points="450.08,-303.5 460.08,-300 450.08,-296.5 450.08,-303.5"/>
</g>
<!-- SYNC&#45;&gt;CONN -->
<g id="edge20" class="edge">
<title>SYNC&#45;&gt;CONN</title>
<path fill="none" stroke="#37474f" stroke-dasharray="5,2" d="M560.56,-317.72C594.26,-330.03 639.63,-346.6 676.9,-360.22"/>
<polygon fill="#37474f" stroke="#37474f" points="675.67,-363.5 686.27,-363.64 678.07,-356.92 675.67,-363.5"/>
<text xml:space="preserve" text-anchor="middle" x="626.34" y="-351.51" font-family="Helvetica,sans-Serif" font-size="8.00">fixtures</text>
</g>
<!-- ORCH -->
<g id="node9" class="node">
<title>ORCH</title>
<path fill="#81c784" stroke="black" stroke-width="2" d="M567.34,-450C567.34,-450 454.81,-450 454.81,-450 448.81,-450 442.81,-444 442.81,-438 442.81,-438 442.81,-426 442.81,-426 442.81,-420 448.81,-414 454.81,-414 454.81,-414 567.34,-414 567.34,-414 573.34,-414 579.34,-420 579.34,-426 579.34,-426 579.34,-438 579.34,-438 579.34,-444 573.34,-450 567.34,-450"/>
<text xml:space="preserve" text-anchor="middle" x="511.07" y="-433.2" font-family="Helvetica,sans-Serif" font-size="9.00">orchestrator.py</text>
<text xml:space="preserve" text-anchor="middle" x="511.07" y="-423.45" font-family="Helvetica,sans-Serif" font-size="9.00">1) ETL &#160;2) Smoke &#160;3) Promote</text>
</g>
<!-- ORCH&#45;&gt;CONN -->
<g id="edge7" class="edge">
<title>ORCH&#45;&gt;CONN</title>
<path fill="none" stroke="#37474f" d="M580.31,-418.22C605.77,-413.07 634.95,-407.18 661.61,-401.79"/>
<polygon fill="#37474f" stroke="#37474f" points="662.26,-405.23 671.37,-399.82 660.88,-398.37 662.26,-405.23"/>
</g>
<!-- SMOKE -->
<g id="node14" class="node">
<title>SMOKE</title>
<path fill="#ffcc80" stroke="black" d="M1310.96,-403C1310.96,-403 1233.68,-403 1233.68,-403 1227.68,-403 1221.68,-397 1221.68,-391 1221.68,-391 1221.68,-379 1221.68,-379 1221.68,-373 1227.68,-367 1233.68,-367 1233.68,-367 1310.96,-367 1310.96,-367 1316.96,-367 1322.96,-373 1322.96,-379 1322.96,-379 1322.96,-391 1322.96,-391 1322.96,-397 1316.96,-403 1310.96,-403"/>
<text xml:space="preserve" text-anchor="middle" x="1272.32" y="-386.2" font-family="Helvetica,sans-Serif" font-size="9.00">smoke_validation.py</text>
<text xml:space="preserve" text-anchor="middle" x="1272.32" y="-376.45" font-family="Helvetica,sans-Serif" font-size="9.00">enterprise scenarios</text>
</g>
<!-- ORCH&#45;&gt;SMOKE -->
<g id="edge25" class="edge">
<title>ORCH&#45;&gt;SMOKE</title>
<path fill="none" stroke="#37474f" stroke-dasharray="5,2" d="M548.87,-450.92C593.84,-472.25 672.85,-504 744.73,-504 744.73,-504 744.73,-504 1099.91,-504 1140.9,-504 1154,-500.84 1188.68,-479 1215.5,-462.1 1238.59,-433.94 1253.49,-412.83"/>
<polygon fill="#37474f" stroke="#37474f" points="1256.33,-414.89 1259.09,-404.66 1250.55,-410.94 1256.33,-414.89"/>
</g>
<!-- OB -->
<g id="node11" class="node">
<title>OB</title>
<path fill="#c8e6c9" stroke="black" d="M964.15,-405.38C964.15,-405.38 871.12,-405.38 871.12,-405.38 865.12,-405.38 859.12,-399.38 859.12,-393.38 859.12,-393.38 859.12,-376.62 859.12,-376.62 859.12,-370.62 865.12,-364.62 871.12,-364.62 871.12,-364.62 964.15,-364.62 964.15,-364.62 970.15,-364.62 976.15,-370.62 976.15,-376.62 976.15,-376.62 976.15,-393.38 976.15,-393.38 976.15,-399.38 970.15,-405.38 964.15,-405.38"/>
<text xml:space="preserve" text-anchor="middle" x="917.63" y="-391.07" font-family="Helvetica,sans-Serif" font-size="9.00">OntologyBuilder</text>
<text xml:space="preserve" text-anchor="middle" x="917.63" y="-381.32" font-family="Helvetica,sans-Serif" font-size="9.00">merge + provenance</text>
<text xml:space="preserve" text-anchor="middle" x="917.63" y="-371.57" font-family="Helvetica,sans-Serif" font-size="9.00">build_catalog_payload()</text>
</g>
<!-- CONN&#45;&gt;OB -->
<g id="edge8" class="edge">
<title>CONN&#45;&gt;OB</title>
<path fill="none" stroke="#37474f" d="M818.29,-385C827.9,-385 837.74,-385 847.31,-385"/>
<polygon fill="#37474f" stroke="#37474f" points="847.29,-388.5 857.29,-385 847.29,-381.5 847.29,-388.5"/>
</g>
<!-- CAT -->
<g id="node12" class="node">
<title>CAT</title>
<polygon fill="#fff9c4" stroke="black" points="1174.68,-405.38 1017.15,-405.38 1017.15,-364.62 1180.68,-364.62 1180.68,-399.38 1174.68,-405.38"/>
<polyline fill="none" stroke="black" points="1174.68,-405.38 1174.68,-399.38"/>
<polyline fill="none" stroke="black" points="1180.68,-399.38 1174.68,-399.38"/>
<text xml:space="preserve" text-anchor="middle" x="1098.91" y="-391.07" font-family="Helvetica,sans-Serif" font-size="9.00">Catalog JSON</text>
<text xml:space="preserve" text-anchor="middle" x="1098.91" y="-381.32" font-family="Helvetica,sans-Serif" font-size="9.00">enterprise_knowledge_catalog.json</text>
<text xml:space="preserve" text-anchor="middle" x="1098.91" y="-371.57" font-family="Helvetica,sans-Serif" font-size="9.00">synthetic_diagnosis_data.json</text>
</g>
<!-- OB&#45;&gt;CAT -->
<g id="edge9" class="edge">
<title>OB&#45;&gt;CAT</title>
<path fill="none" stroke="#37474f" d="M976.35,-385C985.72,-385 995.62,-385 1005.58,-385"/>
<polygon fill="#37474f" stroke="#37474f" points="1005.29,-388.5 1015.29,-385 1005.29,-381.5 1005.29,-388.5"/>
</g>
<!-- LIN -->
<g id="node13" class="node">
<title>LIN</title>
<polygon fill="#fffde7" stroke="black" points="1136.05,-466 1055.77,-466 1055.77,-430 1142.05,-430 1142.05,-460 1136.05,-466"/>
<polyline fill="none" stroke="black" points="1136.05,-466 1136.05,-460"/>
<polyline fill="none" stroke="black" points="1142.05,-460 1136.05,-460"/>
<text xml:space="preserve" text-anchor="middle" x="1098.91" y="-449.2" font-family="Helvetica,sans-Serif" font-size="9.00">lineage</text>
<text xml:space="preserve" text-anchor="middle" x="1098.91" y="-439.45" font-family="Helvetica,sans-Serif" font-size="9.00">etl_batches.jsonl</text>
</g>
<!-- OB&#45;&gt;LIN -->
<g id="edge10" class="edge">
<title>OB&#45;&gt;LIN</title>
<path fill="none" stroke="#37474f" stroke-dasharray="5,2" d="M976.35,-405.28C998.33,-413 1023.25,-421.76 1044.79,-429.33"/>
<polygon fill="#37474f" stroke="#37474f" points="1043.36,-432.54 1053.95,-432.55 1045.68,-425.93 1043.36,-432.54"/>
</g>
<!-- CAT&#45;&gt;SMOKE -->
<g id="edge21" class="edge">
<title>CAT&#45;&gt;SMOKE</title>
<path fill="none" stroke="#37474f" d="M1181.1,-385C1190.94,-385 1200.86,-385 1210.35,-385"/>
<polygon fill="#37474f" stroke="#37474f" points="1210.14,-388.5 1220.14,-385 1210.14,-381.5 1210.14,-388.5"/>
</g>
<!-- POP -->
<g id="node16" class="node">
<title>POP</title>
<path fill="#90caf9" stroke="black" d="M1699.52,-429.38C1699.52,-429.38 1611.74,-429.38 1611.74,-429.38 1605.74,-429.38 1599.74,-423.38 1599.74,-417.38 1599.74,-417.38 1599.74,-400.62 1599.74,-400.62 1599.74,-394.62 1605.74,-388.62 1611.74,-388.62 1611.74,-388.62 1699.52,-388.62 1699.52,-388.62 1705.52,-388.62 1711.52,-394.62 1711.52,-400.62 1711.52,-400.62 1711.52,-417.38 1711.52,-417.38 1711.52,-423.38 1705.52,-429.38 1699.52,-429.38"/>
<text xml:space="preserve" text-anchor="middle" x="1655.63" y="-415.07" font-family="Helvetica,sans-Serif" font-size="9.00">populate_graph.py</text>
<text xml:space="preserve" text-anchor="middle" x="1655.63" y="-405.32" font-family="Helvetica,sans-Serif" font-size="9.00">MERGE + constraints</text>
<text xml:space="preserve" text-anchor="middle" x="1655.63" y="-395.57" font-family="Helvetica,sans-Serif" font-size="9.00">Bolt pool (neo4j_client)</text>
</g>
<!-- CAT&#45;&gt;POP -->
<g id="edge22" class="edge">
<title>CAT&#45;&gt;POP</title>
<path fill="none" stroke="#37474f" d="M1164.26,-405.71C1172.7,-409.34 1181.06,-413.44 1188.68,-418 1201.38,-425.59 1199.83,-434.77 1213.68,-440 1360.49,-495.4 1412.07,-466.48 1566.74,-440 1575.7,-438.47 1584.95,-436.11 1593.95,-433.38"/>
<polygon fill="#37474f" stroke="#37474f" points="1594.88,-436.75 1603.31,-430.34 1592.72,-430.09 1594.88,-436.75"/>
<text xml:space="preserve" text-anchor="middle" x="1374.08" y="-473.01" font-family="Helvetica,sans-Serif" font-size="8.00">optional ETL load</text>
</g>
<!-- PROMO -->
<g id="node15" class="node">
<title>PROMO</title>
<path fill="#ffb74d" stroke="black" d="M1546.74,-403C1546.74,-403 1437.21,-403 1437.21,-403 1431.21,-403 1425.21,-397 1425.21,-391 1425.21,-391 1425.21,-379 1425.21,-379 1425.21,-373 1431.21,-367 1437.21,-367 1437.21,-367 1546.74,-367 1546.74,-367 1552.74,-367 1558.74,-373 1558.74,-379 1558.74,-379 1558.74,-391 1558.74,-391 1558.74,-397 1552.74,-403 1546.74,-403"/>
<text xml:space="preserve" text-anchor="middle" x="1491.97" y="-386.2" font-family="Helvetica,sans-Serif" font-size="9.00">staging_promotion.py</text>
<text xml:space="preserve" text-anchor="middle" x="1491.97" y="-376.45" font-family="Helvetica,sans-Serif" font-size="9.00">populate_graph if smoke OK</text>
</g>
<!-- SMOKE&#45;&gt;PROMO -->
<g id="edge11" class="edge">
<title>SMOKE&#45;&gt;PROMO</title>
<path fill="none" stroke="#37474f" d="M1323.25,-376.97C1349.96,-375.61 1383.45,-375.28 1413.46,-375.98"/>
<polygon fill="#37474f" stroke="#37474f" points="1413.16,-379.47 1423.25,-376.25 1413.36,-372.47 1413.16,-379.47"/>
</g>
<!-- SMOKE&#45;&gt;PROMO -->
<g id="edge26" class="edge">
<title>SMOKE&#45;&gt;PROMO</title>
<path fill="none" stroke="#37474f" d="M1323.25,-393.03C1349.96,-394.39 1383.45,-394.72 1413.46,-394.02"/>
<polygon fill="#37474f" stroke="#37474f" points="1413.36,-397.53 1423.25,-393.75 1413.16,-390.53 1413.36,-397.53"/>
</g>
<!-- PROMO&#45;&gt;POP -->
<g id="edge23" class="edge">
<title>PROMO&#45;&gt;POP</title>
<path fill="none" stroke="#37474f" d="M1559.19,-394.83C1568.78,-396.25 1578.65,-397.72 1588.25,-399.14"/>
<polygon fill="#37474f" stroke="#37474f" points="1587.44,-402.56 1597.85,-400.57 1588.47,-395.64 1587.44,-402.56"/>
</g>
<!-- NEO -->
<g id="node17" class="node">
<title>NEO</title>
<path fill="#64b5f6" stroke="black" stroke-width="2" d="M1899.55,-438.26C1899.55,-441.85 1866.6,-444.76 1826.03,-444.76 1785.47,-444.76 1752.52,-441.85 1752.52,-438.26 1752.52,-438.26 1752.52,-379.74 1752.52,-379.74 1752.52,-376.15 1785.47,-373.24 1826.03,-373.24 1866.6,-373.24 1899.55,-376.15 1899.55,-379.74 1899.55,-379.74 1899.55,-438.26 1899.55,-438.26"/>
<path fill="none" stroke="black" stroke-width="2" d="M1899.55,-438.26C1899.55,-434.67 1866.6,-431.76 1826.03,-431.76 1785.47,-431.76 1752.52,-434.67 1752.52,-438.26"/>
<text xml:space="preserve" text-anchor="middle" x="1826.03" y="-420.7" font-family="Helvetica,sans-Serif" font-size="9.00">Neo4j</text>
<text xml:space="preserve" text-anchor="middle" x="1826.03" y="-410.95" font-family="Helvetica,sans-Serif" font-size="9.00">:7687</text>
<text xml:space="preserve" text-anchor="middle" x="1826.03" y="-401.2" font-family="Helvetica,sans-Serif" font-size="9.00">Product→Symptom→FM→Part</text>
<text xml:space="preserve" text-anchor="middle" x="1826.03" y="-389.95" font-family="Helvetica,sans-Serif" font-size="9.00">Component BOM · NEXT_STEP</text>
</g>
<!-- POP&#45;&gt;NEO -->
<g id="edge12" class="edge">
<title>POP&#45;&gt;NEO</title>
<path fill="none" stroke="#37474f" d="M1711.77,-409C1720.94,-409 1730.64,-409 1740.34,-409"/>
<polygon fill="#37474f" stroke="#37474f" points="1740.19,-412.5 1750.19,-409 1740.19,-405.5 1740.19,-412.5"/>
</g>
<!-- CACHE -->
<g id="node18" class="node">
<title>CACHE</title>
<path fill="#bbdefb" stroke="black" d="M2101.58,-418.38C2101.58,-418.38 1991.3,-418.38 1991.3,-418.38 1985.3,-418.38 1979.3,-412.38 1979.3,-406.38 1979.3,-406.38 1979.3,-389.62 1979.3,-389.62 1979.3,-383.62 1985.3,-377.62 1991.3,-377.62 1991.3,-377.62 2101.58,-377.62 2101.58,-377.62 2107.58,-377.62 2113.58,-383.62 2113.58,-389.62 2113.58,-389.62 2113.58,-406.38 2113.58,-406.38 2113.58,-412.38 2107.58,-418.38 2101.58,-418.38"/>
<text xml:space="preserve" text-anchor="middle" x="2046.44" y="-404.07" font-family="Helvetica,sans-Serif" font-size="9.00">runtime cache</text>
<text xml:space="preserve" text-anchor="middle" x="2046.44" y="-394.32" font-family="Helvetica,sans-Serif" font-size="9.00">ontology + product subgraph</text>
<text xml:space="preserve" text-anchor="middle" x="2046.44" y="-384.57" font-family="Helvetica,sans-Serif" font-size="9.00">(Redis if REDIS_URL)</text>
</g>
<!-- NEO&#45;&gt;CACHE -->
<g id="edge13" class="edge">
<title>NEO&#45;&gt;CACHE</title>
<path fill="none" stroke="#37474f" stroke-dasharray="5,2" d="M1900.37,-405.31C1922,-404.22 1945.75,-403.02 1967.65,-401.92"/>
<polygon fill="#37474f" stroke="#37474f" points="1967.59,-405.43 1977.4,-401.43 1967.24,-398.43 1967.59,-405.43"/>
<text xml:space="preserve" text-anchor="middle" x="1939.42" y="-405.56" font-family="Helvetica,sans-Serif" font-size="8.00">read cache</text>
</g>
<!-- RAG -->
<g id="node23" class="node">
<title>RAG</title>
<path fill="#f8bbd0" stroke="black" d="M2700.89,-172.26C2700.89,-172.26 2608.61,-172.26 2608.61,-172.26 2602.61,-172.26 2596.61,-166.26 2596.61,-160.26 2596.61,-160.26 2596.61,-133.74 2596.61,-133.74 2596.61,-127.74 2602.61,-121.74 2608.61,-121.74 2608.61,-121.74 2700.89,-121.74 2700.89,-121.74 2706.89,-121.74 2712.89,-127.74 2712.89,-133.74 2712.89,-133.74 2712.89,-160.26 2712.89,-160.26 2712.89,-166.26 2706.89,-172.26 2700.89,-172.26"/>
<text xml:space="preserve" text-anchor="middle" x="2654.75" y="-157.95" font-family="Helvetica,sans-Serif" font-size="9.00">graph_rag.diagnose()</text>
<text xml:space="preserve" text-anchor="middle" x="2654.75" y="-148.2" font-family="Helvetica,sans-Serif" font-size="9.00">+ reliability FMEA/Bayes</text>
<text xml:space="preserve" text-anchor="middle" x="2654.75" y="-138.45" font-family="Helvetica,sans-Serif" font-size="9.00">+ diagnostic_engine</text>
<text xml:space="preserve" text-anchor="middle" x="2654.75" y="-128.7" font-family="Helvetica,sans-Serif" font-size="9.00">+ parts_predictor</text>
</g>
<!-- NEO&#45;&gt;RAG -->
<g id="edge24" class="edge">
<title>NEO&#45;&gt;RAG</title>
<path fill="none" stroke="#0d47a1" stroke-width="2" d="M1896.6,-442.89C1938.66,-460.34 1993.94,-478 2045.44,-478 2045.44,-478 2045.44,-478 2472.97,-478 2604.89,-478 2641.14,-272.99 2650.59,-185.65"/>
<polygon fill="#0d47a1" stroke="#0d47a1" stroke-width="2" points="2654.08,-186.01 2651.59,-175.71 2647.11,-185.31 2654.08,-186.01"/>
<text xml:space="preserve" text-anchor="middle" x="2250.45" y="-479.4" font-family="Helvetica,sans-Serif" font-size="8.00">Cypher multi&#45;hop</text>
</g>
<!-- REDIS -->
<g id="node25" class="node">
<title>REDIS</title>
<path fill="#ffcdd2" stroke="black" d="M2317.22,-349.45C2317.22,-351.59 2287.29,-353.33 2250.45,-353.33 2213.62,-353.33 2183.69,-351.59 2183.69,-349.45 2183.69,-349.45 2183.69,-314.55 2183.69,-314.55 2183.69,-312.41 2213.62,-310.67 2250.45,-310.67 2287.29,-310.67 2317.22,-312.41 2317.22,-314.55 2317.22,-314.55 2317.22,-349.45 2317.22,-349.45"/>
<path fill="none" stroke="black" d="M2317.22,-349.45C2317.22,-347.31 2287.29,-345.57 2250.45,-345.57 2213.62,-345.57 2183.69,-347.31 2183.69,-349.45"/>
<text xml:space="preserve" text-anchor="middle" x="2250.45" y="-333.2" font-family="Helvetica,sans-Serif" font-size="9.00">Redis (optional)</text>
<text xml:space="preserve" text-anchor="middle" x="2250.45" y="-323.45" font-family="Helvetica,sans-Serif" font-size="9.00">cache · rate · budget · inflight</text>
</g>
<!-- CACHE&#45;&gt;REDIS -->
<g id="edge29" class="edge">
<title>CACHE&#45;&gt;REDIS</title>
<path fill="none" stroke="#c62828" stroke-dasharray="1,5" d="M2111.36,-377.12C2132.03,-370.36 2155.11,-362.82 2176.39,-355.87"/>
<polygon fill="#c62828" stroke="#c62828" points="2177.48,-359.2 2185.89,-352.77 2175.3,-352.54 2177.48,-359.2"/>
</g>
<!-- UI -->
<g id="node19" class="node">
<title>UI</title>
<path fill="#ce93d8" stroke="black" d="M1842.17,-189C1842.17,-189 1809.89,-189 1809.89,-189 1803.89,-189 1797.89,-183 1797.89,-177 1797.89,-177 1797.89,-165 1797.89,-165 1797.89,-159 1803.89,-153 1809.89,-153 1809.89,-153 1842.17,-153 1842.17,-153 1848.17,-153 1854.17,-159 1854.17,-165 1854.17,-165 1854.17,-177 1854.17,-177 1854.17,-183 1848.17,-189 1842.17,-189"/>
<text xml:space="preserve" text-anchor="middle" x="1826.03" y="-172.2" font-family="Helvetica,sans-Serif" font-size="9.00">Next.js UI</text>
<text xml:space="preserve" text-anchor="middle" x="1826.03" y="-162.45" font-family="Helvetica,sans-Serif" font-size="9.00">:3000</text>
</g>
<!-- API -->
<g id="node20" class="node">
<title>API</title>
<path fill="#ba68c8" stroke="black" stroke-width="2" d="M2084.7,-196.26C2084.7,-196.26 2008.17,-196.26 2008.17,-196.26 2002.17,-196.26 1996.17,-190.26 1996.17,-184.26 1996.17,-184.26 1996.17,-157.74 1996.17,-157.74 1996.17,-151.74 2002.17,-145.74 2008.17,-145.74 2008.17,-145.74 2084.7,-145.74 2084.7,-145.74 2090.7,-145.74 2096.7,-151.74 2096.7,-157.74 2096.7,-157.74 2096.7,-184.26 2096.7,-184.26 2096.7,-190.26 2090.7,-196.26 2084.7,-196.26"/>
<text xml:space="preserve" text-anchor="middle" x="2046.44" y="-181.95" font-family="Helvetica,sans-Serif" font-size="9.00">FastAPI</text>
<text xml:space="preserve" text-anchor="middle" x="2046.44" y="-172.2" font-family="Helvetica,sans-Serif" font-size="9.00">:8080</text>
<text xml:space="preserve" text-anchor="middle" x="2046.44" y="-162.45" font-family="Helvetica,sans-Serif" font-size="9.00">rate limit · admission</text>
<text xml:space="preserve" text-anchor="middle" x="2046.44" y="-152.7" font-family="Helvetica,sans-Serif" font-size="9.00">guardrails · OTEL</text>
</g>
<!-- UI&#45;&gt;API -->
<g id="edge14" class="edge">
<title>UI&#45;&gt;API</title>
<path fill="none" stroke="#37474f" d="M1854.25,-171C1886.52,-171 1941.28,-171 1983.94,-171"/>
<polygon fill="#37474f" stroke="#37474f" points="1983.83,-174.5 1993.83,-171 1983.83,-167.5 1983.83,-174.5"/>
</g>
<!-- SVC -->
<g id="node21" class="node">
<title>SVC</title>
<path fill="#e1bee7" stroke="black" d="M2287.97,-135C2287.97,-135 2212.94,-135 2212.94,-135 2206.94,-135 2200.94,-129 2200.94,-123 2200.94,-123 2200.94,-111 2200.94,-111 2200.94,-105 2206.94,-99 2212.94,-99 2212.94,-99 2287.97,-99 2287.97,-99 2293.97,-99 2299.97,-105 2299.97,-111 2299.97,-111 2299.97,-123 2299.97,-123 2299.97,-129 2293.97,-135 2287.97,-135"/>
<text xml:space="preserve" text-anchor="middle" x="2250.45" y="-118.2" font-family="Helvetica,sans-Serif" font-size="9.00">diagnosis_service</text>
<text xml:space="preserve" text-anchor="middle" x="2250.45" y="-108.45" font-family="Helvetica,sans-Serif" font-size="9.00">run_full_diagnosis()</text>
</g>
<!-- API&#45;&gt;SVC -->
<g id="edge15" class="edge">
<title>API&#45;&gt;SVC</title>
<path fill="none" stroke="#37474f" d="M2097.64,-157.58C2125.51,-150.13 2160.36,-140.82 2189.64,-132.99"/>
<polygon fill="#37474f" stroke="#37474f" points="2190.35,-136.42 2199.1,-130.46 2188.54,-129.66 2190.35,-136.42"/>
</g>
<!-- CLAIM -->
<g id="node24" class="node">
<title>CLAIM</title>
<path fill="#f48fb1" stroke="black" d="M2285.34,-196C2285.34,-196 2215.57,-196 2215.57,-196 2209.57,-196 2203.57,-190 2203.57,-184 2203.57,-184 2203.57,-172 2203.57,-172 2203.57,-166 2209.57,-160 2215.57,-160 2215.57,-160 2285.34,-160 2285.34,-160 2291.34,-160 2297.34,-166 2297.34,-172 2297.34,-172 2297.34,-184 2297.34,-184 2297.34,-190 2291.34,-196 2285.34,-196"/>
<text xml:space="preserve" text-anchor="middle" x="2250.45" y="-179.2" font-family="Helvetica,sans-Serif" font-size="9.00">claims_workflow</text>
<text xml:space="preserve" text-anchor="middle" x="2250.45" y="-169.45" font-family="Helvetica,sans-Serif" font-size="9.00">warranty_eligibility</text>
</g>
<!-- API&#45;&gt;CLAIM -->
<g id="edge18" class="edge">
<title>API&#45;&gt;CLAIM</title>
<path fill="none" stroke="#37474f" d="M2097.64,-172.74C2126.21,-173.73 2162.12,-174.97 2191.84,-176"/>
<polygon fill="#37474f" stroke="#37474f" points="2191.69,-179.5 2201.81,-176.35 2191.94,-172.5 2191.69,-179.5"/>
</g>
<!-- API&#45;&gt;REDIS -->
<g id="edge27" class="edge">
<title>API&#45;&gt;REDIS</title>
<path fill="none" stroke="#c62828" stroke-dasharray="1,5" d="M2061.51,-197.14C2078.2,-225.8 2108.62,-271.26 2146.58,-298 2154.57,-303.63 2163.55,-308.37 2172.8,-312.36"/>
<polygon fill="#c62828" stroke="#c62828" points="2171.32,-315.53 2181.9,-315.98 2173.91,-309.03 2171.32,-315.53"/>
</g>
<!-- SQLITE -->
<g id="node26" class="node">
<title>SQLITE</title>
<path fill="#dcedc8" stroke="black" d="M2314.22,-281.45C2314.22,-283.59 2285.64,-285.33 2250.45,-285.33 2215.27,-285.33 2186.69,-283.59 2186.69,-281.45 2186.69,-281.45 2186.69,-246.55 2186.69,-246.55 2186.69,-244.41 2215.27,-242.67 2250.45,-242.67 2285.64,-242.67 2314.22,-244.41 2314.22,-246.55 2314.22,-246.55 2314.22,-281.45 2314.22,-281.45"/>
<path fill="none" stroke="black" d="M2314.22,-281.45C2314.22,-279.31 2285.64,-277.57 2250.45,-277.57 2215.27,-277.57 2186.69,-279.31 2186.69,-281.45"/>
<text xml:space="preserve" text-anchor="middle" x="2250.45" y="-265.2" font-family="Helvetica,sans-Serif" font-size="9.00">SQLite ops</text>
<text xml:space="preserve" text-anchor="middle" x="2250.45" y="-255.45" font-family="Helvetica,sans-Serif" font-size="9.00">claims · escalations · cases</text>
</g>
<!-- API&#45;&gt;SQLITE -->
<g id="edge28" class="edge">
<title>API&#45;&gt;SQLITE</title>
<path fill="none" stroke="#558b2f" stroke-dasharray="1,5" d="M2083.79,-197C2102,-209.16 2124.76,-223.11 2146.58,-233 2155.81,-237.19 2165.76,-240.99 2175.7,-244.39"/>
<polygon fill="#558b2f" stroke="#558b2f" points="2174.43,-247.66 2185.02,-247.45 2176.61,-241.01 2174.43,-247.66"/>
</g>
<!-- LG -->
<g id="node22" class="node">
<title>LG</title>
<path fill="#e1bee7" stroke="black" d="M2543.61,-149C2543.61,-149 2400.33,-149 2400.33,-149 2394.33,-149 2388.33,-143 2388.33,-137 2388.33,-137 2388.33,-125 2388.33,-125 2388.33,-119 2394.33,-113 2400.33,-113 2400.33,-113 2543.61,-113 2543.61,-113 2549.61,-113 2555.61,-119 2555.61,-125 2555.61,-125 2555.61,-137 2555.61,-137 2555.61,-143 2549.61,-149 2543.61,-149"/>
<text xml:space="preserve" text-anchor="middle" x="2471.97" y="-132.95" font-family="Helvetica,sans-Serif" font-size="9.00">LangGraph</text>
<text xml:space="preserve" text-anchor="middle" x="2471.97" y="-123.2" font-family="Helvetica,sans-Serif" font-size="9.00">detect→diagnose→format→escalate</text>
</g>
<!-- SVC&#45;&gt;LG -->
<g id="edge16" class="edge">
<title>SVC&#45;&gt;LG</title>
<path fill="none" stroke="#37474f" d="M2300.45,-120.12C2323,-121.56 2350.56,-123.32 2376.88,-125"/>
<polygon fill="#37474f" stroke="#37474f" points="2376.36,-128.47 2386.56,-125.62 2376.8,-121.49 2376.36,-128.47"/>
</g>
<!-- LG&#45;&gt;RAG -->
<g id="edge17" class="edge">
<title>LG&#45;&gt;RAG</title>
<path fill="none" stroke="#37474f" d="M2555.95,-138.34C2565.65,-139.2 2575.47,-140.07 2584.95,-140.91"/>
<polygon fill="#37474f" stroke="#37474f" points="2584.53,-144.39 2594.8,-141.78 2585.15,-137.41 2584.53,-144.39"/>
</g>
<!-- SETT -->
<g id="node27" class="node">
<title>SETT</title>
<path fill="#e0e0e0" stroke="black" d="M2320.22,-414C2320.22,-414 2180.69,-414 2180.69,-414 2174.69,-414 2168.69,-408 2168.69,-402 2168.69,-402 2168.69,-390 2168.69,-390 2168.69,-384 2174.69,-378 2180.69,-378 2180.69,-378 2320.22,-378 2320.22,-378 2326.22,-378 2332.22,-384 2332.22,-390 2332.22,-390 2332.22,-402 2332.22,-402 2332.22,-408 2326.22,-414 2320.22,-414"/>
<text xml:space="preserve" text-anchor="middle" x="2250.45" y="-397.2" font-family="Helvetica,sans-Serif" font-size="9.00">config/settings.py</text>
<text xml:space="preserve" text-anchor="middle" x="2250.45" y="-387.45" font-family="Helvetica,sans-Serif" font-size="9.00">paths · pools · REDIS_URL · tenants</text>
</g>
</g>
</svg>
