<?xml version="1.0" encoding="UTF-8" standalone="no"?>
<!DOCTYPE svg PUBLIC "-//W3C//DTD SVG 1.1//EN"
 "http://www.w3.org/Graphics/SVG/1.1/DTD/svg11.dtd">
<!-- Generated by graphviz version 14.1.5 (20260411.2331)
 -->
<!-- Title: EnterpriseNetworkTopology Pages: 1 -->
<svg width="1822pt" height="540pt"
 viewBox="0.00 0.00 1822.00 540.00" xmlns="http://www.w3.org/2000/svg" xmlns:xlink="http://www.w3.org/1999/xlink">
<g id="graph0" class="graph" transform="scale(1 1) rotate(0) translate(25.2 514.95)">
<title>EnterpriseNetworkTopology</title>
<polygon fill="white" stroke="none" points="-25.2,25.2 -25.2,-514.95 1797.2,-514.95 1797.2,25.2 -25.2,25.2"/>
<text xml:space="preserve" text-anchor="middle" x="886" y="-472.45" font-family="Helvetica,sans-Serif" font-size="14.00">40 — Enterprise Network Topology</text>
<text xml:space="preserve" text-anchor="middle" x="886" y="-457.45" font-family="Helvetica,sans-Serif" font-size="14.00">(Client · Edge · App · Data · Integration · Ops) &#160;| &#160;Ports &amp; protocols as built / production&#45;ready</text>
<g id="clust1" class="cluster">
<title>cluster_users</title>
<path fill="#efebe9" stroke="#5d4037" d="M1330,-368.75C1330,-368.75 1698,-368.75 1698,-368.75 1704,-368.75 1710,-374.75 1710,-380.75 1710,-380.75 1710,-431.75 1710,-431.75 1710,-437.75 1704,-443.75 1698,-443.75 1698,-443.75 1330,-443.75 1330,-443.75 1324,-443.75 1318,-437.75 1318,-431.75 1318,-431.75 1318,-380.75 1318,-380.75 1318,-374.75 1324,-368.75 1330,-368.75"/>
<text xml:space="preserve" text-anchor="middle" x="1514" y="-426.45" font-family="Helvetica,sans-Serif" font-size="14.00">Users &amp; Channels</text>
</g>
<g id="clust2" class="cluster">
<title>cluster_edge</title>
<path fill="#e3f2fd" stroke="#1565c0" d="M1448,-265.5C1448,-265.5 1752,-265.5 1752,-265.5 1758,-265.5 1764,-271.5 1764,-277.5 1764,-277.5 1764,-329.75 1764,-329.75 1764,-335.75 1758,-341.75 1752,-341.75 1752,-341.75 1448,-341.75 1448,-341.75 1442,-341.75 1436,-335.75 1436,-329.75 1436,-329.75 1436,-277.5 1436,-277.5 1436,-271.5 1442,-265.5 1448,-265.5"/>
<text xml:space="preserve" text-anchor="middle" x="1600" y="-324.45" font-family="Helvetica,sans-Serif" font-size="14.00">Edge / Ingress (prod: K8s Ingress · demo: localhost)</text>
</g>
<g id="clust3" class="cluster">
<title>cluster_dmz_app</title>
<path fill="#f3e5f5" stroke="#6a1b9a" d="M1281,-21.69C1281,-21.69 1403,-21.69 1403,-21.69 1409,-21.69 1415,-27.69 1415,-33.69 1415,-33.69 1415,-329.75 1415,-329.75 1415,-335.75 1409,-341.75 1403,-341.75 1403,-341.75 1281,-341.75 1281,-341.75 1275,-341.75 1269,-335.75 1269,-329.75 1269,-329.75 1269,-33.69 1269,-33.69 1269,-27.69 1275,-21.69 1281,-21.69"/>
<text xml:space="preserve" text-anchor="middle" x="1342" y="-324.45" font-family="Helvetica,sans-Serif" font-size="14.00">Application Tier</text>
</g>
<g id="clust4" class="cluster">
<title>cluster_data</title>
<path fill="#e8f5e9" stroke="#2e7d32" d="M620,-8C620,-8 1249,-8 1249,-8 1255,-8 1261,-14 1261,-20 1261,-20 1261,-99.62 1261,-99.62 1261,-105.62 1255,-111.62 1249,-111.62 1249,-111.62 620,-111.62 620,-111.62 614,-111.62 608,-105.62 608,-99.62 608,-99.62 608,-20 608,-20 608,-14 614,-8 620,-8"/>
<text xml:space="preserve" text-anchor="middle" x="934.5" y="-94.33" font-family="Helvetica,sans-Serif" font-size="14.00">Data Tier (cluster / VPC private)</text>
</g>
<g id="clust5" class="cluster">
<title>cluster_batch</title>
<path fill="#fff3e0" stroke="#ef6c00" d="M460,-151.75C460,-151.75 582,-151.75 582,-151.75 588,-151.75 594,-157.75 594,-163.75 594,-163.75 594,-217.5 594,-217.5 594,-223.5 588,-229.5 582,-229.5 582,-229.5 460,-229.5 460,-229.5 454,-229.5 448,-223.5 448,-217.5 448,-217.5 448,-163.75 448,-163.75 448,-157.75 454,-151.75 460,-151.75"/>
<text xml:space="preserve" text-anchor="middle" x="521" y="-212.2" font-family="Helvetica,sans-Serif" font-size="14.00">Batch / Jobs</text>
</g>
<g id="clust6" class="cluster">
<title>cluster_enterprise</title>
<path fill="#eceff1" stroke="#455a64" d="M20,-22.31C20,-22.31 584,-22.31 584,-22.31 590,-22.31 596,-28.31 596,-34.31 596,-34.31 596,-85.31 596,-85.31 596,-91.31 590,-97.31 584,-97.31 584,-97.31 20,-97.31 20,-97.31 14,-97.31 8,-91.31 8,-85.31 8,-85.31 8,-34.31 8,-34.31 8,-28.31 14,-22.31 20,-22.31"/>
<text xml:space="preserve" text-anchor="middle" x="302" y="-80.01" font-family="Helvetica,sans-Serif" font-size="14.00">Enterprise Integration Zone (prod URLs via settings)</text>
</g>
<g id="clust7" class="cluster">
<title>cluster_ops</title>
<path fill="#fafafa" stroke="#37474f" d="M863,-265.5C863,-265.5 1249,-265.5 1249,-265.5 1255,-265.5 1261,-271.5 1261,-277.5 1261,-277.5 1261,-431.75 1261,-431.75 1261,-437.75 1255,-443.75 1249,-443.75 1249,-443.75 863,-443.75 863,-443.75 857,-443.75 851,-437.75 851,-431.75 851,-431.75 851,-277.5 851,-277.5 851,-271.5 857,-265.5 863,-265.5"/>
<text xml:space="preserve" text-anchor="middle" x="1056" y="-426.45" font-family="Helvetica,sans-Serif" font-size="14.00">Observability &amp; Delivery</text>
</g>
<!-- AGENT -->
<g id="node1" class="node">
<title>AGENT</title>
<path fill="#d7ccc8" stroke="black" d="M1556.75,-412.75C1556.75,-412.75 1479.25,-412.75 1479.25,-412.75 1473.25,-412.75 1467.25,-406.75 1467.25,-400.75 1467.25,-400.75 1467.25,-388.75 1467.25,-388.75 1467.25,-382.75 1473.25,-376.75 1479.25,-376.75 1479.25,-376.75 1556.75,-376.75 1556.75,-376.75 1562.75,-376.75 1568.75,-382.75 1568.75,-388.75 1568.75,-388.75 1568.75,-400.75 1568.75,-400.75 1568.75,-406.75 1562.75,-412.75 1556.75,-412.75"/>
<text xml:space="preserve" text-anchor="middle" x="1518" y="-395.95" font-family="Helvetica,sans-Serif" font-size="9.00">Contact&#45;center agent</text>
<text xml:space="preserve" text-anchor="middle" x="1518" y="-386.2" font-family="Helvetica,sans-Serif" font-size="9.00">/ CSR browser</text>
</g>
<!-- ING -->
<g id="node4" class="node">
<title>ING</title>
<path fill="#90caf9" stroke="black" d="M1565.75,-310.75C1565.75,-310.75 1470.25,-310.75 1470.25,-310.75 1464.25,-310.75 1458.25,-304.75 1458.25,-298.75 1458.25,-298.75 1458.25,-285.5 1458.25,-285.5 1458.25,-279.5 1464.25,-273.5 1470.25,-273.5 1470.25,-273.5 1565.75,-273.5 1565.75,-273.5 1571.75,-273.5 1577.75,-279.5 1577.75,-285.5 1577.75,-285.5 1577.75,-298.75 1577.75,-298.75 1577.75,-304.75 1571.75,-310.75 1565.75,-310.75"/>
<text xml:space="preserve" text-anchor="middle" x="1518" y="-298.2" font-family="Helvetica,sans-Serif" font-size="9.00">Ingress / reverse proxy</text>
<text xml:space="preserve" text-anchor="middle" x="1518" y="-288.45" font-family="Helvetica,sans-Serif" font-size="9.00">diagnostics.example.com</text>
<text xml:space="preserve" text-anchor="middle" x="1518" y="-278.7" font-family="Helvetica,sans-Serif" font-size="9.00">TLS termination</text>
</g>
<!-- AGENT&#45;&gt;ING -->
<g id="edge1" class="edge">
<title>AGENT&#45;&gt;ING</title>
<path fill="none" stroke="#37474f" d="M1518,-376.68C1518,-361.83 1518,-339.98 1518,-322.35"/>
<polygon fill="#37474f" stroke="#37474f" points="1521.5,-322.47 1518,-312.47 1514.5,-322.47 1521.5,-322.47"/>
<text xml:space="preserve" text-anchor="middle" x="1531.5" y="-351.15" font-family="Helvetica,sans-Serif" font-size="8.00">HTTPS</text>
</g>
<!-- CUST -->
<g id="node2" class="node">
<title>CUST</title>
<path fill="#e0e0e0" stroke="black" stroke-dasharray="5,2" d="M1690.25,-412.75C1690.25,-412.75 1609.75,-412.75 1609.75,-412.75 1603.75,-412.75 1597.75,-406.75 1597.75,-400.75 1597.75,-400.75 1597.75,-388.75 1597.75,-388.75 1597.75,-382.75 1603.75,-376.75 1609.75,-376.75 1609.75,-376.75 1690.25,-376.75 1690.25,-376.75 1696.25,-376.75 1702.25,-382.75 1702.25,-388.75 1702.25,-388.75 1702.25,-400.75 1702.25,-400.75 1702.25,-406.75 1696.25,-412.75 1690.25,-412.75"/>
<text xml:space="preserve" text-anchor="middle" x="1650" y="-395.95" font-family="Helvetica,sans-Serif" font-size="9.00">Customer self&#45;service</text>
<text xml:space="preserve" text-anchor="middle" x="1650" y="-386.2" font-family="Helvetica,sans-Serif" font-size="9.00">(future channel)</text>
</g>
<!-- CUST&#45;&gt;ING -->
<g id="edge2" class="edge">
<title>CUST&#45;&gt;ING</title>
<path fill="none" stroke="#37474f" stroke-dasharray="5,2" d="M1627.31,-376.45C1606.22,-360.38 1574.58,-336.26 1550.76,-318.1"/>
<polygon fill="#37474f" stroke="#37474f" points="1553.01,-315.41 1542.93,-312.13 1548.76,-320.98 1553.01,-315.41"/>
</g>
<!-- ADMIN -->
<g id="node3" class="node">
<title>ADMIN</title>
<path fill="#d7ccc8" stroke="black" d="M1426.38,-412.75C1426.38,-412.75 1337.62,-412.75 1337.62,-412.75 1331.62,-412.75 1325.62,-406.75 1325.62,-400.75 1325.62,-400.75 1325.62,-388.75 1325.62,-388.75 1325.62,-382.75 1331.62,-376.75 1337.62,-376.75 1337.62,-376.75 1426.38,-376.75 1426.38,-376.75 1432.38,-376.75 1438.38,-382.75 1438.38,-388.75 1438.38,-388.75 1438.38,-400.75 1438.38,-400.75 1438.38,-406.75 1432.38,-412.75 1426.38,-412.75"/>
<text xml:space="preserve" text-anchor="middle" x="1382" y="-395.95" font-family="Helvetica,sans-Serif" font-size="9.00">Knowledge / ETL admin</text>
<text xml:space="preserve" text-anchor="middle" x="1382" y="-386.2" font-family="Helvetica,sans-Serif" font-size="9.00">X&#45;Admin&#45;Token</text>
</g>
<!-- ADMIN&#45;&gt;ING -->
<g id="edge3" class="edge">
<title>ADMIN&#45;&gt;ING</title>
<path fill="none" stroke="#37474f" d="M1405.38,-376.45C1427.2,-360.31 1459.99,-336.05 1484.57,-317.86"/>
<polygon fill="#37474f" stroke="#37474f" points="1486.38,-320.88 1492.33,-312.11 1482.21,-315.25 1486.38,-320.88"/>
</g>
<!-- UI -->
<g id="node6" class="node">
<title>UI</title>
<path fill="#ce93d8" stroke="black" d="M1389,-310.75C1389,-310.75 1289,-310.75 1289,-310.75 1283,-310.75 1277,-304.75 1277,-298.75 1277,-298.75 1277,-285.5 1277,-285.5 1277,-279.5 1283,-273.5 1289,-273.5 1289,-273.5 1389,-273.5 1389,-273.5 1395,-273.5 1401,-279.5 1401,-285.5 1401,-285.5 1401,-298.75 1401,-298.75 1401,-304.75 1395,-310.75 1389,-310.75"/>
<text xml:space="preserve" text-anchor="middle" x="1339" y="-298.2" font-family="Helvetica,sans-Serif" font-size="9.00">Frontend</text>
<text xml:space="preserve" text-anchor="middle" x="1339" y="-288.45" font-family="Helvetica,sans-Serif" font-size="9.00">Next.js :3000</text>
<text xml:space="preserve" text-anchor="middle" x="1339" y="-278.7" font-family="Helvetica,sans-Serif" font-size="9.00">(React Query client cache)</text>
</g>
<!-- ING&#45;&gt;UI -->
<g id="edge4" class="edge">
<title>ING&#45;&gt;UI</title>
<path fill="none" stroke="#37474f" d="M1457.98,-292.12C1443.46,-292.12 1427.79,-292.12 1412.72,-292.12"/>
<polygon fill="#37474f" stroke="#37474f" points="1412.87,-288.63 1402.87,-292.13 1412.87,-295.63 1412.87,-288.63"/>
<text xml:space="preserve" text-anchor="middle" x="1429.62" y="-296.52" font-family="Helvetica,sans-Serif" font-size="8.00">/ &#160;:3000</text>
</g>
<!-- API -->
<g id="node7" class="node">
<title>API</title>
<path fill="#ba68c8" stroke="black" stroke-width="2" d="M1395.38,-202.62C1395.38,-202.62 1288.62,-202.62 1288.62,-202.62 1282.62,-202.62 1276.62,-196.62 1276.62,-190.62 1276.62,-190.62 1276.62,-167.62 1276.62,-167.62 1276.62,-161.62 1282.62,-155.62 1288.62,-155.62 1288.62,-155.62 1395.38,-155.62 1395.38,-155.62 1401.38,-155.62 1407.38,-161.62 1407.38,-167.62 1407.38,-167.62 1407.38,-190.62 1407.38,-190.62 1407.38,-196.62 1401.38,-202.62 1395.38,-202.62"/>
<text xml:space="preserve" text-anchor="middle" x="1342" y="-190.07" font-family="Helvetica,sans-Serif" font-size="9.00">Diagnostics API</text>
<text xml:space="preserve" text-anchor="middle" x="1342" y="-180.32" font-family="Helvetica,sans-Serif" font-size="9.00">FastAPI / Uvicorn :8080</text>
<text xml:space="preserve" text-anchor="middle" x="1342" y="-170.57" font-family="Helvetica,sans-Serif" font-size="9.00">/diagnose · /graph/* · /claims</text>
<text xml:space="preserve" text-anchor="middle" x="1342" y="-160.82" font-family="Helvetica,sans-Serif" font-size="9.00">/admin/pipeline/* · /health</text>
</g>
<!-- ING&#45;&gt;API -->
<g id="edge5" class="edge">
<title>ING&#45;&gt;API</title>
<path fill="none" stroke="#37474f" d="M1495.54,-273.16C1481.62,-262.34 1463.17,-248.55 1446,-237.5 1430.57,-227.56 1413.29,-217.6 1397.32,-208.83"/>
<polygon fill="#37474f" stroke="#37474f" points="1399.36,-205.95 1388.9,-204.25 1396.02,-212.1 1399.36,-205.95"/>
<text xml:space="preserve" text-anchor="middle" x="1489.15" y="-243.4" font-family="Helvetica,sans-Serif" font-size="8.00">/api &#160;:8080</text>
</g>
<!-- CORS -->
<g id="node5" class="node">
<title>CORS</title>
<path fill="#bbdefb" stroke="black" d="M1673.12,-310.12C1673.12,-310.12 1618.88,-310.12 1618.88,-310.12 1612.88,-310.12 1606.88,-304.12 1606.88,-298.12 1606.88,-298.12 1606.88,-286.12 1606.88,-286.12 1606.88,-280.12 1612.88,-274.12 1618.88,-274.12 1618.88,-274.12 1673.12,-274.12 1673.12,-274.12 1679.12,-274.12 1685.12,-280.12 1685.12,-286.12 1685.12,-286.12 1685.12,-298.12 1685.12,-298.12 1685.12,-304.12 1679.12,-310.12 1673.12,-310.12"/>
<text xml:space="preserve" text-anchor="middle" x="1646" y="-294.07" font-family="Helvetica,sans-Serif" font-size="9.00">CORS</text>
<text xml:space="preserve" text-anchor="middle" x="1646" y="-284.32" font-family="Helvetica,sans-Serif" font-size="9.00">UI origin → API</text>
</g>
<!-- UI&#45;&gt;CORS -->
<!-- UI&#45;&gt;API -->
<g id="edge6" class="edge">
<title>UI&#45;&gt;API</title>
<path fill="none" stroke="#37474f" d="M1339.48,-273.29C1339.91,-257.56 1340.54,-234.18 1341.06,-214.78"/>
<polygon fill="#37474f" stroke="#37474f" points="1344.56,-214.92 1341.33,-204.83 1337.56,-214.73 1344.56,-214.92"/>
<text xml:space="preserve" text-anchor="middle" x="1389.54" y="-247.9" font-family="Helvetica,sans-Serif" font-size="8.00">JSON REST</text>
<text xml:space="preserve" text-anchor="middle" x="1389.54" y="-238.9" font-family="Helvetica,sans-Serif" font-size="8.00">X&#45;Tenant&#45;Id · X&#45;Request&#45;ID</text>
</g>
<!-- API&#45;&gt;CORS -->
<!-- MOCK -->
<g id="node8" class="node">
<title>MOCK</title>
<path fill="#ffe082" stroke="black" d="M1380.25,-66.94C1380.25,-66.94 1293.75,-66.94 1293.75,-66.94 1287.75,-66.94 1281.75,-60.94 1281.75,-54.94 1281.75,-54.94 1281.75,-41.69 1281.75,-41.69 1281.75,-35.69 1287.75,-29.69 1293.75,-29.69 1293.75,-29.69 1380.25,-29.69 1380.25,-29.69 1386.25,-29.69 1392.25,-35.69 1392.25,-41.69 1392.25,-41.69 1392.25,-54.94 1392.25,-54.94 1392.25,-60.94 1386.25,-66.94 1380.25,-66.94"/>
<text xml:space="preserve" text-anchor="middle" x="1337" y="-54.39" font-family="Helvetica,sans-Serif" font-size="9.00">Mock Enterprise Apps</text>
<text xml:space="preserve" text-anchor="middle" x="1337" y="-44.64" font-family="Helvetica,sans-Serif" font-size="9.00">FastAPI :8090</text>
<text xml:space="preserve" text-anchor="middle" x="1337" y="-34.89" font-family="Helvetica,sans-Serif" font-size="9.00">/api/pim|crm|claims|fsm</text>
</g>
<!-- API&#45;&gt;MOCK -->
<g id="edge21" class="edge">
<title>API&#45;&gt;MOCK</title>
<path fill="none" stroke="#37474f" stroke-dasharray="5,2" d="M1341.09,-154.8C1340.26,-133.41 1339.03,-101.65 1338.14,-78.57"/>
<polygon fill="#37474f" stroke="#37474f" points="1341.63,-78.45 1337.75,-68.59 1334.64,-78.72 1341.63,-78.45"/>
<text xml:space="preserve" text-anchor="middle" x="1376.01" y="-125.53" font-family="Helvetica,sans-Serif" font-size="8.00">CRM enrich (demo)</text>
</g>
<!-- NEO -->
<g id="node9" class="node">
<title>NEO</title>
<path fill="#81c784" stroke="black" stroke-width="2" d="M949.12,-74.75C949.12,-77.99 912.76,-80.62 868,-80.62 823.24,-80.62 786.88,-77.99 786.88,-74.75 786.88,-74.75 786.88,-21.88 786.88,-21.88 786.88,-18.63 823.24,-16 868,-16 912.76,-16 949.12,-18.63 949.12,-21.88 949.12,-21.88 949.12,-74.75 949.12,-74.75"/>
<path fill="none" stroke="black" stroke-width="2" d="M949.12,-74.75C949.12,-71.51 912.76,-68.88 868,-68.88 823.24,-68.88 786.88,-71.51 786.88,-74.75"/>
<text xml:space="preserve" text-anchor="middle" x="868" y="-59.26" font-family="Helvetica,sans-Serif" font-size="9.00">Neo4j StatefulSet</text>
<text xml:space="preserve" text-anchor="middle" x="868" y="-49.51" font-family="Helvetica,sans-Serif" font-size="9.00">Bolt :7687 &#160;Browser :7474</text>
<text xml:space="preserve" text-anchor="middle" x="868" y="-39.76" font-family="Helvetica,sans-Serif" font-size="9.00">Knowledge graph (MERGE catalog)</text>
<text xml:space="preserve" text-anchor="middle" x="868" y="-30.01" font-family="Helvetica,sans-Serif" font-size="9.00">max_connection_pool_size</text>
</g>
<!-- API&#45;&gt;NEO -->
<g id="edge9" class="edge">
<title>API&#45;&gt;NEO</title>
<path fill="none" stroke="#1b5e20" stroke-width="2" d="M1275.87,-170.95C1225.15,-164.59 1153.7,-153.79 1092.5,-137.62 1070.27,-131.76 1066.4,-124.81 1044,-119.62 1009.19,-111.56 997.71,-123.46 964,-111.62 948.47,-106.17 932.93,-97.72 919.03,-88.78"/>
<polygon fill="#1b5e20" stroke="#1b5e20" stroke-width="2" points="921.02,-85.91 910.77,-83.25 917.12,-91.72 921.02,-85.91"/>
<text xml:space="preserve" text-anchor="middle" x="1099.25" y="-125.53" font-family="Helvetica,sans-Serif" font-size="8.00">Bolt</text>
</g>
<!-- REDIS -->
<g id="node10" class="node">
<title>REDIS</title>
<path fill="#ef9a9a" stroke="black" d="M1097.38,-74.75C1097.38,-77.99 1070.76,-80.62 1038,-80.62 1005.24,-80.62 978.62,-77.99 978.62,-74.75 978.62,-74.75 978.62,-21.88 978.62,-21.88 978.62,-18.63 1005.24,-16 1038,-16 1070.76,-16 1097.38,-18.63 1097.38,-21.88 1097.38,-21.88 1097.38,-74.75 1097.38,-74.75"/>
<path fill="none" stroke="black" d="M1097.38,-74.75C1097.38,-71.51 1070.76,-68.88 1038,-68.88 1005.24,-68.88 978.62,-71.51 978.62,-74.75"/>
<text xml:space="preserve" text-anchor="middle" x="1038" y="-59.26" font-family="Helvetica,sans-Serif" font-size="9.00">Redis (optional)</text>
<text xml:space="preserve" text-anchor="middle" x="1038" y="-49.51" font-family="Helvetica,sans-Serif" font-size="9.00">:6379</text>
<text xml:space="preserve" text-anchor="middle" x="1038" y="-39.76" font-family="Helvetica,sans-Serif" font-size="9.00">shared cache · rate limit</text>
<text xml:space="preserve" text-anchor="middle" x="1038" y="-30.01" font-family="Helvetica,sans-Serif" font-size="9.00">budget · diagnose inflight</text>
</g>
<!-- API&#45;&gt;REDIS -->
<g id="edge10" class="edge">
<title>API&#45;&gt;REDIS</title>
<path fill="none" stroke="#b71c1c" stroke-dasharray="5,2" d="M1275.93,-173.11C1235.68,-168.06 1184.12,-157.92 1142.25,-137.62 1117.45,-125.6 1093.68,-106.3 1075.12,-88.8"/>
<polygon fill="#b71c1c" stroke="#b71c1c" points="1077.68,-86.41 1068.06,-81.97 1072.82,-91.44 1077.68,-86.41"/>
<text xml:space="preserve" text-anchor="middle" x="1156.12" y="-125.53" font-family="Helvetica,sans-Serif" font-size="8.00">optional</text>
</g>
<!-- SQLITE -->
<g id="node11" class="node">
<title>SQLITE</title>
<path fill="#a5d6a7" stroke="black" d="M1253.12,-69.27C1253.12,-71.83 1224.83,-73.92 1190,-73.92 1155.17,-73.92 1126.88,-71.83 1126.88,-69.27 1126.88,-69.27 1126.88,-27.36 1126.88,-27.36 1126.88,-24.79 1155.17,-22.7 1190,-22.7 1224.83,-22.7 1253.12,-24.79 1253.12,-27.36 1253.12,-27.36 1253.12,-69.27 1253.12,-69.27"/>
<path fill="none" stroke="black" d="M1253.12,-69.27C1253.12,-66.7 1224.83,-64.61 1190,-64.61 1155.17,-64.61 1126.88,-66.7 1126.88,-69.27"/>
<text xml:space="preserve" text-anchor="middle" x="1190" y="-54.39" font-family="Helvetica,sans-Serif" font-size="9.00">SQLite / PVC</text>
<text xml:space="preserve" text-anchor="middle" x="1190" y="-44.64" font-family="Helvetica,sans-Serif" font-size="9.00">diagnostics.db</text>
<text xml:space="preserve" text-anchor="middle" x="1190" y="-34.89" font-family="Helvetica,sans-Serif" font-size="9.00">claims · escalations · cases</text>
</g>
<!-- API&#45;&gt;SQLITE -->
<g id="edge11" class="edge">
<title>API&#45;&gt;SQLITE</title>
<path fill="none" stroke="#37474f" d="M1276.04,-169.31C1238.39,-162.78 1196.46,-152.42 1185,-137.62 1173.74,-123.09 1174.11,-102.82 1177.69,-85.37"/>
<polygon fill="#37474f" stroke="#37474f" points="1181.04,-86.42 1180.05,-75.87 1174.24,-84.73 1181.04,-86.42"/>
<text xml:space="preserve" text-anchor="middle" x="1201.5" y="-125.53" font-family="Helvetica,sans-Serif" font-size="8.00">ops store</text>
</g>
<!-- FS -->
<g id="node12" class="node">
<title>FS</title>
<polygon fill="#c8e6c9" stroke="black" points="757.62,-66.94 754.62,-70.94 733.62,-70.94 730.62,-66.94 616.38,-66.94 616.38,-29.69 757.62,-29.69 757.62,-66.94"/>
<text xml:space="preserve" text-anchor="middle" x="687" y="-54.39" font-family="Helvetica,sans-Serif" font-size="9.00">File / PVC volume</text>
<text xml:space="preserve" text-anchor="middle" x="687" y="-44.64" font-family="Helvetica,sans-Serif" font-size="9.00">catalog JSON · lineage JSONL</text>
<text xml:space="preserve" text-anchor="middle" x="687" y="-34.89" font-family="Helvetica,sans-Serif" font-size="9.00">enterprise_sources/</text>
</g>
<!-- API&#45;&gt;FS -->
<g id="edge12" class="edge">
<title>API&#45;&gt;FS</title>
<path fill="none" stroke="#37474f" stroke-dasharray="5,2" d="M1275.76,-174.19C1189.32,-168.4 1043.14,-156.24 992.75,-137.62 979.31,-132.66 979.62,-124.09 966,-119.62 925,-106.18 812.72,-125.89 772,-111.62 749.85,-103.87 728.56,-88.24 712.83,-74.58"/>
<polygon fill="#37474f" stroke="#37474f" points="715.59,-72.36 705.82,-68.27 710.91,-77.56 715.59,-72.36"/>
<text xml:space="preserve" text-anchor="middle" x="1014.88" y="-125.53" font-family="Helvetica,sans-Serif" font-size="8.00">lineage read</text>
</g>
<!-- ETLJOB -->
<g id="node13" class="node">
<title>ETLJOB</title>
<path fill="#ffb74d" stroke="black" d="M574,-198.5C574,-198.5 468,-198.5 468,-198.5 462,-198.5 456,-192.5 456,-186.5 456,-186.5 456,-171.75 456,-171.75 456,-165.75 462,-159.75 468,-159.75 468,-159.75 574,-159.75 574,-159.75 580,-159.75 586,-165.75 586,-171.75 586,-171.75 586,-186.5 586,-186.5 586,-192.5 580,-198.5 574,-198.5"/>
<text xml:space="preserve" text-anchor="middle" x="521" y="-185.95" font-family="Helvetica,sans-Serif" font-size="9.00">ETL CronJob / admin trigger</text>
<text xml:space="preserve" text-anchor="middle" x="521" y="-176.2" font-family="Helvetica,sans-Serif" font-size="9.00">orchestrator.py</text>
<text xml:space="preserve" text-anchor="middle" x="521" y="-166.45" font-family="Helvetica,sans-Serif" font-size="9.00">ETL → smoke → promote</text>
</g>
<!-- API&#45;&gt;ETLJOB -->
<g id="edge20" class="edge">
<title>API&#45;&gt;ETLJOB</title>
<path fill="none" stroke="#37474f" stroke-dasharray="1,5" d="M1275.82,-179.12C1125.23,-179.12 757.69,-179.12 597.61,-179.12"/>
<polygon fill="#37474f" stroke="#37474f" points="597.97,-175.63 587.97,-179.13 597.97,-182.63 597.97,-175.63"/>
<text xml:space="preserve" text-anchor="middle" x="931.31" y="-183.53" font-family="Helvetica,sans-Serif" font-size="8.00">POST /admin/pipeline/*</text>
</g>
<!-- ECRM -->
<g id="node15" class="node">
<title>ECRM</title>
<path fill="#b0bec5" stroke="black" d="M449,-66.31C449,-66.31 367,-66.31 367,-66.31 361,-66.31 355,-60.31 355,-54.31 355,-54.31 355,-42.31 355,-42.31 355,-36.31 361,-30.31 367,-30.31 367,-30.31 449,-30.31 449,-30.31 455,-30.31 461,-36.31 461,-42.31 461,-42.31 461,-54.31 461,-54.31 461,-60.31 455,-66.31 449,-66.31"/>
<text xml:space="preserve" text-anchor="middle" x="408" y="-49.51" font-family="Helvetica,sans-Serif" font-size="9.00">CRM (Salesforce&#45;like)</text>
<text xml:space="preserve" text-anchor="middle" x="408" y="-39.76" font-family="Helvetica,sans-Serif" font-size="9.00">HTTPS</text>
</g>
<!-- API&#45;&gt;ECRM -->
<g id="edge22" class="edge">
<title>API&#45;&gt;ECRM</title>
<path fill="none" stroke="#37474f" stroke-dasharray="5,2" d="M1276.01,-177.55C1177.51,-175.66 986.58,-167.98 827.5,-137.62 800.78,-132.53 795.84,-124.04 769,-119.62 736.86,-114.34 506.19,-123.84 476,-111.62 457.25,-104.04 440.45,-88.76 428.23,-75.24"/>
<polygon fill="#37474f" stroke="#37474f" points="431.05,-73.15 421.88,-67.85 425.75,-77.71 431.05,-73.15"/>
<text xml:space="preserve" text-anchor="middle" x="849.25" y="-125.53" font-family="Helvetica,sans-Serif" font-size="8.00">CRM (prod)</text>
</g>
<!-- ECCAS -->
<g id="node18" class="node">
<title>ECCAS</title>
<path fill="#cfd8dc" stroke="black" d="M575.5,-66.31C575.5,-66.31 502.5,-66.31 502.5,-66.31 496.5,-66.31 490.5,-60.31 490.5,-54.31 490.5,-54.31 490.5,-42.31 490.5,-42.31 490.5,-36.31 496.5,-30.31 502.5,-30.31 502.5,-30.31 575.5,-30.31 575.5,-30.31 581.5,-30.31 587.5,-36.31 587.5,-42.31 587.5,-42.31 587.5,-54.31 587.5,-54.31 587.5,-60.31 581.5,-66.31 575.5,-66.31"/>
<text xml:space="preserve" text-anchor="middle" x="539" y="-49.51" font-family="Helvetica,sans-Serif" font-size="9.00">CCaaS / case mgmt</text>
<text xml:space="preserve" text-anchor="middle" x="539" y="-39.76" font-family="Helvetica,sans-Serif" font-size="9.00">(simulated)</text>
</g>
<!-- API&#45;&gt;ECCAS -->
<g id="edge23" class="edge">
<title>API&#45;&gt;ECCAS</title>
<path fill="none" stroke="#37474f" stroke-dasharray="5,2" d="M1275.98,-175.97C1171.14,-171.88 971.62,-161.21 905,-137.62 891.4,-132.81 891.74,-124 878,-119.62 848.66,-110.28 629.26,-123.85 601,-111.62 583.48,-104.04 568.27,-88.99 557.3,-75.57"/>
<polygon fill="#37474f" stroke="#37474f" points="560.22,-73.63 551.34,-67.86 554.69,-77.91 560.22,-73.63"/>
<text xml:space="preserve" text-anchor="middle" x="932" y="-125.53" font-family="Helvetica,sans-Serif" font-size="8.00">escalation case</text>
</g>
<!-- OTEL -->
<g id="node19" class="node">
<title>OTEL</title>
<path fill="#e0e0e0" stroke="black" d="M1116.25,-412.75C1116.25,-412.75 1011.75,-412.75 1011.75,-412.75 1005.75,-412.75 999.75,-406.75 999.75,-400.75 999.75,-400.75 999.75,-388.75 999.75,-388.75 999.75,-382.75 1005.75,-376.75 1011.75,-376.75 1011.75,-376.75 1116.25,-376.75 1116.25,-376.75 1122.25,-376.75 1128.25,-382.75 1128.25,-388.75 1128.25,-388.75 1128.25,-400.75 1128.25,-400.75 1128.25,-406.75 1122.25,-412.75 1116.25,-412.75"/>
<text xml:space="preserve" text-anchor="middle" x="1064" y="-395.95" font-family="Helvetica,sans-Serif" font-size="9.00">OTEL Collector</text>
<text xml:space="preserve" text-anchor="middle" x="1064" y="-386.2" font-family="Helvetica,sans-Serif" font-size="9.00">(optional OTEL_ENABLED)</text>
</g>
<!-- API&#45;&gt;OTEL -->
<g id="edge24" class="edge">
<title>API&#45;&gt;OTEL</title>
<path fill="none" stroke="#37474f" stroke-dasharray="1,5" d="M1306.11,-203.57C1281.02,-220.27 1246.95,-243.55 1218,-265.5 1172.58,-299.94 1122.22,-342.82 1091.85,-369.24"/>
<polygon fill="#37474f" stroke="#37474f" points="1089.84,-366.35 1084.6,-375.56 1094.44,-371.62 1089.84,-366.35"/>
</g>
<!-- PROM -->
<g id="node20" class="node">
<title>PROM</title>
<path fill="#e0e0e0" stroke="black" d="M1240.75,-412.75C1240.75,-412.75 1169.25,-412.75 1169.25,-412.75 1163.25,-412.75 1157.25,-406.75 1157.25,-400.75 1157.25,-400.75 1157.25,-388.75 1157.25,-388.75 1157.25,-382.75 1163.25,-376.75 1169.25,-376.75 1169.25,-376.75 1240.75,-376.75 1240.75,-376.75 1246.75,-376.75 1252.75,-382.75 1252.75,-388.75 1252.75,-388.75 1252.75,-400.75 1252.75,-400.75 1252.75,-406.75 1246.75,-412.75 1240.75,-412.75"/>
<text xml:space="preserve" text-anchor="middle" x="1205" y="-395.95" font-family="Helvetica,sans-Serif" font-size="9.00">Prometheus scrape</text>
<text xml:space="preserve" text-anchor="middle" x="1205" y="-386.2" font-family="Helvetica,sans-Serif" font-size="9.00">/metrics</text>
</g>
<!-- API&#45;&gt;PROM -->
<g id="edge25" class="edge">
<title>API&#45;&gt;PROM</title>
<path fill="none" stroke="#37474f" stroke-dasharray="1,5" d="M1316.57,-203.37C1299.84,-219.62 1278.29,-242.44 1263,-265.5 1241.61,-297.75 1224.49,-339.18 1214.54,-366.09"/>
<polygon fill="#37474f" stroke="#37474f" points="1211.34,-364.65 1211.24,-375.24 1217.92,-367.03 1211.34,-364.65"/>
</g>
<!-- ETLJOB&#45;&gt;MOCK -->
<g id="edge13" class="edge">
<title>ETLJOB&#45;&gt;MOCK</title>
<path fill="none" stroke="#37474f" d="M586.37,-178.03C736.7,-177.23 1103.11,-171.72 1221,-137.62 1258.13,-126.88 1292.25,-97.53 1313.73,-75.59"/>
<polygon fill="#37474f" stroke="#37474f" points="1316.2,-78.07 1320.55,-68.4 1311.13,-73.25 1316.2,-78.07"/>
<text xml:space="preserve" text-anchor="middle" x="1280.97" y="-130.03" font-family="Helvetica,sans-Serif" font-size="8.00">HTTP extract</text>
<text xml:space="preserve" text-anchor="middle" x="1280.97" y="-121.03" font-family="Helvetica,sans-Serif" font-size="8.00">(demo)</text>
</g>
<!-- ETLJOB&#45;&gt;NEO -->
<g id="edge19" class="edge">
<title>ETLJOB&#45;&gt;NEO</title>
<path fill="none" stroke="#1b5e20" stroke-width="2" d="M579.62,-159.27C631.27,-142.71 699.3,-121.02 705.75,-119.62 734.74,-113.34 744.12,-121.74 772,-111.62 787.48,-106.01 802.99,-97.51 816.9,-88.57"/>
<polygon fill="#1b5e20" stroke="#1b5e20" stroke-width="2" points="818.79,-91.51 825.16,-83.03 814.9,-85.69 818.79,-91.51"/>
<text xml:space="preserve" text-anchor="middle" x="733.88" y="-130.03" font-family="Helvetica,sans-Serif" font-size="8.00">populate_graph</text>
<text xml:space="preserve" text-anchor="middle" x="733.88" y="-121.03" font-family="Helvetica,sans-Serif" font-size="8.00">Bolt MERGE</text>
</g>
<!-- ETLJOB&#45;&gt;FS -->
<g id="edge18" class="edge">
<title>ETLJOB&#45;&gt;FS</title>
<path fill="none" stroke="#37474f" d="M545.14,-159.39C574.11,-136.91 622.8,-99.13 654.91,-74.21"/>
<polygon fill="#37474f" stroke="#37474f" points="656.95,-77.06 662.71,-68.16 652.66,-71.53 656.95,-77.06"/>
<text xml:space="preserve" text-anchor="middle" x="616.56" y="-125.53" font-family="Helvetica,sans-Serif" font-size="8.00">catalog write</text>
</g>
<!-- EPIM -->
<g id="node14" class="node">
<title>EPIM</title>
<path fill="#b0bec5" stroke="black" d="M86,-66.31C86,-66.31 28,-66.31 28,-66.31 22,-66.31 16,-60.31 16,-54.31 16,-54.31 16,-42.31 16,-42.31 16,-36.31 22,-30.31 28,-30.31 28,-30.31 86,-30.31 86,-30.31 92,-30.31 98,-36.31 98,-42.31 98,-42.31 98,-54.31 98,-54.31 98,-60.31 92,-66.31 86,-66.31"/>
<text xml:space="preserve" text-anchor="middle" x="57" y="-49.51" font-family="Helvetica,sans-Serif" font-size="9.00">PIM / PLM SaaS</text>
<text xml:space="preserve" text-anchor="middle" x="57" y="-39.76" font-family="Helvetica,sans-Serif" font-size="9.00">HTTPS</text>
</g>
<!-- ETLJOB&#45;&gt;EPIM -->
<g id="edge14" class="edge">
<title>ETLJOB&#45;&gt;EPIM</title>
<path fill="none" stroke="#37474f" stroke-dasharray="5,2" d="M455.54,-173.73C355.09,-165.95 168.67,-147.13 113,-111.62 98.44,-102.34 85.34,-88.26 75.48,-75.84"/>
<polygon fill="#37474f" stroke="#37474f" points="78.34,-73.82 69.51,-67.97 72.76,-78.05 78.34,-73.82"/>
<text xml:space="preserve" text-anchor="middle" x="198.67" y="-125.53" font-family="Helvetica,sans-Serif" font-size="8.00">HTTPS</text>
</g>
<!-- ETLJOB&#45;&gt;ECRM -->
<g id="edge15" class="edge">
<title>ETLJOB&#45;&gt;ECRM</title>
<path fill="none" stroke="#37474f" stroke-dasharray="5,2" d="M504.57,-159.39C485.05,-137.15 452.39,-99.92 430.53,-74.99"/>
<polygon fill="#37474f" stroke="#37474f" points="433.23,-72.77 424,-67.56 427.97,-77.38 433.23,-72.77"/>
</g>
<!-- ECLAIMS -->
<g id="node16" class="node">
<title>ECLAIMS</title>
<path fill="#b0bec5" stroke="black" d="M190.62,-66.31C190.62,-66.31 139.38,-66.31 139.38,-66.31 133.38,-66.31 127.38,-60.31 127.38,-54.31 127.38,-54.31 127.38,-42.31 127.38,-42.31 127.38,-36.31 133.38,-30.31 139.38,-30.31 139.38,-30.31 190.62,-30.31 190.62,-30.31 196.62,-30.31 202.62,-36.31 202.62,-42.31 202.62,-42.31 202.62,-54.31 202.62,-54.31 202.62,-60.31 196.62,-66.31 190.62,-66.31"/>
<text xml:space="preserve" text-anchor="middle" x="165" y="-49.51" font-family="Helvetica,sans-Serif" font-size="9.00">Claims system</text>
<text xml:space="preserve" text-anchor="middle" x="165" y="-39.76" font-family="Helvetica,sans-Serif" font-size="9.00">HTTPS</text>
</g>
<!-- ETLJOB&#45;&gt;ECLAIMS -->
<g id="edge16" class="edge">
<title>ETLJOB&#45;&gt;ECLAIMS</title>
<path fill="none" stroke="#37474f" stroke-dasharray="5,2" d="M455.68,-175.76C391.13,-170.79 291.63,-155.86 218,-111.62 203.35,-102.82 190.76,-88.53 181.54,-75.85"/>
<polygon fill="#37474f" stroke="#37474f" points="184.57,-74.08 176.02,-67.83 178.81,-78.06 184.57,-74.08"/>
</g>
<!-- EFSM -->
<g id="node17" class="node">
<title>EFSM</title>
<path fill="#b0bec5" stroke="black" d="M314,-66.31C314,-66.31 244,-66.31 244,-66.31 238,-66.31 232,-60.31 232,-54.31 232,-54.31 232,-42.31 232,-42.31 232,-36.31 238,-30.31 244,-30.31 244,-30.31 314,-30.31 314,-30.31 320,-30.31 326,-36.31 326,-42.31 326,-42.31 326,-54.31 326,-54.31 326,-60.31 320,-66.31 314,-66.31"/>
<text xml:space="preserve" text-anchor="middle" x="279" y="-49.51" font-family="Helvetica,sans-Serif" font-size="9.00">Field Service Mgmt</text>
<text xml:space="preserve" text-anchor="middle" x="279" y="-39.76" font-family="Helvetica,sans-Serif" font-size="9.00">HTTPS</text>
</g>
<!-- ETLJOB&#45;&gt;EFSM -->
<g id="edge17" class="edge">
<title>ETLJOB&#45;&gt;EFSM</title>
<path fill="none" stroke="#37474f" stroke-dasharray="5,2" d="M455.79,-161.51C420.13,-150.64 376.18,-134.22 341,-111.62 325.71,-101.8 311.23,-87.63 300.11,-75.29"/>
<polygon fill="#37474f" stroke="#37474f" points="302.84,-73.1 293.64,-67.85 297.56,-77.69 302.84,-73.1"/>
</g>
<!-- GH -->
<g id="node21" class="node">
<title>GH</title>
<path fill="#e0e0e0" stroke="black" d="M958.62,-412.75C958.62,-412.75 871.38,-412.75 871.38,-412.75 865.38,-412.75 859.38,-406.75 859.38,-400.75 859.38,-400.75 859.38,-388.75 859.38,-388.75 859.38,-382.75 865.38,-376.75 871.38,-376.75 871.38,-376.75 958.62,-376.75 958.62,-376.75 964.62,-376.75 970.62,-382.75 970.62,-388.75 970.62,-388.75 970.62,-400.75 970.62,-400.75 970.62,-406.75 964.62,-412.75 958.62,-412.75"/>
<text xml:space="preserve" text-anchor="middle" x="915" y="-395.95" font-family="Helvetica,sans-Serif" font-size="9.00">GitHub Actions</text>
<text xml:space="preserve" text-anchor="middle" x="915" y="-386.2" font-family="Helvetica,sans-Serif" font-size="9.00">CI · CD · GHCR images</text>
</g>
<!-- K8S -->
<g id="node22" class="node">
<title>K8S</title>
<path fill="#e0e0e0" stroke="black" d="M938.75,-310.75C938.75,-310.75 891.25,-310.75 891.25,-310.75 885.25,-310.75 879.25,-304.75 879.25,-298.75 879.25,-298.75 879.25,-285.5 879.25,-285.5 879.25,-279.5 885.25,-273.5 891.25,-273.5 891.25,-273.5 938.75,-273.5 938.75,-273.5 944.75,-273.5 950.75,-279.5 950.75,-285.5 950.75,-285.5 950.75,-298.75 950.75,-298.75 950.75,-304.75 944.75,-310.75 938.75,-310.75"/>
<text xml:space="preserve" text-anchor="middle" x="915" y="-298.2" font-family="Helvetica,sans-Serif" font-size="9.00">K8s overlays</text>
<text xml:space="preserve" text-anchor="middle" x="915" y="-288.45" font-family="Helvetica,sans-Serif" font-size="9.00">staging / prod</text>
<text xml:space="preserve" text-anchor="middle" x="915" y="-278.7" font-family="Helvetica,sans-Serif" font-size="9.00">(k8s/)</text>
</g>
<!-- GH&#45;&gt;K8S -->
<g id="edge26" class="edge">
<title>GH&#45;&gt;K8S</title>
<path fill="none" stroke="#37474f" d="M915,-376.68C915,-361.83 915,-339.98 915,-322.35"/>
<polygon fill="#37474f" stroke="#37474f" points="918.5,-322.47 915,-312.47 911.5,-322.47 918.5,-322.47"/>
<text xml:space="preserve" text-anchor="middle" x="926.62" y="-351.15" font-family="Helvetica,sans-Serif" font-size="8.00">deploy</text>
</g>
<!-- K8S&#45;&gt;UI -->
<g id="edge28" class="edge">
<title>K8S&#45;&gt;UI</title>
<path fill="none" stroke="#37474f" stroke-dasharray="5,2" d="M951.02,-292.12C1055.82,-292.12 1160.61,-292.12 1265.41,-292.12"/>
<polygon fill="#37474f" stroke="#37474f" points="1265.35,-295.63 1275.35,-292.13 1265.35,-288.63 1265.35,-295.63"/>
</g>
<!-- K8S&#45;&gt;API -->
<g id="edge27" class="edge">
<title>K8S&#45;&gt;API</title>
<path fill="none" stroke="#37474f" stroke-dasharray="5,2" d="M950.97,-279.25C986.2,-267.83 1041.49,-250.44 1090,-237.5 1148.24,-221.97 1214.75,-206.94 1264.82,-196.16"/>
<polygon fill="#37474f" stroke="#37474f" points="1265.36,-199.62 1274.4,-194.11 1263.89,-192.78 1265.36,-199.62"/>
</g>
<!-- K8S&#45;&gt;NEO -->
<g id="edge29" class="edge">
<title>K8S&#45;&gt;NEO</title>
<path fill="none" stroke="#37474f" stroke-dasharray="5,2" d="M895.67,-273.06C868.77,-246.44 821.3,-193.77 803,-137.62 797.38,-120.39 804.94,-103.75 816.64,-89.66"/>
<polygon fill="#37474f" stroke="#37474f" points="819.18,-92.08 823.37,-82.34 814.02,-87.34 819.18,-92.08"/>
</g>
<!-- K8S&#45;&gt;ETLJOB -->
<g id="edge30" class="edge">
<title>K8S&#45;&gt;ETLJOB</title>
<path fill="none" stroke="#37474f" stroke-dasharray="5,2" d="M878.95,-283.52C847.83,-276.77 801.73,-266.32 762,-255.5 702.75,-239.36 636.17,-218.31 588.04,-202.56"/>
<polygon fill="#37474f" stroke="#37474f" points="589.17,-199.25 578.58,-199.46 586.98,-205.9 589.17,-199.25"/>
</g>
</g>
</svg>
