<?xml version="1.0" encoding="UTF-8" standalone="no"?>
<!DOCTYPE svg PUBLIC "-//W3C//DTD SVG 1.1//EN"
 "http://www.w3.org/Graphics/SVG/1.1/DTD/svg11.dtd">
<!-- Generated by graphviz version 14.1.5 (20260411.2331)
 -->
<!-- Title: EtlStagingGraphTraversal Pages: 1 -->
<svg width="1226pt" height="1267pt"
 viewBox="0.00 0.00 1226.00 1267.00" xmlns="http://www.w3.org/2000/svg" xmlns:xlink="http://www.w3.org/1999/xlink">
<g id="graph0" class="graph" transform="scale(1 1) rotate(0) translate(28.8 1238.61)">
<title>EtlStagingGraphTraversal</title>
<polygon fill="white" stroke="none" points="-28.8,28.8 -28.8,-1238.61 1196.8,-1238.61 1196.8,28.8 -28.8,28.8"/>
<text xml:space="preserve" text-anchor="middle" x="584" y="-1192.51" font-family="Helvetica,sans-Serif" font-size="14.00">41 — ETL → Staging → Graph Store → Fast Multi&#45;Hop Traversal</text>
<text xml:space="preserve" text-anchor="middle" x="584" y="-1174.51" font-family="Helvetica,sans-Serif" font-size="14.00">(How knowledge becomes accurate, low&#45;latency diagnosis)</text>
<g id="clust1" class="cluster">
<title>cluster_a</title>
<path fill="#e8f5e9" stroke="#2e7d32" d="M210,-911.81C210,-911.81 462,-911.81 462,-911.81 468,-911.81 474,-917.81 474,-923.81 474,-923.81 474,-1148.81 474,-1148.81 474,-1154.81 468,-1160.81 462,-1160.81 462,-1160.81 210,-1160.81 210,-1160.81 204,-1160.81 198,-1154.81 198,-1148.81 198,-1148.81 198,-923.81 198,-923.81 198,-917.81 204,-911.81 210,-911.81"/>
<text xml:space="preserve" text-anchor="middle" x="336" y="-1143.51" font-family="Helvetica,sans-Serif" font-size="14.00">A · Extract → Transform → Catalog (batch)</text>
</g>
<g id="clust2" class="cluster">
<title>cluster_b</title>
<path fill="#fff3e0" stroke="#ef6c00" d="M140,-671.31C140,-671.31 355,-671.31 355,-671.31 361,-671.31 367,-677.31 367,-683.31 367,-683.31 367,-882.81 367,-882.81 367,-888.81 361,-894.81 355,-894.81 355,-894.81 140,-894.81 140,-894.81 134,-894.81 128,-888.81 128,-882.81 128,-882.81 128,-683.31 128,-683.31 128,-677.31 134,-671.31 140,-671.31"/>
<text xml:space="preserve" text-anchor="middle" x="247.5" y="-877.51" font-family="Helvetica,sans-Serif" font-size="14.00">B · Staging gates (orchestrator order)</text>
</g>
<g id="clust3" class="cluster">
<title>cluster_c</title>
<path fill="#e3f2fd" stroke="#1565c0" d="M184,-368.75C184,-368.75 458,-368.75 458,-368.75 464,-368.75 470,-374.75 470,-380.75 470,-380.75 470,-642.31 470,-642.31 470,-648.31 464,-654.31 458,-654.31 458,-654.31 184,-654.31 184,-654.31 178,-654.31 172,-648.31 172,-642.31 172,-642.31 172,-380.75 172,-380.75 172,-374.75 178,-368.75 184,-368.75"/>
<text xml:space="preserve" text-anchor="middle" x="321" y="-637.01" font-family="Helvetica,sans-Serif" font-size="14.00">C · Graph materialization (why traversal is fast)</text>
</g>
<g id="clust4" class="cluster">
<title>cluster_d</title>
<path fill="#e0f2f1" stroke="#00695c" d="M819,-13.5C819,-13.5 1148,-13.5 1148,-13.5 1154,-13.5 1160,-19.5 1160,-25.5 1160,-25.5 1160,-539.31 1160,-539.31 1160,-545.31 1154,-551.31 1148,-551.31 1148,-551.31 819,-551.31 819,-551.31 813,-551.31 807,-545.31 807,-539.31 807,-539.31 807,-25.5 807,-25.5 807,-19.5 813,-13.5 819,-13.5"/>
<text xml:space="preserve" text-anchor="middle" x="983.5" y="-534.01" font-family="Helvetica,sans-Serif" font-size="14.00">D · Stored reasoning topology (ontology instance edges)</text>
</g>
<g id="clust5" class="cluster">
<title>cluster_e</title>
<path fill="#f3e5f5" stroke="#6a1b9a" d="M490,-8C490,-8 787,-8 787,-8 793,-8 799,-14 799,-20 799,-20 799,-433 799,-433 799,-439 793,-445 787,-445 787,-445 490,-445 490,-445 484,-445 478,-439 478,-433 478,-433 478,-20 478,-20 478,-14 484,-8 490,-8"/>
<text xml:space="preserve" text-anchor="middle" x="638.5" y="-427.7" font-family="Helvetica,sans-Serif" font-size="14.00">E · Runtime path — low&#45;latency accurate response</text>
</g>
<g id="clust6" class="cluster">
<title>cluster_f</title>
<path fill="#fafafa" stroke="#37474f" d="M20,-8C20,-8 458,-8 458,-8 464,-8 470,-14 470,-20 470,-20 470,-82 470,-82 470,-88 464,-94 458,-94 458,-94 20,-94 20,-94 14,-94 8,-88 8,-82 8,-82 8,-20 8,-20 8,-14 14,-8 20,-8"/>
<text xml:space="preserve" text-anchor="middle" x="239" y="-76.7" font-family="Helvetica,sans-Serif" font-size="14.00">F · Accuracy &amp; speed design points</text>
</g>
<!-- A1 -->
<g id="node1" class="node">
<title>A1</title>
<path fill="#a5d6a7" stroke="black" d="M419.75,-1126.81C419.75,-1126.81 252.25,-1126.81 252.25,-1126.81 246.25,-1126.81 240.25,-1120.81 240.25,-1114.81 240.25,-1114.81 240.25,-1091.81 240.25,-1091.81 240.25,-1085.81 246.25,-1079.81 252.25,-1079.81 252.25,-1079.81 419.75,-1079.81 419.75,-1079.81 425.75,-1079.81 431.75,-1085.81 431.75,-1091.81 431.75,-1091.81 431.75,-1114.81 431.75,-1114.81 431.75,-1120.81 425.75,-1126.81 419.75,-1126.81"/>
<text xml:space="preserve" text-anchor="middle" x="336" y="-1114.26" font-family="Helvetica,sans-Serif" font-size="9.00">EXTRACT (parallel)</text>
<text xml:space="preserve" text-anchor="middle" x="336" y="-1104.51" font-family="Helvetica,sans-Serif" font-size="9.00">connectors.fetch()</text>
<text xml:space="preserve" text-anchor="middle" x="336" y="-1094.76" font-family="Helvetica,sans-Serif" font-size="9.00">via runtime.parallel_map</text>
<text xml:space="preserve" text-anchor="middle" x="336" y="-1085.01" font-family="Helvetica,sans-Serif" font-size="9.00">max_workers=etl_connector_max_workers</text>
</g>
<!-- A2 -->
<g id="node2" class="node">
<title>A2</title>
<path fill="#81c784" stroke="black" d="M422.75,-1046.81C422.75,-1046.81 249.25,-1046.81 249.25,-1046.81 243.25,-1046.81 237.25,-1040.81 237.25,-1034.81 237.25,-1034.81 237.25,-1011.81 237.25,-1011.81 237.25,-1005.81 243.25,-999.81 249.25,-999.81 249.25,-999.81 422.75,-999.81 422.75,-999.81 428.75,-999.81 434.75,-1005.81 434.75,-1011.81 434.75,-1011.81 434.75,-1034.81 434.75,-1034.81 434.75,-1040.81 428.75,-1046.81 422.75,-1046.81"/>
<text xml:space="preserve" text-anchor="middle" x="336" y="-1034.26" font-family="Helvetica,sans-Serif" font-size="9.00">TRANSFORM (serial, deterministic)</text>
<text xml:space="preserve" text-anchor="middle" x="336" y="-1024.51" font-family="Helvetica,sans-Serif" font-size="9.00">OntologyBuilder.build_catalog_payload()</text>
<text xml:space="preserve" text-anchor="middle" x="336" y="-1014.76" font-family="Helvetica,sans-Serif" font-size="9.00">PIM + FSM confidences + Claims resolutions</text>
<text xml:space="preserve" text-anchor="middle" x="336" y="-1005.01" font-family="Helvetica,sans-Serif" font-size="9.00">+ warranty extensions + provenance{}</text>
</g>
<!-- A1&#45;&gt;A2 -->
<g id="edge1" class="edge">
<title>A1&#45;&gt;A2</title>
<path fill="none" stroke="#455a64" d="M336,-1079.33C336,-1072.83 336,-1065.6 336,-1058.58"/>
<polygon fill="#455a64" stroke="#455a64" points="339.5,-1058.64 336,-1048.64 332.5,-1058.64 339.5,-1058.64"/>
</g>
<!-- A3 -->
<g id="node3" class="node">
<title>A3</title>
<polygon fill="#fff9c4" stroke="black" points="411.12,-966.81 254.88,-966.81 254.88,-919.81 417.12,-919.81 417.12,-960.81 411.12,-966.81"/>
<polyline fill="none" stroke="black" points="411.12,-966.81 411.12,-960.81"/>
<polyline fill="none" stroke="black" points="417.12,-960.81 411.12,-960.81"/>
<text xml:space="preserve" text-anchor="middle" x="336" y="-954.26" font-family="Helvetica,sans-Serif" font-size="9.00">WRITE CATALOG</text>
<text xml:space="preserve" text-anchor="middle" x="336" y="-944.51" font-family="Helvetica,sans-Serif" font-size="9.00">enterprise_knowledge_catalog.json</text>
<text xml:space="preserve" text-anchor="middle" x="336" y="-934.76" font-family="Helvetica,sans-Serif" font-size="9.00">synthetic_diagnosis_data.json</text>
<text xml:space="preserve" text-anchor="middle" x="336" y="-925.01" font-family="Helvetica,sans-Serif" font-size="9.00">etl_batch_id + lineage JSONL</text>
</g>
<!-- A2&#45;&gt;A3 -->
<g id="edge2" class="edge">
<title>A2&#45;&gt;A3</title>
<path fill="none" stroke="#455a64" d="M336,-999.33C336,-992.83 336,-985.6 336,-978.58"/>
<polygon fill="#455a64" stroke="#455a64" points="339.5,-978.64 336,-968.64 332.5,-978.64 339.5,-978.64"/>
</g>
<!-- B1 -->
<g id="node4" class="node">
<title>B1</title>
<path fill="#ffcc80" stroke="black" d="M289.75,-863.81C289.75,-863.81 152.25,-863.81 152.25,-863.81 146.25,-863.81 140.25,-857.81 140.25,-851.81 140.25,-851.81 140.25,-839.81 140.25,-839.81 140.25,-833.81 146.25,-827.81 152.25,-827.81 152.25,-827.81 289.75,-827.81 289.75,-827.81 295.75,-827.81 301.75,-833.81 301.75,-839.81 301.75,-839.81 301.75,-851.81 301.75,-851.81 301.75,-857.81 295.75,-863.81 289.75,-863.81"/>
<text xml:space="preserve" text-anchor="middle" x="221" y="-847.01" font-family="Helvetica,sans-Serif" font-size="9.00">1 · knowledge_etl</text>
<text xml:space="preserve" text-anchor="middle" x="221" y="-837.26" font-family="Helvetica,sans-Serif" font-size="9.00">run_knowledge_etl(load_neo4j=…)</text>
</g>
<!-- A3&#45;&gt;B1 -->
<g id="edge5" class="edge">
<title>A3&#45;&gt;B1</title>
<path fill="none" stroke="#455a64" stroke-dasharray="5,2" d="M308.45,-919.44C291.03,-904.96 268.5,-886.26 250.68,-871.46"/>
<polygon fill="#455a64" stroke="#455a64" points="252.93,-868.78 243,-865.09 248.46,-874.17 252.93,-868.78"/>
</g>
<!-- B3 -->
<g id="node6" class="node">
<title>B3</title>
<path fill="#ffa726" stroke="black" d="M346.75,-716.56C346.75,-716.56 191.25,-716.56 191.25,-716.56 185.25,-716.56 179.25,-710.56 179.25,-704.56 179.25,-704.56 179.25,-691.31 179.25,-691.31 179.25,-685.31 185.25,-679.31 191.25,-679.31 191.25,-679.31 346.75,-679.31 346.75,-679.31 352.75,-679.31 358.75,-685.31 358.75,-691.31 358.75,-691.31 358.75,-704.56 358.75,-704.56 358.75,-710.56 352.75,-716.56 346.75,-716.56"/>
<text xml:space="preserve" text-anchor="middle" x="269" y="-704.01" font-family="Helvetica,sans-Serif" font-size="9.00">3 · staging_promotion</text>
<text xml:space="preserve" text-anchor="middle" x="269" y="-694.26" font-family="Helvetica,sans-Serif" font-size="9.00">run_staging_promotion(smoke_passed)</text>
<text xml:space="preserve" text-anchor="middle" x="269" y="-684.51" font-family="Helvetica,sans-Serif" font-size="9.00">BLOCK if smoke fails</text>
</g>
<!-- A3&#45;&gt;B3 -->
<g id="edge6" class="edge">
<title>A3&#45;&gt;B3</title>
<path fill="none" stroke="#455a64" d="M336.36,-919.35C336.15,-882.18 332.38,-807.17 308,-749.56 304.41,-741.09 299.05,-732.79 293.45,-725.44"/>
<polygon fill="#455a64" stroke="#455a64" points="296.32,-723.42 287.29,-717.87 290.89,-727.84 296.32,-723.42"/>
<text xml:space="preserve" text-anchor="middle" x="348.14" y="-804.21" font-family="Helvetica,sans-Serif" font-size="8.00">read catalog</text>
</g>
<!-- C1 -->
<g id="node7" class="node">
<title>C1</title>
<path fill="#90caf9" stroke="black" d="M450.25,-623.31C450.25,-623.31 315.75,-623.31 315.75,-623.31 309.75,-623.31 303.75,-617.31 303.75,-611.31 303.75,-611.31 303.75,-588.31 303.75,-588.31 303.75,-582.31 309.75,-576.31 315.75,-576.31 315.75,-576.31 450.25,-576.31 450.25,-576.31 456.25,-576.31 462.25,-582.31 462.25,-588.31 462.25,-588.31 462.25,-611.31 462.25,-611.31 462.25,-617.31 456.25,-623.31 450.25,-623.31"/>
<text xml:space="preserve" text-anchor="middle" x="383" y="-610.76" font-family="Helvetica,sans-Serif" font-size="9.00">populate_graph(driver, catalog)</text>
<text xml:space="preserve" text-anchor="middle" x="383" y="-601.01" font-family="Helvetica,sans-Serif" font-size="9.00">CREATE CONSTRAINT unique ids</text>
<text xml:space="preserve" text-anchor="middle" x="383" y="-591.26" font-family="Helvetica,sans-Serif" font-size="9.00">MERGE nodes per entity</text>
<text xml:space="preserve" text-anchor="middle" x="383" y="-581.51" font-family="Helvetica,sans-Serif" font-size="9.00">MERGE relationships</text>
</g>
<!-- A3&#45;&gt;C1 -->
<g id="edge8" class="edge">
<title>A3&#45;&gt;C1</title>
<path fill="none" stroke="#455a64" stroke-dasharray="1,5" d="M361.16,-919.36C377.97,-901.45 397,-874.95 397,-846.81 397,-846.81 397,-846.81 397,-696.94 397,-676.19 393.77,-653.18 390.41,-634.87"/>
<polygon fill="#455a64" stroke="#455a64" points="393.85,-634.23 388.5,-625.08 386.98,-635.56 393.85,-634.23"/>
<text xml:space="preserve" text-anchor="middle" x="422.12" y="-765.09" font-family="Helvetica,sans-Serif" font-size="8.00">ETL load path</text>
</g>
<!-- B2 -->
<g id="node5" class="node">
<title>B2</title>
<path fill="#ffb74d" stroke="black" d="M284.62,-786.81C284.62,-786.81 167.38,-786.81 167.38,-786.81 161.38,-786.81 155.38,-780.81 155.38,-774.81 155.38,-774.81 155.38,-761.56 155.38,-761.56 155.38,-755.56 161.38,-749.56 167.38,-749.56 167.38,-749.56 284.62,-749.56 284.62,-749.56 290.62,-749.56 296.62,-755.56 296.62,-761.56 296.62,-761.56 296.62,-774.81 296.62,-774.81 296.62,-780.81 290.62,-786.81 284.62,-786.81"/>
<text xml:space="preserve" text-anchor="middle" x="226" y="-774.26" font-family="Helvetica,sans-Serif" font-size="9.00">2 · smoke_validation</text>
<text xml:space="preserve" text-anchor="middle" x="226" y="-764.51" font-family="Helvetica,sans-Serif" font-size="9.00">run_smoke_validation()</text>
<text xml:space="preserve" text-anchor="middle" x="226" y="-754.76" font-family="Helvetica,sans-Serif" font-size="9.00">enterprise_test_scenarios.json</text>
</g>
<!-- B1&#45;&gt;B2 -->
<g id="edge3" class="edge">
<title>B1&#45;&gt;B2</title>
<path fill="none" stroke="#455a64" d="M222.13,-827.65C222.7,-819.04 223.41,-808.36 224.06,-798.5"/>
<polygon fill="#455a64" stroke="#455a64" points="227.55,-798.79 224.72,-788.58 220.57,-798.33 227.55,-798.79"/>
</g>
<!-- B2&#45;&gt;B3 -->
<g id="edge4" class="edge">
<title>B2&#45;&gt;B3</title>
<path fill="none" stroke="#455a64" d="M237.3,-749.26C241.66,-742.34 246.75,-734.26 251.55,-726.63"/>
<polygon fill="#455a64" stroke="#455a64" points="254.45,-728.59 256.82,-718.27 248.53,-724.86 254.45,-728.59"/>
</g>
<!-- B3&#45;&gt;C1 -->
<g id="edge7" class="edge">
<title>B3&#45;&gt;C1</title>
<path fill="none" stroke="#455a64" d="M290.44,-678.86C306.48,-665.34 328.77,-646.54 347.45,-630.79"/>
<polygon fill="#455a64" stroke="#455a64" points="349.47,-633.66 354.86,-624.54 344.96,-628.31 349.47,-633.66"/>
</g>
<!-- C2 -->
<g id="node8" class="node">
<title>C2</title>
<path fill="#64b5f6" stroke="black" stroke-width="2" d="M458.88,-528.75C458.88,-531.99 427.56,-534.62 389,-534.62 350.44,-534.62 319.12,-531.99 319.12,-528.75 319.12,-528.75 319.12,-475.88 319.12,-475.88 319.12,-472.63 350.44,-470 389,-470 427.56,-470 458.88,-472.63 458.88,-475.88 458.88,-475.88 458.88,-528.75 458.88,-528.75"/>
<path fill="none" stroke="black" stroke-width="2" d="M458.88,-528.75C458.88,-525.51 427.56,-522.88 389,-522.88 350.44,-522.88 319.12,-525.51 319.12,-528.75"/>
<text xml:space="preserve" text-anchor="middle" x="389" y="-513.26" font-family="Helvetica,sans-Serif" font-size="9.00">Neo4j property graph</text>
<text xml:space="preserve" text-anchor="middle" x="389" y="-503.51" font-family="Helvetica,sans-Serif" font-size="9.00">Index&#45;backed unique keys</text>
<text xml:space="preserve" text-anchor="middle" x="389" y="-493.76" font-family="Helvetica,sans-Serif" font-size="9.00">(product_id, symptom_id, …)</text>
<text xml:space="preserve" text-anchor="middle" x="389" y="-484.01" font-family="Helvetica,sans-Serif" font-size="9.00">Native adjacency for multi&#45;hop</text>
</g>
<!-- C1&#45;&gt;C2 -->
<g id="edge9" class="edge">
<title>C1&#45;&gt;C2</title>
<path fill="none" stroke="#455a64" d="M384.42,-576.18C384.98,-567.36 385.63,-556.95 386.27,-546.8"/>
<polygon fill="#455a64" stroke="#455a64" points="389.75,-547.25 386.88,-537.05 382.76,-546.81 389.75,-547.25"/>
</g>
<!-- C3 -->
<g id="node9" class="node">
<title>C3</title>
<path fill="#bbdefb" stroke="black" d="M350.5,-414C350.5,-414 229.5,-414 229.5,-414 223.5,-414 217.5,-408 217.5,-402 217.5,-402 217.5,-388.75 217.5,-388.75 217.5,-382.75 223.5,-376.75 229.5,-376.75 229.5,-376.75 350.5,-376.75 350.5,-376.75 356.5,-376.75 362.5,-382.75 362.5,-388.75 362.5,-388.75 362.5,-402 362.5,-402 362.5,-408 356.5,-414 350.5,-414"/>
<text xml:space="preserve" text-anchor="middle" x="290" y="-401.45" font-family="Helvetica,sans-Serif" font-size="9.00">Invalidate read caches</text>
<text xml:space="preserve" text-anchor="middle" x="290" y="-391.7" font-family="Helvetica,sans-Serif" font-size="9.00">invalidate_all_named_caches()</text>
<text xml:space="preserve" text-anchor="middle" x="290" y="-381.95" font-family="Helvetica,sans-Serif" font-size="9.00">after successful load</text>
</g>
<!-- C2&#45;&gt;C3 -->
<g id="edge10" class="edge">
<title>C2&#45;&gt;C3</title>
<path fill="none" stroke="#455a64" d="M358.76,-469.26C344.63,-454.28 328.03,-436.68 314.67,-422.53"/>
<polygon fill="#455a64" stroke="#455a64" points="317.28,-420.19 307.87,-415.31 312.18,-424.99 317.28,-420.19"/>
</g>
<!-- D1 -->
<g id="node11" class="node">
<title>D1</title>
<path fill="#4db6ac" stroke="black" d="M885,-413.38C885,-413.38 855,-413.38 855,-413.38 849,-413.38 843,-407.38 843,-401.38 843,-401.38 843,-389.38 843,-389.38 843,-383.38 849,-377.38 855,-377.38 855,-377.38 885,-377.38 885,-377.38 891,-377.38 897,-383.38 897,-389.38 897,-389.38 897,-401.38 897,-401.38 897,-407.38 891,-413.38 885,-413.38"/>
<text xml:space="preserve" text-anchor="middle" x="870" y="-391.7" font-family="Helvetica,sans-Serif" font-size="9.00">Product</text>
</g>
<!-- C2&#45;&gt;D1 -->
<!-- E3 -->
<g id="node21" class="node">
<title>E3</title>
<path fill="#f8bbd0" stroke="black" stroke-width="2" d="M723.75,-185.5C723.75,-185.5 604.25,-185.5 604.25,-185.5 598.25,-185.5 592.25,-179.5 592.25,-173.5 592.25,-173.5 592.25,-131 592.25,-131 592.25,-125 598.25,-119 604.25,-119 604.25,-119 723.75,-119 723.75,-119 729.75,-119 735.75,-125 735.75,-131 735.75,-131 735.75,-173.5 735.75,-173.5 735.75,-179.5 729.75,-185.5 723.75,-185.5"/>
<text xml:space="preserve" text-anchor="middle" x="664" y="-172.95" font-family="Helvetica,sans-Serif" font-size="9.00">graph_rag.diagnose()</text>
<text xml:space="preserve" text-anchor="middle" x="664" y="-163.2" font-family="Helvetica,sans-Serif" font-size="9.00">1 lexical/hybrid symptom match</text>
<text xml:space="preserve" text-anchor="middle" x="664" y="-153.45" font-family="Helvetica,sans-Serif" font-size="9.00">2 Cypher INDICATES paths</text>
<text xml:space="preserve" text-anchor="middle" x="664" y="-143.7" font-family="Helvetica,sans-Serif" font-size="9.00">3 reliability FMEA+Bayes rank</text>
<text xml:space="preserve" text-anchor="middle" x="664" y="-133.95" font-family="Helvetica,sans-Serif" font-size="9.00">4 diagnostic_engine tree</text>
<text xml:space="preserve" text-anchor="middle" x="664" y="-124.2" font-family="Helvetica,sans-Serif" font-size="9.00">5 parts_predictor multi&#45;source</text>
</g>
<!-- C2&#45;&gt;E3 -->
<g id="edge24" class="edge">
<title>C2&#45;&gt;E3</title>
<path fill="none" stroke="#0d47a1" stroke-width="2" d="M459.82,-491.56C550.48,-477.04 696,-446.01 696,-396.38 696,-396.38 696,-396.38 696,-245.62 696,-229.58 691.64,-212.79 686.13,-197.99"/>
<polygon fill="#0d47a1" stroke="#0d47a1" stroke-width="2" points="689.45,-196.85 682.45,-188.9 682.96,-199.48 689.45,-196.85"/>
<text xml:space="preserve" text-anchor="middle" x="734.62" y="-327.15" font-family="Helvetica,sans-Serif" font-size="8.00">Bolt Cypher multi&#45;hop</text>
<text xml:space="preserve" text-anchor="middle" x="734.62" y="-318.15" font-family="Helvetica,sans-Serif" font-size="8.00">(not full graph scan)</text>
</g>
<!-- F2 -->
<g id="node24" class="node">
<title>F2</title>
<path fill="#eeeeee" stroke="black" d="M115.62,-63C115.62,-63 28.37,-63 28.37,-63 22.38,-63 16.38,-57 16.38,-51 16.38,-51 16.38,-28 16.38,-28 16.38,-22 22.38,-16 28.38,-16 28.38,-16 115.62,-16 115.62,-16 121.62,-16 127.62,-22 127.62,-28 127.62,-28 127.62,-51 127.62,-51 127.62,-57 121.62,-63 115.62,-63"/>
<text xml:space="preserve" text-anchor="middle" x="72" y="-50.45" font-family="Helvetica,sans-Serif" font-size="9.00">Hot&#45;path caches</text>
<text xml:space="preserve" text-anchor="middle" x="72" y="-40.7" font-family="Helvetica,sans-Serif" font-size="9.00">GET /graph/ontology</text>
<text xml:space="preserve" text-anchor="middle" x="72" y="-30.95" font-family="Helvetica,sans-Serif" font-size="9.00">GET /graph/product/{id}</text>
<text xml:space="preserve" text-anchor="middle" x="72" y="-21.2" font-family="Helvetica,sans-Serif" font-size="9.00">TTL memory or Redis</text>
</g>
<!-- C3&#45;&gt;F2 -->
<g id="edge27" class="edge">
<title>C3&#45;&gt;F2</title>
<path fill="none" stroke="#455a64" stroke-dasharray="1,5" d="M250.22,-376.45C231.83,-365.2 214,-348.65 214,-326.75 214,-326.75 214,-326.75 214,-151.25 214,-109.32 172.05,-119.81 139,-94 129.31,-86.43 118.9,-78.18 109.24,-70.47"/>
<polygon fill="#455a64" stroke="#455a64" points="111.43,-67.74 101.44,-64.23 107.06,-73.21 111.43,-67.74"/>
</g>
<!-- D0 -->
<g id="node10" class="node">
<title>D0</title>
<path fill="#80cbc4" stroke="black" d="M963,-520.31C963,-520.31 827,-520.31 827,-520.31 821,-520.31 815,-514.31 815,-508.31 815,-508.31 815,-496.31 815,-496.31 815,-490.31 821,-484.31 827,-484.31 827,-484.31 963,-484.31 963,-484.31 969,-484.31 975,-490.31 975,-496.31 975,-496.31 975,-508.31 975,-508.31 975,-514.31 969,-520.31 963,-520.31"/>
<text xml:space="preserve" text-anchor="middle" x="895" y="-503.51" font-family="Helvetica,sans-Serif" font-size="9.00">Asset</text>
<text xml:space="preserve" text-anchor="middle" x="895" y="-493.76" font-family="Helvetica,sans-Serif" font-size="9.00">INSTANCE_OF / BOUND_TO_SKU</text>
</g>
<!-- D0&#45;&gt;D1 -->
<g id="edge11" class="edge">
<title>D0&#45;&gt;D1</title>
<path fill="none" stroke="#455a64" d="M890.87,-483.98C887.04,-467.88 881.25,-443.61 876.75,-424.69"/>
<polygon fill="#455a64" stroke="#455a64" points="880.21,-424.12 874.49,-415.2 873.4,-425.74 880.21,-424.12"/>
</g>
<!-- D2 -->
<g id="node12" class="node">
<title>D2</title>
<path fill="#ffd54f" stroke="black" d="M909.88,-343.75C909.88,-343.75 830.12,-343.75 830.12,-343.75 824.12,-343.75 818.12,-337.75 818.12,-331.75 818.12,-331.75 818.12,-319.75 818.12,-319.75 818.12,-313.75 824.12,-307.75 830.12,-307.75 830.12,-307.75 909.88,-307.75 909.88,-307.75 915.88,-307.75 921.88,-313.75 921.88,-319.75 921.88,-319.75 921.88,-331.75 921.88,-331.75 921.88,-337.75 915.88,-343.75 909.88,-343.75"/>
<text xml:space="preserve" text-anchor="middle" x="870" y="-322.07" font-family="Helvetica,sans-Serif" font-size="9.00">Symptom / ErrorCode</text>
</g>
<!-- D1&#45;&gt;D2 -->
<g id="edge12" class="edge">
<title>D1&#45;&gt;D2</title>
<path fill="none" stroke="#455a64" d="M870,-376.96C870,-370.36 870,-362.67 870,-355.31"/>
<polygon fill="#455a64" stroke="#455a64" points="873.5,-355.39 870,-345.39 866.5,-355.39 873.5,-355.39"/>
</g>
<!-- D3 -->
<g id="node13" class="node">
<title>D3</title>
<path fill="#81c784" stroke="black" d="M964.88,-264.62C964.88,-264.62 921.12,-264.62 921.12,-264.62 915.12,-264.62 909.12,-258.62 909.12,-252.62 909.12,-252.62 909.12,-240.62 909.12,-240.62 909.12,-234.62 915.12,-228.62 921.12,-228.62 921.12,-228.62 964.88,-228.62 964.88,-228.62 970.88,-228.62 976.88,-234.62 976.88,-240.62 976.88,-240.62 976.88,-252.62 976.88,-252.62 976.88,-258.62 970.88,-264.62 964.88,-264.62"/>
<text xml:space="preserve" text-anchor="middle" x="943" y="-242.95" font-family="Helvetica,sans-Serif" font-size="9.00">FailureMode</text>
</g>
<!-- D2&#45;&gt;D3 -->
<g id="edge13" class="edge">
<title>D2&#45;&gt;D3</title>
<path fill="none" stroke="#455a64" d="M886.2,-307.63C895.77,-297.52 908.08,-284.52 918.79,-273.21"/>
<polygon fill="#455a64" stroke="#455a64" points="921.22,-275.73 925.55,-266.06 916.14,-270.92 921.22,-275.73"/>
</g>
<!-- D4 -->
<g id="node14" class="node">
<title>D4</title>
<path fill="#ce93d8" stroke="black" d="M926.62,-170.25C926.62,-170.25 827.38,-170.25 827.38,-170.25 821.38,-170.25 815.38,-164.25 815.38,-158.25 815.38,-158.25 815.38,-146.25 815.38,-146.25 815.38,-140.25 821.38,-134.25 827.38,-134.25 827.38,-134.25 926.62,-134.25 926.62,-134.25 932.62,-134.25 938.62,-140.25 938.62,-146.25 938.62,-146.25 938.62,-158.25 938.62,-158.25 938.62,-164.25 932.62,-170.25 926.62,-170.25"/>
<text xml:space="preserve" text-anchor="middle" x="877" y="-153.45" font-family="Helvetica,sans-Serif" font-size="9.00">DiagnosticStep</text>
<text xml:space="preserve" text-anchor="middle" x="877" y="-143.7" font-family="Helvetica,sans-Serif" font-size="9.00">NEXT_STEP · CONFIRMS</text>
</g>
<!-- D3&#45;&gt;D4 -->
<g id="edge14" class="edge">
<title>D3&#45;&gt;D4</title>
<path fill="none" stroke="#455a64" d="M930.59,-228.25C920.81,-214.57 907.03,-195.28 895.89,-179.69"/>
<polygon fill="#455a64" stroke="#455a64" points="898.9,-177.88 890.24,-171.78 893.2,-181.95 898.9,-177.88"/>
</g>
<!-- D5 -->
<g id="node15" class="node">
<title>D5</title>
<path fill="#4fc3f7" stroke="black" d="M1067.75,-170.25C1067.75,-170.25 972.25,-170.25 972.25,-170.25 966.25,-170.25 960.25,-164.25 960.25,-158.25 960.25,-158.25 960.25,-146.25 960.25,-146.25 960.25,-140.25 966.25,-134.25 972.25,-134.25 972.25,-134.25 1067.75,-134.25 1067.75,-134.25 1073.75,-134.25 1079.75,-140.25 1079.75,-146.25 1079.75,-146.25 1079.75,-158.25 1079.75,-158.25 1079.75,-164.25 1073.75,-170.25 1067.75,-170.25"/>
<text xml:space="preserve" text-anchor="middle" x="1020" y="-153.45" font-family="Helvetica,sans-Serif" font-size="9.00">Component</text>
<text xml:space="preserve" text-anchor="middle" x="1020" y="-143.7" font-family="Helvetica,sans-Serif" font-size="9.00">IMPACTS_COMPONENT</text>
</g>
<!-- D3&#45;&gt;D5 -->
<g id="edge15" class="edge">
<title>D3&#45;&gt;D5</title>
<path fill="none" stroke="#455a64" d="M957.48,-228.25C968.99,-214.44 985.27,-194.92 998.32,-179.25"/>
<polygon fill="#455a64" stroke="#455a64" points="1000.9,-181.63 1004.61,-171.71 995.52,-177.15 1000.9,-181.63"/>
</g>
<!-- D6 -->
<g id="node16" class="node">
<title>D6</title>
<path fill="#b0bec5" stroke="black" d="M1114.38,-57.5C1114.38,-57.5 977.62,-57.5 977.62,-57.5 971.62,-57.5 965.62,-51.5 965.62,-45.5 965.62,-45.5 965.62,-33.5 965.62,-33.5 965.62,-27.5 971.62,-21.5 977.62,-21.5 977.62,-21.5 1114.38,-21.5 1114.38,-21.5 1120.38,-21.5 1126.38,-27.5 1126.38,-33.5 1126.38,-33.5 1126.38,-45.5 1126.38,-45.5 1126.38,-51.5 1120.38,-57.5 1114.38,-57.5"/>
<text xml:space="preserve" text-anchor="middle" x="1046" y="-40.7" font-family="Helvetica,sans-Serif" font-size="9.00">Part</text>
<text xml:space="preserve" text-anchor="middle" x="1046" y="-30.95" font-family="Helvetica,sans-Serif" font-size="9.00">REQUIRES_PART · REALIZED_BY</text>
</g>
<!-- D3&#45;&gt;D6 -->
<g id="edge17" class="edge">
<title>D3&#45;&gt;D6</title>
<path fill="none" stroke="#455a64" d="M977.09,-242.48C1012.33,-237.21 1065.68,-223.12 1091,-185.5 1115.7,-148.8 1088.67,-97.9 1067.13,-67.19"/>
<polygon fill="#455a64" stroke="#455a64" points="1070.01,-65.21 1061.29,-59.19 1064.36,-69.34 1070.01,-65.21"/>
</g>
<!-- D3&#45;&gt;E3 -->
<g id="edge25" class="edge">
<title>D3&#45;&gt;E3</title>
<path fill="none" stroke="#455a64" stroke-dasharray="5,2" d="M908.79,-234.3C868.82,-221.06 801.28,-198.7 747.26,-180.82"/>
<polygon fill="#455a64" stroke="#455a64" points="748.67,-177.6 738.08,-177.78 746.47,-184.24 748.67,-177.6"/>
<text xml:space="preserve" text-anchor="middle" x="864.44" y="-202.9" font-family="Helvetica,sans-Serif" font-size="8.00">evidence edges</text>
</g>
<!-- D5&#45;&gt;D6 -->
<g id="edge16" class="edge">
<title>D5&#45;&gt;D6</title>
<path fill="none" stroke="#455a64" d="M1024.06,-133.95C1028.16,-116.47 1034.57,-89.19 1039.4,-68.61"/>
<polygon fill="#455a64" stroke="#455a64" points="1042.74,-69.69 1041.62,-59.16 1035.93,-68.09 1042.74,-69.69"/>
</g>
<!-- D7 -->
<g id="node17" class="node">
<title>D7</title>
<path fill="#ffab91" stroke="black" d="M1064.12,-343.75C1064.12,-343.75 955.88,-343.75 955.88,-343.75 949.88,-343.75 943.88,-337.75 943.88,-331.75 943.88,-331.75 943.88,-319.75 943.88,-319.75 943.88,-313.75 949.88,-307.75 955.88,-307.75 955.88,-307.75 1064.12,-307.75 1064.12,-307.75 1070.12,-307.75 1076.12,-313.75 1076.12,-319.75 1076.12,-319.75 1076.12,-331.75 1076.12,-331.75 1076.12,-337.75 1070.12,-343.75 1064.12,-343.75"/>
<text xml:space="preserve" text-anchor="middle" x="1010" y="-326.95" font-family="Helvetica,sans-Serif" font-size="9.00">Claim / HistoricalResolution</text>
<text xml:space="preserve" text-anchor="middle" x="1010" y="-317.2" font-family="Helvetica,sans-Serif" font-size="9.00">CONFIRMED · USED_PART</text>
</g>
<!-- D7&#45;&gt;D3 -->
<g id="edge18" class="edge">
<title>D7&#45;&gt;D3</title>
<path fill="none" stroke="#455a64" stroke-dasharray="5,2" d="M987.7,-299.08C977.96,-287.87 966.8,-275.02 958.06,-264.96"/>
<polygon fill="#455a64" stroke="#455a64" points="984.94,-301.24 994.14,-306.49 990.22,-296.65 984.94,-301.24"/>
<text xml:space="preserve" text-anchor="middle" x="998.51" y="-284.15" font-family="Helvetica,sans-Serif" font-size="8.00">precedent</text>
</g>
<!-- E0 -->
<g id="node18" class="node">
<title>E0</title>
<path fill="#e1bee7" stroke="black" d="M619,-414C619,-414 519,-414 519,-414 513,-414 507,-408 507,-402 507,-402 507,-388.75 507,-388.75 507,-382.75 513,-376.75 519,-376.75 519,-376.75 619,-376.75 619,-376.75 625,-376.75 631,-382.75 631,-388.75 631,-388.75 631,-402 631,-402 631,-408 625,-414 619,-414"/>
<text xml:space="preserve" text-anchor="middle" x="569" y="-401.45" font-family="Helvetica,sans-Serif" font-size="9.00">POST /diagnose</text>
<text xml:space="preserve" text-anchor="middle" x="569" y="-391.7" font-family="Helvetica,sans-Serif" font-size="9.00">rate limit · concurrency slot</text>
<text xml:space="preserve" text-anchor="middle" x="569" y="-381.95" font-family="Helvetica,sans-Serif" font-size="9.00">input guardrails</text>
</g>
<!-- E1 -->
<g id="node19" class="node">
<title>E1</title>
<path fill="#e1bee7" stroke="black" d="M639.62,-343.75C639.62,-343.75 498.38,-343.75 498.38,-343.75 492.38,-343.75 486.38,-337.75 486.38,-331.75 486.38,-331.75 486.38,-319.75 486.38,-319.75 486.38,-313.75 492.38,-307.75 498.38,-307.75 498.38,-307.75 639.62,-307.75 639.62,-307.75 645.62,-307.75 651.62,-313.75 651.62,-319.75 651.62,-319.75 651.62,-331.75 651.62,-331.75 651.62,-337.75 645.62,-343.75 639.62,-343.75"/>
<text xml:space="preserve" text-anchor="middle" x="569" y="-326.95" font-family="Helvetica,sans-Serif" font-size="9.00">CRM bind + warranty gate</text>
<text xml:space="preserve" text-anchor="middle" x="569" y="-317.2" font-family="Helvetica,sans-Serif" font-size="9.00">crm_enrichment · warranty_eligibility</text>
</g>
<!-- E0&#45;&gt;E1 -->
<g id="edge20" class="edge">
<title>E0&#45;&gt;E1</title>
<path fill="none" stroke="#455a64" d="M569,-376.25C569,-369.84 569,-362.45 569,-355.38"/>
<polygon fill="#455a64" stroke="#455a64" points="572.5,-355.5 569,-345.5 565.5,-355.5 572.5,-355.5"/>
</g>
<!-- E2 -->
<g id="node20" class="node">
<title>E2</title>
<path fill="#ce93d8" stroke="black" d="M645.38,-266.75C645.38,-266.75 520.62,-266.75 520.62,-266.75 514.62,-266.75 508.62,-260.75 508.62,-254.75 508.62,-254.75 508.62,-238.5 508.62,-238.5 508.62,-232.5 514.62,-226.5 520.62,-226.5 520.62,-226.5 645.38,-226.5 645.38,-226.5 651.38,-226.5 657.38,-232.5 657.38,-238.5 657.38,-238.5 657.38,-254.75 657.38,-254.75 657.38,-260.75 651.38,-266.75 645.38,-266.75"/>
<text xml:space="preserve" text-anchor="middle" x="583" y="-254.2" font-family="Helvetica,sans-Serif" font-size="9.00">LangGraph</text>
<text xml:space="preserve" text-anchor="middle" x="583" y="-244.45" font-family="Helvetica,sans-Serif" font-size="9.00">detect_product → run_diagnosis</text>
<text xml:space="preserve" text-anchor="middle" x="583" y="-233.2" font-family="Helvetica,sans-Serif" font-size="9.00">→ format → escalate</text>
</g>
<!-- E1&#45;&gt;E2 -->
<g id="edge21" class="edge">
<title>E1&#45;&gt;E2</title>
<path fill="none" stroke="#455a64" d="M572.11,-307.63C573.67,-299.02 575.61,-288.32 577.42,-278.34"/>
<polygon fill="#455a64" stroke="#455a64" points="580.84,-279.09 579.19,-268.63 573.96,-277.84 580.84,-279.09"/>
</g>
<!-- E2&#45;&gt;E3 -->
<g id="edge22" class="edge">
<title>E2&#45;&gt;E3</title>
<path fill="none" stroke="#455a64" d="M600.18,-226.03C608.17,-216.92 617.99,-205.72 627.52,-194.86"/>
<polygon fill="#455a64" stroke="#455a64" points="630.09,-197.23 634.05,-187.4 624.83,-192.61 630.09,-197.23"/>
</g>
<!-- E4 -->
<g id="node22" class="node">
<title>E4</title>
<polygon fill="#fff9c4" stroke="black" points="716.25,-63 605.75,-63 605.75,-16 722.25,-16 722.25,-57 716.25,-63"/>
<polyline fill="none" stroke="black" points="716.25,-63 716.25,-57"/>
<polyline fill="none" stroke="black" points="722.25,-57 716.25,-57"/>
<text xml:space="preserve" text-anchor="middle" x="664" y="-50.45" font-family="Helvetica,sans-Serif" font-size="9.00">JSON response</text>
<text xml:space="preserve" text-anchor="middle" x="664" y="-40.7" font-family="Helvetica,sans-Serif" font-size="9.00">ranked FM · parts · tree</text>
<text xml:space="preserve" text-anchor="middle" x="664" y="-30.95" font-family="Helvetica,sans-Serif" font-size="9.00">confidence · provenance</text>
<text xml:space="preserve" text-anchor="middle" x="664" y="-21.2" font-family="Helvetica,sans-Serif" font-size="9.00">graph_subgraph</text>
</g>
<!-- E3&#45;&gt;E4 -->
<g id="edge23" class="edge">
<title>E3&#45;&gt;E4</title>
<path fill="none" stroke="#455a64" d="M664,-118.02C664,-104.32 664,-88.46 664,-74.66"/>
<polygon fill="#455a64" stroke="#455a64" points="667.5,-74.69 664,-64.69 660.5,-74.69 667.5,-74.69"/>
</g>
<!-- F1 -->
<g id="node23" class="node">
<title>F1</title>
<path fill="#eeeeee" stroke="black" d="M306.12,-63C306.12,-63 161.88,-63 161.88,-63 155.88,-63 149.88,-57 149.88,-51 149.88,-51 149.88,-28 149.88,-28 149.88,-22 155.88,-16 161.88,-16 161.88,-16 306.12,-16 306.12,-16 312.12,-16 318.12,-22 318.12,-28 318.12,-28 318.12,-51 318.12,-51 318.12,-57 312.12,-63 306.12,-63"/>
<text xml:space="preserve" text-anchor="middle" x="234" y="-50.45" font-family="Helvetica,sans-Serif" font-size="9.00">Deterministic scoring</text>
<text xml:space="preserve" text-anchor="middle" x="234" y="-40.7" font-family="Helvetica,sans-Serif" font-size="9.00">graph/reliability.py</text>
<text xml:space="preserve" text-anchor="middle" x="234" y="-30.95" font-family="Helvetica,sans-Serif" font-size="9.00">S×O×D + P(fm|symptoms)</text>
<text xml:space="preserve" text-anchor="middle" x="234" y="-21.2" font-family="Helvetica,sans-Serif" font-size="9.00">from graph counts &amp; edge confidence</text>
</g>
<!-- E3&#45;&gt;F1 -->
<g id="edge26" class="edge">
<title>E3&#45;&gt;F1</title>
<path fill="none" stroke="#455a64" stroke-dasharray="1,5" d="M591.29,-146.06C522.18,-139.45 416.16,-124.94 329,-94 311.27,-87.71 292.99,-78.24 277.26,-69.01"/>
<polygon fill="#455a64" stroke="#455a64" points="279.49,-66.27 269.12,-64.1 275.88,-72.26 279.49,-66.27"/>
</g>
<!-- F3 -->
<g id="node25" class="node">
<title>F3</title>
<path fill="#eeeeee" stroke="black" d="M449.88,-58.12C449.88,-58.12 352.12,-58.12 352.12,-58.12 346.12,-58.12 340.12,-52.12 340.12,-46.12 340.12,-46.12 340.12,-32.88 340.12,-32.88 340.12,-26.88 346.12,-20.88 352.12,-20.88 352.12,-20.88 449.88,-20.88 449.88,-20.88 455.88,-20.88 461.88,-26.88 461.88,-32.88 461.88,-32.88 461.88,-46.12 461.88,-46.12 461.88,-52.12 455.88,-58.12 449.88,-58.12"/>
<text xml:space="preserve" text-anchor="middle" x="401" y="-45.58" font-family="Helvetica,sans-Serif" font-size="9.00">Provenance honesty</text>
<text xml:space="preserve" text-anchor="middle" x="401" y="-35.83" font-family="Helvetica,sans-Serif" font-size="9.00">source_system · doc URI</text>
<text xml:space="preserve" text-anchor="middle" x="401" y="-26.07" font-family="Helvetica,sans-Serif" font-size="9.00">simulated flags on fixtures</text>
</g>
</g>
</svg>
